<?xml version="1.0" encoding="UTF-8" standalone="no"?><svg xmlns="http://www.w3.org/2000/svg" xmlns:xlink="http://www.w3.org/1999/xlink" contentScriptType="text/ecmascript" fill="#000000" width="409.5" zoomAndPan="magnify" contentStyleType="text/css" viewBox="0.1 -0.2 409.5 481.5" height="481.5" preserveAspectRatio="xMidYMid meet" version="1"><g><g fill="#8a4c25"><path d="M320.2,108.5c0,0-62.6-16.3-141.7-61.1c0,0,35.5,30.3,108.1,59L320.2,108.5z"/><path d="M274.7,94.3c0,0-23.5-23.5-23-55.6c0,0-4.2,31.2,11.4,51.1L274.7,94.3z"/><path d="M267.3,85.2c0,0,1.6-10,9.1-17.8c0,0-7.2,5.2-12,13.4L267.3,85.2z"/></g><g><g><g><g><g><path fill="#f3cd33" d="M362.1,396.8c0,0,7.7,3.5,10,18.3c2.3,14.8-15.3,45.8-30.3,58.2c0,0-1.7,3.8,2.4,5.9 c4.1,2.1,24.3-2.7,36.7-17.8c12.4-15,19.8-40.7,4.8-55.3c-15-14.6-12.2-5.5-20.8-14.2L362.1,396.8z"/></g><g><path fill="#f3cd33" d="M362.3,396.8c1,0.5,1.9,1.3,2.7,2c2.2,2.1,3.9,4.9,5,7.7c0.9,2.2,1.6,4.6,2,6.9c0.3,1.7,0.5,3.3,0.5,5 c-0.1,3.4-0.8,6.7-1.8,10c-1.1,3.9-2.7,7.6-4.4,11.3c-1.9,4-4,7.9-6.3,11.7c-2.3,3.8-4.8,7.4-7.5,10.9c-2.5,3.1-5.1,6.2-8,8.9 c-0.6,0.6-1.3,1.2-2,1.8c-0.2,0.2-0.5,0.3-0.6,0.5c-0.1,0.2-0.1,0.4-0.2,0.6c-0.5,1.9,0.3,3.7,1.9,4.8c0.9,0.6,1.9,0.8,3,0.9 c1.3,0,2.6-0.1,3.8-0.3c3.6-0.6,7.2-1.8,10.5-3.3c4.2-1.8,8.3-4.2,11.9-7c3.9-3,7.3-6.6,10.2-10.6c2.7-3.8,5-7.9,6.7-12.2 c1.8-4.3,3.1-8.9,3.7-13.6c0.6-4.4,0.5-9-0.6-13.4c-1.1-4.3-3.1-8.4-6.1-11.7c-1.7-1.9-3.7-3.7-5.6-5.4 c-1.3-1.2-2.7-2.3-4.2-3.3c-1.6-1-3.2-1.8-5-2.2c-1.5-0.4-2.9-1-4.1-1.9c-1.1-0.8-2.1-1.8-3.1-2.8c0.1,0,0.2,0,0.4,0 C364.2,393.5,363.3,395.2,362.3,396.8c0,0.1-0.4,0.1-0.3,0c0.9-1.7,1.9-3.3,2.8-5c0-0.1,0.3-0.1,0.4,0 c1.6,1.6,3.3,3.3,5.5,4.2c1.3,0.5,2.7,0.7,4,1.3c2.8,1.2,5.2,3.2,7.4,5.2c1.9,1.7,3.9,3.5,5.6,5.4c1.4,1.7,2.7,3.6,3.7,5.6 c2,4,2.9,8.5,3,12.9c0.1,4.6-0.6,9.3-1.9,13.7c-1.3,4.5-3.2,8.9-5.5,13c-2.3,4.1-5.1,8-8.5,11.4c-3.4,3.5-7.4,6.4-11.6,8.9 c-3.6,2.1-7.5,3.7-11.5,4.9c-2.8,0.8-5.7,1.5-8.7,1.4c-0.8,0-1.7-0.1-2.5-0.4c-1.8-0.8-3.1-2.6-2.8-4.6c0-0.4,0.1-1,0.3-1.3 c0.2-0.2,0.5-0.4,0.7-0.6c0.3-0.3,0.7-0.6,1-0.9c1.4-1.3,2.7-2.6,4-4c2.9-3.1,5.5-6.4,7.9-9.9c2.6-3.7,5-7.5,7.2-11.4 c2.1-3.8,4-7.7,5.6-11.8c1.4-3.6,2.7-7.3,3.4-11.1c0.6-3.2,0.8-6.4,0.2-9.6c-0.8-4.3-2.1-8.5-4.6-12.1 c-1.2-1.8-2.7-3.5-4.5-4.6c-0.2-0.2-0.5-0.3-0.7-0.4C361.9,396.8,362.2,396.7,362.3,396.8z"/></g></g><g><g><path fill="#f4b937" d="M364,393.4c-0.3,0.6-0.1,1.4,0.5,1.8c3.4,2.3,14,10.2,14.4,19.3c0.5,10.7,4.4,31-34.1,59.3 c-0.8,0.6-1.4,1.4-1.8,2.4c-0.4,1.2-0.3,2.7,1.7,3.4c3.8,1.4,22.6-1.9,38.2-20.8c15.5-18.8,11.4-40.5,6.8-47.7 c0-0.1-0.1-0.1-0.1-0.2c-1-1.1-12.2-14.3-19.3-15c-0.1,0-0.2,0-0.4-0.1c-0.6-0.2-2.4-1-3.7-2.8 C365.8,392.3,364.5,392.4,364,393.4L364,393.4z"/></g><g><path fill="#f4b937" d="M364.2,393.4c-0.3,0.7,0,1.4,0.6,1.8c0.3,0.2,0.5,0.4,0.8,0.5c0.7,0.5,1.3,1,2,1.5 c1.7,1.3,3.3,2.8,4.8,4.3c3.3,3.4,6.3,7.6,6.8,12.4c0.2,1.8,0.2,3.7,0.3,5.5c0.1,2,0.1,4.1,0,6.1c-0.2,2.4-0.5,4.8-1.1,7.2 c-0.7,2.8-1.7,5.6-2.9,8.3c-1.5,3.3-3.4,6.4-5.6,9.3c-2.7,3.7-5.7,7.1-8.9,10.2c-4.1,4-8.5,7.8-13,11.3c-0.7,0.5-1.3,1-2,1.5 c-0.6,0.4-1.2,0.8-1.7,1.4c-0.7,0.9-1.3,2.2-1,3.4c0.5,1.4,2,1.7,3.3,1.8c2.9,0.1,5.8-0.6,8.6-1.4c4.4-1.4,8.5-3.4,12.4-5.8 c5.1-3.2,9.7-7.2,13.7-11.7c3.6-4.1,6.7-8.6,8.9-13.7c1.8-4.2,3-8.6,3.5-13.2c0.4-3.9,0.4-7.8-0.2-11.6c-0.4-3-1.2-6-2.4-8.7 c-0.4-0.9-0.8-1.9-1.5-2.7c-0.7-0.8-1.4-1.6-2.1-2.3c-2.6-2.8-5.4-5.6-8.4-8c-1.6-1.2-3.2-2.4-5-3.3c-0.8-0.4-1.6-0.7-2.4-1 c-0.4-0.1-0.7-0.2-1.1-0.2c-0.4-0.1-0.7-0.2-1.1-0.4c-0.9-0.5-1.8-1.1-2.5-1.8c-0.4-0.4-0.7-1.1-1.3-1.2 C365,392.5,364.5,392.9,364.2,393.4c-0.1,0.1-0.4,0.1-0.4-0.1c0.4-0.8,1.4-1.1,2.2-0.7c0.6,0.3,0.9,0.9,1.3,1.3 c0.5,0.5,1,0.9,1.5,1.2c0.4,0.2,0.8,0.4,1.1,0.6c0.4,0.2,0.8,0.2,1.2,0.3c0.8,0.2,1.5,0.4,2.3,0.8c1.8,0.8,3.4,1.9,4.9,3 c1.7,1.3,3.3,2.7,4.9,4.2c2.2,2.1,4.4,4.3,6.4,6.7c0.6,0.7,1.1,1.6,1.5,2.5c0.6,1.2,1,2.5,1.4,3.9c1,3.3,1.5,6.8,1.6,10.2 c0.2,4.2-0.3,8.5-1.3,12.6c-1.2,4.8-3.1,9.4-5.7,13.5c-3.2,5.2-7.4,9.8-12,13.8c-4.1,3.5-8.6,6.6-13.5,8.9 c-3.5,1.7-7.2,3-11,3.7c-1.3,0.2-2.5,0.4-3.8,0.3c-1.1,0-2.2-0.2-3.1-0.8c-0.9-0.6-1.1-1.6-0.9-2.7c0.3-1.4,1.2-2.3,2.3-3.1 c2.6-1.9,5.1-3.9,7.5-5.9c4.1-3.4,8-7.1,11.6-11.1c2.8-3.2,5.4-6.5,7.7-10.1c1.8-2.9,3.3-5.9,4.5-9c1-2.6,1.7-5.3,2.1-8 c0.4-2.3,0.5-4.5,0.5-6.8c0-1.9-0.1-3.8-0.2-5.7c-0.1-0.9-0.1-1.9-0.2-2.8c-0.2-2.5-1.2-4.8-2.4-6.9c-2.4-4-5.9-7.3-9.6-10.1 c-0.6-0.5-1.2-0.9-1.8-1.3c-0.3-0.2-0.6-0.4-0.9-0.7c-0.4-0.5-0.4-1-0.2-1.6C363.9,393.2,364.3,393.2,364.2,393.4z"/></g></g></g><g><g><g><path fill="#8aa43c" d="M359,395.2c1.5,1,3.5,2.2,4.3,2.3l3.1-4.5l-1.6-3.8c-0.7-1.6-2.9-1.8-3.8-0.3l-2.5,3.6 C357.9,393.4,358.1,394.6,359,395.2z"/></g><g><path fill="#8aa43c" d="M359.1,395.1c0.8,0.5,1.5,1,2.3,1.5c0.6,0.3,1.2,0.7,1.9,0.8c0,0-0.1,0-0.1,0.1c1-1.5,2.1-3,3.1-4.5 c0,0.1,0,0.2,0,0.2c-0.3-0.8-0.6-1.5-1-2.3c-0.3-0.8-0.6-1.9-1.3-2.4c-0.6-0.4-1.4-0.5-2-0.2c-0.4,0.2-0.7,0.5-1,0.9 c-0.6,0.8-1.1,1.6-1.7,2.5c-0.2,0.3-0.4,0.6-0.6,0.9C358.1,393.5,358.3,394.5,359.1,395.1c0.1,0.1,0,0.5-0.2,0.3 c-1-0.7-1.2-2-0.5-3c0.3-0.5,0.6-0.9,1-1.4c0.5-0.7,0.9-1.3,1.4-2c0.4-0.6,1-1.2,1.8-1.3c1-0.1,1.9,0.5,2.3,1.4 c0.3,0.6,0.5,1.1,0.7,1.7c0.3,0.7,0.6,1.3,0.9,2c0.1,0.3-0.3,0.7-0.4,0.9c-0.9,1.3-1.8,2.6-2.7,3.8c0,0-0.1,0.1-0.1,0.1 c-0.6-0.1-1.3-0.5-1.8-0.8c-0.8-0.5-1.6-1-2.4-1.5C358.8,395.3,358.9,395,359.1,395.1z"/></g></g></g><g><g><path fill="#926d2a" d="M342.6,473.3c1.4,0.6,3.7,2.2,3.6,5.3c0,0.6-0.5,1.2-1.2,1.1c-1.8,0-5-0.7-4-5.5 C341.2,473.5,341.9,473,342.6,473.3z"/></g><g><path fill="#926d2a" d="M342.7,473.1c1.2,0.5,2.4,1.4,3,2.6c0.6,1.1,1.3,3.5-0.3,4c-0.4,0.1-1,0.1-1.4,0c-0.5-0.1-1-0.2-1.4-0.4 c-1-0.5-1.7-1.4-1.8-2.6c-0.1-0.8-0.1-1.9,0.2-2.7C341.2,473.4,342,472.9,342.7,473.1c0.1,0.1-0.1,0.3-0.3,0.3 c-1.6-0.6-1.6,2.6-1.4,3.5c0.2,0.9,0.8,1.7,1.7,2.2c0.7,0.4,1.5,0.5,2.2,0.5c1.8,0,0.8-3,0.3-3.8c-0.7-1.1-1.7-1.9-2.8-2.4 C342.3,473.3,342.6,473.1,342.7,473.1z"/></g></g></g><g><path fill="#a8683b" d="M250.2,240.8c-36.7-2.3-50.3,54.6-52.2,93.7c-2.4,48.4,16.5,67.2,16.5,67.2l35.6,24.3 c31.2-3.3,44.9-50,47.1-85.5C299.1,310.8,303.6,244.2,250.2,240.8z"/></g><g><path fill="#f7e0ce" d="M345.8,430.1c0,0,5,13.6,5.2,21.1c0.3,7.4,9.6,5.3,9.2-1.1c-0.5-6.4-0.5-6.4-0.5-6.4s8.2,10.7,15.1,8.9 c9-2.3,12.7-20.3,1.5-25.9c-11.3-5.6-18.6-8.2-18.6-8.2L345.8,430.1z"/></g><g><path fill="#a8683b" d="M292,407.8c9.1,0.3,20.4,2.3,28.2,9.6c15.1,14.1,20.8,29.3,33.9,20.8c21.2-13.8,9.9-31.7-23.2-46.2 c-14.8-6.5-30.2-11-40.5-12.8L292,407.8z"/></g><g><path fill="#f7e0ce" d="M147.6,417.5c0,0-5.4,13.5-5.9,20.9c-0.5,7.4-9.8,5-9.1-1.4c0.7-6.4,0.7-6.4,0.7-6.4s-8.5,10.4-15.4,8.4 c-9-2.6-12.1-20.7-0.7-26c11.4-5.3,18.8-7.6,18.8-7.6L147.6,417.5z"/></g><g><path fill="#a8683b" d="M202,396.9c-9.1,0-20.5,1.7-28.5,8.7c-15.5,13.6-21.7,28.6-34.5,19.7c-20.7-14.4-8.9-32,24.6-45.4 c15-6,30.5-10.1,40.9-11.5L202,396.9z"/></g><g><path fill="#a8683b" d="M256.6,244.7c0,0-33.6-15.8-34.5-21.6c-0.9-5.8-4.3-26.3-5.9-31.9c-1.6-5.6-27.7-8-25.1-3 c6.2,12.4-1.1,31.6,1.7,47c1.4,7.7,22.5,30.5,28.1,40.4C225.5,283.9,256.6,244.7,256.6,244.7z"/></g><g><path fill="#a8683b" d="M269.6,246.4c0,0,36.9,4.1,40.7-0.4c3.8-4.5,17.4-20.2,21.7-24.2c4.3-4,27.8,7.6,23,10.6 c-11.8,7.3-15.5,27.5-26,39.2c-5.2,5.9-35.2,14.3-45.1,19.8C275.6,296,269.6,246.4,269.6,246.4z"/></g><g><path fill="#f7e0ce" d="M336.6,209.4c-7.6,3-9.9,15.4-5,27.6c4.8,12.2,15,19.7,22.6,16.7c7.6-3,9.9-15.4,5-27.6 C354.3,213.8,344.2,206.4,336.6,209.4z"/></g><g><path fill="#9a5f33" d="M199.7,330.1c22.8,12.1,10.4,39.5,10.4,39.5s-2.4,13.6-13.2,17c-10.9,3.4-49.6,1.4-50.3-34.3 C145.8,316.6,177,318,199.7,330.1z"/></g><g><path fill="#f5ccc4" d="M179.2,378.5c8.6,2.3,16.3,1.5,18.7,0.8c5.5-1.7,7.3-10.1,7.3-10.2l0.2-1.1l0.4-1c0.2-0.4,2.5-5.9,2.6-12.3 c0.1-7.5-2.8-12.5-9.1-15.9c-4.1-2.2-8.5-4-12.8-5.1c-9.3-2.5-17.3-2-21.8,1.5c-4.1,3.2-6,9.2-5.8,17.9 C159.2,366.4,166,374.9,179.2,378.5C179.2,378.5,179.2,378.5,179.2,378.5z"/></g><g><path fill="#9a5f33" d="M296.3,338.2c-23.9,9.6-14.5,38.2-14.5,38.2s0.9,13.7,11.4,18.3c10.5,4.6,49.1,6.7,53.7-28.7 C351.4,330.6,320.2,328.6,296.3,338.2z"/></g><g><path fill="#f5ccc4" d="M311.5,388.5c-8.8,1.4-16.3-0.2-18.6-1.2c-5.3-2.3-6.1-10.8-6.1-10.9l-0.1-1.2l-0.3-1 c-0.1-0.4-1.9-6.2-1.3-12.5c0.7-7.4,4.1-12.1,10.7-14.8c4.3-1.7,8.9-3,13.2-3.7c9.6-1.5,17.4-0.1,21.5,3.8c3.7,3.6,5,9.8,3.9,18.4 C332.7,378.6,325,386.4,311.5,388.5C311.5,388.5,311.5,388.5,311.5,388.5z"/></g><g><path fill="#f7e0ce" d="M184,346.5c17.9-47.2,135-27.7,131.7,32.6c-2.4,45.6-40.7,75-80.5,66.6C192.7,436.6,165.1,396,184,346.5z"/></g><g><path fill="#9a5f33" d="M184,346c17.9-47.2,135-27.7,131.7,32.6c-1.4,26.5-15,47.5-33.9,58.8c-0.1,0-0.1,0-0.2,0 c13.1-14.5,28.8-20.4,13.4-26.4c-15.4-6-14-6-7.4-8.6c20.8-8,27.4-43,3.2-54.7c-26.2-12.7-36.8,11.3-44.7,11.5 c-10.2,0.3-7.9-21.5-33.6-22.4c-30.3-1-27.7,50.4-10.9,59.6c11.1,6.1-29-4.6-5.1,25.9c0,0,3.5,5.1,3.4,5.1 C179.9,409.3,171.2,379.7,184,346z"/></g><g><path fill="#8a5f46" d="M238,409.5c0.1-2.3,6.4-2.4,11.1-0.5c4.8,1.8-2,6.6-5.4,6.7C240.3,415.9,237.8,411.8,238,409.5z"/></g><g><path fill="#8a5f46" d="M270.6,393.6c3.1,2.1,1.8,8.4-1.4,8.8c-3.2,0.5-4.2,0-4.9-3.8C263.4,394.9,267.5,391.5,270.6,393.6z"/></g><g><path fill="#8a5f46" d="M220.6,390.1c3.1,2.1,1.8,8.4-1.4,8.9c-3.2,0.5-4.2,0-4.9-3.8C213.5,391.5,217.6,388,220.6,390.1z"/></g><g><path fill="#9a5f33" d="M212.7,327.8c-5.2-2.3,0.2-10.1,7.3-16.9c9.2-9.1,24-14.1,28.7-11.5c4.6,2.4-12.8,9.6-12.4,9.9 c-0.1,0,9.6-2.4,16.9-2.8c7.2-0.7,14.6,0.7,12.4,2.1c-4.3,2.6-15.7,6.8-15.5,7.1c-0.1,0,7.5-0.4,14.9,1.5 c7.4,1.6,14.5,5.4,12.9,6.4c-2.6,2.4-7.5-4.5-21.3,5.3c-6.7,5-13.5,3.2-21.1,1.2C228.3,328,215.5,328.9,212.7,327.8z"/></g><g><path fill="#f5ccc4" d="M271.8,414.1c-2.1,5.2,13.9,8.6,15.6,3.7C289.7,411.4,274.4,407.7,271.8,414.1z"/></g><g><path fill="#f5ccc4" d="M199.7,410.7c-1.3,5.4,15.4,6.4,16.4,1.3C217.5,405.3,201.4,404,199.7,410.7z"/></g><g><path fill="#a16234" d="M243.2,422c9.1,0.8,21.8-3,21.8-3s-3.4,20.8-24.7,18.2c-20.6-2.5-17.6-20.9-17.6-20.9S234.1,421.2,243.2,422 z"/></g><g><path fill="#f1a698" d="M247.3,428c4.1,0.5,8.2,1.7,12,2.9c-3.7,4.1-9.6,7.5-18.9,6.3c-6.8-0.8-11.1-3.4-13.7-6.5 C233.6,428.6,241.6,427.2,247.3,428z"/></g><g><path fill="#f7e0ce" d="M218.7,178.1c4.9,6.6,0.4,18.3-10.1,26.2c-10.5,7.9-23,9-28,2.5c-4.9-6.6-0.4-18.3,10.1-26.2 C201.3,172.7,213.8,171.6,218.7,178.1z"/></g><g><path fill="#a8683b" d="M251,265.8c0,0-19.8-134.3,29-169.2c31.6-22.6,62.8,32.2,32.6,53.6c-26.4,18.8-35.7-12.9-16.2-13.5 c22.1-0.8,3.8-45.1-8.6-16.4c-9.6,22.4-14.8,38.3-17.3,54.1c-3.2,20.3-4.2,53.2,1.3,86.8L251,265.8z"/></g></g><g><path fill="#8a4c25" d="M327.7 131.2L324.1 105.9 297 102.8 284.1 127.6 304.3 128.5z"/></g><g><g><path fill="#7fc35a" d="M140.3,41.2c-3.2,1.3-5.9,3.4-9,5.2c-9.6,5.7-17.3,14.5-21.3,25c-1.8,4.7-2.9,10.8-2.8,15.8 c3.1,0.4,6.7-1,9.9-1.5c5.1-0.9,10-2.7,14.4-5.5c11.7-7.6,16.1-21.2,17-34.7c0.2-3-0.8-7.8,0.6-10.6"/></g><g><path fill="#62a04f" d="M145.7,41.9c-1.1,2.3-0.7,6-1.1,8.5c-0.4,2.9-1.3,6.6-2.8,9.3c-1.7,3.1-4,6.1-6.3,8.9 c-1.4,1.7-2.9,2.3-4.5,3.6c-2.3,1.8-4.4,4.3-7.2,5.4c-2.8,1.2-5.7,1.9-8.5,2.9c2.7-1.9,5.6-3,8.6-4.4c2.8-1.2,5.7-3.8,7.9-6 c1.5-1.5,3-2.7,4.6-4.1c1.5-1.3,2.2-3.3,3.3-5c1.9-3.2,3.9-6.8,4.2-10.6C143.9,48.9,145.1,43,145.7,41.9"/></g></g><g><path fill="#8a4c25" d="M409.6,117.3c0,0-223.3-44.5-403.3,22.6c0,0,309.3-39.7,401.6,4.3L409.6,117.3z"/></g><g><g><path fill="#7fc35a" d="M237.7,29.7c3.1-0.8,5.1-3.1,6.6-5.4c1.8-2.8,4.2-5.1,6.4-7.6c7-8.1,16.7-13.9,27.2-16 c4.8-0.9,10.7-0.9,15.4,0c-0.1,3-2.1,6.2-3.1,9.1c-1.7,4.7-4.2,9-7.7,12.7c-9.2,9.8-22.7,11.7-35.7,10.2 c-2.9-0.3-7.3-2.1-10.1-1.2c0.5,2.9,4.6,4.9,7,6c3.4,1.5,6.2,3.3,8.4,6.3c3.2,4.4,4.3,10.4,6.8,15.2c-2.2,2.2-7-0.5-9.2-1.5 c-3.5-1.6-8.1-6.5-10-9.9c-1.5-2.7-2.4-6.7-3.3-9.8c-0.5-1.7-0.1-4.4-1.7-5.5c-2.7,2.5-2,8.7-2.4,12c-0.8,7.1-3.5,14.1-7.2,20.3 c-3.7,6.3-10.1,11.7-16.9,14.7c-4.8,2.2-12.3,5.3-17.6,3.5c0.5-3.1,2.9-4.2,4.7-6.5c1.8-2.2,3.2-4.9,4.6-7.5 c3.1-5.8,3.4-12.3,9-16.5c6-4.5,15.2-7.4,19.8-13.6c1.8-2.4,3.8-5.1,4.9-7.8c-5.9,1.1-13.3,1.8-18-3.1c-3-3.1-6.8-9.1-7.6-13.5 c1.6-1,3.4,0.6,5,0.9c1.6,0.3,3-0.1,4.6,0c3.5,0.2,7.3,2.1,10.1,4.3c2.1,1.7,4,3.9,5.7,5.9C234.6,27,235.4,30.3,237.7,29.7"/></g><g><path fill="#62a04f" d="M244.1,29.6c2.4-0.6,5.8,0.4,8.3,0.4c2.8,0.1,6.5-0.2,9.3-1.1c3.2-1.1,6.5-2.8,9.5-4.5 c1.8-1,2.6-2.3,4.1-3.7c2.1-1.9,4.8-3.5,6.4-5.9c1.6-2.4,2.8-5.1,4.2-7.6c-2.2,2.3-3.8,4.8-5.6,7.4c-1.6,2.5-4.6,4.8-7,6.5 c-1.6,1.2-3.1,2.4-4.6,3.7c-1.5,1.2-3.5,1.6-5.3,2.2c-3.3,1.2-7.1,2.5-10.7,2.2C251,29.1,245.1,29.2,244.1,29.6"/></g><g><path fill="#62a04f" d="M231.9,36.1c0,1.4-1.1,2.8-1.4,4.1c-0.3,1.4-0.3,2.7-0.7,4.1c-0.4,1.5-1.2,3-1.6,4.5 c-0.3,1.3-0.6,2.4-1.1,3.7c-0.8,2.1-2,3.7-3.1,5.6c-0.8,1.4-1.2,2.9-2.1,4.2c-0.9,1.3-1.9,2.3-3,3.4c-1.2,1.1-2.2,2.5-3.4,3.5 c-2.1,1.7-4.4,3-6.8,4.1c1.6-1.3,3.6-2.1,5.2-3.5c2.1-1.9,4.1-4.1,6.1-6.2c1.2-1.2,2.2-2.7,2.7-4.2c0.5-1.5,1.1-2.6,2-3.8 c1.2-1.6,2-3.5,2.5-5.4c0.4-1.7,1.3-3.3,1.7-5c0.4-1.8,1.1-3.3,1.4-5.1c0.1-0.7,0.3-1.5,0.5-2.1C230.9,37.4,231.6,36.9,231.9,36.1"/></g><g><path fill="#62a04f" d="M237.1,35.4c0.2,0.8,0.9,1.6,1.3,2.4c0.4,0.8,0.6,1.4,1.2,2.1c1.3,1.5,1.6,3.5,2.7,5.1 c0.8,1.2,1.6,2.4,2.7,3.5c0.8,0.7,1.5,1.6,2.3,2.4c0.8,0.8,1.5,1.4,2.4,2c1.3,0.9,1.9,2.2,3.7,2.5c-0.2-0.6-1.2-0.7-1.6-1.1 c-0.4-0.3-0.6-0.8-1-1.3c-0.5-0.6-1.1-0.9-1.7-1.3c-0.8-0.5-1.4-1.4-2-2.1c-1.3-1.4-2.8-2.7-3.9-4.3c-0.8-1.2-1.5-2.3-2.1-3.6 c-0.3-0.7-0.5-1.3-0.9-2c-0.5-0.7-1-1.2-1.5-1.8C238,37.2,237.1,36,237.1,35.4"/></g><g><path fill="#62a04f" d="M233.4,29.1c-1.9-0.3-3.7-0.9-5.6-1.2c-1.5-0.3-2.7-0.7-4-1.3c-0.8-0.4-1.6-0.7-2.4-1.2 c-0.9-0.6-2.4-1.5-3.3-2.1c-1.6-1.1-2.5-1.8-3.8-3.3c-1-1.2-2-2.5-3.3-3.4c0.8,1.4,2.2,2.5,3.2,3.7c1,1.2,2.1,2.8,3.5,3.5 c1.9,1.1,3.7,2.3,5.7,3.3c1.8,0.9,4,1,6,1.5c0.8,0.2,1.6,0.5,2.4,0.5C232.2,29.2,232.8,29.1,233.4,29.1"/></g></g><g><g><path fill="#7fc35a" d="M70.1,130c-3.7-0.2-6.6,1.7-8.9,3.7c-2.9,2.4-6.2,4.1-9.5,6.2c-10.3,6.5-22.7,9.6-34.9,8.3 c-5.5-0.6-12-2.6-16.7-5.2c1.1-3.2,4.3-6.1,6.4-8.8c3.4-4.5,7.6-8.4,12.5-11.2c13.2-7.6,28.6-5.1,42.2,0.8 c3.1,1.3,7.2,4.7,10.6,4.7c0.5-3.3-3.3-6.8-5.6-8.8c-3.2-2.8-5.6-5.6-7-9.7c-2-5.8-1.3-12.7-2.4-18.7c3.1-1.7,7.4,2.8,9.5,4.7 c3.3,2.9,6.6,9.8,7.6,14.1c0.8,3.5,0.4,8.1,0.3,11.7c0,2-1.4,4.8,0,6.5c3.8-1.8,5.1-8.8,6.6-12.2c3.3-7.5,8.5-14.2,14.6-19.6 c6.2-5.6,14.9-9.4,23.2-10.4c5.9-0.7,15.1-1.7,20.3,2.1c-1.6,3.1-4.5,3.6-7.2,5.5c-2.7,1.8-5.2,4.3-7.5,6.6 c-5.4,5.3-7.8,12.3-15.3,15c-8.1,2.9-18.9,2.9-26,8.1c-2.8,2-5.8,4.2-8,6.9c6.7,0.7,15.1,2.5,18.5,9.4c2.2,4.4,4.3,12.2,3.7,17.2 c-2.1,0.5-3.5-1.8-5.2-2.7c-1.7-0.9-3.3-0.8-5-1.5c-3.8-1.4-7.3-4.7-9.5-8c-1.7-2.5-3.1-5.6-4.2-8.3C72.6,134,72.8,130.2,70.1,130"/></g><g><path fill="#62a04f" d="M63.2,128.1c-2.8-0.1-6.2-2.3-8.8-3.2c-3.1-1-7.1-2-10.4-1.9c-3.9,0.1-7.9,0.9-11.8,1.7 c-2.3,0.5-3.6,1.7-5.7,2.6c-2.9,1.4-6.4,2.2-8.9,4.3c-2.5,2.1-4.7,4.6-7.1,6.8c3.2-1.7,5.7-3.9,8.5-6.2c2.6-2.1,6.6-3.7,9.7-4.7 c2.2-0.7,4.1-1.6,6.2-2.5c2.1-0.8,4.3-0.5,6.5-0.7c4-0.3,8.6-0.4,12.4,1.2C55.5,126.3,61.9,128.1,63.2,128.1"/></g><g><path fill="#62a04f" d="M78.5,125c0.5-1.5,2.1-2.6,2.9-4c0.8-1.4,1.3-2.9,2.2-4.2c1-1.5,2.3-2.8,3.3-4.3c0.8-1.3,1.5-2.4,2.4-3.7 c1.5-2,3.4-3.4,5.3-5c1.3-1.2,2.2-2.7,3.6-3.9c1.4-1.1,2.8-1.9,4.4-2.7c1.7-0.8,3.2-2,4.9-2.7c2.8-1.2,5.7-1.8,8.7-2.1 c-2.2,0.9-4.6,1.1-6.8,2.1c-2.9,1.4-5.8,3.1-8.7,4.7c-1.7,0.9-3.2,2.2-4.3,3.7c-1,1.4-2.1,2.5-3.5,3.5c-1.9,1.3-3.4,3.2-4.5,5.1 c-1,1.7-2.5,3.1-3.5,4.9c-1,1.8-2.4,3.2-3.2,5c-0.3,0.7-0.8,1.5-1.3,2.1C80,124,79.2,124.2,78.5,125"/></g><g><path fill="#62a04f" d="M72.6,124.1c0-1-0.5-2-0.6-3c-0.1-1-0.2-1.8-0.6-2.7c-0.9-2-0.6-4.4-1.3-6.4c-0.5-1.6-0.9-3.2-1.8-4.6 c-0.6-1.1-1.1-2.2-1.7-3.3c-0.6-1.2-1.1-2-1.9-3c-1.1-1.4-1.3-3-3.1-3.9c0.1,0.7,1,1.1,1.4,1.7c0.4,0.5,0.4,1.1,0.6,1.7 c0.3,0.8,0.9,1.3,1.4,2c0.6,0.8,1,2,1.5,3c1,2,2.2,3.8,2.8,6c0.4,1.5,0.9,3.1,1.1,4.6c0.1,0.9,0.1,1.6,0.4,2.4 c0.3,0.9,0.7,1.6,1,2.5C72.3,121.8,72.8,123.4,72.6,124.1"/></g><g><path fill="#62a04f" d="M74.6,132.1c1.9,0.9,3.8,2.2,5.7,3.2c1.5,0.8,2.7,1.7,4,2.8c0.7,0.7,1.5,1.3,2.2,2.1 c0.8,0.9,2.1,2.5,2.9,3.4c1.4,1.8,2.1,2.8,3.1,4.9c0.7,1.6,1.4,3.4,2.4,4.8c-0.4-1.8-1.5-3.4-2.2-5.1c-0.7-1.6-1.4-3.7-2.6-5 c-1.7-1.8-3.2-3.7-5.1-5.5c-1.7-1.6-4-2.4-6-3.7c-0.8-0.5-1.6-1.1-2.5-1.4C75.9,132.4,75.2,132.3,74.6,132.1"/></g></g></g></svg>