<?xml version="1.0" encoding="UTF-8" standalone="no"?><svg xmlns="http://www.w3.org/2000/svg" xmlns:xlink="http://www.w3.org/1999/xlink" contentScriptType="text/ecmascript" fill="#000000" width="464" zoomAndPan="magnify" contentStyleType="text/css" viewBox="24.0 24.0 464.0 456.0" height="456" preserveAspectRatio="xMidYMid meet" version="1"><g><g id="change1_1"><path fill="#cfb3a0" d="M 410.371094 176.71875 C 406.855469 176.71875 403.628906 174.378906 402.660156 170.820312 L 374.054688 65.492188 C 372.890625 61.230469 377.632812 65.445312 381.894531 64.28125 C 386.15625 63.121094 390.554688 65.632812 391.71875 69.894531 L 418.09375 166.609375 C 419.257812 170.875 416.746094 175.269531 412.480469 176.433594 C 411.777344 176.625 411.070312 176.71875 410.371094 176.71875"/></g><g id="change1_2"><path fill="#cfb3a0" d="M 428.574219 180.574219 C 427.878906 180.574219 427.171875 180.480469 426.464844 180.289062 C 422.203125 179.128906 419.691406 174.730469 420.851562 170.464844 L 448.28125 69.894531 C 449.445312 65.632812 453.847656 63.121094 458.105469 64.28125 C 462.367188 65.445312 464.882812 69.84375 463.71875 74.105469 L 436.289062 174.675781 C 435.320312 178.234375 432.09375 180.574219 428.574219 180.574219"/></g><g id="change1_3"><path fill="#cfb3a0" d="M 336 328 L 369.851562 260.292969 C 379.15625 241.6875 384 221.171875 384 200.367188 L 384 200 C 384 177.910156 401.910156 160 424 160 C 446.089844 160 464 177.910156 464 200 L 464 218.0625 C 464 232.675781 463.234375 247.28125 461.703125 261.820312 L 456.308594 313.070312 C 451.011719 363.402344 424.996094 409.253906 384.507812 439.617188 L 384 440 L 397.804688 457.253906 C 405.136719 466.421875 398.609375 480 386.871094 480 L 24 480 C 38.558594 446.027344 71.964844 424 108.925781 424 L 200 424 L 336 328"/></g><g id="change2_1"><path fill="#e6ccb4" d="M 360 48 C 360 34.746094 370.746094 24 384 24 C 397.253906 24 408 34.746094 408 48 C 408 61.253906 397.253906 72 384 72 C 370.746094 72 360 61.253906 360 48"/></g><g id="change2_2"><path fill="#e6ccb4" d="M 440 48 C 440 34.746094 450.746094 24 464 24 C 477.253906 24 488 34.746094 488 48 C 488 61.253906 477.253906 72 464 72 C 450.746094 72 440 61.253906 440 48"/></g><g id="change3_1"><path fill="#715329" d="M 159.175781 448 C 190.542969 448 220.734375 436.0625 243.617188 414.609375 C 278.148438 394.429688 308.019531 367.175781 331.261719 334.632812 L 336 328 L 320.617188 279.289062 C 301.199219 217.804688 244.160156 176 179.683594 176 L 179.679688 176 C 127.765625 176 79.65625 203.238281 52.945312 247.757812 C 34.4375 278.605469 29.164062 315.617188 38.320312 350.410156 L 39.777344 355.957031 C 54.050781 410.195312 103.089844 448 159.175781 448"/></g><g id="change3_2"><path fill="#715329" d="M 253.480469 375.640625 L 242.601562 415.539062 C 235.960938 421.640625 228.730469 426.929688 221.039062 431.378906 L 224.351562 421.660156 L 238.039062 371.429688 C 244.160156 349 242.328125 324.941406 232.890625 303.691406 C 223.820312 283.289062 205.289062 268.730469 183.328125 264.738281 C 156.851562 259.921875 130.089844 271.28125 115.160156 293.679688 L 113.140625 296.710938 C 103.328125 311.429688 102.148438 330.398438 110.058594 346.230469 C 118.039062 362.179688 136.808594 369.960938 153.738281 364.320312 C 170.679688 358.671875 180.851562 341.78125 177.921875 324.160156 L 176.109375 313.320312 C 175.378906 308.960938 178.328125 304.839844 182.679688 304.109375 C 187.039062 303.378906 191.171875 306.328125 191.890625 310.679688 L 193.699219 321.53125 C 197.941406 346.96875 183.261719 371.351562 158.800781 379.5 C 134.371094 387.640625 107.261719 376.421875 95.75 353.378906 C 85.269531 332.441406 86.839844 307.320312 99.832031 287.828125 L 101.851562 284.800781 C 120.320312 257.089844 153.429688 243.039062 186.191406 248.988281 C 213.371094 253.941406 236.289062 271.949219 247.511719 297.191406 C 258.441406 321.800781 260.570312 349.660156 253.480469 375.640625"/></g><g id="change3_3"><path fill="#715329" d="M 376 48 C 376 43.582031 379.582031 40 384 40 C 388.417969 40 392 43.582031 392 48 C 392 52.417969 388.417969 56 384 56 C 379.582031 56 376 52.417969 376 48"/></g><g id="change3_4"><path fill="#715329" d="M 456 48 C 456 43.582031 459.582031 40 464 40 C 468.417969 40 472 43.582031 472 48 C 472 52.417969 468.417969 56 464 56 C 459.582031 56 456 52.417969 456 48"/></g><g id="change4_1"><path fill="#5b4321" d="M 281.371094 312 L 280 312 C 275.582031 312 272 308.417969 272 304 C 272 299.582031 275.582031 296 280 296 L 281.371094 296 C 293.828125 296 305.535156 291.148438 314.34375 282.34375 C 317.46875 279.21875 322.53125 279.21875 325.65625 282.34375 C 328.78125 285.46875 328.78125 290.53125 325.65625 293.65625 C 313.828125 305.484375 298.101562 312 281.371094 312"/></g><g id="change4_2"><path fill="#5b4321" d="M 256 264 C 251.582031 264 248 260.417969 248 256 C 248 251.582031 251.582031 248 256 248 C 268.347656 248 279.808594 241.867188 286.65625 231.59375 L 289.34375 227.5625 C 291.792969 223.886719 296.761719 222.894531 300.4375 225.34375 C 304.113281 227.792969 305.105469 232.761719 302.65625 236.4375 L 299.96875 240.46875 C 290.144531 255.203125 273.707031 264 256 264"/></g><g id="change5_1"><path fill="#debfab" d="M 408 344 C 403.582031 344 400 340.417969 400 336 L 400 328 C 400 323.582031 403.582031 320 408 320 C 412.417969 320 416 323.582031 416 328 L 416 336 C 416 340.417969 412.417969 344 408 344"/></g><g id="change5_2"><path fill="#debfab" d="M 376 360 C 371.582031 360 368 356.417969 368 352 L 368 344 C 368 339.582031 371.582031 336 376 336 C 380.417969 336 384 339.582031 384 344 L 384 352 C 384 356.417969 380.417969 360 376 360"/></g><g id="change5_3"><path fill="#debfab" d="M 400 384 C 395.582031 384 392 380.417969 392 376 L 392 368 C 392 363.582031 395.582031 360 400 360 C 404.417969 360 408 363.582031 408 368 L 408 376 C 408 380.417969 404.417969 384 400 384"/></g><g id="change5_4"><path fill="#debfab" d="M 344 456 L 328 456 C 323.582031 456 320 452.417969 320 448 C 320 443.582031 323.582031 440 328 440 L 344 440 C 348.417969 440 352 443.582031 352 448 C 352 452.417969 348.417969 456 344 456"/></g><g id="change5_5"><path fill="#debfab" d="M 296 456 L 256 456 C 251.582031 456 248 452.417969 248 448 C 248 443.582031 251.582031 440 256 440 L 296 440 C 300.417969 440 304 443.582031 304 448 C 304 452.417969 300.417969 456 296 456"/></g><g id="change3_5"><path fill="#715329" d="M 424 227.753906 C 417.277344 227.753906 410.550781 226.21875 404.421875 223.15625 C 400.46875 221.179688 398.867188 216.375 400.84375 212.421875 C 402.820312 208.472656 407.625 206.867188 411.578125 208.84375 C 419.355469 212.734375 428.644531 212.734375 436.421875 208.84375 C 440.375 206.867188 445.179688 208.472656 447.15625 212.421875 C 449.132812 216.375 447.53125 221.179688 443.578125 223.15625 C 437.449219 226.21875 430.722656 227.753906 424 227.753906"/></g><g id="change4_3"><path fill="#5b4321" d="M 253.480469 375.640625 L 242.601562 415.539062 C 235.960938 421.640625 228.730469 426.929688 221.039062 431.378906 L 224.351562 421.660156 L 238.039062 371.429688 C 244.160156 349 242.328125 324.941406 232.890625 303.691406 C 223.820312 283.289062 205.289062 268.730469 183.328125 264.738281 C 156.851562 259.921875 130.089844 271.28125 115.160156 293.679688 L 113.140625 296.710938 C 103.328125 311.429688 102.148438 330.398438 110.058594 346.230469 C 118.039062 362.179688 136.808594 369.960938 153.738281 364.320312 C 170.679688 358.671875 180.851562 341.78125 177.921875 324.160156 L 176.109375 313.320312 C 175.378906 308.960938 178.328125 304.839844 182.679688 304.109375 C 187.039062 303.378906 191.171875 306.328125 191.890625 310.679688 L 193.699219 321.53125 C 197.941406 346.96875 183.261719 371.351562 158.800781 379.5 C 134.371094 387.640625 107.261719 376.421875 95.75 353.378906 C 85.269531 332.441406 86.839844 307.320312 99.832031 287.828125 L 101.851562 284.800781 C 120.320312 257.089844 153.429688 243.039062 186.191406 248.988281 C 213.371094 253.941406 236.289062 271.949219 247.511719 297.191406 C 258.441406 321.800781 260.570312 349.660156 253.480469 375.640625"/></g></g></svg>