<?xml version="1.0" encoding="UTF-8" standalone="no"?><svg xmlns="http://www.w3.org/2000/svg" xmlns:xlink="http://www.w3.org/1999/xlink" contentScriptType="text/ecmascript" fill="#000000" width="1581.1" zoomAndPan="magnify" contentStyleType="text/css" viewBox="395.3 538.1 1581.1 821.2" height="821.2" preserveAspectRatio="xMidYMid meet" version="1"><g><g id="change1_1"><path fill="#ac5252" d="M 1870.472656 639.078125 C 1891.148438 658.515625 1912.65625 671.320312 1937.683594 680.742188 L 1976.425781 611.578125 C 1976.425781 611.578125 1929.8125 617.339844 1857.742188 625.691406 C 1861.851562 630.347656 1866.046875 634.882812 1870.472656 639.078125"/></g><g id="change1_2"><path fill="#ac5252" d="M 1822.878906 705.890625 C 1813.152344 709.125 1792.839844 750.132812 1792.839844 750.132812 L 1726.515625 740.191406 L 1890.632812 764.792969 L 1926.058594 701.539062 C 1902.589844 696.601562 1881.390625 685.480469 1860.914062 671.054688 C 1860.914062 671.054688 1832.601562 702.652344 1822.878906 705.890625"/></g><g id="change1_3"><path fill="#ac5252" d="M 592.828125 600.398438 C 495.777344 602.421875 424.40625 605.988281 395.285156 611.578125 C 395.285156 611.578125 479.53125 607.101562 592.3125 600.789062 L 592.828125 600.398438"/></g><g id="change1_4"><path fill="#ac5252" d="M 848.5 667.761719 C 808.15625 663.871094 768.148438 659.628906 729.535156 655.28125 L 768.664062 807.308594 C 785.042969 778.320312 805.457031 751.078125 821.703125 722.089844 C 831.429688 704.710938 839.730469 686.078125 848.5 667.761719"/></g><g id="change1_5"><path fill="#ac5252" d="M 1173 686.929688 C 1088.671875 686.949219 985.835938 680.308594 882.890625 670.96875 C 869.875 695.128906 854.628906 718.511719 841.789062 739.96875 C 828.335938 762.460938 814.425781 784.359375 799.605469 805.621094 C 804.21875 805.878906 808.382812 806.589844 812.019531 807.699219 L 965.230469 835.320312 L 1008.128906 856.769531 L 1075.539062 1071.21875 C 1075.539062 1071.21875 1078.050781 1075.070312 1082.46875 1081.800781 L 1164.378906 686.929688 L 1173 686.929688"/></g><g id="change1_6"><path fill="#ac5252" d="M 1571.910156 1175.421875 C 1571.460938 1175.820312 1571 1176.230469 1570.550781 1176.628906 C 1571.128906 1176.140625 1571.609375 1175.71875 1571.910156 1175.421875"/></g><g id="change1_7"><path fill="#ac5252" d="M 529.710938 678.601562 C 540.824219 666.769531 550.578125 650.261719 561.304688 634.789062 C 462.367188 621.859375 395.285156 611.578125 395.285156 611.578125 C 395.285156 611.578125 433.050781 678.019531 464.511719 732.421875 C 486.875 715.261719 510.277344 699.398438 529.710938 678.601562"/></g><g id="change1_8"><path fill="#ac5252" d="M 1352.070312 768.828125 C 1335.691406 742.828125 1317.550781 716.628906 1301.429688 689.519531 C 1299.621094 686.878906 1297.828125 684.230469 1296.03125 681.570312 C 1276.898438 682.941406 1258.46875 684.148438 1240.980469 685.171875 C 1221.179688 686.320312 1199.570312 686.871094 1176.550781 686.929688 L 1210.351562 686.929688 L 1234.210938 1061.089844 C 1306.988281 1050.648438 1378.449219 1040.398438 1378.449219 1040.398438 L 1378.769531 1040.628906 L 1378.878906 1040.601562 L 1571.910156 1175.421875 C 1574.898438 1172.5 1583.289062 1151.109375 1594.53125 1120.300781 L 1594.53125 1120.230469 C 1539.601562 1047.558594 1485.839844 973.847656 1435.460938 897.921875 C 1407.128906 855.28125 1379.300781 812.25 1352.070312 768.828125"/></g><g id="change1_9"><path fill="#ac5252" d="M 664.636719 835.28125 C 664.757812 835.300781 664.917969 835.320312 664.917969 835.320312 C 664.917969 835.320312 665.003906 835.289062 665.136719 835.238281 L 664.917969 835.300781 C 664.917969 835.300781 664.820312 835.300781 664.636719 835.28125"/></g><g id="change1_10"><path fill="#ac5252" d="M 1522.886719 709.671875 L 1668.695312 731.53125 L 1627.121094 651.238281 L 1627.132812 651.238281 C 1575.167969 656.683594 1521.265625 662.109375 1468.351562 667.074219 L 1471.09375 666.820312 L 1522.886719 709.671875"/></g><g id="change1_11"><path fill="#ac5252" d="M 534.488281 812.070312 C 524.492188 808.980469 514.742188 805.519531 505.621094 801.609375 C 507.960938 804.691406 519.097656 808.328125 534.488281 812.070312"/></g><g id="change1_12"><path fill="#ac5252" d="M 1446.78125 669.074219 C 1404.320312 672.976562 1362.773438 676.53125 1323.660156 679.527344 C 1339.632812 705.578125 1354.417969 732.601562 1370.328125 758.164062 C 1380.667969 774.742188 1391.070312 791.320312 1401.597656 807.761719 C 1411.945312 822.265625 1422.328125 836.691406 1432.738281 851.121094 C 1487.992188 927.824219 1539.730469 1004.71875 1585.691406 1086.628906 C 1590.238281 1093.320312 1594.859375 1100.019531 1599.472656 1106.710938 C 1635.613281 1006.089844 1693.988281 830.515625 1700.613281 826.09375 L 1476.933594 740.3125 L 1446.78125 669.074219"/></g><g id="change1_13"><path fill="#ac5252" d="M 639.019531 710.988281 C 651.855469 689.828125 664.914062 647.78125 664.917969 647.769531 C 644.59375 645.328125 624.886719 642.890625 606.023438 640.511719 C 590.617188 663.328125 570.921875 684.128906 555.714844 699.269531 C 535.300781 719.621094 508.847656 743.21875 480.242188 759.53125 C 493.113281 781.570312 502.996094 798.140625 505.59375 801.589844 C 505.597656 801.589844 505.601562 801.589844 505.601562 801.589844 L 631.210938 789.339844 C 631.210938 789.339844 626.183594 732.148438 639.019531 710.988281"/></g><g id="change2_1"><path fill="#cf625d" d="M 1668.695312 731.53125 L 1726.507812 740.195312 L 1792.828125 750.140625 C 1792.828125 750.140625 1813.148438 709.144531 1822.867188 705.902344 C 1832.582031 702.660156 1860.90625 671.070312 1860.90625 671.070312 C 1845.046875 659.882812 1830.285156 647.207031 1813.972656 636.738281 C 1811.1875 634.949219 1808.414062 633.304688 1805.671875 631.683594 C 1752.835938 637.6875 1691.484375 644.480469 1627.140625 651.238281 L 1627.128906 651.238281 L 1668.695312 731.53125"/></g><g id="change3_1"><path fill="#803d3c" d="M 631.210938 789.339844 L 505.601562 801.589844 L 505.582031 801.601562 C 505.59375 801.601562 505.609375 801.609375 505.621094 801.609375 C 514.742188 805.519531 524.492188 808.980469 534.488281 812.070312 C 592.765625 830.089844 659.773438 834.949219 664.636719 835.28125 C 664.820312 835.300781 664.917969 835.300781 664.917969 835.300781 L 631.210938 789.339844"/></g><g id="change4_1"><path fill="#60323d" d="M 965.230469 835.320312 L 812.019531 807.699219 C 851.867188 819.980469 910.042969 1022.210938 922.328125 1028.320312 C 934.550781 1034.5 1008.128906 1049.769531 1075.539062 1071.21875 L 1008.128906 856.769531 L 965.230469 835.320312"/></g><g id="change4_2"><path fill="#60323d" d="M 1082.398438 1082.910156 C 1089.871094 1081.808594 1162.679688 1071.359375 1234.210938 1061.089844 L 1210.351562 686.929688 L 1176.550781 686.929688 C 1175.378906 686.929688 1174.191406 686.929688 1173 686.929688 L 1164.378906 686.929688 L 1082.46875 1081.800781 L 1082.171875 1083.210938 L 1082.558594 1083.179688 L 1082.398438 1082.910156"/></g><g id="change4_3"><path fill="#60323d" d="M 1372.25 1151.328125 C 1350.28125 1155.730469 1158.519531 1210.691406 1158.519531 1210.691406 L 1082.171875 1083.210938 L 1245.171875 1359.300781 C 1245.171875 1359.300781 1474.71875 1262.128906 1570.550781 1176.628906 C 1571 1176.230469 1571.460938 1175.820312 1571.910156 1175.421875 C 1571.910156 1175.421875 1394.21875 1146.941406 1372.25 1151.328125"/></g><g id="change3_2"><path fill="#803d3c" d="M 1668.699219 731.535156 L 1522.890625 709.667969 L 1471.101562 666.824219 L 1468.351562 667.078125 C 1461.136719 667.75 1453.945312 668.421875 1446.777344 669.074219 L 1476.933594 740.3125 L 1700.609375 826.09375 L 1890.621094 764.796875 L 1726.507812 740.195312 L 1668.699219 731.535156"/></g><g id="change3_3"><path fill="#803d3c" d="M 882.890625 670.96875 C 877.472656 670.46875 872.058594 669.980469 866.644531 669.46875 C 856.863281 690.269531 844.84375 710.351562 834.058594 729.308594 C 819.6875 754.460938 804.804688 781.828125 786.539062 805.550781 C 791.152344 805.289062 795.574219 805.289062 799.605469 805.621094 C 814.425781 784.359375 828.335938 762.460938 841.789062 739.96875 C 854.628906 718.511719 869.875 695.128906 882.890625 670.96875"/></g><g id="change3_4"><path fill="#803d3c" d="M 1598.371094 1109.640625 C 1598.75 1108.660156 1599.078125 1107.75 1599.46875 1106.710938 C 1594.859375 1100.019531 1590.238281 1093.320312 1585.691406 1086.628906 C 1589.980469 1094.230469 1594.199219 1101.898438 1598.371094 1109.640625"/></g><g id="change3_5"><path fill="#803d3c" d="M 1401.601562 807.761719 C 1391.070312 791.320312 1380.671875 774.738281 1370.328125 758.160156 C 1354.421875 732.601562 1339.628906 705.578125 1323.660156 679.519531 C 1320.519531 679.769531 1317.410156 680 1314.300781 680.230469 C 1322.390625 693.210938 1330.539062 706.121094 1339.070312 718.640625 C 1359.480469 748.609375 1380.410156 778.25 1401.601562 807.761719"/></g><g id="change3_6"><path fill="#803d3c" d="M 1323.269531 721.238281 C 1316.121094 710.78125 1308.769531 700.179688 1301.429688 689.519531 C 1317.550781 716.628906 1335.691406 742.828125 1352.070312 768.828125 C 1379.300781 812.25 1407.128906 855.28125 1435.460938 897.921875 C 1485.839844 973.847656 1539.601562 1047.558594 1594.53125 1120.230469 C 1595.511719 1117.628906 1596.480469 1115.03125 1597.449219 1112.308594 C 1543.699219 1024.550781 1480.578125 941.542969 1420.449219 858.339844 C 1387.621094 812.898438 1354.730469 767.53125 1323.269531 721.238281"/></g><g id="change3_7"><path fill="#803d3c" d="M 1834.441406 628.386719 C 1825.179688 629.453125 1815.574219 630.554688 1805.671875 631.679688 C 1808.417969 633.304688 1811.179688 634.949219 1813.972656 636.738281 C 1830.285156 647.207031 1845.042969 659.882812 1860.902344 671.0625 C 1881.378906 685.492188 1902.570312 696.613281 1926.046875 701.550781 L 1930.652344 693.296875 C 1909.664062 688.617188 1890.097656 676.464844 1873.324219 663.398438 C 1860.476562 653.425781 1846.511719 641.617188 1834.441406 628.386719"/></g><g id="change3_8"><path fill="#803d3c" d="M 602.582031 600.210938 C 599.328125 600.210938 596.078125 600.269531 592.894531 600.398438 L 592.828125 600.398438 L 592.3125 600.789062 C 595.691406 600.601562 599.136719 600.398438 602.582031 600.210938"/></g><g id="change3_9"><path fill="#803d3c" d="M 583.859375 637.648438 C 576.1875 636.671875 568.648438 635.699219 561.304688 634.789062 C 550.578125 650.261719 540.824219 666.769531 529.710938 678.601562 C 510.277344 699.398438 486.875 715.261719 464.511719 732.421875 C 466.789062 736.320312 468.996094 740.160156 471.144531 743.929688 C 492.984375 730.339844 514.890625 716.890625 534 698.359375 C 553.503906 679.449219 570.011719 659.359375 583.859375 637.648438"/></g><g id="change5_1"><path fill="#5b2b29" d="M 866.644531 669.46875 C 860.59375 668.910156 854.542969 668.339844 848.5 667.761719 C 839.730469 686.078125 831.429688 704.710938 821.703125 722.089844 C 805.457031 751.078125 785.042969 778.320312 768.664062 807.308594 C 774.839844 806.460938 780.816406 805.808594 786.410156 805.550781 L 786.082031 806.199219 L 786.539062 805.550781 C 804.804688 781.828125 819.6875 754.460938 834.058594 729.308594 C 844.84375 710.351562 856.863281 690.269531 866.644531 669.46875"/></g><g id="change5_2"><path fill="#5b2b29" d="M 1432.738281 851.121094 C 1422.328125 836.691406 1411.941406 822.261719 1401.601562 807.761719 C 1380.410156 778.25 1359.480469 748.609375 1339.070312 718.640625 C 1330.539062 706.121094 1322.390625 693.210938 1314.300781 680.230469 C 1308.148438 680.691406 1302.050781 681.140625 1296.03125 681.570312 C 1297.828125 684.230469 1299.621094 686.878906 1301.429688 689.519531 C 1308.769531 700.179688 1316.121094 710.78125 1323.269531 721.238281 C 1354.730469 767.53125 1387.621094 812.898438 1420.449219 858.339844 C 1480.578125 941.542969 1543.699219 1024.550781 1597.449219 1112.308594 C 1597.78125 1111.460938 1598.101562 1110.550781 1598.371094 1109.699219 L 1598.371094 1109.640625 C 1594.199219 1101.898438 1589.980469 1094.230469 1585.691406 1086.628906 C 1539.730469 1004.71875 1487.988281 927.824219 1432.738281 851.121094"/></g><g id="change5_3"><path fill="#5b2b29" d="M 1857.734375 625.695312 C 1850.234375 626.5625 1842.472656 627.464844 1834.445312 628.390625 C 1846.523438 641.613281 1860.480469 653.425781 1873.332031 663.390625 C 1890.105469 676.453125 1909.671875 688.613281 1930.652344 693.285156 L 1935.207031 685.167969 L 1937.679688 680.746094 C 1912.644531 671.320312 1891.140625 658.515625 1870.464844 639.078125 C 1866.042969 634.882812 1861.847656 630.34375 1857.734375 625.695312"/></g><g id="change5_4"><path fill="#5b2b29" d="M 606.023438 640.511719 C 602.253906 639.988281 598.484375 639.539062 594.777344 639.078125 C 591.140625 638.621094 587.496094 638.101562 583.859375 637.648438 C 570.011719 659.359375 553.503906 679.449219 534 698.359375 C 514.890625 716.890625 492.984375 730.339844 471.144531 743.929688 C 472.25 745.75 473.285156 747.511719 474.328125 749.328125 C 476.34375 752.839844 478.359375 756.28125 480.242188 759.53125 C 508.847656 743.21875 535.300781 719.621094 555.714844 699.269531 C 570.921875 684.128906 590.617188 663.328125 606.023438 640.511719"/></g><g id="change2_2"><path fill="#cf625d" d="M 664.917969 647.769531 C 664.914062 647.78125 651.855469 689.828125 639.019531 710.988281 C 626.183594 732.148438 631.210938 789.339844 631.210938 789.339844 L 664.917969 835.300781 L 665.136719 835.238281 L 768.664062 807.308594 L 729.535156 655.28125 C 707.464844 652.800781 685.851562 650.28125 664.917969 647.769531"/></g><g id="change6_1"><path fill="#f5a780" d="M 583.859375 637.648438 C 587.5 638.097656 591.140625 638.617188 594.777344 639.078125 C 598.484375 639.539062 602.253906 639.988281 606.023438 640.507812 C 624.886719 642.898438 644.597656 645.324219 664.917969 647.761719 C 685.851562 650.28125 707.46875 652.792969 729.539062 655.277344 C 768.148438 659.632812 808.160156 663.863281 848.503906 667.753906 C 854.546875 668.335938 860.59375 668.90625 866.648438 669.476562 C 872.0625 669.972656 877.476562 670.472656 882.890625 670.96875 C 985.835938 680.304688 1088.671875 686.945312 1173.003906 686.925781 C 1174.191406 686.925781 1175.382812 686.929688 1176.550781 686.925781 C 1199.570312 686.871094 1221.1875 686.316406 1240.988281 685.167969 C 1258.472656 684.148438 1276.902344 682.9375 1296.035156 681.566406 C 1302.050781 681.140625 1308.148438 680.691406 1314.296875 680.230469 C 1317.414062 680 1320.519531 679.757812 1323.660156 679.527344 C 1362.773438 676.535156 1404.328125 672.980469 1446.777344 669.078125 C 1453.957031 668.421875 1461.148438 667.753906 1468.347656 667.074219 C 1521.277344 662.105469 1575.171875 656.683594 1627.140625 651.226562 C 1691.492188 644.472656 1752.84375 637.683594 1805.6875 631.671875 C 1815.582031 630.554688 1825.195312 629.449219 1834.449219 628.382812 C 1842.476562 627.460938 1850.246094 626.566406 1857.742188 625.691406 C 1929.8125 617.339844 1976.425781 611.578125 1976.425781 611.578125 L 1768.027344 538.0625 C 1768.027344 538.0625 1228.765625 550.34375 1158.230469 562.566406 C 1114.8125 570.109375 835.164062 587.011719 626.957031 598.847656 C 620.78125 599.164062 614.738281 599.488281 608.757812 599.816406 C 607.394531 599.949219 606.023438 600.011719 604.660156 600.070312 L 603.621094 600.144531 L 603.101562 600.203125 L 602.582031 600.203125 C 599.136719 600.398438 595.691406 600.59375 592.3125 600.785156 C 479.53125 607.09375 395.285156 611.578125 395.285156 611.578125 C 395.285156 611.578125 462.371094 621.847656 561.304688 634.785156 C 568.648438 635.695312 576.191406 636.679688 583.859375 637.648438"/></g><g id="change7_1"><path fill="#442129" d="M 1378.769531 1040.628906 L 1571.050781 1174.921875 L 1369.898438 1070.949219 C 1369.898438 1070.949219 1263.949219 1082.941406 1239.921875 1088.398438 C 1215.890625 1093.859375 1112.21875 1132.691406 1112.21875 1132.691406 L 1082.558594 1083.179688 L 1082.171875 1083.210938 L 1158.519531 1210.691406 C 1158.519531 1210.691406 1350.28125 1155.730469 1372.25 1151.328125 C 1394.21875 1146.941406 1571.910156 1175.421875 1571.910156 1175.421875 L 1378.878906 1040.601562 L 1378.769531 1040.628906"/></g><g id="change8_1"><path fill="#381920" d="M 1082.398438 1082.910156 L 1082.558594 1083.179688 L 1112.21875 1132.691406 C 1112.21875 1132.691406 1215.890625 1093.859375 1239.921875 1088.398438 C 1263.949219 1082.941406 1369.898438 1070.949219 1369.898438 1070.949219 L 1571.050781 1174.921875 L 1378.769531 1040.628906 L 1378.449219 1040.398438 C 1378.449219 1040.398438 1306.988281 1050.648438 1234.210938 1061.089844 C 1162.679688 1071.359375 1089.871094 1081.808594 1082.398438 1082.910156"/></g></g></svg>