<?xml version="1.0" encoding="UTF-8" standalone="no"?><svg xmlns="http://www.w3.org/2000/svg" xmlns:xlink="http://www.w3.org/1999/xlink" contentScriptType="text/ecmascript" fill="#000000" width="171" zoomAndPan="magnify" contentStyleType="text/css" viewBox="-2.0 -0.5 171.0 357.9" height="357.9" preserveAspectRatio="xMidYMid meet" version="1"><g id="change1_1"><path fill="#724e39" d="M98.707,356.441c0.433-1.406,0.573-3.162,0.384-5.328c-1.049-12.012-2.098-24.024-3.146-36.036 c-0.359-4.117-1.152-6.38-3.355-7.726c-1.158-0.707-2.706-1.16-4.785-1.496c-0.491-0.079-0.904-0.205-1.282-0.349 c-0.091-0.011-0.182-0.022-0.272-0.033c-4.039-0.488-10.798,2.275-14.966,2.931c-6.695,1.055-5.828,3.078-6.523,9.753 c-1.339,12.859-4.224,26.345-4.216,39.231C73.274,357.03,86.005,357.262,98.707,356.441z"/></g><g id="change2_1"><path fill="#75924b" d="M165.13,285.382c-4.833-30.669-10.98-61.143-17.927-91.4c-6.054-26.369-12.774-52.598-19.983-78.77 c-7.129-25.882-11.921-53.249-20.925-78.52c-3.833-10.758-8.258-19.778-10.832-31.242c-0.502-2.237-1.406-4.89-3.678-5.375 c-2.918-0.624-4.897,2.793-5.845,5.584C75.293,36.983,65.745,68.624,54.963,99.975c-7.702,22.424-15.465,44.83-22.722,67.405 c-7.257,22.566-14.018,45.291-19.759,68.286C7.95,253.823,4.33,272.098,1.08,290.52c-3.052,17.303-0.31,18.594,17.014,19.446 c17.175,0.845,34.314,2.537,51.518,2.724c17.15,0.186,34.289-0.555,51.411-1.53c10.91-0.62,22.484,1.63,33.213-1.089 C168.993,306.33,167.24,298.768,165.13,285.382z"/></g><g id="change3_1"><path fill="#9cb999" d="M40.293,258.543c0.015-0.616-0.784-0.682-1.12-0.311c-0.43,0.474-1.001,0.765-1.412,1.258 c-0.436,0.522-0.767,1.194-1.083,1.795c-0.642,1.218-1.2,2.466-1.751,3.726c-1.037,2.371-2.032,4.765-3.011,7.16 c-0.004,0.01-0.009,0.02-0.013,0.031c-0.56-0.682-1.033-1.481-1.453-2.228c-1.051-1.869-1.737-3.989-2.036-6.109 c-0.404-2.865-4.25-1.085-3.952,1.257c0.377,2.95,1.302,5.719,2.767,8.306c0.648,1.144,1.429,2.517,2.549,3.266 c1.46,0.976,3.258,0.333,4.352-0.857c1.099-1.195,1.622-2.805,2.23-4.28c0.603-1.464,1.212-2.926,1.81-4.392 c0.596-1.461,1.185-2.927,1.671-4.429c0.237-0.731,0.52-1.516,0.624-2.278C40.557,259.777,40.278,259.177,40.293,258.543z"/></g><g id="change3_2"><path fill="#9cb999" d="M127.45,260.082c0-0.01,0.001-0.02,0.001-0.03c0.021-0.635-0.592-1.138-1.191-1.117 c-0.698,0.025-1.29,0.595-1.552,1.209c-0.696,0.907-0.959,2.038-1.322,3.173c-0.404,1.262-0.794,2.525-1.257,3.767 c-0.85,2.283-1.864,4.609-3.049,6.658c-0.034,0.059-0.073,0.114-0.107,0.171c-0.064-0.076-0.129-0.153-0.143-0.171 c-0.85-1.066-1.635-2.189-2.45-3.282c-1.735-2.326-3.457-4.66-5.176-6.998c-1.351-1.837-4.113,1.107-2.925,2.799 c1.922,2.737,3.836,5.479,5.74,8.229c0.799,1.154,1.558,2.667,2.751,3.477c1.452,0.985,3.275,0.303,4.359-0.889 c1.089-1.197,1.779-2.754,2.494-4.189c0.656-1.317,1.256-2.662,1.797-4.03c0.54-1.366,1.036-2.757,1.443-4.169 C127.216,263.458,127.994,261.418,127.45,260.082z"/></g><g id="change3_3"><path fill="#9cb999" d="M73.446,205.211c0.148-1.155-1.135-1.241-1.697-0.458c-0.23,0.32-0.598,0.571-0.849,0.899 c-0.247,0.324-0.479,0.659-0.678,1.014c-0.399,0.708-0.757,1.438-1.083,2.182c-0.584,1.337-1.14,2.682-1.681,4.037 c-0.579,1.448-1.158,2.895-1.737,4.343c-0.119,0.297-0.237,0.594-0.368,0.886c-0.025,0.035-0.191,0.354-0.213,0.39 c-0.078,0.121-0.16,0.239-0.246,0.354c-0.023,0.025-0.047,0.05-0.082,0.088c-0.03,0.026-0.047,0.042-0.069,0.062 c0.02,0.019-0.154-0.186-0.201-0.25c-0.246-0.339-0.445-0.892-0.65-1.361c-0.573-1.314-1.12-2.639-1.639-3.975 c-1.056-2.718-1.987-5.479-2.808-8.276c-0.274-0.932-1.418-1.033-2.142-0.6c-0.867,0.519-1.279,1.556-1.026,2.518 c0.671,2.551,1.429,5.078,2.277,7.575c0.416,1.224,0.854,2.441,1.314,3.65c0.435,1.142,0.827,2.344,1.465,3.392 c0.621,1.021,1.74,1.63,2.932,1.559c1.426-0.085,2.585-1.109,3.43-2.17c0.759-0.952,1.229-2.077,1.681-3.197 c0.506-1.253,1.012-2.507,1.518-3.76c0.583-1.446,1.154-2.891,1.691-4.355c0.25-0.682,0.455-1.369,0.65-2.069 c0.123-0.443,0.198-0.883,0.242-1.341C73.513,205.968,73.4,205.568,73.446,205.211z"/></g><g id="change3_4"><path fill="#9cb999" d="M121.755,172.69c-1.035,0.037-1.711,0.975-1.933,1.888c-0.5,2.055-0.999,4.109-1.499,6.164 c-0.245,1.007-0.5,2.012-0.735,3.022c-0.002,0.01-0.029,0.121-0.045,0.19c-0.003,0.01-0.007,0.025-0.008,0.029 c-0.053,0.161-0.106,0.322-0.167,0.48c-0.062,0.16-0.132,0.317-0.203,0.474c-0.004,0.009-0.015,0.028-0.025,0.047 c-0.034,0.052-0.075,0.116-0.087,0.133c-0.022,0.031-0.074,0.093-0.124,0.152c-0.121-0.052-0.22-0.132-0.354-0.302 c-0.271-0.341-0.491-0.722-0.72-1.092c-0.978-1.577-1.887-3.193-2.706-4.858c-0.518-1.053-0.992-2.146-1.596-3.153 c-0.299-0.499-0.54-0.955-0.997-1.331c-0.343-0.282-0.83-0.452-1.258-0.562c-0.294-0.076-0.582,0.168-0.685,0.425 c-0.188,0.469-0.348,0.977-0.41,1.478c-0.09,0.73,0.093,1.377,0.283,2.072c0.297,1.084,0.771,2.121,1.261,3.131 c1.017,2.099,2.12,4.192,3.396,6.146c0.575,0.88,1.348,1.692,2.412,1.927c1.16,0.257,2.275-0.212,3.147-0.957 c1.695-1.447,2.148-3.726,2.612-5.785c0.599-2.657,1.198-5.314,1.796-7.971C123.305,173.568,122.67,172.657,121.755,172.69z"/></g><g id="change3_5"><path fill="#9cb999" d="M64.445,149.225c-0.159-1.101-1.659-1.315-2.248-0.228c-0.002,0.003-0.003,0.006-0.005,0.009 c-1.179,0.942-1.665,2.783-2.185,4.106c-0.644,1.639-1.352,3.253-2.122,4.837c-0.904,1.86-1.922,3.657-3.002,5.417 c-1.165-3.838-1.695-7.822-1.566-11.866c0.026-0.828-0.817-1.365-1.558-1.227c-0.81,0.151-1.634,0.959-1.689,1.815 c-0.365,5.665,0.393,11.31,2.347,16.648c0.591,1.616,2.488,0.943,3.247-0.11c2.145-2.979,3.982-6.171,5.608-9.459 c0.781-1.579,1.501-3.188,2.157-4.823c0.319-0.794,0.616-1.588,0.859-2.409C64.51,151.18,64.852,150.014,64.445,149.225z"/></g><g id="change3_6"><path fill="#9cb999" d="M113.433,107.618c-0.397,3.197-0.901,6.38-1.273,9.581c-0.317,2.73-0.581,5.474-0.938,8.2 c-0.859-0.953-1.643-1.971-2.342-3.047c-0.662-1.02-1.232-2.084-1.713-3.201c-0.29-0.673-0.562-1.337-0.915-1.981 c-0.184-0.335-0.332-0.615-0.637-0.868c-0.214-0.178-0.431-0.266-0.573-0.521c-0.688-1.23-2.165,0.468-2.139,1.299 c0.016,0.514-0.269,0.986-0.241,1.519c0.017,0.336,0.108,0.698,0.173,1.027c0.169,0.85,0.511,1.632,0.877,2.414 c0.701,1.495,1.525,2.943,2.485,4.286c0.917,1.282,1.98,2.67,3.221,3.658c1.391,1.107,3.118,0.655,4.223-0.62 c1.093-1.262,1.291-2.824,1.439-4.421c0.18-1.94,0.361-3.881,0.541-5.822c0.36-3.876,0.592-7.758,0.921-11.636 C116.743,105.109,113.678,105.644,113.433,107.618z"/></g><g id="change3_7"><path fill="#9cb999" d="M114.633,215.389c0.004-0.26-0.016-0.483-0.076-0.738c-0.195-0.833-1.213-0.367-1.534,0.052 c-0.13,0.17-0.205,0.364-0.315,0.546c0.161-0.101,0.099-0.016-0.186,0.256c-0.111,0.149-0.202,0.308-0.275,0.48 c-0.197,0.405-0.391,0.815-0.579,1.224c-0.363,0.79-0.72,1.577-1.103,2.357c-0.086,0.175-0.167,0.351-0.254,0.525 c-0.021,0.043-0.162,0.311-0.206,0.397c-0.113,0.207-0.234,0.41-0.352,0.615c-0.85-2.276-1.714-4.547-2.544-6.831 c-0.263-0.724-1.143-0.89-1.755-0.491c-0.663,0.431-1.1,1.275-0.841,2.062c1.056,3.203,2.031,6.432,3.093,9.632 c0.174,0.525,0.68,0.842,1.223,0.823c0.634-0.022,1.122-0.436,1.487-0.915c1.188-1.558,2.241-3.265,3.047-5.054 c0.404-0.897,0.742-1.877,0.972-2.833c0.098-0.409,0.182-0.843,0.227-1.261C114.693,215.952,114.63,215.561,114.633,215.389z"/></g><g id="change3_8"><path fill="#9cb999" d="M90.407,76.354c0.058-0.612-0.189-1.217-0.863-1.297c-0.703-0.083-1.226,0.474-1.511,1.05 c-0.163,0.328-0.477,0.609-0.679,0.918c-0.273,0.417-0.455,0.852-0.634,1.314c-0.259,0.667-0.463,1.348-0.668,2.033 c-0.443,1.479-0.874,2.961-1.3,4.444c-0.416,1.45-0.832,2.899-1.248,4.349c-0.475-0.921-0.675-2.065-0.956-3.029 c-0.426-1.459-0.873-2.911-1.316-4.365c-0.884-2.899-1.825-5.78-2.725-8.674c-0.295-0.948-1.443-1.064-2.193-0.614 c-0.886,0.53-1.312,1.594-1.051,2.578c0.94,3.536,1.844,7.081,2.803,10.612c0.461,1.698,0.901,3.413,1.427,5.092 c0.42,1.339,1.214,2.762,2.557,3.339c1.889,0.811,3.726-0.602,4.519-2.27c0.69-1.451,1.002-3.146,1.454-4.683 c0.502-1.709,1.01-3.416,1.492-5.13c0.276-0.983,0.577-1.963,0.796-2.961c0.111-0.506,0.227-1.011,0.216-1.533 C90.52,77.145,90.371,76.733,90.407,76.354z"/></g><g id="change3_9"><path fill="#9cb999" d="M98.403,46.856c0.128-0.499-0.264-1.025-0.78-1.006c-0.606,0.022-0.973,0.563-1.113,1.087 c-0.206,0.769-0.165,1.576-0.071,2.358c0.046,0.379,0.102,0.757,0.134,1.138c0.014,0.172,0.024,0.345,0.023,0.517 c-0.004,0.035-0.01,0.151-0.014,0.178c-0.004,0.031-0.051,0.244-0.053,0.279c-0.036,0.111-0.08,0.218-0.12,0.327 c-0.017,0.034-0.017,0.036-0.024,0.052c-0.024,0.04-0.047,0.08-0.072,0.118c-0.027,0.04-0.055,0.079-0.084,0.118 c-0.01,0.01-0.006,0.006-0.021,0.021c-0.028,0.028-0.059,0.054-0.088,0.081c-0.013,0.008-0.013,0.007-0.04,0.025 c-0.012,0.006-0.008,0.005-0.017,0.01c-0.025,0.009-0.051,0.016-0.076,0.023c0.04-0.024-0.178-0.019-0.154-0.001 c-0.057-0.012-0.113-0.025-0.168-0.044c0.046,0.027,0.04,0.025-0.017-0.008c-0.447-0.228-0.731-0.745-1.001-1.229 c-0.377-0.677-0.741-1.36-1.112-2.04c-0.376-0.69-0.735-1.395-1.135-2.071c-0.204-0.344-0.408-0.694-0.63-1.027 c-0.217-0.326-0.513-0.597-0.788-0.875c-0.665-0.671-1.531,0.302-1.343,1.033c0.09,0.35,0.159,0.73,0.295,1.066 c0.132,0.327,0.319,0.641,0.476,0.956c0.333,0.668,0.708,1.313,1.074,1.964c0.348,0.618,0.695,1.236,1.043,1.853 c0.291,0.517,0.561,1.061,0.932,1.526c0.802,1.006,2.04,1.409,3.209,0.769c1.033-0.565,1.669-1.779,1.846-2.909 C98.737,49.709,98.041,48.272,98.403,46.856z"/></g><g id="change3_10"><path fill="#9cb999" d="M89.739,280.597c-0.101-0.442-0.668-0.457-0.981-0.275c0.032-0.004,0.063-0.007,0.095-0.011 c0.199-0.025,0.127-0.009-0.217,0.046c-0.168,0.062-0.303,0.145-0.446,0.248c-0.288,0.207-0.506,0.496-0.738,0.76 c-0.598,0.68-1.048,1.324-1.468,2.12c-0.758,1.434-1.455,2.889-2.141,4.358c-0.671,1.435-1.341,2.87-2.012,4.305 c-0.577,1.235-0.966,2.377-1.643,3.23c-0.022,0.024-0.049,0.054-0.079,0.087c-0.109-0.058-0.247-0.15-0.252-0.155 c-0.187-0.166-0.351-0.457-0.48-0.686c-0.651-1.155-1.102-2.486-1.483-3.753c-0.367-1.219-2.173-10.157-4.306-4.118 c-0.707,2.002,0.696,5.904,1.343,7.799c0.414,1.214,0.878,2.535,1.637,3.582c0.735,1.016,1.896,1.662,3.167,1.53 c1.474-0.153,2.628-1.187,3.471-2.332c0.808-1.097,1.318-2.428,1.891-3.655c0.624-1.336,1.249-2.672,1.873-4.008 c0.692-1.481,1.414-2.953,2.032-4.467c0.328-0.802,0.672-1.589,0.802-2.453c0.058-0.385,0.108-0.783,0.135-1.17 C89.965,281.183,89.821,280.955,89.739,280.597z"/></g></svg>