<?xml version="1.0" encoding="UTF-8" standalone="no"?><svg xmlns="http://www.w3.org/2000/svg" xmlns:xlink="http://www.w3.org/1999/xlink" contentScriptType="text/ecmascript" fill="#000000" width="500" zoomAndPan="magnify" contentStyleType="text/css" viewBox="0.0 0.0 500.0 490.1" height="490.1" preserveAspectRatio="xMidYMid meet" version="1"><defs><clipPath id="a"><path d="M 0 0 L 500 0 L 500 490.078125 L 0 490.078125 Z M 0 0"/></clipPath></defs><g><g id="change1_1" clip-path="url(#a)"><path fill="#a9d5ff" d="M 292.617188 486.21875 C 295.363281 492.253906 278.6875 490.121094 272.746094 487.179688 C 187.222656 444.808594 89.390625 386.183594 34.105469 308.910156 C 8.621094 273.285156 -13.480469 235.328125 9.898438 197.730469 C 33.003906 160.578125 70.851562 195.910156 98.527344 207.921875 C 105.878906 211.113281 127.808594 223.183594 133.835938 212.617188 C 147.128906 189.332031 96.828125 102.582031 88.078125 73.421875 C 82.890625 56.121094 80.644531 29.972656 102.828125 24.175781 C 144.878906 13.1875 187.796875 113.179688 204.179688 141.523438 C 207.367188 147.042969 232.914062 188.4375 242.449219 184.429688 C 251.253906 180.730469 245.34375 149.003906 244.792969 145.585938 C 241.785156 126.917969 187.214844 -2.21875 240.339844 0.0273438 C 303.183594 2.6875 297.066406 183.109375 328.210938 189.886719 C 354.5625 195.621094 355.074219 98.039062 401.8125 100.027344 C 408.136719 100.300781 413.027344 105.664062 417.613281 109.226562 C 459 141.355469 389.335938 212.324219 407.652344 252.695312 C 415.933594 270.945312 495.398438 167.976562 499.890625 248.222656 C 503.921875 320.164062 394.503906 378.125 342.550781 406.527344 C 318.941406 419.433594 267.566406 435.777344 277.335938 473.117188 C 283.617188 497.121094 290.277344 481.074219 292.617188 486.21875" fill-rule="evenodd"/></g></g></svg>