<?xml version="1.0" encoding="UTF-8" standalone="no"?><svg xmlns="http://www.w3.org/2000/svg" xmlns:xlink="http://www.w3.org/1999/xlink" contentScriptType="text/ecmascript" fill="#000000" width="331.1" zoomAndPan="magnify" contentStyleType="text/css" viewBox="-6.1 -5.4 331.1 153.8" height="153.8" preserveAspectRatio="xMidYMid meet" version="1"><g id="change1_1"><path fill="#ffffff" d="M111.0665,34.3969c0,0,7.003-27.0601,44.2491-33.4268c37.247-6.3672,62.0781,20.6924,62.0781,20.6924 s10.1875-21.9663,45.5234-7.3218c35.3369,14.6441,30.5606,45.523,30.5606,45.523s20.0566-2.8652,25.7861,18.1455 c5.7305,21.0117-6.3662,32.791-15.2803,35.6562c0,0-12.416,25.1504-47.1142,8.2774c0,0-0.3194,12.0976-18.7842,17.1904 c-18.4629,5.0938-30.2422-5.4121-30.2422-5.4121s-11.4609,14.6445-28.0156-0.9551c0,0-5.4102,14.6446-30.2422,12.0977 c-24.8311-2.5469-27.6963-24.1934-27.6963-24.1934s-20.6924,20.0547-55.3921,8.2764 c-34.7002-11.7793-29.2876-26.4229-29.2876-26.4229s-29.2881,6.0489-36.292-12.415C-6.0863,71.644,28.6134,40.4467,50.8976,56.9994 c0,0,3.1841-14.0058,19.7373-25.1484C87.1891,20.7084,111.0665,34.3969,111.0665,34.3969z"/></g></svg>