<?xml version="1.0" encoding="UTF-8" standalone="no"?><svg xmlns="http://www.w3.org/2000/svg" xmlns:xlink="http://www.w3.org/1999/xlink" contentScriptType="text/ecmascript" fill="#000000" width="245" zoomAndPan="magnify" contentStyleType="text/css" viewBox="-5.5 -0.7 245.0 480.8" height="480.8" preserveAspectRatio="xMidYMid meet" version="1"><g id="change1_1"><path fill="#9a5f33" d="M100.9,301.6c0,0,87.1,58.1,83.6,106.6c-2.2,31.4-52.6,22.6-50.3-7.3c2-26.2,26.5-15.6,16.8-3.1 c-10.9,14.2,16.8,19.7,14.7,3.1c-2.5-19.6-16.2-29-24.8-38.7c-11-12.5-31-30.1-54.8-44L100.9,301.6z"/></g><g id="change2_1"><path fill="#f7e0ce" d="M61.6,215.4c0,0-2.4-11.5-1.7-17.5c0.7-6-7.1-5.4-7.5-0.2c-0.4,5.2-0.4,5.2-0.4,5.2s-5.3-9.5-11-8.9 c-7.5,0.8-12.6,14.8-4.3,20.6c8.4,5.8,13.9,8.8,13.9,8.8L61.6,215.4z"/></g><g id="change3_1"><path fill="#a8683b" d="M79.1,315.9c0,0-23.2-15.6-27.9-14.8c-4.7,0.8-21,2.8-25.7,3.1C20.7,304.4,13,287.1,17,285 c4.1-2.1,28.7-13.3,35-12.4c6.3,0.9,20.8,11.7,29.8,13.4C89.4,287.5,79.1,315.9,79.1,315.9z"/></g><g id="change3_2"><path fill="#a8683b" d="M85.5,324.5c15.8,9.7,31.3,4,36.7,1.5c7.4-3.4,21.1-13.9,26.4-27c13.8-34.2,11.3-38.9,13-46.7 c2.3-10.2-1.2-13-9.6-18.2c-14.7-9-44.2-13.5-53.3,16.2c-4.6,14.9-26.7,31-26,45.6c0.4,8.7,4.5,22.5,10.3,26.8 C83.9,323.5,84.7,324,85.5,324.5z"/></g><g id="change2_2"><path fill="#f7e0ce" d="M174.8,328.3c0,0-1.4,11.7-3.9,17.2c-2.5,5.5,5,7.4,7,2.6c2-4.8,2-4.8,2-4.8s2,10.7,7.7,12 c7.4,1.6,16.6-10.1,10.5-18.2c-6.1-8.2-10.5-12.7-10.5-12.7L174.8,328.3z"/></g><g id="change1_2"><path fill="#9a5f33" d="M145,294.2c6.5,3.5,13.9,9.1,16.9,17.2c5.8,15.7,4.3,28.8,16.9,27.4c20.3-2.3,18.7-19.3,0.1-41.9 c-8.3-10.1-17.8-19-24.7-24L145,294.2z"/></g><g id="change1_3"><path fill="#9a5f33" d="M104.4,242.6c-7.3-1.4-20-2.9-25.3-9.7c-10.2-13.2-12.8-26.2-24.4-21c-18.7,8.3-12.1,24,12.5,40 c11,7.1,21.2,11.5,29.3,14.3L104.4,242.6z"/></g><g id="change1_4"><path fill="#9a5f33" d="M120.3,162c15.6,14,0.5,33.1,0.5,33.1s-4.5,10.2-13.7,10.8c-9.2,0.6-39.3-8.5-32.9-36.8 C80.5,140.9,104.7,148,120.3,162z"/></g><g id="change4_1"><path fill="#ecb7b0" d="M94.7,196.1c6.3,3.5,12.5,4.4,14.5,4.2c4.6-0.3,7.7-6.5,7.7-6.6l0.4-0.9l0.5-0.7c0.2-0.3,3.1-4.2,4.4-9.2 c1.5-5.9,0.3-10.4-4.1-14.3c-2.8-2.5-5.9-4.8-9-6.5c-6.9-3.8-13.2-4.9-17.4-3c-3.8,1.7-6.5,6.1-8.1,12.9 C81.3,182.6,85,190.7,94.7,196.1C94.7,196.1,94.7,196.1,94.7,196.1z"/></g><g id="change1_5"><path fill="#9a5f33" d="M194.7,187.2c-20.7,2.9-18.8,27.2-18.8,27.2s-2,11,5.4,16.6c7.3,5.6,37.4,14.8,47.8-12.2 C239.5,191.9,215.4,184.3,194.7,187.2z"/></g><g id="change4_2"><path fill="#ecb7b0" d="M196.9,229.7c-7.2-0.6-12.8-3.4-14.4-4.6c-3.7-2.8-2.7-9.7-2.7-9.8l0.2-0.9l-0.1-0.9c0-0.3-0.3-5.2,1.4-10.1 c2-5.7,5.6-8.8,11.3-9.6c3.8-0.5,7.6-0.6,11.1-0.4c7.8,0.7,13.7,3.3,16.2,7.2c2.2,3.5,2,8.7-0.5,15.2 C215.4,226,207.9,230.6,196.9,229.7C196.9,229.7,196.9,229.7,196.9,229.7z"/></g><g id="change2_3"><path fill="#f7e0ce" d="M104.7,171.8c23.3-33.6,111.6,4.5,97.3,51.2c-10.8,35.4-46.6,51.1-76.3,36.7 C94.1,244.4,80.2,207.2,104.7,171.8z"/></g><g id="change1_6"><path fill="#9a5f33" d="M104.7,171.8c23.3-33.6,111.6,4.5,97.3,51.2c-6.3,20.6-21,34.5-38.1,39.7c-0.1,0-0.1,0-0.1,0 c13.1-8.9,26.6-10.5,15.7-18.1c-10.9-7.7-9.9-7.5-4.1-8.2c17.9-2.3,29.9-28.5,13.2-42.4c-18.2-15.1-31.2,1.7-37.4,0.4 c-8.1-1.8-2-18.5-22.1-24.2c-23.6-6.7-31.6,34.2-20.2,44.7c7.6,7-21.9-9.3-9,19.4c0,0,1.8,4.7,1.7,4.7 C89.1,220.8,88.1,195.8,104.7,171.8z"/></g><g id="change5_1"><path fill="#8a5f46" d="M134.9,231.9c0.6-1.8,5.5-0.6,8.9,1.7c3.4,2.4-2.9,4.8-5.5,4.3C135.5,237.4,134.3,233.7,134.9,231.9z"/></g><g id="change5_2"><path fill="#8a5f46" d="M163.7,225.7c2,2.2-0.2,6.9-2.8,6.7c-2.6-0.3-3.3-0.8-3.1-3.9C157.8,225.4,161.6,223.5,163.7,225.7z"/></g><g id="change5_3"><path fill="#8a5f46" d="M125.1,213.3c2,2.2-0.2,6.9-2.8,6.7c-2.6-0.3-3.3-0.8-3.1-3.9C119.2,213,123,211,125.1,213.3z"/></g><g id="change1_7"><path fill="#9a5f33" d="M131,162.7c-3.6-2.8,2.1-7.9,9-11.9c9-5.3,21.6-6.4,24.8-3.4c3.2,2.8-11.9,5-11.7,5.4c-0.1,0,8,0,13.8,1.1 c5.8,0.9,11.4,3.4,9.4,4.1c-3.9,1.2-13.7,2.3-13.6,2.5c-0.1,0,6,1.2,11.4,4.1c5.5,2.7,10.4,7.1,8.9,7.6c-2.5,1.4-5-5-17.8,0 c-6.3,2.6-11.2-0.1-16.8-3.1C143.2,165.9,132.9,164.1,131,162.7z"/></g><g id="change4_3"><path fill="#ecb7b0" d="M160.6,242.1c-2.7,3.7,9.2,9.4,11.6,5.9C175.2,243.5,163.9,237.6,160.6,242.1z"/></g><g id="change4_4"><path fill="#ecb7b0" d="M104.6,225.4c-2.1,4,10.9,8,12.7,4.2C119.6,224.6,107.2,220.4,104.6,225.4z"/></g><g id="change6_1"><path fill="#a16234" d="M136.6,242.8c7,2.4,17.7,1.9,17.7,1.9s-6.7,15.7-23,9.5c-15.7-6-9.7-19.9-9.7-19.9S129.6,240.4,136.6,242.8z"/></g><g id="change4_5"><path fill="#ecb7b0" d="M138.7,248.2c3.1,1.2,6.1,2.9,8.8,4.6c-3.7,2.5-9,4-16.1,1.3c-5.2-2-8-4.8-9.5-7.8 C127.8,246.1,134.3,246.6,138.7,248.2z"/></g><g id="change1_8"><path fill="#9a5f33" d="M79.4,310.2c0,0-2.5,30-6.7,32.3c-4.2,2.3-18.8,10.7-22.6,13.4c-3.8,2.8,1.7,23.3,4.8,19.9 c7.6-8.2,24.3-8,35.2-14.5c5.5-3.3,16.9-25.7,22.8-32.7C117.9,322.7,79.4,310.2,79.4,310.2z"/></g><g id="change2_4"><path fill="#f7e0ce" d="M39.4,357.7c3.6-5.6,13.8-5.4,22.8,0.3c9,5.8,13.3,15,9.7,20.6c-3.6,5.6-13.8,5.4-22.8-0.3 C40.2,372.5,35.8,363.3,39.4,357.7z"/></g><g id="change2_5"><path fill="#f7e0ce" d="M132.6,312.1c23.7-24.3,18.9-39.2-5.8-46.6c-13.4-4.1-28.7-3.1-39.1,13.3c-3.9,6.2-17,26.3-5.8,36.5 C93.3,325.4,111,334.3,132.6,312.1z"/></g><g><g id="change7_3"><path fill="#7fc35a" d="M45,407.7c1.1-1.5,2.5-2.8,3.8-4.2c4.1-4.5,9.7-7.6,15.8-8.6c2.7-0.4,6.1-0.3,8.8,0.3 c-0.1,1.7-1.3,3.5-1.9,5.1c-1.1,2.6-2.6,5-4.6,7.1c-5.4,5.4-13.1,6.2-20.5,5.1c-1.6-0.2-4.1-1.3-5.7-0.9"/></g><g id="change8_6"><path fill="#62a04f" d="M44.8,410.7c1.4-0.3,3.3,0.3,4.7,0.4c1.6,0.1,3.7,0,5.3-0.5c1.8-0.6,3.7-1.5,5.5-2.4c1.1-0.5,1.5-1.3,2.4-2 c1.2-1,2.8-1.9,3.7-3.2c0.9-1.3,1.7-2.9,2.5-4.2c-1.3,1.2-2.3,2.7-3.3,4.1c-1,1.4-2.7,2.6-4.1,3.5c-1,0.6-1.8,1.3-2.7,2 c-0.9,0.7-2,0.8-3,1.2c-1.9,0.6-4.1,1.3-6.1,1C48.7,410.5,45.4,410.5,44.8,410.7"/></g></g><g><g id="change7_4"><path fill="#7fc35a" d="M31.2,408.3c-1.8-0.5-3.7-0.6-5.6-0.8c-6-0.8-12.3,0.4-17.6,3.5c-2.4,1.4-4.9,3.7-6.5,5.8 c1.2,1.2,3.2,1.9,4.7,2.7c2.5,1.3,5.2,2.2,8,2.5c7.6,0.7,14-3.6,19-9.2c1.1-1.2,2.3-3.6,3.8-4.3"/></g><g id="change8_7"><path fill="#62a04f" d="M33.2,410.4c-1.2,0.6-2.3,2.4-3.3,3.3c-1.2,1.1-2.8,2.4-4.4,3c-1.8,0.7-3.8,1.3-5.7,1.7c-1.2,0.3-2,0-3.2,0 c-1.6,0-3.3,0.3-4.9-0.1c-1.6-0.4-3.1-1.1-4.6-1.6c1.8,0.1,3.4,0.6,5.2,1c1.6,0.4,3.8,0.3,5.4,0.1c1.1-0.1,2.2-0.1,3.3-0.2 c1.1-0.1,2.1-0.7,3.1-1c1.9-0.7,4-1.6,5.4-3.1C30.1,412.8,32.6,410.7,33.2,410.4"/></g></g><g><g id="change7_2"><path fill="#7fc35a" d="M28.8,386.5c-1.1-1.5-2.6-2.7-4-4.1c-4.3-4.3-10-7.2-16.1-7.9c-2.7-0.3-6.1-0.1-8.7,0.7 c0.2,1.7,1.4,3.4,2.1,5c1.2,2.6,2.7,4.9,4.9,6.9c5.6,5.2,13.4,5.7,20.7,4.3c1.6-0.3,4-1.5,5.7-1.1"/></g><g id="change8_5"><path fill="#62a04f" d="M29.1,389.5c-1.4-0.3-3.3,0.4-4.7,0.6c-1.6,0.2-3.7,0.2-5.3-0.2c-1.9-0.5-3.8-1.3-5.5-2.1 c-1.1-0.5-1.6-1.2-2.5-1.9c-1.3-1-2.9-1.8-3.8-3.1c-1-1.3-1.8-2.8-2.7-4.1c1.3,1.2,2.4,2.6,3.5,4c1,1.3,2.8,2.5,4.2,3.4 c1,0.6,1.8,1.2,2.8,1.9c0.9,0.6,2,0.7,3.1,1.1c1.9,0.6,4.1,1.1,6.2,0.8C25.2,389.5,28.5,389.3,29.1,389.5"/></g></g><g><g id="change7_5"><path fill="#7fc35a" d="M84.4,32.6c-1.1-1.5-2.6-2.7-4-4.1c-4.3-4.3-10-7.2-16.1-7.9c-2.7-0.3-6.1-0.1-8.7,0.7 c0.2,1.7,1.4,3.4,2.1,5c1.2,2.6,2.7,4.9,4.9,6.9c5.6,5.2,13.4,5.7,20.7,4.3c1.6-0.3,4-1.5,5.7-1.1"/></g><g id="change8_8"><path fill="#62a04f" d="M84.8,35.6c-1.4-0.3-3.3,0.4-4.7,0.6c-1.6,0.2-3.7,0.2-5.3-0.2c-1.9-0.5-3.8-1.3-5.5-2.1 c-1.1-0.5-1.6-1.2-2.5-1.9c-1.3-1-2.9-1.8-3.8-3.1c-1-1.3-1.8-2.8-2.7-4.1c1.3,1.2,2.4,2.6,3.5,4c1,1.3,2.8,2.5,4.2,3.4 c1,0.6,1.8,1.2,2.8,1.9c0.9,0.6,2,0.7,3.1,1.1c1.9,0.6,4.1,1.1,6.2,0.8C80.8,35.6,84.2,35.4,84.8,35.6"/></g></g><g><g id="change7_7"><path fill="#7fc35a" d="M92.1,43.2c1.1-1.5,2.6-2.7,4-4.1c4.3-4.3,10-7.2,16.1-7.9c2.7-0.3,6.1-0.1,8.7,0.7c-0.2,1.7-1.4,3.4-2.1,5 c-1.2,2.6-2.7,4.9-4.9,6.9c-5.6,5.2-13.4,5.7-20.7,4.3c-1.6-0.3-4-1.5-5.7-1.1"/></g><g id="change8_10"><path fill="#62a04f" d="M91.7,46.2c1.4-0.3,3.3,0.4,4.7,0.6c1.6,0.2,3.7,0.2,5.3-0.2c1.9-0.5,3.8-1.3,5.5-2.1 c1.1-0.5,1.6-1.2,2.5-1.9c1.3-1,2.9-1.8,3.8-3.1c1-1.3,1.8-2.8,2.7-4.1c-1.3,1.2-2.4,2.6-3.5,4c-1,1.3-2.8,2.5-4.2,3.4 c-1,0.6-1.8,1.2-2.8,1.9c-0.9,0.6-2,0.7-3.1,1.1c-1.9,0.6-4.1,1.1-6.2,0.8C95.7,46.2,92.4,46,91.7,46.2"/></g></g><g><g id="change7_6"><path fill="#7fc35a" d="M77.3,64.5c-1.1-1.5-2.6-2.7-4-4.1c-4.3-4.3-10-7.2-16.1-7.9c-2.7-0.3-6.1-0.1-8.7,0.7 c0.2,1.7,1.4,3.4,2.1,5c1.2,2.6,2.7,4.9,4.9,6.9c5.6,5.2,13.4,5.7,20.7,4.3c1.6-0.3,4-1.5,5.7-1.1"/></g><g id="change8_9"><path fill="#62a04f" d="M77.7,67.5c-1.4-0.3-3.3,0.4-4.7,0.6c-1.6,0.2-3.7,0.2-5.3-0.2c-1.9-0.5-3.8-1.3-5.5-2.1 c-1.1-0.5-1.6-1.2-2.5-1.9c-1.3-1-2.9-1.8-3.8-3.1c-1-1.3-1.8-2.8-2.7-4.1c1.3,1.2,2.4,2.6,3.5,4c1,1.3,2.8,2.5,4.2,3.4 c1,0.6,1.8,1.2,2.8,1.9c0.9,0.6,2,0.7,3.1,1.1c1.9,0.6,4.1,1.1,6.2,0.8C73.8,67.5,77.1,67.3,77.7,67.5"/></g></g><g><g id="change7_8"><path fill="#7fc35a" d="M85,78.7c1.1-1.5,2.6-2.7,4-4.1c4.3-4.3,10-7.2,16.1-7.9c2.7-0.3,6.1-0.1,8.7,0.7c-0.2,1.7-1.4,3.4-2.1,5 c-1.2,2.6-2.7,4.9-4.9,6.9c-5.6,5.2-13.4,5.7-20.7,4.3c-1.6-0.3-4-1.5-5.7-1.1"/></g><g id="change8_11"><path fill="#62a04f" d="M84.7,81.6c1.4-0.3,3.3,0.4,4.7,0.6c1.6,0.2,3.7,0.2,5.3-0.2c1.9-0.5,3.8-1.3,5.5-2.1 c1.1-0.5,1.6-1.2,2.5-1.9c1.3-1,2.9-1.8,3.8-3.1c1-1.3,1.8-2.8,2.7-4.1c-1.3,1.2-2.4,2.6-3.5,4c-1,1.3-2.8,2.5-4.2,3.4 c-1,0.6-1.8,1.2-2.8,1.9c-0.9,0.6-2,0.7-3.1,1.1c-1.9,0.6-4.1,1.1-6.2,0.8C88.6,81.6,85.3,81.5,84.7,81.6"/></g></g><g id="change1_9"><path fill="#9a5f33" d="M41.1,412.3c-7.2-16-43.2-115.1-12.7-160.7c30.4-45.6,64-220.3,66.9-240c1.1-7.6,3.5-10.5,5.7-11.3 c-2.3-0.8-7.4-1-9.2,11.3c-2.9,19.7-36.4,194.4-66.9,240c-30.4,45.6,6.9,153.6,13.5,164.2c5.2,8.4,38.9,42.7,44.9,40.9 C72.5,449.7,43.3,417.2,41.1,412.3z"/></g><g id="change2_6"><path fill="#f7e0ce" d="M8.1,277.1c-5.2,3.4-5,12.9,0.5,21.2c5.4,8.3,14.1,12.3,19.2,8.9c5.2-3.4,5-12.9-0.5-21.2 C21.9,277.7,13.3,273.7,8.1,277.1z"/></g><g><g id="change7_1"><path fill="#7fc35a" d="M75.7,455.3c-2.8-0.7-5.3,0.3-7.4,1.4c-2.6,1.4-5.4,2.2-8.3,3.2c-8.9,3.4-19,3.8-28.2,0.9 c-4.1-1.3-8.8-3.9-12.1-6.6c1.4-2.3,4.3-4,6.3-5.8c3.3-2.9,7.1-5.3,11.4-6.7c11.4-3.7,22.8,0.6,32.3,7.2c2.1,1.5,4.8,4.7,7.4,5.2 c0.9-2.5-1.5-5.8-2.9-7.6c-2-2.7-3.5-5.2-3.9-8.5c-0.6-4.8,1-10,1.1-14.8c2.6-0.8,5.3,3.4,6.6,5.1c2.1,2.8,3.6,8.6,3.6,12 c0,2.8-1,6.3-1.6,9.1c-0.3,1.5-1.8,3.5-1,5c3.2-0.8,5.3-6,7-8.3c3.7-5.2,8.8-9.5,14.3-12.8c5.6-3.3,12.9-4.8,19.5-4.3 c4.7,0.4,11.9,1.1,15.3,4.8c-1.7,2.2-4,2.1-6.4,3.1c-2.4,1-4.6,2.5-6.8,3.9c-4.9,3.2-8,8.2-14.1,9.1c-6.7,1-15-0.7-21.3,2.2 c-2.4,1.1-5.1,2.4-7.2,4c5.1,1.6,11.2,4.3,12.8,10.1c1,3.7,1.4,10.1,0.2,13.8c-1.7,0.1-2.4-1.9-3.6-2.9c-1.1-0.9-2.4-1.2-3.6-1.9 c-2.7-1.7-4.8-4.8-6-7.7c-0.9-2.2-1.5-4.8-1.9-7.1C77,458.8,77.8,455.9,75.7,455.3"/></g><g id="change8_1"><path fill="#62a04f" d="M70.7,452.8c-2.1-0.5-4.4-2.8-6.3-3.9c-2.2-1.3-5.2-2.7-7.7-3.1c-3-0.5-6.2-0.6-9.3-0.5 c-1.9,0-3,0.7-4.8,1.1c-2.5,0.6-5.2,0.7-7.5,1.9c-2.3,1.2-4.3,2.8-6.5,4.1c2.7-0.8,5-2.1,7.5-3.4c2.3-1.2,5.6-1.8,8.2-2.1 c1.8-0.2,3.4-0.6,5.2-0.9c1.7-0.3,3.4,0.3,5.1,0.5c3.1,0.4,6.7,1.1,9.3,2.9C65.1,450.2,69.7,452.6,70.7,452.8"/></g><g id="change8_2"><path fill="#62a04f" d="M83,452.8c0.6-1.1,2-1.7,2.9-2.6c0.8-0.9,1.4-2,2.3-2.9c1-1,2.2-1.8,3.2-2.8c0.8-0.9,1.5-1.7,2.4-2.4 c1.5-1.3,3.2-2,4.8-3.1c1.2-0.7,2.1-1.8,3.4-2.4c1.2-0.6,2.4-1,3.8-1.4c1.4-0.4,2.7-1,4.2-1.3c2.4-0.5,4.7-0.5,7.1-0.3 c-1.8,0.4-3.7,0.1-5.6,0.6c-2.5,0.6-5,1.5-7.4,2.3c-1.4,0.4-2.8,1.2-3.9,2.2c-1,0.9-2,1.6-3.2,2.1c-1.6,0.7-3.1,1.9-4.2,3.2 c-1,1.2-2.4,2-3.5,3.2c-1.1,1.2-2.3,2.1-3.2,3.4c-0.4,0.5-0.8,1-1.3,1.4C84.3,452.2,83.6,452.3,83,452.8"/></g><g id="change8_3"><path fill="#62a04f" d="M78.6,451.2c0.2-0.7,0-1.6,0-2.4c0.1-0.8,0.1-1.4,0-2.1c-0.4-1.7,0.2-3.5,0-5.2c-0.1-1.3-0.2-2.6-0.6-3.9 c-0.3-0.9-0.5-1.9-0.8-2.8c-0.3-1-0.6-1.7-1-2.6c-0.6-1.3-0.5-2.5-1.8-3.5c-0.1,0.6,0.6,1,0.8,1.5c0.2,0.5,0.1,0.9,0.2,1.4 c0.1,0.7,0.5,1.1,0.8,1.7c0.4,0.7,0.5,1.7,0.7,2.5c0.5,1.7,1.1,3.3,1.2,5c0.1,1.2,0.2,2.5,0.1,3.7c0,0.7-0.2,1.3-0.1,1.9 c0.1,0.7,0.3,1.3,0.4,2.1C78.7,449.4,78.9,450.7,78.6,451.2"/></g><g id="change8_4"><path fill="#62a04f" d="M78.9,457.6c1.4,1,2.6,2.3,3.9,3.3c1,0.8,1.8,1.7,2.6,2.8c0.5,0.6,1,1.3,1.4,1.9c0.5,0.8,1.2,2.2,1.7,3.1 c0.8,1.6,1.2,2.5,1.6,4.3c0.3,1.3,0.5,2.9,1.1,4.1c0-1.4-0.6-2.9-0.9-4.3c-0.3-1.4-0.5-3.1-1.2-4.2c-1-1.7-1.9-3.4-3-5 c-1-1.5-2.7-2.5-4-3.7c-0.5-0.5-1-1.1-1.7-1.5C79.8,458.1,79.3,457.9,78.9,457.6"/></g></g></svg>