<?xml version="1.0" encoding="UTF-8" standalone="no"?><svg xmlns="http://www.w3.org/2000/svg" xmlns:xlink="http://www.w3.org/1999/xlink" contentScriptType="text/ecmascript" fill="#000000" width="139.2" zoomAndPan="magnify" contentStyleType="text/css" viewBox="0.0 -0.0 139.2 25.8" height="25.8" preserveAspectRatio="xMidYMid meet" version="1"><g><g id="change1_1"><path fill="#81d166" clip-rule="evenodd" d="M133.741,2.178c-0.793-0.278-1.849-0.382-2.922-0.473 c0.072-0.055,0.1-0.14,0.092-0.247c-0.602-0.02-0.854,0.186-1.505,0.135c0.202-0.129,0.039-0.234-0.284-0.183 c0.186-0.159,0.77-0.062,0.754,0.117c0.119-0.017,0.095-0.123-0.001-0.123c1.533,0.083,3.113-0.172,4.426,0.09 c-0.771-0.532-3.273-0.521-4.431-0.83c0.073-0.143,0.582-0.064,0.472,0.12c0.124-0.063,0.35-0.062,0.375-0.188 c1.021,0.202,2.182,0.278,3.202,0.224c1.164,0.443,2.733,0.618,3.399,1.394c0.042,0.501-0.092,0.768,0.009,1.172 c-0.3,0.522-0.631,1.025-1.214,1.365c0.41,0.507,0.65,0.889,0.67,1.414c-0.123,0.101-0.693,0.227-0.28,0.311 c-0.195,0.078-0.396,0.153-0.563,0.251c0.048,0.161,0.521,0.204,0.285,0.367c-0.326,0.052-0.362-0.089-0.659-0.057 c0.072,0.362,0.763,0.513,0.949,0.98c0.229,0.575-0.199,1.264-0.174,1.975c-0.921,0.006-0.594,0.913-1.877,0.815 c0.969,0.395,2.383,0.801,3.584,0.837c0.216,0.25,0.526,0.912,0.008,1.11c0.11,0.112,0.247,0.207,0.379,0.306 c-0.197,0.153-0.961,0.008-0.657,0.313c-0.94,0.153-2.156-0.068-2.82,0.452c0.011,0.158,0.352,0.097,0.472,0.182 c0.03,0.157-0.174,0.361-0.09,0.494c0.528,0.128,0.266,0.233,0.755,0.241c-0.116,0.171-0.295,0.301-0.657,0.313 c0.288,0.159,0.816,0.158,0.944,0.425c-1.073,0.294-1.541,0.093-2.729,0.144c1.703,0.312,3.226,0.744,4.622,1.261 c0.018,0.269,0.036,0.539-0.185,0.495c0.178,0.193,0.318,0.05,0.47-0.065c0.103,0.531,0.156,0.856,0.668,1.167 c-0.186,0.439-0.842,0.266-1.409,0.38c0.084,0.296,0.212,0.562,0.663,0.612c-0.295,0.562-1.896,0.484-2.442,0.696 c0.216,0.368,0.805,0.063,1.318-0.01c-0.129,0.251,0.206,0.193,0.191,0.369c-1.675,0.062-1.825,0.567-3.575,0.396 c-0.046,1.606-1.281,2.447-1.949,3.653c-0.818-0.15-1.178,0.122-1.598,0.382c-0.042,0.172,0.512-0.053,0.471,0.119 c-0.735,0.216-1.769,0.182-2.822,0.268c-0.983,0.081-1.813,0.083-2.448-0.166c-4.846,0.612-8.644,0.129-13.742,0.409 c-0.084-0.197,0.31-0.086,0.28-0.248c-1.567-0.007-4.313,0.455-5.836,0.104c-0.303,0.058-0.133-0.2-0.284-0.245 c-1.19,0.037-2.261,0.434-3.012,0.022c-1.693-0.094-3.57,0.412-4.802,0.036c-4.947,0.085-8.933,0.308-13.087-0.15 c-2.366-0.114-4.297,0.05-6.685-0.074c0.335-0.295,1.123-0.299,1.786-0.383c-0.87-0.102-2.288-0.122-3.483-0.036 c-3.996,0.288-8.16,0.194-12.238,0.029c-0.188-0.142,0.023-0.069,0.093-0.186c-0.802-0.198-1.643,0.078-2.353,0.141 c-0.177-0.116-0.012-0.155-0.002-0.309c-0.805-0.079-0.568,0.186-1.034,0.254c-0.438,0.058,0.129-0.16-0.189-0.184 c-0.201-0.027-0.179,0.09-0.187,0.187c-1.079-0.085-1.942-0.14-3.201-0.038c-0.388,0.032,0.072-0.155-0.19-0.245 c-1.583-0.022-3.829,0.337-5.553,0.164c-0.818-0.081-1.336,0.01-2.26,0.018c-0.79,0.006-1.563-0.318-2.45-0.414 c-0.729-0.078-1.815,0.175-2.918,0.021c0.02-0.089,0.28-0.023,0.28-0.125c-3.202,0.111-7.132,0.126-10.164,0.445 c-3.658-0.236-7.89,0.362-11.2,0.329c0.08-0.093,0.236-0.135,0.47-0.127c-3.237-0.247-8.208-0.29-12.333-0.155 c-0.391,0.035-0.401,0.314-0.939,0.253c-0.25,0.354-1.007,0.379-1.503,0.505c-0.087,0.022-0.368,0.185-0.47,0.188 c-1.503,0.064-1.055-1.076-1.895-1.651c-0.444,0.181-0.904,0.252-1.318,0.01c0.031-0.39,0.719-0.354,0.937-0.623 c-0.121-0.087-0.529-0.198-0.564,0.004c-0.214-0.124-0.21-0.321-0.003-0.432c-0.334-0.031-0.229,0.22-0.563,0.189 c-0.041-0.129,0.063-0.164,0.093-0.248c-0.301-0.034-0.291,0.118-0.472,0.004c-0.025-0.385,0.023-0.722,0.371-0.866 C3.115,21.361,1.581,20.36,0,19.572c0.042-0.382,0.52-0.483,0.559-0.867c1.153-0.227,1.895-0.34,3.291-0.395 c0.224-0.122-0.174-0.344,0.091-0.494c0.396,0.058,0.949,0.04,1.223-0.256c-0.346-0.088-0.516-0.018-0.942-0.116 c0.062-0.144,0.312-0.168,0.374-0.312c-0.598-0.353,0.354-0.903-0.01-1.295c0.16-0.143,0.531,0.097,0.848,0.056 c-0.495-0.19,0.505-0.11,0.657-0.252c-0.04-0.128-0.786,0.139-0.565-0.119c-0.942,0.097-0.665-0.04-1.412,0.011 c0.114-0.938,1.562-1.301,3.094-1.75c-0.215-0.187-0.571-0.544-0.383-0.799c-0.128-0.118-0.527,0.106-0.752,0.128 c0-0.184,0.243-0.211,0.279-0.371c-0.223-0.149-0.175,0.093-0.47,0.064c0.277-0.363,0.788-0.246,1.221-0.44 c-0.428-0.234-0.875-0.01-1.412,0.011c0.04-0.098,0.295-0.056,0.187-0.248c-0.268-0.009-0.183,0.21-0.564,0.127 c-0.047-0.193,0.288-0.142,0.186-0.371c-0.485,0.072-1.077,0.131-1.506,0.072c-0.002-0.226,0.328-0.238,0.468-0.373 c-0.312-0.1-0.531,0.064-0.94,0.068c-0.039-0.271-0.041-0.556,0.654-0.621c-0.031-0.143,0.014-0.237,0.092-0.31 c-0.395-0.173-0.568-0.067-1.413-0.113c-0.15-0.276,0.39-0.483,0.277-0.68C2.873,9.477,2.348,9.562,1.62,9.568 c0.302-0.249,0.161-0.409,0.466-0.62c-0.47-0.185-0.123-0.413-0.1-0.801c0.169-0.009,0.199,0.074,0.377,0.059 c0.214-0.66,1.861-0.396,2.063-1.063C3.991,7.02,4.26,6.428,3.855,6.283c0.525-0.807,0.052-2.258,1.771-2.295 c-0.1-0.265-0.407-0.39-0.944-0.363C4.768,3.342,4.481,3.304,4.116,3.32c0.15-0.314,0.207-0.336-0.192-0.491 c0.427-0.543,0.316-1.09,0.739-1.856c3.89,0.215,9.286,0.204,12.713,0.399c0.091-0.002,0.072-0.076,0.093-0.124 c0.746,0.341,1.899,0.142,2.635-0.081c-0.049,0.05-0.097,0.101-0.092,0.186c0.411,0.04,0.529-0.108,0.94-0.068 c0.81,0.13,3.81-0.257,5.74-0.289c2.118-0.036,4.323-0.324,5.362-0.595c0.337,0.528,1.414,0.324,2.544,0.289 c0.286-0.025,0.161,0.224,0.378,0.244c0.577-0.275,2.254,0.148,2.917-0.206c0.056-0.161-0.039-0.222-0.283-0.184 c0.667-0.218,1.504,0.022,2.258-0.14c-0.062-0.062-0.217-0.062-0.189-0.184c1.287,0.069,2.654,0.272,3.487,0.591 c0.458-0.127,0.741,0.064,1.131,0.115c1.119,0.146,2.809-0.138,4.141-0.154c4.105-0.051,8.138,0.287,11.957,0.035 c0.062,0.062,0.217,0.062,0.189,0.184c2.981-0.048,5.356-0.27,8.282-0.246c0.028-0.163-0.197-0.158-0.378-0.183 c0.749-0.066,1.454,0.164,2.073,0.293c0.652-0.432,1.158,0.059,2.071,0.047c0.054,0.136-0.178,0.089-0.187,0.187 c3.063,0.212,5.801-0.748,8.941-0.252c0.121-0.106,0.309-0.169,0.564-0.188c-0.088,0.394-0.96,0.281-1.409,0.441 c1.443,0.01,3.184-0.192,4.896,0.149c0.595-0.578,2.3-0.227,3.668-0.397c0.027,0.1-0.088,0.107-0.093,0.186 c0.444-0.006,0.715,0.104,1.131,0.115c0.006-0.21-0.35-0.18-0.66-0.18c0.751-0.306,1.805,0.22,2.162-0.387 c0.51,0.072,0.852,0.072,1.129-0.132c0.027,0.1-0.088,0.107-0.093,0.187c2.606,0.342,5.572,0.3,8.945,0.304 c-0.044-0.239-0.649-0.104-0.849-0.24c3.197-0.308,6.803,0.604,10.072-0.075c-0.467-0.192-1.524-0.155-1.885-0.232 c-0.195-0.035-0.617,0.081-0.658-0.057c1.074,0.024,1.444-0.159,2.353-0.141c0.145-0.07,0.194-0.202,0.469-0.188 c-0.204,0.13,0.048,0.176,0.003,0.37c0.407,0.058,0.521-0.073,0.752-0.129c0.517,0.271,0.994,0.163,1.601-0.012 c3.267,0.599,7.44,0.071,11.11,0.287c-0.886,0.305-2.203-0.002-3.01,0.393c0.163,0.16,0.934-0.084,0.756,0.303 c0.403,0.035,0.382-0.204,0.752-0.19c0.121,0.08,0.122,0.227,0.002,0.309c0.765-0.15,2.183-0.122,3.108,0.224 c-0.282,0.002-0.564,0.004-0.848,0.006c1.957,0.148,4.979,0.505,7.253,0.44C132.812,2.318,133.006,2.012,133.741,2.178z M66.046,1.136c0.466-0.033,0.959,0.04,0.566,0.242c0.383,0.022,0.481-0.139,0.751-0.19c-0.398-0.001-0.224-0.139-0.096-0.246 C66.904,1.168,66.102,0.729,66.046,1.136z M111.795,0.736c-0.118-0.013-0.193-0.095-0.188,0.062 c0.482-0.011,0.941-0.067,1.224-0.009C112.802,0.527,112.015,0.572,111.795,0.736z M85.823,2.284 c-0.09,0.226,0.527,0.128,0.471-0.003C86.06,2.276,86.002,2.168,85.823,2.284z M86.483,2.403c0.316-0.042,0.875,0.073,1.035-0.069 C87.016,2.304,86.806,2.134,86.483,2.403z M72.478,5.344c0.269,0.185,0.801-0.046,0.849,0.179c0.28,0.002,0.477-0.185,0.659-0.066 c-0.001-0.082-0.001-0.164-0.002-0.247C73.517,5.277,72.875,5.231,72.478,5.344z M116.559,8.349 c0.282-0.063,0.684-0.051,0.751-0.252C116.941,8.104,116.483,8.055,116.559,8.349z M118.633,8.765 c1.303-0.122-0.564-0.178-0.753,0.006C118.193,8.757,118.438,8.783,118.633,8.765z M33.276,12.788 c0.074,0.05,0.576,0.061,0.563-0.127C33.59,12.664,33.285,12.631,33.276,12.788z M61.355,16.158c0.12-0.229-0.56-0.241-0.66-0.118 C61.064,15.979,60.935,16.252,61.355,16.158z M62.861,16.146c0.837,0.107,1.535-0.002,2.542,0.043 C64.888,16.102,63.382,15.91,62.861,16.146z M67.757,16.173c-0.148-0.005-0.326,0.011-0.283-0.122 c-0.57,0.131-1.436-0.009-1.883,0.014C66.626,16.269,67.118,16.314,67.757,16.173z M57.874,16.492 c-0.64,0.1-1.543-0.159-1.788,0.075c1.104,0.165,3.544,0.231,4.801-0.036c-0.995-0.063-1.604-0.209-2.542-0.104 c0.731,0.224-0.654-0.078-0.659-0.057C57.791,16.383,57.832,16.438,57.874,16.492z M68.418,16.414 c0.22-0.001,0.438-0.003,0.658-0.005C69.114,16.161,68.437,16.312,68.418,16.414z M61.17,16.529 c-0.058,0.004-0.111,0.011-0.094,0.062c0.413,0.03,1.695-0.051,0.658-0.066c-0.196-0.134-0.304,0.057-0.471-0.058 c-0.006-0.038-0.015-0.073-0.095-0.062C61.169,16.447,61.169,16.488,61.17,16.529z M55.807,16.939 c-0.095,0.124-0.35,0.144-0.469,0.25c2.049,0.096,5.546,0.012,7.907-0.059C61.155,16.798,58.28,17.15,55.807,16.939z M123.419,19.399c0.967,0.391,2.371,0.535,3.58,0.468C125.765,19.812,124.409,19.207,123.419,19.399z M119.281,20.047 c0.303,0.185,1.102,0.146,1.412-0.01c-0.025,0.141,0.024,0.231,0.19,0.245c0.162-0.127-0.071-0.12,0.092-0.248 C120.454,19.792,119.902,19.917,119.281,20.047z M117.587,20.121c0.377-0.023,0.523,0.106,0.942,0.055 C118.497,19.861,117.593,19.993,117.587,20.121z M125.781,20.616c0.307,0.052,0.586,0.041,1.13,0.053 C126.901,20.385,126.096,20.563,125.781,20.616z M41.922,23.456c-0.233,0.106-0.914-0.111-1.224,0.071 C40.908,23.713,41.784,23.678,41.922,23.456z M82.876,23.771c-0.345,0.048-0.524-0.148-0.753,0.006 c0.35,0.279,1.134,0.192,1.789,0.171c1.057-0.033,2.055-0.189,3.106-0.084C86.017,23.526,83.658,23.714,82.876,23.771z M88.524,23.79c0.414,0.075,1.386,0.006,1.977-0.138C89.81,23.726,88.621,23.421,88.524,23.79z M94.266,23.624 c-0.02,0.274-0.92-0.02-0.939,0.254c0.471,0.098,0.807,0.013,1.224-0.07c0.046,0.162,0.075,0.207,0.285,0.367 c1.958-0.542,3.857,0.322,5.741-0.227C98.502,23.68,96.336,23.979,94.266,23.624z M76.946,23.999 c-0.479,0.001-1.087-0.262-1.316,0.134c1.694,0.099,3.377,0.052,5.081-0.284C79.488,23.843,78.13,23.996,76.946,23.999z" fill-rule="evenodd"/></g></g></svg>