<?xml version="1.0" encoding="UTF-8" standalone="no"?><svg xmlns="http://www.w3.org/2000/svg" xmlns:xlink="http://www.w3.org/1999/xlink" contentScriptType="text/ecmascript" fill="#000000" width="145.5" zoomAndPan="magnify" contentStyleType="text/css" viewBox="17.2 17.2 145.5 145.5" height="145.5" preserveAspectRatio="xMidYMid meet" version="1"><g><g><g id="change1_1"><path fill="#e8f6fa" d="M89.92,162.7c-40.11,0-72.75-32.63-72.75-72.75S49.8,17.21,89.92,17.21s72.75,32.63,72.75,72.75 S130.03,162.7,89.92,162.7z M89.92,29.72c-33.21,0-60.24,27.02-60.24,60.24s27.02,60.24,60.24,60.24s60.24-27.02,60.24-60.24 S123.13,29.72,89.92,29.72z"/></g></g><g><g id="change1_2"><path fill="#e8f6fa" d="M58.01,128.26c-2.53,0-5.05-1.02-6.9-3.02c-3.51-3.81-3.27-9.75,0.54-13.26l63.83-58.85 c3.81-3.51,9.75-3.27,13.26,0.54c3.51,3.81,3.27,9.75-0.54,13.26l-63.83,58.85C62.56,127.44,60.28,128.26,58.01,128.26z"/></g></g><g><g id="change1_3"><path fill="#e8f6fa" d="M121.83,128.26c-2.27,0-4.55-0.82-6.36-2.48L51.64,66.93c-3.81-3.51-4.05-9.45-0.54-13.26 c3.52-3.81,9.46-4.05,13.26-0.54l63.83,58.85c3.81,3.51,4.05,9.45,0.54,13.26C126.88,127.25,124.36,128.26,121.83,128.26z"/></g></g></g></svg>