<?xml version="1.0" encoding="UTF-8" standalone="no"?><svg xmlns="http://www.w3.org/2000/svg" xmlns:xlink="http://www.w3.org/1999/xlink" contentScriptType="text/ecmascript" fill="#000000" width="288.5" zoomAndPan="magnify" contentStyleType="text/css" viewBox="-0.2 -2.4 288.5 388.8" height="388.8" preserveAspectRatio="xMidYMid meet" version="1"><g id="change1_1"><path fill="#4c5a38" d="M265.095,152.065c1.848,2.406,1.847,5.698,0.838,8.407c-2.673,7.143-10.591,8.514-17.652,8.68 c-2.939,3.118-7.839,4.508-12.061,5.156c-5.02,0.762-9.454-0.286-13.982-2.318c-4.92-2.216-9.022-3.994-14.601-3.644 c-5.1,0.317-10.106,1.619-15.239,1.568c-7.673-0.076-15.392-3.892-17.234-11.511c-1.769-7.321,4.062-13.061,10.97-15.118 c4.395-1.308,8.982-1.054,13.517-1.365c4.581-0.311,8.224-1.683,11.755-4.47c6.629-5.226,11.748-11.334,20.252-13.918 c7.453-2.267,16.775-2.006,23.45,2.241c3.225,2.051,6.077,5.13,6.782,8.87c0.687,3.633-2.042,6.626-1.603,10.108 C260.681,147.874,263.289,149.717,265.095,152.065z M117.418,179.804c-4.322-1.468-8.274-0.386-12.541,0.542 c-2.885,0.628-7.631,2.687-10.498,1.825c-2.956-0.891-5.034-2.652-8.298-2.929c-3.165-0.269-6.438,0.237-9.592,0.475 c-3.409,0.258-7.019,0.243-10.356,1.044c-4.961,1.191-18.685,15.178-10.047,19.508c10.27,5.14,21.98,7.328,33.399,6.247 c6.91-0.654,13.651-2.469,20.353-4.276c3.329-0.898,6.717-1.821,9.624-3.674c2.907-1.853,5.314-4.817,5.627-8.25 C125.516,185.657,121.848,181.309,117.418,179.804z M177.712,104.456c0.083-2.332-0.279-4.526-0.988-6.578 c8.419-3.257,16.083-8.146,22.208-14.255c16.448,15.651,46.404,17.732,65.283,4.122c13.231-9.529,24.086-33.108,14.096-47.553 c-3.117-4.506-8.063-7.399-13.76-9.549c-10.782-4.069-24.25-5.476-33.083-10.123c-4.786-2.518-8.741-6.143-13.279-8.991 c-8.116-5.084-17.604-8.662-27.276-10.451C172.317-2.356,158.666,3.23,141,6.394c-12.103,2.168-26.034-1.21-37.391-2.974 C86.721,0.799,68.678,6.175,56.511,16.983C45.024,27.191,38.724,42.278,41.447,56.792C43.83,69.49,52.989,80.218,66.698,83.918 c-2.436,2.31-4.448,5.026-5.884,8.052c-12.306-7.125-28.161-4.76-38.317,5.844c-3.417,0.903-6.708,2.182-9.754,3.992 c-7.315,4.346-12.975,12.231-12.736,20.736c0.239,8.505,7.726,16.726,16.207,16.055c-0.92,0.073,6.37,9.467,7.354,10.177 c4.608,3.328,8.918,3.453,14.291,3.749c12.134,0.666,23.343-1.19,34.453-6.451c7.456,6.805,18.072,8.117,28.036,7.301 c15.02-1.235,29.981-5.026,44.767-7.797c13.318-2.498,30.379-3.509,38.691-15.904C189.64,120.972,187.462,107.8,177.712,104.456z"/></g><g id="change2_1"><path fill="#c48868" d="M234.593,154.512c-0.472,0.3-0.942,0.619-1.41,0.893c-2.633,1.541-4.704,2.01-7.486,2.927 c-2.76,0.915-6.002,5.465-8.842,3.038c-2.06-1.763-1.03-5.579-2.812-7.593c-1.745-1.971-6.137-2.638-6.395,0.946 c-0.056,0.782,0.205,1.549,0.462,2.29c2.033,5.851,4.453,10.883,1.597,16.925c-2.207,4.671-7.327,5.971-11.091,8.951 c-5.938,4.107-11.217,9.787-17.667,12.955c-6.602,3.242-12.758,7.412-19.301,10.866c-3.259,1.72-7.231,3.353-10.47,1.597 c-4.929-2.671-3.575-7.621-3.625-12.048c-0.079-6.92-1.64-14.035-2.176-20.955c0.645-2.945,1.313-5.884,2.085-8.802 c1.527-5.775,3.341-11.605,4.756-17.301c1.3-5.233,3.79-8.011,6.883-12.474c4.348-6.274,2.929-13.337,5.009-20.108 c2.468-8.035,5.449-15.912,7.896-23.96c0.776-2.553,1.184-5.724,2.633-8c1.81-2.844,5.642-4.74,8.456-6.399 c5.691-3.357,11.683-6.202,18.005-8.125c2.214-0.673,3.164-5.23,0.122-4.405c-7.063,1.916-14.886,4.338-21.658,8.166 c-0.7-3.383-1.515-6.699-1.507-10.229c0.007-3.177-4.306-1.124-4.302,1.281c0.006,3.795,0.326,7.905,2.041,11.319 c-2.597,1.814-4.961,3.892-6.956,6.306c-2.531,3.063-4.245,6.757-5.738,10.532c-4.353,6.879-6.456,15.137-9.868,22.464 c-3.919,8.416-8.749,16.697-15.503,23.167c-2.46-1.351-5.208-2.342-7.563-3.472c-6.962-3.344-12.852-8.398-19.59-12.027 c-5.142-2.769-8.492-4.193-9.788-10.566c-0.312-1.534-2.806-15.88-5.631-14.956c-5.149,1.702-4.984,13.189-3.645,19.161 c-2.48-0.656-5.002-1.144-7.703-1.702c-4.856-1.003-10.103-2.564-13.53-6.324c-1.707-1.872-5.438,2.351-3.941,4.211 c5.84,7.253,14.621,9.623,22.596,13.882c4.714,2.518,9.255,5.356,14.412,6.897c2.219,0.663,4.145,1.364,6.114,2.383 c0.286,0.196,0.573,0.393,0.855,0.587c6.985,4.815,13.666,10.127,19.206,16.591c5.7,6.651,0.511,15.147,1.259,22.607 c0.518,5.166,1.679,14.741-0.962,19.505c-6.218,11.21-18.39-5.443-25.414-5.422c-1.802,0.005-3.669,1.221-3.966,2.998 c-0.536,3.21,9.796,9.284,11.97,11.611c16.318,17.464,27.639,56.661,25.106,79.998c-0.963,8.866-4.177,17.31-7.364,25.64 c-8.702,22.749-17.404,45.497-26.107,68.246c9.445,1.784,18.476,5.847,27.614,7.293c3.752,0.594,31.303-6.24,31.205-6.364 c-8.411-10.729-8.691-25.797-5.982-39.158c2.709-13.362,7.994-26.196,9.455-39.751c1.956-18.155-5.034-35.623-4.454-53.701 c0.294-9.18,3.204-16.767,7.139-24.886c1.099-2.267,1.836-7.122,4.524-8.026c1.613-0.542,3.297,0.912,4.871,1.011 c2.035,0.129,3.693-0.834,5.67-1.06c3.596-0.411,7.029,1.904,10.527,1.664c3.734-0.256,7.935-3.017,10.6-5.462 c0.74-0.679,1.453-1.436,1.799-2.378c0.347-0.942,0.246-2.11-0.48-2.803c-1.061-1.012-2.783-0.591-4.167-0.105 c-6.439,2.258-9.322,2.907-15.578,0.082c6.087-6.583,14.062-11.573,20.349-18.1c9.868-10.244,20.709-18.345,31.73-27.198 c0-1.91,2.98-2.924,0.479-5.273C237.664,152.787,236.112,153.548,234.593,154.512z"/></g></svg>