<?xml version="1.0" encoding="UTF-8" standalone="no"?><svg xmlns="http://www.w3.org/2000/svg" xmlns:xlink="http://www.w3.org/1999/xlink" contentScriptType="text/ecmascript" fill="#000000" width="411.7" zoomAndPan="magnify" contentStyleType="text/css" viewBox="0.0 0.0 411.7 371.5" height="371.5" preserveAspectRatio="xMidYMid meet" version="1"><g><g><path fill="#432d17" d="M197.815,329.852s18.457-50.164,78.085-43.54,83.291,45.622,83.291,45.622-123.043,12.117-144.339,8.8S197.815,329.852,197.815,329.852Z"/></g><g><path fill="#261709" d="M319.633,298.815c-2.241,1.481-4.621,3.118-7.156,4.949-17.44,12.591-80.938,16.06-110.039,17a58.692,58.692,0,0,0-4.623,9.091s-4.259,7.572,17.037,10.884,144.339-8.8,144.339-8.8S347.439,312.57,319.633,298.815Z"/></g><g><path fill="#614319" d="M111.685,342.629s35.967-27.92,70.513-26.975,87.549,29.92,87.549,29.92-125.883,6.045-150.491,7.7-27.921-5.323-27.921-5.323Z"/></g><g><path fill="#4c300f" d="M239.009,331c-8.321,1.225-18.206,2.671-29.538,4.309-20.27,2.932-51.212-1.175-76.656-5.908a157.993,157.993,0,0,0-21.13,13.225l-17.988,4.7.522,3.047.012.006.848.422c3.667,1.7,10.746,3.371,24.177,2.466,24.608-1.656,150.491-7.7,150.491-7.7S256.537,338.353,239.009,331Z"/></g><g><path fill="#f7d2a1" d="M103.641,347.952,79.977,27.448S215.325,2.366,275.9,12.305L261.7,347.952l-8.991-2.959,2.365-140.553L103.641,218.666,119.73,347.952Z"/></g><g><path fill="#e5bd8f" d="M98.144 47.014L101.329 211.965 260.329 202.764 256.024 34.264 98.144 47.014z"/></g><g><path fill="#d0935d" d="M97.96 43.52L106.479 205.859 256.024 196.869 256.024 28.395 97.96 43.52z"/></g><g><path fill="#7b7042" d="M0,349.9c1.42-.65,46.851,3.951,61.521,7.093,0,0-17.509-13.421-4.259-11.528a80.542,80.542,0,0,1,22.715,6.681S64.361,322.7,75.719,334.558s11.83,13.394,11.83,13.394-21.769-57.143-7.572-48.034S97.96,351.5,97.96,351.5s-4.445-54.543,2.274-49.691,5.3,51.464,5.3,51.464,1.892-64.087,14.67-53.931,1.42,50.619,0,52.158,13.726-39.663,20.35-30.656-6.626,29.058-6.626,29.058a53.24,53.24,0,0,0,13.725,2.246,53.467,53.467,0,0,0,14.2-1S70.041,371.5,51.11,363.926,0,349.9,0,349.9Z"/></g><g><path fill="#7b7042" d="M240.88,342.629s-13.725-44.724-5.206-37.269,11.357,37.269,11.357,37.269,24.61-55.842,28.869-42.592,0,29.815,0,29.815,16.09-41.9,18.93-31.6-4.26,25.92-4.26,25.92,27.922-34.314,23.663-22.362l-4.259,11.951s10.409-23.428,10.883-9.822-8.518,27.994-8.518,27.994,25.555-30.95,32.181-21.012,0,17.51,0,17.51,18.929-16.191,18.457-8.805,21.77,1.234,29.341,3.126,19.4,16.09,19.4,16.09S329.849,336,300.981,342.629,240.88,342.629,240.88,342.629Z"/></g><g><path fill="#926427" d="M285.1,332.131l-1.365-.4,22.716-78.214,1.364.4Zm20.607-7.307c8.252-14.32,33.365-57.9,40.458-98.49l-1.4-.244c-7.051,40.346-32.07,83.76-40.29,98.026-2.551,4.425-2.786,4.868-2.786,5.263l1.4.137C303.207,329.166,304.31,327.25,305.708,324.824ZM103.973,344.367C92.589,329.319,64.857,206.939,64.579,205.7l-1.384.314c1.141,5.051,28.078,123.915,39.647,139.207Zm-7-3.684c-22.061-11.671-38.844-95.309-39.012-96.152l-1.392.274c.686,3.472,17.085,85.148,39.742,97.135Zm-12.981,11.97c-16.2-8.876-30.154-70.079-30.294-70.7l-1.384.314c.573,2.546,14.242,62.447,31,71.629Z"/></g><g><path fill="#edae4a" d="M32.652,244.668s18.134,57.981,23.028,48.157S39.277,231.891,32.652,244.668Z"/></g><g><path fill="#edae4a" d="M44.527,205.859s3.744,55.491,12.735,47.858S50.249,198.76,44.527,205.859Z"/></g><g><path fill="#edae4a" d="M57.262,156.171s-1.536,64.6,11.063,54.777S63.888,141.5,57.262,156.171Z"/></g><g><path fill="#edae4a" d="M314.706,199.236s-22.242,56.078-10.411,57.143,24.659-58.088,18.009-61.4S314.706,199.236,314.706,199.236Z"/></g><g><path fill="#edae4a" d="M367.71,148.125C350.1,159.935,333.7,231,344.791,229.787s34.276-81.662,28.6-81.662S368.889,147.334,367.71,148.125Z"/></g><g><path fill="#211f1f" d="M121.457,93.416a7.521,7.521,0,0,1-1.3-.111c-.652-.115-2.637-.465-3.241-2.188-.657-1.877.7-3.415,2.756-5.744a35.816,35.816,0,0,0,6.275-9.055,4.552,4.552,0,0,0,.429-1.349c-1.575-.459-7.515,1.357-12.871,3.967a2,2,0,0,1-1.754-3.6c5.182-2.527,14.35-6.3,17.536-3.214,1.355,1.314,1.459,3.276.308,5.833a39.76,39.76,0,0,1-6.924,10.06c-.4.451-.844.957-1.21,1.4,3.527-.014,8.5-4.415,10.058-6.077a2,2,0,0,1,2.918,2.737C133.692,86.876,127.378,93.416,121.457,93.416Z"/></g><g><path fill="#211f1f" d="M141.389,89.678a8.928,8.928,0,0,1-1.684-.163c-3.481-.663-4.734-2.5-5.172-3.933-1.592-5.192,5.53-12.629,6.974-14.068a1.987,1.987,0,0,1,.661-.436,5.249,5.249,0,0,1,6.256,1.248c2.465,2.825,2.53,8.729.141,12.894A8.148,8.148,0,0,1,141.389,89.678Zm2.633-15.017c-2.853,2.944-6.271,7.772-5.664,9.748.21.682,1.255,1.016,2.095,1.176A4.141,4.141,0,0,0,145.1,83.23c1.61-2.806,1.518-6.9.315-8.274C145.234,74.753,144.924,74.4,144.022,74.661Z"/></g><g><path fill="#211f1f" d="M154.92,89.678a8.91,8.91,0,0,1-1.683-.163c-3.481-.663-4.734-2.5-5.172-3.933-1.593-5.192,5.53-12.629,6.974-14.068a1.983,1.983,0,0,1,.66-.436,5.249,5.249,0,0,1,6.256,1.248c2.466,2.824,2.53,8.729.141,12.894A8.148,8.148,0,0,1,154.92,89.678Zm2.634-15.017c-2.854,2.944-6.272,7.772-5.665,9.748.21.682,1.256,1.016,2.1,1.176a4.141,4.141,0,0,0,4.642-2.355c1.609-2.807,1.518-6.9.315-8.274C158.766,74.753,158.454,74.4,157.554,74.661Z"/></g><g><path fill="#f7d2a1" d="M125.053,111.478A5.058,5.058,0,1,1,120,106.421,5.058,5.058,0,0,1,125.053,111.478Z"/></g><g><path fill="#f7d2a1" d="M125.053,131.635A5.058,5.058,0,1,1,120,126.577,5.057,5.057,0,0,1,125.053,131.635Z"/></g><g><path fill="#f7d2a1" d="M125.053,151.18A5.058,5.058,0,1,1,120,146.121,5.057,5.057,0,0,1,125.053,151.18Z"/></g><g><path fill="#f7d2a1" d="M125.053,173.906A5.058,5.058,0,1,1,120,168.85,5.057,5.057,0,0,1,125.053,173.906Z"/></g><g><path fill="#211f1f" d="M131.8,109.55a1,1,0,0,1-.317-1.948,58.757,58.757,0,0,1,20.432-2.18l11.535.71a1,1,0,0,1-.123,2l-11.535-.71a57.752,57.752,0,0,0-19.676,2.082A1.022,1.022,0,0,1,131.8,109.55Z"/></g><g><path fill="#211f1f" d="M160.546,117.536H134.281a1,1,0,0,1,0-2h26.265a1,1,0,0,1,0,2Z"/></g><g><path fill="#211f1f" d="M153.448,130.136H136.294a1,1,0,0,1,0-2h17.154a1,1,0,0,1,0,2Z"/></g><g><path fill="#211f1f" d="M158.593,137.692h-20.94a1,1,0,0,1,0-2h20.94a1,1,0,0,1,0,2Z"/></g><g><path fill="#211f1f" d="M155.838,150.367h-17.12a1,1,0,0,1,0-2h17.12a1,1,0,0,1,0,2Z"/></g><g><path fill="#211f1f" d="M154.69,156.223H139.782a1,1,0,1,1,0-2H154.69a1,1,0,0,1,0,2Z"/></g><g><path fill="#211f1f" d="M152.027,171.84H138.718a1,1,0,0,1,0-2h13.309a1,1,0,0,1,0,2Z"/></g><g><path fill="#211f1f" d="M155.838,177.875H139.782a1,1,0,0,1,0-2h16.056a1,1,0,0,1,0,2Z"/></g><g><path fill="#8d804e" d="M221.772,50.52s-45.609,6.494-42.592,22.412,18.279,18.582,17.569,26.746S167,134.815,176.992,148.125s2.365,14.375,7.689,22.716,21.119,16.5,39.22,9.938,23.781-28.394,17.924-38.509-8.341-14.375-7.1-19.522S248.569,88.319,242.18,74.3,221.772,50.52,221.772,50.52Z"/></g><g><path fill="#c42328" d="M218.4,79.269s-14.907,8.163-10.648,21.651,29.282,9.76,30.524-3.55S229.4,76.961,218.4,79.269Z"/></g><g><path fill="#7b7042" d="M184.681,170.841c4.545,7.12,16.721,14.1,31.446,11.913-.2-6.436-1.856-19.586-11.569-25.756-8.6-5.462-17.808-3.542-23.107-1.416C184.163,162.3,180.579,164.413,184.681,170.841Z"/></g><g><path fill="#e16c26" d="M243.44,146.407a15.63,15.63,0,0,0-1.615-4.137c-5.856-10.117-8.341-14.375-7.1-19.522.291-1.208,1.21-3.754,2.359-7.107-6.811-2.243-20.445-5.493-26.317,1.952-7.986,10.124-4.614,39.583,16.327,34.792C235.933,150.363,240.779,148.215,243.44,146.407Z"/></g><g><path fill="#88311e" d="M175.235,138.314c4.367,1.846,11.5,3.033,19.917-1.622,8.975-4.962,3.942-21.284-.571-31.906C189.539,113.207,177.361,127.146,175.235,138.314Z"/></g><g><path fill="#eaa024" d="M179.18,72.932a25.753,25.753,0,0,0,7.413,13.654c5.29-1.342,12.336-4.265,14.77-10.512,2.944-7.553,1-16.463-.31-20.857C189.451,58.8,177.594,64.562,179.18,72.932Z"/></g><g><path fill="#88311e" d="M221.185,181.654s-3.129-11.25,0-12.8,5.733-4.633,7.863-1.557.71,11.671.71,11.671S224.124,180.932,221.185,181.654Z"/></g><g><path fill="#5b522a" d="M156.127,351.994a62.288,62.288,0,0,1-8.475.156,53.24,53.24,0,0,1-13.725-2.246,71.425,71.425,0,0,0,4.8-8.84,91.634,91.634,0,0,0-12.655-5c-1.332,2.868-2.532,5.711-3.5,8.166.634-2.476,1.3-5.435,1.889-8.65a91.052,91.052,0,0,0-17.539-3.281c-1.1,11.265-1.391,20.978-1.391,20.978s.3-9.933-.034-21.1c-2.811-.2-5.708-.294-8.7-.236h0c.419,10.449,1.162,19.568,1.162,19.568A184.7,184.7,0,0,0,94.927,332a77.533,77.533,0,0,0-12.463,1.576c2.662,8.008,5.039,14.26,5.082,14.372-.048-.122-.877-1.922-11.283-12.817q-1.881.549-3.712,1.174a172.037,172.037,0,0,0,7.426,15.849,80.542,80.542,0,0,0-22.715-6.681C44.012,343.576,61.521,357,61.521,357c-4.574-.979-12.14-2.1-20.43-3.161-2.045,1.609-3.957,3.211-5.726,4.771,5.6,1.652,11.076,3.451,15.745,5.319,16.175,6.469,85.543-7.444,105.4-11.633C156.387,352.2,156.252,352.093,156.127,351.994Z"/></g><g><path fill="#5b522a" d="M345.805,327.361c-.8.659-1.285,1.071-1.285,1.071a9.881,9.881,0,0,0,.835-1.182c-7.7-1.87-15.951-3.56-24.348-4.82-4.958,5.011-8.668,9.5-8.668,9.5a67.239,67.239,0,0,0,4.9-10.039,183.386,183.386,0,0,0-23.364-1.711c-2,2.388-3.3,3.989-3.3,3.989s.7-1.548,1.578-3.987q-1.812.015-3.6.076a85.464,85.464,0,0,0-9.1.829c-2.1,5-3.548,8.761-3.548,8.761a68.1,68.1,0,0,0,1.444-8.448,91.849,91.849,0,0,0-23.946,7.588c-3.714,7.617-6.367,13.637-6.367,13.637s-.39-4.088-1.312-9.609c-2.3,1.333-4.451,2.7-6.47,4.074.957,3.338,1.631,5.535,1.631,5.535s31.234,6.627,60.1,0c17.258-3.961,53.454-4.539,79.782-4.363A272.48,272.48,0,0,0,345.805,327.361Z"/></g><g><path fill="#cc8a29" d="M348.829,195.764a33.609,33.609,0,0,1-2.4-5.436c-5.666,20.4-7.52,40.1-1.637,39.459,6.41-.7,16.867-27.892,23.45-50.707C359.548,191.244,351.341,200.368,348.829,195.764Z"/></g><g><path fill="#cc8a29" d="M317.053,237.98c-4.006.077-8.574-3.335-12.765-7.811-3.608,13.192-5.523,25.712.007,26.21C308.775,256.783,313.4,248.547,317.053,237.98Z"/></g><g><path fill="#cc8a29" d="M71.581,181.988c-.389.639-.8,1.3-1.252,1.985-3.848,5.886-8.928,1.262-12.727-4.094.846,17.293,3.39,36.784,10.723,31.069C73.535,206.888,73.675,194.309,71.581,181.988Z"/></g><g><path fill="#cc8a29" d="M58.838,234.11c-.7,1.716-1.5,3.517-2.434,5.4-1.917,3.853-4.465,4.136-7.042,2.759,1.966,8.45,4.573,14.27,7.9,11.446C60.539,250.936,60.494,242.881,58.838,234.11Z"/></g><g><path fill="#cc8a29" d="M50.532,275.463c-.519,2.428-3.106,2.7-6.156,2.081,4.552,11.016,9.178,19.55,11.3,15.281,2-4.013-.373-14.919-4.331-25.544A57.414,57.414,0,0,1,50.532,275.463Z"/></g><g><path fill="#c18253" d="M131.796 16.053L125.053 64.307 205.86 50.52 209.471 47.014 131.796 16.053z"/></g><g><path fill="#f4b563" d="M130.141 6.152L133.455 56.789 214.852 48.744 211.54 0 130.141 6.152z"/></g><g><path fill="#633411" d="M164.792,14.744c-1.312-1.236-3.463-.252-4.077,1.18-1.185,2.767-2.072,5.7-3.348,8.427a56.165,56.165,0,0,1-3.863-9.9c-.837-3.121-5.612-2.539-5.364.36a2.283,2.283,0,0,0-.477,1.533,158.878,158.878,0,0,1-1.423,20.491c-.009.055-.027.1-.033.161q-.15,1.419-.3,2.84c-.361,3.431,4.951,3.988,5.321.56.492-4.538,1.044-9.062,1.4-13.6q1.014,2.113,2.11,4.2a2.709,2.709,0,0,0,4.595.483,29.025,29.025,0,0,0,3.813-7.095c.045,2.441-.293,5.027-.36,6.545a64.889,64.889,0,0,0-.107,10.661c.368,3.042,4.989,2.806,5.3-.156.037-.357.074-.708.112-1.064a2.569,2.569,0,0,0-.262-1.479C167.6,31.093,170.9,20.511,164.792,14.744Z"/></g><g><path fill="#633411" d="M180.49,14.49c-.835-2.043-4.268-2.113-4.93.126A110.134,110.134,0,0,0,172.346,28.1c-3.282.031-3.865,5.051-.649,5.294-.138,1.718-.217,3.444-.189,5.183.056,3.4,5.378,4,5.322.56a53.789,53.789,0,0,1,.2-5.5,25.805,25.805,0,0,0,3.407-.1c.156.786.269,1.578.373,2.373.092.7-.271,1.781.18,1.229-2.187,2.683,2.143,5.834,4.312,3.17,2.289-2.81.307-8.409-.414-11.429A100.035,100.035,0,0,0,180.49,14.49Zm-2.138,10.548c.161.577.324,1.154.483,1.731.136.492.254.991.382,1.486q-.743.048-1.488.046C177.915,27.21,178.119,26.122,178.352,25.038Z"/></g><g><path fill="#633411" d="M202.9,18.178a8.133,8.133,0,0,0-5.886-4.315,5.352,5.352,0,0,0-4.077,1.078,2.563,2.563,0,0,0-2.679,2.293c-.058.452-.081.9-.119,1.351a2.264,2.264,0,0,0-.109,1.4c-.258,5.825.872,11.567.977,17.414.06,3.346,4.951,4.084,5.322.559q.2-1.954.41-3.9a2.43,2.43,0,0,0-.793-2.161c-.028-.315-.056-.631-.086-.946,2.978-.922,5.768-2.462,7.249-5.348A8.069,8.069,0,0,0,202.9,18.178Zm-6.771,11.687c.073-.067.126-.152.195-.222l.058.072Zm2.13-6.474a4.4,4.4,0,0,1-2.189,1.79,3.006,3.006,0,0,0-.684-.3,45.229,45.229,0,0,1,0-4.885c.11-.171.231-.342.356-.5-.264.34.682-.476.137-.156.579-.34.212-.2.8-.115-.512-.077-.076.041.2.13.035.046.477.3.556.368a7.711,7.711,0,0,1,.71.888A2.625,2.625,0,0,1,198.254,23.391Z"/></g></g></svg>