<?xml version="1.0" encoding="UTF-8" standalone="no"?><svg xmlns="http://www.w3.org/2000/svg" xmlns:xlink="http://www.w3.org/1999/xlink" contentScriptType="text/ecmascript" fill="#000000" width="488" zoomAndPan="magnify" contentStyleType="text/css" viewBox="0.0 -1.8 488.0 117.7" height="117.7" preserveAspectRatio="xMidYMid meet" version="1"><g id="change1_1"><path fill="#75924b" d="M486.2334,115.85071c1.74463-12.18481-33.75342-29.57013-35.25586-38.54907 c-0.46924-2.83801,0.58643-5.67383,1.09521-8.505c0.50928-2.83112,0.26025-6.20404-2.0459-7.9234 c-1.76807-1.31812-4.17627-1.23944-6.37695-1.10284c-6.41406,0.39807-13.87305,1.40851-17.09863,6.96655 c-1.92627,3.31891-2.13281,7.99524-5.48877,9.85669c-4.39551,0.59369-8.34717-2.63696-11.26807-5.97522 c-2.92041-3.33832-5.7207-7.19415-9.93213-8.58636c-3.83447-1.26764-9.56396-1.44977-9.81982-5.48016 c-0.23926-3.76929,5.49463-6.26044,4.58643-9.92657c-10.82617-4.85303-24.2373-6.11194-25.58643-21.07977 c-0.18213-2.01868-0.08154-4.15704-1.04883-5.93829c-2.27051-4.18274-8.34961-3.64069-12.97266-2.50861 c3.04346-6.33319-0.98096-14.97022-7.78711-16.71472c-8.62695-2.21118-8.89941,5.76776-14.45361,7.67517 c-6.4541,2.21649-11.12109-4.33862-18.31738-2.28381c-3.43604,0.98114-5.86328,5.56415-3.55225,8.28949 c0.66699,0.7868,1.70117,1.49445,1.61719,2.52258c-0.05078,0.61554-0.51123,1.1106-0.96533,1.5293 c-1.99414,1.83899-4.38135,3.24963-6.9541,4.10938c-6.25146,2.08893-13.38037,0.763-18.89648-2.84448 c-2.57324,0.81836-5.36426,1.80194-6.76807,4.10846c-1.96777,3.23315-0.32324,7.32666,0.46045,11.02966 c1.44287,6.81342-0.5918,13.51855-4.46338,18.97113c-4.27686-2.29315-9.27979-3.25336-14.06934-2.30682 c-2.43164,1.85358-2.72949,5.34808-2.7002,8.40533c0.0293,3.05719,0.04443,6.47754-2.07324,8.68262 c-2.11816,2.20502-7.0376,1.14618-6.72559-1.89526c-1.42188,1.71356-2.84424,3.42712-4.2666,5.14069 c-4.66309,3.32019-11.66699-6.38629-15.79883-2.42499c-0.91406,0.87598-1.24707,2.17627-1.82764,3.30115 c-3.87842,7.51892-16.80859,4.88849-24.15039,0.6842c-3.33496,2.37103-7.58887,3.41223-11.6416,2.84943 c1.80908-2.10242,0.79346-5.91174-1.82178-6.83484c-1.35205-0.58868-2.70361-1.17731-4.05566-1.76599 c-0.77588-1.11499-1.98828-1.89642-3.63672-2.01862c-0.68018-2.18665-1.95801-4.19598-3.77148-5.76917 c-0.67285-0.58337-1.375-1.05444-2.0957-1.4433c1.77832-6.07391,2.43652-12.47601,1.87109-18.78015 c-2.0625-0.06287-4.125-0.12579-6.1875-0.18866c-5.18457-2.44904-9.05078-7.12585-14.69971-8.14606 c0.20264-0.88074,0.36914-1.76282,0.35693-2.61407c-0.07471-5.21869-7.25244-7.71564-11.96533-5.47314 c-4.66211,2.21826-7.36719,7.04993-10.0542,11.46814c-1.77588,0.64697-3.32373,2.10516-4.03516,3.82825 c-3.23633,1.52509-5.88672,4.32159-7.37744,7.81085c-3.95215-0.22705-7.04883,3.80591-6.00586,7.70502 c0.23633,0.88208-0.22998,0.89996-0.9292,1.07916c-1.41797,0.36334-2.58789,1.38617-3.35986,2.67084 c-1.82568-0.13281-3.72314,0.22064-5.5542,1.21881c-4.72119,2.57385-6.40039,8.27777-4.80908,13.0979 c-0.12939-0.0387-0.2583-0.07764-0.38574-0.11725l-17.23438-5.36591c-5.28467-1.64532-13.14502-1.87506-14.14648,3.5683 c-7.05859-1.36365-13.37305-6.15076-16.59277-12.57861c-11.97949,1.99646-21.36328,14.09009-20.32178,26.18994 c-0.04395-0.02777-0.08838-0.05481-0.13281-0.08124c-12.7251-7.54108-25.92334,8.46509-30.35205,18.77008 C3.41016,104.43927,0.4082,112.06165,0,115.85071H486.2334z"/></g></svg>