<?xml version="1.0" encoding="UTF-8" standalone="no"?><svg xmlns="http://www.w3.org/2000/svg" xmlns:xlink="http://www.w3.org/1999/xlink" contentScriptType="text/ecmascript" fill="#000000" width="352.9" zoomAndPan="magnify" contentStyleType="text/css" viewBox="-0.4 -0.6 352.9 500.5" height="500.5" preserveAspectRatio="xMidYMid meet" version="1"><g><g><g><g><path fill="#b55623" d="M184.2,332.3c-3.5-5.2-9.7-5.4-15.1-3.9c-7.8,2.1-12.6-0.2-19.7-3.5c-3.5-1.6-6.8-3.4-10.3-4.9 c-3-1.4-7.5-2-9.9-4.3c1.2-3.8,9.4-7.6,12.6-9.7c8-5.5,14.5-11,19.9-19.3c4.2-6.4,7.4-14.5,7.7-22.2c0.4-7.8-1.6-18.5-9.8-21.3 l-6.7-4.1c-2.2-11.1-28.9-5.2-34.1-2.6c-13.2,6.6-28.3,21.4-32.3,35.9c-1.1,4.1-2.7,9.7-0.5,13.6c2.1,3.7,6.7,6.7,10.2,9 c7.3,4.6,20.1,8.9,28.1,3.4c-6.5,5.5-16.6,7.6-22.6,13.5c-5.3,5.2-1.6,11,4,13.4c14.6,6.4,29.1,12.3,41.6,22.2 c5.4,4.3,12.5,2.5,18.9,2.2c5.2-0.2,16.3-1.4,20.2-5.6C189.9,340.3,187,336.5,184.2,332.3z"/></g><g><path fill="#b55623" d="M151,348.9c1.9-0.2,3.8,0.4,5.7-0.3c1.7-0.7,2.2-2.3,3.6-3.5c3.2-2.7,8.2-0.2,11.9-0.9 c1.4-0.3,2.8-1,3.4-2.4c0.4-0.9,0-2,0.5-2.8c0.7-1.3,1.4-0.4,2.4-0.9c1.7-0.9-0.5-1.9-1-2.9c1.1-1.7,3.8-0.7,5.3-0.3 c-0.2-0.3-1.2-1.3-1-1.7c0.3-0.9,1.5-0.6,2-0.3c1.5,0.6,2.9,2.5,3.6,3.9c1.4,2.9,2.1,6.4-1.1,8.3c-2.9,1.8-5.9,2-9,3.2 c-4.2,1.7-9.3,2.5-13.7,2.8c-3.8,0.3-10.9,1.9-13.1-2.2"/></g><g><path fill="#743803" d="M174.4,343.4c-1.5-1.1-6-2.2-9-1.4l0.9,0.3c2.1,0.4,7.1,1.5,8.5,3.3c0.5,0.6,0.6,2.7,1.3,2.9 c0.3,0.1,2.8-0.6,3-0.9C179.8,346.8,175.3,344,174.4,343.4z"/></g><g><path fill="#743803" d="M178.4,337.4c2.1,0.8,5,1.1,6.7,2.7c1.3,1.2,1.6,2.4,2.4,3.8C191.5,340.8,180.8,337,178.4,337.4"/></g><g><path fill="#743803" d="M180.2,331.6c2,1,5.9,4.2,7.4,6.1c0.8-1.1-0.6-3-1.4-3.8C184.5,332.4,182.3,332,180.2,331.6"/></g><g><path fill="#3b2101" d="M165.4,342c1.6,0.3,2.3,0.1,3.8,0.3c1.2,0.1,2.1,0.2,3.4,0.5c1.7,0.4,2.9,1.5,4.1,2.7 c0.7,0.6,1,2.9,2.3,2.2c0.9-0.9-3.6-4.7-5.3-5.1C171.2,341.9,169.1,341.4,165.4,342"/></g><g><path fill="#3b2101" d="M185.8,339.6c1.2,0.9,1.9,1.7,2,2.2c0.1,0.6,0,1.3,0.1,1.8c0.3-0.5,1-1.1,0.8-1.7 C188.5,341.1,186.5,339.8,185.8,339.6"/></g><g><path fill="#3b2101" d="M178.9,331.3c1,0,5.7-0.3,5.5,1.5c-0.9-0.4-1.7-0.7-2.5-0.8c-0.5-0.1-0.9-0.2-1.4-0.3 C180.1,331.6,179.3,331.5,178.9,331.3"/></g></g><g><path fill="#743803" d="M165.6,338.2c-2-1.5-4.5-2.5-7-3.3c-3.6-1.2-7.9-1.3-11.1-3.5c-2.3-1.6-3.1-2.4-5.9-3 c-7.2-1.5-8.9-8.5-15.2-11.6l-0.2-2.7c-1.2-1.8-0.9-3.7-1.2-5.8c-0.8-4.5-3.7-3.9-7.5-3c-2.6,0.6-8.8,1.7-10.4,3.9 c-0.6,0.9-0.5,1.5-0.5,2.6c-0.1,2.6,0.5,4.5-1.6,6.3c-0.9,0.8-4.4,2-3.9,3.7c0.1,0.6,2,1.2,2.5,1.5c1.7,1,3.4,2.1,5.1,3 c3.9,2.1,8,3.3,11.9,5.2c4.2,2,8.2,4.7,12.2,7c4.2,2.4,7.5,5.8,12.4,6.9c2.6,0.6,5.4,1,8.1,0.9c3.1-0.1,5.6-1.5,8.5-2.7 C164.9,342.5,169.4,341,165.6,338.2z"/></g></g><g><g><g><path fill="#c45d24" d="M304.6,335.1c-1.4-8.1-8.8-11.7-15.9-12.1c-3.2-0.8-6.5-1.2-9.6-1.7c-5.4-0.8-7-8.2-9.7-13 c-2.6-4.7-7.3-10.2-7.5-15.7c-0.2-4.5,1.1-9.1,0.9-13.8c-0.2-5-0.8-10.1-2.3-14.9c-4-13.4-6.9-27.8-4.5-41.9 c1.1-6.5,3.7-11.8,3.7-18.6c0-3.1,1.1-8.4-0.4-11.1c-3-5.3-13.3-3.8-18.3-3.8c-7.6,0-17.3-2.5-20.4,6.2 c-1.5,4.3-2.8,9.3-3.7,13.7c-2,9.5-6.6,32.4,4.2,38.8l9.8,9.1c6.6,10.6,7,24.8,11.4,36.3c2.2,5.8,7.3,9.2,10.6,14.4 c5.3,8.4,7.5,19.6,13.8,27.2c3,3.6,7.9,3.4,12.1,4.2c0.5,0.1,1,0.2,1.5,0.4c1.5,1.4,2.7,2.9,5.2,3.5 C291.9,343.5,306.4,346.1,304.6,335.1z"/></g><g><path fill="#b55623" d="M303.7,331.2c-0.3-0.8-2.9-4.1-3.4-2.5c-0.4,1.1,2.5,2.2,2,3.4c-0.3,0.6-0.9,0.3-1.1,1 c-0.2,0.5,0.3,0.8,0.2,1.2c-0.3,1.9-0.7,0.5-2.2,0.8c-1.3,0.2-1.3,0.6-0.7,1.7c0.4,0.8,0.9,0.6,1,1.6c0.1,0.5,0,1.2-0.2,1.7 c-0.8,2-2.3,1.1-4,0.7c-1.2-0.3-2.7-0.3-3.9-0.8c-2.3-1.1-2.7-3.9-5.7-3.9c-1.4,0-2.2,0.2-3.5-0.7c-1.1-0.8-1.8-2.1-3.2-2.7 c-2.6-1.1-4.9,1.2-7.5,0.9c-3.1-0.4-4.1-4.7-5.4-7.1c-1.4-2.7-3-5.3-4.2-8.1c-0.9-2.2-1.4-4.6-2.4-6.7 c-2.4-4.9-6.3-8.3-11.2-10.8l-0.7-0.2c0.9,0.9,1.7,1.8,2.6,2.8c2.1,2.6,3.4,4.8,5,7.8c1.6,3,2.9,6.9,4.3,10 c2.5,5.4,3.9,12.4,9.7,15.5c2.4,1.3,5.2,1.1,7.8,1.8c1.5,0.4,2.6-0.1,3.6,1.1c0.9,1,1.1,2.4,2.2,3.1c2.4,1.7,7.1,2,10,2 c2.9,0,6.2,0.3,8.7-1.3C306.5,339.9,305.3,336.1,303.7,331.2z"/></g><g><path fill="#743803" d="M286,338.2c1.3,1.1,1.6,2.7,1.3,4.4c-0.1,0.4-0.6,1.1-0.4,1.5c0.3,0.4,1.6,0.3,2,0.3 c0.7,0,1.4,0.2,2.1,0.2c0.4,0,0.7,0.2,0.7-0.2c0-0.2-0.5-0.6-0.6-0.9c-0.3-1.1-0.4-1.9-1.2-2.8c-0.6-0.7-1.2-1.1-2-1.7 c-0.5-0.3-1.3-0.9-1.9-0.9"/></g><g><path fill="#743803" d="M301.9,338.9c-0.7-1-1.2-1.8-2.4-2.2h-0.2c1.8,0.6,2.2,3.6,1.4,5c-0.3,0.5-0.8,0.9-0.9,1.4 c-0.2,0.6-0.4,0.7,0.2,0.8c0.9,0,2.4-0.9,2.9-1.7C303.6,341.2,302.5,339.8,301.9,338.9z"/></g><g><path fill="#743803" d="M302.3,333.9L302.3,333.9c1.8,0.7,1.8,2,1.9,3.1c0.1,0.5,0.1,1.1,0.1,1.7c0,0.6,0.2,1,0.6,0.3 C305.8,337.1,304.3,334.1,302.3,333.9z"/></g><g><path fill="#743803" d="M301.4,330c0.7,0.1,1.9,1.3,2.4,1.7C304,330.9,302,329.9,301.4,330z"/></g><g><path fill="#743803" d="M281.5,339.2c-0.1-0.7-0.1-1.8-0.8-2.3c-0.8-0.6-1.5-0.3-2.4-0.1c-0.4,0.1-0.8,0.3-1.2,0.4 c-1,0.4-2.1,0.3-3.2,0.3l-0.6,0.2c1.7,1.2,4.1,0.4,6,0.9c1.2,0.3,2,2.6,2.9,3.5C282.2,341.3,281.7,340,281.5,339.2z"/></g><g><path fill="#3b2101" d="M288.7,340.6c0.6,0.6,0.7,1.8,0.5,2.6c-0.1,0.2-0.2,0.5-0.3,0.7c-0.1,0.2-0.3,0.3-0.1,0.5 c0.2,0.1,0.6,0.1,0.8,0.1c0.1,0,0.8,0,0.9,0c0.2-0.1-0.1-0.6-0.1-0.7c-0.1-0.4-0.2-0.9-0.4-1.3 C289.7,341.8,289.1,341.1,288.7,340.6"/></g><g><path fill="#3b2101" d="M301.9,338.9c0.1,0.4,0.3,0.9,0.4,1.3c0.1,0.4,0.1,0.7,0.1,1.1c0,0.6-0.1,1.3-0.4,1.8 c0.4,0,0.6-0.6,0.9-0.9c0.3-0.3,0.4-0.5,0.2-0.9C302.8,340.5,302.6,339.5,301.9,338.9"/></g><g><g><path fill="#3b2101" d="M304.6,336C304.6,336,304.7,336,304.6,336c0,0,0-0.1,0-0.2V336z"/></g><g><path fill="#3b2101" d="M305.2,337.1c-0.1-0.4-0.4-0.7-0.5-1c0,0.2,0.1,0.4,0.1,0.5c0,0.4,0,0.8,0.1,1.2c0.1,0.3,0,0.6,0.1,0.9 C305.1,338.2,305.3,337.5,305.2,337.1z"/></g></g><g><path fill="#743803" d="M292.6,335c0.3,0.1,0.5,0.3,0.7,0.4c0.3,0.2,0.7,0.5,1.1,0.6c0.7,0.3,1.5,0.4,2.2,0.4 c0.8,0,1.6,0,2.4,0.1c-0.2-0.2-0.5-0.3-0.8-0.5c-0.2-0.1-0.4-0.2-0.7-0.3c-0.6-0.2-1.2,0-1.8-0.1c-1.1-0.1-2-0.8-3.1-0.8"/></g><g><path fill="#743803" d="M301.3,333.5c-0.2-0.1-0.4-0.2-0.6-0.3c-0.7-0.4-1.4-0.3-2.1-0.4c-0.8-0.1-1.7-0.2-2.5-0.4 c-0.2,0-0.5-0.1-0.7-0.1c-0.2,0-0.4,0-0.6-0.1l0,0.1c0.6,0.3,1.2,0.7,1.9,0.8c0.6,0.1,1.3,0.1,1.9,0.1c0.7,0,1.3,0,2,0.2 c0.4,0.1,0.8,0.2,1.2,0.4C301.6,333.6,301.4,333.5,301.3,333.5z"/></g><g><path fill="#743803" d="M294.2,327.5c0.5,0.5,1.4,0.9,2,1.1c0.5,0.1,1,0.1,1.5,0c0.3,0,0.6,0.1,1.5,0.4c0.3,0.1,0.6,0.2,0.9,0.3 c0.2,0.1,0.3,0.2,0.4,0.2c-0.2-0.3-0.8-0.5-1.1-0.7c-0.5-0.3-0.9-0.6-1.4-0.7c-0.8-0.1-1.5,0-2.3-0.2 C295.3,327.9,294.7,327.6,294.2,327.5"/></g></g><g><path fill="#743803" d="M255.6,248.4l-2-2c-4.5,0.1-9.7,2-13.5,4.5c-4.8,3.2-4.8,8-4.5,13.3c0.5,7.3,3.4,13.9,4.5,21.1 c0.4,2.5,0.7,6.4,3.1,2.6c1.2-2,1.2-5.6,3-7.1c1.3-1,2.2-0.5,3.5-1.7c1.2-1.1,2-3.2,2.4-4.7c0.9-3.2,0.5-6.9,0.5-10.2 c0-1.4,0-2.3,0.6-3.3c0.6-0.9,1.9-1.3,2.4-2.6C256.7,255.6,256.4,251.1,255.6,248.4z"/></g></g><g><path fill="#d36c28" d="M335.2,111.4c-3.1-12-21.8-13.8-31.6-14c-13.8-0.3-26.4,6.9-40,6.1c-4.9-0.3-8.4-3-12.9-4.2l-0.4,1.1 c-1.2,3.3-2.9,8.7-5.2,11.3c-2.2,2.5-4.6,7.1-6.3,10c-4.3,7.6-7.7,11-15.4,17.3c-9.5,7.7-18.3,15.8-29,21.7 c-15.3,8.5-33.3,11.7-49.5,18.4c-28.1,11.7-58.2,31.9-72.2,59.9c-5.2,10.5-9.8,23.9-7.8,35.7c1.6,9.5,8.4,23.5,16.4,29.1 c11.1,7.8,29.1,5.9,41.9,5.4c12.9-0.6,25.9-4.8,37.7-9.8c18.7-7.9,35.6-19,52.8-29.8c15.2-9.5,32-18.4,48.6-25.4 c10.5-4.5,20.2-11.2,28.3-19.4c6.8-6.9,13.3-15.4,17.5-24.1c1.8-3.6,2.7-7.4,3.5-11.3c1.7-8,4.6-16.2,7.3-23.9 c3.8-10.9,9.4-21.3,12.9-32.5C334,126.3,337,118.5,335.2,111.4z"/></g><g><path fill="#f4f6f2" d="M335.3,104c-1.1-5.4-4.8,0.6-9.7-1.7c-2.6-1.2-6.4-2.8-9.3-2.6c-3.3,0.2-9.9,3.5-10.8,6.8l5.3,17 c2.3,7.2,2.3,19.2-0.7,26.5c-1.6,3.8-3.7,7.9-6.3,11c-1.9,2.2-4.3,3.3-5.4,6.1c7.6,0.9-6.5,16.3-7.9,18.5 c-1.8,2.7-3.6,4.7-3.5,7.2c0.2,3.1,2,4.1-0.1,7.7c-2.1,3.9-5.8,7.1-8.4,10.6c-3.4,4.5-6.1,9.6-8.7,14.7 c-3.8,7.4-8.8,15.1-13.8,21.5c5.8,1.2,21.1-8.1,25.3-11.3c7.8-5.9,12-11,18.7-18.1c4.1-4.4,6.3-10,9.1-15.2 c3.4-6.5,6.6-13.3,8.2-20.6c1.3-6.1,1.5-12.9,4.2-18.6c3.2-6.6,6.7-12.1,8.1-19.4C331.3,134.3,338.9,122.5,335.3,104z"/></g><g><path fill="#c45d24" d="M311.4,102.4c-9.4-2.2-21.2-0.7-30.7-0.4c-5.3,0.2-10.4,0.8-15.6,1.5c-10.4,1.6-5.7-10-14.7-4.2l-6.5,13.6 c-5,7.5-10.9,15.2-17.6,21.2c-3.6,3.2-6.7,6-10.2,11.1c4.7,2.1,8.4-2.3,12.7-3.4c1.6,4.5-9.5,14.9,0.9,13.1c8-1.4,16-6.7,22.6-11 c1.5,4.2-4,12.1,1.7,13.3c6.8,1.3,14.6-8.4,19.7-11.2c1.4,1.5,0.5,4.3,1.9,5.5c2.1,1.7,6.1-0.6,7.9-1.4c3.2-1.5,6.5-3.5,9.1-6 c1.5-1.5,2.5-3.5,4.3-4.5c1.4,4.7,8,0.7,10.6-1.1c5.2-3.5,5-14.6,7.3-20.2C317.6,110.7,320.7,104.6,311.4,102.4z"/></g><g><path fill="#df7334" d="M342.1,6.5l-0.8-0.8c-5-2.3-4.7-3.9-9.4-1.5c-5.3,2.8-9,8.6-12.9,14.2c-2.6,3.7-10.4,8.1-14.1,10.8 c-4.3,3.2-12.6,1.3-17.8,2.3c-6.1,1.2-10.6,4.9-14.3,9.8c-3.4,4.5-7.3,7.7-11.1,11.7c-8.1,8.7-10,24.5-10.5,35.9 c-0.3,8.3-3.4,16.3-7.6,23.4c-0.7,1.1-4.9,7.1-4.7,7.9c0.4,1.7,2.8,0.1,4.7-0.5c0.9-0.3,1.7,0.4,1.7,1.3c0,0.8-0.2,1.6-0.2,2.5 c0,0.7,0.5,1.3,1.2,1.3c3.9,0.2,10.5-4.4,14.1-6.4c0.6-0.3,1.4-0.2,1.7,0.4c1.7,2.5,1.6,5.7,1.5,8.7c0,0.5,0.3,1,0.8,1.2 c5.3,2.3,10.1-1.2,14.8-3.3c0.8-0.4,1.7,0.1,1.8,0.9c0.3,1.9,0.1,4.1,0,6c0,0.6,0.3,1.1,0.9,1.3c6.3,1.9,12.6-4.3,17.2-8.2 c0.7-0.5,1.7-0.3,2,0.5c1.6,3.6-0.2,6.6,6.4,5.4c2.9-0.5,4.1-3.8,6-6c0.7-0.8,1.9-0.5,2.2,0.5c1.3,4.4,6.4,3.6,8.3,0.5 c2.2-3.5,3.8-7.5,5.3-11.2c3.5-8.6,5.2-17.4,5.3-26.8c0.2-20.3,7.6-36.2,14.1-55C352.5,23.4,349.9,13.5,342.1,6.5z"/></g><g><path fill="#f4f6f2" d="M350.9,20.8c-0.4-5-1.5-11-5.8-13.8c-3.9-2.5-6.8-4.5-10-0.9L335,8.8c-1.6,5.6-3.5,11.6-7,16.3 c-2.8,3.7-7,6.3-10.1,9.9c-5,5.9-4,10-3.8,17c0.2,8.2-4.8,15.8-9.4,22.3c-3.4,4.8-6.4,16.3,3,8.4c1.9,5.4-2.8,14.4-2.7,20.4 c1.7,0.6,3.3-0.5,4.6-1.8c0.9,5.2-0.4,12.4-0.4,17.9c0,2,0.6,13.4,4.5,7.7c1.3,0.8,3.3,3.4,4.9,3.6c2.5,0.3,5.9-3.3,7.2-5.1 c2.8-3.7,10.4-9.6,10.3-14.3c-0.4-13.8-0.7-17.4,0.6-28.3c1.2-9.8,3-22.1,6.6-31.3C347.2,41.7,351.7,31.7,350.9,20.8z"/></g><g><path fill="#d36c28" d="M95.2,331.9c-2.7-9.3-10.8-23.8-15.3-32.2c-4-7.4-5.6-7.8-5.7-16.3c-0.1-5,0.6-9.7,1.9-14.6 c0.6-2.3,2.3-5.5-0.4-6.9l-0.8-0.4c-3.3,1.3-4.8,5.4-7.2,7.8c-2.1,2.1-4.3,3.7-6.2,6c-5,6.2-8.8,13.6-12.7,20.4 c-6.9,12-9.5,25.2-14.8,37.8c-8.1,19.1-11.4,39.3-16.9,59.3c-1.8,6.6-3.4,13.4-7.1,19.2c-4.5,7-7.9,14.8-8.5,23.2 c-0.5,7.4,0.9,15.2,3.2,22.2c1.5,4.6,3.7,9,4.7,13.8c0.9,4.4,0.2,9,0.5,13.4c2.8,0.5,4.6-1.4,6.7-2.7c2.7,4.4-0.3,13.8-2.5,18 c7.1-1.2,15.6-10.1,21.5-14.2c6.4-4.5,13.4-10.2,17.7-16.9c6-9.2,10.6-18.5,12.4-29.3c0.7,2.3,1,4.8,1.7,7.1 c9-11.1,12-24.5,14.9-38.1c2.8,0.1,4.3,3.2,6.2,4.9c5.8-4.8,7.4-19.7,8.4-26.7c1.3-9.4-0.4-19.1,0.7-28.3c0.4,0.2,0.8,0.5,1.1,0.8 C102.5,355.8,96.7,337,95.2,331.9z"/></g><g><path fill="#fcfded" d="M17.5,391.8c1.7,3.7,3.1,6.9,3.7,11c0.3,2.4-0.3,9.2,1.8,11.2c3.1,3.1,5.3-1.8,6.7-4.3 c2.1-3.9,3.5-7.3,7.2-9.9c1.7,1.8,1.2,5.3,3,7c3.4,3.2,7.9-1.5,10.4-3.7c3.1-2.8,6.2-5.9,8.9-9.1c3.1-3.7,4.4-8.7,7.3-12.3 c2.4,4.2-3,20.7,4.8,18.2c3.7-1.2,7.2-7.6,10-10.5c2.9-3.1,6.1-6,9-9.2c6.5,7.7,6.1,24.5,3.7,33.7c-1.8,7-4.6,12.9-9.1,18.6 c-2.5,3.2-6,8.8-9.2,11.1c-1.2,0.8-2.9,0.5-4,1.8c-2.5,2.8-2.1,8.4-4,11.7c-2,3.5-4.9,6.9-7.2,10.8c-5.1,8.7-12.4,17.2-21,22.5 c-8.3,5.1-15.1,9.4-25,9.5c0.7-4.5,3.5-9.2,2.4-13.7c-2.5,0.3-5.3,1.7-7.5,2.6c-1.8-7,0.5-14.9-0.9-22.1 c-1.1-5.5-3.2-9.3-6.2-13.7c-0.4,0.3-0.8,0.6-1.2,0.9c-1.5-4-0.5-11.5-0.4-15.9c0.3-6.6,0.8-13.4,4.1-19.1 C9.9,409.7,12.9,403.2,17.5,391.8"/></g><g><path fill="#d4d7d1" d="M90,381.5c-2.8,1.3-5.4,4.6-8,6.4c-0.1,0.1-0.2,0.2-0.3,0.3l-4.9,6.7c-0.2,0.2-0.2,0.5-0.2,0.8 c0.3,6.6-2.4,14.3-6,19.7c-3.8,5.6-9,8.8-13.8,13.3c-0.8,0.7-1.8,1.7-2.6,2.7c-0.5,0.7-0.2,1.7,0.6,1.9c2.7,0.8-2.6,8.5-3.4,10 c-2.9,4.9-5.6,9.9-8.9,14.5c-1.2,1.7-6.6,7.8-5.6,10.1c1,2.3,3.4,1.4,5.6,0.5c0.8-0.4,1.8,0.3,1.7,1.2c-0.4,3.8-3.6,8.6-5.2,11.6 c-2.1,3.9-3.8,9.4-6.5,13.3c-0.6,0.9,0.2,2.1,1.2,1.9c5.4-1.1,11.7-7.5,15.5-10.4c5.1-3.8,8.9-6.8,12.6-12 c3.6-5.1,6.2-9.3,8.3-15.1c1-2.6,1.6-5.9,2.5-8.6c0.3-1,1.7-1.1,2.2-0.2c0,0,0,0.1,0.1,0.1c0.3,0.6,1,0.8,1.5,0.6 c5.4-2.2,10.3-13.4,12.4-17.8c2.6-5.4,5-11.6,5.3-17.7c0.3-6,4.6-17,4.6-23c0-5.8-5.2-5.2-7-9.8C91.3,381.5,90.6,381.2,90,381.5z"/></g><g><path fill="#c45d24" d="M101.1,341.5c-0.9-6-2.6-12.6-5.5-18c-4.5-8.2-11.3-15.5-15.7-23.7l-0.7,4.9c0.4,5.4-3.9,7.6-4.9,12.5 c-1,4.6,1.3,6.5,2.5,10.4c2.1,7,2.1,15.6,0.5,22.6c-1,4.1-1.6,8.5-3.4,12.3c-0.9,1.9-2.3,3.4-2.8,5.5c8.2,1.4-6.7,24.5-3.4,31 c1.5,3,8,0.1,11.6,0.7c4.3,0.7,6.8,2.3,9.5,6.3c2.4,3.7,6,13.2,6.8,4.6c0.8-8.8,4.8-21.9,4.9-30.7c0.1-7.1-0.8-14.7-2.5-21.5 c0.8,0.1,3.1,2.8,4.1,3.1C104.2,356.9,101.9,346.5,101.1,341.5z"/></g><g><path fill="#c3c6c1" d="M216.9,250.6L215,251c-2.3,6.9-11.6,12.8-18.5,14.3c-5.7,1.2-10.2,0.2-15.6-0.4c-6.7-0.7-6.6,4-10.7,7.3 c-4.1,3.3-10.8,2.3-13.7,7.5c-2.1,3.6-2.3,8.9-3.9,12.8c-1.6,3.8-3.9,7.5-6.4,10.8c-1,1.3-5.7,5.4-5.6,6.9 c0.4,4.7,19.5-8.9,22.4-10.5c9.8-5.4,20-10.1,29.7-15.6c7.4-4.2,19.7-10.6,23.6-18.8C218.6,261.2,217.8,255.2,216.9,250.6z"/></g><g><path fill="#ea853a" d="M217.4,146.6c-1-4.4-6,2-8.7,3.7c-5.3,3.3-8.3,5.9-13.8,8.8c-11.3,5.9-24.2,10.4-36.5,13.6 c-16.8,4.4-32,10-46.8,19.1C97,200.8,82,212.8,73,227.7c-4.1,6.8-6,14.4-8,21.9c-0.9,3.4-4.1,20.3-0.3,22.6l4.1-1.5 c15.9,1.3,23.8-25.3,30.8-36.3c1.2-1.8,2.6-5,4.2-6.4c3-2.6,2.9-0.3,6.3,0.3c5.1,0.8,9.2-6.6,12.3-10.2c5.3-6.2,11.3-12,18.3-16.4 c1.8-1.1,8.2-5,10.1-4.2c2.1,0.9,0.7,3.8,3.8,4.2c2.6,0.3,3.5-2.3,4.8-3.8c3.3-3.9,6.9-7.5,10.8-10.9c7.4-6.7,16-11.8,24.7-16.7 c6-3.4,12.8-6.3,18.3-10.6C215.9,157.5,218.4,151,217.4,146.6z"/></g><g><path fill="#c45d24" d="M209.8,217l-6.4-4.6c-5.5,1.1,0.5,17.7-1.3,22.7c-1.8,5.2-4.2,12.5-1.5,17.8c3.8,7.3,13,9.8,12.5-0.8 c-0.2-4-0.9-7.3,1.1-11c2.4-4.4,6.9-7.7,8.4-12.5C225.6,219.7,216.9,217,209.8,217z"/></g><g><path fill="#d4d7d1" d="M331.6,54.7c-2.6,1.8-5.5,3.8-7.1,6.6c-1.5,2.8-3,8.5-2,11.6c0,0.1,0.2,0.2,0.3,0.1l2.3-2.3 c0.1-0.1,0.3-0.1,0.3,0c0.6,1.3-1.1,4-1.5,5.2c-0.5,1.5-0.9,3.1-1,4.8c-0.2,4.9,2.2-0.4,4-1.5c0.1-0.1,0.3,0,0.3,0.1 c0.6,2.2-0.6,5.1,0.6,7.2c0,0.1,0.1,0.1,0.2,0.1c1.1-0.4,2.2-1.9,3-2.9c0.1-0.1,0.3-0.1,0.3,0c0.5,1.1,0.1,3.4,0,4.5 c-0.2,2.2-0.4,4.7-0.2,7c0.1,1.4,1.2,6,3.1,3.6c1.1-1.4,0.9-3.9,1.2-5.5c0.6-3.4,0.9-6.8,1.1-10.3c0.5-10.1,4.1-19.1,7.2-28.6 c1-3.1,2.1-6.3,2.9-9.5c0.3-1.4,0.5-2.8,0.8-4.2c0-0.2-0.3-0.3-0.4-0.1C344.1,46.5,336.8,51.1,331.6,54.7z"/></g><g><g><path fill="#f4f6f2" d="M311.6,37.8c-0.3-1.3-2.3-0.9-3.5-1.1c-3-0.8-6.6-1.7-9.4-0.1l-1,2c0.7,2.1,0.3,1.6,1.6,3.4 c1,1.2,3.5,4.6,5,5.3c2.8,1.2,5.3-4.1,6.5-6C311.3,40.6,311.8,38.5,311.6,37.8z"/></g><g><path fill="#24221d" d="M311.2,37c0,0-0.1-0.1-0.1-0.1c-2.3-2.2-7.8-2-10.7-1.2c-2.7,0.8-3.4,3.1-1.7,5.1 c3.9,4.4,12.7,3.8,12.9-2.8c0-0.2-0.1-0.4-0.2-0.6L311.2,37z"/></g><g><path fill="#f4f6f2" d="M305,37.8l-0.2-0.2c-2.7-2.8-7.4,1.6-3.6,3c1.3,0.5,3.9,0.4,5-0.5C307.8,38.9,306.8,37.8,305,37.8z"/></g><g><path fill="#f4f6f2" d="M304.8,36.1c-0.5,1.2,1.8,1.4,2.6,1.2c0.1,0,0.2-0.1,0.3-0.2v0c0.2-0.2,0.1-0.6-0.2-0.7 C306.6,35.9,305.1,35.3,304.8,36.1z"/></g><g><path fill="#24221d" d="M312.1,37.1c-0.2-0.6-1.2-0.4-1,0.3c0.3,0.8-0.2,1.8-0.4,2.6c-0.4,1.1-0.9,2-1.5,3c-1.1,1.6-2.5,3.4-4.4,4 c-0.8-0.6-1.6-1-2.3-1.7c-0.8-0.8-1.4-1.9-2-2.9c-1.4-2.5-2.7-5.1-2.1-8c0.1-0.7-0.9-0.9-1-0.3c-0.6,2.9,0.3,5.5,1.7,8.1 c0.6,1.1,1.2,2.2,2,3.2c0.9,1.1,2.1,1.7,3.1,2.6c0.1,0.1,0.3,0.1,0.5,0.1c0.1,0,0.2,0,0.3,0c2.2-0.6,3.8-2.6,5.1-4.5 c0.7-1.1,1.3-2.2,1.7-3.4C312.1,39.1,312.5,38.1,312.1,37.1z"/></g></g><g><g><path fill="#4b2610" d="M266.8,54.6l-0.5-1.2c-8.4-2.3-10.7-2.6-19.4-2.7c-5-0.1-11.3-1.3-10.2,5.6c0.9,5.7,6.1,11.1,9.3,15.8 c3.2,4.6,7.6,13.5,12.5,6.9c2.9-3.9,3.6-9.3,5.2-13.8C265,61.9,267.1,58.2,266.8,54.6z"/></g><g><path fill="#e07e31" d="M259.3,50.4c-3.6-0.7-7.2-0.6-10.9-0.6c-2.4,0-4.9-0.3-7.2,0c-1.5,0.2-3.8,1.4-4,3.2 c1.8-1.4,3.5-1.7,5.6-2c2.5-0.4,6.2,0.3,8.7,0.3c2.4,0,4.8,0,7.2,0.3c1.6,0.2,3.4,0.9,5,0.9C262.7,51.4,260.9,50.7,259.3,50.4z"/></g></g><g><path fill="#ea853a" d="M330.9,8.2c0.1-0.7-0.7-2.6-0.9-3.2c-3.7,0.5-6.3,5.7-8.9,8c-3.8,3.4-6.4,8-10.3,11.2 c-11.5,9.7-27.3,0-38.8,17.4c-2.2,3.3-5.2,6.2-8.1,9c-3.8,3.6-2.8,4.8,2.1,5c3.4,0.1,5.5-1,8.7-2.3c1.9-0.8,5.2-2.6,7.2-1.1 c1.5,1.1,1.1,3.6,1.4,5.4c2.5-1.1,1.9-5.1,3.9-6.6c7.6,4.6,5.4-7.1,2.3-10.3c-1.9-1.9-3.1-1.9-1.3-4.8c1.5-2.5,3.6-2.4,6.2-2.4 c2.3,0,5,0.4,7.2,0c2.8-0.5,5.1-2.4,7.9-3.4c2.5-0.9,4.5-3,6.8-3.8c2.9-0.9,3.2,0.4,5.2-2.5c3.3-4.7,5.9-10.3,9.7-14.7L330.9,8.2z"/></g><g><path fill="#24221d" d="M336,0.2c-2.5-0.8-4,0.8-5.1,3c-1,2.2-2.8,5.4,0.4,6.5c3.1,1.1,5.5-0.7,7.9-2.1l1.9-1.5 C341.2,3.7,338.2,0.9,336,0.2z"/></g><g><path fill="#35332d" d="M338.4,3.6L338.4,3.6c-0.3-0.1-0.5,0-0.7,0.3c-0.8,1.3-2.5,1.2-3.8,1.7c-1.7,0.5-2,2.4,0,3.1 c2.3,0.7,8.4-2.7,4.7-4.9C338.5,3.6,338.5,3.6,338.4,3.6z"/></g><g><g><path fill="#df7334" d="M292.5,82c0-3.4-1.4-6.7-2.7-9.8c-1.4-3.2-2.2-6.6-3.7-9.8c-0.5-1-1-2.2-1.8-3.1 c-0.6-0.7-1.5-1.1-2.1-1.9l-0.9-0.6c-3.5-2.1-8.7-2.8-12.6-3.4c-3-0.5-6.1-1-9.2-1.1c-4.4-0.1-7.6-0.7-13.8,1.1 c-1.1,0.3-2.8,1-3.2,2.2c-0.8,2.5,2.8,7.3,4,9.2c1.6,2.5,3.3,5,5.4,7.1c3.5,3.4,8,5.8,12.3,8c5.3,2.7,10.3,5.9,16,7.7 c2.7,0.8,7.5,2.4,10.2,1.1C293,87.5,292.5,84.2,292.5,82z"/></g><g><path fill="#d8d6d6" d="M280.6,66.6c-0.7-1.6-3.4-6.1-3.4-6.1c-1.3-1.2-2.9-1.3-4.6-1.7c-1.9-0.5-3.8-1.3-5.8-1.6 c-3.2-0.5-6.3-1.1-9.6-1.1c-2.4,0-5.3-0.9-6.1,1.9c-0.7,2.4,0,4.9,1.4,6.9c4,5.8,10.7,8.3,17.8,11.9c2.8,1.4,16.6,6.9,17.1,6.5 C288.1,82.9,281.8,69.5,280.6,66.6z"/></g><g><path fill="#4b2610" d="M284.7,86.5c-10.6-4.5-22.1-8.2-31.1-15.7c-1.9-1.6-3.4-3.5-4.8-5.4c-1-1.4-2.5-2.7-2.8-4.4 c-0.3-1.5,0.2-3.3,1.3-4.4c1.2-1.2,4.8-3.3,6.3-4.6c-2.4,0-5.5,0.8-7.6,1.2c-2.6,0.5-3.7,1.3-3.6,4c0.2,3.8,2.1,7.2,4.6,10.1 c1.9,2.2,3.6,4.7,5.8,6.7c1.8,1.6,4,2.6,6.1,3.6c4.8,2.2,9.3,4.7,13.9,7.4c3.8,2.2,7.6,5.2,12.3,5c0.9,0,4,0,4-1.3 C289.1,87.5,285.6,86.9,284.7,86.5z"/></g><g><path fill="#37281c" d="M277.6,67.3c-2.9-0.8-6.2,0.3-8.8-1.8c-1.1-0.9-0.8-1.4-2.4-1.2c-1.8,0.2-1.9,0.8-3.3-0.7 c-0.8-0.9-0.4-1-2-1.2c-0.6,0-1.9,0.3-2.4-0.1c-0.4-0.3-0.3-1-0.5-1.3c-0.9-0.9-1.4-0.1-2.8-0.1c-1.2,0-1.6-0.8-2.6-1 c-0.2,3.5,4.3,5.9,6.8,7.4c3,1.8,5.2,3.6,8.5,4.7c2,0.6,13.4,6.7,14.2,6.2c1.5-1-2.8-9.7-3.9-10.6"/></g><g><path fill="#e07e31" d="M252.8,74c-0.8-0.7-1.5-1.4-2.2-2.1c-0.7-0.7-1.4-1.4-2.1-2.1c-1.4-1.5-2.7-2.9-4-4.5 c-0.6-0.8-1.3-1.6-1.7-2.5c-0.5-0.9-0.8-1.9-1-2.9c0-0.3-0.1-0.5-0.1-0.8c0-0.3,0-0.5,0.1-0.8c0.1-0.5,0.2-1,0.3-1.5 c0.1-0.5,0.3-1,0.4-1.4c0.1-0.2,0.2-0.5,0.3-0.7c0.1-0.2,0.2-0.5,0.4-0.7l0,0l0,0c0.7-0.5,1.5-0.8,2.2-1.1 c0.8-0.3,1.6-0.5,2.4-0.7c0.4-0.1,0.8-0.1,1.2-0.2c0.4-0.1,0.8-0.1,1.2-0.1c0.4,0,0.8,0,1.2,0c0.4,0,0.8,0,1.2,0.1l-1.2,0 c-0.4,0-0.8,0-1.2,0.1c-0.8,0.1-1.6,0.2-2.4,0.4c-0.8,0.2-1.6,0.4-2.3,0.7c-0.7,0.3-1.5,0.7-2.1,1.1l0-0.1 c-0.2,0.4-0.4,0.9-0.5,1.3c-0.2,0.5-0.3,0.9-0.4,1.4c-0.1,0.5-0.2,1-0.3,1.4c0,0.2-0.1,0.5-0.1,0.7c0,0.2,0,0.5,0.1,0.7 c0.2,1,0.5,1.9,0.9,2.7c0.5,0.9,1.1,1.6,1.7,2.4c1.2,1.6,2.5,3.1,3.8,4.6C250.1,71.1,251.4,72.6,252.8,74z"/></g></g><g><path fill="#ea853a" d="M253.6,83.4l-1.8-2.1c-0.2,2.4,0.1,4-0.2,6.5c-0.4,3.5-1.3,6.8-2,10.3c-0.8,3.9-2.1,7.7-4.1,11.2 c-1.3,2.1-2.5,4.4-3.8,6.4c-0.8,1.3-2.7,3.1-2.6,4.6c3.5,0.3,5.1-2.6,6.4-5.2c2-3.9,4.2-8.3,5-12.6c0.1-0.6,0.1-1.6,0.5-2.1 c0.9-0.9,0.8,0.1,1.4-0.1c1.8-0.6,2.3-3.8,2.4-5.7C254.9,89.6,255.4,87.9,253.6,83.4z"/></g><g><g><path fill="#d4d7d1" d="M334.1,128.6c-0.3,0.8-0.6,1.6-0.8,2.5c0.1-0.1,0.1-0.2,0.2-0.3L334.1,128.6z"/></g><g><path fill="#d4d7d1" d="M315.6,152.9c-1.1,2.6,0.2,1.4,1,2.8c1,2,1.3,1.7-0.5,4.4c-1.8,2.5-4,4.7-6.2,6.8 c-4.3,4.2-10,7.6-13.8,12.1c2.6,1.1,5.8-1.1,5.5,3c-0.2,2.3-3.4,6.1-4.7,8.1c-1.7,2.7-3.6,5.1-5.8,7.5c-2.5,2.6-7.1,5.4-8.5,8.6 c2.9,0.9,5-1.5,4.5,2.2c-0.2,1.8-2.1,3.9-3.2,5.3c-3.8,5-7.7,10.4-12,15c-3.3,3.5-6.2,7.3-9.4,10.9c-2.1,2.4-5.8,4.6-6.7,7.6 c13.1,1.9,31.8-14.9,39.9-22.3c4-3.6,6.6-7.9,9.2-12.6c2.7-4.7,4.2-10.5,7.1-14.9c0.2,0.7,0.6,1.1,0.6,1.9 c2.2-1.2,2.9-6.9,3.6-9.4c1-3.2,1.9-6.5,2.8-9.8c1.5-5.2,2.9-10.5,4.8-15.5c2.3-6,5.1-11.8,6.9-18.1c1.4-5,1.3-10.6,2.6-15.6 c-3.5,6-7.8,12.3-12.6,17.2C319.3,149.6,316.4,151.1,315.6,152.9z"/></g></g><g><path fill="#d36c28" d="M256,240.2c7.1-8.6,15.3-15.8,18.9-26.7c4.3-12.9,1.4-25.2-7.9-34.9c-9.5-10-27.9-14.4-41.1-10.3 c-11.7,3.7-19,12.8-25,22.9l-1.1,4.5c-0.5,12.4,8,23.6,10,35.7c1.2,7.6,0.5,15.9-1.2,23.3c-0.8,3.3-2.5,7.2-1.9,10.7 c0.7,4.2,4.8,7.5,6,11.8c2.6,9.2,3.9,23.4,5.8,32.8c2.8,14.2,1.2,24.9,4.2,39c0,0,0.7,16.1,4.6,19.6c5.9,5.4,15.7,8.7,22.9,5.7 c3.3-1.4,6.1-0.7,8.2-2.5c3.6-3,2.9-6.1,1.3-9.3c0,0,0-0.1,0-0.1c0.2-2-1.1-4-2.9-5.6c-0.6-1.1-1.3-2-2.2-2.8 c-2.2-1.9-5.4-2.3-8-3.3c-0.2-0.1-0.4-0.2-0.6-0.2c-1.7-1.1-2.8-2.2-3.4-4.3c-0.1-0.5-0.1-1.1-0.2-1.7c-0.1-1.4-0.3-2.8-0.5-4.2 c0-1.9,0-3.8-0.2-5.6c-1-6.7-2.7-13.4-3.1-20.2c-0.6-10.3,0-20.8,0-31c0-7.5-1.1-15.8,1.5-23C243,251.6,250.5,246.9,256,240.2z"/></g><g><path fill="#d36c28" d="M181,333.3c-2.8-0.2-6.4,1.4-8.8,2.6c-3.6,1.8-7.2,3-10.9,4.4c-9.3-1.2-24.2-8.3-30.1-15.3 c-5.3-6.2-0.1-7.1,5.3-10.1c9.6-5.2,20.1-9.4,29.2-15.4c5.9-3.9,11.9-9.6,16.6-14.8c6.4-7,15.7-24.2,10.2-33.7l-2.3-5.9 c-5.2-6.5-22.1,1.1-28.9,2.2c-9.3,1.5-18.6,4-27.6,6.4c-6.6,1.8-14.1,3.9-19.4,8.5c-7.6,6.6-5.5,17.9-0.3,25.2 c4,5.6,6.1,8.9,3.6,15.7c-2.3,6.3-6.4,11.2-11,15.9c-2.3,2.4-8.2,7.2-8.1,10.9c0.1,3.4,4.6,7.5,7.3,9.1c6,3.5,12.8,6,19.5,7.9 c8,2.2,16.1,4.2,23.9,6.9c2.5,0.9,4.3,1.4,6,1.7c1,0.5,2,0.7,3.1,0.9c4.8,0.9,9.9-1.2,14.6-2.7c2.1-0.4,4.3-0.9,6.2-1.6 c5-1,10.6-1.9,11.8-6.7C192.5,339.3,187.5,333.8,181,333.3z"/></g><g><path fill="#c45d24" d="M185,244.6l1.2,1.6c3.1,2.4,3.4,6.6,3.4,10.3c0,4.1-1.9,5.6-5.2,8.2c-1.2,0.9-5.3,2.4-5.8,4.1 c-0.4,1.3,1.2,2.6,0.9,4.3c-0.4,2.9-4.5,5.1-6.5,6.6c-5,3.8-10.2,7.2-15.3,10.8c-4.1,2.9-6.5,5.8-8.4,10.2c-1.3,3-3.5,4.5-6.2,6.8 c-4.9,4.1-12.3,4.7-13.3,11.3c6.5-2.9,11.7-4.9,15.2-7.3c3.4-2.3,3.6-1.7,7.3-3.5c7.2-3.3,14.3-4.4,20.3-10 c10.9-10.3,22.6-23.2,23.5-39.2C196.6,251.2,194,243.8,185,244.6z"/></g><g><path fill="#ea853a" d="M53.1,291.1l1.2-4.8c-5.4,7.4-11.1,21.9-15,30.1c-10.9,22.7-16.1,59.8-22.1,76.5c4.5-7.5,7.1-12.3,11.4-20 c3.2-5.7,6.6-11.5,8.2-18c0.8-3.2,0.4-12,4.8-12.4c0.8,1.4,1.5,2.6,2.7,3.6c3.2-4.5,4.5-12.2,4.9-17.7c0.3-3.9-1.6-13.4,1-16.6 C60.1,318.7,52,293.7,53.1,291.1z"/></g><g><path fill="#bd6226" d="M255.7,355c-0.3-0.4-0.7-0.9-1-1.3c-0.6-0.7-1.5-0.8-2.4-1.1c-1.5-0.5-3-0.8-4.4-1.2 c-0.8-0.2-1.7-0.5-2.4-0.9c-0.3-0.2-1.1-0.4-1.3-0.6c-0.7-0.6-1.1-2.3-1.4-3.1c-0.2-0.7-0.3-1.4-0.4-2c-0.3-2.3-0.4-4.7-0.6-7 c-0.1-1.5-0.2-2.9-0.2-4.4c0-0.9-0.1-1.1-0.3-2l-0.6-2.5c0.2,1.4,0.5,4.7,0.4,6.1c-0.1,1.6-0.1,3.4-0.5,5c-0.4,1.4-1.3,1.9-1,3.4 c0.2,0.8,0.6,2.1,0.3,2.9c-0.2,0.5-0.6,0.8-0.9,1.2c-0.8,1-1.6,2-2.3,3.2c-1.3,2.1-3.3,3.5-5,5.3c-1.6,1.6-1.5,2.6-0.7,4.7 c0.5,1.3,0.4,1.6,1.8,1.1c0.8-0.3,1.5-0.7,2.3-1.2c1.4-0.9,2.8-1.8,4.2-2.6c0.8-0.5,1.6-1,2.5-1.5c0.2-0.1,0.5-0.4,0.7-0.4 c0.8-0.1,0.7,0.5,1,1c0.4,0.8,1.3,0.5,2.2,0.1c2-0.9,4.1-1.4,6.3-1c1.8,0.3,3.4,0.2,5.1,1.2C257.3,356.8,256.1,355.5,255.7,355z"/></g><g><path fill="#bd6226" d="M259.7,363.3c-0.4-0.9-0.5-1.7-0.8-2.6c-0.3-0.9-0.3-1.5-0.7-2.4l-0.7-0.3c-0.8,0-6.3-0.5-6.7,0.3 c-0.7,1.5,5.9,2.7,5.8,5c-1.6,0.6-3.3-0.7-4.8-0.7c-2.9-0.1,1.4,2.3,1.9,2.9c0.7,0.8,2.7,2.8,2.7,4c0,1.6-2.4,1.4-3.4,0.6 c-1.3-1.1-1.4-2.6-3-3.6c-2.1-1.3-4.1-1.9-6.6-1.9c-0.9,0-4.1,0.9-2.9,2.2c0.4,0.4,1.7,0.4,2.2,0.6c1.2,0.5,1.9,1.3,2.6,2.4 c0.9,1.2,1.6,2.7,0.2,4c-1,0.9-2.4,0.8-3.7,0.5c-0.5-0.1-2.4-0.7-2.6,0c-0.2,0.9,3.1,1.1,3.5,1.2c1.5,0.1,3.1,0.1,4.5-0.1 c1.8-0.3,3.4-1.6,5.2-2.1c2.4-0.6,5.6-0.8,7.2-3C261.2,368.4,260.7,365.2,259.7,363.3z"/></g><g><path fill="#743803" d="M252.3,372.5c-0.1-0.9-0.6-1.9-1-2.7c-0.7-1.6-1.3-2.7-3-3.2c-1.5-0.5-4.6-0.6-6.2-0.6 c0.4,1.4,1.2,1.2,2.4,1.2c1.1,0,1.6,0,2.4,0.9c0.9,1,1.4,2.1,1.5,3.5c0,0.5,0.1,1.1-0.1,1.5c-0.2,0.7-0.8,1.1-1,1.8 c1,0.4,2.8-0.9,3.8-1.1C252,373.5,252.4,373.6,252.3,372.5z"/></g><g><path fill="#743803" d="M251.6,362.7c1,0,2.1,0.3,3.1,0.5c0.6,0.1,1.1,0.2,1.6,0.5c1,0.5,1.4,1.6,1.7,2.6c0.6,1.6,0.6,3.3,0.7,5 c2.5-1.1,2.1-4.1,1-6C257.9,361.9,254.8,362.7,251.6,362.7"/></g><g><path fill="#743803" d="M259.7,360.7c-0.4-1-1.1-1.3-2-1.6c-2.1-0.6-4.2-0.8-7.2-0.8c1.8,0,3.6,0.6,5.6,0.9c0.4,0.1,1,0.4,1.4,0.7 c0.4,0.3,0.7,0.4,1,0.8c0.3,0.3,0.8,1,1.1,1.7C259.8,362,259.9,361.2,259.7,360.7z"/></g><g><path fill="#743803" d="M253.5,352.8c-0.8-0.5-0.8-0.5-1.6-1c-1.4-0.9-3-1.6-4.7-1.6c-1.9,0-2-0.4-3.1-1.7 c-0.3-0.4-0.8-0.7-1.1-1.1c-0.3-0.5-0.3-1.3-0.7-2.5l0,0.1c0,0.4,0,1.7,0,2.1c0,0.2,0.1,0.5,0,0.8c-0.1,0.5-0.6,0.6-0.8,1 c-0.4,0.8,0.4,0.7,0.5,1.4c0.1,0.9-1.7,1.6-2.3,2.1c-0.4,0.3-0.6,0.6-1,0.9c-0.5,0.5-1.5,0.8-1.9,1.4c-0.4,0.5-0.2,0.8,0.5,0.8 c1.3,0,3.2-0.9,4.4-1.4c1.7-0.8,3.5-1.6,5.4-1.7c1.6,0,3.2,0.3,4.6,0.9c1,0.4,2.2,1,3.2,1.2C255.1,353.9,253.9,353.1,253.5,352.8z"/></g><g><path fill="#bd6226" d="M225.2,357.7c0-2.9,0.4-5.6,1.4-8.4c1.5-4.1,3.3-7.5,2.4-11.9c-0.5-2.4-1.3-4.7-1.3-7.1 c0.1-1.6,0.3-3.3,0.1-5c-0.5-5-5.4-9-4.1-14c1.3-5.2,2-9.6-0.3-14.6c-1.4-3.1-3.2-6.1-4.8-9.1c-1.5-2.8-2.7-4.7-4.4-7.4l-1-1.8 c0,5.7,1.4,10.8,2.9,16.2c1.8,6.5,0.4,13.1,1.4,19.8c0.7,5.2,1.4,10.4,2.8,15.5c1.2,4.2,0.7,8.5,1.3,12.7c0.4,2.8,1.1,5.6,1.3,8.4 c0.1,2.4,0.2,4.8,0.6,7.3c0.2,1.5,1.3,11.1,4.3,9.8c1.8-0.7-0.3-3.8-1-4.7C225.4,361.6,225.2,360,225.2,357.7z"/></g><g><path fill="#884621" d="M206.6,265.1c1.3,0.8,2.2,3.7,3.3,4.9c1.2,1.3,2.1,2.4,2.9,4c1.7,3.3,4.4,9.8,5.6,13.3 c-0.2-1.5-4.3-6.9-5.2-8.2c-1.1-1.6-1.1-2.9-2.2-4.5C209.1,271.8,206.3,268.6,206.6,265.1"/></g><g><path fill="#aa5922" d="M190.1,338.2c-0.7-2-2.7-3.2-4.8-3.8c0.5,1.3,2.8,2.7,2,4.1c-0.6,1.1-2-0.3-2.9-0.5c0,1.3,1.7,2.9-0.6,3.1 c-1.2,0.1-2.9-0.6-4.3-0.6c-1.7,0-3.5-0.2-5.1,0c-1.6,0.2-3,1-4.6,1.5c-3.4,1.3-3.6,3.1-1.1,2c3.5-1.5,8.6-2.2,12.4-1.5 c1.1,0.2,3.5,1.3,3.8,2.5c0.4,1.3-0.3,0.6-0.7,1.2c-0.2,0.3-0.7,0.1-0.8,0.8c-0.1,0.5,0.6,0.5,0.6,0.8c0.1,0.9,0.6,0.7-0.3,1.6 c-0.5,0.5-1.6,0.8-2.2,1c-1.5,0.6-4,1-5,2.4c1.6,0.4,5-0.3,6.6-0.8c1.8-0.6,3.4-0.7,5.1-1.6C191.8,348.2,192.6,345.4,190.1,338.2z"/></g><g><path fill="#743803" d="M188.8,345.8c-0.9-0.7-0.4-1.9-3.2-2.9l-1.1-0.2c-0.1,0-0.2,0.1-0.1,0.2c1.9,1.3,3.2,4.6,2.4,5.9 c-0.6,1-2.2,1.4-3.2,1.8c-0.9,0.4-1.8,1-2.7,1.5c1.4,0.4,3.6-0.8,5-1.3c1.3-0.4,3.2-0.6,3.7-2 C190.2,347.6,189.9,346.6,188.8,345.8z"/></g><g><path fill="#743803" d="M189.1,340.5c1,0.2,1.5,1.8,1.9,2.6c0.3,0.5,0.5,1.9,0.4,2.5c0.2-0.5,0-1.7,0-2.3c0-0.5,0-1-0.2-1.5 C190.7,341,190,340.6,189.1,340.5"/></g><g><path fill="#bd6226" d="M136.4,345.8c-3.7-2.4-7.4-4.9-11.4-6.8c-3.2-1.6-6.7-3.7-10.2-4.1c-2.3-0.3-5.5,0.4-8.2,0.6 c-0.5,0.1-0.6,0.8-0.1,0.9c3,0.9,6.8,1.6,8.9,2.6c3.4,1.6,6.8,3.1,10.2,4.5c3.2,1.4,6.5,2.8,9.9,4.1 C136.6,348,137.4,346.4,136.4,345.8z"/></g><g><path fill="#743803" d="M180.3,341.9c-1.3,0-2.8-0.2-4,0.4c2.3-0.4,4.8,0,6.9,0.1c0.1,0,0.1-0.1,0-0.1 C182.2,342,181.1,341.9,180.3,341.9z"/></g><g><path fill="#743803" d="M183.6,337.8c-1.7-0.1-3.2,0.1-4.9,0.2c0,0,0,0.1,0,0.1c1.7,0.1,4.4,0.1,5.7,0.4c1.5,0.4,2.3,0.8,3.8,1.3 c0,0,0.1,0,0,0C188,338.6,184.5,337.8,183.6,337.8z"/></g><g><path fill="#743803" d="M79.3,298.4c1.1,2.9,0.5,6.9,0.5,10c0,1.8,0.1,3.3,0.6,5c0.4,1.1,0.9,3.2,2.1,3.7c0.1-0.5,0-1.1,0-1.6 c1.8,2.2,2.8,5,5.6,6.2c-0.1-0.4-0.3-0.8-0.5-1.2c1.8,2,3.9,3.5,6.1,5c1.4,1.1,4.1,2.4,4.8,4.1c0.2-0.6-0.6-1.9-0.9-2.4 c-0.7-1.6-1.4-3.1-2.1-4.7c-1.2-2.3-2.2-4.7-3.7-6.8c-2.8-4.2-6.3-7.9-9-12.1C82,302.4,80.9,298.7,79.3,298.4"/></g><g><path fill="#bd6226" d="M121.8,303.8c-0.2-0.1-0.3,0-0.4,0.2c-0.3,1.1-1.2,2.2-1.8,3.2c-1.1,2-2.4,3.8-3.7,5.6 c-1.9,2.7-3.8,5.2-6.2,7.3c-1.9,1.7-3.9,3.3-5.9,4.8c-1,0.7-2.7,1.8-0.6,2.4c1.5,0.4,3.1-0.8,4.4-1.4c1-0.5,2.3-0.5,3.2-1.1 c1.4-0.9,2.3-2.8,3.1-4.1c1.3-2.1,2.6-4.1,3.7-6.3c1.7-3.4,3.9-6.5,4.5-10.3C122,304,121.9,303.8,121.8,303.8L121.8,303.8z"/></g><g><path fill="#c45d24" d="M125.9,289.5c-2.8,2-6,5-9.8,4.9c-7.7-0.1-2.6-5.9-7-7.9c-1.5-0.7-7,3.4-10.1,2.4 c-4.1-1.3-5.1-4.8-6.1-8.6l1.8-3.7c0.5-7.7-14.3,5.7-15.4,11.2c-0.6,3.1,0,7.1,1.8,9.7c3.4,4.6,6.5,1.6,10.3,3.8 c4.2,2.4,3.5,5.2,9.1,6c3.3,0.5,7.4,0.2,10.5-0.6C117.8,305,127.1,297,125.9,289.5z"/></g><g><g><path fill="#743803" d="M101.9,367.6c0-5-2.1-8.3-5.8-11c3,2.7,1.7,11.1,1.7,14.5c0,6.4-2,12.2-3.9,18.2 c-1.6,4.8-2.6,10.6-2.9,15.7c-0.1,2-0.2,4.1,0.4,6c0.5,1.5,1.6,2.8,2,4.2c2.4-2.7,4.9-20.1,5.6-24.4c0.7-4.4,1.2-8.9,2.2-13.3 C102.1,374.3,101.9,371,101.9,367.6z"/></g><g><path fill="#743803" d="M96.2,356.6c-0.2-0.2-0.4-0.3-0.6-0.4C95.8,356.4,96,356.5,96.2,356.6z"/></g></g></g></svg>