<?xml version="1.0" encoding="UTF-8" standalone="no"?><svg xmlns="http://www.w3.org/2000/svg" xmlns:xlink="http://www.w3.org/1999/xlink" contentScriptType="text/ecmascript" fill="#000000" width="100" zoomAndPan="magnify" contentStyleType="text/css" viewBox="0.0 24.4 100.0 51.2" height="51.2" preserveAspectRatio="xMidYMid meet" version="1"><g><g id="change1_1"><path fill="#63503c" d="M 26.710938 66.148438 C 26.707031 66.210938 26.695312 66.269531 26.691406 66.332031 C 26.726562 66.265625 26.730469 66.207031 26.710938 66.148438"/></g><g id="change1_2"><path fill="#63503c" d="M 84.015625 44.078125 C 84.726562 44.464844 84.511719 45.769531 83.714844 45.90625 C 83.875 46.238281 84.03125 46.570312 84.191406 46.898438 C 84.078125 46.894531 83.914062 47.21875 83.730469 47.546875 C 84.101562 47.84375 84.695312 47.855469 85.054688 47.535156 C 85.601562 48.074219 86.511719 48.203125 87.1875 47.839844 C 87.46875 47.6875 87.707031 47.464844 87.941406 47.242188 C 88.453125 46.757812 88.960938 46.269531 89.472656 45.785156 C 89.546875 45.714844 89.621094 45.648438 89.710938 45.597656 C 89.664062 45.550781 89.621094 45.507812 89.574219 45.460938 C 89.359375 45.246094 89.140625 45.046875 88.914062 44.847656 C 87.871094 44.273438 85.109375 43.621094 84.015625 44.078125"/></g><g id="change1_3"><path fill="#63503c" d="M 90.429688 52.925781 C 90.179688 53.109375 90.023438 53.402344 89.777344 53.589844 C 89.40625 53.871094 88.839844 53.863281 88.476562 53.566406 C 88.449219 53.425781 88.417969 53.289062 88.390625 53.148438 C 87.632812 52.90625 86.832031 52.78125 86.035156 52.78125 C 85.222656 53.273438 84.277344 53.53125 83.328125 53.519531 C 83.164062 53.519531 82.988281 53.511719 82.847656 53.601562 C 82.375 53.910156 82.921875 54.808594 82.492188 55.175781 C 82.308594 55.335938 81.960938 55.382812 81.964844 55.625 C 81.964844 55.726562 82.039062 55.816406 82.101562 55.898438 C 82.386719 56.265625 82.5 56.765625 82.398438 57.222656 C 82.277344 57.210938 82.15625 57.203125 82.039062 57.195312 C 82.027344 57.003906 82.132812 56.8125 82.296875 56.71875 C 82.03125 56.472656 81.78125 56.199219 81.558594 55.910156 C 81.460938 55.78125 81.359375 55.628906 81.363281 55.464844 C 81.382812 54.972656 82.203125 54.910156 82.34375 54.441406 C 82.105469 54.304688 81.925781 54.070312 81.859375 53.808594 C 82.015625 53.636719 82.121094 53.421875 82.167969 53.195312 C 81.527344 52.929688 80.832031 52.800781 80.136719 52.816406 C 80.105469 52.425781 80.8125 52.402344 80.929688 52.03125 C 81.039062 51.695312 80.582031 51.449219 80.230469 51.46875 C 79.878906 51.488281 79.476562 51.601562 79.199219 51.382812 C 79.140625 51.113281 79.269531 50.808594 79.511719 50.667969 C 79.683594 50.894531 80.082031 50.894531 80.25 50.664062 C 80.097656 50.695312 79.996094 50.472656 80.070312 50.335938 C 80.144531 50.199219 80.304688 50.136719 80.449219 50.078125 C 80.59375 50.019531 80.75 49.9375 80.796875 49.789062 C 80.824219 49.703125 80.804688 49.609375 80.789062 49.519531 C 80.738281 49.226562 80.582031 48.855469 80.289062 48.890625 C 80.171875 48.90625 80.074219 48.984375 79.960938 49.011719 C 79.601562 49.09375 79.347656 48.640625 78.992188 48.546875 C 78.648438 48.457031 78.328125 48.71875 78.003906 48.859375 C 77.675781 49 77.15625 48.886719 77.1875 48.535156 C 77.214844 48.230469 77.605469 48.148438 77.871094 48.003906 C 78.234375 47.804688 78.425781 47.34375 78.316406 46.945312 C 78.207031 46.546875 77.804688 46.253906 77.390625 46.269531 C 77.078125 46.28125 76.679688 46.417969 76.503906 46.15625 C 76.820312 45.992188 77.1875 45.632812 76.964844 45.351562 C 76.859375 45.214844 76.664062 45.195312 76.492188 45.1875 C 76.148438 45.171875 75.804688 45.15625 75.464844 45.140625 C 75.027344 45.664062 74.5625 46.339844 74.8125 46.976562 C 75.007812 47.476562 75.628906 47.902344 75.429688 48.40625 C 75.253906 48.839844 74.640625 48.824219 74.179688 48.730469 C 74.59375 48.160156 74.605469 47.328125 74.210938 46.742188 C 74.125 47.140625 73.644531 47.285156 73.242188 47.339844 C 72.84375 47.390625 72.363281 47.480469 72.210938 47.855469 C 72.0625 47.835938 71.925781 47.769531 71.816406 47.667969 C 72.164062 47.488281 72.515625 47.3125 72.863281 47.132812 C 72.949219 47.089844 73.035156 47.046875 73.105469 46.980469 C 73.195312 46.890625 73.246094 46.773438 73.296875 46.65625 C 73.597656 45.929688 73.90625 45.207031 74.207031 44.480469 C 74.265625 44.347656 74.351562 44.195312 74.496094 44.195312 C 74.617188 44.199219 74.71875 44.316406 74.835938 44.300781 C 74.929688 44.285156 74.992188 44.191406 75.039062 44.109375 C 75.203125 43.820312 75.363281 43.527344 75.527344 43.238281 C 75.566406 43.167969 75.609375 43.089844 75.597656 43.011719 C 75.585938 42.929688 75.519531 42.785156 75.460938 42.625 C 74.21875 42.367188 72.992188 42.03125 71.796875 41.605469 C 70.996094 41.320312 70.144531 40.992188 69.316406 41.183594 C 68.390625 41.402344 67.6875 42.234375 66.75 42.410156 C 65.78125 42.59375 64.84375 42.039062 63.875 41.847656 C 61.421875 41.371094 59.15625 43.261719 56.683594 43.660156 C 56.117188 43.75 55.511719 43.769531 55.007812 44.050781 C 54.582031 44.289062 54.273438 44.695312 53.910156 45.027344 C 53.519531 45.390625 53.058594 45.667969 52.601562 45.945312 C 50.375 47.292969 48.148438 48.640625 45.921875 49.988281 C 45.496094 49.691406 45.648438 49.035156 45.539062 48.523438 C 45.394531 47.855469 44.769531 47.429688 44.296875 46.933594 C 43.824219 46.4375 43.5 45.597656 43.980469 45.113281 C 41.765625 45.683594 40.367188 48.378906 41.179688 50.519531 C 41.460938 50.25 41.738281 49.980469 42.019531 49.710938 C 42.699219 51.441406 43.6875 53.117188 45.210938 54.183594 C 46.085938 54.796875 47.117188 55.1875 48.179688 55.308594 C 48.339844 53.996094 49.476562 52.9375 50.753906 52.585938 C 52.03125 52.230469 53.40625 52.476562 54.644531 52.957031 C 54.890625 53.050781 55.152344 53.171875 55.261719 53.410156 C 55.375 53.644531 55.308594 53.917969 55.214844 54.15625 C 54.734375 55.378906 53.527344 56.355469 53.539062 57.671875 C 53.558594 59.316406 55.460938 60.34375 55.863281 61.9375 C 56.300781 63.664062 55.035156 65.988281 56.492188 67.011719 C 56.980469 67.355469 57.652344 67.398438 58.070312 67.824219 C 58.652344 68.40625 58.527344 69.496094 59.195312 69.972656 C 59.972656 70.53125 60.980469 69.796875 61.765625 69.246094 C 62.546875 68.699219 63.996094 68.570312 64.128906 69.519531 C 64.800781 69.800781 65.5625 68.8125 66.179688 68.90625 C 66.296875 68.710938 66.433594 68.519531 66.453125 68.296875 C 66.476562 68.023438 66.199219 67.714844 65.960938 67.84375 C 66.109375 67.222656 66.28125 66.609375 66.476562 66 C 66.335938 66.019531 66.191406 66.039062 66.050781 66.058594 C 66 65.828125 65.796875 65.644531 65.566406 65.609375 C 65.546875 65.183594 65.660156 64.753906 65.886719 64.394531 C 65.980469 63.960938 65.847656 63.484375 65.542969 63.164062 C 64.898438 62.988281 64.1875 63.074219 63.597656 63.394531 C 63.449219 63.476562 63.296875 63.574219 63.125 63.574219 C 62.988281 63.570312 62.863281 63.5 62.742188 63.433594 C 62.457031 63.273438 62.167969 63.113281 61.878906 62.949219 C 61.761719 62.882812 61.636719 62.8125 61.558594 62.699219 C 61.390625 62.445312 61.523438 62.105469 61.664062 61.835938 C 61.890625 61.390625 62.121094 60.945312 62.222656 60.457031 C 62.324219 59.96875 62.277344 59.425781 61.980469 59.027344 C 61.890625 58.90625 61.773438 58.777344 61.804688 58.632812 C 61.859375 58.363281 62.269531 58.429688 62.523438 58.320312 C 63 58.105469 62.886719 57.214844 63.394531 57.085938 C 63.664062 57.015625 63.941406 57.269531 63.972656 57.546875 C 64.003906 57.824219 63.847656 58.09375 63.640625 58.285156 C 63.554688 58.363281 63.457031 58.441406 63.433594 58.554688 C 63.375 58.867188 63.875 58.941406 64.050781 59.203125 C 64.207031 59.4375 64.054688 59.757812 63.84375 59.941406 C 63.636719 60.128906 63.371094 60.25 63.203125 60.476562 C 63.078125 60.648438 63.058594 60.953125 63.257812 61.035156 C 63.601562 61.175781 63.992188 60.472656 64.238281 60.75 C 64.097656 61.003906 64.457031 61.300781 64.734375 61.210938 C 65.011719 61.121094 65.160156 60.824219 65.242188 60.542969 C 65.324219 60.265625 65.378906 59.960938 65.578125 59.746094 C 65.972656 59.320312 66.828125 59.382812 67.003906 58.824219 C 67.0625 58.644531 67.019531 58.445312 66.976562 58.257812 C 66.90625 57.953125 66.832031 57.648438 66.761719 57.339844 C 66.714844 57.140625 66.667969 56.9375 66.574219 56.757812 C 66.414062 56.441406 66.136719 56.210938 65.917969 55.933594 C 65.699219 55.65625 65.542969 55.277344 65.6875 54.957031 C 65.15625 54.902344 64.609375 54.984375 64.117188 55.195312 C 64.175781 54.304688 64.449219 53.429688 64.90625 52.664062 C 64.964844 52.570312 65.03125 52.46875 65.140625 52.4375 C 65.398438 52.367188 65.539062 52.714844 65.648438 52.960938 C 65.792969 53.28125 66.085938 53.53125 66.425781 53.628906 C 66.621094 53.394531 66.972656 53.402344 67.273438 53.359375 C 68.117188 53.238281 68.835938 52.515625 68.953125 51.671875 C 68.710938 51.597656 68.503906 51.84375 68.351562 52.042969 C 68.203125 52.246094 67.925781 52.449219 67.726562 52.296875 C 67.703125 52.191406 67.675781 52.082031 67.648438 51.972656 C 67.523438 51.984375 67.402344 51.996094 67.277344 52.011719 C 67.183594 51.769531 67.015625 51.554688 66.796875 51.40625 C 67.371094 51.636719 68.101562 51.316406 68.316406 50.738281 C 68.324219 50.710938 69.320312 50.4375 69.433594 50.371094 C 69.804688 50.164062 70.148438 49.875 70.394531 49.527344 C 70.648438 49.179688 71.511719 47.910156 71.304688 49.191406 C 71.246094 49.550781 71.464844 49.933594 71.800781 50.074219 C 72.273438 50.265625 72.984375 50.082031 73.179688 50.550781 C 73.09375 50.855469 72.761719 51.007812 72.492188 51.167969 C 72.21875 51.328125 71.949219 51.636719 72.078125 51.925781 C 72.519531 51.804688 72.996094 51.804688 73.4375 51.929688 C 73.628906 51.980469 73.839844 52.09375 73.867188 52.289062 C 73.910156 52.601562 73.484375 52.734375 73.167969 52.746094 C 73.472656 52.871094 73.652344 53.25 73.546875 53.566406 C 73.21875 53.71875 72.878906 53.390625 72.65625 53.105469 C 72.433594 52.816406 72.066406 52.507812 71.753906 52.691406 C 71.757812 52.953125 71.507812 53.144531 71.261719 53.238281 C 71.019531 53.332031 70.746094 53.382812 70.558594 53.566406 C 70.371094 53.746094 70.355469 54.132812 70.601562 54.21875 C 70.703125 54.253906 70.8125 54.230469 70.914062 54.242188 C 71.160156 54.269531 71.363281 54.507812 71.351562 54.753906 C 71.335938 55 71.105469 55.214844 70.859375 55.210938 C 70.308594 55.199219 70.132812 54.355469 69.597656 54.21875 C 69.515625 55.011719 67.996094 54.886719 67.855469 55.671875 C 67.785156 56.0625 68.238281 56.433594 68.605469 56.292969 C 68.753906 56.234375 68.867188 56.121094 68.996094 56.027344 C 69.695312 55.527344 70.71875 55.808594 71.347656 56.394531 C 71.742188 56.757812 72.191406 57.265625 72.695312 57.085938 C 72.984375 56.976562 73.144531 56.664062 73.246094 56.371094 C 73.347656 56.078125 73.429688 55.757812 73.65625 55.546875 C 73.886719 55.335938 74.328125 55.324219 74.457031 55.605469 C 74.238281 55.902344 74.308594 56.371094 74.601562 56.589844 C 74.851562 56.777344 75.199219 56.777344 75.46875 56.933594 C 75.734375 57.09375 75.84375 57.578125 75.546875 57.667969 C 75.359375 57.726562 75.175781 57.570312 74.980469 57.550781 C 74.695312 57.519531 74.46875 57.777344 74.203125 57.886719 C 73.871094 58.019531 73.503906 57.917969 73.152344 57.882812 C 72.796875 57.847656 72.371094 57.929688 72.230469 58.257812 C 72.054688 58.671875 72.472656 59.085938 72.84375 59.347656 C 73.277344 59.652344 73.710938 59.957031 74.144531 60.261719 C 74.476562 60.492188 74.820312 60.738281 75 61.097656 C 75.136719 61.363281 75.175781 61.675781 75.351562 61.917969 C 75.503906 62.128906 75.75 62.269531 75.863281 62.503906 C 75.976562 62.738281 75.800781 63.117188 75.554688 63.03125 C 75.492188 63.011719 75.441406 62.960938 75.398438 62.910156 C 75.144531 62.617188 75.058594 62.222656 74.875 61.882812 C 74.6875 61.542969 74.300781 61.242188 73.941406 61.382812 C 74.292969 61.699219 74.273438 62.335938 73.90625 62.632812 C 74.308594 62.664062 74.714844 62.847656 74.929688 63.1875 C 75.144531 63.53125 75.105469 64.035156 74.789062 64.28125 C 74.546875 64.46875 74.21875 64.476562 73.917969 64.480469 C 73.566406 64.480469 73.21875 64.484375 72.867188 64.484375 C 73.105469 63.789062 73.179688 62.898438 72.609375 62.441406 C 72.382812 62.257812 72.078125 62.171875 71.871094 61.96875 C 71.792969 61.890625 71.730469 61.792969 71.636719 61.734375 C 71.539062 61.675781 71.417969 61.664062 71.300781 61.652344 C 70.800781 61.601562 70.296875 61.550781 69.792969 61.5 C 70.09375 61.199219 70.175781 60.714844 70.03125 60.316406 C 69.882812 59.917969 69.519531 59.613281 69.109375 59.503906 C 68.289062 59.28125 67.441406 59.792969 66.859375 60.410156 C 66.769531 60.5 66.683594 60.597656 66.640625 60.71875 C 66.582031 60.890625 66.613281 61.082031 66.675781 61.25 C 66.914062 61.933594 67.582031 62.445312 68.304688 62.503906 C 68.523438 62.519531 68.75 62.5 68.957031 62.570312 C 69.476562 62.753906 69.632812 63.421875 69.605469 63.976562 C 69.585938 64.382812 69.515625 64.785156 69.398438 65.175781 C 69.355469 65.316406 69.308594 65.472656 69.382812 65.601562 C 69.441406 65.699219 69.558594 65.746094 69.648438 65.820312 C 69.882812 66.011719 69.886719 66.417969 69.65625 66.613281 C 69.421875 66.808594 69.019531 66.730469 68.871094 66.46875 C 68.773438 66.285156 68.789062 66.066406 68.738281 65.863281 C 68.6875 65.664062 68.5 65.460938 68.304688 65.527344 C 68.476562 65.179688 68.613281 64.6875 68.296875 64.464844 C 68.074219 64.308594 67.746094 64.417969 67.550781 64.613281 C 67.359375 64.8125 67.25 65.074219 67.097656 65.304688 C 67.03125 65.398438 66.957031 65.496094 66.945312 65.613281 C 66.921875 65.917969 67.367188 66.214844 67.179688 66.457031 C 67.316406 66.453125 67.453125 66.449219 67.589844 66.445312 C 68.082031 66.675781 68.414062 67.210938 68.402344 67.753906 C 68.398438 67.804688 68.394531 67.855469 68.367188 67.898438 C 68.296875 68.007812 68.136719 67.988281 68.007812 67.984375 C 67.453125 67.976562 67.074219 68.539062 66.871094 69.058594 C 66.820312 69.1875 66.769531 69.324219 66.714844 69.460938 C 66.746094 69.535156 66.78125 69.613281 66.824219 69.683594 C 67.402344 70.65625 68.886719 70.101562 69.824219 69.472656 C 70.765625 68.847656 72.316406 68.394531 72.785156 69.425781 C 73.871094 68.640625 75.441406 68.875 76.554688 69.625 C 77.664062 70.371094 78.421875 71.53125 79.144531 72.65625 C 77.800781 73.226562 76.308594 72.222656 74.847656 72.246094 C 72.363281 72.285156 70.726562 75.175781 68.300781 75.566406 L 100 75.566406 C 100 75.566406 98.964844 68.050781 99.261719 64.941406 C 99.554688 61.832031 97.925781 62.722656 97.484375 61.535156 C 97.039062 60.351562 97.335938 59.183594 97.039062 58.730469 C 96.742188 58.28125 95.261719 60.054688 94.671875 57.984375 C 94.242188 56.480469 93.425781 53.738281 93.007812 52.339844 C 92.628906 52.46875 92.246094 52.574219 91.851562 52.617188 C 91.363281 52.667969 90.824219 52.632812 90.429688 52.925781"/></g><g id="change1_4"><path fill="#63503c" d="M 18.695312 67.167969 C 18.710938 67.199219 18.726562 67.226562 18.746094 67.257812 C 18.738281 67.21875 18.71875 67.191406 18.695312 67.167969"/></g><g id="change1_5"><path fill="#63503c" d="M 16.210938 67.386719 C 15.496094 67.609375 14.78125 67.832031 14.066406 68.058594 C 13.96875 67.957031 13.910156 67.839844 13.871094 67.710938 C 13.609375 67.679688 13.347656 67.609375 13.082031 67.589844 C 11.992188 67.5 11.019531 68.230469 10.167969 68.921875 C 9.964844 69.082031 9.753906 69.261719 9.675781 69.507812 C 10.285156 69.675781 10.886719 69.15625 11.523438 69.164062 C 12.066406 69.171875 12.570312 69.628906 12.628906 70.167969 C 12.691406 70.710938 12.300781 71.265625 11.769531 71.390625 C 11.453125 71.46875 11.117188 71.402344 10.792969 71.429688 C 10.46875 71.457031 10.109375 71.625 10.042969 71.945312 C 10.832031 72.15625 11.65625 72.25 12.472656 72.21875 C 12.734375 72.597656 12.128906 72.976562 11.671875 73.011719 C 11.21875 73.046875 10.582031 73.246094 10.6875 73.691406 C 10.257812 73.621094 9.792969 73.558594 9.398438 73.746094 C 9.003906 73.929688 8.75 74.472656 9.011719 74.820312 C 9.503906 74.695312 9.980469 74.5 10.417969 74.242188 C 10.890625 74.628906 11.351562 75.0625 11.6875 75.566406 L 15.824219 75.566406 C 15.800781 72.8125 17.054688 70.003906 16.210938 67.386719"/></g><g id="change1_6"><path fill="#63503c" d="M 76.078125 43.308594 C 76.125 43.515625 76.257812 43.6875 76.390625 43.851562 C 76.734375 44.285156 77.078125 44.71875 77.421875 45.148438 C 77.648438 45.4375 77.90625 45.742188 78.265625 45.820312 C 78.398438 45.847656 78.550781 45.851562 78.632812 45.957031 C 78.6875 46.027344 78.691406 46.125 78.738281 46.203125 C 78.890625 46.480469 79.304688 46.316406 79.617188 46.273438 C 79.996094 46.21875 80.363281 46.40625 80.734375 46.496094 C 81.105469 46.585938 81.582031 46.53125 81.742188 46.183594 C 81.796875 46.074219 81.820312 45.925781 81.929688 45.871094 C 82.042969 45.820312 82.171875 45.890625 82.273438 45.960938 C 82.492188 46.113281 82.714844 46.269531 82.914062 46.449219 C 83.191406 45.507812 83.023438 44.351562 82.253906 43.867188 C 82.242188 43.878906 82.230469 43.886719 82.21875 43.898438 C 81.957031 44.109375 81.75 44.382812 81.613281 44.6875 C 81.578125 44.769531 81.542969 44.859375 81.472656 44.921875 C 81.253906 45.117188 80.898438 44.882812 80.617188 44.972656 C 80.523438 45 80.449219 45.0625 80.367188 45.117188 C 80.082031 45.316406 79.738281 45.433594 79.390625 45.453125 C 79.316406 45.457031 79.238281 45.457031 79.171875 45.421875 C 79.082031 45.375 79.03125 45.273438 78.960938 45.199219 C 78.839844 45.070312 78.660156 45.015625 78.511719 44.914062 C 78.367188 44.8125 78.253906 44.609375 78.351562 44.460938 C 78.21875 44.457031 78.082031 44.449219 77.945312 44.441406 C 77.996094 44.285156 77.816406 44.15625 77.730469 44.011719 C 77.632812 43.839844 77.679688 43.621094 77.726562 43.429688 C 77.75 43.347656 77.769531 43.1875 77.800781 43.007812 C 77.234375 42.941406 76.671875 42.855469 76.113281 42.753906 C 76.082031 42.960938 76.042969 43.164062 76.078125 43.308594"/></g><g id="change1_7"><path fill="#63503c" d="M 66.050781 74.742188 C 65.75 74.242188 65.667969 73.507812 65.113281 73.332031 C 64.082031 73.011719 63.804688 75.011719 62.753906 75.25 C 62.074219 75.40625 61.496094 74.71875 61.273438 74.058594 C 61.050781 73.398438 60.976562 72.644531 60.488281 72.148438 C 60.109375 71.765625 59.554688 71.617188 59.027344 71.496094 C 57.652344 71.191406 56.207031 70.96875 54.851562 71.34375 C 53.496094 71.722656 52.257812 72.84375 52.15625 74.246094 C 53.046875 73.929688 53.933594 73.617188 54.824219 73.300781 C 54.589844 74.03125 54.484375 74.800781 54.507812 75.566406 L 67.390625 75.566406 C 66.84375 75.472656 66.332031 75.210938 66.050781 74.742188"/></g><g id="change2_1"><path fill="#caab86" d="M 30.5625 43.484375 C 30.585938 43.101562 30.609375 42.722656 30.632812 42.339844 C 30.648438 42.523438 30.328125 42.539062 30.242188 42.375 C 30.15625 42.210938 30.230469 42.015625 30.285156 41.839844 C 30.636719 40.710938 30.101562 39.367188 29.070312 38.789062 C 28.945312 38.960938 28.820312 39.136719 28.691406 39.308594 C 28.589844 38.304688 28.484375 37.300781 28.378906 36.296875 C 28.359375 36.46875 28.105469 36.519531 27.96875 36.414062 C 27.832031 36.3125 27.785156 36.128906 27.746094 35.960938 C 27.730469 36.488281 27.449219 37 27.011719 37.296875 C 27.144531 35.28125 26.804688 32.664062 26.21875 30.601562 C 26.0625 30.617188 26.101562 30.613281 25.949219 30.632812 C 25.835938 32.835938 25.726562 35.035156 25.617188 37.238281 C 25.609375 37.234375 25.605469 37.234375 25.601562 37.234375 C 25.714844 38.898438 25.894531 40.785156 25.996094 42.425781 C 26.085938 43.804688 26.171875 45.1875 26.09375 46.570312 C 25.898438 49.925781 24.71875 53.140625 23.550781 56.296875 C 23.386719 56.085938 23.167969 55.917969 22.917969 55.820312 C 22.714844 58.726562 22.511719 61.636719 22.304688 64.542969 C 22.933594 63.703125 23.332031 62.683594 23.410156 61.636719 C 23.46875 60.894531 23.40625 60.054688 23.90625 59.496094 C 23.777344 59.566406 23.636719 59.601562 23.496094 59.605469 C 23.242188 59.613281 23.128906 59.277344 23.34375 59.148438 C 23.566406 59.015625 23.832031 58.957031 24.085938 59.003906 C 24.25 57.601562 24.527344 56.019531 25.710938 55.253906 C 25.730469 55.316406 25.746094 55.375 25.753906 55.4375 C 25.882812 55.207031 26.003906 54.972656 26.105469 54.726562 C 26.511719 53.753906 26.558594 52.667969 26.832031 51.648438 C 27.191406 50.320312 27.921875 49.125 28.648438 47.957031 C 29.59375 46.429688 30.539062 44.902344 31.484375 43.371094 C 31.191406 43.484375 30.871094 43.523438 30.5625 43.484375"/></g><g id="change3_1"><path fill="#a08c6b" d="M 23.550781 56.296875 C 24.71875 53.140625 25.898438 49.925781 26.09375 46.570312 C 26.171875 45.1875 26.085938 43.804688 25.996094 42.425781 C 25.894531 40.785156 25.714844 38.898438 25.601562 37.234375 C 24.582031 37.023438 23.515625 37.039062 22.5 37.285156 C 20.945312 42.46875 19.394531 47.65625 17.839844 52.84375 C 17.753906 53.140625 17.636719 53.460938 17.476562 53.738281 C 17.113281 54.375 17.007812 55.125 17.113281 55.851562 C 17.179688 56.308594 17.125 56.78125 16.929688 57.203125 C 16.261719 56.667969 15.59375 56.136719 14.925781 55.601562 C 14.324219 57.472656 13.722656 59.347656 13.121094 61.21875 C 13.605469 60.820312 14.046875 60.363281 14.425781 59.859375 L 14.464844 62.871094 C 14.773438 62.78125 15.078125 62.691406 15.386719 62.601562 C 15.40625 61.925781 15.570312 61.253906 15.871094 60.648438 C 15.988281 61.34375 16.109375 62.039062 16.230469 62.734375 C 16.324219 63.28125 16.417969 63.839844 16.292969 64.378906 C 16.171875 64.894531 15.792969 65.386719 15.277344 65.492188 C 15.304688 65.644531 15.296875 65.800781 15.246094 65.957031 C 15.042969 66.589844 14.308594 67.035156 14.359375 67.699219 C 14.199219 67.730469 14.035156 67.730469 13.871094 67.710938 C 13.910156 67.839844 13.96875 67.957031 14.066406 68.058594 C 14.78125 67.832031 15.496094 67.609375 16.210938 67.386719 C 17.054688 70.003906 15.800781 72.8125 15.824219 75.566406 L 17.878906 75.566406 C 18.335938 74.964844 18.597656 74.136719 18.789062 73.382812 C 18.957031 72.71875 19.121094 72.058594 19.289062 71.394531 C 19.308594 71.316406 19.328125 71.238281 19.351562 71.160156 C 19.265625 70.984375 19.179688 70.796875 19.101562 70.582031 C 20.433594 69.652344 18.585938 68.628906 18.257812 67.726562 C 18.191406 67.546875 18.175781 67.332031 18.296875 67.1875 C 18.394531 67.074219 18.601562 67.070312 18.695312 67.167969 C 18.558594 66.917969 18.421875 66.664062 18.285156 66.410156 C 18.507812 66.09375 19.117188 66.257812 19.148438 66.644531 C 19.414062 66.328125 19.558594 65.917969 19.550781 65.503906 C 20.160156 66.195312 20.273438 67.28125 19.816406 68.082031 C 20.023438 68.160156 20.171875 68.371094 20.183594 68.59375 C 20.660156 68.46875 20.835938 67.878906 20.832031 67.382812 C 20.828125 66.886719 20.738281 66.347656 20.996094 65.925781 C 21.125 65.71875 21.324219 65.5625 21.511719 65.402344 C 21.808594 65.148438 22.070312 64.855469 22.304688 64.542969 C 22.511719 61.636719 22.714844 58.726562 22.917969 55.820312 C 23.167969 55.917969 23.386719 56.085938 23.550781 56.296875"/></g><g id="change1_8"><path fill="#63503c" d="M 11.449219 64.1875 C 11.546875 64.503906 12.015625 64.464844 12.300781 64.300781 C 12.589844 64.140625 12.933594 63.917969 13.21875 64.085938 C 13.234375 64.320312 13.253906 64.550781 13.269531 64.785156 C 13.425781 64.691406 13.585938 64.597656 13.742188 64.503906 C 14.402344 64.261719 15.160156 64.828125 15.277344 65.492188 C 15.792969 65.386719 16.171875 64.894531 16.292969 64.378906 C 16.417969 63.839844 16.324219 63.28125 16.230469 62.734375 C 16.109375 62.039062 15.988281 61.34375 15.871094 60.648438 C 15.570312 61.253906 15.40625 61.925781 15.386719 62.601562 C 15.078125 62.691406 14.773438 62.78125 14.464844 62.871094 C 14.453125 61.867188 14.441406 60.863281 14.425781 59.859375 C 14.046875 60.363281 13.605469 60.820312 13.121094 61.21875 C 13.046875 61.449219 12.976562 61.675781 12.902344 61.902344 C 11.597656 62.625 10.484375 63.679688 9.675781 64.933594 C 10.214844 64.425781 10.757812 63.917969 11.296875 63.410156 C 11.585938 63.449219 11.363281 63.910156 11.449219 64.1875"/></g><g id="change1_9"><path fill="#63503c" d="M 27.011719 37.296875 C 27.449219 37 27.730469 36.488281 27.746094 35.960938 C 27.785156 36.128906 27.832031 36.3125 27.96875 36.414062 C 28.105469 36.519531 28.359375 36.46875 28.378906 36.296875 C 28.484375 37.300781 28.589844 38.304688 28.691406 39.308594 C 28.820312 39.136719 28.945312 38.960938 29.070312 38.789062 C 30.101562 39.367188 30.636719 40.710938 30.285156 41.839844 C 30.230469 42.015625 30.15625 42.210938 30.242188 42.375 C 30.328125 42.539062 30.648438 42.523438 30.632812 42.339844 C 30.609375 42.722656 30.585938 43.101562 30.5625 43.484375 C 30.871094 43.523438 31.191406 43.484375 31.484375 43.371094 C 30.539062 44.902344 29.59375 46.429688 28.648438 47.957031 C 27.921875 49.125 27.191406 50.320312 26.832031 51.648438 C 26.558594 52.667969 26.511719 53.753906 26.105469 54.726562 C 26.003906 54.972656 25.882812 55.207031 25.753906 55.4375 C 25.820312 55.90625 25.519531 56.390625 25.289062 56.828125 C 24.480469 58.378906 24.511719 60.207031 24.25 61.933594 C 23.976562 63.773438 23.335938 65.554688 22.398438 67.164062 C 22.453125 67.195312 22.511719 67.207031 22.582031 67.195312 C 22.511719 67.207031 22.453125 67.195312 22.398438 67.164062 C 22.222656 67.464844 22.039062 67.765625 21.84375 68.054688 C 21.132812 69.09375 20.746094 69.523438 20.515625 70.667969 C 20.40625 71.210938 20.367188 71.714844 20.246094 72.199219 C 21.902344 73.09375 23.957031 69.609375 23.6875 67.292969 C 23.914062 67.605469 24.144531 67.914062 24.375 68.226562 C 24.558594 67.925781 24.742188 67.628906 24.925781 67.328125 C 24.796875 67.652344 25.128906 68.054688 25.472656 67.988281 C 25.8125 67.871094 25.890625 67.425781 25.863281 67.066406 C 25.835938 66.703125 25.78125 66.292969 26.023438 66.027344 C 26.21875 65.816406 26.636719 65.9375 26.710938 66.148438 C 26.839844 64.941406 27.058594 63.746094 27.363281 62.570312 C 27.546875 62.945312 27.730469 63.320312 27.914062 63.691406 C 28.230469 63.023438 28.546875 62.351562 28.867188 61.679688 C 28.722656 62.171875 29.261719 62.71875 29.757812 62.578125 C 30.25 62.4375 30.425781 61.691406 30.042969 61.347656 C 30.445312 61.515625 30.632812 62.050781 30.429688 62.433594 C 31.042969 62.332031 31.617188 62.007812 32.019531 61.535156 C 32.195312 61.820312 32.367188 62.105469 32.542969 62.394531 C 32.855469 62.335938 33.171875 62.28125 33.484375 62.222656 C 33.722656 62.652344 34.386719 62.757812 34.746094 62.421875 C 35.105469 62.085938 35.042969 61.414062 34.632812 61.148438 C 34.941406 60.753906 35.386719 60.472656 35.875 60.363281 C 35.949219 60.808594 36.511719 61.09375 36.914062 60.894531 C 36.929688 60.46875 36.945312 60.042969 36.960938 59.617188 C 37.570312 59.707031 38.179688 59.796875 38.789062 59.886719 C 39.132812 59.414062 39.488281 58.921875 39.582031 58.34375 C 39.671875 57.769531 39.410156 57.089844 38.855469 56.910156 C 39.691406 56.164062 40.03125 54.910156 39.679688 53.84375 C 39.15625 53.734375 38.59375 53.832031 38.140625 54.113281 C 38.519531 53.210938 38.984375 52.347656 39.53125 51.535156 C 39.15625 51.203125 38.675781 50.984375 38.179688 50.917969 C 38.976562 50.011719 39.308594 48.710938 39.039062 47.527344 C 37.371094 46.910156 36.234375 50.535156 34.621094 49.777344 C 34.390625 49.535156 34.628906 49.117188 34.933594 48.988281 C 35.242188 48.859375 35.597656 48.886719 35.90625 48.757812 C 36.59375 48.472656 36.761719 47.597656 37.085938 46.925781 C 37.40625 46.25 38.421875 45.71875 38.824219 46.347656 C 39.46875 45.773438 39.78125 44.847656 39.621094 44 C 40.484375 44.375 41.597656 44.023438 42.089844 43.222656 C 42.175781 43.085938 42.242188 42.9375 42.277344 42.78125 C 42.433594 42.042969 41.632812 41.289062 40.90625 41.488281 C 41.886719 40.769531 42.867188 40.050781 43.847656 39.332031 C 43.945312 39.703125 44.265625 40.007812 44.644531 40.082031 C 44.742188 39.398438 44.203125 38.78125 43.621094 38.40625 C 42.886719 37.929688 41.976562 37.65625 41.128906 37.878906 C 40.285156 38.101562 39.574219 38.921875 39.667969 39.789062 C 39.050781 39.179688 38.261719 38.742188 37.414062 38.542969 C 36.917969 37.167969 38.277344 35.503906 39.726562 35.714844 C 39.78125 35.332031 39.835938 34.949219 39.890625 34.5625 C 36.648438 33.6875 33.816406 31.386719 32.296875 28.390625 C 32.15625 27.785156 32.175781 27.148438 32.339844 26.546875 C 30.867188 26.015625 29.40625 25.46875 27.949219 24.898438 C 27.796875 25.082031 27.644531 25.265625 27.496094 25.449219 C 27.980469 25.925781 28.160156 26.6875 27.933594 27.328125 C 27.34375 28.363281 26.757812 29.394531 26.167969 30.425781 C 26.785156 32.519531 27.148438 35.222656 27.011719 37.296875"/></g><g id="change1_10"><path fill="#63503c" d="M 13.179688 65.355469 C 13.710938 65.289062 13.96875 66 13.910156 66.527344 C 13.867188 66.917969 13.773438 67.355469 13.871094 67.710938 C 14.035156 67.730469 14.199219 67.730469 14.359375 67.699219 C 14.308594 67.035156 15.042969 66.589844 15.246094 65.957031 C 15.296875 65.800781 15.304688 65.644531 15.277344 65.492188 C 15.257812 65.496094 15.238281 65.503906 15.21875 65.503906 C 14.554688 65.339844 13.863281 65.289062 13.179688 65.355469"/></g><g id="change4_1"><path fill="#5f9939" d="M 13.742188 64.503906 C 13.585938 64.597656 13.425781 64.691406 13.269531 64.785156 C 13.253906 64.550781 13.234375 64.320312 13.21875 64.085938 C 12.933594 63.917969 12.589844 64.140625 12.300781 64.300781 C 12.015625 64.464844 11.546875 64.503906 11.449219 64.1875 C 11.363281 63.910156 11.585938 63.449219 11.296875 63.410156 C 10.757812 63.917969 10.214844 64.425781 9.675781 64.929688 C 9.363281 65.414062 9.09375 65.921875 8.882812 66.457031 C 7.558594 65.449219 6.523438 64.070312 5.925781 62.519531 C 3.949219 66.867188 1.976562 71.214844 0 75.566406 L 11.6875 75.566406 C 11.351562 75.0625 10.890625 74.628906 10.417969 74.242188 C 9.980469 74.5 9.503906 74.695312 9.011719 74.820312 C 8.75 74.472656 9.003906 73.929688 9.398438 73.746094 C 9.792969 73.558594 10.257812 73.621094 10.6875 73.691406 C 10.582031 73.246094 11.21875 73.046875 11.671875 73.011719 C 12.128906 72.976562 12.734375 72.597656 12.472656 72.21875 C 11.65625 72.25 10.832031 72.15625 10.042969 71.945312 C 10.109375 71.625 10.46875 71.457031 10.792969 71.429688 C 11.117188 71.402344 11.453125 71.46875 11.769531 71.390625 C 12.300781 71.265625 12.691406 70.710938 12.628906 70.167969 C 12.570312 69.628906 12.066406 69.171875 11.523438 69.164062 C 10.886719 69.15625 10.285156 69.679688 9.675781 69.507812 C 9.753906 69.261719 9.964844 69.082031 10.167969 68.921875 C 11.019531 68.230469 11.992188 67.5 13.082031 67.589844 C 13.347656 67.609375 13.609375 67.679688 13.871094 67.710938 C 13.773438 67.355469 13.867188 66.917969 13.910156 66.527344 C 13.96875 66 13.710938 65.289062 13.179688 65.355469 C 13.863281 65.289062 14.554688 65.339844 15.21875 65.503906 C 15.238281 65.503906 15.257812 65.496094 15.277344 65.492188 C 15.160156 64.828125 14.402344 64.261719 13.742188 64.503906"/></g><g id="change4_2"><path fill="#5f9939" d="M 82.273438 45.960938 C 82.171875 45.890625 82.042969 45.820312 81.929688 45.871094 C 81.820312 45.925781 81.796875 46.074219 81.742188 46.183594 C 81.582031 46.53125 81.105469 46.585938 80.734375 46.496094 C 80.363281 46.40625 79.996094 46.21875 79.617188 46.273438 C 79.304688 46.316406 78.890625 46.480469 78.738281 46.203125 C 78.691406 46.125 78.6875 46.027344 78.632812 45.957031 C 78.550781 45.851562 78.398438 45.847656 78.265625 45.820312 C 77.90625 45.742188 77.648438 45.4375 77.421875 45.148438 C 77.078125 44.71875 76.734375 44.285156 76.390625 43.851562 C 76.257812 43.6875 76.125 43.515625 76.078125 43.308594 C 76.042969 43.164062 76.082031 42.960938 76.113281 42.753906 C 76.671875 42.855469 77.234375 42.941406 77.800781 43.007812 C 77.769531 43.1875 77.75 43.347656 77.726562 43.429688 C 77.679688 43.621094 77.632812 43.839844 77.730469 44.011719 C 77.816406 44.15625 77.996094 44.285156 77.945312 44.441406 C 78.082031 44.449219 78.21875 44.457031 78.351562 44.460938 C 78.253906 44.609375 78.367188 44.8125 78.511719 44.914062 C 78.660156 45.015625 78.839844 45.070312 78.960938 45.199219 C 79.03125 45.273438 79.082031 45.375 79.171875 45.421875 C 79.238281 45.457031 79.316406 45.457031 79.390625 45.453125 C 79.738281 45.433594 80.082031 45.316406 80.367188 45.117188 C 80.449219 45.0625 80.523438 45 80.617188 44.972656 C 80.898438 44.882812 81.253906 45.117188 81.472656 44.921875 C 81.542969 44.859375 81.578125 44.769531 81.613281 44.6875 C 81.75 44.382812 81.957031 44.109375 82.21875 43.898438 C 82.230469 43.886719 82.242188 43.878906 82.253906 43.867188 C 83.023438 44.351562 83.191406 45.507812 82.914062 46.449219 C 82.714844 46.269531 82.492188 46.113281 82.273438 45.960938 Z M 92.746094 51.46875 C 92.746094 51.46875 92.90625 48.851562 89.710938 45.597656 C 89.621094 45.648438 89.546875 45.714844 89.472656 45.785156 C 88.960938 46.269531 88.453125 46.757812 87.941406 47.242188 C 87.707031 47.464844 87.46875 47.6875 87.1875 47.839844 C 86.511719 48.203125 85.601562 48.074219 85.054688 47.535156 C 84.695312 47.855469 84.101562 47.84375 83.730469 47.546875 C 83.914062 47.21875 84.078125 46.894531 84.191406 46.898438 C 84.03125 46.570312 83.875 46.238281 83.714844 45.90625 C 84.511719 45.769531 84.726562 44.464844 84.015625 44.078125 C 85.109375 43.621094 87.871094 44.273438 88.914062 44.847656 C 83.914062 40.425781 76.46875 39.464844 69.808594 38.527344 C 68.011719 38.273438 66.148438 38.097656 64.546875 37.238281 C 63.59375 36.726562 62.777344 35.996094 61.875 35.402344 C 61.054688 34.863281 60.175781 34.445312 59.257812 34.101562 C 59.253906 34.09375 59.242188 34.089844 59.238281 34.082031 C 58.535156 33.535156 57.734375 33.109375 56.886719 32.835938 C 56.867188 32.640625 56.84375 32.449219 56.824219 32.253906 C 56.6875 32.660156 55.964844 32.613281 55.878906 32.195312 C 54.605469 32.023438 53.363281 31.652344 52.207031 31.09375 C 52.082031 31.171875 51.953125 31.246094 51.828125 31.324219 C 51.210938 31.136719 50.59375 30.949219 49.976562 30.761719 C 49.917969 30.742188 49.847656 30.695312 49.8125 30.644531 C 49.765625 30.804688 49.585938 30.929688 49.417969 30.882812 C 49.375 30.664062 49.265625 30.460938 49.113281 30.300781 C 48.890625 30.378906 48.664062 30.457031 48.4375 30.53125 C 48.5 29.988281 47.859375 29.660156 47.324219 29.523438 C 46.792969 29.386719 46.140625 29.15625 46.085938 28.609375 C 45.757812 28.859375 45.425781 29.109375 45.097656 29.355469 C 44.882812 29.117188 44.667969 28.878906 44.453125 28.636719 C 44.160156 28.75 43.871094 28.863281 43.578125 28.976562 C 43.40625 28.714844 43.230469 28.449219 43.054688 28.183594 C 42.910156 28.285156 42.679688 28.179688 42.632812 28.015625 C 42.625 28.179688 42.457031 28.335938 42.289062 28.304688 C 42.070312 27.898438 41.972656 27.425781 42.011719 26.96875 C 41.90625 27.175781 41.796875 27.386719 41.691406 27.597656 C 41.550781 27.511719 41.445312 27.375 41.402344 27.214844 C 41.339844 27.40625 41.277344 27.59375 41.21875 27.78125 C 41.03125 27.761719 40.839844 27.742188 40.652344 27.722656 C 40.566406 27.890625 40.480469 28.058594 40.394531 28.226562 C 40.183594 27.835938 39.917969 27.472656 39.601562 27.160156 C 39.402344 27.339844 39.027344 27.054688 39.148438 26.816406 C 38.90625 27.082031 38.453125 27.050781 38.15625 26.84375 C 37.859375 26.636719 37.679688 26.300781 37.511719 25.980469 C 37.34375 26.210938 37.179688 26.4375 37.011719 26.664062 C 36.554688 25.964844 35.953125 25.363281 35.253906 24.90625 C 35.03125 25.039062 34.808594 25.171875 34.589844 25.300781 C 34.273438 24.953125 33.910156 24.644531 33.511719 24.394531 C 33.378906 24.863281 33.105469 25.292969 32.734375 25.609375 C 32.46875 25.460938 32.226562 25.269531 32.023438 25.039062 C 31.695312 25.84375 31.820312 26.589844 32.222656 27.261719 C 32.191406 27.640625 32.210938 28.019531 32.296875 28.390625 C 33.816406 31.386719 36.648438 33.6875 39.890625 34.5625 C 39.835938 34.949219 39.78125 35.332031 39.726562 35.714844 C 38.277344 35.503906 36.917969 37.167969 37.414062 38.542969 C 38.261719 38.742188 39.050781 39.179688 39.667969 39.789062 C 39.574219 38.921875 40.285156 38.101562 41.128906 37.878906 C 41.976562 37.65625 42.886719 37.929688 43.621094 38.40625 C 44.203125 38.78125 44.742188 39.398438 44.644531 40.082031 C 44.265625 40.007812 43.945312 39.703125 43.847656 39.332031 C 42.867188 40.050781 41.886719 40.769531 40.90625 41.488281 C 41.632812 41.289062 42.433594 42.042969 42.277344 42.78125 C 42.242188 42.9375 42.175781 43.085938 42.089844 43.222656 C 41.597656 44.023438 40.484375 44.375 39.621094 44 C 39.78125 44.847656 39.46875 45.773438 38.824219 46.347656 C 38.421875 45.71875 37.40625 46.25 37.085938 46.925781 C 36.761719 47.597656 36.597656 48.46875 35.90625 48.757812 C 35.597656 48.886719 35.242188 48.859375 34.933594 48.988281 C 34.628906 49.117188 34.390625 49.535156 34.621094 49.777344 C 36.234375 50.535156 37.371094 46.910156 39.039062 47.527344 C 39.308594 48.710938 38.976562 50.011719 38.179688 50.917969 C 38.675781 50.984375 39.15625 51.203125 39.53125 51.535156 C 38.984375 52.347656 38.519531 53.210938 38.140625 54.113281 C 38.59375 53.832031 39.15625 53.734375 39.679688 53.84375 C 40.03125 54.910156 39.691406 56.164062 38.855469 56.910156 C 39.410156 57.089844 39.671875 57.769531 39.582031 58.34375 C 39.488281 58.921875 39.132812 59.414062 38.789062 59.886719 C 38.179688 59.796875 37.570312 59.707031 36.960938 59.617188 C 36.945312 60.042969 36.929688 60.46875 36.914062 60.894531 C 36.511719 61.09375 35.949219 60.808594 35.875 60.363281 C 35.386719 60.472656 34.941406 60.753906 34.632812 61.148438 C 35.042969 61.414062 35.105469 62.085938 34.746094 62.421875 C 34.386719 62.757812 33.722656 62.652344 33.484375 62.222656 C 33.171875 62.28125 32.855469 62.335938 32.542969 62.394531 C 32.367188 62.105469 32.195312 61.820312 32.019531 61.535156 C 31.617188 62.007812 31.042969 62.332031 30.429688 62.433594 C 30.632812 62.050781 30.445312 61.515625 30.042969 61.347656 C 30.425781 61.691406 30.25 62.4375 29.757812 62.578125 C 29.261719 62.71875 28.722656 62.171875 28.867188 61.679688 C 28.546875 62.351562 28.230469 63.023438 27.914062 63.691406 C 27.730469 63.320312 27.546875 62.945312 27.363281 62.570312 C 27.058594 63.746094 26.839844 64.941406 26.710938 66.148438 C 26.730469 66.207031 26.726562 66.265625 26.691406 66.332031 C 26.695312 66.269531 26.707031 66.210938 26.710938 66.148438 C 26.636719 65.9375 26.21875 65.816406 26.023438 66.027344 C 25.78125 66.292969 25.835938 66.703125 25.863281 67.066406 C 25.890625 67.425781 25.8125 67.871094 25.472656 67.988281 C 25.128906 68.054688 24.796875 67.652344 24.925781 67.328125 C 24.742188 67.628906 24.558594 67.925781 24.375 68.226562 C 24.144531 67.914062 23.914062 67.605469 23.6875 67.292969 C 23.957031 69.609375 21.902344 73.09375 20.246094 72.199219 C 20.367188 71.714844 20.40625 71.210938 20.515625 70.667969 C 20.746094 69.523438 21.132812 69.09375 21.84375 68.054688 C 22.039062 67.765625 22.222656 67.464844 22.398438 67.164062 C 23.335938 65.554688 23.976562 63.773438 24.253906 61.933594 C 24.511719 60.207031 24.480469 58.378906 25.289062 56.828125 C 25.519531 56.390625 25.820312 55.90625 25.753906 55.4375 C 25.746094 55.375 25.730469 55.316406 25.710938 55.253906 C 24.527344 56.019531 24.25 57.601562 24.085938 59.003906 C 23.671875 58.925781 23.21875 59.128906 23 59.484375 C 23.273438 59.640625 23.628906 59.644531 23.90625 59.496094 C 23.40625 60.054688 23.46875 60.890625 23.410156 61.636719 C 23.332031 62.683594 22.933594 63.703125 22.304688 64.542969 C 22.070312 64.855469 21.808594 65.148438 21.511719 65.402344 C 21.324219 65.5625 21.125 65.71875 20.996094 65.925781 C 20.738281 66.347656 20.828125 66.886719 20.832031 67.382812 C 20.835938 67.878906 20.660156 68.46875 20.183594 68.59375 C 20.171875 68.371094 20.023438 68.160156 19.816406 68.082031 C 20.273438 67.28125 20.160156 66.195312 19.550781 65.503906 C 19.558594 65.917969 19.414062 66.328125 19.148438 66.644531 C 19.117188 66.257812 18.507812 66.09375 18.285156 66.410156 C 18.421875 66.664062 18.558594 66.917969 18.695312 67.167969 C 18.601562 67.070312 18.394531 67.074219 18.296875 67.1875 C 18.175781 67.332031 18.191406 67.546875 18.257812 67.726562 C 18.585938 68.628906 20.433594 69.652344 19.101562 70.582031 C 19.179688 70.796875 19.265625 70.984375 19.351562 71.160156 C 19.328125 71.238281 19.308594 71.316406 19.289062 71.394531 C 19.121094 72.058594 18.957031 72.71875 18.789062 73.382812 C 18.597656 74.136719 18.335938 74.964844 17.878906 75.566406 L 54.507812 75.566406 C 54.484375 74.800781 54.589844 74.03125 54.824219 73.300781 C 53.933594 73.617188 53.046875 73.929688 52.15625 74.246094 C 52.257812 72.84375 53.496094 71.722656 54.851562 71.34375 C 56.207031 70.96875 57.652344 71.191406 59.027344 71.496094 C 59.554688 71.617188 60.109375 71.765625 60.488281 72.148438 C 60.976562 72.644531 61.050781 73.398438 61.273438 74.058594 C 61.496094 74.71875 62.074219 75.40625 62.753906 75.25 C 63.804688 75.011719 64.082031 73.011719 65.113281 73.332031 C 65.667969 73.507812 65.75 74.242188 66.050781 74.742188 C 66.332031 75.210938 66.84375 75.472656 67.390625 75.566406 L 68.300781 75.566406 C 70.726562 75.175781 72.363281 72.285156 74.847656 72.246094 C 76.308594 72.222656 77.800781 73.226562 79.144531 72.65625 C 78.421875 71.53125 77.664062 70.371094 76.554688 69.625 C 75.441406 68.875 73.871094 68.640625 72.785156 69.425781 C 72.316406 68.394531 70.765625 68.847656 69.824219 69.472656 C 68.886719 70.101562 67.402344 70.65625 66.824219 69.683594 C 66.78125 69.613281 66.746094 69.535156 66.714844 69.460938 C 66.769531 69.324219 66.820312 69.1875 66.871094 69.058594 C 67.074219 68.539062 67.453125 67.976562 68.007812 67.984375 C 68.136719 67.988281 68.296875 68.007812 68.367188 67.898438 C 68.394531 67.855469 68.398438 67.804688 68.402344 67.753906 C 68.410156 67.210938 68.082031 66.675781 67.589844 66.445312 C 67.453125 66.449219 67.316406 66.453125 67.179688 66.457031 C 67.367188 66.214844 66.921875 65.917969 66.945312 65.613281 C 66.957031 65.496094 67.03125 65.398438 67.097656 65.304688 C 67.25 65.074219 67.359375 64.8125 67.550781 64.613281 C 67.746094 64.417969 68.074219 64.308594 68.296875 64.464844 C 68.613281 64.6875 68.476562 65.179688 68.304688 65.527344 C 68.5 65.460938 68.6875 65.664062 68.738281 65.863281 C 68.789062 66.066406 68.773438 66.285156 68.871094 66.46875 C 69.019531 66.730469 69.421875 66.808594 69.65625 66.613281 C 69.886719 66.417969 69.882812 66.011719 69.648438 65.820312 C 69.558594 65.746094 69.441406 65.699219 69.382812 65.601562 C 69.308594 65.472656 69.355469 65.316406 69.398438 65.175781 C 69.515625 64.785156 69.585938 64.382812 69.605469 63.976562 C 69.632812 63.421875 69.476562 62.753906 68.957031 62.570312 C 68.75 62.5 68.523438 62.519531 68.304688 62.503906 C 67.582031 62.445312 66.914062 61.933594 66.675781 61.25 C 66.613281 61.082031 66.582031 60.890625 66.640625 60.71875 C 66.683594 60.597656 66.769531 60.5 66.859375 60.410156 C 67.441406 59.792969 68.289062 59.28125 69.109375 59.503906 C 69.519531 59.613281 69.882812 59.917969 70.03125 60.316406 C 70.175781 60.714844 70.09375 61.199219 69.792969 61.5 C 70.296875 61.550781 70.800781 61.601562 71.300781 61.652344 C 71.417969 61.664062 71.539062 61.675781 71.636719 61.734375 C 71.730469 61.792969 71.792969 61.890625 71.871094 61.96875 C 72.078125 62.175781 72.382812 62.257812 72.609375 62.441406 C 73.179688 62.898438 73.105469 63.789062 72.867188 64.484375 C 73.21875 64.484375 73.566406 64.480469 73.917969 64.480469 C 74.21875 64.476562 74.546875 64.46875 74.789062 64.28125 C 75.105469 64.035156 75.144531 63.53125 74.929688 63.1875 C 74.714844 62.847656 74.308594 62.664062 73.90625 62.632812 C 74.273438 62.335938 74.292969 61.699219 73.941406 61.382812 C 74.300781 61.242188 74.6875 61.542969 74.875 61.882812 C 75.058594 62.21875 75.144531 62.617188 75.398438 62.910156 C 75.441406 62.960938 75.492188 63.011719 75.554688 63.03125 C 75.800781 63.117188 75.976562 62.738281 75.863281 62.503906 C 75.75 62.269531 75.503906 62.128906 75.351562 61.917969 C 75.175781 61.675781 75.136719 61.363281 75 61.097656 C 74.816406 60.738281 74.476562 60.492188 74.144531 60.261719 C 73.710938 59.957031 73.277344 59.652344 72.84375 59.347656 C 72.472656 59.085938 72.054688 58.671875 72.230469 58.257812 C 72.371094 57.929688 72.796875 57.847656 73.152344 57.882812 C 73.503906 57.917969 73.871094 58.019531 74.203125 57.886719 C 74.46875 57.777344 74.695312 57.519531 74.980469 57.550781 C 75.175781 57.570312 75.359375 57.726562 75.546875 57.667969 C 75.84375 57.578125 75.734375 57.09375 75.46875 56.933594 C 75.199219 56.777344 74.851562 56.777344 74.601562 56.589844 C 74.308594 56.367188 74.238281 55.902344 74.457031 55.605469 C 74.328125 55.324219 73.886719 55.335938 73.65625 55.546875 C 73.429688 55.757812 73.347656 56.078125 73.246094 56.371094 C 73.144531 56.664062 72.984375 56.976562 72.695312 57.085938 C 72.191406 57.265625 71.742188 56.757812 71.347656 56.394531 C 70.71875 55.808594 69.695312 55.527344 68.996094 56.027344 C 68.867188 56.121094 68.753906 56.234375 68.605469 56.292969 C 68.238281 56.433594 67.785156 56.0625 67.855469 55.671875 C 67.996094 54.886719 69.515625 55.011719 69.597656 54.21875 C 70.132812 54.355469 70.308594 55.199219 70.859375 55.210938 C 71.105469 55.214844 71.335938 55 71.351562 54.753906 C 71.363281 54.507812 71.160156 54.269531 70.914062 54.242188 C 70.8125 54.230469 70.703125 54.253906 70.601562 54.21875 C 70.355469 54.132812 70.371094 53.746094 70.558594 53.566406 C 70.746094 53.382812 71.019531 53.332031 71.261719 53.238281 C 71.507812 53.144531 71.757812 52.953125 71.753906 52.691406 C 72.066406 52.507812 72.433594 52.816406 72.65625 53.105469 C 72.878906 53.390625 73.21875 53.71875 73.546875 53.566406 C 73.652344 53.25 73.472656 52.871094 73.167969 52.746094 C 73.484375 52.734375 73.910156 52.601562 73.867188 52.289062 C 73.839844 52.09375 73.628906 51.980469 73.4375 51.929688 C 72.996094 51.804688 72.519531 51.804688 72.078125 51.925781 C 71.949219 51.636719 72.21875 51.328125 72.492188 51.167969 C 72.761719 51.007812 73.09375 50.855469 73.179688 50.550781 C 72.984375 50.082031 72.273438 50.265625 71.800781 50.074219 C 71.464844 49.933594 71.246094 49.550781 71.304688 49.191406 C 71.511719 47.910156 70.648438 49.179688 70.394531 49.527344 C 70.148438 49.875 69.804688 50.164062 69.433594 50.371094 C 69.320312 50.4375 68.324219 50.710938 68.316406 50.738281 C 68.101562 51.316406 67.371094 51.636719 66.796875 51.40625 C 67.015625 51.554688 67.183594 51.769531 67.277344 52.011719 C 67.402344 51.996094 67.523438 51.984375 67.648438 51.972656 C 67.675781 52.082031 67.703125 52.191406 67.726562 52.296875 C 67.925781 52.449219 68.203125 52.246094 68.351562 52.042969 C 68.503906 51.84375 68.710938 51.597656 68.953125 51.671875 C 68.835938 52.515625 68.117188 53.238281 67.273438 53.359375 C 66.972656 53.402344 66.621094 53.394531 66.425781 53.628906 C 66.085938 53.53125 65.792969 53.28125 65.648438 52.960938 C 65.539062 52.714844 65.398438 52.367188 65.140625 52.4375 C 65.03125 52.46875 64.964844 52.570312 64.90625 52.664062 C 64.445312 53.429688 64.175781 54.304688 64.117188 55.195312 C 64.609375 54.984375 65.15625 54.902344 65.6875 54.957031 C 65.542969 55.277344 65.699219 55.65625 65.917969 55.933594 C 66.136719 56.210938 66.414062 56.441406 66.574219 56.757812 C 66.667969 56.9375 66.714844 57.140625 66.761719 57.339844 C 66.832031 57.648438 66.90625 57.953125 66.976562 58.257812 C 67.019531 58.445312 67.0625 58.644531 67.003906 58.824219 C 66.828125 59.382812 65.972656 59.320312 65.578125 59.746094 C 65.378906 59.960938 65.324219 60.265625 65.242188 60.542969 C 65.160156 60.824219 65.011719 61.121094 64.734375 61.210938 C 64.457031 61.300781 64.097656 61.003906 64.238281 60.75 C 63.992188 60.472656 63.601562 61.175781 63.257812 61.035156 C 63.058594 60.953125 63.078125 60.648438 63.203125 60.476562 C 63.371094 60.25 63.636719 60.128906 63.84375 59.941406 C 64.054688 59.757812 64.207031 59.4375 64.050781 59.207031 C 63.875 58.941406 63.375 58.867188 63.433594 58.554688 C 63.457031 58.441406 63.554688 58.363281 63.640625 58.285156 C 63.847656 58.09375 64.003906 57.824219 63.972656 57.546875 C 63.941406 57.269531 63.664062 57.015625 63.394531 57.085938 C 62.886719 57.214844 63 58.105469 62.523438 58.316406 C 62.269531 58.429688 61.859375 58.363281 61.804688 58.632812 C 61.773438 58.777344 61.890625 58.90625 61.980469 59.027344 C 62.277344 59.425781 62.324219 59.96875 62.222656 60.457031 C 62.121094 60.945312 61.890625 61.390625 61.664062 61.835938 C 61.523438 62.105469 61.390625 62.445312 61.558594 62.699219 C 61.636719 62.8125 61.761719 62.882812 61.878906 62.949219 C 62.167969 63.113281 62.457031 63.273438 62.742188 63.433594 C 62.863281 63.5 62.988281 63.570312 63.125 63.574219 C 63.296875 63.574219 63.449219 63.476562 63.597656 63.394531 C 64.1875 63.074219 64.898438 62.988281 65.542969 63.164062 C 65.847656 63.484375 65.980469 63.960938 65.886719 64.394531 C 65.660156 64.753906 65.546875 65.183594 65.566406 65.609375 C 65.796875 65.644531 66 65.828125 66.050781 66.058594 C 66.191406 66.039062 66.335938 66.019531 66.476562 66 C 66.28125 66.609375 66.109375 67.222656 65.960938 67.84375 C 66.199219 67.714844 66.476562 68.023438 66.453125 68.296875 C 66.433594 68.519531 66.296875 68.710938 66.179688 68.90625 C 65.5625 68.8125 64.800781 69.800781 64.128906 69.519531 C 63.996094 68.570312 62.546875 68.699219 61.765625 69.246094 C 60.980469 69.796875 59.972656 70.53125 59.195312 69.972656 C 58.527344 69.496094 58.652344 68.40625 58.070312 67.824219 C 57.652344 67.398438 56.980469 67.355469 56.492188 67.011719 C 55.035156 65.988281 56.300781 63.664062 55.863281 61.9375 C 55.460938 60.34375 53.558594 59.316406 53.539062 57.671875 C 53.527344 56.355469 54.734375 55.378906 55.214844 54.15625 C 55.308594 53.917969 55.375 53.644531 55.261719 53.410156 C 55.152344 53.171875 54.890625 53.050781 54.644531 52.957031 C 53.40625 52.476562 52.03125 52.230469 50.753906 52.585938 C 49.476562 52.9375 48.339844 53.996094 48.179688 55.308594 C 47.117188 55.1875 46.085938 54.796875 45.210938 54.183594 C 43.6875 53.117188 42.699219 51.441406 42.019531 49.710938 C 41.738281 49.980469 41.460938 50.25 41.179688 50.519531 C 40.367188 48.378906 41.765625 45.683594 43.980469 45.113281 C 43.5 45.597656 43.824219 46.4375 44.296875 46.933594 C 44.769531 47.429688 45.394531 47.855469 45.539062 48.523438 C 45.648438 49.035156 45.496094 49.691406 45.921875 49.988281 C 48.148438 48.640625 50.375 47.292969 52.601562 45.945312 C 53.058594 45.667969 53.519531 45.390625 53.910156 45.027344 C 54.273438 44.695312 54.582031 44.289062 55.007812 44.050781 C 55.511719 43.769531 56.117188 43.75 56.683594 43.660156 C 59.15625 43.261719 61.421875 41.371094 63.875 41.847656 C 64.84375 42.039062 65.78125 42.59375 66.75 42.410156 C 67.6875 42.234375 68.390625 41.402344 69.316406 41.183594 C 70.148438 40.992188 70.996094 41.320312 71.796875 41.605469 C 72.992188 42.03125 74.21875 42.371094 75.460938 42.625 C 75.519531 42.785156 75.585938 42.929688 75.597656 43.011719 C 75.609375 43.089844 75.566406 43.167969 75.527344 43.238281 C 75.363281 43.527344 75.203125 43.820312 75.039062 44.109375 C 74.992188 44.191406 74.929688 44.285156 74.835938 44.300781 C 74.71875 44.316406 74.617188 44.199219 74.496094 44.195312 C 74.351562 44.195312 74.265625 44.347656 74.207031 44.480469 C 73.90625 45.207031 73.597656 45.929688 73.296875 46.65625 C 73.246094 46.773438 73.195312 46.890625 73.105469 46.980469 C 73.035156 47.046875 72.949219 47.089844 72.863281 47.132812 C 72.515625 47.3125 72.164062 47.488281 71.816406 47.667969 C 71.925781 47.769531 72.0625 47.835938 72.210938 47.855469 C 72.363281 47.480469 72.84375 47.390625 73.242188 47.339844 C 73.644531 47.285156 74.125 47.140625 74.210938 46.742188 C 74.605469 47.328125 74.59375 48.160156 74.179688 48.730469 C 74.640625 48.824219 75.253906 48.839844 75.429688 48.40625 C 75.628906 47.902344 75.007812 47.476562 74.8125 46.976562 C 74.5625 46.339844 75.027344 45.664062 75.464844 45.140625 C 75.804688 45.15625 76.148438 45.171875 76.492188 45.1875 C 76.664062 45.195312 76.859375 45.214844 76.964844 45.351562 C 77.1875 45.628906 76.820312 45.992188 76.503906 46.15625 C 76.679688 46.417969 77.078125 46.28125 77.390625 46.269531 C 77.804688 46.253906 78.207031 46.546875 78.316406 46.945312 C 78.425781 47.34375 78.234375 47.804688 77.871094 48.003906 C 77.605469 48.148438 77.214844 48.230469 77.1875 48.535156 C 77.15625 48.886719 77.675781 49 78.003906 48.859375 C 78.328125 48.71875 78.648438 48.457031 78.992188 48.546875 C 79.347656 48.640625 79.601562 49.09375 79.960938 49.011719 C 80.074219 48.984375 80.171875 48.90625 80.289062 48.890625 C 80.582031 48.855469 80.738281 49.226562 80.789062 49.519531 C 80.804688 49.609375 80.824219 49.703125 80.796875 49.789062 C 80.75 49.9375 80.59375 50.019531 80.449219 50.078125 C 80.304688 50.136719 80.144531 50.199219 80.070312 50.335938 C 79.996094 50.472656 80.097656 50.695312 80.25 50.664062 C 80.082031 50.894531 79.683594 50.894531 79.511719 50.667969 C 79.269531 50.808594 79.140625 51.113281 79.199219 51.382812 C 79.476562 51.601562 79.878906 51.488281 80.230469 51.46875 C 80.582031 51.449219 81.039062 51.695312 80.929688 52.03125 C 80.8125 52.402344 80.105469 52.425781 80.136719 52.816406 C 80.832031 52.800781 81.527344 52.929688 82.167969 53.195312 C 82.121094 53.421875 82.015625 53.636719 81.859375 53.808594 C 81.925781 54.070312 82.105469 54.304688 82.34375 54.441406 C 82.203125 54.910156 81.382812 54.972656 81.363281 55.464844 C 81.359375 55.628906 81.460938 55.78125 81.558594 55.910156 C 81.78125 56.199219 82.03125 56.472656 82.296875 56.71875 C 82.132812 56.8125 82.027344 57.003906 82.039062 57.195312 C 82.15625 57.203125 82.277344 57.210938 82.398438 57.21875 C 82.5 56.765625 82.386719 56.265625 82.101562 55.898438 C 82.039062 55.816406 81.964844 55.726562 81.964844 55.625 C 81.960938 55.382812 82.308594 55.335938 82.492188 55.175781 C 82.921875 54.808594 82.375 53.910156 82.847656 53.601562 C 82.988281 53.511719 83.164062 53.519531 83.328125 53.519531 C 84.277344 53.53125 85.222656 53.273438 86.035156 52.78125 C 86.832031 52.78125 87.632812 52.90625 88.390625 53.148438 C 88.417969 53.289062 88.449219 53.425781 88.476562 53.566406 C 88.839844 53.863281 89.40625 53.871094 89.777344 53.589844 C 90.023438 53.402344 90.179688 53.109375 90.429688 52.925781 C 90.824219 52.632812 91.363281 52.667969 91.851562 52.617188 C 92.246094 52.574219 92.628906 52.46875 93.007812 52.339844 C 92.847656 51.808594 92.746094 51.46875 92.746094 51.46875"/></g><g id="change4_3"><path fill="#5f9939" d="M 42.625 27.929688 C 42.621094 27.960938 42.625 27.988281 42.632812 28.015625 C 42.636719 27.988281 42.632812 27.960938 42.625 27.929688"/></g><g id="change4_4"><path fill="#5f9939" d="M 49.820312 30.511719 C 49.769531 30.542969 49.777344 30.59375 49.8125 30.644531 C 49.824219 30.601562 49.832031 30.554688 49.820312 30.511719"/></g><g id="change1_11"><path fill="#63503c" d="M 24.296875 38.164062 C 24.5 39.4375 24.667969 40.710938 24.828125 41.988281 C 24.914062 42.625 24.988281 43.265625 25.027344 43.917969 C 25.0625 44.566406 25.023438 45.226562 24.941406 45.871094 C 24.761719 47.160156 24.40625 48.402344 24.128906 49.652344 C 23.828125 50.894531 23.75 52.171875 23.707031 53.464844 C 23.664062 52.820312 23.640625 52.175781 23.652344 51.53125 C 23.675781 50.882812 23.757812 50.238281 23.867188 49.597656 C 24.085938 48.324219 24.433594 47.082031 24.597656 45.824219 C 24.796875 44.566406 24.679688 43.296875 24.566406 42.015625 C 24.460938 40.734375 24.359375 39.453125 24.296875 38.164062"/></g><g id="change1_12"><path fill="#63503c" d="M 22.675781 39.789062 C 22.460938 41.714844 22.203125 43.632812 21.941406 45.550781 C 21.820312 46.511719 21.675781 47.464844 21.621094 48.425781 C 21.589844 48.902344 21.582031 49.382812 21.597656 49.859375 C 21.617188 50.339844 21.65625 50.824219 21.667969 51.3125 C 21.675781 51.804688 21.640625 52.308594 21.546875 52.789062 C 21.457031 53.277344 21.328125 53.746094 21.210938 54.214844 C 20.972656 55.148438 20.792969 56.09375 20.632812 57.042969 C 20.480469 57.996094 20.375 58.957031 20.316406 59.917969 C 20.238281 60.882812 20.234375 61.847656 20.242188 62.816406 C 20.070312 60.886719 20.117188 58.933594 20.371094 57.007812 C 20.488281 56.039062 20.683594 55.085938 20.90625 54.140625 C 21.144531 53.195312 21.371094 52.273438 21.324219 51.320312 C 21.320312 50.84375 21.285156 50.359375 21.269531 49.871094 C 21.257812 49.382812 21.273438 48.890625 21.308594 48.40625 C 21.378906 47.429688 21.515625 46.46875 21.679688 45.511719 C 21.996094 43.601562 22.320312 41.695312 22.675781 39.789062"/></g><g id="change1_13"><path fill="#63503c" d="M 18.933594 51.070312 C 18.804688 52.277344 18.636719 53.476562 18.496094 54.679688 C 18.359375 55.882812 18.226562 57.085938 18.15625 58.289062 C 18.0625 59.496094 18.105469 60.695312 18.066406 61.921875 C 18.046875 62.53125 17.945312 63.152344 17.800781 63.738281 C 17.660156 64.324219 17.53125 64.921875 17.640625 65.523438 C 17.453125 64.9375 17.550781 64.300781 17.636719 63.707031 C 17.746094 63.105469 17.8125 62.519531 17.800781 61.914062 L 17.761719 60.097656 C 17.757812 59.488281 17.777344 58.878906 17.8125 58.269531 C 17.890625 57.054688 18.035156 55.84375 18.234375 54.644531 C 18.335938 54.042969 18.441406 53.445312 18.554688 52.851562 C 18.679688 52.253906 18.796875 51.660156 18.933594 51.070312"/></g><g id="change1_14"><path fill="#63503c" d="M 15.449219 57.332031 C 15.566406 57.6875 15.578125 58.03125 15.5625 58.378906 C 15.539062 58.722656 15.488281 59.066406 15.332031 59.402344 C 15.214844 59.050781 15.203125 58.703125 15.21875 58.359375 C 15.242188 58.015625 15.292969 57.671875 15.449219 57.332031"/></g><g id="change5_1"><path fill="#71a437" d="M 35.863281 28.476562 C 35.976562 28.503906 36.089844 28.457031 36.203125 28.441406 C 36.507812 28.402344 36.785156 28.601562 37.0625 28.730469 C 37.339844 28.863281 37.730469 28.902344 37.898438 28.644531 C 37.984375 28.96875 38.53125 29.003906 38.660156 28.695312 C 39.226562 29.371094 40.242188 29.367188 41.113281 29.503906 C 42.171875 29.664062 43.179688 30.117188 44.007812 30.796875 C 42.8125 30.335938 41.578125 29.980469 40.320312 29.730469 C 39.890625 29.644531 39.4375 29.574219 39.019531 29.707031 C 38.839844 29.765625 38.660156 29.859375 38.472656 29.835938 C 38.277344 29.804688 38.125 29.652344 37.960938 29.539062 C 37.421875 29.183594 33.5 29.316406 35.191406 27.703125 C 35.332031 27.886719 35.621094 28.417969 35.863281 28.476562"/></g><g id="change5_2"><path fill="#71a437" d="M 54.277344 34.613281 C 54.421875 34.734375 54.558594 34.867188 54.738281 34.929688 C 54.945312 35.003906 55.175781 34.964844 55.394531 34.9375 C 56.816406 34.785156 58.210938 35.363281 59.503906 35.976562 C 60.242188 36.332031 60.972656 36.699219 61.695312 37.085938 C 61.277344 36.914062 60.855469 36.738281 60.433594 36.566406 C 59.105469 36.019531 57.726562 35.460938 56.292969 35.542969 C 55.484375 35.59375 54.566406 35.816406 53.933594 35.304688 C 53.726562 35.132812 53.578125 34.898438 53.367188 34.726562 C 52.71875 34.195312 51.738281 34.441406 50.988281 34.453125 C 51.582031 33.398438 53.484375 33.957031 54.277344 34.613281"/></g><g id="change5_3"><path fill="#71a437" d="M 50.472656 54.144531 C 51.085938 53.605469 52.011719 53.453125 52.765625 53.765625 C 52.832031 53.960938 52.902344 54.160156 52.972656 54.355469 C 53.222656 54.386719 53.472656 54.417969 53.722656 54.449219 C 53.609375 54.851562 53.011719 54.820312 52.648438 54.613281 C 52.28125 54.40625 51.871094 54.109375 51.484375 54.277344 C 51.324219 54.347656 51.199219 54.496094 51.027344 54.539062 C 50.855469 54.582031 50.628906 54.402344 50.730469 54.257812 L 50.472656 54.144531"/></g></g></svg>