<?xml version="1.0" encoding="UTF-8" standalone="no"?><svg xmlns="http://www.w3.org/2000/svg" xmlns:xlink="http://www.w3.org/1999/xlink" contentScriptType="text/ecmascript" fill="#000000" width="113.5" zoomAndPan="magnify" contentStyleType="text/css" viewBox="-0.3 -1.3 113.5 77.2" height="77.2" preserveAspectRatio="xMidYMid meet" version="1"><g id="change1_1"><path fill="#fbb03b" d="M61,53.7c1.6,3.7-0.5,6.9-3.3,8.1c-0.8,0.4-1.7,0.6-2.7,0.6c-2.2,0-4.3-1.1-5.5-3.7 c-1.6-3.7,0.5-6.9,3.3-8.1C55.7,49.4,59.4,50,61,53.7L61,53.7z M62,0.7c-7.9-2-18.1,0.3-22.3,8.4c-2.1,3.5-1.8,7.9,0.7,10.9 c2.3,2.8,6,3.7,9.5,2.3c2.3-0.9,4-2.7,4.7-5.1c0.6-2,0.5-4.1-0.2-6c1.9-0.5,3.8-0.4,4.9,1.4c1.7,2.9,0.5,9.1-3.4,12.2l-0.1,0.1 c-4.4,4.4-6.5,8.8-6.4,13.4c-0.1,4,1.3,7.1,3.8,8.3c0.6,0.3,1.3,0.5,2,0.5c1.2,0,2.5-0.5,3.6-1.4l0.2-0.2c1.6-1.8,1.6-4.4,1.5-5.2 c-0.5-3.6,2.6-6.1,5.6-8.6l0.5-0.4c5.7-4.3,8.9-10,8.8-15.2C75.2,8.6,70.2,2.7,62,0.7z M31.6,66.6c2.5,2.1,2.1,5.2,0.5,7.1 c-0.5,0.6-1.1,1-1.7,1.4c-1.6,0.8-3.6,0.7-5.3-0.7c-2.5-2.2-2.1-5.2-0.5-7.1C26.2,65.3,29.1,64.4,31.6,66.6L31.6,66.6z M13.4,27.4 C6.9,28.8,0.2,34,0,41.5c-0.3,3.3,1.5,6.4,4.4,7.7c2.7,1.2,5.7,0.6,7.8-1.7c1.4-1.4,2-3.4,1.6-5.4c-0.3-1.7-1.1-3.2-2.3-4.3 c1.2-1,2.7-1.6,4.1-0.7c2.3,1.5,3.6,6.5,1.9,10.1l-0.1,0.1c-1.7,4.8-1.6,8.7,0.1,12.1c1.3,2.9,3.5,4.8,5.7,4.8 c0.6,0,1.1-0.1,1.6-0.4c0.9-0.4,1.6-1.2,2.1-2.3l0.1-0.2c0.6-1.9-0.4-3.8-0.8-4.3c-1.6-2.5-0.3-5.4,1-8.3l0.2-0.5 c2.6-5.2,3-10.5,1-14.2C25.9,28.5,20.1,25.9,13.4,27.4z M88.5,69.9c0,3.3-2.5,5-5,5c-0.7,0-1.5-0.1-2.2-0.4c-1.6-0.7-2.9-2.2-3-4.5 c0-3.3,2.5-5,5-5C85.8,65,88.4,66.6,88.5,69.9L88.5,69.9z M105.8,30.3c-5.3-3.9-13.7-5.4-19.4-0.7c-2.7,2-3.8,5.3-2.9,8.4 c0.9,2.8,3.3,4.6,6.4,4.7c2,0.1,3.8-0.8,5.1-2.3c1.1-1.3,1.7-2.9,1.7-4.6c1.6,0.2,3,0.9,3.2,2.6c0.4,2.7-2.5,7-6.3,8.1l-0.1,0 c-4.7,1.9-7.6,4.6-9,8.1c-1.3,2.9-1.2,5.8,0.2,7.5c0.4,0.4,0.8,0.8,1.4,1c0.9,0.4,2,0.4,3.2,0.1l0.2-0.1c1.8-0.8,2.5-2.8,2.7-3.4 c0.8-2.8,3.9-3.8,6.9-4.7l0.5-0.1c5.6-1.5,9.8-4.7,11.4-8.7C113.2,40.4,111.3,34.4,105.8,30.3z"/></g><g id="change2_1"><path fill="#bc842c" d="M57.7,61.8c-0.8,0.4-1.7,0.6-2.7,0.6c-1.7,0-3.4-0.7-4.6-2.2c1.1,0.8,2.3,1.2,3.6,1.2c0.9,0,1.8-0.2,2.7-0.6 c2.8-1.2,4.8-4.4,3.3-8.1l0,0c-0.2-0.6-0.5-1-0.9-1.5c0.8,0.6,1.4,1.4,1.9,2.5l0,0C62.6,57.4,60.6,60.6,57.7,61.8z M54.6,17.2 c0.6-2,0.5-4.1-0.2-6c1.4-0.3,2.8-0.4,3.8,0.3c-1-1.7-3-1.7-4.8-1.3c0.7,1.9,0.8,4.1,0.2,6c-0.7,2.4-2.4,4.2-4.7,5.1 c-3,1.2-6.2,0.7-8.5-1.3c2.3,2.8,5.9,3.6,9.5,2.3C52.1,21.4,53.8,19.6,54.6,17.2z M70.3,5c2.5,2.7,3.9,6.3,3.9,10.2 c0.2,5.2-3.1,10.9-8.8,15.2l-0.5,0.4c-3,2.5-6,5-5.6,8.6c0.1,0.8,0.2,3.4-1.5,5.2l-0.2,0.2c-1.1,0.9-2.4,1.4-3.6,1.4 c-0.7,0-1.4-0.2-2-0.5c-0.3-0.1-0.6-0.3-0.8-0.5c0.5,0.6,1.1,1.2,1.8,1.5c0.6,0.3,1.3,0.5,2,0.5c1.2,0,2.5-0.5,3.6-1.4l0.2-0.2 c1.6-1.8,1.6-4.4,1.5-5.2c-0.5-3.6,2.6-6.1,5.6-8.6l0.5-0.4c5.7-4.3,8.9-10,8.8-15.2C75.2,11.7,73.4,7.8,70.3,5z M32.1,73.6 c-0.5,0.6-1.1,1-1.7,1.4c-1.2,0.6-2.7,0.7-4.2,0c1.1,0.2,2.1,0.1,3.1-0.4c0.7-0.3,1.3-0.8,1.7-1.4c1.6-1.9,2-4.9-0.5-7.1l0,0 c-0.4-0.3-0.8-0.6-1.2-0.8c0.8,0.2,1.5,0.5,2.3,1.1l0,0C34.1,68.7,33.7,71.7,32.1,73.6z M13.8,42.1c-0.3-1.7-1.1-3.2-2.3-4.3 c0.9-0.7,1.9-1.3,2.9-1.2c-1.4-0.8-2.8-0.2-4,0.8c1.2,1.1,2.1,2.7,2.3,4.3c0.3,2-0.3,3.9-1.6,5.4c-1.8,1.9-4.3,2.7-6.6,2.1 c2.7,1.2,5.7,0.5,7.7-1.7C13.5,46.1,14.1,44.1,13.8,42.1z M21,27.5c2.8,1.1,5.1,3.2,6.5,6.1c2,3.7,1.6,9.1-1,14.2l-0.2,0.5 c-1.3,2.9-2.6,5.8-1,8.3c0.3,0.6,1.3,2.4,0.8,4.3l-0.1,0.2c-0.5,1.1-1.2,1.9-2.1,2.3c-0.5,0.2-1.1,0.4-1.6,0.4c-0.3,0-0.5,0-0.8-0.1 c0.6,0.3,1.2,0.5,1.9,0.5c0.6,0,1.1-0.1,1.6-0.4c0.9-0.4,1.6-1.2,2.1-2.3l0.1-0.2c0.6-1.9-0.4-3.8-0.8-4.3c-1.6-2.5-0.3-5.4,1-8.3 l0.2-0.5c2.6-5.2,3-10.5,1-14.2C27,30.7,24.3,28.5,21,27.5z M83.5,74.9c-0.7,0-1.5-0.1-2.2-0.4C80,74,79,72.9,78.5,71.4 c0.5,1,1.4,1.6,2.3,2c0.7,0.3,1.4,0.4,2.2,0.4c2.5,0,5-1.8,5-5l0,0c0-0.5-0.1-0.9-0.2-1.4c0.4,0.7,0.6,1.5,0.6,2.4l0,0 C88.5,73.1,86,74.9,83.5,74.9z M95,40.4c1.1-1.3,1.7-2.9,1.7-4.6c1.1,0.2,2.2,0.6,2.8,1.4c-0.3-1.6-1.7-2.2-3.2-2.5 c0,1.7-0.6,3.3-1.7,4.6c-1.3,1.6-3.1,2.4-5.1,2.3c-2.7-0.1-4.8-1.4-6-3.6c0.9,2.8,3.3,4.6,6.4,4.7C91.9,42.8,93.7,42,95,40.4z M110.7,36.1c1,2.8,1,5.9-0.3,8.9c-1.5,4-5.7,7.2-11.4,8.7l-0.5,0.1c-3,0.9-6.1,1.9-6.9,4.7c-0.2,0.6-0.9,2.6-2.7,3.4L88.8,62 c-1.2,0.3-2.2,0.3-3.2-0.1c-0.5-0.2-1-0.5-1.4-1c-0.2-0.2-0.3-0.4-0.5-0.6c0.2,0.6,0.5,1.2,0.9,1.7c0.4,0.4,0.8,0.8,1.4,1 c0.9,0.4,2,0.4,3.2,0.1l0.2-0.1c1.8-0.8,2.5-2.8,2.7-3.4c0.8-2.8,3.9-3.8,6.9-4.7l0.5-0.1c5.6-1.5,9.8-4.7,11.4-8.7 C112.3,42.7,112.2,39.2,110.7,36.1z"/></g></svg>