<?xml version="1.0" encoding="UTF-8" standalone="no"?><svg xmlns="http://www.w3.org/2000/svg" xmlns:xlink="http://www.w3.org/1999/xlink" contentScriptType="text/ecmascript" fill="#000000" width="88.5" zoomAndPan="magnify" contentStyleType="text/css" viewBox="5.7 -0.3 88.5 100.4" height="100.4" preserveAspectRatio="xMidYMid meet" version="1"><g><g id="change1_1"><path fill="#fef4f9" d="M 34.109375 68.101562 C 32.929688 71.433594 31.957031 74.808594 31.203125 78.21875 C 30.910156 79.539062 30.660156 80.960938 31.308594 82.164062 C 32.375 84.15625 35.34375 84.734375 37.945312 84.933594 C 40.488281 85.128906 43.054688 85.179688 45.617188 85.09375 C 46.660156 85.058594 47.800781 84.96875 48.585938 84.367188 C 49.402344 83.742188 49.601562 82.746094 49.738281 81.835938 C 50.148438 79.050781 50.410156 76.203125 49.683594 73.492188 C 48.960938 70.785156 47.121094 68.203125 44.207031 66.949219 C 41.292969 65.691406 37.253906 66.085938 35.097656 68.269531"/></g><g id="change2_1"><path fill="#2c1c18" d="M 33.816406 68.15625 C 32.988281 70.480469 32.261719 72.84375 31.640625 75.230469 C 31.335938 76.394531 31.042969 77.566406 30.804688 78.746094 C 30.597656 79.78125 30.453125 80.90625 30.855469 81.917969 C 31.515625 83.578125 33.363281 84.304688 34.980469 84.667969 C 35.890625 84.875 36.820312 84.984375 37.75 85.058594 C 39.007812 85.15625 40.265625 85.214844 41.523438 85.242188 C 42.78125 85.269531 44.035156 85.265625 45.292969 85.222656 C 46.351562 85.191406 47.484375 85.136719 48.433594 84.621094 C 48.871094 84.382812 49.238281 84.046875 49.492188 83.617188 C 49.730469 83.21875 49.859375 82.761719 49.945312 82.304688 C 50.046875 81.78125 50.113281 81.25 50.179688 80.722656 C 50.257812 80.128906 50.324219 79.535156 50.367188 78.941406 C 50.542969 76.695312 50.4375 74.375 49.605469 72.261719 C 48.925781 70.539062 47.789062 68.984375 46.296875 67.882812 C 44.785156 66.765625 42.972656 66.171875 41.101562 66.117188 C 39.269531 66.0625 37.339844 66.472656 35.796875 67.496094 C 35.449219 67.726562 35.121094 67.992188 34.824219 68.289062 C 34.730469 68.386719 34.910156 68.398438 34.96875 68.394531 C 35.097656 68.386719 35.273438 68.34375 35.367188 68.25 C 36.546875 67.066406 38.171875 66.503906 39.804688 66.386719 C 41.570312 66.261719 43.355469 66.648438 44.886719 67.535156 C 46.464844 68.449219 47.730469 69.835938 48.566406 71.449219 C 49.519531 73.300781 49.851562 75.386719 49.839844 77.453125 C 49.835938 78.609375 49.726562 79.761719 49.578125 80.910156 C 49.511719 81.4375 49.445312 81.96875 49.339844 82.488281 C 49.25 82.921875 49.117188 83.355469 48.890625 83.738281 C 48.65625 84.132812 48.3125 84.441406 47.894531 84.628906 C 47.480469 84.816406 47.019531 84.882812 46.574219 84.921875 C 45.425781 85.027344 44.261719 85.015625 43.109375 85.007812 C 41.894531 85.003906 40.679688 84.964844 39.46875 84.898438 C 38.460938 84.839844 37.453125 84.773438 36.457031 84.617188 C 34.851562 84.367188 33.007812 83.90625 31.941406 82.585938 C 31.316406 81.816406 31.148438 80.832031 31.21875 79.867188 C 31.257812 79.324219 31.363281 78.789062 31.480469 78.261719 C 31.601562 77.6875 31.734375 77.121094 31.871094 76.550781 C 32.429688 74.246094 33.085938 71.964844 33.835938 69.710938 C 34.019531 69.15625 34.210938 68.601562 34.40625 68.050781 C 34.445312 67.949219 34.210938 67.980469 34.164062 67.988281 C 34.074219 68.003906 33.851562 68.046875 33.816406 68.15625"/></g><g id="change3_1"><path fill="#ffffff" d="M 42.527344 16.253906 C 30.019531 19.066406 20.101562 29.167969 14.585938 40.738281 C 9.070312 52.308594 7.351562 65.292969 6.28125 78.066406 C 6.101562 80.242188 6.011719 82.664062 7.410156 84.335938 C 8.757812 85.941406 11.035156 86.320312 13.109375 86.59375 C 15.703125 86.929688 18.296875 87.273438 20.890625 87.613281 C 21.960938 87.753906 23.09375 87.886719 24.085938 87.464844 C 26.503906 86.4375 26.574219 83.085938 26.246094 80.480469 C 27.714844 79.523438 28.304688 77.429688 27.550781 75.847656 C 28.035156 75.941406 28.515625 76.03125 28.996094 76.121094 C 28.652344 73.125 29.730469 68.90625 31.027344 66.1875 C 28.484375 62.128906 26.558594 57.085938 24.988281 51.414062 C 26.265625 55.589844 27.546875 59.789062 29.5625 63.660156 C 31.574219 67.53125 34.382812 71.09375 38.121094 73.339844 C 41.027344 75.085938 44.617188 75.976562 47.996094 75.699219 L 46.144531 62.34375 C 46.871094 67.691406 47.617188 73.039062 48.375 78.386719 C 49.621094 81.796875 50.871094 85.207031 52.117188 88.621094 C 52.527344 88.664062 52.933594 88.707031 53.339844 88.75 C 51.71875 92.355469 54.34375 96.726562 57.90625 98.429688 C 61.472656 100.136719 65.625 99.894531 69.566406 99.617188 C 71.550781 99.480469 73.886719 99.121094 74.789062 97.34375 C 75.570312 95.804688 74.859375 93.964844 74.210938 92.363281 C 70.894531 84.136719 69.382812 75.1875 69.816406 66.328125 C 69.117188 75.867188 72.203125 87.367188 72.472656 87.464844 C 72.472656 87.464844 76.875 88.460938 78.839844 87.667969 C 80.804688 86.878906 82.097656 84.175781 80.722656 82.566406 C 83.382812 73.035156 85.550781 63.253906 87.320312 53.515625 C 83.367188 60.714844 79.046875 63.054688 73.691406 65.316406 C 80.683594 62.765625 87.03125 57.207031 88.484375 49.90625 C 89.253906 46.035156 88.609375 42.046875 88.355469 38.105469 C 88.101562 34.167969 88.316406 29.960938 90.527344 26.691406"/></g><g id="change2_2"><path fill="#2c1c18" d="M 42.496094 16.144531 C 36.007812 17.617188 30.128906 21.046875 25.289062 25.570312 C 20.3125 30.21875 16.421875 35.964844 13.648438 42.171875 C 10.339844 49.578125 8.507812 57.554688 7.355469 65.558594 C 6.785156 69.535156 6.375 73.535156 6.035156 77.539062 C 5.886719 79.292969 5.683594 81.15625 6.253906 82.859375 C 6.792969 84.460938 8.058594 85.507812 9.625 86.046875 C 11.359375 86.648438 13.261719 86.769531 15.070312 87.007812 C 17.234375 87.292969 19.410156 87.660156 21.585938 87.847656 C 23.078125 87.976562 24.683594 87.707031 25.648438 86.449219 C 26.476562 85.371094 26.671875 83.9375 26.6875 82.613281 C 26.695312 81.875 26.636719 81.136719 26.546875 80.398438 C 26.523438 80.433594 26.5 80.46875 26.476562 80.5 C 27.984375 79.480469 28.609375 77.4375 27.851562 75.769531 C 27.671875 75.835938 27.488281 75.90625 27.308594 75.972656 C 27.789062 76.0625 28.273438 76.15625 28.753906 76.242188 C 28.867188 76.265625 29.320312 76.226562 29.296875 76.039062 C 29.121094 74.425781 29.316406 72.785156 29.652344 71.203125 C 29.984375 69.617188 30.46875 68.046875 31.128906 66.5625 C 31.171875 66.457031 31.320312 66.242188 31.324219 66.121094 C 31.328125 66.015625 31.113281 65.769531 31.050781 65.664062 C 30.824219 65.289062 30.605469 64.910156 30.394531 64.527344 C 29.996094 63.816406 29.625 63.09375 29.273438 62.359375 C 28.511719 60.769531 27.84375 59.140625 27.238281 57.480469 C 26.5 55.464844 25.863281 53.40625 25.289062 51.335938 C 25.089844 51.390625 24.890625 51.445312 24.691406 51.496094 C 27.386719 60.328125 30.820312 70.800781 40.171875 74.609375 C 42.597656 75.59375 45.253906 76.035156 47.867188 75.832031 C 47.960938 75.824219 48.316406 75.769531 48.292969 75.617188 C 47.753906 71.714844 47.214844 67.816406 46.671875 63.914062 C 46.59375 63.363281 46.519531 62.8125 46.441406 62.261719 C 46.421875 62.117188 45.820312 62.246094 45.84375 62.421875 C 46.316406 65.898438 46.796875 69.371094 47.28125 72.84375 C 47.527344 74.582031 47.769531 76.316406 48.015625 78.050781 C 48.140625 78.917969 48.550781 79.769531 48.851562 80.589844 C 49.152344 81.40625 49.449219 82.21875 49.746094 83.03125 C 50.4375 84.921875 51.128906 86.808594 51.816406 88.699219 C 51.832031 88.742188 51.890625 88.75 51.925781 88.753906 C 52.335938 88.796875 52.742188 88.84375 53.148438 88.886719 C 53.113281 88.855469 53.078125 88.828125 53.042969 88.800781 C 51.617188 92.0625 53.527344 95.71875 56.207031 97.683594 C 59.574219 100.148438 64.132812 100.085938 68.101562 99.84375 C 69.820312 99.738281 71.636719 99.691406 73.230469 98.960938 C 73.898438 98.65625 74.511719 98.210938 74.917969 97.585938 C 75.457031 96.75 75.511719 95.75 75.335938 94.796875 C 75.132812 93.71875 74.675781 92.714844 74.28125 91.699219 C 73.851562 90.605469 73.457031 89.503906 73.09375 88.386719 C 72.371094 86.179688 71.777344 83.929688 71.308594 81.65625 C 70.269531 76.59375 69.871094 71.410156 70.117188 66.246094 C 70.121094 66.132812 69.53125 66.21875 69.515625 66.40625 C 69.179688 71.136719 69.667969 75.917969 70.492188 80.574219 C 70.785156 82.246094 71.128906 83.914062 71.550781 85.558594 C 71.675781 86.050781 71.804688 86.539062 71.960938 87.023438 C 72.007812 87.167969 72.058594 87.46875 72.191406 87.570312 C 72.265625 87.625 72.414062 87.628906 72.496094 87.644531 C 72.753906 87.699219 73.007812 87.742188 73.265625 87.789062 C 74.105469 87.933594 74.957031 88.042969 75.808594 88.089844 C 77.527344 88.179688 79.277344 88.011719 80.503906 86.671875 C 81.109375 86.011719 81.539062 85.152344 81.589844 84.25 C 81.613281 83.820312 81.542969 83.386719 81.359375 82.996094 C 81.273438 82.820312 81.089844 82.636719 81.070312 82.449219 C 81.035156 82.117188 81.261719 81.65625 81.347656 81.332031 C 82.125 78.5 82.855469 75.65625 83.546875 72.804688 C 84.921875 67.121094 86.136719 61.398438 87.214844 55.648438 C 87.351562 54.921875 87.484375 54.195312 87.617188 53.46875 C 87.652344 53.277344 87.089844 53.449219 87.023438 53.566406 C 85.730469 55.910156 84.1875 58.128906 82.246094 59.988281 C 80.675781 61.492188 78.867188 62.703125 76.933594 63.691406 C 75.839844 64.253906 74.71875 64.753906 73.585938 65.230469 C 73.191406 65.398438 73.558594 65.488281 73.800781 65.398438 C 78.878906 63.535156 83.613281 60.207031 86.496094 55.566406 C 88.03125 53.09375 88.898438 50.328125 89.09375 47.425781 C 89.335938 43.863281 88.714844 40.324219 88.59375 36.769531 C 88.472656 33.277344 88.839844 29.617188 90.824219 26.640625 C 90.882812 26.554688 90.332031 26.582031 90.230469 26.738281 C 86.539062 32.273438 88.453125 39.253906 88.546875 45.410156 C 88.59375 48.5 88.085938 51.511719 86.679688 54.28125 C 85.460938 56.6875 83.699219 58.792969 81.660156 60.542969 C 79.285156 62.585938 76.519531 64.152344 73.585938 65.230469 C 73.65625 65.285156 73.730469 65.34375 73.800781 65.398438 C 75.84375 64.535156 77.863281 63.609375 79.722656 62.394531 C 81.71875 61.089844 83.472656 59.457031 84.941406 57.578125 C 85.949219 56.289062 86.828125 54.902344 87.617188 53.46875 C 87.417969 53.5 87.222656 53.53125 87.023438 53.566406 C 86.023438 59.074219 84.902344 64.558594 83.636719 70.015625 C 82.996094 72.769531 82.320312 75.515625 81.605469 78.253906 C 81.253906 79.601562 80.890625 80.953125 80.515625 82.296875 C 80.417969 82.648438 80.421875 82.609375 80.609375 82.894531 C 80.730469 83.074219 80.820312 83.273438 80.882812 83.480469 C 81.019531 83.917969 81.023438 84.382812 80.933594 84.828125 C 80.746094 85.753906 80.1875 86.605469 79.441406 87.175781 C 78.722656 87.71875 77.890625 87.828125 77.011719 87.839844 C 75.632812 87.859375 74.144531 87.703125 72.800781 87.355469 C 72.683594 87.328125 72.773438 87.386719 72.730469 87.320312 C 72.675781 87.230469 72.644531 87.113281 72.613281 87.019531 C 72.472656 86.617188 72.363281 86.207031 72.253906 85.796875 C 71.859375 84.316406 71.539062 82.816406 71.253906 81.308594 C 70.429688 76.941406 69.910156 72.464844 70.027344 68.011719 C 70.042969 67.421875 70.074219 66.835938 70.117188 66.246094 C 69.917969 66.300781 69.714844 66.355469 69.515625 66.40625 C 69.101562 75.117188 70.539062 83.894531 73.738281 92.007812 C 74.425781 93.753906 75.523438 96.03125 74.253906 97.78125 C 73.261719 99.144531 71.355469 99.359375 69.804688 99.472656 C 65.808594 99.773438 61.296875 100.101562 57.667969 98.050781 C 54.539062 96.28125 52.078125 92.273438 53.636719 88.703125 C 53.664062 88.640625 53.570312 88.621094 53.53125 88.617188 C 53.125 88.574219 52.71875 88.53125 52.308594 88.484375 C 52.34375 88.503906 52.382812 88.523438 52.417969 88.539062 C 51.207031 85.234375 50 81.925781 48.789062 78.617188 C 48.492188 77.804688 48.46875 76.847656 48.347656 75.988281 C 48.226562 75.136719 48.105469 74.28125 47.988281 73.425781 C 47.742188 71.691406 47.5 69.953125 47.261719 68.21875 C 46.984375 66.230469 46.714844 64.246094 46.441406 62.261719 C 46.242188 62.316406 46.042969 62.367188 45.84375 62.421875 C 46.382812 66.324219 46.925781 70.222656 47.464844 74.125 C 47.542969 74.675781 47.617188 75.226562 47.695312 75.777344 C 47.835938 75.707031 47.980469 75.632812 48.121094 75.5625 C 43.414062 75.929688 38.820312 74.109375 35.367188 70.957031 C 31.941406 67.828125 29.664062 63.691406 27.988281 59.417969 C 26.949219 56.773438 26.117188 54.050781 25.289062 51.335938 C 25.242188 51.179688 24.648438 51.34375 24.691406 51.496094 C 25.675781 55.039062 26.835938 58.550781 28.378906 61.894531 C 28.742188 62.679688 29.128906 63.457031 29.535156 64.21875 C 29.714844 64.546875 29.898438 64.878906 30.085938 65.203125 C 30.183594 65.375 30.285156 65.542969 30.386719 65.714844 C 30.488281 65.890625 30.714844 66.125 30.679688 66.339844 C 30.628906 66.660156 30.371094 67.03125 30.25 67.335938 C 30.097656 67.714844 29.957031 68.097656 29.828125 68.484375 C 29.558594 69.277344 29.332031 70.082031 29.144531 70.898438 C 28.75 72.621094 28.507812 74.429688 28.699219 76.199219 C 28.878906 76.132812 29.0625 76.0625 29.242188 75.996094 C 28.761719 75.90625 28.277344 75.816406 27.796875 75.722656 C 27.71875 75.710938 27.179688 75.765625 27.253906 75.929688 C 27.964844 77.5 27.453125 79.484375 26.011719 80.460938 C 25.980469 80.480469 25.941406 80.519531 25.945312 80.558594 C 26.261719 83.109375 26.28125 87.558594 22.714844 87.613281 C 21.703125 87.628906 20.675781 87.425781 19.671875 87.292969 C 18.625 87.15625 17.578125 87.019531 16.53125 86.882812 C 14.640625 86.632812 12.6875 86.5 10.839844 86.019531 C 9.222656 85.59375 7.742188 84.753906 7.039062 83.171875 C 6.355469 81.640625 6.433594 79.882812 6.5625 78.25 C 6.867188 74.355469 7.265625 70.46875 7.789062 66.601562 C 8.832031 58.933594 10.457031 51.292969 13.378906 44.101562 C 15.90625 37.882812 19.453125 32.082031 24.121094 27.230469 C 28.578125 22.601562 34.0625 18.851562 40.242188 16.972656 C 41.007812 16.742188 41.777344 16.539062 42.554688 16.359375 C 42.914062 16.28125 42.855469 16.0625 42.496094 16.144531"/></g><g id="change1_2"><path fill="#fef4f9" d="M 42.527344 16.253906 C 30.019531 19.066406 20.101562 29.167969 14.585938 40.738281 C 9.070312 52.308594 7.351562 65.292969 6.28125 78.066406 C 6.101562 80.242188 6.011719 82.664062 7.410156 84.335938 C 8.757812 85.941406 11.035156 86.320312 13.109375 86.59375 C 15.703125 86.929688 18.296875 87.273438 20.890625 87.613281 C 21.960938 87.753906 23.09375 87.886719 24.085938 87.464844 C 26.503906 86.4375 26.574219 83.085938 26.246094 80.480469 C 27.714844 79.523438 28.304688 77.429688 27.550781 75.847656 C 28.035156 75.941406 28.515625 76.03125 28.996094 76.121094 C 28.652344 73.125 29.730469 68.90625 31.027344 66.1875 C 28.484375 62.128906 26.558594 57.085938 24.988281 51.414062 C 26.265625 55.589844 27.546875 59.789062 29.5625 63.660156 C 31.574219 67.53125 34.382812 71.09375 38.121094 73.339844 C 41.027344 75.085938 44.617188 75.976562 47.996094 75.699219 L 46.144531 62.34375 C 46.871094 67.691406 47.617188 73.039062 48.375 78.386719 C 49.621094 81.796875 50.871094 85.207031 52.117188 88.621094 C 52.527344 88.664062 52.933594 88.707031 53.339844 88.75 C 51.71875 92.355469 54.34375 96.726562 57.90625 98.429688 C 61.472656 100.136719 65.625 99.894531 69.566406 99.617188 C 71.550781 99.480469 73.886719 99.121094 74.789062 97.34375 C 75.570312 95.804688 74.859375 93.964844 74.210938 92.363281 C 70.894531 84.136719 69.382812 75.1875 69.816406 66.328125 C 69.117188 75.867188 72.203125 87.367188 72.472656 87.464844 C 72.472656 87.464844 76.875 88.460938 78.839844 87.667969 C 80.804688 86.878906 82.097656 84.175781 80.722656 82.566406 C 83.382812 73.035156 85.550781 63.253906 87.320312 53.515625 C 83.367188 60.714844 79.046875 63.054688 73.691406 65.316406 C 80.683594 62.765625 87.03125 57.207031 88.484375 49.90625 C 89.253906 46.035156 88.609375 42.046875 88.355469 38.105469 C 88.101562 34.167969 88.316406 29.960938 90.527344 26.691406"/></g><g id="change1_3"><path fill="#fef4f9" d="M 59.433594 39.144531 C 56.644531 33.613281 49.125 32.441406 44.972656 27.84375 C 41.539062 24.042969 41.007812 17.925781 43.726562 13.59375 L 43.265625 14.40625 C 42.351562 13.691406 41.035156 12.570312 40.386719 11.609375 C 39.734375 10.648438 39.394531 9.402344 39.773438 8.304688 C 40.28125 6.855469 41.871094 5.226562 43.382812 4.960938 C 45.007812 4.671875 46.914062 5.78125 48.46875 6.335938 C 48.039062 6.757812 47.519531 7.40625 46.972656 8.128906 C 50.328125 3.453125 56.042969 0.835938 61.773438 0.285156 C 67.503906 -0.261719 73.265625 1.058594 78.679688 3.011719 C 78.492188 3.253906 78.304688 3.5 78.113281 3.746094 C 78.984375 3.742188 79.851562 3.742188 80.722656 3.738281 C 81.414062 5.390625 83.667969 5.664062 85.410156 5.257812 C 87.152344 4.851562 88.902344 4.019531 90.652344 4.378906 C 92.484375 4.757812 93.902344 6.582031 93.820312 8.449219 C 93.738281 10.316406 93.234375 12.417969 91.679688 13.84375 C 89.835938 13.003906 89.101562 12.128906 89.214844 11.179688 C 89.042969 12.0625 89.84375 12.828125 90.628906 13.265625 C 91.414062 13.703125 92.332031 14.078125 92.726562 14.886719 C 92.960938 15.371094 92.960938 15.929688 93 16.46875 C 93.101562 17.863281 93.5 19.234375 93.460938 20.632812 C 93.351562 24.359375 90.28125 27.234375 87.441406 29.652344 C 87.832031 30.636719 87.042969 31.664062 86.316406 32.4375 C 83.808594 35.085938 81.304688 37.734375 78.796875 40.382812"/></g><g id="change2_3"><path fill="#2c1c18" d="M 59.734375 39.066406 C 57.78125 35.230469 53.613281 33.441406 50.082031 31.386719 C 48.246094 30.320312 46.429688 29.121094 45.042969 27.492188 C 43.523438 25.707031 42.621094 23.433594 42.367188 21.113281 C 42.085938 18.515625 42.617188 15.820312 44.003906 13.59375 C 43.820312 13.59375 43.632812 13.59375 43.449219 13.589844 C 43.292969 13.859375 43.140625 14.132812 42.984375 14.40625 C 43.171875 14.367188 43.355469 14.328125 43.542969 14.289062 C 41.898438 12.996094 39.640625 11.21875 39.9375 8.851562 C 40.074219 7.769531 40.828125 6.765625 41.625 6.058594 C 42.019531 5.710938 42.46875 5.402344 42.964844 5.21875 C 43.460938 5.039062 43.984375 5.046875 44.5 5.136719 C 45.808594 5.367188 46.992188 6.03125 48.230469 6.472656 C 48.230469 6.414062 48.230469 6.351562 48.230469 6.289062 C 47.664062 6.851562 47.175781 7.492188 46.695312 8.128906 C 46.882812 8.128906 47.066406 8.128906 47.25 8.132812 C 49.609375 4.863281 53.128906 2.605469 56.945312 1.40625 C 61.320312 0.0351562 65.984375 0.0898438 70.460938 0.921875 C 73.179688 1.429688 75.839844 2.214844 78.441406 3.152344 C 78.429688 3.101562 78.414062 3.054688 78.402344 3.007812 C 78.214844 3.253906 78.023438 3.496094 77.835938 3.742188 C 77.75 3.855469 77.910156 3.90625 77.996094 3.90625 C 78.863281 3.90625 79.734375 3.902344 80.601562 3.902344 C 80.542969 3.875 80.480469 3.847656 80.421875 3.820312 C 80.917969 4.957031 82.109375 5.453125 83.28125 5.558594 C 84.816406 5.699219 86.222656 5.167969 87.675781 4.773438 C 88.550781 4.535156 89.464844 4.351562 90.371094 4.515625 C 91.074219 4.644531 91.71875 4.996094 92.238281 5.488281 C 92.738281 5.964844 93.121094 6.554688 93.335938 7.210938 C 93.558594 7.902344 93.535156 8.59375 93.457031 9.304688 C 93.269531 10.972656 92.691406 12.636719 91.441406 13.800781 C 91.597656 13.769531 91.757812 13.738281 91.917969 13.703125 C 90.925781 13.246094 89.378906 12.460938 89.511719 11.140625 C 89.535156 10.910156 88.945312 11.03125 88.914062 11.21875 C 88.679688 12.675781 90.34375 13.335938 91.34375 13.929688 C 91.984375 14.304688 92.46875 14.796875 92.605469 15.550781 C 92.683594 15.964844 92.679688 16.386719 92.722656 16.800781 C 92.761719 17.226562 92.828125 17.652344 92.894531 18.070312 C 93.03125 18.929688 93.183594 19.796875 93.160156 20.671875 C 93.140625 21.359375 93.015625 22.042969 92.804688 22.695312 C 92.375 24.019531 91.59375 25.195312 90.699219 26.25 C 89.652344 27.484375 88.433594 28.558594 87.203125 29.605469 C 87.175781 29.632812 87.125 29.6875 87.144531 29.730469 C 87.433594 30.535156 86.988281 31.304688 86.488281 31.921875 C 85.921875 32.625 85.257812 33.261719 84.636719 33.914062 C 83.335938 35.292969 82.03125 36.667969 80.730469 38.042969 C 79.992188 38.824219 79.257812 39.601562 78.519531 40.382812 C 78.417969 40.488281 78.605469 40.542969 78.679688 40.542969 C 78.824219 40.550781 78.976562 40.488281 79.078125 40.386719 C 80.414062 38.96875 81.753906 37.554688 83.09375 36.140625 C 83.769531 35.425781 84.445312 34.710938 85.121094 33.996094 C 85.753906 33.324219 86.429688 32.675781 87.015625 31.960938 C 87.558594 31.300781 88.058594 30.441406 87.742188 29.570312 C 87.722656 29.609375 87.703125 29.652344 87.679688 29.695312 C 89.800781 27.886719 92.035156 25.90625 93.148438 23.289062 C 93.746094 21.882812 93.855469 20.425781 93.648438 18.921875 C 93.53125 18.0625 93.355469 17.207031 93.296875 16.339844 C 93.242188 15.585938 93.199219 14.84375 92.648438 14.265625 C 92.113281 13.707031 91.375 13.441406 90.730469 13.042969 C 90.078125 12.644531 89.378906 11.972656 89.511719 11.140625 C 89.3125 11.164062 89.113281 11.191406 88.914062 11.21875 C 88.769531 12.648438 90.347656 13.480469 91.4375 13.984375 C 91.574219 14.046875 91.8125 13.984375 91.917969 13.886719 C 93.03125 12.851562 93.667969 11.457031 93.945312 9.976562 C 94.070312 9.308594 94.167969 8.589844 94.109375 7.90625 C 94.050781 7.21875 93.796875 6.5625 93.410156 5.988281 C 92.566406 4.726562 91.15625 4.070312 89.652344 4.132812 C 87.933594 4.207031 86.386719 5.046875 84.691406 5.230469 C 83.324219 5.378906 81.628906 5.050781 81.019531 3.65625 C 80.992188 3.589844 80.90625 3.578125 80.839844 3.578125 C 79.96875 3.578125 79.101562 3.582031 78.230469 3.582031 C 78.285156 3.636719 78.339844 3.691406 78.390625 3.746094 C 78.582031 3.503906 78.769531 3.257812 78.960938 3.011719 C 79 2.960938 78.984375 2.894531 78.921875 2.867188 C 74.167969 1.160156 69.160156 -0.078125 64.078125 0.00390625 C 59.773438 0.0742188 55.445312 1.152344 51.769531 3.445312 C 49.800781 4.671875 48.054688 6.242188 46.695312 8.128906 C 46.613281 8.242188 46.765625 8.289062 46.855469 8.289062 C 46.988281 8.296875 47.167969 8.242188 47.25 8.132812 C 47.710938 7.527344 48.167969 6.910156 48.707031 6.375 C 48.761719 6.324219 48.8125 6.230469 48.710938 6.195312 C 47.511719 5.765625 46.371094 5.152344 45.121094 4.875 C 43.941406 4.613281 42.800781 4.804688 41.792969 5.480469 C 40.828125 6.125 39.996094 7.0625 39.554688 8.140625 C 39.074219 9.300781 39.378906 10.585938 40.035156 11.613281 C 40.769531 12.769531 41.917969 13.683594 42.984375 14.523438 C 43.117188 14.625 43.457031 14.558594 43.542969 14.40625 C 43.695312 14.136719 43.851562 13.863281 44.003906 13.59375 C 44.140625 13.355469 43.542969 13.433594 43.449219 13.589844 C 40.976562 17.5625 41.148438 22.925781 43.773438 26.785156 C 46.253906 30.433594 50.617188 32.050781 54.214844 34.320312 C 56.199219 35.566406 58.054688 37.105469 59.136719 39.226562 C 59.234375 39.421875 59.816406 39.226562 59.734375 39.066406"/></g><g id="change4_1"><path fill="#30201c" d="M 80.195312 17.578125 C 80.195312 19.371094 78.738281 20.828125 76.945312 20.828125 C 75.148438 20.828125 73.691406 19.371094 73.691406 17.578125 C 73.691406 15.78125 75.148438 14.328125 76.945312 14.328125 C 78.738281 14.328125 80.195312 15.78125 80.195312 17.578125"/></g><g id="change2_4"><path fill="#2c1c18" d="M 76.945312 14.378906 C 75.179688 14.378906 73.746094 15.8125 73.746094 17.578125 C 73.746094 19.34375 75.179688 20.777344 76.945312 20.777344 C 78.707031 20.777344 80.144531 19.34375 80.144531 17.578125 C 80.144531 15.8125 78.707031 14.378906 76.945312 14.378906 Z M 76.945312 20.882812 C 75.121094 20.882812 73.640625 19.398438 73.640625 17.578125 C 73.640625 15.757812 75.121094 14.273438 76.945312 14.273438 C 78.765625 14.273438 80.246094 15.757812 80.246094 17.578125 C 80.246094 19.398438 78.765625 20.882812 76.945312 20.882812"/></g><g id="change4_2"><path fill="#30201c" d="M 60.613281 17.578125 C 60.613281 19.371094 59.15625 20.828125 57.363281 20.828125 C 55.566406 20.828125 54.109375 19.371094 54.109375 17.578125 C 54.109375 15.78125 55.566406 14.328125 57.363281 14.328125 C 59.15625 14.328125 60.613281 15.78125 60.613281 17.578125"/></g><g id="change2_5"><path fill="#2c1c18" d="M 57.363281 14.378906 C 55.597656 14.378906 54.164062 15.8125 54.164062 17.578125 C 54.164062 19.34375 55.597656 20.777344 57.363281 20.777344 C 59.128906 20.777344 60.5625 19.34375 60.5625 17.578125 C 60.5625 15.8125 59.128906 14.378906 57.363281 14.378906 Z M 57.363281 20.882812 C 55.542969 20.882812 54.058594 19.398438 54.058594 17.578125 C 54.058594 15.757812 55.542969 14.273438 57.363281 14.273438 C 59.183594 14.273438 60.664062 15.757812 60.664062 17.578125 C 60.664062 19.398438 59.183594 20.882812 57.363281 20.882812"/></g><g id="change3_2"><path fill="#ffffff" d="M 59.011719 16.964844 C 58.617188 17.09375 58.191406 16.878906 58.066406 16.484375 C 57.9375 16.089844 58.152344 15.667969 58.542969 15.539062 C 58.9375 15.410156 59.363281 15.625 59.492188 16.019531 C 59.617188 16.414062 59.40625 16.835938 59.011719 16.964844"/></g><g id="change3_3"><path fill="#ffffff" d="M 78.683594 16.964844 C 78.289062 17.09375 77.863281 16.878906 77.734375 16.484375 C 77.609375 16.089844 77.824219 15.667969 78.21875 15.539062 C 78.609375 15.410156 79.035156 15.625 79.164062 16.019531 C 79.292969 16.414062 79.078125 16.835938 78.683594 16.964844"/></g><g id="change5_1"><path fill="#bdb4ba" d="M 60.691406 23.773438 C 60.125 24.757812 60.773438 25.867188 60.800781 27 C 60.882812 30.390625 70.960938 32.335938 73.136719 27.582031 C 73.578125 26.613281 73.96875 25.640625 74.085938 24.578125 C 74.164062 23.863281 74.292969 23.589844 74.113281 22.75 C 73.691406 20.910156 70.929688 19.664062 70.238281 20.824219 C 69.691406 21.742188 66.335938 22.335938 65.023438 22.054688 C 63.710938 21.777344 64.027344 19.859375 62.390625 20.625 C 61.164062 21.199219 60.847656 22.8125 60.492188 24.117188"/></g><g id="change4_3"><path fill="#30201c" d="M 70.878906 22.597656 C 70.878906 23.921875 69.234375 25.617188 67.207031 25.617188 C 65.183594 25.617188 63.539062 23.921875 63.539062 22.597656 C 63.539062 21.277344 65.183594 20.828125 67.207031 20.828125 C 69.234375 20.828125 70.878906 21.277344 70.878906 22.597656"/></g><g id="change2_6"><path fill="#2c1c18" d="M 67.207031 20.882812 C 65.558594 20.882812 63.589844 21.179688 63.589844 22.597656 C 63.589844 23.933594 65.261719 25.566406 67.207031 25.566406 C 69.15625 25.566406 70.824219 23.933594 70.824219 22.597656 C 70.824219 21.179688 68.859375 20.882812 67.207031 20.882812 Z M 67.207031 25.667969 C 65.203125 25.667969 63.488281 23.980469 63.488281 22.597656 C 63.488281 21.40625 64.773438 20.777344 67.207031 20.777344 C 69.644531 20.777344 70.929688 21.40625 70.929688 22.597656 C 70.929688 23.980469 69.210938 25.667969 67.207031 25.667969"/></g><g id="change2_7"><path fill="#2c1c18" d="M 64.039062 18.695312 C 63.902344 19.183594 63.738281 19.664062 63.617188 20.160156 C 63.476562 20.753906 63.335938 21.417969 63.460938 22.027344 C 63.515625 22.296875 63.644531 22.554688 63.886719 22.699219 C 63.984375 22.757812 64.175781 22.691406 64.273438 22.65625 C 64.300781 22.648438 64.535156 22.550781 64.457031 22.503906 C 63.992188 22.222656 63.992188 21.554688 64.03125 21.082031 C 64.085938 20.457031 64.246094 19.84375 64.429688 19.246094 C 64.496094 19.023438 64.570312 18.804688 64.632812 18.585938 C 64.65625 18.488281 64.4375 18.535156 64.394531 18.542969 C 64.324219 18.554688 64.066406 18.601562 64.039062 18.695312"/></g><g id="change2_8"><path fill="#2c1c18" d="M 69.097656 19.078125 C 69.277344 19.457031 69.539062 19.804688 69.75 20.171875 C 69.988281 20.589844 70.285156 21.09375 70.300781 21.59375 C 70.300781 21.636719 70.296875 21.6875 70.289062 21.734375 C 70.28125 21.757812 70.277344 21.78125 70.269531 21.804688 C 70.265625 21.8125 70.261719 21.820312 70.261719 21.828125 C 70.246094 21.859375 70.265625 21.824219 70.253906 21.839844 C 70.242188 21.859375 70.230469 21.878906 70.214844 21.894531 C 70.199219 21.914062 70.222656 21.886719 70.226562 21.886719 C 70.214844 21.894531 70.203125 21.90625 70.191406 21.914062 C 70.222656 21.894531 70.167969 21.917969 70.195312 21.910156 C 70.230469 21.898438 70.199219 21.90625 70.191406 21.910156 C 70.128906 21.941406 70.261719 21.890625 70.1875 21.910156 C 70.101562 21.933594 69.898438 22.011719 69.925781 22.136719 C 69.957031 22.257812 70.191406 22.21875 70.265625 22.199219 C 70.523438 22.128906 70.78125 21.984375 70.871094 21.71875 C 70.941406 21.5 70.890625 21.246094 70.824219 21.035156 C 70.652344 20.476562 70.332031 19.96875 70.03125 19.472656 C 69.910156 19.28125 69.789062 19.109375 69.699219 18.914062 C 69.605469 18.714844 69.019531 18.90625 69.097656 19.078125"/></g><g id="change2_9"><path fill="#2c1c18" d="M 60.007812 23.609375 C 60.050781 24.835938 60.152344 26.109375 60.808594 27.179688 C 61.382812 28.109375 62.359375 28.753906 63.476562 28.691406 C 64.089844 28.652344 64.675781 28.40625 65.09375 27.960938 C 64.933594 27.984375 64.773438 28.015625 64.613281 28.042969 C 65.324219 28.5625 66.074219 29.089844 66.96875 29.214844 C 67.414062 29.277344 67.871094 29.234375 68.289062 29.070312 C 68.632812 28.933594 68.953125 28.585938 69.34375 28.621094 C 69.765625 28.65625 70.148438 28.886719 70.5625 28.960938 C 70.960938 29.035156 71.375 29.003906 71.765625 28.902344 C 72.535156 28.699219 73.222656 28.203125 73.664062 27.539062 C 74.191406 26.757812 74.410156 25.820312 74.417969 24.882812 C 74.421875 24.566406 73.8125 24.652344 73.808594 24.925781 C 73.800781 26.320312 73.253906 27.96875 71.792969 28.441406 C 71.480469 28.542969 71.15625 28.582031 70.832031 28.53125 C 70.441406 28.46875 70.082031 28.273438 69.691406 28.199219 C 69.25 28.113281 68.851562 28.242188 68.476562 28.46875 C 68.328125 28.554688 68.175781 28.652344 68.011719 28.710938 C 67.832031 28.773438 67.640625 28.800781 67.449219 28.796875 C 66.542969 28.785156 65.773438 28.203125 65.074219 27.695312 C 64.929688 27.585938 64.703125 27.65625 64.589844 27.777344 C 64.019531 28.386719 63.042969 28.363281 62.355469 27.941406 C 61.496094 27.414062 61.027344 26.464844 60.816406 25.511719 C 60.675781 24.871094 60.636719 24.21875 60.617188 23.566406 C 60.609375 23.417969 60.472656 23.355469 60.335938 23.367188 C 60.222656 23.375 60.003906 23.464844 60.007812 23.609375"/></g><g id="change2_10"><path fill="#2c1c18" d="M 76.234375 23.417969 C 76.898438 24.699219 76.78125 26.308594 75.933594 27.476562 C 75.875 27.558594 76.152344 27.527344 76.171875 27.523438 C 76.28125 27.503906 76.453125 27.464844 76.523438 27.363281 C 77.378906 26.191406 77.503906 24.546875 76.832031 23.257812 C 76.761719 23.121094 76.191406 23.339844 76.234375 23.417969"/></g><g id="change2_11"><path fill="#2c1c18" d="M 63.785156 31.707031 C 65.316406 32.496094 67.070312 32.800781 68.78125 32.613281 C 69.269531 32.558594 69.753906 32.464844 70.226562 32.332031 C 70.3125 32.304688 70.519531 32.230469 70.488281 32.109375 C 70.460938 31.988281 70.222656 32.027344 70.152344 32.046875 C 68.195312 32.601562 66.066406 32.359375 64.265625 31.425781 C 64.144531 31.363281 63.953125 31.417969 63.839844 31.484375 C 63.757812 31.535156 63.660156 31.644531 63.785156 31.707031"/></g><g id="change5_2"><path fill="#bdb4ba" d="M 46.3125 65.761719 C 43.425781 65.011719 40.941406 62.863281 39.777344 60.121094 C 39.628906 60.667969 39.480469 61.21875 39.332031 61.769531 C 36.09375 58.980469 33.59375 55.34375 32.148438 51.324219 C 31.558594 52.15625 31.21875 53.167969 31.183594 54.191406 C 28.351562 50.039062 25.816406 45.691406 23.601562 41.179688 C 23.613281 51.121094 27.59375 63.988281 33.292969 69.042969 C 34.535156 69.476562 32.980469 71.125 32.035156 75.960938 C 32.121094 77.207031 45.851562 81.214844 48.375 79.378906 C 48.574219 79.234375 47.492188 75.273438 47.652344 75.085938 C 47.808594 74.898438 47.378906 68.324219 46.488281 65.425781"/></g><g id="change5_3"><path fill="#bdb4ba" d="M 25.859375 55.007812 C 24.886719 60.566406 22.671875 65.820312 20.75 71.128906 C 18.828125 76.433594 17.144531 81.507812 17.347656 87.148438 C 20.050781 88.066406 25.195312 88.066406 25.691406 85.972656 C 26.066406 84.476562 26.34375 80.324219 26.34375 80.324219 C 26.34375 80.324219 28.308594 78.90625 27.691406 76.035156 C 30.46875 76.855469 27.847656 72.933594 30.847656 66.390625"/></g><g id="change5_4"><path fill="#bdb4ba" d="M 80.234375 62.226562 C 79.070312 69.578125 77.90625 76.925781 76.742188 84.273438 C 76.496094 85.8125 75.867188 87.726562 74.3125 87.824219 C 72.863281 87.917969 71.960938 86.3125 71.515625 84.929688 C 70.140625 80.664062 70.039062 76.292969 69.558594 71.839844 C 69.417969 70.503906 69.34375 68.972656 69.90625 67.753906 C 70.777344 65.863281 72.554688 65.058594 74.582031 64.570312 C 76.621094 64.074219 78.628906 63.277344 80.175781 62.054688"/></g><g id="change5_5"><path fill="#bdb4ba" d="M 43.503906 11.058594 C 43.046875 11.09375 42.621094 10.792969 42.375 10.410156 C 42.125 10.027344 42.023438 9.574219 41.925781 9.128906 C 41.820312 8.628906 41.722656 8.078125 41.972656 7.636719 C 42.234375 7.179688 42.789062 6.976562 43.3125 6.9375 C 44.214844 6.863281 45.144531 7.167969 45.824219 7.769531 C 45.589844 7.792969 45.347656 7.824219 45.140625 7.929688 C 44.929688 8.039062 44.753906 8.246094 44.757812 8.484375 C 44.757812 8.660156 44.855469 8.824219 44.90625 8.996094 C 44.957031 9.164062 44.9375 9.390625 44.777344 9.472656 C 44.539062 9.59375 44.253906 9.277344 43.996094 9.363281 C 43.765625 9.441406 43.757812 9.773438 43.84375 10.003906 C 43.910156 10.175781 44.007812 10.34375 44.054688 10.523438 C 44.097656 10.703125 44.082031 10.917969 43.949219 11.046875 C 43.8125 11.175781 43.546875 11.160156 43.476562 10.988281"/></g><g id="change5_6"><path fill="#bdb4ba" d="M 87.300781 7.769531 C 87.839844 6.921875 88.945312 6.476562 89.921875 6.714844 C 90.898438 6.953125 91.675781 7.851562 91.765625 8.851562 C 91.496094 8.578125 91.09375 8.4375 90.710938 8.488281 C 91.175781 8.925781 91.445312 9.558594 91.433594 10.199219 C 91.421875 10.835938 91.136719 11.460938 90.660156 11.882812 C 90.523438 11.394531 90.386719 10.90625 90.25 10.414062 C 90.207031 10.257812 90.152344 10.085938 90.015625 9.996094 C 89.851562 9.886719 89.625 9.941406 89.472656 10.066406 C 89.324219 10.191406 89.234375 10.371094 89.148438 10.546875 C 89.082031 9.933594 88.914062 9.328125 88.65625 8.769531 C 88.636719 8.984375 88.609375 9.214844 88.484375 9.390625 C 88.359375 9.570312 88.09375 9.667969 87.914062 9.542969 C 87.808594 9.46875 87.757812 9.335938 87.714844 9.210938 C 87.542969 8.699219 87.367188 8.183594 87.195312 7.671875"/></g><g id="change2_12"><path fill="#2c1c18" d="M 42.484375 16.085938 C 35.96875 17.566406 30.070312 21.027344 25.226562 25.582031 C 20.253906 30.257812 16.367188 36.019531 13.601562 42.246094 C 10.324219 49.632812 8.496094 57.570312 7.351562 65.542969 C 6.773438 69.5625 6.363281 73.601562 6.019531 77.644531 C 5.875 79.363281 5.695312 81.191406 6.253906 82.859375 C 6.785156 84.445312 8.023438 85.496094 9.570312 86.054688 C 11.289062 86.679688 13.183594 86.800781 14.984375 87.035156 C 17.15625 87.320312 19.332031 87.667969 21.515625 87.886719 C 23.0625 88.039062 24.660156 87.78125 25.65625 86.476562 C 26.496094 85.378906 26.683594 83.894531 26.6875 82.550781 C 26.6875 81.832031 26.632812 81.113281 26.546875 80.398438 C 26.507812 80.460938 26.472656 80.523438 26.433594 80.582031 C 27.964844 79.546875 28.625 77.472656 27.851562 75.769531 C 27.691406 75.851562 27.53125 75.9375 27.371094 76.023438 C 27.855469 76.113281 28.335938 76.203125 28.816406 76.292969 C 28.972656 76.324219 29.320312 76.257812 29.296875 76.039062 C 29.125 74.433594 29.324219 72.792969 29.65625 71.21875 C 29.992188 69.609375 30.484375 68.019531 31.160156 66.519531 C 31.203125 66.421875 31.332031 66.246094 31.324219 66.132812 C 31.320312 66.015625 31.160156 65.835938 31.097656 65.734375 C 30.871094 65.359375 30.648438 64.980469 30.433594 64.597656 C 30.023438 63.867188 29.640625 63.117188 29.273438 62.359375 C 28.511719 60.769531 27.84375 59.140625 27.238281 57.480469 C 26.5 55.464844 25.863281 53.40625 25.289062 51.335938 C 25.089844 51.390625 24.890625 51.445312 24.691406 51.496094 C 27.398438 60.363281 30.871094 70.941406 40.3125 74.691406 C 42.734375 75.652344 45.355469 76.082031 47.957031 75.878906 C 48.082031 75.867188 48.316406 75.777344 48.292969 75.617188 C 47.753906 71.714844 47.214844 67.816406 46.671875 63.914062 C 46.59375 63.363281 46.519531 62.8125 46.441406 62.261719 C 46.410156 62.039062 45.808594 62.179688 45.84375 62.421875 C 46.316406 65.898438 46.796875 69.371094 47.28125 72.84375 C 47.527344 74.582031 47.769531 76.316406 48.015625 78.050781 C 48.140625 78.917969 48.550781 79.769531 48.851562 80.589844 C 49.152344 81.40625 49.449219 82.21875 49.746094 83.03125 C 50.4375 84.921875 51.128906 86.808594 51.816406 88.699219 C 51.847656 88.78125 51.929688 88.796875 52.003906 88.804688 C 52.414062 88.847656 52.820312 88.890625 53.226562 88.933594 C 53.171875 88.867188 53.117188 88.800781 53.058594 88.734375 C 51.644531 91.972656 53.4375 95.570312 56.0625 97.585938 C 59.371094 100.132812 63.921875 100.136719 67.894531 99.90625 C 69.648438 99.804688 71.542969 99.785156 73.175781 99.046875 C 73.859375 98.738281 74.488281 98.28125 74.902344 97.648438 C 75.429688 96.84375 75.511719 95.871094 75.359375 94.9375 C 75.183594 93.863281 74.734375 92.855469 74.335938 91.847656 C 73.90625 90.753906 73.507812 89.652344 73.140625 88.535156 C 72.414062 86.328125 71.816406 84.082031 71.34375 81.808594 C 70.28125 76.714844 69.871094 71.492188 70.117188 66.292969 C 70.128906 66.03125 69.53125 66.140625 69.515625 66.359375 C 69.179688 71.066406 69.660156 75.828125 70.472656 80.460938 C 70.769531 82.160156 71.117188 83.851562 71.542969 85.527344 C 71.667969 86.015625 71.796875 86.503906 71.949219 86.984375 C 72.003906 87.152344 72.054688 87.460938 72.195312 87.585938 C 72.410156 87.78125 72.972656 87.777344 73.238281 87.824219 C 74.0625 87.964844 74.894531 88.078125 75.730469 88.128906 C 77.503906 88.242188 79.304688 88.089844 80.546875 86.667969 C 81.128906 86 81.558594 85.144531 81.59375 84.246094 C 81.609375 83.816406 81.542969 83.386719 81.359375 82.996094 C 81.273438 82.820312 81.09375 82.628906 81.070312 82.449219 C 81.03125 82.140625 81.273438 81.644531 81.351562 81.34375 C 82.128906 78.515625 82.859375 75.671875 83.550781 72.820312 C 84.925781 67.136719 86.140625 61.410156 87.21875 55.664062 C 87.355469 54.9375 87.488281 54.210938 87.621094 53.484375 C 87.667969 53.21875 87.117188 53.363281 87.039062 53.503906 C 85.746094 55.84375 84.214844 58.058594 82.277344 59.914062 C 80.699219 61.421875 78.882812 62.640625 76.941406 63.632812 C 75.839844 64.195312 74.710938 64.695312 73.570312 65.175781 C 73.179688 65.339844 73.535156 65.554688 73.816406 65.453125 C 78.894531 63.589844 83.644531 60.230469 86.515625 55.574219 C 88.046875 53.089844 88.914062 50.304688 89.101562 47.394531 C 89.324219 43.886719 88.730469 40.40625 88.597656 36.90625 C 88.464844 33.402344 88.8125 29.699219 90.808594 26.703125 C 90.96875 26.460938 90.363281 26.496094 90.246094 26.675781 C 86.53125 32.25 88.464844 39.246094 88.546875 45.445312 C 88.585938 48.515625 88.078125 51.519531 86.667969 54.273438 C 85.429688 56.6875 83.65625 58.796875 81.59375 60.550781 C 79.226562 62.5625 76.480469 64.105469 73.570312 65.175781 C 73.652344 65.269531 73.734375 65.359375 73.816406 65.453125 C 75.851562 64.59375 77.871094 63.664062 79.722656 62.449219 C 81.691406 61.15625 83.414062 59.550781 84.871094 57.707031 C 85.902344 56.398438 86.796875 54.988281 87.601562 53.53125 C 87.40625 53.539062 87.214844 53.542969 87.019531 53.550781 C 86.019531 59.058594 84.898438 64.546875 83.632812 70 C 83 72.726562 82.332031 75.449219 81.621094 78.15625 C 81.269531 79.507812 80.90625 80.855469 80.53125 82.203125 C 80.457031 82.480469 80.378906 82.582031 80.542969 82.808594 C 80.695312 83.015625 80.808594 83.238281 80.882812 83.480469 C 81.011719 83.898438 81.019531 84.335938 80.941406 84.765625 C 80.765625 85.695312 80.199219 86.566406 79.4375 87.125 C 78.734375 87.644531 77.910156 87.773438 77.050781 87.789062 C 75.597656 87.820312 74.203125 87.535156 72.777344 87.316406 C 72.738281 87.308594 72.699219 87.296875 72.660156 87.289062 C 72.742188 87.300781 72.734375 87.335938 72.730469 87.324219 C 72.730469 87.246094 72.648438 87.125 72.625 87.050781 C 72.488281 86.660156 72.378906 86.261719 72.269531 85.859375 C 71.878906 84.394531 71.558594 82.910156 71.277344 81.417969 C 70.441406 77.03125 69.910156 72.53125 70.03125 68.058594 C 70.046875 67.46875 70.074219 66.882812 70.117188 66.292969 C 69.917969 66.316406 69.714844 66.339844 69.515625 66.359375 C 69.101562 75.03125 70.515625 83.777344 73.679688 91.863281 C 74.363281 93.605469 75.523438 95.886719 74.308594 97.664062 C 73.371094 99.035156 71.46875 99.28125 69.945312 99.410156 C 65.960938 99.742188 61.480469 100.054688 57.828125 98.117188 C 54.648438 96.433594 52.050781 92.363281 53.621094 88.765625 C 53.679688 88.636719 53.574219 88.582031 53.453125 88.566406 C 53.046875 88.523438 52.636719 88.480469 52.230469 88.433594 C 52.292969 88.46875 52.355469 88.503906 52.417969 88.539062 C 51.207031 85.234375 50 81.925781 48.789062 78.617188 C 48.492188 77.804688 48.46875 76.847656 48.347656 75.988281 C 48.226562 75.136719 48.105469 74.28125 47.988281 73.425781 C 47.742188 71.691406 47.5 69.953125 47.261719 68.21875 C 46.984375 66.230469 46.714844 64.246094 46.441406 62.261719 C 46.242188 62.316406 46.042969 62.367188 45.84375 62.421875 C 46.382812 66.324219 46.925781 70.222656 47.464844 74.125 C 47.542969 74.675781 47.617188 75.226562 47.695312 75.777344 C 47.808594 75.691406 47.917969 75.601562 48.03125 75.515625 C 43.363281 75.878906 38.789062 74.070312 35.359375 70.941406 C 31.941406 67.820312 29.660156 63.6875 27.988281 59.417969 C 26.949219 56.773438 26.117188 54.050781 25.289062 51.335938 C 25.21875 51.109375 24.628906 51.269531 24.691406 51.496094 C 26.117188 56.636719 27.914062 61.761719 30.746094 66.308594 C 30.746094 66.265625 30.746094 66.21875 30.742188 66.171875 C 30.007812 67.734375 29.464844 69.398438 29.09375 71.085938 C 28.730469 72.753906 28.511719 74.492188 28.699219 76.199219 C 28.859375 76.113281 29.019531 76.03125 29.179688 75.945312 C 28.695312 75.855469 28.214844 75.765625 27.734375 75.675781 C 27.625 75.65625 27.160156 75.726562 27.253906 75.929688 C 27.949219 77.464844 27.46875 79.421875 26.054688 80.378906 C 25.992188 80.421875 25.933594 80.476562 25.945312 80.558594 C 26.261719 83.121094 26.273438 87.457031 22.738281 87.5625 C 21.746094 87.59375 20.742188 87.394531 19.761719 87.265625 C 18.714844 87.128906 17.664062 86.988281 16.617188 86.851562 C 14.71875 86.601562 12.761719 86.464844 10.898438 86 C 9.269531 85.59375 7.75 84.765625 7.039062 83.171875 C 6.34375 81.613281 6.4375 79.824219 6.574219 78.164062 C 6.886719 74.304688 7.273438 70.453125 7.792969 66.617188 C 8.839844 58.933594 10.46875 51.273438 13.402344 44.074219 C 15.933594 37.855469 19.5 32.050781 24.179688 27.21875 C 28.632812 22.613281 34.097656 18.902344 40.257812 17.03125 C 41.023438 16.796875 41.792969 16.59375 42.574219 16.417969 C 42.941406 16.335938 42.847656 16.003906 42.484375 16.085938"/></g><g id="change6_1"><path fill="#fcd6e5" d="M 58.183594 25.617188 C 58.183594 26.703125 57.300781 27.585938 56.214844 27.585938 C 55.128906 27.585938 54.246094 26.703125 54.246094 25.617188 C 54.246094 24.53125 55.128906 23.648438 56.214844 23.648438 C 57.300781 23.648438 58.183594 24.53125 58.183594 25.617188"/></g><g id="change6_2"><path fill="#fcd6e5" d="M 82.808594 25.394531 C 82.808594 26.480469 81.929688 27.363281 80.84375 27.363281 C 79.753906 27.363281 78.875 26.480469 78.875 25.394531 C 78.875 24.308594 79.753906 23.425781 80.84375 23.425781 C 81.929688 23.425781 82.808594 24.308594 82.808594 25.394531"/></g></g></svg>