<?xml version="1.0" encoding="UTF-8" standalone="no"?><svg xmlns="http://www.w3.org/2000/svg" xmlns:xlink="http://www.w3.org/1999/xlink" contentScriptType="text/ecmascript" fill="#000000" width="92.5" zoomAndPan="magnify" contentStyleType="text/css" viewBox="1.4 11.1 92.5 73.0" height="73" preserveAspectRatio="xMidYMid meet" version="1"><g id="change1_1"><path fill="#8ca762" d="M18.491,22.453C12.56,23.874,6.819,27.321,4.087,32.774c-2.731,5.453-1.58,12.997,3.512,16.354 c4.795,3.162,11.713,2.157,15.961,6.023c5.525,5.027,2.834,14.378,5.983,21.151c1.905,4.097,6.112,7.026,10.615,7.391 c4.503,0.365,9.127-1.849,11.666-5.585c2.015-2.965,2.772-6.737,5.211-9.364c3.25-3.501,8.592-4.034,13.348-3.591 c4.757,0.443,9.566,1.626,14.25,0.685s9.26-4.975,8.664-9.715c-0.639-5.09-6.504-7.884-8.373-12.661 c-3.005-7.684,5.438-16.23,2.828-24.057c-2.128-6.38-10.603-8.348-17.052-6.438s-11.764,6.435-17.823,9.357 C41.204,27.954,30.743,19.518,18.491,22.453z"/></g></svg>