<?xml version="1.0" encoding="UTF-8" standalone="no"?><svg xmlns="http://www.w3.org/2000/svg" xmlns:xlink="http://www.w3.org/1999/xlink" contentScriptType="text/ecmascript" fill="#000000" width="1603.7" zoomAndPan="magnify" contentStyleType="text/css" viewBox="51.8 0.2 1603.7 1706.8" height="1706.8" preserveAspectRatio="xMidYMid meet" version="1"><g id="change1_1"><path fill="#8ca762" d="M1550.6,1353.7c-0.9,4.3-2.4,8.1-2.7,12c-0.9,12.7-2.5,25.5-1.5,38.1c0.6,7.1,0.7,14.2,1.5,21.3 c0.9,8.6,2.4,17.1,3.6,25.7c1.2,8.2,2.3,16.5,3.8,24.7c1.3,7.1,2.4,14.3,4.8,21c4.8,13.6,10.9,26.8,15.7,40.4 c2.9,8.4,4.6,17.2,6.7,25.9c0.8,3.3,1.8,6.7,1.8,10c0.3,21.4-1.6,42.4-10.5,62.3c-7.2,16.1-16.1,30.9-31.4,40.8 c-6.6,4.3-13,8.9-20.7,11.2c-6.9,2-13.4,5.7-20.4,7.3c-11.7,2.6-23.5,5.1-35.6,1.2c-6.3-2-13.1-2.4-19.5-4c-4-1-7.9-2.8-11.7-4.6 c-23.6-11.4-47-23.2-70.8-34.1c-11.3-5.2-23.1-10.4-35.1-12.3c-18-2.9-35.5,1-50.4,12.5c-11.3,8.7-22.3,17.7-33.8,26.1 c-5.6,4.1-11.7,8-18.1,10.5c-14.3,5.6-28.8,10.7-43.5,15c-6.6,1.9-13.8,1.8-20.8,2c-11.3,0.3-22.5,0-33.8,0.1 c-10.8,0.2-21.2-1.7-31.8-3.4c-14.3-2.4-27.8-7.2-41.2-11.9c-12.2-4.3-23.6-11.1-35-17.3c-12.3-6.7-24.2-14-36.5-20.8 c-13.3-7.4-26.4-15.4-40.3-21.7c-16-7.3-32.3-14.7-49.9-17.7c-10.2-1.8-20.4-3.4-30.5-5.7c-13.8-3.1-27.8-2.5-41.6-4.1 c-20-2.3-40,0.3-59.8-1.9c-12.1-1.3-24.4-2-36.5-5.7c-13.5-4.2-26.6-9.2-37.7-17.6c-15.4-11.7-28.5-25.8-31.2-46.1 c-1.7-12.9,0-25.8,7.6-36.6c4.5-6.4,10.9-11.5,16.6-16.9c13.6-12.8,30.5-19.5,47.8-25.1c10.7-3.5,21.8-5.5,32.7-8.4 c14.8-3.9,30-4.2,45-6c22.2-2.7,44.3-1,66.4-1.3c10.4-0.1,20.9,2.3,31.3,3.5c0.5,0.1,0.9,0,1.4,0c9.1,0.6,18.3,0.9,27.4,2 c12.7,1.5,25.4,3.7,38,5.5c0.3,0,0.6,0,0.9,0c12.3,0.6,24.6,0.5,36.8,2.1c14.5,1.8,28.9,2.1,43.4,1.5c9.2-0.4,18.5-1.9,27.5-3.7 c7.7-1.5,15.3-3.8,22.6-6.6c5.7-2.2,11.1-5.2,16.1-8.7c5.1-3.5,10.1-7.5,14-12.2c4-4.7,7.8-9.7,9.1-16.4c0.7-3.8,1.2-7-1.3-9.8 c-2.5-2.7-5.6-5.1-8.7-7.1c-9.5-6-20.2-7.7-31.1-7.5c-12.4,0.2-24.9,0.6-37.2,2c-9.6,1-19.1,3.7-28.7,5.4c-10.5,2-21,3.7-31.5,5.7 c-5.6,1.1-11,2.8-16.6,4c-8.5,1.9-17,3.5-25.5,5.3c-6.1,1.2-12.1,2.5-18.2,3.7c-0.6,0.1-1.2,0.1-1.8,0.1 c-25.5,0.3-51.1,0.8-76.6,0.9c-10.4,0.1-20.7-0.2-31.1-1c-10-0.8-19.9-2.4-29.9-3.6c-0.3,0-0.6,0-0.9,0c-11.8-0.6-23.6-1-35.4-2 c-8.1-0.7-16.2-2.4-24.3-3.6c-0.3,0-0.6,0-0.9-0.1c-9.1-0.6-18.3-0.9-27.4-2c-25.1-3-50.2-1.7-75.3-1.6c-9.3,0.1-18.7,2.3-28,3.6 c-7.1,0.9-14.3,1.5-21.4,2.9c-21,4-41.6,9.4-61.5,16.9c-16.1,6.1-31.9,13-47.7,19.8c-9.4,4.1-18.7,8.5-28,13 c-28.3,13.5-56.8,26.9-84.9,40.8c-30.8,15.3-61.1,31.5-92,46.5c-9.6,4.7-20.1,7.8-30.5,10.1c-15.1,3.2-29.3,1.2-41.5-10 c-9.1-8.3-15.1-18.3-18.4-30c-1.3-4.7-2-9.6-2.6-14.4c-0.4-3.6,0.1-7.2-0.1-10.8c-1.2-19.6,3-38.3,9.8-56.5 c9.2-25,21.3-48.8,33.6-72.5c6.2-11.9,13.8-23,20.1-34.9c5.2-9.8,9.3-20.2,13.7-30.5c2.9-6.7,3.2-13.7,0.7-20.6 c-0.8-2.2-2.4-4.1-3.9-5.9c-10.5-12.8-24.3-21.1-39.3-27.3c-11.2-4.7-22.7-8.7-34.4-12.2c-14.3-4.3-28.9-7.3-43.1-11.5 c-9.1-2.7-17.9-6.6-26.7-10.2c-11.3-4.8-21.8-11.1-30-20.4c-7.4-8.3-12.3-17.9-15.2-28.9c-2.1-7.8-2.6-15.8-1.3-23.2 c2-11.5,4.7-23.2,12.5-32.8c4.8-5.9,9-12.4,14.7-17.3c10.7-9,22.1-17.3,33.6-25.3c6.3-4.4,13.3-7.8,20.3-11c11.7-5.4,24-9.5,36.4-13 c6.7-1.9,13.5-3.8,20.3-5.3c4.8-1.1,9.7-1.4,14.6-2.2c7.2-1.2,14.3-2.5,21.5-3.7c1.2-0.2,2.5,0,3.8,0c13.6,0,27.2,0.1,40.8,0 c11.7-0.1,23.2,1.4,34.6,3.7c5.7,1.1,11.7,1,17.5,2.1c6.2,1.1,12.3,2.9,18.4,4.3c10,2.3,20,4.5,30,6.9c5.1,1.3,10,3.1,15,4.6 c20.4,6.1,40.1,14.2,59.6,22.6c15.7,6.8,31.3,13.5,46.8,20.6c8.4,3.8,16.7,8.1,24.8,12.6c10.4,5.7,20.5,11.7,30.8,17.5 c16.1,9.2,32.2,18.3,48.2,27.6c14.5,8.4,28.8,17.2,43.4,25.5c11.2,6.4,22.8,12.1,34.3,18.1c8.5,4.5,16.8,9.3,25.5,13.4 c13.8,6.4,27.6,12.6,41.7,18.2c14.4,5.7,29.1,10.6,43.7,15.7c12.1,4.2,24.1,8.3,36.4,11.9c11.1,3.2,22.4,5.7,33.6,8.4 c7,1.7,13.9,3.4,21,4.9c4.8,1,9.6,1.8,14.4,2.6c3.6,0.6,7.4,1,10.9,1.9c11.5,3.1,23.5,1.3,34.9,3.2c8.8,1.4,16.8-1.5,25.3-0.7 c8.4,0.8,16.8-1.4,24.9-4.3c9-3.2,18.8-4.7,27.2-9c11.7-5.9,22.9-12.8,30.8-24.3c5-7.4,10.2-14.5,12.2-23.1c1.7-7.1,5.2-14,1.8-21.8 c-1.9-4.2-1.5-9.4-3.3-13.6c-4.4-10.5-13.1-17-22.5-22.9c-11.9-7.5-25-12.4-38.3-16.2c-10-2.9-20.5-4.1-30.8-6.3 c-16.1-3.4-32.5-2.7-48.6-4.2c-10-0.9-20.1-2.3-29.7-1c-15,1.9-30,0-44.8,1.7c-32.4,3.7-64.9,0.7-97.4,1.6 c-7.2,0.2-14.6-0.8-21.7-1.8c-10.2-1.5-20.3-4.2-30.6-5.4c-16.3-1.9-31.8-6.8-47.6-10.9c-30.7-8-59.4-20.7-87-35.8 c-15.3-8.3-29.9-17.9-44.5-27.5c-13-8.5-25.6-17.7-38.2-26.8c-17-12.4-34.1-24.6-50.6-37.6c-17.9-14.1-36.8-26.4-57.6-35.6 c-10.3-4.5-21.1-7.4-32.4-9.3c-9.7-1.7-19.3-1.7-28.8-1.3c-9.5,0.4-19,2.3-28.5,3.6c-4.9,0.6-9.8,1.2-14.7,1.9 c-3.1,0.5-6.1,1.1-9.1,1.9c-6.1,1.5-12.1,3.2-18.3,4.7c-9.4,2.3-18.8,4.3-28.3,6.6c-10.8,2.6-21.5,5.5-32.4,7.9 c-10.8,2.3-21.9,3.6-32.6,6.4c-8.4,2.2-16.8,2.4-25.1,1.5c-15.5-1.7-30.3-5.6-43.1-16.1c-14.6-12-22.4-27.5-27.8-44.8 c-2.3-7.4-3.1-15.1-4.2-22.8c-1.2-8.3-1.3-16.4-1.5-24.6c-0.2-10.9,1.3-21.6,3.7-32.3c1.5-6.8,2.6-13.7,3.8-20.5 c2.2-12.7,6.1-24.8,10.8-36.9c7.7-19.8,16.5-39,27.3-57.2c7.4-12.3,14.9-24.5,22.6-36.6c8.7-13.7,18.4-26.7,26.3-40.8 c6.2-11.1,12.2-23,10.5-36.4c-1.1-8.9-3.7-17.8-6.5-26.4c-2.8-8.5-6.7-16.6-10.2-24.9c-3.3-7.9-6.3-15.9-9.9-23.6 c-4-8.5-8.5-16.8-12.6-25.3c-5.1-10.7-10.8-21.2-14.9-32.3c-6-16.3-12.9-32.7-15.6-49.7c-3.5-21.5,0.4-42.6,13.5-61.3 c13.1-18.7,31.5-28.7,53.2-33.3c6.8-1.4,13.7-3.6,20.5-3.5c9.5,0.2,19,1.9,28.5,3.6c8.5,1.5,17.4,2.5,25.3,5.8 c14.2,5.8,27.9,12.8,41.5,20c8,4.3,15.4,9.8,22.8,15.2c7.4,5.4,14.9,10.8,21.6,17c16.7,15.5,33.2,31.3,49.3,47.5 c6.7,6.7,12.2,14.6,18.4,21.9c5.5,6.5,11.2,12.8,16.5,19.4c5,6.2,9.4,12.7,14.4,18.9c5.8,7.3,11.9,14.5,17.9,21.7 c6.9,8.4,13.7,16.9,20.6,25.3c6.2,7.5,12.5,14.8,18.6,22.4c6.1,7.5,12.1,15,17.9,22.6c8.5,11.1,16.9,22.4,25.2,33.7 c3.9,5.2,7.6,10.6,11.3,16c9.4,13.5,18.9,26.9,28.2,40.4c12.3,17.9,24.6,35.8,36.9,53.7c9.7,14.1,19.2,28.4,29.3,42.3 c11.7,16.2,23.9,32,35.8,48.1c10.1,13.6,19.7,27.6,30,41c7.2,9.4,15.6,17.9,23.1,27.1c14.7,18.2,30.6,35.2,47.6,51.1 c12.8,11.9,26.2,23.2,39.8,34.2c10.8,8.7,21.7,17.4,33.4,24.8c12,7.6,25.1,13.8,39.9,13.3c8.5-0.3,16.1-3.5,23.3-8.2 c8.3-5.5,14.4-12.4,16.9-22.2c1.5-5.8-0.7-11.4-3.2-16.1c-4.9-9-10.5-17.7-16.6-26c-6.9-9.4-14.5-18.2-22.1-27 c-6.4-7.3-13.2-14.3-20.2-21.1c-7.6-7.4-15.5-14.5-23.4-21.6c-4.3-3.9-8.8-7.4-13-11.3c-2.2-2.1-3.8-4.8-6.1-6.8 c-9.5-8.7-19.6-16.8-28.6-26c-11.3-11.6-24.3-21.5-33.1-35.5c-2.9-4.5-7.9-7.5-11.3-11.7c-8.7-10.5-17.4-21.1-25.5-32.1 c-9-12.1-17.6-24.5-25.9-37.2c-7.8-11.9-14.9-24.1-22.3-36.3c-7.1-11.7-14.3-23.5-21.2-35.3c-7.2-12.2-13.8-24.7-21.3-36.7 c-10-16.2-20.1-32.5-31-48.2c-9.4-13.6-20.2-26.4-30-39.7c-16.7-22.6-36.3-42.6-56.6-61.9c-7.8-7.5-16.7-13.8-25.2-20.7 c-7.8-6.3-15.7-12.7-23.6-18.9c-7.8-6.1-15.7-12-23.5-18c-5.9-4.6-11.7-9.3-17.8-13.8c-8.2-6.1-16.6-12-24.9-18.1 c-5.9-4.3-11.8-8.6-17.6-13.1c-8.1-6.3-16.1-12.7-23.9-19.3c-7.1-5.9-14.7-11.6-20.9-18.4c-7.7-8.5-14.7-17.8-21.2-27.3 c-7.3-10.6-10.4-22.9-13.4-35.3c-3.1-12.7-2.8-25.7-1.3-38.2c2.1-17.2,8.5-33.4,19-47.9c6.7-9.3,14-17.7,22.5-25.4 c5.5-5,11-9.9,17.5-13.5c11.8-6.5,23.5-13.5,37-16.1c10.5-2,21.1-3.2,31.4-5.8c10.6-2.7,21.1-0.9,31.7-1.8c11.6-1,23.2-1.7,34.6-3.9 c9.3-1.8,18.4-5.4,27.4-8.5c18.5-6.4,35.8-15.4,51.9-26.5c14.1-9.7,28.1-19.7,42.4-29.1c10.1-6.6,20.8-13.3,32.6-15 c11.8-1.7,24.1-1.6,35.8,3.7c12.1,5.5,23.7,11.5,33.9,20.1c6.3,5.3,13.2,10.4,18.3,16.7c8.6,10.6,16.6,21.7,23.9,33.2 c6.4,10.2,12.3,20.8,16.9,31.9c6.1,14.7,10.7,30,15.8,45.1c1.8,5.4,3.4,10.8,4.7,16.4c1.8,7.3,3.1,14.7,4.8,22c1,4.5,2.5,9,3.5,13.6 c0.9,4.1,1.4,8.2,2.1,12.3c1.8,10,3.8,20,5.5,30.1c0.8,4.9,1.2,9.8,2,14.7c1.1,7.3,2.4,14.6,3.7,21.9c0.1,0.5,0,0.9,0.1,1.4 c1.2,11.7,2.2,23.4,3.8,35c1.8,12.8,4.4,25.4,6.5,38.1c2,12.2,3.6,24.4,5.7,36.6c1.2,7.2,3.2,14.3,4.6,21.5 c1.1,5.8,1.9,11.7,2.9,17.6c0.6,3.5,1.1,7,1.9,10.5c2.4,10.3,5.1,20.4,7.4,30.7c2.7,12.2,4.9,24.5,7.7,36.7 c1.4,6.2,3.7,12.3,5.3,18.5c3.3,13.3,6.3,26.8,9.8,40.1c2.4,9.3,5.7,18.3,8.3,27.5c3.3,11.5,6.1,23.1,9.5,34.6 c4.8,16.3,9.5,32.6,15.1,48.7c7.7,22.2,16.2,44,24.1,66.1c6.3,17.6,14.9,34,24.8,49.8c5.2,8.3,11,16.6,17.9,23.5 c9.9,9.7,21.6,17.4,36,19.4c7.8,1.1,16.3-7.2,18.2-12.5c4.5-12.6,3.2-25.4,1.4-38.5c-2.8-20.8-10.8-40-16.5-59.9 c-3.3-11.7-8.3-22.8-12.2-34.4c-4.2-12.7-8.6-25.3-11.8-38.3c-2.8-11.2-3.9-22.8-5.9-34.2c-1.7-9.9-3.8-19.7-5.5-29.6 c-0.9-5-1.3-10.1-2-15.2c-1.2-8.4-2.5-16.8-3.7-25.2c-0.6-4.4-1.3-8.9-1.9-13.3c-0.7-5.7-1.1-11.4-1.9-17.1c-1-7.4-2.3-14.7-3.5-22 c-0.7-4.4-1.5-8.8-2.1-13.2c-1.3-10.4-2.4-20.9-3.8-31.3c-0.7-5-1.9-9.9-2.8-14.8c-0.4-2-0.6-4.1-0.9-6.2 c-0.9-6.2-1.9-12.4-2.8-18.5c-0.9-6-1.9-12-2.8-18.1c-1.3-9.3-2.5-18.7-3.8-28c0-0.3,0-0.6,0-0.9c-0.6-12.1-1.5-24.2-1.8-36.3 c-0.3-11.3-0.3-22.5,0-33.8c0.3-11.5,0.5-23,2-34.4c1.6-12.1,4.7-24,7.2-35.9c1.9-8.9,3.4-17.9,5.8-26.7c2.3-8.5,5.5-16.8,8.5-25.1 c3.7-10.4,7-20.9,11.3-31c5.4-12.8,10.8-25.7,17.4-37.8c9.5-17.5,19.5-34.9,34.3-48.7c7-6.6,13.3-14.1,20.6-20.3 c6.6-5.6,14-10.4,21.4-15c6.9-4.3,13.9-8.6,21.4-11.7c10.9-4.4,22.1-8,33.3-11.3c5.8-1.7,12-2.8,18-2.8c13.2,0.1,26.6-0.3,39.5,2 c17.7,3.2,34.9,8.6,50.8,17.6c11.9,6.8,23.4,13.9,33.6,23.3c11.2,10.3,20.9,21.4,28.6,34.6c8.2,14.1,13.8,29.1,17.7,44.8 c1.4,5.6,1.6,11.5,3,17.1c3.7,14.8,1.2,29.9,1.6,44.8c0.2,6-1.5,12.1-2.7,18.1c-1.4,6.9-2.8,13.8-4.7,20.6 c-3,11.1-5.9,22.2-9.7,33.1c-4.7,13.5-9.9,26.9-15.7,39.9c-3.7,8.3-8.8,16.1-13.4,24c-8,13.8-15.7,27.7-24.1,41.2 c-9.9,15.7-20.8,30.8-30.5,46.5c-9.4,15.1-17.8,30.8-26.6,46.2c-4,7-8.3,13.8-11.5,21c-6.2,13.8-12,27.9-17.5,42 c-3.5,9-6.6,18.3-9.4,27.6c-3.7,12.7-7,25.6-10.3,38.4c-0.7,2.7-0.7,5.7-1,8.5c-0.9,7.9-2.2,15.8-2.7,23.7 c-0.7,10-1.2,20.1-0.9,30.1c0.4,9.9,2,19.7,6.8,28.6c4.5,8.2,9,16.6,14.7,23.9c4.8,6,11.1,11,17.3,15.6c8.9,6.7,18.9,2.1,24.8-3.3 c13.2-12.1,25.2-25.2,34.9-40.4c7.8-12.1,15.5-24.3,23.4-36.3c16.3-25.1,28.4-52.3,41.2-79.2c8.9-18.8,16.1-38.4,23.5-57.8 c5.4-14,10.6-28.2,15-42.6c5.2-17.3,9.4-34.9,14.3-52.3c2.3-8.3,5.1-16.4,7.4-24.6c4.2-14.9,7.7-29.9,12.4-44.7 c4.8-15.2,10-30.3,16-45c5.9-14.7,12.4-29.4,19.8-43.4c5.8-11,13.3-21.1,20-31.6c8.4-13.3,18.6-25.3,30.3-35.7 c9.5-8.4,19-17.1,31.4-21.5c5.6-2,10.8-5,16.5-6.6c6.4-1.8,13-3.1,19.6-3.5c15.5-0.9,30.6,0.5,45.7,5.1c15.3,4.7,29.4,11.4,42,20.9 c11.9,8.9,21.5,20,29,32.9c8,13.8,14.1,28.3,17.8,43.8c2.2,9.1,4.4,18.2,6.6,27.3c0.1,0.3,0,0.6,0,0.9c0.6,15.2,1.8,30.5,1.7,45.7 c-0.1,9.7-2.4,19.3-3.5,29c-0.8,6.3-1.1,12.6-2,18.9c-0.7,5-1.8,9.9-2.8,14.8c-1.8,9.1-3.6,18.2-5.7,27.2c-1.3,5.7-3,11.3-4.7,16.8 c-3.7,11.9-7.2,23.9-11.3,35.7c-3.9,11-8.3,21.9-13.1,32.6c-8.1,17.8-16.5,35.5-25.4,52.8c-4.9,9.6-11.1,18.6-16.8,27.8 c-9,14.4-18,28.9-27.3,43.1c-5.3,8.1-11.3,15.7-16.9,23.5c-5.6,7.8-11.1,15.8-16.9,23.5c-6.9,9.2-14,18.3-21,27.5 c-5.5,7.1-11,14.2-16.5,21.3c-7.5,9.7-15.1,19.4-22.6,29.1c-5.6,7.2-11.2,14.5-16.8,21.7c-5.5,7.1-11.1,14.2-16.7,21.2 c-4.6,5.9-9.4,11.7-13.9,17.7c-6,8-11.9,16-17.6,24.2c-11.8,16.7-23.7,33.3-35.1,50.2c-11.8,17.6-22.7,35.7-31.5,55 c-6.2,13.6-11.4,27.5-14.9,42.2c-3.3,13.5-5.8,26.9-5.5,40.9c0.2,10,0.7,19.8,3.8,29.5c2.7,8.6,4,17.7,7.1,26.2 c6.8,18.2,15.1,35.6,26.7,51.4c6.9,9.4,13.7,18.4,23.4,25.5c11.1,8.1,33.6,7.2,44.4-1.4c11.5-9.2,17.1-21.5,23.2-33.7 c4.6-9.2,6.4-19.3,7.8-29.7c3.8-29,0.3-58,1.9-87c0.5-8.5,2.7-16.9,4.9-25.1c2.5-9.5,8.2-17.3,15.9-23.4c5.5-4.4,11.6-7.7,18.8-7.7 c8.5,0.1,17,0.1,25.4,1c11.1,1.3,20.9,6.7,29.7,13c8.6,6.2,16.6,13.5,24,21.1c5.7,5.8,10.9,12.5,14.9,19.6 c6,10.7,11.3,21.9,15.6,33.4c4.8,12.8,8.9,25.9,11.8,39.2c2.5,11.3,2.2,23.1,4.1,34.5c3.6,21.3,1,42.7,1.6,64 c0.2,6.2-1.4,12.4-2.7,18.5c-2.6,11.7-5.1,23.5-8.5,35c-2.8,9.3-6.8,18.1-10.3,27.2c-1.8,4.7-3.9,9.3-5.5,14.1 c-2.4,7.3-4.6,14.7-6.6,22.1c-2.9,10.8-5.6,21.8-8.5,32.6c-2.4,9.2-4.9,18.3-7.3,27.5C1551.2,1348,1551,1350.7,1550.6,1353.7z"/></g></svg>