<?xml version="1.0" encoding="UTF-8" standalone="no"?><svg xmlns="http://www.w3.org/2000/svg" xmlns:xlink="http://www.w3.org/1999/xlink" contentScriptType="text/ecmascript" zoomAndPan="magnify" contentStyleType="text/css" id="Illustration" version="1.1" xml:space="preserve" width="294.9" fill="#000000" preserveAspectRatio="xMidYMid meet" viewBox="0.0 0.0 294.9 500.0" height="500" x="0" y="0"><g><g id="change1_1"><path fill="#05938f" d="M147.4291534,1.071068c-80.7019501,0-146.3582153,65.6562653-146.3582153,146.3582001 c0,36.7803192,13.6969109,71.938858,38.5678635,98.9990082c24.7198105,26.8954163,58.2910995,43.5001221,94.5296097,46.7551575 l0.9753571,0.0878601v1.0637512c-0.3566742-0.029541-0.7151794-0.0528259-1.0713348-0.0847168v12.3946838 c0.3561554,0.0318909,0.7146606,0.0551758,1.0713348,0.0847168v24.4196167h-0.7724457 c-0.1006775,0-0.1986084,0.0120239-0.2988892,0.0143738c-5.9619904,0.1401672-10.9405289,4.4207764-12.0716095,10.1581726 h1.1010132c-0.0151672,0.0695496-0.0366135,0.1370239-0.0504684,0.2070923l-0.1699677,0.8639526h-1.1040192 c-0.2954865,0-0.5355301,0.2400513-0.5355301,0.535553c0,0.2766418,0.2196503,0.5083313,0.4994431,0.5266418l1.0695038,0.0711365 l-0.0674667,1.0088196h-0.96595c-0.0366058,0-0.0708618-0.0083618-0.1069489-0.0107117l-9.2596664,138.3539429 c0.1785965-0.068512,0.3705292-0.1100769,0.5731888-0.1100769h0.5076828l-0.0579147,0.8650208l-0.6396103,0.244751 c-0.2102432,0.0805359-0.3456955,0.2756042-0.3456955,0.4968262c0,0.193512,0.1061707,0.3671265,0.2834625,0.4644165 l0.5993347,0.328949l-0.0546494,0.8132324h-0.2926102c-0.2795334,0-0.538414-0.0776672-0.7672195-0.2031555l-0.0505981,0.7564697 C111.6784592,493.821228,117.4574127,500,124.7602158,500h45.3380051c7.3027954,0,13.0817413-6.178772,12.5941925-13.4652405 l-0.0505981-0.7562256c-0.2288055,0.1252441-0.4875488,0.2029114-0.7669525,0.2029114h-0.2928619l-0.0538788-0.8137512 l0.5988159-0.3284302c0.1778259-0.09729,0.2834625-0.2709045,0.2834625-0.4644165 c0-0.2212219-0.1359711-0.4162903-0.3462219-0.4968262l-0.6396027-0.244751l-0.0579224-0.8650208h0.5082092 c0.2025299,0,0.3943329,0.0415649,0.572937,0.1098328l-9.2596741-138.3536987 c-0.0359497,0.0023499-0.0700836,0.0107117-0.1066895,0.0107117h-0.9659424l-0.0674744-1.0088196l1.0695038-0.0711365 c0.2798004-0.0183105,0.4994507-0.25,0.4994507-0.5266418c0-0.2955017-0.2400513-0.535553-0.5355377-0.535553h-1.104538 l-0.1699677-0.8639526c-0.013855-0.0700684-0.0353088-0.1375427-0.0504608-0.2070923h1.1012573 c-1.131073-5.7373962-6.1096039-10.0180054-12.0716095-10.1581726c-0.1002808-0.0023499-0.1982117-0.0143738-0.2988739-0.0143738 h-0.7721863v-24.4196167c0.3566742-0.029541,0.7151794-0.0528259,1.0710602-0.0847168v-12.3946838 c-0.3558807,0.0318909-0.714386,0.0551758-1.0710602,0.0847168v-1.0637512l0.9753571-0.0878601 c36.2384949-3.2550354,69.8097992-19.8597412,94.5290833-46.7551575 c24.8709564-27.0601501,38.5678558-62.218689,38.5678558-98.9990082 C293.7873535,66.7273331,228.1311035,1.071068,147.4291534,1.071068z M147.4291534,263.2165527 c-63.8451843,0-115.7867508-51.9420929-115.7867508-115.7872772S83.5839691,31.6425304,147.4291534,31.6425304 s115.7872772,51.9415741,115.7872772,115.7867432S211.2743225,263.2165527,147.4291534,263.2165527z M71.9418564,197.5963745 c1.8006287,2.7032928,1.0658417,6.3678284-1.6374512,8.1689911c-0.9711838,0.6463928-2.0982056,0.9878998-3.2592316,0.9878998 c-1.9789658,0-3.8141098-0.9816284-4.9092331-2.625885c-5.5661049-8.3572693-9.8561287-17.4524536-12.7513618-27.0319214 c-0.9392738-3.1096497,0.8257904-6.4039154,3.9349213-7.3437195c0.5580215-0.168396,1.1322594-0.2541656,1.7080612-0.2541656 c2.5725517,0,4.8898849,1.722702,5.6356583,4.1890869C63.2232208,182.1584473,67.0179825,190.2029724,71.9418564,197.5963745z M153.3200226,50.9118195c0,3.2482452-2.6426239,5.8908768-5.8908691,5.8908768 c-17.1182709,0-33.784668,4.7947006-48.1985931,13.8653107c-26.5669861,16.7187042-42.4279976,45.4142303-42.4279976,76.7612686 c0,3.2482452-2.6426277,5.8908844-5.890873,5.8908844s-5.8908768-2.6426392-5.8908768-5.8908844 c0-35.4205551,17.9194717-67.8444214,47.9350052-86.7335052c16.2950897-10.2546387,35.13134-15.6748276,54.4733353-15.6748276 C150.6773987,45.0209465,153.3200226,47.6635742,153.3200226,50.9118195z"/></g><g id="change2_1"><path fill="#f96340" d="M147.4292755,0C66.0062714,0,0,66.0066605,0,147.4292755 c0,76.9197388,58.9100533,140.0696259,134.0724335,146.8210602c4.4005127,0.3951111,8.8534393,0.6087341,13.356842,0.6087341 s8.9563446-0.213623,13.356842-0.6087341c75.1625214-6.7514343,134.0723114-69.9013214,134.0723114-146.8210602 C294.858429,66.0066605,228.8522949,0,147.4292755,0z M147.4292755,270.7914429 c-68.1308823,0-123.3618851-55.2311401-123.3618851-123.3621674c0-68.1304932,55.2310028-123.361618,123.3618851-123.361618 s123.3620148,55.2311287,123.3620148,123.361618C270.7912903,215.5603027,215.5601654,270.7914429,147.4292755,270.7914429z"/></g><g id="change3_1"><path fill="#97e7dc" d="M72.8335419,197.0027924c2.1311569,3.200119,1.2645721,7.522049-1.9355545,9.6537323 c-1.1861267,0.7897034-2.5270538,1.1678162-3.8528137,1.1678162c-2.2509155,0-4.4594688-1.0893707-5.8009186-3.1033783 c-5.6241531-8.4451141-9.959156-17.635498-12.8847198-27.3159027c-1.1123848-3.6807404,0.9696083-7.565979,4.6503601-8.67836 c3.6807518-1.1139526,7.5659866,0.9696045,8.6783714,4.6503601 C64.2179337,181.7479095,67.96772,189.6967163,72.8335419,197.0027924z M147.4291534,43.9498787 c-19.5438614,0-38.5778046,5.4771957-55.0439072,15.8395691c-30.3288002,19.0862465-48.4355011,51.848484-48.4355011,87.6398315 c0,3.8449707,3.1169777,6.9619446,6.9619446,6.9619446s6.9619408-3.1169739,6.9619408-6.9619446 c0-30.9767685,15.6737862-59.3334045,41.9275017-75.8549423c14.2423859-8.9628716,30.7121429-13.7005692,47.6280212-13.7005692 c3.8449554,0,6.9619446-3.1169777,6.9619446-6.9619446S151.2741089,43.9498787,147.4291534,43.9498787z"/></g><g id="change4_1"><path fill="#facb01" d="M134.0724335,341.3218994h26.7136841h12.0716095h0.2237091 c0.8874969,0,1.6065979,0.7190857,1.6065979,1.6065979c0,0.8508911-0.6631317,1.5401917-1.4999084,1.5958862 c-0.0359497,0.0023499-0.0700836,0.0107117-0.1066895,0.0107117h-12.2953186h-26.7136841h-12.2950516 c-0.0366058,0-0.0708618-0.0083618-0.1069489-0.0107117c-0.8366394-0.0559692-1.4996567-0.7449951-1.4996567-1.5958862 c0-0.8875122,0.719101-1.6065979,1.6066055-1.6065979h0.2234421H134.0724335z M182.4477997,482.8780823 c-0.1786041-0.0682678-0.3704071-0.1098328-0.572937-0.1098328h-68.8909073c-0.2026596,0-0.3945923,0.0415649-0.5731888,0.1100769 c-0.6032639,0.2311707-1.0334167,0.811676-1.0334167,1.496521c0,0.6079712,0.341507,1.1307068,0.839386,1.4034424 c0.2288055,0.1254883,0.4876862,0.2031555,0.7672195,0.2031555h68.8909073c0.2794037,0,0.538147-0.0776672,0.7669525-0.2029114 c0.4981384-0.2729797,0.8396454-0.7954407,0.8396454-1.4036865 C183.4814606,483.6897583,183.051178,483.1092224,182.4477997,482.8780823z M270.7912903,147.4292755 c0,68.1310272-55.2311249,123.3621674-123.3620148,123.3621674S24.0673923,215.5603027,24.0673923,147.4292755 c0-68.1304932,55.2310028-123.361618,123.3618851-123.361618S270.7912903,79.2987823,270.7912903,147.4292755z M262.1453552,147.4292755c0-63.3556595-51.3600159-114.7156754-114.7160797-114.7156754 S32.7132072,84.073616,32.7132072,147.4292755c0,63.3561859,51.3600121,114.7162018,114.7160645,114.7162018 S262.1453552,210.7854614,262.1453552,147.4292755z M160.7861176,331.1637268v-24.5187073 c-4.4004974,0.3953552-8.8534393,0.6087341-13.356842,0.6087341s-8.9563293-0.2133789-13.356842-0.6087341v24.5187073 c0.1002808-0.0023499,0.1982117-0.0143738,0.2988892-0.0143738h26.115921 C160.5879059,331.149353,160.6858368,331.161377,160.7861176,331.1637268z"/></g></g></svg>