<?xml version="1.0" encoding="UTF-8" standalone="no"?><svg xmlns="http://www.w3.org/2000/svg" xmlns:xlink="http://www.w3.org/1999/xlink" contentScriptType="text/ecmascript" fill="#000000" width="417.7" zoomAndPan="magnify" contentStyleType="text/css" viewBox="41.5 150.1 417.7 201.2" height="201.2" preserveAspectRatio="xMidYMid meet" version="1"><g><g id="change1_1"><path fill="#8d4926" d="M 458.679688 321.398438 C 458.152344 326.308594 456.542969 330.25 453.9375 334.070312 L 453.929688 334.078125 C 452.289062 336.421875 450.28125 338.496094 447.988281 340.210938 L 447.980469 340.210938 C 447.09375 340.917969 445.246094 342.058594 444.523438 342.421875 C 442.875 343.316406 440.753906 344.171875 438.699219 344.710938 C 432.957031 346.242188 442.726562 345.59375 249.328125 345.59375 C 250.625 344.300781 249.777344 345.144531 253.527344 341.386719 C 251.457031 338.054688 252.84375 340.285156 246.578125 330.195312 C 249.757812 340.148438 249.394531 339.007812 249.777344 340.210938 L 233.113281 345.59375 L 69.140625 345.59375 C 60.984375 345.59375 53.324219 341.652344 49.234375 336.753906 C 43.5 330.550781 42.203125 323.878906 42.203125 316.429688 L 42.277344 316.429688 C 42.742188 311.519531 44.191406 303.363281 45.117188 298.773438 C 43.109375 293.042969 43.75 294.871094 42.203125 290.460938 C 42.203125 290.039062 42.183594 226.457031 42.234375 226.039062 C 42.613281 224.007812 44.152344 215.738281 43.558594 213.941406 C 42.613281 210.234375 42.378906 208.609375 42.203125 207.777344 C 42.203125 177.34375 42.085938 177.691406 42.535156 174.820312 C 44.28125 162.613281 55.355469 152.109375 69.140625 152.109375 L 118.152344 152.109375 C 116.347656 154.585938 116.324219 154.660156 111.859375 160.855469 C 116.6875 157.953125 114.269531 159.410156 123.117188 154.082031 L 123.125 154.082031 L 126.390625 152.109375 L 403.753906 152.109375 C 400.304688 154.207031 392.238281 159.214844 391.921875 159.40625 L 410.234375 152.109375 C 431.246094 152.109375 441.839844 150.101562 451.613281 160.765625 C 454.9375 164.253906 457.394531 169.597656 457.394531 170.429688 C 458.144531 172.734375 458.65625 174.851562 458.796875 177.921875 C 458.835938 178.753906 458.90625 319.144531 458.679688 321.398438"/></g><g id="change2_1"><path fill="#783d1e" d="M 400.226562 345.597656 L 325.3125 345.597656 C 350.824219 351.253906 374.929688 348.988281 400.226562 345.597656"/></g><g id="change2_2"><path fill="#783d1e" d="M 313.785156 210.972656 C 301.839844 210.273438 289.527344 210.417969 277.203125 210.558594 C 260.078125 210.757812 242.9375 210.957031 226.746094 208.902344 C 223.8125 208.53125 209.648438 206.207031 202.589844 208.070312 C 292.152344 218.84375 259.355469 212.589844 313.785156 210.972656"/></g><g id="change2_3"><path fill="#783d1e" d="M 85.039062 155.621094 C 78.46875 154.542969 71.902344 153.464844 65.332031 152.386719 C 63.425781 152.660156 61.582031 153.128906 59.824219 153.78125 C 68.933594 154.691406 79.171875 157.738281 85.039062 155.621094"/></g><g id="change2_4"><path fill="#783d1e" d="M 95.496094 166.21875 C 57.136719 161.984375 55.441406 161.765625 49.019531 161.191406 C 48.273438 162.03125 47.574219 162.914062 46.933594 163.84375 C 71.128906 164.613281 85.691406 168.601562 95.496094 166.21875"/></g><g id="change2_5"><path fill="#783d1e" d="M 314.957031 258.71875 C 259.136719 251.789062 246.027344 253.71875 219.398438 255.648438 C 199.246094 257.109375 171.355469 258.566406 111.359375 256.191406 C 62.980469 254.273438 60.667969 252.257812 42.199219 250.886719 L 42.199219 256.359375 C 72.515625 260.484375 101.144531 267.109375 132.941406 268.300781 C 156.183594 269.167969 179.328125 267.058594 202.402344 264.945312 C 228.539062 262.554688 254.589844 260.164062 280.589844 262.105469 C 303.523438 263.820312 324.960938 268.851562 348.285156 268.804688 C 360.996094 268.78125 373.332031 267.234375 385.65625 265.980469 C 410.613281 263.4375 434.5625 263.074219 458.816406 262.894531 L 458.816406 258.011719 C 443.847656 257.949219 432.824219 259.347656 421.09375 260.746094 C 398.84375 263.402344 374.054688 266.054688 314.957031 258.71875"/></g><g id="change2_6"><path fill="#783d1e" d="M 280.742188 271.492188 C 276.125 270.996094 271.269531 271.050781 266.492188 271.109375 C 213.753906 271.738281 214.0625 276.789062 186.992188 277.992188 C 169.511719 278.769531 152.769531 276.199219 135.992188 273.628906 C 119.898438 271.164062 103.777344 268.699219 86.949219 269.1875 C 65.417969 269.816406 71.394531 271.644531 42.199219 269.105469 L 42.199219 272.710938 C 65.136719 276.0625 66.394531 271.972656 73.59375 271.058594 C 80.90625 270.128906 87.042969 273.222656 93.417969 274.941406 C 101.640625 277.152344 111.8125 277.117188 121.949219 277.078125 C 125.507812 277.066406 129.058594 277.050781 132.523438 277.136719 C 157.203125 277.734375 180.4375 283.644531 205.035156 282.625 C 223.914062 281.847656 240.6875 277.050781 259.578125 276.308594 C 273.082031 275.777344 286.109375 277.429688 301.34375 279.078125 C 327.753906 281.941406 360.785156 284.804688 414.421875 276.304688 C 431.0625 273.667969 441.773438 271.335938 458.816406 271.144531 L 458.816406 268.71875 C 435.089844 269.433594 411.621094 272.644531 388.398438 275.171875 C 312.695312 283.402344 296.640625 273.191406 280.742188 271.492188"/></g><g id="change2_7"><path fill="#783d1e" d="M 229.886719 295.136719 C 279.53125 289.410156 267.679688 286.25 303.574219 291.675781 C 325.152344 294.933594 349.101562 293.324219 373.046875 291.71875 C 389.46875 290.613281 405.886719 289.511719 421.539062 289.976562 C 430.894531 290.253906 444.648438 290.625 458.816406 290.503906 L 458.816406 286.960938 L 87.417969 287.320312 C 124.144531 293.566406 147.234375 304.671875 229.886719 295.136719"/></g><g id="change2_8"><path fill="#783d1e" d="M 327.929688 305.863281 C 321.132812 304.78125 310.671875 301.46875 303.792969 301.195312 C 295.765625 300.878906 265.742188 306.183594 274.816406 307.007812 C 293.347656 306.679688 321.152344 309.691406 338.941406 316.308594 C 352.535156 321.363281 367.796875 318.234375 383.457031 315.105469 C 393.730469 313.054688 404.175781 311.003906 414.4375 311.261719 C 427.800781 311.597656 437.808594 314.382812 458.816406 313.042969 L 458.816406 301.621094 C 396.382812 309.019531 376.894531 313.675781 327.929688 305.863281"/></g><g id="change2_9"><path fill="#783d1e" d="M 342.632812 244.652344 C 335.839844 243.566406 325.375 240.253906 318.496094 239.984375 C 310.46875 239.667969 258.808594 244.550781 258.1875 244.5625 C 276.714844 244.234375 319.460938 247.851562 336.847656 250.449219 C 351.679688 252.664062 373.085938 251.789062 393.410156 250.914062 C 406.4375 250.355469 419.023438 249.792969 429.144531 250.046875 C 436.5625 250.234375 443.921875 253.367188 451 251.769531 C 453.703125 251.160156 456.304688 250.664062 458.816406 250.25 L 458.816406 242.160156 C 410.699219 247.902344 389.910156 252.195312 342.632812 244.652344"/></g><g id="change2_10"><path fill="#783d1e" d="M 263.707031 305.351562 C 249.851562 310.277344 234.734375 314.632812 218.671875 318.308594 C 186.191406 325.769531 174 317.539062 128.539062 312.359375 C 102.539062 309.394531 73.992188 309.574219 47.390625 307.894531 C 46.089844 307.808594 44.789062 307.71875 43.496094 307.625 C 44.289062 302.867188 45.113281 298.777344 45.113281 298.777344 L 43.457031 294.046875 C 69.761719 298.234375 83.046875 300.511719 154.484375 308.226562 C 173.480469 310.273438 205.089844 314.179688 238.410156 305.335938 C 241.570312 304.496094 277.984375 292.550781 281.1875 298.011719 C 282.171875 299.675781 266.738281 304.269531 263.707031 305.351562"/></g><g id="change2_11"><path fill="#783d1e" d="M 289.488281 316.144531 C 284.441406 315.015625 279.796875 313.539062 274.304688 312.820312 C 259.054688 310.828125 243.066406 315.285156 233.582031 320.492188 C 224.882812 325.265625 210.03125 339.585938 156.484375 338.316406 C 102.929688 337.050781 65.855469 320.445312 45.117188 330.796875 C 46.25 333.027344 47.683594 335.082031 49.367188 336.902344 C 85.84375 347.78125 135.507812 345.03125 171.21875 343.222656 C 194.699219 342.03125 219.914062 340.523438 237.03125 333.9375 C 253.550781 327.585938 254.863281 322.890625 296.054688 328.84375 C 378.296875 340.726562 429.804688 330.273438 457.589844 326.679688 C 458.292969 324.441406 458.703125 322.078125 458.792969 319.636719 C 449.285156 320.472656 440.058594 321.546875 429.96875 321.871094 C 379.539062 323.492188 312.203125 321.226562 289.488281 316.144531"/></g><g id="change2_12"><path fill="#783d1e" d="M 431.878906 345.597656 C 437.90625 345.597656 443.484375 343.589844 447.984375 340.214844 C 431.753906 341.039062 415.976562 343.484375 400.226562 345.597656 L 431.878906 345.597656"/></g><g id="change2_13"><path fill="#783d1e" d="M 249.507812 339.382812 L 249.773438 340.214844 L 233.109375 345.597656 L 216.0625 345.597656 C 227.71875 344.007812 238.960938 341.921875 249.507812 339.382812"/></g><g id="change2_14"><path fill="#783d1e" d="M 325.308594 345.597656 L 286.070312 345.597656 C 274.882812 342.386719 261.90625 343.324219 250.332031 344.589844 L 253.523438 341.390625 L 251.90625 338.789062 C 261.121094 336.519531 273.191406 331.511719 298.101562 337.863281 C 307.484375 340.265625 315.574219 343.449219 325.308594 345.597656"/></g><g id="change2_15"><path fill="#783d1e" d="M 405.164062 336.105469 C 421.847656 337.550781 437.714844 336.777344 453.925781 334.082031 C 454.4375 333.347656 454.921875 332.589844 455.363281 331.804688 C 438.953125 335.921875 423.058594 336.695312 405.164062 336.105469"/></g><g id="change2_16"><path fill="#783d1e" d="M 336.789062 338.230469 C 334.835938 337.878906 324.789062 335.53125 319.828125 337.402344 C 346.003906 341.882812 358.839844 344.691406 371.109375 343.128906 C 380.546875 341.929688 387.316406 340.75 397.910156 340.300781 C 377.871094 338.632812 356.34375 341.765625 336.789062 338.230469"/></g><g id="change2_17"><path fill="#783d1e" d="M 155.265625 326.664062 C 153.835938 326.296875 146.898438 323.96875 143.441406 325.835938 C 161.886719 330.367188 170.683594 333.117188 179.191406 331.5625 C 185.769531 330.363281 190.488281 329.183594 197.875 328.734375 C 192.027344 328.039062 186 328.179688 179.96875 328.324219 C 171.585938 328.523438 163.191406 328.722656 155.265625 326.664062"/></g><g id="change2_18"><path fill="#783d1e" d="M 139.226562 322.273438 C 129.660156 324.136719 110.34375 321.8125 106.472656 321.449219 C 85.042969 319.441406 62.625 319.609375 42.222656 319.75 C 42.195312 318.507812 42.199219 319.75 42.199219 316.433594 C 76.769531 316.433594 59.71875 315.234375 139.226562 322.273438"/></g><g id="change2_19"><path fill="#783d1e" d="M 118.148438 152.109375 L 117.390625 153.152344 C 113.992188 152.660156 113.761719 152.644531 110.382812 152.109375 L 118.148438 152.109375"/></g><g id="change2_20"><path fill="#783d1e" d="M 294.527344 152.109375 C 259.941406 155.199219 251.609375 157.910156 236.652344 160.859375 C 209.59375 166.183594 202.679688 162.546875 185.664062 161.644531 C 180.457031 161.367188 175.03125 161.472656 169.636719 161.574219 C 159.914062 161.757812 150.300781 161.941406 142.285156 159.917969 C 135.378906 158.1875 133.152344 155.914062 123.121094 154.085938 L 123.113281 154.085938 L 126.390625 152.109375 L 133.660156 152.109375 C 140.128906 153.601562 146.929688 154.851562 154.152344 155.550781 C 177.523438 157.804688 225.628906 154.746094 251.164062 152.109375 L 294.527344 152.109375"/></g><g id="change2_21"><path fill="#783d1e" d="M 384.277344 156.246094 C 390.558594 155.570312 395.492188 153.777344 400.621094 152.109375 L 350.011719 152.109375 C 361.457031 154.4375 372.359375 157.535156 384.277344 156.246094"/></g><g id="change2_22"><path fill="#783d1e" d="M 451.609375 160.769531 C 388.65625 173.390625 394.195312 174.960938 346.289062 170.117188 C 256.726562 161.035156 213.578125 173.105469 184.105469 175.582031 C 147.773438 178.636719 136.628906 171.070312 125.40625 167.542969 C 111.398438 163.117188 92.277344 161.542969 77.101562 160.335938 C 88.519531 158.960938 102.019531 157.824219 113.597656 158.441406 L 111.855469 160.859375 L 115.679688 158.558594 C 148.980469 160.703125 136.492188 173.183594 196.898438 167.152344 C 212.59375 165.582031 256.597656 161.195312 265.445312 160.308594 C 272.1875 159.636719 279.019531 158.960938 285.972656 158.984375 C 293.246094 159.019531 300.175781 159.808594 307.003906 160.859375 C 320.652344 162.945312 356.359375 171.296875 403.023438 164.109375 C 416.617188 162.019531 426.167969 159.359375 446.679688 156.578125 C 446.871094 156.71875 448.910156 158.144531 449.042969 158.34375 C 449.84375 158.964844 450.964844 160.0625 451.609375 160.769531"/></g><g id="change2_23"><path fill="#783d1e" d="M 298.050781 179.644531 C 281.511719 178.34375 264.488281 176.222656 248.164062 177.90625 C 238.273438 178.925781 229.582031 181.269531 220.160156 182.851562 C 210.738281 184.433594 205.839844 182.601562 197.097656 180.476562 C 199.605469 190.300781 229.304688 181.007812 248.617188 179.980469 C 261.796875 179.28125 274.21875 178.84375 286.835938 180.53125 C 314.109375 184.179688 345.15625 184.019531 375.8125 182.875 C 400.414062 181.953125 431.878906 174.335938 457.371094 170.390625 C 456.890625 168.976562 456.296875 167.613281 455.597656 166.316406 C 448.546875 167.769531 386.828125 186.625 298.050781 179.644531"/></g><g id="change2_24"><path fill="#783d1e" d="M 343.230469 192.660156 C 337.03125 192.039062 331.507812 190.652344 325.816406 189.484375 C 295.347656 183.238281 219.863281 191.046875 223.125 191.410156 C 227.335938 191.878906 236.328125 191.285156 245.324219 190.691406 C 254.320312 190.097656 263.316406 189.507812 267.523438 189.976562 C 271.082031 190.371094 274.796875 190.773438 278.421875 190.484375 C 280.726562 190.304688 282.84375 189.851562 285.117188 189.613281 C 297.792969 188.28125 307.992188 193.515625 318.574219 196.625 C 334.875 201.417969 356.6875 201.464844 376.855469 201.1875 C 415.617188 200.65625 434.320312 199.390625 458.816406 193.988281 L 458.816406 183.683594 C 415.714844 190.117188 359.417969 194.28125 343.230469 192.660156"/></g><g id="change2_25"><path fill="#783d1e" d="M 156.65625 190.4375 C 169.203125 188.152344 181.558594 183.230469 191.53125 179.683594 C 174.96875 180.824219 136.179688 187.765625 95.339844 175.480469 C 91.207031 174.234375 87.292969 172.84375 82.699219 171.898438 C 68.972656 169.070312 50.351562 171.320312 42.316406 176.5625 C 42.167969 178.179688 42.199219 178.851562 42.199219 182.089844 C 68.972656 191.667969 130.167969 195.261719 156.65625 190.4375"/></g><g id="change2_26"><path fill="#783d1e" d="M 333.601562 206.398438 C 374.785156 207.816406 418.058594 206.648438 458.816406 202.847656 L 458.816406 200.308594 C 400.558594 206.765625 401.601562 202.441406 333.601562 206.398438"/></g><g id="change2_27"><path fill="#783d1e" d="M 156.007812 197.398438 C 170.003906 196.609375 185.652344 198.875 206.625 199.804688 C 222.113281 200.492188 237.679688 201.1875 252.691406 202.867188 C 280.167969 205.941406 306.050781 208.003906 333.601562 206.398438 C 323.1875 206.039062 312.90625 205.519531 302.835938 204.832031 C 243.339844 200.761719 193.9375 191.226562 119.199219 197.757812 C 90.402344 200.273438 81.394531 201.847656 42.199219 193.128906 L 42.199219 199.648438 C 84.632812 214.253906 128.804688 198.925781 156.007812 197.398438"/></g><g id="change2_28"><path fill="#783d1e" d="M 458.816406 207.214844 L 458.816406 213.636719 C 443.691406 216.738281 406.339844 221.316406 394.417969 220.9375 C 381.945312 220.539062 352.65625 213.515625 308.324219 219.019531 C 285.054688 221.910156 256.738281 229.3125 230.433594 225.175781 C 215.679688 222.84375 205.546875 217.195312 191.199219 214.480469 C 167.640625 210.011719 140.160156 214.4375 114.121094 214.679688 C 104.046875 214.769531 92.578125 213.941406 80.460938 213.117188 C 68.367188 212.289062 55.621094 211.464844 42.972656 211.554688 C 42.832031 210.894531 42.691406 210.253906 42.554688 209.628906 C 51.351562 209.390625 67.222656 209.027344 76.035156 209.496094 C 116.652344 211.699219 133.570312 210.566406 146.316406 209.4375 C 155.398438 208.632812 162.359375 207.828125 174.265625 208.230469 C 202.046875 209.167969 221.878906 218.4375 234.859375 220.203125 C 240.382812 220.953125 246.359375 220.921875 252.175781 220.777344 C 294.242188 219.761719 335.40625 213.246094 377.394531 214.753906 C 416.925781 216.15625 403.945312 213.191406 458.816406 207.214844"/></g><g id="change2_29"><path fill="#783d1e" d="M 458.816406 221.21875 L 458.816406 230.503906 C 400.984375 241.941406 366.3125 235.285156 341.265625 234.527344 C 299.753906 233.261719 260.78125 242.699219 219.34375 244.308594 C 157.191406 246.714844 94.796875 230.863281 71.003906 229.652344 C 60.75 229.144531 45.964844 230.335938 42.199219 230.335938 C 42.199219 223.554688 42.023438 228.5 43.257812 219.910156 C 62.617188 220.421875 86.453125 222.261719 109.164062 225.367188 C 178.015625 234.785156 188.710938 241.875 278.652344 228.269531 C 284.105469 227.445312 289.671875 226.601562 295.484375 226.519531 C 305.882812 226.359375 312.058594 227.796875 319.519531 229.238281 C 332.277344 231.695312 348.796875 234.15625 396.625 228.628906 C 417.355469 226.226562 438.0625 223.6875 458.816406 221.21875"/></g><g id="change2_30"><path fill="#783d1e" d="M 223.023438 228.316406 C 200.464844 216.058594 137.527344 216.734375 104.726562 217.410156 C 94.597656 217.621094 87.34375 217.828125 85.039062 217.65625 C 93.941406 218.320312 233.171875 233.832031 223.023438 228.316406"/></g><g id="change3_1"><path fill="#b15d31" d="M 111.855469 160.859375 C 65.253906 160.859375 65.984375 160.378906 60.371094 162.335938 L 60.363281 162.335938 C 54.328125 164.425781 48.871094 168.800781 45.53125 174.859375 L 45.53125 174.867188 C 43.269531 178.972656 42.199219 183.429688 42.199219 187.796875 C 42.199219 179.394531 41.488281 173.242188 45.605469 165.984375 C 47.628906 162.316406 50.746094 158.996094 53.945312 156.84375 C 54.171875 156.683594 54.40625 156.535156 54.628906 156.386719 C 59.738281 153.097656 64.636719 152.492188 64.636719 152.492188 C 67.855469 151.898438 68.121094 152.109375 118.148438 152.109375 C 116.320312 154.621094 116.429688 154.515625 111.855469 160.859375"/></g><g id="change3_2"><path fill="#b15d31" d="M 458.816406 187.796875 C 458.816406 176.585938 451.839844 166.765625 441.769531 162.75 C 434.875 160.015625 457.804688 160.859375 111.855469 160.859375 C 121.273438 155.195312 124.625 153.175781 126.390625 152.109375 L 403.75 152.109375 C 400.300781 154.210938 392.234375 159.21875 391.917969 159.410156 L 410.230469 152.109375 L 431.878906 152.109375 C 438.632812 152.109375 445.148438 154.785156 449.269531 158.527344 C 450.101562 158.941406 454.925781 163.523438 457.375 170.390625 L 457.394531 170.433594 C 459.1875 175.96875 458.816406 178.414062 458.816406 187.796875"/></g><g id="change3_3"><path fill="#b15d31" d="M 42.199219 247.859375 C 42.238281 219.984375 41.945312 229.042969 43.257812 219.910156 C 44.019531 214.542969 43.679688 214.546875 42.972656 211.554688 C 42.003906 207.042969 42.261719 212.128906 42.316406 176.566406 L 47.140625 171.75 C 41.828125 180.636719 44.632812 200.769531 46.472656 210.886719 C 47.4375 214.953125 42.871094 243.726562 42.199219 247.859375"/></g><g id="change3_4"><path fill="#b15d31" d="M 49.832031 169.058594 L 47.140625 171.75 C 48.429688 169.609375 49.671875 169.109375 49.832031 169.058594"/></g><g id="change4_1"><path fill="#5b2c14" d="M 42.199219 247.859375 C 263.394531 249.027344 213.910156 248.996094 288.835938 248.355469 L 314.957031 258.71875 L 458.816406 250.25 L 458.816406 258.011719 L 313.785156 262.230469 L 288.003906 250.886719 L 255.925781 252.222656 C 240.8125 250.550781 247.742188 250.589844 226.34375 252.222656 L 42.199219 250.886719 L 42.199219 247.859375"/></g><g id="change3_5"><path fill="#b15d31" d="M 452.570312 258.195312 C 408.855469 260.070312 356.039062 262.015625 313.570312 263.34375 C 313.109375 263.140625 287.816406 252.078125 287.535156 251.953125 L 288.050781 252.050781 C 247.8125 253.816406 261.050781 254.035156 243.707031 252.113281 L 243.9375 252.117188 C 221.902344 253.75 247.949219 254.007812 114.335938 252.136719 C 96.117188 251.855469 65.4375 251.359375 47.140625 250.921875 C 107.066406 250.363281 207.53125 250.933594 226.351562 251.027344 L 226.253906 251.03125 C 248.738281 249.261719 239.253906 249.136719 256.058594 250.992188 L 255.871094 250.984375 C 281.425781 249.976562 287.707031 249.730469 288.226562 249.710938 C 288.578125 249.867188 287.777344 249.511719 314.230469 261.222656 L 313.753906 261.128906 C 356.128906 259.988281 408.679688 258.863281 452.570312 258.195312"/></g><g id="change3_6"><path fill="#b15d31" d="M 80.109375 344.929688 L 79.878906 345.597656 C 68.332031 345.597656 56.226562 347.273438 46.746094 333.582031 C 42.820312 327.6875 42.199219 322.660156 42.199219 316.433594 L 42.273438 316.433594 C 42.738281 311.519531 44.191406 303.351562 45.113281 298.777344 C 43.105469 293.046875 43.746094 294.875 42.199219 290.460938 L 42.199219 250.882812 C 45.605469 290.625 43.925781 280.542969 49.832031 301.1875 C 47.484375 306.484375 43.582031 318.34375 47.140625 322.957031 C 48.582031 324.839844 48.773438 326.925781 49.628906 329.175781 C 50.957031 332.648438 53.847656 336.53125 65.351562 340.671875 L 65.371094 340.679688 C 69.226562 342.0625 74.050781 343.488281 80.109375 344.929688"/></g><g id="change3_7"><path fill="#b15d31" d="M 42.273438 316.433594 C 42.238281 316.710938 42.214844 316.984375 42.199219 317.242188 L 42.199219 316.433594 L 42.273438 316.433594"/></g><g id="change4_2"><path fill="#5b2c14" d="M 400.625 173.28125 C 391.242188 183.714844 397.1875 177.117188 390.144531 184.941406 C 395.074219 177.253906 392.246094 181.65625 396.207031 175.484375 C 388.125 168.511719 384.769531 165.609375 379.660156 161.191406 C 380.746094 160.71875 378.136719 161.851562 400.625 152.109375 L 403.75 152.109375 L 391.90625 159.417969 L 388.199219 160.859375 L 400.625 173.28125"/></g><g id="change4_3"><path fill="#5b2c14" d="M 391.960938 159.402344 L 410.230469 152.109375 L 410.699219 152.109375 Z M 391.960938 159.402344"/></g><g id="change4_4"><path fill="#5b2c14" d="M 111.855469 160.859375 L 114.6875 163.691406 L 114.6875 175.632812 L 110.382812 164.042969 L 103.855469 161.191406 C 104.339844 160.800781 114.5625 152.53125 114.933594 152.109375 L 118.148438 152.109375 C 116.320312 154.621094 116.429688 154.515625 111.855469 160.859375"/></g><g id="change4_5"><path fill="#5b2c14" d="M 126.40625 152.109375 L 123.121094 154.085938 L 123.113281 154.085938 L 126.390625 152.109375 L 126.40625 152.109375"/></g><g id="change4_6"><path fill="#5b2c14" d="M 246.574219 330.199219 L 251.132812 341.078125 L 235.300781 345.597656 L 233.109375 345.597656 L 249.773438 340.214844 L 246.574219 330.199219"/></g><g id="change5_1"><path fill="#954e29" d="M 269.792969 345.59375 L 249.328125 345.59375 C 249.878906 345.046875 250.042969 344.882812 250.335938 344.589844 C 256.074219 343.960938 262.160156 343.414062 268.203125 343.414062 C 269.570312 343.414062 270.9375 343.445312 272.300781 343.503906 C 271.472656 344.203125 270.632812 344.902344 269.792969 345.59375 M 216.082031 345.59375 L 79.878906 345.59375 L 80.109375 344.929688 C 74.132812 343.507812 69.355469 342.101562 65.523438 340.734375 C 82.8125 343.929688 101.878906 344.921875 120.472656 344.921875 C 138.515625 344.921875 156.113281 343.984375 171.21875 343.222656 C 194.699219 342.03125 219.914062 340.523438 237.03125 333.9375 C 248.203125 329.644531 252.421875 326.105469 266.722656 326.105469 C 272.253906 326.105469 279.296875 326.632812 288.835938 327.855469 C 286.546875 330.28125 284.179688 332.667969 281.730469 335.015625 C 279.605469 334.839844 277.609375 334.761719 275.726562 334.761719 C 264.875 334.761719 257.808594 337.335938 251.910156 338.789062 C 251.257812 337.734375 250.1875 336.011719 246.578125 330.195312 C 246.582031 330.210938 246.585938 330.222656 246.59375 330.238281 L 246.574219 330.199219 L 249.773438 340.214844 L 249.507812 339.382812 C 238.964844 341.921875 227.730469 344.003906 216.082031 345.59375 M 163.046875 338.398438 C 160.925781 338.398438 158.742188 338.371094 156.484375 338.316406 C 115.546875 337.347656 84.234375 327.417969 62.492188 327.417969 C 57.726562 327.417969 53.425781 327.894531 49.582031 329.046875 C 48.765625 326.84375 48.550781 324.804688 47.140625 322.957031 C 46.476562 322.101562 46.074219 320.992188 45.871094 319.726562 C 50.109375 319.699219 54.425781 319.675781 58.792969 319.675781 C 74.421875 319.675781 90.71875 319.976562 106.472656 321.449219 C 109.261719 321.710938 120.058594 322.988281 129.460938 322.988281 C 133.109375 322.988281 136.550781 322.796875 139.226562 322.273438 C 79.902344 317.023438 74.335938 316.355469 60.96875 316.355469 C 57.066406 316.355469 52.5 316.414062 45.734375 316.429688 C 45.878906 313.710938 46.546875 310.675781 47.378906 307.890625 C 47.382812 307.894531 47.386719 307.894531 47.390625 307.894531 C 73.992188 309.574219 102.539062 309.394531 128.539062 312.359375 C 160.960938 316.054688 176.457031 321.300781 194.460938 321.300781 C 201.703125 321.300781 209.351562 320.449219 218.671875 318.308594 C 234.734375 314.632812 249.851562 310.277344 263.707031 305.351562 C 266.738281 304.269531 282.171875 299.675781 281.1875 298.011719 C 280.59375 297.003906 278.871094 296.589844 276.429688 296.589844 C 265.660156 296.589844 240.988281 304.652344 238.410156 305.335938 C 222.503906 309.558594 206.988281 310.871094 193.046875 310.871094 C 177.789062 310.871094 164.414062 309.296875 154.484375 308.226562 C 87.226562 300.964844 71.515625 298.519531 47.957031 294.761719 C 45.34375 285.929688 45.039062 285.054688 44.027344 272.96875 C 49.570312 273.71875 53.761719 274.007812 57.046875 274.007812 C 66.320312 274.007812 68.421875 271.714844 73.59375 271.058594 C 74.515625 270.941406 75.417969 270.886719 76.308594 270.886719 C 82.460938 270.886719 87.847656 273.4375 93.417969 274.941406 C 100.578125 276.867188 109.210938 277.089844 118.015625 277.089844 C 119.324219 277.089844 120.636719 277.085938 121.949219 277.078125 C 123.261719 277.074219 124.574219 277.070312 125.882812 277.070312 C 128.117188 277.070312 130.339844 277.082031 132.523438 277.136719 C 155.257812 277.6875 176.761719 282.742188 199.234375 282.742188 C 201.160156 282.742188 203.09375 282.707031 205.035156 282.625 C 223.914062 281.847656 240.6875 277.050781 259.578125 276.308594 C 261.332031 276.238281 263.078125 276.207031 264.824219 276.207031 C 276.507812 276.207031 288.089844 277.644531 301.34375 279.078125 C 307.511719 279.746094 314.042969 280.417969 321.113281 280.941406 C 320.136719 283.003906 319.109375 285.058594 318.046875 287.097656 L 87.417969 287.320312 C 113.894531 291.824219 133.289062 298.851562 173.011719 298.851562 C 188.390625 298.851562 206.816406 297.800781 229.886719 295.136719 C 261.570312 291.484375 268.207031 288.871094 278.191406 288.871094 C 283.851562 288.871094 290.589844 289.710938 303.574219 291.675781 C 307.265625 292.230469 311.023438 292.648438 314.839844 292.945312 C 313.117188 295.949219 311.296875 298.925781 309.375 301.863281 C 307.371094 301.511719 305.472656 301.261719 303.792969 301.195312 C 303.558594 301.1875 303.308594 301.183594 303.042969 301.183594 C 294.0625 301.183594 266.003906 306.207031 274.816406 307.007812 C 275.726562 306.992188 276.660156 306.984375 277.609375 306.984375 C 285.652344 306.984375 295.125 307.558594 304.65625 308.730469 C 302.484375 311.738281 300.210938 314.699219 297.824219 317.617188 C 294.621094 317.15625 291.820312 316.664062 289.488281 316.144531 C 284.441406 315.015625 279.796875 313.539062 274.304688 312.820312 C 271.761719 312.488281 269.195312 312.335938 266.644531 312.335938 C 253.898438 312.335938 241.484375 316.152344 233.582031 320.492188 C 225.25 325.066406 211.269531 338.398438 163.046875 338.398438 M 146.972656 325.117188 C 145.652344 325.117188 144.410156 325.3125 143.441406 325.835938 C 158.359375 329.5 166.96875 332 174.214844 332 C 175.929688 332 177.566406 331.859375 179.191406 331.5625 C 185.769531 330.363281 190.488281 329.183594 197.875 328.734375 C 194.441406 328.324219 190.941406 328.207031 187.417969 328.207031 C 184.941406 328.207031 182.457031 328.265625 179.96875 328.324219 C 177.476562 328.382812 174.988281 328.441406 172.511719 328.441406 C 166.640625 328.441406 160.839844 328.113281 155.265625 326.664062 C 154.234375 326.398438 150.355469 325.117188 146.972656 325.117188 M 180.539062 278.132812 C 165.371094 278.132812 150.695312 275.882812 135.992188 273.628906 C 121.292969 271.378906 106.570312 269.125 91.304688 269.125 C 89.859375 269.125 88.40625 269.144531 86.949219 269.1875 C 73.710938 269.574219 70.871094 270.414062 63.859375 270.414062 C 59.671875 270.414062 53.992188 270.113281 43.71875 269.238281 C 43.441406 265.800781 43.101562 261.617188 42.667969 256.425781 C 72.808594 260.554688 101.308594 267.113281 132.941406 268.300781 C 136.625 268.4375 140.308594 268.5 143.988281 268.5 C 163.519531 268.5 182.988281 266.722656 202.402344 264.945312 C 221.820312 263.171875 241.1875 261.394531 260.523438 261.394531 C 267.214844 261.394531 273.902344 261.605469 280.589844 262.105469 C 296.3125 263.28125 311.335938 266.015625 326.746094 267.605469 C 325.453125 271.074219 324.035156 274.519531 322.503906 277.929688 C 299.910156 276.609375 290.296875 272.511719 280.742188 271.492188 C 277.589844 271.152344 274.324219 271.070312 271.054688 271.070312 C 269.53125 271.070312 268.007812 271.089844 266.492188 271.109375 C 213.753906 271.738281 214.0625 276.789062 186.992188 277.992188 C 184.832031 278.089844 182.679688 278.132812 180.539062 278.132812 M 167.570312 257.449219 C 152.636719 257.449219 134.359375 257.101562 111.359375 256.191406 C 62.984375 254.273438 60.667969 252.257812 42.199219 250.886719 C 42.199219 250.882812 42.199219 250.886719 42.199219 250.886719 L 47.140625 250.921875 C 65.4375 251.359375 96.117188 251.855469 114.335938 252.136719 C 178.539062 253.035156 205.875 253.441406 219.398438 253.441406 C 233.964844 253.441406 232.5 252.96875 243.820312 252.125 C 252.058594 253.042969 253.332031 253.46875 256.863281 253.46875 C 260.671875 253.46875 267.113281 252.972656 287.785156 252.0625 C 288.902344 252.550781 293.574219 254.59375 298.636719 256.8125 C 278.351562 254.605469 264.789062 253.847656 253.558594 253.847656 C 241.304688 253.847656 231.824219 254.75 219.398438 255.648438 C 206.972656 256.550781 191.597656 257.449219 167.570312 257.449219"/></g><g id="change6_1"><path fill="#804120" d="M 143.988281 268.5 C 140.308594 268.5 136.625 268.4375 132.941406 268.300781 C 101.308594 267.113281 72.808594 260.554688 42.667969 256.425781 C 42.523438 254.703125 42.367188 252.867188 42.199219 250.910156 C 42.199219 250.902344 42.199219 250.894531 42.199219 250.886719 C 60.667969 252.257812 62.984375 254.273438 111.359375 256.191406 C 134.359375 257.101562 152.636719 257.449219 167.570312 257.449219 C 191.597656 257.449219 206.972656 256.550781 219.398438 255.648438 C 231.824219 254.75 241.304688 253.847656 253.558594 253.847656 C 264.789062 253.847656 278.351562 254.605469 298.636719 256.8125 C 305.605469 259.859375 313.316406 263.230469 313.570312 263.34375 C 318.398438 263.191406 323.359375 263.03125 328.429688 262.867188 C 327.890625 264.453125 327.332031 266.03125 326.746094 267.605469 C 311.335938 266.015625 296.3125 263.28125 280.589844 262.105469 C 273.902344 261.605469 267.214844 261.394531 260.523438 261.394531 C 241.1875 261.394531 221.820312 263.171875 202.402344 264.945312 C 182.988281 266.722656 163.519531 268.5 143.988281 268.5"/></g><g id="change6_2"><path fill="#804120" d="M 199.234375 282.742188 C 176.761719 282.742188 155.257812 277.6875 132.523438 277.136719 C 130.339844 277.082031 128.117188 277.070312 125.882812 277.070312 C 124.574219 277.070312 123.261719 277.074219 121.949219 277.078125 C 120.636719 277.085938 119.324219 277.089844 118.015625 277.089844 C 109.210938 277.089844 100.578125 276.867188 93.417969 274.941406 C 87.847656 273.4375 82.460938 270.886719 76.308594 270.886719 C 75.417969 270.886719 74.515625 270.941406 73.59375 271.058594 C 68.421875 271.714844 66.320312 274.007812 57.046875 274.007812 C 53.761719 274.007812 49.570312 273.71875 44.027344 272.96875 C 43.929688 271.828125 43.832031 270.589844 43.71875 269.238281 C 53.992188 270.113281 59.671875 270.414062 63.859375 270.414062 C 70.871094 270.414062 73.710938 269.574219 86.949219 269.1875 C 88.40625 269.144531 89.859375 269.125 91.304688 269.125 C 106.570312 269.125 121.292969 271.378906 135.992188 273.628906 C 150.695312 275.882812 165.371094 278.132812 180.539062 278.132812 C 182.679688 278.132812 184.832031 278.089844 186.992188 277.992188 C 214.0625 276.789062 213.753906 271.738281 266.492188 271.109375 C 268.007812 271.089844 269.53125 271.070312 271.054688 271.070312 C 274.324219 271.070312 277.589844 271.152344 280.742188 271.492188 C 290.296875 272.511719 299.910156 276.609375 322.503906 277.929688 C 322.050781 278.9375 321.585938 279.9375 321.113281 280.941406 C 314.042969 280.417969 307.511719 279.746094 301.34375 279.078125 C 288.089844 277.644531 276.507812 276.207031 264.824219 276.207031 C 263.078125 276.207031 261.332031 276.238281 259.578125 276.308594 C 240.6875 277.050781 223.914062 281.847656 205.035156 282.625 C 203.09375 282.707031 201.160156 282.742188 199.234375 282.742188"/></g><g id="change6_3"><path fill="#804120" d="M 173.011719 298.851562 C 133.289062 298.851562 113.894531 291.824219 87.417969 287.320312 L 318.046875 287.097656 C 317.015625 289.0625 315.949219 291.007812 314.839844 292.945312 C 311.023438 292.648438 307.265625 292.230469 303.574219 291.675781 C 290.589844 289.710938 283.851562 288.871094 278.191406 288.871094 C 268.207031 288.871094 261.570312 291.484375 229.886719 295.136719 C 206.816406 297.800781 188.390625 298.851562 173.011719 298.851562"/></g><g id="change6_4"><path fill="#804120" d="M 304.65625 308.730469 C 295.125 307.558594 285.652344 306.984375 277.609375 306.984375 C 276.660156 306.984375 275.726562 306.992188 274.816406 307.007812 C 266.003906 306.207031 294.0625 301.183594 303.042969 301.183594 C 303.308594 301.183594 303.558594 301.1875 303.792969 301.195312 C 305.472656 301.261719 307.371094 301.511719 309.375 301.863281 C 307.863281 304.175781 306.289062 306.46875 304.65625 308.730469"/></g><g id="change6_5"><path fill="#804120" d="M 194.460938 321.300781 C 176.457031 321.300781 160.960938 316.054688 128.539062 312.359375 C 102.539062 309.394531 73.992188 309.574219 47.390625 307.894531 C 47.386719 307.894531 47.382812 307.894531 47.378906 307.890625 C 48.15625 305.28125 49.074219 302.894531 49.832031 301.1875 C 49.097656 298.621094 48.480469 296.53125 47.957031 294.761719 C 71.515625 298.519531 87.226562 300.964844 154.484375 308.226562 C 164.414062 309.296875 177.789062 310.871094 193.046875 310.871094 C 206.988281 310.871094 222.503906 309.558594 238.410156 305.335938 C 240.988281 304.652344 265.660156 296.589844 276.429688 296.589844 C 278.871094 296.589844 280.59375 297.003906 281.1875 298.011719 C 282.171875 299.675781 266.738281 304.269531 263.707031 305.351562 C 249.851562 310.277344 234.734375 314.632812 218.671875 318.308594 C 209.351562 320.449219 201.703125 321.300781 194.460938 321.300781"/></g><g id="change6_6"><path fill="#804120" d="M 120.472656 344.921875 C 101.878906 344.921875 82.8125 343.929688 65.523438 340.734375 C 65.472656 340.71875 65.421875 340.699219 65.371094 340.679688 L 65.351562 340.671875 C 53.847656 336.53125 50.957031 332.648438 49.628906 329.175781 C 49.613281 329.132812 49.597656 329.089844 49.582031 329.046875 C 53.425781 327.894531 57.726562 327.417969 62.492188 327.417969 C 84.234375 327.417969 115.546875 337.347656 156.484375 338.316406 C 158.742188 338.371094 160.925781 338.398438 163.046875 338.398438 C 211.269531 338.398438 225.25 325.066406 233.582031 320.492188 C 241.484375 316.152344 253.898438 312.335938 266.644531 312.335938 C 269.195312 312.335938 271.761719 312.488281 274.304688 312.820312 C 279.796875 313.539062 284.441406 315.015625 289.488281 316.144531 C 291.820312 316.664062 294.621094 317.15625 297.824219 317.617188 C 294.984375 321.097656 291.980469 324.515625 288.835938 327.855469 C 279.296875 326.632812 272.253906 326.105469 266.722656 326.105469 C 252.421875 326.105469 248.203125 329.644531 237.03125 333.9375 C 219.914062 340.523438 194.699219 342.03125 171.21875 343.222656 C 156.113281 343.984375 138.515625 344.921875 120.472656 344.921875"/></g><g id="change6_7"><path fill="#804120" d="M 233.113281 345.59375 L 216.082031 345.59375 C 227.730469 344.003906 238.964844 341.921875 249.507812 339.382812 L 249.773438 340.214844 L 233.113281 345.59375"/></g><g id="change6_8"><path fill="#804120" d="M 250.335938 344.589844 C 250.730469 344.191406 251.367188 343.554688 253.527344 341.386719 C 252.648438 339.976562 252.394531 339.5625 251.910156 338.789062 C 257.808594 337.335938 264.875 334.761719 275.726562 334.761719 C 277.609375 334.761719 279.605469 334.839844 281.730469 335.015625 C 278.707031 337.910156 275.566406 340.738281 272.300781 343.503906 C 270.9375 343.445312 269.570312 343.414062 268.203125 343.414062 C 262.160156 343.414062 256.074219 343.960938 250.332031 344.589844"/></g><g id="change6_9"><path fill="#804120" d="M 174.214844 332 C 166.96875 332 158.359375 329.5 143.441406 325.835938 C 144.410156 325.3125 145.652344 325.117188 146.972656 325.117188 C 150.355469 325.117188 154.234375 326.398438 155.265625 326.664062 C 160.839844 328.113281 166.640625 328.441406 172.511719 328.441406 C 174.988281 328.441406 177.476562 328.382812 179.96875 328.324219 C 182.457031 328.265625 184.941406 328.207031 187.417969 328.207031 C 190.941406 328.207031 194.441406 328.324219 197.875 328.734375 C 190.488281 329.183594 185.769531 330.363281 179.191406 331.5625 C 177.566406 331.859375 175.929688 332 174.214844 332"/></g><g id="change6_10"><path fill="#804120" d="M 129.460938 322.988281 C 120.058594 322.988281 109.261719 321.710938 106.472656 321.449219 C 90.71875 319.976562 74.421875 319.675781 58.792969 319.675781 C 54.425781 319.675781 50.109375 319.699219 45.871094 319.726562 C 45.707031 318.714844 45.671875 317.601562 45.734375 316.429688 C 52.5 316.414062 57.066406 316.355469 60.96875 316.355469 C 74.335938 316.355469 79.902344 317.023438 139.226562 322.273438 C 136.550781 322.796875 133.109375 322.988281 129.460938 322.988281"/></g><g id="change5_2"><path fill="#954e29" d="M 314.957031 258.71875 L 288.835938 248.355469 C 256.300781 248.632812 247.226562 248.796875 229.253906 248.796875 C 205.84375 248.796875 167.335938 248.519531 42.199219 247.859375 C 42.199219 247.851562 42.199219 247.84375 42.199219 247.835938 C 42.53125 245.816406 43.753906 238.136719 44.828125 230.253906 C 49.417969 230.050781 57.738281 229.527344 65.265625 229.527344 C 67.261719 229.527344 69.203125 229.5625 71.003906 229.652344 C 93.125 230.777344 148.597656 244.558594 206.230469 244.558594 C 210.59375 244.558594 214.972656 244.476562 219.34375 244.308594 C 258.191406 242.800781 294.867188 234.410156 333.507812 234.410156 C 334.105469 234.410156 334.707031 234.410156 335.308594 234.414062 C 334.894531 237.207031 334.40625 240 333.84375 242.773438 C 328.511719 241.515625 322.800781 240.152344 318.496094 239.984375 C 318.246094 239.972656 317.949219 239.96875 317.613281 239.96875 C 307.28125 239.96875 258.785156 244.550781 258.1875 244.5625 C 258.980469 244.546875 259.816406 244.539062 260.695312 244.539062 C 278.699219 244.539062 313.734375 247.417969 332.257812 249.8125 C 331.589844 252.496094 330.851562 255.171875 330.046875 257.832031 L 314.957031 258.71875"/></g><g id="change6_11"><path fill="#804120" d="M 332.257812 249.8125 C 313.734375 247.417969 278.699219 244.539062 260.695312 244.539062 C 259.816406 244.539062 258.980469 244.546875 258.1875 244.5625 C 258.785156 244.550781 307.28125 239.96875 317.613281 239.96875 C 317.949219 239.96875 318.246094 239.972656 318.496094 239.984375 C 322.800781 240.152344 328.511719 241.515625 333.84375 242.773438 C 333.367188 245.132812 332.839844 247.472656 332.257812 249.8125"/></g><g id="change5_3"><path fill="#954e29" d="M 200.027344 235.839844 C 170.878906 235.839844 150.503906 231.023438 109.164062 225.367188 C 87.550781 222.410156 64.917969 220.601562 46.089844 219.992188 C 46.484375 216.238281 46.699219 213.136719 46.566406 211.554688 C 58.03125 211.621094 69.511719 212.367188 80.460938 213.117188 C 91.960938 213.902344 102.871094 214.6875 112.566406 214.683594 C 113.089844 214.683594 113.609375 214.683594 114.121094 214.679688 C 131.507812 214.515625 149.53125 212.492188 166.601562 212.492188 C 175.101562 212.492188 183.367188 212.992188 191.199219 214.480469 C 205.546875 217.195312 215.679688 222.84375 230.433594 225.175781 C 235.953125 226.046875 241.5625 226.40625 247.191406 226.40625 C 268.398438 226.402344 289.9375 221.304688 308.324219 219.019531 C 318.6875 217.734375 328.226562 217.132812 336.925781 216.96875 C 336.742188 221.824219 336.335938 226.667969 335.710938 231.496094 C 329.027344 230.980469 324.035156 230.109375 319.519531 229.238281 C 312.4375 227.871094 306.515625 226.507812 297.046875 226.507812 C 296.539062 226.507812 296.015625 226.511719 295.484375 226.519531 C 289.671875 226.601562 284.105469 227.445312 278.652344 228.269531 C 242.714844 233.707031 219.425781 235.839844 200.027344 235.839844 M 85.039062 217.65625 C 92.601562 218.222656 194.214844 229.5 218.410156 229.5 C 222.699219 229.5 224.550781 229.144531 223.023438 228.316406 C 205.628906 218.863281 164.214844 217.101562 131.132812 217.101562 C 121.3125 217.101562 112.234375 217.257812 104.726562 217.410156 C 97.21875 217.566406 91.292969 217.722656 87.789062 217.722656 C 86.566406 217.722656 85.636719 217.703125 85.039062 217.65625 M 246.476562 220.859375 C 242.523438 220.859375 238.589844 220.710938 234.859375 220.203125 C 221.878906 218.4375 202.046875 209.167969 174.265625 208.230469 C 172.09375 208.15625 170.082031 208.121094 168.195312 208.121094 C 159.746094 208.121094 153.738281 208.78125 146.316406 209.4375 C 138.894531 210.097656 130.058594 210.753906 115.953125 210.753906 C 105.835938 210.753906 93 210.414062 76.035156 209.496094 C 72.921875 209.328125 68.929688 209.269531 64.679688 209.269531 C 58.429688 209.269531 51.617188 209.402344 46.230469 209.535156 C 45.78125 206.949219 45.300781 203.859375 44.90625 200.539062 C 57.5 204.496094 70.222656 205.90625 82.566406 205.90625 C 110.988281 205.90625 137.445312 198.4375 156.007812 197.398438 C 158.019531 197.285156 160.066406 197.234375 162.152344 197.234375 C 174.609375 197.234375 188.664062 199.007812 206.625 199.804688 C 222.113281 200.492188 237.679688 201.1875 252.691406 202.867188 C 273.585938 205.207031 293.558594 206.957031 314.042969 206.957031 C 320.496094 206.957031 327 206.785156 333.601562 206.398438 C 323.1875 206.039062 312.90625 205.519531 302.835938 204.832031 C 257.78125 201.75 218.511719 195.535156 169.652344 195.535156 C 153.988281 195.535156 137.34375 196.171875 119.199219 197.757812 C 106.886719 198.835938 98.1875 199.738281 89.207031 199.738281 C 77.550781 199.738281 65.417969 198.21875 44.261719 193.582031 C 44.027344 189.921875 43.980469 186.21875 44.253906 182.792969 C 63.472656 189.0625 97.617188 192.570312 125.367188 192.570312 C 137.675781 192.570312 148.722656 191.882812 156.65625 190.4375 C 169.203125 188.152344 181.558594 183.230469 191.53125 179.683594 C 182.476562 180.308594 166.765625 182.664062 147.71875 182.667969 C 131.929688 182.667969 113.847656 181.046875 95.339844 175.480469 C 91.207031 174.234375 87.292969 172.84375 82.699219 171.898438 C 78.632812 171.058594 74.128906 170.667969 69.605469 170.667969 C 60.761719 170.667969 51.8125 172.164062 45.773438 174.753906 C 45.875 174.453125 45.984375 174.164062 46.097656 173.878906 C 48.589844 169.78125 52.070312 166.515625 56.015625 164.292969 C 69.992188 165.226562 80.257812 166.96875 88.097656 166.96875 C 90.84375 166.96875 93.289062 166.753906 95.496094 166.21875 C 76.386719 164.109375 66.375 162.996094 60.347656 162.339844 C 60.351562 162.339844 60.355469 162.335938 60.363281 162.335938 L 60.371094 162.335938 C 64.132812 161.023438 65.042969 160.808594 79.261719 160.808594 C 80.40625 160.808594 81.640625 160.808594 82.972656 160.8125 C 91.753906 161.546875 101.378906 162.480469 110.355469 164.03125 L 110.382812 164.042969 L 114.6875 175.632812 L 114.6875 164.839844 C 118.46875 165.601562 122.082031 166.492188 125.40625 167.542969 C 134.8125 170.5 144.160156 176.292969 168.332031 176.292969 C 173.003906 176.292969 178.226562 176.078125 184.105469 175.582031 C 205.734375 173.765625 234.71875 166.78125 284.019531 166.78125 C 298.054688 166.78125 313.753906 167.347656 331.378906 168.761719 C 332.496094 172.878906 333.453125 177.023438 334.238281 181.179688 C 322.773438 181.109375 310.691406 180.640625 298.050781 179.644531 C 285.867188 178.6875 273.417969 177.285156 261.183594 177.285156 C 256.808594 177.285156 252.460938 177.464844 248.164062 177.90625 C 238.273438 178.925781 229.582031 181.269531 220.160156 182.851562 C 217.679688 183.269531 215.515625 183.449219 213.507812 183.449219 C 207.894531 183.449219 203.539062 182.039062 197.097656 180.476562 C 197.949219 183.808594 201.9375 184.941406 207.585938 184.941406 C 218.574219 184.941406 235.859375 180.660156 248.617188 179.980469 C 255.046875 179.640625 261.300781 179.359375 267.480469 179.359375 C 273.96875 179.359375 280.375 179.667969 286.835938 180.53125 C 301.867188 182.542969 318.046875 183.394531 334.671875 183.566406 C 335.136719 186.230469 335.53125 188.898438 335.855469 191.574219 C 332.453125 190.933594 329.164062 190.171875 325.816406 189.484375 C 317.167969 187.710938 304.890625 187.070312 291.820312 187.070312 C 258.839844 187.070312 220.789062 191.148438 223.125 191.410156 C 224.191406 191.527344 225.558594 191.578125 227.15625 191.578125 C 231.882812 191.578125 238.605469 191.136719 245.324219 190.691406 C 252.046875 190.25 258.769531 189.804688 263.492188 189.804688 C 265.09375 189.804688 266.460938 189.855469 267.523438 189.976562 C 270.238281 190.277344 273.046875 190.582031 275.832031 190.582031 C 276.695312 190.582031 277.5625 190.554688 278.421875 190.484375 C 280.726562 190.304688 282.84375 189.851562 285.117188 189.613281 C 286.503906 189.46875 287.859375 189.398438 289.191406 189.398438 C 300.027344 189.398438 309.148438 193.855469 318.574219 196.625 C 324.070312 198.242188 330.1875 199.316406 336.660156 200.023438 C 336.804688 202.085938 336.90625 204.144531 336.964844 206.207031 C 335.863281 206.269531 334.742188 206.335938 333.601562 206.398438 C 334.726562 206.4375 335.847656 206.476562 336.976562 206.511719 C 337.058594 209.457031 337.058594 212.398438 336.976562 215.34375 C 308.765625 216.875 280.679688 220.089844 252.175781 220.777344 C 250.285156 220.824219 248.378906 220.859375 246.476562 220.859375 M 209.796875 207.355469 C 207.101562 207.355469 204.566406 207.550781 202.589844 208.070312 C 241.894531 212.796875 257.636719 214.246094 267.523438 214.246094 C 280.167969 214.246094 283.242188 211.878906 313.785156 210.972656 C 306.765625 210.5625 299.621094 210.441406 292.421875 210.441406 C 287.367188 210.441406 282.285156 210.5 277.203125 210.558594 C 272.117188 210.617188 267.03125 210.679688 261.96875 210.679688 C 249.980469 210.679688 238.128906 210.347656 226.746094 208.902344 C 224.636719 208.636719 216.703125 207.355469 209.796875 207.355469 M 169.378906 168.78125 C 146.972656 168.78125 143.125 163.976562 131.125 160.859375 C 136.539062 160.859375 141.851562 160.855469 147.074219 160.855469 C 151.519531 161.507812 156.316406 161.679688 161.261719 161.679688 C 164.019531 161.679688 166.824219 161.628906 169.636719 161.574219 C 172.449219 161.519531 175.269531 161.464844 178.0625 161.464844 C 180.628906 161.464844 183.171875 161.511719 185.664062 161.644531 C 195.820312 162.183594 202.378906 163.695312 211.769531 163.695312 C 218.109375 163.695312 225.746094 163.003906 236.652344 160.859375 C 236.714844 160.847656 236.777344 160.835938 236.84375 160.820312 C 245.042969 160.816406 252.929688 160.8125 260.472656 160.808594 C 245.824219 162.269531 210.589844 165.78125 196.898438 167.152344 C 185.328125 168.304688 176.433594 168.78125 169.378906 168.78125 M 330.179688 164.578125 C 319.882812 163.210938 311.976562 161.617188 307.003906 160.859375 C 306.8125 160.828125 306.621094 160.800781 306.429688 160.773438 C 314.425781 160.765625 321.925781 160.761719 328.980469 160.753906 C 329.394531 162.027344 329.796875 163.300781 330.179688 164.578125"/></g><g id="change6_12"><path fill="#804120" d="M 267.523438 214.246094 C 257.636719 214.246094 241.894531 212.796875 202.589844 208.070312 C 204.566406 207.550781 207.101562 207.355469 209.796875 207.355469 C 216.703125 207.355469 224.636719 208.636719 226.746094 208.902344 C 238.128906 210.347656 249.980469 210.679688 261.96875 210.679688 C 267.03125 210.679688 272.117188 210.617188 277.203125 210.558594 C 282.285156 210.5 287.367188 210.441406 292.421875 210.441406 C 299.621094 210.441406 306.765625 210.5625 313.785156 210.972656 C 283.242188 211.878906 280.167969 214.246094 267.523438 214.246094"/></g><g id="change6_13"><path fill="#804120" d="M 88.097656 166.96875 C 80.257812 166.96875 69.992188 165.226562 56.015625 164.292969 C 57.410156 163.511719 58.863281 162.855469 60.347656 162.339844 C 66.375 162.996094 76.386719 164.109375 95.496094 166.21875 C 93.289062 166.753906 90.84375 166.96875 88.097656 166.96875"/></g><g id="change6_14"><path fill="#804120" d="M 211.769531 163.695312 C 202.378906 163.695312 195.820312 162.183594 185.664062 161.644531 C 183.171875 161.511719 180.628906 161.464844 178.0625 161.464844 C 175.269531 161.464844 172.449219 161.519531 169.636719 161.574219 C 166.824219 161.628906 164.019531 161.679688 161.261719 161.679688 C 156.316406 161.679688 151.519531 161.507812 147.074219 160.855469 C 180.777344 160.851562 210.527344 160.839844 236.84375 160.820312 C 236.777344 160.835938 236.714844 160.847656 236.652344 160.859375 C 225.746094 163.003906 218.109375 163.695312 211.769531 163.695312"/></g><g id="change6_15"><path fill="#804120" d="M 168.332031 176.292969 C 144.160156 176.292969 134.8125 170.5 125.40625 167.542969 C 122.082031 166.492188 118.46875 165.601562 114.6875 164.839844 L 114.6875 163.691406 L 111.855469 160.859375 C 118.402344 160.859375 124.84375 160.859375 131.125 160.859375 C 143.125 163.976562 146.972656 168.78125 169.378906 168.78125 C 176.433594 168.78125 185.328125 168.304688 196.898438 167.152344 C 210.589844 165.78125 245.824219 162.269531 260.472656 160.808594 C 277.355469 160.796875 292.613281 160.78125 306.429688 160.773438 C 306.621094 160.800781 306.8125 160.828125 307.003906 160.859375 C 311.976562 161.617188 319.882812 163.210938 330.179688 164.578125 C 330.597656 165.972656 330.996094 167.363281 331.378906 168.761719 C 313.753906 167.347656 298.054688 166.78125 284.019531 166.78125 C 234.71875 166.78125 205.734375 173.765625 184.105469 175.582031 C 178.226562 176.078125 173.003906 176.292969 168.332031 176.292969 M 110.355469 164.03125 C 101.378906 162.480469 91.753906 161.546875 82.972656 160.8125 C 88.339844 160.820312 95.25 160.84375 104.273438 160.855469 C 104.050781 161.035156 103.90625 161.152344 103.855469 161.191406 L 110.355469 164.03125"/></g><g id="change6_16"><path fill="#804120" d="M 207.585938 184.941406 C 201.9375 184.941406 197.949219 183.808594 197.097656 180.476562 C 203.539062 182.039062 207.894531 183.449219 213.507812 183.449219 C 215.515625 183.449219 217.679688 183.269531 220.160156 182.851562 C 229.582031 181.269531 238.273438 178.925781 248.164062 177.90625 C 252.460938 177.464844 256.808594 177.285156 261.183594 177.285156 C 273.417969 177.285156 285.867188 178.6875 298.050781 179.644531 C 310.691406 180.640625 322.773438 181.109375 334.238281 181.179688 C 334.390625 181.976562 334.535156 182.769531 334.671875 183.566406 C 318.046875 183.394531 301.867188 182.542969 286.835938 180.53125 C 280.375 179.667969 273.96875 179.359375 267.480469 179.359375 C 261.300781 179.359375 255.046875 179.640625 248.617188 179.980469 C 235.859375 180.660156 218.574219 184.941406 207.585938 184.941406"/></g><g id="change6_17"><path fill="#804120" d="M 336.660156 200.023438 C 330.1875 199.316406 324.070312 198.242188 318.574219 196.625 C 309.148438 193.855469 300.027344 189.398438 289.191406 189.398438 C 287.859375 189.398438 286.503906 189.46875 285.117188 189.613281 C 282.84375 189.851562 280.726562 190.304688 278.421875 190.484375 C 277.5625 190.554688 276.695312 190.582031 275.832031 190.582031 C 273.046875 190.582031 270.238281 190.277344 267.523438 189.976562 C 266.460938 189.855469 265.09375 189.804688 263.492188 189.804688 C 258.769531 189.804688 252.046875 190.25 245.324219 190.691406 C 238.605469 191.136719 231.882812 191.578125 227.15625 191.578125 C 225.558594 191.578125 224.191406 191.527344 223.125 191.410156 C 220.789062 191.148438 258.839844 187.070312 291.820312 187.070312 C 304.890625 187.070312 317.167969 187.710938 325.816406 189.484375 C 329.164062 190.171875 332.453125 190.933594 335.855469 191.574219 C 336.199219 194.386719 336.46875 197.203125 336.660156 200.023438"/></g><g id="change5_4"><path fill="#954e29" d="M 42.316406 176.5625 C 42.367188 175.90625 42.4375 175.4375 42.535156 174.820312 C 43.417969 168.632812 46.703125 162.878906 51.523438 158.710938 C 50.65625 159.46875 49.816406 160.300781 49.023438 161.191406 C 49.023438 161.191406 49.019531 161.191406 49.019531 161.191406 C 48.457031 161.824219 47.921875 162.484375 47.417969 163.167969 C 46.75 164.070312 46.140625 165.015625 45.605469 165.984375 C 43.53125 169.636719 42.683594 173.007812 42.351562 176.53125 L 42.320312 176.5625 C 42.320312 176.5625 42.316406 176.5625 42.316406 176.5625"/></g><g id="change6_18"><path fill="#804120" d="M 47.417969 163.167969 C 47.921875 162.484375 48.457031 161.824219 49.019531 161.191406 C 49.019531 161.191406 49.023438 161.191406 49.023438 161.191406 C 48.460938 161.824219 47.921875 162.484375 47.417969 163.167969"/></g><g id="change5_5"><path fill="#954e29" d="M 111.855469 160.859375 C 111.914062 160.777344 111.972656 160.699219 112.027344 160.621094 L 113.597656 158.441406 C 116.382812 154.570312 116.585938 154.261719 118.054688 152.238281 L 118.148438 152.109375 C 114.660156 152.109375 111.414062 152.109375 108.394531 152.109375 L 118.152344 152.109375 C 116.347656 154.585938 116.324219 154.660156 111.859375 160.855469 C 116.6875 157.953125 114.269531 159.410156 123.117188 154.082031 C 121.207031 155.234375 118.441406 156.898438 114.253906 159.417969 L 111.855469 160.859375"/></g><g id="change6_19"><path fill="#804120" d="M 118.054688 152.238281 C 118.085938 152.195312 118.117188 152.152344 118.148438 152.109375 L 118.054688 152.238281"/></g><g id="change6_20"><path fill="#804120" d="M 111.855469 160.859375 L 114.253906 159.417969 C 113.503906 159.871094 112.703125 160.351562 111.855469 160.859375 M 112.027344 160.621094 C 112.628906 159.789062 113.144531 159.070312 113.597656 158.441406 L 112.027344 160.621094"/></g><g id="change5_6"><path fill="#954e29" d="M 53.75 156.976562 C 54.011719 156.792969 54.28125 156.609375 54.554688 156.433594 C 54.351562 156.570312 54.148438 156.703125 53.945312 156.84375 C 53.878906 156.886719 53.816406 156.933594 53.75 156.976562 M 55.730469 155.714844 C 57.03125 154.964844 58.398438 154.3125 59.828125 153.78125 C 59.832031 153.78125 59.835938 153.78125 59.839844 153.78125 C 58.589844 154.25 57.179688 154.878906 55.730469 155.714844 M 60.492188 153.542969 C 60.804688 153.4375 61.121094 153.335938 61.441406 153.238281 C 61.351562 153.265625 61.265625 153.292969 61.171875 153.320312 C 60.945312 153.394531 60.71875 153.46875 60.492188 153.542969"/></g><g id="change6_21"><path fill="#804120" d="M 59.839844 153.78125 C 59.835938 153.78125 59.832031 153.78125 59.828125 153.78125 C 60.046875 153.699219 60.269531 153.621094 60.492188 153.542969 C 60.71875 153.46875 60.945312 153.394531 61.171875 153.320312 C 60.753906 153.453125 60.308594 153.609375 59.839844 153.78125"/></g><g id="change5_7"><path fill="#954e29" d="M 64.425781 152.523438 C 64.613281 152.492188 64.804688 152.460938 64.996094 152.429688 C 64.878906 152.449219 64.761719 152.472656 64.636719 152.492188 C 64.636719 152.492188 64.5625 152.503906 64.425781 152.523438 M 66.585938 152.230469 C 67.425781 152.148438 68.277344 152.109375 69.140625 152.109375 L 69.976562 152.109375 C 68.367188 152.132812 67.347656 152.171875 66.585938 152.230469"/></g><g id="change6_22"><path fill="#804120" d="M 125.367188 192.570312 C 97.617188 192.570312 63.472656 189.0625 44.253906 182.792969 C 44.492188 179.835938 44.96875 177.085938 45.773438 174.753906 C 51.8125 172.164062 60.761719 170.667969 69.605469 170.667969 C 74.128906 170.667969 78.632812 171.058594 82.699219 171.898438 C 87.292969 172.84375 91.207031 174.234375 95.339844 175.480469 C 113.847656 181.046875 131.929688 182.667969 147.71875 182.667969 C 166.765625 182.664062 182.476562 180.308594 191.53125 179.683594 C 181.558594 183.230469 169.203125 188.152344 156.65625 190.4375 C 148.722656 191.882812 137.675781 192.570312 125.367188 192.570312 M 42.316406 176.5625 C 42.316406 176.5625 42.320312 176.5625 42.320312 176.5625 L 42.316406 176.5625"/></g><g id="change6_23"><path fill="#804120" d="M 336.976562 206.511719 C 335.847656 206.476562 334.726562 206.4375 333.601562 206.398438 C 334.742188 206.335938 335.863281 206.269531 336.964844 206.207031 C 336.96875 206.308594 336.972656 206.410156 336.976562 206.511719"/></g><g id="change6_24"><path fill="#804120" d="M 314.042969 206.957031 C 293.558594 206.957031 273.585938 205.207031 252.691406 202.867188 C 237.679688 201.1875 222.113281 200.492188 206.625 199.804688 C 188.664062 199.007812 174.609375 197.234375 162.152344 197.234375 C 160.066406 197.234375 158.019531 197.285156 156.007812 197.398438 C 137.445312 198.4375 110.988281 205.90625 82.566406 205.90625 C 70.222656 205.90625 57.5 204.496094 44.90625 200.539062 C 44.636719 198.296875 44.410156 195.949219 44.261719 193.582031 C 65.417969 198.21875 77.550781 199.738281 89.207031 199.738281 C 98.1875 199.738281 106.886719 198.835938 119.199219 197.757812 C 137.34375 196.171875 153.988281 195.535156 169.652344 195.535156 C 218.511719 195.535156 257.78125 201.75 302.835938 204.832031 C 312.90625 205.519531 323.1875 206.039062 333.601562 206.398438 C 327 206.785156 320.496094 206.957031 314.042969 206.957031"/></g><g id="change6_25"><path fill="#804120" d="M 247.191406 226.40625 C 241.5625 226.40625 235.953125 226.046875 230.433594 225.175781 C 215.679688 222.84375 205.546875 217.195312 191.199219 214.480469 C 183.367188 212.992188 175.101562 212.492188 166.601562 212.492188 C 149.53125 212.492188 131.507812 214.515625 114.121094 214.679688 C 113.609375 214.683594 113.089844 214.683594 112.566406 214.683594 C 102.871094 214.6875 91.960938 213.902344 80.460938 213.117188 C 69.511719 212.367188 58.03125 211.621094 46.566406 211.554688 C 46.546875 211.285156 46.515625 211.0625 46.472656 210.886719 C 46.394531 210.453125 46.3125 210.003906 46.230469 209.535156 C 51.617188 209.402344 58.429688 209.269531 64.679688 209.269531 C 68.929688 209.269531 72.921875 209.328125 76.035156 209.496094 C 93 210.414062 105.835938 210.753906 115.953125 210.753906 C 130.058594 210.753906 138.894531 210.097656 146.316406 209.4375 C 153.738281 208.78125 159.746094 208.121094 168.195312 208.121094 C 170.082031 208.121094 172.09375 208.15625 174.265625 208.230469 C 202.046875 209.167969 221.878906 218.4375 234.859375 220.203125 C 238.589844 220.710938 242.523438 220.859375 246.476562 220.859375 C 248.378906 220.859375 250.285156 220.824219 252.175781 220.777344 C 280.679688 220.089844 308.765625 216.875 336.976562 215.34375 C 336.960938 215.882812 336.945312 216.429688 336.925781 216.96875 C 328.226562 217.132812 318.6875 217.734375 308.324219 219.019531 C 289.9375 221.304688 268.398438 226.402344 247.191406 226.40625"/></g><g id="change6_26"><path fill="#804120" d="M 206.230469 244.558594 C 148.597656 244.558594 93.125 230.777344 71.003906 229.652344 C 69.203125 229.5625 67.261719 229.527344 65.265625 229.527344 C 57.738281 229.527344 49.417969 230.050781 44.828125 230.253906 C 45.308594 226.710938 45.761719 223.125 46.089844 219.992188 C 64.917969 220.601562 87.550781 222.410156 109.164062 225.367188 C 150.503906 231.023438 170.878906 235.839844 200.027344 235.839844 C 219.425781 235.839844 242.714844 233.707031 278.652344 228.269531 C 284.105469 227.445312 289.671875 226.601562 295.484375 226.519531 C 296.015625 226.511719 296.539062 226.507812 297.046875 226.507812 C 306.515625 226.507812 312.4375 227.871094 319.519531 229.238281 C 324.035156 230.109375 329.027344 230.980469 335.710938 231.496094 C 335.585938 232.472656 335.453125 233.441406 335.308594 234.414062 C 334.707031 234.410156 334.105469 234.410156 333.507812 234.410156 C 294.867188 234.410156 258.191406 242.800781 219.34375 244.308594 C 214.972656 244.476562 210.59375 244.558594 206.230469 244.558594"/></g><g id="change6_27"><path fill="#804120" d="M 218.410156 229.5 C 194.214844 229.5 92.601562 218.222656 85.039062 217.65625 C 85.636719 217.703125 86.566406 217.722656 87.789062 217.722656 C 91.292969 217.722656 97.21875 217.566406 104.726562 217.410156 C 112.234375 217.257812 121.3125 217.101562 131.132812 217.101562 C 164.214844 217.101562 205.628906 218.863281 223.023438 228.316406 C 224.550781 229.144531 222.699219 229.5 218.410156 229.5"/></g><g id="change7_1"><path fill="#b76434" d="M 42.351562 176.53125 C 42.683594 173.007812 43.53125 169.636719 45.605469 165.984375 C 46.140625 165.015625 46.75 164.070312 47.417969 163.167969 C 47.921875 162.484375 48.460938 161.824219 49.023438 161.191406 C 49.816406 160.300781 50.65625 159.46875 51.523438 158.710938 C 52.234375 158.097656 52.976562 157.519531 53.75 156.976562 C 53.816406 156.933594 53.878906 156.886719 53.945312 156.84375 C 54.148438 156.703125 54.351562 156.570312 54.554688 156.433594 C 54.941406 156.183594 55.332031 155.945312 55.730469 155.714844 C 57.179688 154.878906 58.589844 154.25 59.839844 153.78125 C 60.308594 153.609375 60.753906 153.453125 61.171875 153.320312 C 61.265625 153.292969 61.351562 153.265625 61.441406 153.238281 C 62.414062 152.945312 63.40625 152.707031 64.425781 152.523438 C 64.5625 152.503906 64.636719 152.492188 64.636719 152.492188 C 64.761719 152.472656 64.878906 152.449219 64.996094 152.429688 C 65.519531 152.347656 66.050781 152.28125 66.585938 152.230469 C 67.347656 152.171875 68.367188 152.132812 69.976562 152.109375 L 108.394531 152.109375 C 111.414062 152.109375 114.660156 152.109375 118.148438 152.109375 L 114.933594 152.109375 C 114.597656 152.488281 106.28125 159.226562 104.273438 160.855469 C 95.25 160.84375 88.339844 160.820312 82.972656 160.8125 C 81.640625 160.808594 80.40625 160.808594 79.261719 160.808594 C 65.042969 160.808594 64.132812 161.023438 60.371094 162.335938 L 60.363281 162.335938 C 60.355469 162.335938 60.351562 162.339844 60.347656 162.339844 C 58.863281 162.855469 57.410156 163.511719 56.015625 164.292969 C 52.070312 166.515625 48.589844 169.78125 46.097656 173.878906 C 46.402344 173.113281 46.75 172.402344 47.140625 171.75 L 42.351562 176.53125 M 49.832031 169.058594 C 49.671875 169.109375 48.429688 169.609375 47.140625 171.75 L 49.832031 169.058594"/></g><g id="change6_28"><path fill="#804120" d="M 42.222656 227.867188 C 42.226562 226.730469 42.230469 226.082031 42.234375 226.039062 C 42.269531 225.855469 42.3125 225.613281 42.367188 225.328125 C 42.289062 225.960938 42.246094 226.664062 42.222656 227.867188"/></g><g id="change5_8"><path fill="#954e29" d="M 43.414062 218.75 C 43.5625 217.574219 43.667969 216.457031 43.691406 215.566406 C 43.6875 216.332031 43.601562 217.308594 43.414062 218.75"/></g><g id="change5_9"><path fill="#954e29" d="M 43.496094 213.695312 C 43.351562 213.125 43.226562 212.605469 43.113281 212.128906 C 43.269531 212.75 43.398438 213.234375 43.496094 213.695312"/></g><g id="change5_10"><path fill="#954e29" d="M 42.402344 208.8125 C 42.316406 208.367188 42.257812 208.035156 42.203125 207.777344 C 42.203125 207.761719 42.203125 207.746094 42.203125 207.730469 C 42.203125 207.71875 42.203125 207.703125 42.203125 207.6875 C 42.203125 207.671875 42.203125 207.65625 42.203125 207.644531 C 42.203125 207.628906 42.203125 207.613281 42.203125 207.597656 C 42.203125 204.671875 42.199219 202.03125 42.199219 199.648438 C 42.214844 199.652344 42.230469 199.660156 42.246094 199.664062 C 42.230469 205.53125 42.253906 207.5625 42.402344 208.8125"/></g><g id="change5_11"><path fill="#954e29" d="M 42.199219 197.910156 C 42.195312 192.929688 42.1875 189.152344 42.1875 186.257812 C 42.1875 186.25 42.1875 186.246094 42.1875 186.238281 C 42.1875 186.21875 42.1875 186.199219 42.1875 186.179688 C 42.1875 186.117188 42.1875 186.054688 42.1875 185.996094 C 42.195312 186.585938 42.199219 187.1875 42.199219 187.796875 C 42.199219 187.039062 42.230469 186.273438 42.296875 185.511719 C 42.285156 188.414062 42.277344 190.9375 42.269531 193.144531 C 42.246094 193.136719 42.222656 193.132812 42.199219 193.128906 L 42.199219 197.910156"/></g><g id="change6_29"><path fill="#804120" d="M 42.25 177.828125 C 42.269531 177.335938 42.289062 176.9375 42.316406 176.597656 C 42.316406 176.714844 42.3125 176.828125 42.3125 176.945312 C 42.289062 177.238281 42.269531 177.53125 42.25 177.828125"/></g><g id="change6_30"><path fill="#804120" d="M 42.246094 199.664062 C 42.230469 199.660156 42.214844 199.652344 42.199219 199.648438 C 42.199219 199.054688 42.199219 198.472656 42.199219 197.910156 L 42.199219 193.128906 C 42.222656 193.132812 42.246094 193.136719 42.269531 193.144531 C 42.261719 195.730469 42.253906 197.875 42.246094 199.664062"/></g><g id="change7_2"><path fill="#b76434" d="M 42.199219 187.796875 C 42.199219 187.1875 42.195312 186.585938 42.1875 185.996094 C 42.1875 181.605469 42.203125 179.285156 42.25 177.828125 C 42.269531 177.53125 42.289062 177.238281 42.3125 176.945312 C 42.308594 180.113281 42.300781 182.960938 42.296875 185.511719 C 42.230469 186.273438 42.199219 187.039062 42.199219 187.796875"/></g><g id="change5_12"><path fill="#954e29" d="M 125.761719 152.488281 L 126.390625 152.109375 L 325.878906 152.109375 L 126.390625 152.109375 C 126.253906 152.191406 126.109375 152.277344 125.953125 152.371094 L 125.761719 152.488281"/></g><g id="change7_3"><path fill="#b76434" d="M 111.855469 160.859375 C 112.703125 160.351562 113.503906 159.871094 114.253906 159.417969 C 118.441406 156.898438 121.207031 155.234375 123.117188 154.082031 L 123.113281 154.085938 L 123.121094 154.085938 L 126.40625 152.109375 L 126.390625 152.109375 L 125.953125 152.371094 C 126.109375 152.277344 126.253906 152.191406 126.390625 152.109375 L 325.878906 152.109375 C 326.996094 154.972656 328.027344 157.855469 328.980469 160.753906 C 321.925781 160.761719 314.425781 160.765625 306.429688 160.773438 C 292.613281 160.78125 277.355469 160.796875 260.472656 160.808594 C 252.929688 160.8125 245.042969 160.816406 236.84375 160.820312 C 210.527344 160.839844 180.777344 160.851562 147.074219 160.855469 C 141.851562 160.855469 136.539062 160.859375 131.125 160.859375 C 124.84375 160.859375 118.402344 160.859375 111.855469 160.859375"/></g><g id="change7_4"><path fill="#b76434" d="M 42.199219 247.835938 C 42.203125 238.949219 42.210938 231.25 42.222656 227.867188 C 42.246094 226.664062 42.289062 225.960938 42.367188 225.328125 C 42.640625 223.84375 43.113281 221.167969 43.414062 218.75 C 43.601562 217.308594 43.6875 216.332031 43.691406 215.566406 C 43.707031 214.851562 43.671875 214.28125 43.558594 213.941406 C 43.539062 213.859375 43.519531 213.777344 43.496094 213.695312 C 43.398438 213.234375 43.269531 212.75 43.113281 212.128906 C 42.75 210.601562 42.542969 209.550781 42.402344 208.8125 C 42.253906 207.5625 42.230469 205.53125 42.246094 199.664062 C 42.253906 197.875 42.261719 195.730469 42.269531 193.144531 C 42.277344 190.9375 42.285156 188.414062 42.296875 185.511719 C 42.300781 182.960938 42.308594 180.113281 42.3125 176.945312 C 42.3125 176.828125 42.316406 176.714844 42.316406 176.597656 C 42.316406 176.585938 42.316406 176.574219 42.316406 176.5625 L 42.320312 176.5625 L 42.351562 176.53125 L 47.140625 171.75 C 46.75 172.402344 46.402344 173.113281 46.097656 173.878906 C 45.984375 174.164062 45.875 174.453125 45.773438 174.753906 C 44.96875 177.085938 44.492188 179.835938 44.253906 182.792969 C 43.980469 186.21875 44.027344 189.921875 44.261719 193.582031 C 44.410156 195.949219 44.636719 198.296875 44.90625 200.539062 C 45.300781 203.859375 45.78125 206.949219 46.230469 209.535156 C 46.3125 210.003906 46.394531 210.453125 46.472656 210.886719 C 46.515625 211.0625 46.546875 211.285156 46.566406 211.554688 C 46.699219 213.136719 46.484375 216.238281 46.089844 219.992188 C 45.761719 223.125 45.308594 226.710938 44.828125 230.253906 C 43.753906 238.136719 42.53125 245.816406 42.199219 247.835938"/></g><g id="change7_5"><path fill="#b76434" d="M 47.140625 171.75 C 48.429688 169.609375 49.671875 169.109375 49.832031 169.058594 L 47.140625 171.75"/></g><g id="change8_1"><path fill="#612f15" d="M 314.003906 261.121094 C 287.78125 249.511719 288.578125 249.863281 288.226562 249.710938 C 287.710938 249.730469 281.441406 249.976562 255.96875 250.980469 C 247.828125 250.082031 245.902344 249.652344 243.457031 249.652344 C 240.890625 249.652344 237.757812 250.125 226.300781 251.027344 C 213.433594 250.960938 163.074219 250.679688 113.320312 250.679688 C 89.78125 250.679688 66.367188 250.742188 47.140625 250.921875 L 42.199219 250.886719 C 42.199219 249.867188 42.199219 248.851562 42.199219 247.859375 C 167.335938 248.519531 205.84375 248.796875 229.253906 248.796875 C 247.226562 248.796875 256.300781 248.632812 288.835938 248.355469 L 314.957031 258.71875 L 330.046875 257.832031 C 329.753906 258.796875 329.449219 259.765625 329.136719 260.726562 C 323.976562 260.855469 318.921875 260.988281 314.003906 261.121094"/></g><g id="change7_6"><path fill="#b76434" d="M 313.570312 263.34375 C 313.316406 263.230469 305.605469 259.859375 298.636719 256.8125 C 293.574219 254.59375 288.902344 252.550781 287.785156 252.0625 C 267.113281 252.972656 260.671875 253.46875 256.863281 253.46875 C 253.332031 253.46875 252.058594 253.042969 243.820312 252.125 C 232.5 252.96875 233.964844 253.441406 219.398438 253.441406 C 205.875 253.441406 178.539062 253.035156 114.335938 252.136719 C 96.117188 251.855469 65.4375 251.359375 47.140625 250.921875 C 66.367188 250.742188 89.78125 250.679688 113.320312 250.679688 C 163.074219 250.679688 213.433594 250.960938 226.300781 251.027344 C 237.757812 250.125 240.890625 249.652344 243.457031 249.652344 C 245.902344 249.652344 247.828125 250.082031 255.96875 250.980469 C 281.441406 249.976562 287.710938 249.730469 288.226562 249.710938 C 288.578125 249.863281 287.78125 249.511719 314.003906 261.121094 C 318.921875 260.988281 323.976562 260.855469 329.136719 260.726562 C 328.90625 261.441406 328.671875 262.15625 328.429688 262.867188 C 323.359375 263.03125 318.398438 263.191406 313.570312 263.34375 M 314.230469 261.222656 L 314.230469 261.222656"/></g><g id="change5_13"><path fill="#954e29" d="M 69.53125 345.59375 L 69.140625 345.59375 C 66.550781 345.59375 64.011719 345.195312 61.621094 344.496094 C 64.210938 345.183594 66.859375 345.476562 69.53125 345.59375"/></g><g id="change5_14"><path fill="#954e29" d="M 51.503906 339.058594 C 50.746094 338.398438 50.058594 337.710938 49.445312 337.003906 C 50.121094 337.75 50.804688 338.433594 51.503906 339.058594"/></g><g id="change5_15"><path fill="#954e29" d="M 48.976562 336.472656 C 46.824219 334.085938 45.320312 331.625 44.285156 329.078125 C 44.910156 330.546875 45.714844 332.035156 46.746094 333.582031 C 46.753906 333.59375 46.761719 333.605469 46.769531 333.617188 C 47.425781 334.59375 48.148438 335.53125 48.925781 336.414062 C 48.945312 336.433594 48.960938 336.453125 48.976562 336.472656"/></g><g id="change6_31"><path fill="#804120" d="M 48.925781 336.414062 C 48.148438 335.53125 47.425781 334.59375 46.769531 333.617188 C 47.476562 334.632812 48.195312 335.5625 48.925781 336.414062"/></g><g id="change5_16"><path fill="#954e29" d="M 42.203125 316.433594 C 42.203125 316.433594 42.203125 316.433594 42.203125 316.429688 L 42.273438 316.429688 C 42.273438 316.433594 42.273438 316.433594 42.273438 316.433594 C 42.25 316.433594 42.222656 316.433594 42.203125 316.433594"/></g><g id="change7_7"><path fill="#b76434" d="M 79.878906 345.59375 L 69.53125 345.59375 C 66.859375 345.476562 64.210938 345.183594 61.621094 344.496094 C 57.707031 343.355469 54.191406 341.402344 51.503906 339.058594 C 50.804688 338.433594 50.121094 337.75 49.445312 337.003906 C 49.371094 336.921875 49.300781 336.835938 49.234375 336.753906 C 49.148438 336.660156 49.0625 336.566406 48.976562 336.472656 C 48.960938 336.453125 48.945312 336.433594 48.925781 336.414062 C 48.195312 335.5625 47.476562 334.632812 46.769531 333.617188 C 46.761719 333.605469 46.753906 333.59375 46.746094 333.582031 C 45.714844 332.035156 44.910156 330.546875 44.285156 329.078125 C 42.753906 325.308594 42.253906 321.34375 42.207031 317.132812 C 42.222656 316.90625 42.242188 316.671875 42.273438 316.433594 L 42.203125 316.433594 L 42.273438 316.433594 C 42.273438 316.433594 42.273438 316.433594 42.273438 316.429688 L 42.277344 316.429688 C 42.742188 311.519531 44.191406 303.363281 45.117188 298.773438 C 43.109375 293.042969 43.75 294.871094 42.203125 290.460938 C 42.203125 290.21875 42.195312 268.945312 42.199219 250.910156 C 42.367188 252.867188 42.523438 254.703125 42.667969 256.425781 C 43.101562 261.617188 43.441406 265.800781 43.71875 269.238281 C 43.832031 270.589844 43.929688 271.828125 44.027344 272.96875 C 45.039062 285.054688 45.34375 285.929688 47.957031 294.761719 C 48.480469 296.53125 49.097656 298.621094 49.832031 301.1875 C 49.074219 302.894531 48.15625 305.28125 47.378906 307.890625 C 46.546875 310.675781 45.878906 313.710938 45.734375 316.429688 C 45.671875 317.601562 45.707031 318.714844 45.871094 319.726562 C 46.074219 320.992188 46.476562 322.101562 47.140625 322.957031 C 48.550781 324.804688 48.765625 326.84375 49.582031 329.046875 C 49.597656 329.089844 49.613281 329.132812 49.628906 329.175781 C 50.957031 332.648438 53.847656 336.53125 65.351562 340.671875 L 65.371094 340.679688 C 65.421875 340.699219 65.472656 340.71875 65.523438 340.734375 C 69.355469 342.101562 74.132812 343.507812 80.109375 344.929688 L 79.878906 345.59375"/></g><g id="change7_8"><path fill="#b76434" d="M 42.207031 317.132812 C 42.203125 316.898438 42.203125 316.667969 42.203125 316.433594 L 42.273438 316.433594 C 42.242188 316.671875 42.222656 316.90625 42.207031 317.132812"/></g><g id="change8_2"><path fill="#612f15" d="M 114.6875 175.632812 L 110.382812 164.042969 L 110.355469 164.03125 L 103.855469 161.191406 C 103.90625 161.152344 104.050781 161.035156 104.273438 160.855469 C 106.28125 159.226562 114.597656 152.488281 114.933594 152.109375 L 118.148438 152.109375 C 118.117188 152.152344 118.085938 152.195312 118.054688 152.238281 C 116.585938 154.261719 116.382812 154.570312 113.597656 158.441406 C 113.144531 159.070312 112.628906 159.789062 112.027344 160.621094 C 111.972656 160.699219 111.914062 160.777344 111.855469 160.859375 L 114.6875 163.691406 L 114.6875 175.632812"/></g><g id="change8_3"><path fill="#612f15" d="M 123.121094 154.085938 L 123.113281 154.085938 L 123.117188 154.082031 L 123.125 154.082031 L 125.761719 152.488281 L 125.953125 152.371094 L 126.390625 152.109375 L 126.40625 152.109375 L 123.121094 154.085938"/></g><g id="change8_4"><path fill="#612f15" d="M 249.773438 340.214844 L 246.574219 330.199219 L 246.59375 330.238281 C 249.757812 340.144531 249.394531 339.011719 249.777344 340.210938 L 249.773438 340.214844"/></g></g></svg>