<?xml version="1.0" encoding="UTF-8" standalone="no"?><svg xmlns="http://www.w3.org/2000/svg" xmlns:xlink="http://www.w3.org/1999/xlink" contentScriptType="text/ecmascript" fill="#000000" width="133.1" zoomAndPan="magnify" contentStyleType="text/css" viewBox="0.1 0.0 133.1 207.6" height="207.6" preserveAspectRatio="xMidYMid meet" version="1"><g id="change1_1"><path fill="#cee489" d="M4.1,83v0.2c0.1-1.6,0.2-3.1,0.2-4.7C4.2,80,4.2,81.5,4.1,83z M2,201.6L2,201.6c0-0.4,0-0.7-0.1-1 C1.9,200.9,1.9,201.2,2,201.6z M0.4,206.3l-0.3-0.9c0-0.9,0.1-1.8,0.1-2.6s0-2.1,0-3.1c0-0.4,0-0.8,0-1.3s0-0.6,0-0.9 c0.1-1.2,0.1-2.3,0-3.5c0-1.2-0.1-2.4-0.1-3.6c0-2,0.1-4,0.1-5.9c0-1,0-2,0-3s-0.1-2-0.1-3s0-2,0-3.1s0-2.1,0-3.2c0-2.2,0-4.3,0-6.5 s0.1-4.2,0.2-6.3s0.2-4.2,0.3-6.3s0.2-4.1,0.3-6.2S0.9,143,1,141s0.1-4.2,0.1-6.3s0-4.2,0-6.4s0-4.2,0-6.2s0-4,0-6 c0.1-2.2,0.2-4.4,0.3-6.6s0.1-4.4,0.1-6.6s0-4.2,0.1-6.3s0.2-4,0.3-5.9c0.1-0.8,0.1-1.6,0.2-2.3c0.2-1.9,0.4-3.8,0.5-5.7 s0.2-4.1,0.2-6.2c0.1-4.2,0-8.3,0.3-12.5c0.1-1.7,0.3-3.3,0.4-5s0.3-3.4,0.4-5.1c0.3-3.4,0.4-6.9,0.2-10.4v0.2c0-0.1,0-0.2,0-0.4 c0,0.1,0,0.1,0,0.2C4,41.6,3.8,39.8,3.7,38c-0.2-3.1-0.2-6.1-0.2-9.2s0.1-6.4,0.2-9.6c0.1-1.9,0.2-3.8,0.2-5.7c0-2.1,0-4.2,0-6.3 c0-1.8,0-3.6,0.1-5.4h1.2L7.1,2l3.8,0.2c2.6,0.1,5.2,0.1,7.8,0s5.2-0.2,7.9-0.3s5.4-0.4,8-0.5s5.3-0.2,8-0.4l3.8-0.2 c1.3-0.1,2.7-0.1,4-0.2C53,0.4,55.5,0.3,58,0.2C59.3,0.1,60.7,0,62,0s2.8,0,4.2,0h4.2c1.4,0,2.8,0,4.2,0c2.7,0,5.3,0,8,0.1 s5.4,0.1,8.1,0.2s5.5,0,8.2,0s5.3-0.1,7.9-0.1s5.5,0,8.2-0.1c2.6-0.1,5.3,0,7.9,0.2c1.4,0.1,2.8,0.4,4.1,0.6 c0.3,0.1,0.6,0.1,0.9,0.2s0.4,0.1,0.7,0.2c0.4,0.1,0.7,0.3,1,0.5c0,0,0.1,0.1,0.1,0.1h0.2c0,0.6,0,1.2-0.1,1.8c0,1-0.1,1.9-0.1,2.9 s0,2,0,3.1c0,1.9,0.1,3.7,0.3,5.6l0,0c0.1,1.5,0.2,2.9,0.2,4.4s0.1,2.8,0.1,4.2s0.1,2.8,0.1,4.2s0.1,2.8,0.1,4.3 c0,1.1,0.1,2.2,0.1,3.3s0.1,2.3,0.1,3.5s0.1,2.3,0.1,3.5s0,2.3,0.1,3.5c0.1,2.4,0.3,4.7,0.5,7.1s0.4,4.7,0.5,7s0.3,4.4,0.3,6.7 s0,4.3,0,6.5s-0.1,4.4,0,6.6s0.1,4.2,0.2,6.4c0.1,2.4,0.2,4.7,0.4,7.1c0.1,2.3,0.1,4.6,0.1,6.9s0,4.7,0,7.1s0.1,4.6,0.2,6.9 s0.1,4.7,0.1,7c0,1.1,0,2.3-0.1,3.4s-0.1,2.5-0.2,3.8s-0.1,2.3-0.1,3.4s0,2.5,0,3.8c0.1,2.3,0.2,4.7,0.2,7c0,1.1,0.1,2.3,0.1,3.4 s0,2.1,0,3.2c0,2.1,0,4.3,0,6.4c0,2.1,0,4.2,0,6.3s0,4.2,0,6.3c-0.1,3.1-0.1,6.3-0.1,9.4c0,1.1,0,2.2,0,3.4v0.8c0,1.9,0,3.8,0,5.6 c0,2.2-0.1,4.4-0.1,6.6c0,1.1,0,2.2,0,3.2c0,0.6,0,1.1,0.1,1.7s0,1.1,0.1,1.6c0,0.8,0.1,1.5,0.1,2.2c0,0.2,0,0.5,0,0.7 c-0.1,0.9-0.1,1.9-0.1,2.9c-0.3,0.3-0.7,0.4-1.2,0.4c-0.7,0-1.3,0-2,0l-3.9,0.1c-2.9,0-5.8,0-8.7,0c-5.5,0-10.9,0.2-16.4,0 c-2.8-0.1-5.6-0.3-8.4-0.3c-1.5,0-3,0-4.5,0h-4c-2.8,0-5.7,0-8.5-0.1s-5.7-0.1-8.6-0.1c-1.6,0-3.1,0-4.7,0h-3.7 c-2.8,0-5.6-0.1-8.5-0.1s-5.5,0.1-8.3,0.2s-5.6,0.2-8.4,0.3s-5.4,0.3-8.1,0.4c-1.9,0.1-3.8,0.1-5.7,0.1h-2.7c-1.3,0-2.6-0.1-3.9-0.1 s-2.5-0.1-3.7-0.1s-2.6,0.1-3.9,0.1c-0.7,0-1.4,0-2.2,0c0,0,0,0.1,0,0.1l-2.5,0.1C0.8,207.3,0.6,206.8,0.4,206.3z"/></g></svg>