<?xml version="1.0" encoding="UTF-8" standalone="no"?><svg xmlns="http://www.w3.org/2000/svg" xmlns:xlink="http://www.w3.org/1999/xlink" contentScriptType="text/ecmascript" fill="#5d8530" width="500" zoomAndPan="magnify" contentStyleType="text/css" viewBox="0.0 0.0 500.0 246.2" height="246.2" preserveAspectRatio="xMidYMid meet" version="1"><defs><clipPath id="a"><path d="M 343 212 L 381 212 L 381 246.160156 L 343 246.160156 Z M 343 212"/></clipPath><clipPath id="b"><path d="M 317 215 L 342 215 L 342 246.160156 L 317 246.160156 Z M 317 215"/></clipPath><clipPath id="c"><path d="M 261 193 L 273 193 L 273 246.160156 L 261 246.160156 Z M 261 193"/></clipPath><clipPath id="d"><path d="M 193 227 L 203 227 L 203 246.160156 L 193 246.160156 Z M 193 227"/></clipPath><clipPath id="e"><path d="M 97 178 L 184 178 L 184 246.160156 L 97 246.160156 Z M 97 178"/></clipPath><clipPath id="f"><path d="M 407 200 L 500 200 L 500 246.160156 L 407 246.160156 Z M 407 200"/></clipPath><clipPath id="g"><path d="M 376 195 L 476 195 L 476 246.160156 L 376 246.160156 Z M 376 195"/></clipPath><clipPath id="h"><path d="M 374 204 L 443 204 L 443 246.160156 L 374 246.160156 Z M 374 204"/></clipPath><clipPath id="i"><path d="M 389 227 L 416 227 L 416 246.160156 L 389 246.160156 Z M 389 227"/></clipPath><clipPath id="j"><path d="M 312 175 L 400 175 L 400 246.160156 L 312 246.160156 Z M 312 175"/></clipPath><clipPath id="k"><path d="M 367 240 L 374 240 L 374 246.160156 L 367 246.160156 Z M 367 240"/></clipPath><clipPath id="l"><path d="M 324 211 L 356 211 L 356 246.160156 L 324 246.160156 Z M 324 211"/></clipPath><clipPath id="m"><path d="M 316 238 L 321 238 L 321 246.160156 L 316 246.160156 Z M 316 238"/></clipPath><clipPath id="n"><path d="M 278 187 L 307 187 L 307 246.160156 L 278 246.160156 Z M 278 187"/></clipPath><clipPath id="o"><path d="M 284 238 L 288 238 L 288 246.160156 L 284 246.160156 Z M 284 238"/></clipPath><clipPath id="p"><path d="M 253 232 L 256 232 L 256 246.160156 L 253 246.160156 Z M 253 232"/></clipPath><clipPath id="q"><path d="M 246 233 L 248 233 L 248 246.160156 L 246 246.160156 Z M 246 233"/></clipPath><clipPath id="r"><path d="M 233 227 L 237 227 L 237 246.160156 L 233 246.160156 Z M 233 227"/></clipPath><clipPath id="s"><path d="M 213 223 L 222 223 L 222 246.160156 L 213 246.160156 Z M 213 223"/></clipPath><clipPath id="t"><path d="M 198 246 L 199 246 L 199 246.160156 L 198 246.160156 Z M 198 246"/></clipPath><clipPath id="u"><path d="M 178 181 L 219 181 L 219 246.160156 L 178 246.160156 Z M 178 181"/></clipPath><clipPath id="v"><path d="M 143 211 L 176 211 L 176 246.160156 L 143 246.160156 Z M 143 211"/></clipPath><clipPath id="w"><path d="M 130 241 L 136 241 L 136 246.160156 L 130 246.160156 Z M 130 241"/></clipPath><clipPath id="x"><path d="M 108 227 L 132 227 L 132 246.160156 L 108 246.160156 Z M 108 227"/></clipPath><clipPath id="y"><path d="M 81 177 L 178 177 L 178 246.160156 L 81 246.160156 Z M 81 177"/></clipPath><clipPath id="z"><path d="M 61 216 L 110 216 L 110 246.160156 L 61 246.160156 Z M 61 216"/></clipPath><clipPath id="A"><path d="M 22 176 L 157 176 L 157 246.160156 L 22 246.160156 Z M 22 176"/></clipPath><clipPath id="B"><path d="M 1 201 L 97 201 L 97 246.160156 L 1 246.160156 Z M 1 201"/></clipPath><clipPath id="C"><path d="M 0 200 L 89 200 L 89 246.160156 L 0 246.160156 Z M 0 200"/></clipPath></defs><g><g id="change1_22"><path d="M 0 117.503906 L 0 121.804688 C 18.019531 121.179688 36.039062 120.703125 54.058594 120.382812 C 36.039062 119.574219 18.015625 118.617188 0 117.503906"/></g><g id="change1_23"><path d="M 0 73.734375 L 0 81.429688 L 119.746094 99.453125 Z M 0 73.734375"/></g><g id="change1_24"><path d="M 26.027344 60.273438 C 17.339844 57.515625 8.667969 54.714844 0 51.886719 L 0 57.910156 C 24.253906 63.234375 48.441406 68.820312 72.550781 74.675781 C 57.011719 69.988281 41.5 65.1875 26.027344 60.273438"/></g><g id="change1_25"><path d="M 0 27.949219 L 0 39.027344 C 56.4375 56.195312 112.507812 74.445312 168.167969 93.78125 C 111.675781 72.957031 55.621094 51.011719 0 27.949219"/></g><g id="change1_26"><path d="M 9.164062 10.925781 C 18.886719 15.179688 28.574219 19.453125 38.226562 23.753906 C 55.816406 31.582031 73.277344 39.476562 90.617188 47.4375 C 59.972656 31.941406 29.769531 16.214844 0 0.277344 L 0 10.648438 C 13.328125 15.914062 26.613281 21.273438 39.851562 26.730469 C 29.59375 21.527344 19.363281 16.253906 9.164062 10.925781"/></g><g id="change1_27"><path d="M 123.089844 0.0234375 L 119.035156 0.0234375 C 131.546875 11.117188 143.96875 22.304688 156.300781 33.597656 C 145.144531 22.492188 134.074219 11.300781 123.089844 0.0234375"/></g><g id="change1_28"><path d="M 160.976562 0.0234375 L 158.703125 0.0234375 C 166.628906 10.160156 174.492188 20.339844 182.289062 30.566406 C 175.121094 20.425781 168.019531 10.242188 160.976562 0.0234375"/></g><g id="change1_29"><path d="M 305.644531 0.0234375 C 302.933594 6.363281 300.199219 12.695312 297.445312 19.019531 C 300.488281 12.675781 303.550781 6.34375 306.632812 0.0234375 L 305.644531 0.0234375"/></g><g id="change1_30"><path d="M 392.40625 7.910156 C 395.800781 5.277344 399.199219 2.648438 402.601562 0.0234375 L 395.398438 0.0234375 C 369.417969 22.988281 343.171875 45.660156 316.671875 68.019531 C 341.691406 47.722656 366.949219 27.675781 392.40625 7.910156"/></g><g id="change1_31"><path d="M 461.351562 44.207031 C 446.324219 50.253906 431.226562 56.25 416.050781 62.199219 C 443.816406 52.292969 471.800781 42.550781 500 32.957031 L 500 26.148438 C 481.5 34.257812 462.914062 42.195312 444.261719 49.941406 C 449.949219 48.011719 455.648438 46.101562 461.351562 44.207031"/></g><g id="change1_32"><path d="M 382.519531 86.109375 C 374.355469 88.550781 366.183594 90.984375 357.992188 93.402344 C 374.917969 88.710938 391.910156 84.078125 408.960938 79.492188 C 439.1875 72.070312 469.535156 65.089844 500 58.558594 L 500 47.519531 C 458.804688 61.839844 417.332031 75.296875 375.609375 87.878906 C 377.914062 87.285156 380.214844 86.695312 382.519531 86.109375"/></g><g id="change1_33"><path d="M 383.761719 109.996094 C 383.070312 110.074219 382.378906 110.152344 381.6875 110.230469 C 382.921875 110.113281 384.160156 109.996094 385.394531 109.875 C 423.535156 107.023438 461.746094 104.832031 500 103.308594 L 500 92.855469 C 455.1875 99.984375 410.261719 106.183594 365.230469 111.445312 C 371.402344 110.945312 377.582031 110.464844 383.761719 109.996094"/></g><g id="change1_34"><path d="M 500 128.609375 L 500 124.308594 C 481.980469 124.9375 463.960938 125.410156 445.941406 125.734375 C 463.960938 126.539062 481.984375 127.5 500 128.609375"/></g><g id="change1_35"><path d="M 500 145.789062 L 500 139.609375 C 473.414062 138.890625 446.855469 137.855469 420.292969 136.492188 C 446.890625 139.261719 473.460938 142.363281 500 145.789062"/></g><g id="change1_36"><path d="M 500 171.722656 L 500 165.429688 C 474.566406 162.175781 449.183594 158.617188 423.828125 154.75 C 449.277344 160.09375 474.671875 165.75 500 171.722656"/></g><g id="change1_37"><path d="M 473.972656 185.84375 C 476.480469 186.640625 478.992188 187.441406 481.5 188.246094 C 475.253906 186.621094 469.011719 184.988281 462.777344 183.351562 C 475.21875 187.054688 487.628906 190.789062 500 194.554688 L 500 188.203125 C 475.746094 182.882812 451.5625 177.296875 427.449219 171.4375 C 442.988281 176.125 458.5 180.929688 473.972656 185.84375"/></g><g id="change1_38"><path d="M 500 239.996094 L 500 235.46875 C 486.671875 230.199219 473.386719 224.84375 460.148438 219.382812 C 473.480469 226.148438 486.765625 233.023438 500 239.996094"/></g><g id="change1_6" clip-path="url(#a)"><path d="M 376.910156 246.09375 L 380.964844 246.09375 C 368.453125 235 356.03125 223.808594 343.699219 212.515625 C 354.855469 223.621094 365.925781 234.816406 376.910156 246.09375"/></g><g id="change1_100" clip-path="url(#b)"><path d="M 339.023438 246.09375 L 341.296875 246.09375 C 333.371094 235.953125 325.507812 225.773438 317.710938 215.546875 C 324.878906 225.6875 331.980469 235.871094 339.023438 246.09375"/></g><g id="change1_104" clip-path="url(#c)"><path d="M 269.152344 230.984375 C 266.433594 218.511719 263.917969 206.03125 261.613281 193.542969 C 263.722656 211.042969 265.425781 228.5625 266.730469 246.09375 L 272.730469 246.09375 C 270.183594 233.210938 267.6875 220.316406 265.257812 207.410156 C 266.578125 215.265625 267.875 223.121094 269.152344 230.984375"/></g><g id="change1_3" clip-path="url(#d)"><path d="M 194.355469 246.09375 C 197.066406 239.75 199.800781 233.417969 202.550781 227.097656 C 199.511719 233.4375 196.449219 239.769531 193.367188 246.09375 L 194.355469 246.09375"/></g><g id="change1_20" clip-path="url(#e)"><path d="M 107.59375 238.203125 C 104.199219 240.839844 100.800781 243.46875 97.398438 246.09375 L 104.601562 246.09375 C 130.582031 223.128906 156.828125 200.453125 183.328125 178.097656 C 158.308594 198.390625 133.050781 218.4375 107.59375 238.203125"/></g><g id="change1_39"><path d="M 0 127.269531 L 0 131.394531 C 34.054688 129.394531 70.476562 128.074219 102.417969 126.753906 C 70.5 126.597656 34.089844 127.558594 0 127.269531"/></g><g id="change1_40"><path d="M 0 121.808594 L 0 122.488281 C 8.246094 122.425781 16.488281 122.371094 24.734375 122.328125 C 16.488281 122.167969 8.246094 121.992188 0 121.808594"/></g><g id="change1_41"><path d="M 0 115.539062 L 0 116.554688 C 12.425781 116.753906 24.847656 116.976562 37.269531 117.222656 C 24.84375 116.6875 12.417969 116.125 0 115.539062"/></g><g id="change1_42"><path d="M 12.601562 106.871094 C 34.980469 107.5625 57.34375 108.476562 79.707031 109.625 C 53.109375 106.851562 26.539062 103.753906 0 100.328125 L 0 107.039062 C 14.839844 107.835938 29.671875 108.660156 44.488281 109.527344 C 33.855469 108.664062 23.226562 107.777344 12.601562 106.871094"/></g><g id="change1_43"><path d="M 0 98.105469 L 0 98.148438 C 0.472656 98.191406 0.945312 98.234375 1.417969 98.273438 C 0.945312 98.21875 0.472656 98.160156 0 98.105469"/></g><g id="change1_44"><path d="M 129.933594 107.894531 C 91.605469 102.476562 53.410156 96.808594 15.363281 90.890625 C 10.238281 90.09375 5.117188 89.289062 0 88.484375 L 0 92.398438 C 4.570312 92.90625 9.140625 93.421875 13.710938 93.9375 C 52.570312 98.335938 91.328125 102.992188 129.933594 107.894531"/></g><g id="change1_45"><path d="M 0 70.820312 L 0 73.253906 C 23.507812 77.640625 46.941406 82.128906 70.289062 86.707031 C 46.765625 81.511719 23.339844 76.214844 0 70.820312"/></g><g id="change1_46"><path d="M 0 64.457031 L 0 64.792969 C 3.023438 65.457031 6.046875 66.121094 9.066406 66.789062 C 6.042969 66.011719 3.019531 65.234375 0 64.457031"/></g><g id="change1_47"><path d="M 43.082031 55.253906 C 28.652344 50.152344 14.296875 45.011719 0 39.832031 L 0 46.171875 C 46.207031 59.601562 91.925781 73.425781 137.164062 87.652344 C 105.542969 77.050781 74.179688 66.25 43.082031 55.253906"/></g><g id="change1_48"><path d="M 140.023438 77.390625 C 112.71875 65.367188 85.722656 53.195312 59.007812 40.863281 C 39.179688 31.710938 19.511719 22.464844 0 13.132812 L 0 21.820312 C 18.464844 28.859375 36.824219 35.96875 55.070312 43.144531 C 83.667969 54.394531 111.988281 65.8125 140.023438 77.390625"/></g><g id="change1_49"><path d="M 14.484375 0.00390625 L 1.457031 0.00390625 C 32.679688 14.402344 63.492188 29.011719 93.875 43.824219 C 67.039062 29.390625 40.566406 14.777344 14.484375 0.00390625"/></g><g id="change1_50"><path d="M 90.359375 32.914062 C 91.59375 33.570312 92.832031 34.222656 94.066406 34.878906 C 104.023438 40.164062 113.949219 45.503906 123.847656 50.894531 C 96.421875 34.34375 69.230469 17.378906 42.292969 0.0234375 L 36.566406 0.0234375 C 36.554688 0.015625 36.546875 0.0078125 36.535156 0.00390625 L 24.949219 0.00390625 C 53.707031 14.691406 82.066406 29.566406 110 44.621094 C 103.429688 40.730469 96.882812 36.828125 90.359375 32.914062"/></g><g id="change1_51"><path d="M 67.214844 0.00390625 L 58.226562 0.00390625 C 81.167969 13.78125 103.785156 27.6875 126.054688 41.722656 C 106.125 27.921875 86.519531 14.015625 67.214844 0.00390625"/></g><g id="change1_52"><path d="M 88.761719 0.00390625 L 85.257812 0.00390625 C 94.113281 6.191406 102.910156 12.402344 111.640625 18.632812 C 103.957031 12.441406 96.328125 6.230469 88.761719 0.00390625"/></g><g id="change1_53"><path d="M 112.929688 0.00390625 L 101.03125 0.00390625 C 131.171875 23.269531 160.453125 46.800781 188.84375 70.574219 C 162.71875 47.285156 137.410156 23.753906 112.929688 0.00390625"/></g><g id="change1_54"><path d="M 128.351562 0.00390625 L 127.441406 0.00390625 C 129.570312 1.992188 131.699219 3.984375 133.820312 5.980469 C 131.992188 3.988281 130.167969 1.996094 128.351562 0.00390625"/></g><g id="change1_55"><path d="M 150.613281 0.00390625 L 145.816406 0.00390625 C 156.347656 11.507812 166.683594 23.054688 176.824219 34.640625 C 167.898438 23.136719 159.160156 11.585938 150.613281 0.00390625"/></g><g id="change1_56"><path d="M 181.003906 0.00390625 L 180.089844 0.00390625 C 181.644531 2.476562 183.195312 4.957031 184.734375 7.4375 C 183.480469 4.960938 182.238281 2.480469 181.003906 0.00390625"/></g><g id="change1_57"><path d="M 201.34375 0.00390625 L 194.457031 0.00390625 C 195.042969 1.15625 195.636719 2.3125 196.21875 3.46875 C 205.519531 21.859375 214.347656 40.304688 222.710938 58.796875 C 215.429688 40.179688 208.628906 21.53125 202.292969 2.835938 C 201.972656 1.890625 201.660156 0.945312 201.34375 0.00390625"/></g><g id="change1_58"><path d="M 214.320312 0.00390625 L 213.453125 0.00390625 C 214.355469 2.554688 215.246094 5.109375 216.128906 7.664062 C 215.519531 5.109375 214.917969 2.558594 214.320312 0.00390625"/></g><g id="change1_59"><path d="M 228.355469 0.00390625 C 228.355469 0.0078125 228.355469 0.015625 228.359375 0.0234375 L 227.269531 0.0234375 C 229.816406 12.90625 232.308594 25.796875 234.742188 38.703125 C 232.617188 26.089844 230.554688 13.464844 228.542969 0.828125 C 232.519531 18.054688 236.101562 35.296875 239.289062 52.550781 C 237.179688 35.050781 235.476562 17.53125 234.171875 0.00390625 L 228.355469 0.00390625"/></g><g id="change1_60"><path d="M 247.023438 14.019531 C 247.109375 9.347656 247.230469 4.675781 247.371094 0.00390625 L 245.820312 0.00390625 C 246.246094 4.675781 246.652344 9.347656 247.023438 14.019531"/></g><g id="change1_61"><path d="M 254.890625 0.00390625 L 253.527344 0.00390625 C 253.652344 4.097656 253.761719 8.195312 253.84375 12.292969 C 254.167969 8.195312 254.523438 4.097656 254.890625 0.00390625"/></g><g id="change1_62"><path d="M 265.464844 0.00390625 C 265.066406 6.175781 264.621094 12.351562 264.121094 18.523438 C 265.199219 12.347656 266.328125 6.175781 267.507812 0.00390625 L 265.464844 0.00390625"/></g><g id="change1_63"><path d="M 284.609375 0.00390625 C 283.011719 7.378906 281.347656 14.746094 279.605469 22.113281 C 282.035156 14.738281 284.546875 7.367188 287.125 0.00390625 L 284.609375 0.00390625"/></g><g id="change1_64"><path d="M 302.5 0.00390625 C 302.417969 0.238281 302.335938 0.472656 302.25 0.707031 C 302.359375 0.472656 302.476562 0.238281 302.585938 0.00390625 L 302.5 0.00390625"/></g><g id="change1_65"><path d="M 317.109375 7.636719 C 318.710938 5.089844 320.324219 2.546875 321.949219 0.00390625 L 314.074219 0.00390625 C 313.050781 2.273438 312.019531 4.546875 310.976562 6.816406 C 302.125 26.128906 292.761719 45.390625 282.894531 64.570312 C 293.792969 45.527344 305.199219 26.546875 317.109375 7.636719"/></g><g id="change1_66"><path d="M 352.601562 0.00390625 C 343.769531 11.683594 334.742188 23.328125 325.523438 34.933594 C 335.980469 23.242188 346.640625 11.601562 357.492188 0.00390625 L 352.601562 0.00390625"/></g><g id="change1_67"><path d="M 369.621094 0.00390625 C 368.285156 1.503906 366.949219 3.007812 365.605469 4.507812 C 367.167969 3.003906 368.734375 1.503906 370.300781 0.00390625 L 369.621094 0.00390625"/></g><g id="change1_68"><path d="M 392.386719 0.00390625 L 389.3125 0.00390625 C 382.878906 6.183594 376.394531 12.347656 369.847656 18.5 C 377.300781 12.316406 384.8125 6.152344 392.386719 0.00390625"/></g><g id="change1_69"><path d="M 388.816406 21.410156 C 399.082031 14.242188 409.425781 7.105469 419.851562 0.00390625 L 407.09375 0.00390625 C 380.070312 22.964844 352.253906 45.683594 323.625 68.164062 C 344.957031 52.449219 366.6875 36.863281 388.816406 21.410156"/></g><g id="change1_70"><path d="M 439.53125 0.00390625 L 433.203125 0.00390625 C 419.535156 9.953125 405.714844 19.847656 391.738281 29.6875 C 407.503906 19.726562 423.433594 9.832031 439.53125 0.00390625"/></g><g id="change1_71"><path d="M 344.277344 69.585938 C 355.183594 63.46875 366.15625 57.382812 377.1875 51.324219 C 376.996094 51.4375 376.808594 51.554688 376.617188 51.664062 C 409.757812 33.890625 443.226562 16.671875 477.007812 0.0234375 L 473.535156 0.0234375 C 473.550781 0.015625 473.5625 0.0078125 473.574219 0.00390625 L 456.101562 0.00390625 C 441.933594 9.179688 427.625 18.300781 413.183594 27.367188 C 390.546875 41.578125 367.574219 55.652344 344.277344 69.585938"/></g><g id="change1_72"><path d="M 404.546875 45.03125 C 435.734375 29.804688 467.371094 14.796875 499.445312 0.00390625 L 486.070312 0.00390625 C 474.855469 6.363281 463.570312 12.695312 452.210938 19 C 436.453125 27.738281 420.5625 36.417969 404.546875 45.03125"/></g><g id="change1_73"><path d="M 498.886719 0.617188 C 498.828125 0.574219 498.773438 0.53125 498.714844 0.492188 C 492.828125 3.71875 486.929688 6.925781 481.023438 10.117188 C 458.210938 22.1875 435.144531 34.136719 411.816406 45.949219 C 440.863281 32.613281 470.269531 19.460938 500 6.496094 L 500 0.0234375 C 499.628906 0.222656 499.257812 0.417969 498.886719 0.617188"/></g><g id="change1_74"><path d="M 468.164062 30.441406 C 478.734375 26.171875 489.351562 21.929688 500 17.710938 L 500 11.953125 C 470.4375 26.246094 440.511719 40.339844 410.210938 54.21875 C 429.394531 46.21875 448.714844 38.289062 468.164062 30.441406"/></g><g id="change1_75"><path d="M 500 43.664062 L 500 41.925781 C 487.546875 46.324219 475.050781 50.695312 462.511719 55.035156 C 474.96875 51.214844 487.464844 47.425781 500 43.664062"/></g><g id="change1_76"><path d="M 500 63.339844 L 500 62.886719 C 495.992188 63.945312 491.984375 65.003906 487.972656 66.054688 C 491.976562 65.148438 495.988281 64.242188 500 63.339844"/></g><g id="change1_77"><path d="M 458.21875 82.136719 C 451.058594 83.785156 443.890625 85.40625 436.71875 87.003906 C 457.769531 83.601562 478.867188 80.410156 500 77.421875 L 500 72.019531 C 476.847656 77.253906 453.613281 82.390625 430.300781 87.429688 C 439.589844 85.648438 448.898438 83.886719 458.21875 82.136719"/></g><g id="change1_78"><path d="M 500 89.507812 L 500 89.050781 C 495.015625 89.824219 490.03125 90.59375 485.039062 91.359375 C 490.023438 90.738281 495.011719 90.117188 500 89.507812"/></g><g id="change1_79"><path d="M 500 106.0625 L 500 105.632812 C 494.859375 106.078125 489.722656 106.523438 484.582031 106.960938 C 489.71875 106.65625 494.859375 106.359375 500 106.0625"/></g><g id="change1_80"><path d="M 478.054688 116.359375 C 453.855469 117.875 429.644531 119.140625 405.410156 120.144531 C 435.800781 120.289062 466.195312 120.839844 496.59375 121.789062 C 488.328125 121.976562 480.058594 122.152344 471.792969 122.3125 C 481.195312 122.355469 490.597656 122.417969 500 122.488281 L 500 113.035156 C 464.785156 115.050781 429.535156 116.863281 394.257812 118.46875 C 422.171875 117.640625 450.105469 116.9375 478.054688 116.359375"/></g><g id="change1_81"><path d="M 500 132.492188 L 500 131.476562 C 487.574219 131.28125 475.148438 131.058594 462.730469 130.8125 C 475.15625 131.347656 487.578125 131.90625 500 132.492188"/></g><g id="change1_82"><path d="M 500 149.925781 L 500 149.882812 C 499.527344 149.84375 499.054688 149.800781 498.582031 149.757812 C 499.054688 149.8125 499.527344 149.871094 500 149.925781"/></g><g id="change1_83"><path d="M 370.066406 140.140625 C 408.394531 145.554688 446.589844 151.222656 484.636719 157.140625 C 489.761719 157.9375 494.882812 158.742188 500 159.546875 L 500 155.636719 C 495.429688 155.125 490.855469 154.613281 486.289062 154.097656 C 447.429688 149.695312 408.671875 145.042969 370.066406 140.140625"/></g><g id="change1_84"><path d="M 500 177.210938 L 500 174.78125 C 476.488281 170.390625 453.058594 165.90625 429.710938 161.324219 C 453.234375 166.523438 476.660156 171.816406 500 177.210938"/></g><g id="change1_85"><path d="M 500 183.578125 L 500 183.238281 C 496.976562 182.574219 493.953125 181.910156 490.933594 181.246094 C 493.957031 182.019531 496.980469 182.800781 500 183.578125"/></g><g id="change1_86"><path d="M 456.921875 192.777344 C 464.351562 195.40625 471.761719 198.046875 479.15625 200.691406 C 429.753906 185.40625 380.636719 169.285156 331.832031 152.332031 C 370.433594 166.5625 408.824219 181.3125 447.015625 196.589844 C 444.769531 195.800781 442.515625 195.019531 440.269531 194.230469 C 454.050781 199.617188 467.761719 205.046875 481.417969 210.511719 C 487.617188 213.050781 493.8125 215.597656 500 218.164062 L 500 201.863281 C 453.792969 188.433594 408.074219 174.605469 362.835938 160.382812 C 394.457031 170.984375 425.820312 181.78125 456.921875 192.777344"/></g><g id="change1_87"><path d="M 359.976562 170.644531 C 387.28125 182.664062 414.277344 194.835938 440.992188 207.171875 C 460.820312 216.324219 480.488281 225.566406 500 234.898438 L 500 226.214844 C 481.535156 219.175781 463.175781 212.066406 444.929688 204.886719 C 416.332031 193.636719 388.015625 182.222656 359.976562 170.644531"/></g><g id="change1_105" clip-path="url(#f)"><path d="M 409.386719 200.597656 C 433.128906 212.605469 456.222656 224.542969 479.285156 236.734375 C 454.941406 225.371094 430.851562 213.886719 407.023438 202.269531 C 433.863281 216.703125 460.332031 231.316406 486.417969 246.09375 L 500 246.09375 L 500 241.109375 C 487.195312 235.535156 474.453125 229.929688 461.773438 224.28125 C 444.183594 216.449219 426.722656 208.554688 409.386719 200.597656"/></g><g id="change1_21" clip-path="url(#g)"><path d="M 417.273438 217.226562 C 413.492188 215.238281 409.710938 213.242188 405.933594 211.238281 C 395.976562 205.949219 386.050781 200.609375 376.152344 195.222656 C 403.578125 211.769531 430.769531 228.734375 457.710938 246.09375 L 475.949219 246.09375 C 447.191406 231.402344 418.835938 216.527344 390.898438 201.472656 C 399.734375 206.703125 408.527344 211.957031 417.273438 217.226562"/></g><g id="change1_11" clip-path="url(#h)"><path d="M 433.6875 246.09375 L 442.675781 246.09375 C 419.730469 232.3125 397.117188 218.40625 374.84375 204.371094 C 394.777344 218.171875 414.382812 232.078125 433.6875 246.09375"/></g><g id="change1_12" clip-path="url(#i)"><path d="M 412.140625 246.09375 L 415.640625 246.09375 C 406.785156 239.902344 397.988281 233.691406 389.257812 227.460938 C 396.945312 233.652344 404.570312 239.863281 412.140625 246.09375"/></g><g id="change1_101" clip-path="url(#j)"><path d="M 387.972656 246.09375 L 399.867188 246.09375 C 369.726562 222.824219 340.445312 199.296875 312.058594 175.519531 C 338.183594 198.808594 363.492188 222.339844 387.972656 246.09375"/></g><g id="change1_10" clip-path="url(#k)"><path d="M 372.550781 246.09375 L 373.460938 246.09375 C 371.328125 244.101562 369.199219 242.109375 367.082031 240.113281 C 368.910156 242.105469 370.730469 244.097656 372.550781 246.09375"/></g><g id="change1_103" clip-path="url(#l)"><path d="M 350.285156 246.09375 L 355.085938 246.09375 C 344.554688 234.585938 334.214844 223.039062 324.074219 211.453125 C 333 222.960938 341.738281 234.507812 350.285156 246.09375"/></g><g id="change1_106" clip-path="url(#m)"><path d="M 319.894531 246.09375 L 320.808594 246.09375 C 319.253906 243.617188 317.707031 241.136719 316.167969 238.65625 C 317.417969 241.136719 318.660156 243.613281 319.894531 246.09375"/></g><g id="change1_16" clip-path="url(#n)"><path d="M 278.1875 187.296875 C 285.46875 205.914062 292.269531 224.5625 298.605469 243.257812 C 298.925781 244.203125 299.238281 245.148438 299.558594 246.09375 L 306.445312 246.09375 C 305.855469 244.9375 305.265625 243.78125 304.679688 242.625 C 295.382812 224.234375 286.550781 205.789062 278.1875 187.296875"/></g><g id="change1_4" clip-path="url(#o)"><path d="M 286.578125 246.09375 L 287.445312 246.09375 C 286.546875 243.539062 285.652344 240.984375 284.769531 238.429688 C 285.382812 240.984375 285.984375 243.539062 286.578125 246.09375"/></g><g id="change1_17" clip-path="url(#p)"><path d="M 253.527344 246.09375 L 255.078125 246.09375 C 254.652344 241.421875 254.246094 236.746094 253.875 232.074219 C 253.789062 236.746094 253.671875 241.421875 253.527344 246.09375"/></g><g id="change1_5" clip-path="url(#q)"><path d="M 246.007812 246.09375 L 247.371094 246.09375 C 247.246094 241.996094 247.136719 237.898438 247.058594 233.800781 C 246.730469 237.898438 246.378906 241.996094 246.007812 246.09375"/></g><g id="change1_18" clip-path="url(#r)"><path d="M 235.4375 246.09375 C 235.832031 239.917969 236.28125 233.742188 236.777344 227.570312 C 235.699219 233.746094 234.570312 239.921875 233.394531 246.09375 L 235.4375 246.09375"/></g><g id="change1_13" clip-path="url(#s)"><path d="M 216.289062 246.09375 C 217.890625 238.71875 219.550781 231.347656 221.296875 223.984375 C 218.867188 231.355469 216.351562 238.726562 213.773438 246.09375 L 216.289062 246.09375"/></g><g id="change1_8" clip-path="url(#t)"><path d="M 198.3125 246.09375 L 198.398438 246.09375 C 198.40625 246.066406 198.417969 246.050781 198.425781 246.039062 C 198.386719 246.015625 198.351562 246.015625 198.3125 246.09375"/><path d="M 198.425781 246.039062 C 198.480469 246.078125 198.535156 246.171875 198.589844 246.15625 C 198.535156 246.144531 198.480469 245.976562 198.425781 246.039062"/><path d="M 198.589844 246.15625 C 198.609375 246.164062 198.628906 246.148438 198.648438 246.09375 C 198.628906 246.136719 198.609375 246.152344 198.589844 246.15625"/></g><g id="change1_19" clip-path="url(#u)"><path d="M 183.792969 238.457031 C 182.1875 241.003906 180.574219 243.550781 178.953125 246.09375 L 186.824219 246.09375 C 187.851562 243.820312 188.882812 241.550781 189.925781 239.277344 C 198.773438 219.96875 208.140625 200.707031 218.007812 181.523438 C 207.109375 200.566406 195.703125 219.550781 183.792969 238.457031"/></g><g id="change1_1" clip-path="url(#v)"><path d="M 148.300781 246.09375 C 157.132812 234.410156 166.15625 222.765625 175.375 211.160156 C 164.917969 222.851562 154.261719 234.492188 143.410156 246.09375 L 148.300781 246.09375"/></g><g id="change1_102" clip-path="url(#w)"><path d="M 131.277344 246.09375 C 132.613281 244.589844 133.949219 243.089844 135.292969 241.585938 C 133.730469 243.089844 132.164062 244.59375 130.597656 246.09375 L 131.277344 246.09375"/></g><g id="change1_2" clip-path="url(#x)"><path d="M 108.511719 246.09375 L 111.585938 246.09375 C 118.019531 239.910156 124.507812 233.746094 131.054688 227.597656 C 123.601562 233.777344 116.085938 239.941406 108.511719 246.09375"/></g><g id="change1_14" clip-path="url(#y)"><path d="M 112.082031 224.683594 C 101.820312 231.851562 91.472656 238.988281 81.050781 246.09375 L 93.804688 246.09375 C 120.828125 223.128906 148.648438 200.410156 177.273438 177.929688 C 155.941406 193.644531 134.210938 209.230469 112.082031 224.683594"/></g><g id="change1_7" clip-path="url(#z)"><path d="M 61.367188 246.09375 L 67.695312 246.09375 C 81.363281 236.140625 95.183594 226.246094 109.164062 216.40625 C 93.398438 226.371094 77.464844 236.261719 61.367188 246.09375"/></g><g id="change1_99" clip-path="url(#A)"><path d="M 156.621094 176.507812 C 142.335938 184.523438 127.9375 192.484375 113.433594 200.394531 C 116.746094 198.40625 120.0625 196.425781 123.382812 194.449219 C 90.242188 212.226562 56.773438 229.441406 22.992188 246.09375 L 44.800781 246.09375 C 58.96875 236.917969 73.273438 227.792969 87.71875 218.726562 C 110.355469 204.515625 133.324219 190.441406 156.621094 176.507812"/></g><g id="change1_9" clip-path="url(#B)"><path d="M 96.355469 201.058594 C 65.167969 216.289062 33.527344 231.300781 1.457031 246.09375 L 14.828125 246.09375 C 26.046875 239.730469 37.332031 233.398438 48.691406 227.097656 C 64.449219 218.355469 80.335938 209.675781 96.355469 201.058594"/></g><g id="change1_15" clip-path="url(#C)"><path d="M 88.183594 200.164062 C 59.132812 213.5 29.730469 226.65625 0 239.617188 L 0 246.09375 L 0.308594 246.09375 C 4.867188 243.59375 9.488281 241.078125 14.140625 238.558594 C 38.53125 225.613281 63.210938 212.8125 88.183594 200.164062"/></g><g id="change1_88"><path d="M 31.835938 217.59375 C 21.265625 221.859375 10.652344 226.101562 0 230.324219 L 0 236.078125 C 29.5625 221.789062 59.488281 207.695312 89.789062 193.8125 C 70.605469 201.816406 51.285156 209.746094 31.835938 217.59375"/></g><g id="change1_89"><path d="M 83.949219 185.835938 C 66.375 192.105469 48.710938 198.308594 30.964844 204.449219 C 20.660156 207.84375 10.339844 211.1875 0 214.472656 L 0 219.96875 C 5.46875 217.570312 10.949219 215.1875 16.433594 212.820312 C 38.777344 203.71875 61.277344 194.722656 83.949219 185.835938"/></g><g id="change1_90"><path d="M 0 204.367188 L 0 206.109375 C 12.457031 201.707031 24.949219 197.335938 37.488281 193 C 25.03125 196.816406 12.535156 200.605469 0 204.367188"/></g><g id="change1_91"><path d="M 142.007812 154.632812 C 124.789062 159.402344 107.503906 164.117188 90.15625 168.777344 C 101.546875 165.199219 112.957031 161.683594 124.386719 158.238281 C 83.160156 168.84375 41.6875 178.617188 0 187.558594 L 0 198.597656 C 4.042969 197.191406 8.09375 195.796875 12.140625 194.40625 C 55 180.789062 98.296875 167.523438 142.007812 154.632812"/></g><g id="change1_92"><path d="M 0 184.695312 L 0 185.148438 C 4.007812 184.089844 8.015625 183.03125 12.027344 181.976562 C 8.023438 182.886719 4.011719 183.789062 0 184.695312"/></g><g id="change1_93"><path d="M 4.136719 172.871094 C 23.808594 168.101562 43.527344 163.507812 63.28125 159.109375 C 42.226562 162.515625 21.132812 165.707031 0 168.695312 L 0 176.015625 C 23.152344 170.78125 46.386719 165.644531 69.703125 160.605469 C 47.917969 164.777344 26.058594 168.863281 4.136719 172.871094"/></g><g id="change1_94"><path d="M 0 158.527344 L 0 158.980469 C 4.984375 158.207031 9.96875 157.4375 14.960938 156.675781 C 9.976562 157.296875 4.988281 157.914062 0 158.527344"/></g><g id="change1_95"><path d="M 118.3125 137.804688 C 106.558594 138.9375 94.796875 140.046875 83.03125 141.136719 C 100.261719 138.84375 117.507812 136.6875 134.769531 134.671875 C 89.9375 138.300781 45 141.015625 0 142.804688 L 0 153.257812 C 16.539062 150.625 33.09375 148.125 49.660156 145.746094 C 72.507812 143.011719 95.394531 140.359375 118.3125 137.804688"/></g><g id="change1_96"><path d="M 0 141.972656 L 0 142.402344 C 5.136719 141.953125 10.277344 141.511719 15.417969 141.070312 C 10.28125 141.375 5.140625 141.675781 0 141.972656"/></g><g id="change1_97"><path d="M 0 132.105469 L 0 134.996094 C 35.214844 132.984375 70.464844 131.171875 105.742188 129.5625 C 70.527344 130.613281 35.277344 131.460938 0 132.105469"/></g><g id="change1_98"><path d="M 0 125.546875 L 0 126.316406 C 9.402344 126.105469 18.804688 125.902344 28.207031 125.71875 C 18.804688 125.675781 9.402344 125.617188 0 125.546875"/></g></g></svg>