<?xml version="1.0" encoding="UTF-8" standalone="no"?><svg xmlns="http://www.w3.org/2000/svg" xmlns:xlink="http://www.w3.org/1999/xlink" contentScriptType="text/ecmascript" zoomAndPan="magnify" text-rendering="geometricPrecision" contentStyleType="text/css" version="1" width="1199.19" shape-rendering="geometricPrecision" clip-rule="evenodd" fill="#000000" preserveAspectRatio="xMidYMid meet" viewBox="0 0 1199.19 496.49" height="496.49" fill-rule="evenodd" image-rendering="optimizeQuality"><g><g><path fill="#d0ecfa" d="M801.97 458.97l-53.51 -191.6 -9.92 -156.29c12.71,3.73 17.47,13.79 17.47,13.79 0,0 16.97,-55.86 45.68,-53.47 0,0 35.42,-69.16 68.19,-34.43 0,0 24.68,-13.68 48.94,22.97 0,0 4.88,-14.93 26.18,-13.19 21.29,1.74 24.79,36.96 24.79,36.96 0,0 10.14,-4.19 20.49,6.94 0,0 4.94,-35.76 42.39,-23.15 0,0 4.68,-52.88 38.46,-35.62 0,0 -4.21,-26.42 19.87,-30.88 24.09,-4.47 50.67,4.85 63.72,53.22 0,0 10.65,-28.3 34.45,-15.95 0,0 3.02,-8.57 10.02,-14.78l0 324.54 -397.22 110.94z"/><path fill="#edf7fc" d="M1157.92 496.49l41.27 -194.61 0 -156.61c-12.44,4.53 -16.55,14.87 -16.55,14.87 0,0 -20.48,-54.67 -48.98,-50.47 0,0 -39.74,-66.77 -70.24,-30.04 0,0 -25.5,-12.09 -47.39,26.03 0,0 -5.81,-14.6 -26.95,-11.51 -21.14,3.09 -22.41,38.45 -22.41,38.45 0,0 -10.38,-3.54 -20,8.23 0,0 -7.2,-35.37 -43.78,-20.42 0,0 -8.02,-52.47 -40.63,-33.11 0,0 2.53,-26.63 -21.79,-29.56 -24.32,-2.93 -50.26,8.05 -60.22,57.15 0,0 -12.42,-27.57 -35.39,-13.74 0,0 -10.4,-24.47 -32.6,-18.49 0,0 -28.72,-22.13 -47.34,21.58 0,0 -26.09,-19.78 -40.41,28.85 0,0 -61.62,-28.66 -72.46,28.72 0,0 -12.14,-14.15 -26.31,-8.25 0,0 -4.72,-19.71 -32.09,-25.07 -27.37,-5.36 -40.89,18.5 -40.89,18.5 0,0 -9.74,-14.98 -27.23,-10.23 0,0 3.78,-24.14 -23.32,-30.78 0,0 -19.31,-22.35 -47.32,-1.57 0,0 -12.6,-18.26 -37.94,-14.28 0,0 -10.32,-22.42 -76.12,-14.56 0,0 -4.6,-30.81 -27.57,-25.44 0,0 -9.81,-47.1 -61.95,-23.86 0,0 -47.96,72.11 -68.92,89.04 0,0 -3.4,-38.57 -29.49,-43.66 -26.09,-5.09 -29.94,17.25 -29.94,17.25 0,0 -10.64,-6.07 -22.96,-4.43l0 91.65 0 74.81 1157.92 245.56z"/><path fill="#fcfeff" d="M0 408.92l0 -354.64c3.98,-2.23 8.68,-3.47 14.23,-3.04 27.72,2.12 31.37,23.53 31.37,23.53 0,0 31.37,-49.24 58.39,-39.22 0,0 52.72,-57.07 74.94,-14.81 0,0 27.45,-6.54 40.95,35.29 0,0 8.72,-13.07 28.76,-5.66 20.04,7.4 13.94,42.26 13.94,42.26 0,0 10.89,-1.31 17.87,12.2 0,0 14.37,-33.11 47.05,-10.89 0,0 18.74,-49.67 46.62,-23.97 0,0 3.05,-26.57 27.45,-24.39 24.4,2.17 47.49,18.29 47.06,68.4 0,0 17.86,-24.4 37.47,-6.1 0,0 15.25,-21.78 35.72,-11.33 0,0 32.68,-15.68 41.83,30.94 0,0 29.63,-13.94 33.55,36.6 0,0 66.23,-15.25 64.92,43.13 0,0 14.81,-11.33 27.45,-2.61 0,0 8.71,-18.3 36.6,-17.87 27.88,0.44 36.16,26.58 36.16,26.58 0,0 12.64,-12.63 28.76,-4.36 0,0 1.31,-24.4 29.19,-25.27 0,0 23.53,-17.86 46.62,8.28 0,0 16.12,-15.25 40.08,-6.1 0,0 11.77,-40.08 74.51,-18.73 0,0 10.89,-29.2 32.24,-19.17 0,0 20.91,-44.45 67.1,-10.9 0,0 14.38,-11.32 31.37,9.59 0,0 11.33,-37.04 37.91,-36.6 26.57,0.43 25.7,23.09 25.7,23.09 0,0 11.67,-3.73 23.38,0.42l0 275.35 -1199.19 0z"/></g></g></svg>