<?xml version="1.0" encoding="UTF-8" standalone="no"?><svg xmlns="http://www.w3.org/2000/svg" xmlns:xlink="http://www.w3.org/1999/xlink" contentScriptType="text/ecmascript" fill="#000000" width="501.1" zoomAndPan="magnify" contentStyleType="text/css" viewBox="-0.1 -9.0 501.1 374.2" height="374.2" preserveAspectRatio="xMidYMid meet" version="1"><defs><clipPath id="a"><path d="M 0 23 L 500 23 L 500 361.101562 L 0 361.101562 Z M 0 23"/></clipPath></defs><g><g id="change1_1"><path fill="#f6a3a3" d="M 495.492188 165.730469 C 485.738281 196.675781 463.476562 224.621094 438.648438 245.507812 C 418.953125 262.074219 365.730469 295.679688 353.789062 302.796875 C 320.953125 322.371094 287.601562 341.96875 250.957031 352.851562 C 214.3125 363.734375 173.484375 365.199219 138.867188 348.980469 C 124.300781 342.15625 111.199219 332.414062 96.382812 326.15625 C 78.011719 318.398438 57.695312 316.285156 39.109375 309.058594 C 20.519531 301.832031 2.554688 287.054688 0.8125 267.1875 C 0.00390625 257.964844 -0.125 241.035156 0.0976562 230.566406 L 1.40625 230.121094 C 0.015625 212.59375 7.046875 193.089844 17.257812 178.03125 C 52.535156 126.011719 115.074219 100.210938 175.453125 82.742188 C 238.1875 64.589844 292.304688 46.296875 349.207031 15.160156 C 393.414062 -9.023438 473.6875 -8.335938 494.613281 47.414062 C 498.542969 57.886719 499.414062 69.058594 498.382812 80.226562 C 500.824219 113.566406 500.976562 148.324219 495.492188 165.730469"/></g><g id="change2_1" clip-path="url(#a)"><path fill="#dc3b4f" d="M 50.875 312.984375 C 46.902344 311.832031 42.964844 310.558594 39.109375 309.058594 C 20.519531 301.832031 2.554688 287.054688 0.8125 267.1875 C 0.00390625 257.964844 -0.125 241.035156 0.0976562 230.566406 C 0.0976562 230.566406 1.417969 218.363281 2.601562 212.394531 C 14.679688 217.90625 26.105469 247.640625 28.339844 255.296875 C 31.910156 267.539062 33.300781 280.546875 38.527344 292.109375 C 38.164062 292.089844 37.816406 292.058594 37.5 292.003906 C 35.160156 291.582031 32.875 290.90625 30.644531 290.085938 C 28.488281 289.296875 26.390625 288.367188 24.324219 287.371094 C 22.664062 286.578125 19.390625 285.625 18.1875 284.25 C 21.324219 287.832031 25.320312 290.515625 29.53125 292.6875 C 33.292969 294.625 37.253906 296.230469 41.21875 297.71875 C 41.316406 297.757812 41.414062 297.792969 41.515625 297.832031 C 44.527344 302.945312 48.117188 307.746094 50.875 312.984375 Z M 387.507812 273.773438 C 384.816406 264.222656 386 254.042969 384.75 244.203125 C 384.527344 242.457031 384.210938 240.667969 383.269531 239.183594 C 382.503906 237.972656 381.375 237.039062 380.269531 236.132812 C 377.5 233.859375 374.730469 231.589844 371.960938 229.316406 C 375.941406 231.203125 380.550781 232.445312 384.382812 234.617188 C 387.566406 236.421875 390.925781 238.597656 392.097656 242.066406 C 392.632812 243.648438 392.648438 245.351562 392.617188 247.019531 C 392.453125 255.375 389.867188 265.757812 387.507812 273.773438 Z M 495.492188 165.730469 C 492.855469 174.105469 489.265625 182.242188 484.988281 190.089844 C 483.554688 182.867188 481.707031 175.730469 479.414062 168.734375 C 478.996094 177.675781 480.449219 186.582031 481.953125 195.410156 C 479.550781 199.4375 476.988281 203.390625 474.25 207.234375 C 473.371094 202.625 474.277344 196.214844 474.3125 193.746094 C 474.542969 177.761719 474.773438 161.777344 475.003906 145.792969 C 475.121094 137.449219 475.210938 128.910156 472.476562 121.027344 C 470.972656 116.699219 468.605469 112.421875 469.023438 107.855469 C 469.296875 104.910156 470.710938 102.242188 472.28125 99.703125 C 474.640625 102.394531 477.363281 104.867188 479.851562 107.421875 C 483.558594 111.230469 487.339844 115.152344 489.488281 120.011719 C 490.988281 123.398438 491.625 127.09375 492.25 130.742188 C 492.957031 134.875 493.660156 139.007812 494.367188 143.140625 C 494.507812 133.058594 493.40625 122.964844 491.101562 113.148438 C 490.847656 112.066406 490.566406 110.960938 489.925781 110.054688 C 489.320312 109.203125 488.441406 108.59375 487.605469 107.972656 C 484.335938 105.550781 481.390625 102.6875 478.875 99.488281 C 477.71875 98.015625 476.5625 96.402344 474.953125 95.515625 C 477.894531 90.921875 480.84375 86.328125 483.785156 81.738281 C 484.492188 80.640625 485.269531 79.476562 486.480469 78.992188 C 488.414062 78.214844 490.519531 79.457031 492.230469 80.644531 C 494.394531 82.144531 496.574219 83.667969 498.730469 85.238281 C 500.820312 117 500.703125 149.195312 495.492188 165.730469 Z M 264.988281 348.214844 C 260.363281 349.890625 255.6875 351.445312 250.957031 352.851562 C 226.425781 360.136719 200.027344 363.191406 174.867188 359.558594 C 179.839844 354.53125 184.6875 349.371094 189.964844 344.546875 C 192.167969 342.53125 194.464844 340.59375 196.875 338.824219 C 197.445312 341.085938 199.496094 343.171875 200.890625 344.828125 C 203.421875 347.847656 206.195312 350.730469 208.046875 354.210938 C 205.082031 348.636719 201.636719 343.0625 199.066406 337.289062 C 202.480469 334.996094 206.117188 333.058594 210.046875 331.710938 C 220.09375 328.261719 231.316406 328.929688 241.289062 332.585938 C 250.246094 335.871094 258.222656 341.464844 264.988281 348.214844 Z M 464.0625 68.183594 C 464.046875 68.574219 464.050781 68.960938 464.011719 69.351562 C 463.328125 75.898438 459.015625 82.285156 452.695312 84.132812 C 448.390625 85.386719 443.789062 84.488281 439.398438 83.589844 C 424.609375 80.550781 409.820312 77.511719 395.03125 74.472656 C 381.40625 71.675781 367.785156 68.875 354.160156 66.078125 C 349.421875 65.101562 344.65625 64.121094 340.125 62.417969 C 336.722656 61.136719 332.871094 58.113281 334.105469 54.695312 C 334.539062 53.503906 335.523438 52.613281 336.484375 51.785156 C 368.480469 24.214844 429.21875 6.648438 458.601562 50.765625 C 461.03125 54.414062 462.902344 58.546875 463.691406 62.828125 C 457.261719 58.660156 439.082031 55.390625 435.21875 54.351562 C 441.035156 55.914062 457.464844 71.515625 464.0625 68.183594 Z M 438.410156 152.535156 C 436.933594 153.765625 435.402344 154.992188 433.835938 156.199219 C 423.347656 148.179688 404.746094 137.648438 401.519531 136.132812 C 405.53125 138.015625 417.335938 152.777344 427.449219 160.75 C 416.578125 167.878906 404.296875 172.597656 392.5625 168.246094 C 384.496094 165.261719 378.550781 158.503906 372.382812 152.507812 C 348.777344 129.5625 318.152344 115.367188 287.515625 103.324219 C 277.527344 99.402344 257.832031 93.628906 261.671875 79.46875 C 263.929688 71.136719 272.519531 68.863281 281.128906 68.726562 C 287.835938 73.28125 296.519531 77.621094 302.09375 83.34375 C 297.683594 78.816406 293.503906 74.066406 289.523438 69.160156 C 292.058594 69.433594 294.378906 69.796875 296.277344 70.113281 C 318.644531 73.867188 341.015625 77.617188 363.382812 81.371094 C 381.28125 84.375 399.175781 87.378906 417.070312 90.378906 C 425.757812 91.835938 434.605469 93.347656 442.433594 97.378906 C 450.265625 101.40625 457.058594 108.441406 458.53125 117.125 C 460.910156 131.171875 449.359375 143.417969 438.410156 152.535156 Z M 291.039062 168.59375 C 290.410156 167.640625 290.09375 165.933594 291.214844 165.730469 C 304 171.890625 309.019531 180.71875 316.265625 192.921875 C 306.183594 186.828125 297.492188 178.449219 291.039062 168.59375 Z M 390.398438 185.402344 C 364.644531 174.980469 340.339844 160.980469 318.398438 143.933594 C 311.097656 138.257812 304.050781 132.242188 296.4375 126.988281 C 287.007812 120.480469 276.796875 115.195312 266.617188 109.933594 C 257.269531 105.097656 247.925781 100.265625 238.578125 95.429688 C 230.683594 91.351562 222.449219 87.175781 213.570312 86.921875 C 205.953125 86.703125 198.589844 89.402344 191.480469 92.144531 C 186.097656 94.222656 180.730469 96.351562 175.382812 98.53125 C 172.8125 99.578125 170.1875 100.691406 167.855469 102.179688 C 179.101562 110.371094 189.289062 120.011719 198.078125 130.796875 C 189.8125 122.363281 179.972656 115.484375 169.242188 110.570312 C 167.9375 109.972656 165.011719 109.203125 162.234375 108.160156 C 157.523438 118.882812 171.222656 136.96875 176.390625 144.855469 C 178.511719 148.09375 180.820312 151.328125 184.019531 153.507812 C 188.722656 156.707031 194.683594 157.214844 200.332031 157.890625 C 238.109375 162.414062 274.324219 179.171875 302.226562 205.035156 C 309.320312 211.609375 316.390625 219.042969 325.761719 221.425781 C 335.605469 223.925781 345.875 220.300781 355.300781 216.511719 C 368.339844 211.265625 381.207031 205.59375 393.878906 199.511719 C 395.714844 198.628906 397.675781 197.613281 398.542969 195.773438 C 400.65625 191.289062 394.992188 187.257812 390.398438 185.402344 Z M 306.746094 257.683594 C 306.875 266.148438 300.054688 273.675781 292.109375 276.859375 C 283.867188 280.164062 274.683594 279.832031 265.8125 279.398438 C 262.917969 279.253906 259.824219 279.039062 257.53125 277.261719 C 255.082031 275.359375 254.144531 272.132812 253.445312 269.113281 C 250.984375 258.515625 249.601562 247.457031 244.546875 237.824219 C 237.367188 224.140625 223.765625 215.117188 214.253906 202.941406 C 200.9375 185.882812 197.738281 155.34375 225.34375 177.953125 C 249.089844 197.410156 272.863281 216.886719 295.054688 238.089844 C 298.492188 241.371094 302.015625 244.96875 304.292969 249.0625 C 295.765625 247.054688 285.234375 248.144531 279.25 249.460938 C 284.398438 249.726562 289.734375 250.042969 294.304688 252.4375 C 296.382812 253.527344 298.246094 255.023438 300.410156 255.933594 C 302.382812 256.761719 304.539062 257.273438 306.746094 257.683594 Z M 237.359375 277.65625 C 232.59375 290.019531 218.605469 296.871094 205.359375 297.128906 C 192.109375 297.382812 179.386719 292.34375 167.21875 287.09375 C 166.402344 286.738281 165.585938 286.382812 164.769531 286.027344 C 156.105469 275.183594 143.492188 264.769531 136.226562 259.035156 C 140.140625 262.125 143.257812 272.308594 146.050781 276.722656 C 146.371094 277.234375 146.707031 277.738281 147.035156 278.25 C 125.039062 268.664062 102.742188 259.722656 79.027344 257.054688 C 67.652344 255.773438 55.605469 255.820312 45.675781 250.121094 C 36.085938 244.613281 30.757812 236.78125 28.578125 227.90625 C 36.363281 217.109375 48.738281 209.570312 60.507812 202.734375 C 49.121094 202.734375 38.234375 205.367188 27.953125 210.039062 C 30.878906 189.367188 44.890625 167.613281 59.1875 157.121094 C 70.980469 148.46875 85.359375 138.296875 99.230469 131.125 C 99.757812 131.914062 100.367188 132.722656 101.085938 133.554688 C 105.988281 139.214844 111.027344 144.46875 115.277344 150.679688 C 117.152344 153.414062 127.074219 166.53125 125.777344 169.402344 C 126.851562 167.027344 125.707031 164.289062 124.574219 161.9375 C 119.269531 150.929688 113.96875 139.917969 108.660156 128.902344 C 108.351562 128.265625 108.039062 127.679688 107.722656 127.121094 C 108.257812 126.894531 108.792969 126.65625 109.324219 126.441406 C 131.058594 117.683594 150.050781 133.933594 159.246094 152.921875 C 167.398438 169.761719 171.03125 189.082031 182.785156 203.640625 C 193.089844 216.398438 208.394531 223.925781 220.828125 234.621094 C 233.257812 245.316406 243.253906 262.355469 237.359375 277.65625 Z M 369.0625 278.492188 C 368.761719 274.382812 368.453125 270.246094 367.375 266.269531 C 366.296875 262.292969 364.386719 258.445312 361.320312 255.691406 C 359.878906 254.394531 358.210938 253.363281 356.773438 252.058594 C 361.191406 253.648438 365.816406 255.261719 368.40625 259.179688 C 370.472656 262.308594 370.804688 266.253906 370.828125 270.003906 C 370.839844 271.988281 369.726562 276.625 369.0625 278.492188 Z M 378.773438 274.113281 C 378.523438 264.964844 378.269531 255.777344 376.742188 246.75 C 376.152344 243.253906 375.078125 239.378906 371.980469 237.65625 C 370.261719 236.703125 368.214844 236.601562 366.253906 236.523438 C 362.195312 236.363281 358.140625 236.199219 354.082031 236.035156 C 347.53125 235.773438 340.972656 235.515625 334.414062 235.769531 C 331.316406 235.886719 318.4375 235.421875 317.171875 238.9375 C 315.796875 242.761719 323.890625 247.9375 326.019531 249.863281 C 330.953125 254.320312 335.566406 259.128906 339.8125 264.242188 C 341.21875 265.933594 342.609375 267.707031 343.308594 269.792969 C 344.152344 272.324219 343.910156 275.070312 343.652344 277.726562 C 342.597656 288.714844 341.535156 299.699219 340.480469 310.6875 C 344.929688 308.070312 349.363281 305.433594 353.789062 302.796875 C 358.070312 300.246094 367.671875 294.277344 379.121094 286.917969 C 379.007812 282.652344 378.890625 278.382812 378.773438 274.113281"/></g><g id="change3_1"><path fill="#eae3d8" d="M 127.191406 222.582031 C 126.863281 222.871094 126.210938 223.230469 126.265625 223.445312 C 126.417969 224.066406 126.863281 224.628906 127.191406 225.210938 C 127.523438 224.917969 127.855469 224.628906 128.25 224.277344 C 127.90625 223.722656 127.550781 223.152344 127.191406 222.582031 Z M 456.09375 212.921875 C 456.246094 213.539062 456.691406 214.101562 457.019531 214.6875 C 457.351562 214.394531 458.003906 214.039062 457.949219 213.824219 C 457.796875 213.203125 457.351562 212.640625 457.023438 212.058594 C 456.691406 212.347656 456.039062 212.703125 456.09375 212.921875 Z M 412.449219 254.152344 C 412.808594 253.582031 413.164062 253.011719 413.507812 252.457031 C 413.109375 252.105469 412.78125 251.816406 412.449219 251.523438 C 412.121094 252.105469 411.675781 252.671875 411.519531 253.289062 C 411.46875 253.507812 412.121094 253.863281 412.449219 254.152344 Z M 134.066406 263.8125 C 133.910156 263.195312 133.46875 262.632812 133.136719 262.046875 C 132.808594 262.339844 132.152344 262.699219 132.207031 262.910156 C 132.363281 263.53125 132.804688 264.09375 133.136719 264.679688 C 133.46875 264.386719 134.121094 264.03125 134.066406 263.8125 Z M 277.808594 255.019531 C 277.964844 255.636719 278.40625 256.199219 278.734375 256.785156 C 279.066406 256.492188 279.71875 256.136719 279.664062 255.921875 C 279.511719 255.300781 279.066406 254.738281 278.738281 254.15625 C 278.40625 254.449219 277.753906 254.804688 277.808594 255.019531 Z M 168.601562 238.335938 C 169.160156 237.921875 169.601562 237.355469 169.949219 236.78125 C 170.011719 236.6875 169.378906 236.253906 169.035156 235.953125 C 168.460938 236.363281 167.800781 236.71875 167.34375 237.222656 C 167.128906 237.457031 167.136719 238.128906 167.355469 238.324219 C 167.578125 238.519531 168.34375 238.527344 168.601562 238.335938 Z M 119.765625 244.945312 C 119.433594 244.652344 119.105469 244.359375 118.707031 244.007812 C 118.085938 244.3125 117.4375 244.628906 116.792969 244.945312 C 117.125 245.238281 117.527344 245.816406 117.769531 245.765625 C 118.46875 245.628906 119.105469 245.238281 119.765625 244.945312 Z M 166.003906 238.394531 C 165.027344 239.003906 163.808594 239.757812 165.59375 240.683594 C 165.832031 240.804688 166.722656 239.945312 167.308594 239.539062 C 167.308594 239.148438 167.480469 238.605469 167.257812 238.410156 C 167.039062 238.214844 166.300781 238.210938 166.003906 238.394531 Z M 414.910156 169.46875 C 415.613281 169.328125 416.246094 168.9375 416.90625 168.644531 C 416.578125 168.351562 416.175781 167.773438 415.929688 167.820312 C 415.230469 167.960938 414.597656 168.351562 413.9375 168.644531 C 414.265625 168.9375 414.667969 169.515625 414.910156 169.46875 Z M 256.023438 169.023438 C 255.679688 168.472656 255.320312 167.898438 254.964844 167.328125 C 254.636719 167.621094 253.980469 167.976562 254.035156 168.195312 C 254.191406 168.8125 254.636719 169.375 254.964844 169.960938 C 255.296875 169.667969 255.625 169.375 256.023438 169.023438 Z M 27.652344 168.644531 C 26.992188 168.351562 26.355469 167.960938 25.65625 167.820312 C 25.410156 167.773438 25.007812 168.351562 24.679688 168.644531 C 25.324219 168.960938 25.96875 169.273438 26.59375 169.578125 C 26.988281 169.226562 27.320312 168.9375 27.652344 168.644531 Z M 280.222656 179.167969 C 279.5625 178.875 278.925781 178.484375 278.226562 178.34375 C 277.980469 178.296875 277.578125 178.875 277.25 179.167969 C 277.894531 179.484375 278.542969 179.800781 279.160156 180.105469 C 279.5625 179.753906 279.890625 179.460938 280.222656 179.167969 Z M 226.734375 173.90625 C 226.074219 173.613281 225.441406 173.222656 224.742188 173.082031 C 224.496094 173.035156 224.09375 173.613281 223.765625 173.90625 C 224.410156 174.222656 225.058594 174.539062 225.679688 174.84375 C 226.074219 174.492188 226.40625 174.199219 226.734375 173.90625 Z M 88.566406 159.433594 C 88.921875 158.863281 89.277344 158.289062 89.621094 157.742188 C 89.222656 157.390625 88.894531 157.097656 88.566406 156.804688 C 88.234375 157.390625 87.789062 157.953125 87.636719 158.570312 C 87.582031 158.785156 88.234375 159.144531 88.566406 159.433594 Z M 291.863281 166.226562 C 291.398438 165.71875 290.996094 165.132812 290.429688 164.730469 C 290.164062 164.539062 289.40625 164.546875 289.183594 164.742188 C 288.964844 164.9375 288.957031 165.613281 289.171875 165.84375 C 289.640625 166.339844 290.28125 166.730469 290.925781 167.039062 C 291.035156 167.09375 291.519531 166.53125 291.863281 166.226562 Z M 227.996094 167.015625 C 228.234375 167.136719 229.121094 166.277344 229.707031 165.871094 C 229.707031 165.480469 229.878906 164.9375 229.660156 164.742188 C 229.4375 164.546875 228.699219 164.542969 228.40625 164.726562 C 227.429688 165.335938 226.207031 166.085938 227.996094 167.015625 Z M 287.8125 164.699219 C 288.253906 164.699219 288.695312 164.699219 289.136719 164.699219 C 289.136719 164.308594 289.3125 163.804688 289.105469 163.546875 C 288.414062 162.679688 287.566406 161.597656 286.519531 163.183594 C 286.382812 163.390625 287.355469 164.179688 287.8125 164.699219 Z M 231 164.664062 C 231.558594 164.253906 232 163.683594 232.351562 163.113281 C 232.410156 163.015625 231.78125 162.585938 231.4375 162.28125 C 230.863281 162.695312 230.199219 163.050781 229.742188 163.550781 C 229.527344 163.789062 229.707031 164.308594 229.707031 164.699219 C 230.148438 164.699219 230.742188 164.855469 231 164.664062 Z M 219.082031 203.847656 C 219.320312 203.972656 220.207031 203.109375 220.792969 202.707031 C 220.792969 202.316406 220.964844 201.769531 220.746094 201.574219 C 220.523438 201.378906 219.785156 201.375 219.492188 201.5625 C 218.515625 202.171875 217.292969 202.921875 219.082031 203.847656 Z M 173.25 329.140625 C 172.921875 328.847656 172.519531 328.269531 172.273438 328.316406 C 171.574219 328.457031 170.9375 328.847656 170.277344 329.140625 C 170.609375 329.429688 171.011719 330.011719 171.257812 329.960938 C 171.953125 329.824219 172.589844 329.433594 173.25 329.140625 Z M 116.234375 334.851562 C 116.082031 334.234375 115.636719 333.667969 115.308594 333.085938 C 114.980469 333.378906 114.324219 333.734375 114.378906 333.953125 C 114.535156 334.570312 114.976562 335.132812 115.308594 335.71875 C 115.636719 335.421875 116.292969 335.070312 116.234375 334.851562 Z M 307.519531 278.699219 C 307.675781 279.316406 308.121094 279.878906 308.449219 280.464844 C 308.78125 280.171875 309.433594 279.816406 309.378906 279.601562 C 309.222656 278.980469 308.78125 278.417969 308.449219 277.832031 C 308.121094 278.125 307.46875 278.480469 307.519531 278.699219 Z M 153.007812 279.601562 C 152.953125 279.816406 153.605469 280.171875 153.9375 280.464844 C 154.292969 279.894531 154.648438 279.320312 154.992188 278.769531 C 154.597656 278.417969 154.265625 278.125 153.9375 277.832031 C 153.605469 278.417969 153.164062 278.980469 153.007812 279.601562 Z M 143.105469 279.527344 C 142.765625 278.976562 142.40625 278.40625 142.050781 277.832031 C 141.722656 278.125 141.066406 278.480469 141.121094 278.699219 C 141.277344 279.316406 141.71875 279.878906 142.050781 280.464844 C 142.378906 280.171875 142.710938 279.878906 143.105469 279.527344 Z M 39.109375 279.53125 C 38.765625 278.976562 38.40625 278.40625 38.050781 277.832031 C 37.71875 278.125 37.066406 278.480469 37.121094 278.699219 C 37.277344 279.316406 37.71875 279.878906 38.050781 280.464844 C 38.382812 280.171875 38.714844 279.882812 39.109375 279.53125 Z M 129.65625 324.699219 C 130.355469 324.5625 130.988281 324.167969 131.648438 323.878906 C 131.320312 323.585938 130.988281 323.292969 130.59375 322.941406 C 129.972656 323.246094 129.324219 323.5625 128.679688 323.878906 C 129.007812 324.167969 129.410156 324.746094 129.65625 324.699219 Z M 123.292969 320.792969 C 123.449219 321.414062 123.890625 321.976562 124.222656 322.5625 C 124.554688 322.269531 125.207031 321.914062 125.152344 321.695312 C 124.996094 321.078125 124.554688 320.515625 124.222656 319.929688 C 123.890625 320.222656 123.238281 320.582031 123.292969 320.792969 Z M 481.097656 93.371094 C 481.207031 93.421875 481.691406 92.863281 482.035156 92.558594 C 481.570312 92.050781 481.167969 91.464844 480.601562 91.0625 C 480.335938 90.871094 479.574219 90.875 479.355469 91.070312 C 479.136719 91.265625 479.128906 91.941406 479.34375 92.175781 C 479.808594 92.667969 480.449219 93.058594 481.097656 93.371094 Z M 293.59375 91.027344 C 293.261719 91.320312 292.609375 91.675781 292.664062 91.894531 C 292.820312 92.511719 293.261719 93.074219 293.59375 93.660156 C 293.925781 93.367188 294.253906 93.074219 294.648438 92.722656 C 294.308594 92.171875 293.949219 91.601562 293.59375 91.027344 Z M 191.078125 92.34375 C 190.417969 92.050781 189.785156 91.65625 189.085938 91.519531 C 188.839844 91.472656 188.4375 92.050781 188.109375 92.34375 C 188.753906 92.660156 189.398438 92.976562 190.023438 93.28125 C 190.421875 92.929688 190.75 92.636719 191.078125 92.34375 Z M 271.308594 81.820312 C 270.976562 81.527344 270.574219 80.949219 270.328125 80.996094 C 269.632812 81.132812 268.996094 81.527344 268.335938 81.820312 C 268.667969 82.113281 268.996094 82.402344 269.394531 82.753906 C 270.015625 82.449219 270.660156 82.136719 271.308594 81.820312 Z M 265.921875 86.632812 C 266.074219 87.25 266.519531 87.8125 266.851562 88.398438 C 267.183594 88.105469 267.511719 87.8125 267.90625 87.460938 C 267.5625 86.910156 267.207031 86.335938 266.851562 85.765625 C 266.519531 86.058594 265.867188 86.414062 265.921875 86.632812 Z M 451.078125 38.40625 C 451.4375 37.835938 451.792969 37.261719 452.136719 36.710938 C 451.738281 36.359375 451.410156 36.066406 451.078125 35.777344 C 450.75 36.359375 450.304688 36.921875 450.148438 37.542969 C 450.09375 37.757812 450.75 38.113281 451.078125 38.40625 Z M 462.035156 60.320312 C 462.191406 60.9375 462.636719 61.503906 462.964844 62.085938 C 463.296875 61.792969 463.625 61.503906 464.019531 61.148438 C 463.679688 60.597656 463.320312 60.027344 462.964844 59.453125 C 462.636719 59.746094 461.980469 60.105469 462.035156 60.320312 Z M 425.265625 53.328125 C 425.109375 52.707031 424.664062 52.144531 424.335938 51.5625 C 424.003906 51.855469 423.351562 52.210938 423.40625 52.425781 C 423.5625 53.046875 424.007812 53.609375 424.335938 54.191406 C 424.664062 53.898438 425.320312 53.542969 425.265625 53.328125 Z M 452.007812 134.890625 C 451.851562 134.273438 451.410156 133.710938 451.078125 133.125 C 450.75 133.417969 450.417969 133.710938 450.019531 134.0625 C 450.363281 134.613281 450.722656 135.183594 451.078125 135.757812 C 451.410156 135.464844 452.0625 135.109375 452.007812 134.890625 Z M 278.894531 151.542969 C 279.339844 151.542969 279.953125 151.695312 280.171875 151.5 C 280.394531 151.304688 280.398438 150.648438 280.1875 150.390625 C 279.5 149.523438 278.652344 148.441406 277.605469 150.027344 C 277.46875 150.238281 278.4375 151.023438 278.894531 151.542969 Z M 282.011719 153.882812 C 282.121094 153.9375 282.605469 153.378906 282.949219 153.074219 C 282.484375 152.566406 282.082031 151.980469 281.515625 151.574219 C 281.25 151.382812 280.488281 151.390625 280.269531 151.585938 C 280.050781 151.78125 280.042969 152.457031 280.257812 152.6875 C 280.726562 153.183594 281.367188 153.574219 282.011719 153.882812 Z M 199.4375 153.308594 C 199.28125 152.6875 198.839844 152.128906 198.507812 151.542969 C 198.175781 151.835938 197.523438 152.191406 197.578125 152.40625 C 197.734375 153.027344 198.175781 153.589844 198.507812 154.175781 C 198.839844 153.882812 199.492188 153.523438 199.4375 153.308594 Z M 137.035156 142.785156 C 136.882812 142.164062 136.4375 141.601562 136.109375 141.019531 C 135.777344 141.308594 135.445312 141.601562 135.050781 141.953125 C 135.394531 142.507812 135.75 143.078125 136.109375 143.648438 C 136.4375 143.355469 137.089844 143 137.035156 142.785156 Z M 320.335938 148.910156 C 320.667969 148.617188 321.320312 148.261719 321.265625 148.046875 C 321.109375 147.425781 320.667969 146.863281 320.335938 146.28125 C 320.007812 146.574219 319.351562 146.929688 319.40625 147.144531 C 319.5625 147.765625 320.007812 148.328125 320.335938 148.910156 Z M 198.507812 101.550781 C 198.175781 101.84375 197.523438 102.199219 197.578125 102.417969 C 197.734375 103.035156 198.175781 103.597656 198.507812 104.183594 C 198.835938 103.890625 199.167969 103.597656 199.5625 103.246094 C 199.222656 102.695312 198.863281 102.125 198.507812 101.550781 Z M 259.421875 97.605469 C 259.753906 97.898438 260.152344 98.476562 260.398438 98.429688 C 261.097656 98.289062 261.734375 97.898438 262.394531 97.605469 C 262.0625 97.3125 261.660156 96.734375 261.414062 96.78125 C 260.71875 96.921875 260.082031 97.3125 259.421875 97.605469 Z M 275.765625 119.96875 C 276.121094 119.398438 276.476562 118.824219 276.820312 118.273438 C 276.425781 117.921875 276.09375 117.632812 275.765625 117.339844 C 275.433594 117.921875 274.992188 118.484375 274.835938 119.105469 C 274.78125 119.320312 275.433594 119.675781 275.765625 119.96875 Z M 292.105469 110.761719 C 291.460938 110.445312 290.816406 110.128906 290.195312 109.824219 C 289.796875 110.175781 289.46875 110.46875 289.136719 110.761719 C 289.796875 111.054688 290.433594 111.445312 291.132812 111.582031 C 291.375 111.632812 291.777344 111.054688 292.105469 110.761719 Z M 395.050781 115.085938 C 394.429688 115.390625 393.78125 115.707031 393.136719 116.023438 C 393.46875 116.316406 393.867188 116.894531 394.113281 116.847656 C 394.8125 116.707031 395.445312 116.316406 396.105469 116.023438 C 395.777344 115.730469 395.445312 115.4375 395.050781 115.085938 Z M 462.453125 30.019531 C 463.15625 29.882812 463.789062 29.492188 464.449219 29.199219 C 464.121094 28.90625 463.789062 28.613281 463.394531 28.261719 C 462.769531 28.566406 462.125 28.882812 461.480469 29.199219 C 461.808594 29.492188 462.210938 30.070312 462.453125 30.019531 Z M 457.324219 27.59375 C 457.433594 27.644531 457.921875 27.085938 458.265625 26.78125 C 457.800781 26.273438 457.398438 25.6875 456.832031 25.285156 C 456.5625 25.09375 455.804688 25.097656 455.585938 25.292969 C 455.363281 25.488281 455.355469 26.164062 455.574219 26.398438 C 456.039062 26.890625 456.679688 27.28125 457.324219 27.59375 Z M 370.851562 27.882812 C 371.207031 27.3125 371.5625 26.738281 371.90625 26.1875 C 371.511719 25.835938 371.179688 25.542969 370.851562 25.253906 C 370.519531 25.835938 370.074219 26.398438 369.921875 27.019531 C 369.867188 27.234375 370.519531 27.589844 370.851562 27.882812 Z M 433.757812 7.328125 C 433.0625 7.464844 432.425781 7.855469 431.765625 8.148438 C 432.09375 8.441406 432.496094 9.019531 432.742188 8.972656 C 433.441406 8.835938 434.074219 8.441406 434.734375 8.148438 C 434.40625 7.859375 434.003906 7.277344 433.757812 7.328125 Z M 68.292969 166.828125 C 69.78125 165.847656 69.726562 163.253906 68.234375 162.484375 C 67.898438 162.503906 67.464844 162.414062 67.238281 162.566406 C 65.746094 163.546875 65.792969 166.160156 67.304688 166.890625 C 67.554688 167.011719 68.0625 166.980469 68.292969 166.828125 Z M 264.871094 92.726562 C 264.992188 92.671875 264.972656 92.078125 264.800781 91.875 C 263.695312 90.558594 260.417969 90.523438 259.988281 91.949219 C 259.539062 93.429688 260.996094 93.769531 262.472656 93.652344 C 263.261719 93.363281 264.097656 93.09375 264.871094 92.726562 Z M 475.183594 90.964844 C 476 91.222656 477 91.027344 477.925781 91.027344 C 479.308594 91.4375 479.804688 91.015625 479.285156 89.8125 C 479.132812 89.460938 478.765625 89.066406 478.390625 88.941406 C 477.589844 88.671875 476.6875 88.359375 475.882812 88.457031 C 475.089844 88.550781 474.371094 89.125 473.617188 89.488281 C 474.132812 90.003906 474.542969 90.765625 475.183594 90.964844 Z M 240.109375 135.761719 C 242.242188 134.003906 242.242188 132.246094 240.109375 130.488281 C 237.972656 132.246094 237.972656 134.003906 240.109375 135.761719 Z M 267.003906 135.730469 C 267.316406 135.898438 268.277344 135.773438 268.277344 135.753906 C 268.34375 134.53125 268.511719 133.277344 268.257812 132.09375 C 268.144531 131.5625 267.203125 131.136719 266.5625 130.765625 C 266.484375 130.71875 265.769531 131.246094 265.648438 131.59375 C 265.082031 133.199219 265.113281 134.734375 267.003906 135.730469 Z M 129.171875 341.886719 C 129.035156 342.109375 129.070312 342.558594 129.242188 342.761719 C 130.351562 344.082031 133.28125 344.03125 134.148438 342.710938 C 134.125 342.414062 134.230469 342.03125 134.058594 341.828125 C 132.953125 340.507812 129.996094 340.546875 129.171875 341.886719 Z M 223.757812 118.652344 C 225.746094 120.542969 227.726562 120.542969 229.714844 118.652344 C 227.726562 116.765625 225.746094 116.765625 223.757812 118.652344 Z M 260.449219 124.792969 C 260.699219 124.914062 261.207031 124.882812 261.4375 124.730469 C 262.925781 123.753906 262.867188 121.15625 261.378906 120.386719 C 261.039062 120.40625 260.609375 120.316406 260.378906 120.46875 C 258.890625 121.449219 258.933594 124.0625 260.449219 124.792969 Z M 148.988281 224.28125 C 149.109375 224.222656 149.085938 223.632812 148.914062 223.429688 C 147.808594 222.109375 144.53125 222.078125 144.101562 223.503906 C 143.65625 224.984375 145.113281 225.324219 146.585938 225.207031 C 147.375 224.914062 148.210938 224.648438 148.988281 224.28125 Z M 116.230469 233.953125 C 115.121094 232.632812 111.847656 232.601562 111.417969 234.027344 C 110.96875 235.507812 112.425781 235.847656 113.902344 235.730469 C 114.691406 235.441406 115.527344 235.171875 116.300781 234.804688 C 116.425781 234.746094 116.398438 234.15625 116.230469 233.953125 Z M 15.203125 228.691406 C 14.09375 227.371094 10.820312 227.339844 10.390625 228.765625 C 9.941406 230.246094 11.398438 230.585938 12.875 230.46875 C 13.660156 230.175781 14.496094 229.910156 15.273438 229.542969 C 15.394531 229.484375 15.371094 228.894531 15.203125 228.691406 Z M 222.167969 201.511719 C 222.5625 201.378906 222.976562 201.054688 223.164062 200.722656 C 224.175781 198.917969 223.824219 196.785156 222.53125 196.496094 C 222.207031 196.632812 221.652344 196.71875 221.59375 196.921875 C 221.261719 198.035156 221.117188 199.191406 220.773438 200.304688 C 220.394531 201.546875 220.808594 201.972656 222.167969 201.511719 Z M 407.5 255.851562 C 407.621094 255.792969 407.601562 255.203125 407.429688 255 C 406.320312 253.683594 403.046875 253.652344 402.617188 255.074219 C 402.167969 256.554688 403.628906 256.894531 405.101562 256.777344 C 405.890625 256.488281 406.726562 256.21875 407.5 255.851562 Z M 374.742188 289.207031 C 373.636719 287.886719 370.683594 287.925781 369.855469 289.265625 C 369.722656 289.488281 369.757812 289.9375 369.929688 290.140625 C 371.035156 291.460938 373.964844 291.410156 374.835938 290.089844 C 374.8125 289.789062 374.914062 289.410156 374.742188 289.207031 Z M 415.855469 90.59375 C 416.269531 89.90625 416.570312 89.164062 416.898438 88.46875 C 417.03125 87.160156 416.648438 85.871094 414.976562 86.269531 C 413.367188 86.648438 413.402344 89.550781 414.894531 90.527344 C 415.121094 90.679688 415.789062 90.699219 415.855469 90.59375 Z M 380.757812 26.183594 C 379.984375 25.816406 379.148438 25.546875 378.359375 25.257812 C 376.882812 25.140625 375.425781 25.480469 375.875 26.960938 C 376.304688 28.386719 379.578125 28.351562 380.6875 27.035156 C 380.855469 26.832031 380.878906 26.242188 380.757812 26.183594 Z M 466.890625 86.710938 C 466.257812 85.199219 464.441406 85.746094 463.128906 85.851562 C 462.667969 85.886719 461.828125 87.242188 461.976562 87.398438 C 463.1875 88.6875 464.589844 89.835938 465.9375 91.027344 C 466.273438 90.730469 466.863281 90.453125 466.898438 90.128906 C 467.027344 88.992188 467.3125 87.71875 466.890625 86.710938 Z M 403.992188 80 C 405.808594 78.808594 405.449219 77.167969 404.0625 75.613281 C 403.363281 75.941406 402.640625 76.171875 402.066406 76.574219 C 400.96875 77.34375 399.957031 78.210938 398.933594 79.023438 C 400.511719 80.71875 402.351562 81.078125 403.992188 80 Z M 455.535156 25.253906 C 455.226562 19.652344 455.226562 19.652344 449.957031 20.972656 C 451.238281 22.996094 452.664062 24.863281 455.535156 25.253906 Z M 162.671875 233.164062 C 160.542969 232.5 158.507812 233.421875 158.46875 235.121094 C 158.445312 236.230469 159.144531 237.347656 159.578125 238.632812 C 161.222656 237.175781 162.628906 236.027344 163.839844 234.738281 C 163.984375 234.582031 163.230469 233.339844 162.671875 233.164062 Z M 406.9375 123.078125 C 405.277344 122.03125 403.441406 122.402344 401.859375 124.132812 C 404.066406 124.683594 404.414062 127.324219 407.078125 127.445312 C 408.382812 125.898438 408.8125 124.257812 406.9375 123.078125 Z M 155.832031 144.582031 C 156.660156 143.796875 157.410156 142.941406 158.222656 142.082031 C 156.308594 140.570312 154.449219 140.371094 153.074219 141.882812 C 151.785156 143.304688 152.171875 144.9375 153.820312 146.1875 C 154.5 145.652344 155.21875 145.164062 155.832031 144.582031 Z M 431.730469 125.265625 C 433.972656 125.109375 435.0625 124.0625 434.734375 121.992188 C 434.304688 120.695312 433.644531 119.808594 431.796875 119.933594 C 429.558594 120.089844 428.386719 121.152344 428.820312 123.203125 C 429.101562 124.523438 429.882812 125.394531 431.730469 125.265625 Z M 440.644531 14.761719 C 442.886719 14.605469 443.976562 13.558594 443.648438 11.488281 C 443.21875 10.191406 442.5625 9.300781 440.710938 9.429688 C 438.472656 9.585938 437.300781 10.648438 437.738281 12.699219 C 438.015625 14.019531 438.796875 14.890625 440.644531 14.761719 Z M 275.3125 146.21875 C 276.65625 145.800781 277.757812 144.941406 275.894531 143.777344 C 273.988281 142.578125 274.449219 140.8125 274.234375 139.128906 C 273.820312 135.910156 273.710938 135.921875 268.335938 135.757812 C 267.246094 139.964844 271.601562 142.4375 272.613281 145.992188 C 272.691406 146.273438 274.5 146.472656 275.3125 146.21875 Z M 186.304688 248.867188 C 188.785156 250.773438 190.90625 252.558594 193.242188 254.085938 C 193.773438 254.433594 195.175781 254.105469 195.945312 253.726562 C 197.542969 252.9375 197.480469 247.988281 195.28125 246.03125 C 190.519531 250.214844 188.574219 242.886719 185.078125 243.449219 C 182.476562 244.996094 180.625 246.101562 178.726562 247.234375 C 181.804688 249.78125 184.421875 248.386719 186.304688 248.867188 Z M 386.898438 67.683594 C 387.394531 66.800781 387.890625 65.917969 388.367188 65.066406 C 387.8125 64.519531 387.355469 64.070312 386.898438 63.617188 C 386.441406 64.519531 385.824219 65.390625 385.609375 66.347656 C 385.53125 66.683594 386.4375 67.234375 386.898438 67.683594 Z M 355.359375 70.304688 C 354.882812 69.453125 354.386719 68.570312 353.894531 67.683594 C 353.433594 68.136719 352.527344 68.6875 352.601562 69.023438 C 352.820312 69.980469 353.433594 70.851562 353.894531 71.753906 C 354.351562 71.300781 354.808594 70.847656 355.359375 70.304688 Z M 159.984375 348.417969 C 159.523438 348.871094 158.617188 349.421875 158.691406 349.757812 C 158.910156 350.714844 159.523438 351.582031 159.984375 352.488281 C 160.441406 352.035156 160.898438 351.582031 161.449219 351.039062 C 160.972656 350.1875 160.476562 349.304688 159.984375 348.417969 Z M 463.226562 45.308594 C 462.308594 44.855469 461.425781 44.246094 460.457031 44.035156 C 460.117188 43.960938 459.558594 44.855469 459.101562 45.308594 C 459.996094 45.796875 460.894531 46.285156 461.757812 46.757812 C 462.308594 46.214844 462.769531 45.761719 463.226562 45.308594 Z M 481.789062 88.027344 C 481.332031 88.480469 480.425781 89.03125 480.5 89.363281 C 480.71875 90.324219 481.332031 91.191406 481.789062 92.097656 C 482.25 91.644531 482.707031 91.191406 483.257812 90.648438 C 482.78125 89.796875 482.285156 88.910156 481.789062 88.027344 Z M 346.933594 94.828125 C 346.714844 93.871094 346.101562 93 345.640625 92.097656 C 345.183594 92.550781 344.273438 93.101562 344.351562 93.433594 C 344.566406 94.390625 345.183594 95.261719 345.640625 96.164062 C 346.101562 95.714844 347.007812 95.164062 346.933594 94.828125 Z M 274.90625 108.957031 C 274.355469 109.5 273.898438 109.953125 273.441406 110.40625 C 274.355469 110.855469 275.238281 111.464844 276.210938 111.679688 C 276.550781 111.753906 277.109375 110.855469 277.566406 110.40625 C 276.671875 109.917969 275.773438 109.429688 274.90625 108.957031 Z M 459.101562 110.40625 C 458.203125 109.917969 457.308594 109.429688 456.4375 108.957031 C 455.890625 109.5 455.433594 109.953125 454.972656 110.40625 C 455.890625 110.855469 456.773438 111.464844 457.742188 111.675781 C 458.082031 111.753906 458.640625 110.855469 459.101562 110.40625 Z M 375.8125 102.964844 C 375.597656 102.007812 374.980469 101.136719 374.519531 100.234375 C 374.0625 100.6875 373.605469 101.140625 373.054688 101.683594 C 373.53125 102.535156 374.027344 103.417969 374.519531 104.304688 C 374.980469 103.851562 375.886719 103.300781 375.8125 102.964844 Z M 384.0625 102.964844 C 383.847656 102.007812 383.230469 101.136719 382.773438 100.234375 C 382.3125 100.6875 381.855469 101.140625 381.304688 101.683594 C 381.78125 102.535156 382.277344 103.417969 382.773438 104.304688 C 383.230469 103.851562 384.140625 103.300781 384.0625 102.964844 Z M 392.316406 17.523438 C 392.097656 16.566406 391.484375 15.695312 391.023438 14.792969 C 390.566406 15.246094 389.660156 15.796875 389.734375 16.132812 C 389.949219 17.089844 390.566406 17.957031 391.023438 18.863281 C 391.484375 18.410156 392.390625 17.859375 392.316406 17.523438 Z M 410.945312 14.03125 C 411.917969 13.816406 412.800781 13.210938 413.71875 12.757812 C 413.257812 12.308594 412.800781 11.855469 412.25 11.3125 C 411.382812 11.78125 410.484375 12.269531 409.589844 12.757812 C 410.050781 13.210938 410.605469 14.105469 410.945312 14.03125 Z M 447.496094 25.660156 C 447.421875 25.996094 448.328125 26.546875 448.785156 27 C 449.28125 26.113281 449.773438 25.230469 450.253906 24.378906 C 449.703125 23.835938 449.242188 23.382812 448.785156 22.929688 C 448.328125 23.835938 447.714844 24.703125 447.496094 25.660156 Z M 254.875 315.871094 C 254.417969 316.324219 253.507812 316.871094 253.585938 317.207031 C 253.800781 318.164062 254.417969 319.035156 254.875 319.9375 C 255.335938 319.488281 255.792969 319.035156 256.34375 318.492188 C 255.863281 317.636719 255.371094 316.753906 254.875 315.871094 Z M 12.921875 273.738281 C 12.445312 272.882812 11.949219 272 11.457031 271.117188 C 10.996094 271.566406 10.089844 272.117188 10.164062 272.453125 C 10.382812 273.410156 10.996094 274.28125 11.457031 275.183594 C 11.914062 274.734375 12.371094 274.28125 12.921875 273.738281 Z M 234.246094 299.597656 C 234.703125 299.144531 235.613281 298.59375 235.535156 298.257812 C 235.320312 297.300781 234.703125 296.429688 234.246094 295.527344 C 233.789062 295.980469 233.328125 296.429688 232.777344 296.972656 C 233.257812 297.828125 233.75 298.710938 234.246094 299.597656 Z M 336.101562 305 C 336.316406 305.960938 336.933594 306.828125 337.390625 307.734375 C 337.847656 307.28125 338.304688 306.828125 338.855469 306.285156 C 338.378906 305.433594 337.886719 304.546875 337.390625 303.664062 C 336.933594 304.117188 336.023438 304.667969 336.101562 305 Z M 391.730469 282.558594 C 392.070312 282.632812 392.628906 281.738281 393.089844 281.289062 C 392.191406 280.796875 391.296875 280.308594 390.429688 279.839844 C 389.878906 280.382812 389.421875 280.835938 388.960938 281.285156 C 389.878906 281.738281 390.761719 282.347656 391.730469 282.558594 Z M 293.296875 284.660156 C 293.371094 284.324219 292.464844 283.773438 292.007812 283.320312 C 291.511719 284.207031 291.015625 285.089844 290.539062 285.941406 C 291.089844 286.484375 291.546875 286.9375 292.007812 287.390625 C 292.464844 286.484375 293.078125 285.617188 293.296875 284.660156 Z M 450.074219 176.199219 C 449.859375 175.242188 449.242188 174.371094 448.785156 173.46875 C 448.328125 173.921875 447.421875 174.472656 447.496094 174.804688 C 447.710938 175.765625 448.324219 176.632812 448.785156 177.539062 C 449.242188 177.085938 450.152344 176.535156 450.074219 176.199219 Z M 368.332031 167.367188 C 367.875 166.914062 367.316406 166.019531 366.976562 166.09375 C 366.007812 166.308594 365.125 166.914062 364.207031 167.367188 C 364.664062 167.816406 365.226562 168.710938 365.5625 168.636719 C 366.535156 168.425781 367.414062 167.816406 368.332031 167.367188 Z M 296.988281 182.421875 C 297.199219 182.074219 297.398438 181.722656 297.492188 181.347656 C 297.550781 181.132812 296.894531 180.777344 296.5625 180.484375 C 296.207031 181.054688 295.851562 181.628906 295.507812 182.179688 C 295.714844 182.363281 295.882812 182.511719 296.0625 182.671875 C 295.390625 182.953125 294.734375 183.3125 294.070312 183.640625 C 294.527344 184.09375 295.085938 184.988281 295.425781 184.914062 C 296.398438 184.699219 297.277344 184.09375 298.195312 183.640625 C 297.796875 183.246094 297.328125 182.550781 296.988281 182.421875 Z M 182.675781 138.886719 C 183.570312 139.375 184.46875 139.863281 185.332031 140.332031 C 185.882812 139.789062 186.34375 139.339844 186.800781 138.886719 C 185.882812 138.433594 185 137.828125 184.03125 137.613281 C 183.691406 137.539062 183.132812 138.433594 182.675781 138.886719 Z M 339.386719 210.152344 C 339.078125 209.851562 338.054688 209.847656 337.644531 210.132812 C 336.289062 211.074219 334.59375 212.234375 337.074219 213.667969 C 337.40625 213.859375 338.640625 212.527344 339.453125 211.902344 C 339.453125 211.296875 339.691406 210.453125 339.386719 210.152344 Z M 22.363281 208.640625 C 22.914062 209.183594 23.375 209.632812 23.832031 210.085938 C 24.292969 209.183594 24.90625 208.3125 25.121094 207.355469 C 25.199219 207.019531 24.292969 206.46875 23.832031 206.019531 C 23.339844 206.902344 22.84375 207.785156 22.363281 208.640625 Z M 341.851562 206.351562 C 341.058594 206.988281 340.136719 207.539062 339.503906 208.3125 C 339.203125 208.679688 339.453125 209.480469 339.453125 210.085938 C 340.066406 210.085938 340.886719 210.332031 341.25 210.035156 C 342.023438 209.398438 342.636719 208.519531 343.121094 207.636719 C 343.207031 207.484375 342.328125 206.820312 341.851562 206.351562 Z M 85.71875 226.359375 C 86.175781 225.910156 87.085938 225.359375 87.011719 225.023438 C 86.792969 224.066406 86.175781 223.195312 85.71875 222.292969 C 85.261719 222.746094 84.800781 223.195312 84.25 223.738281 C 84.730469 224.59375 85.222656 225.476562 85.71875 226.359375 Z M 308.511719 222.292969 C 308.050781 222.746094 307.144531 223.296875 307.21875 223.628906 C 307.4375 224.585938 308.050781 225.457031 308.511719 226.359375 C 308.96875 225.910156 309.425781 225.457031 309.976562 224.914062 C 309.5 224.058594 309.003906 223.175781 308.511719 222.292969 Z M 377.355469 223.628906 C 377.574219 224.585938 378.1875 225.457031 378.648438 226.359375 C 379.105469 225.910156 380.011719 225.359375 379.9375 225.023438 C 379.722656 224.066406 379.105469 223.195312 378.648438 222.292969 C 378.1875 222.746094 377.28125 223.296875 377.355469 223.628906 Z M 31.488281 218.808594 C 30.9375 219.351562 30.480469 219.804688 30.023438 220.257812 C 30.9375 220.710938 31.820312 221.316406 32.789062 221.53125 C 33.132812 221.605469 33.6875 220.710938 34.148438 220.257812 C 33.25 219.769531 32.355469 219.28125 31.488281 218.808594 Z M 100.160156 220.257812 C 100.617188 220.710938 101.074219 221.164062 101.628906 221.703125 C 102.492188 221.234375 103.390625 220.746094 104.285156 220.257812 C 103.828125 219.804688 103.269531 218.910156 102.929688 218.984375 C 101.957031 219.199219 101.074219 219.804688 100.160156 220.257812 Z M 310.234375 322.304688 C 309.589844 321.519531 309.03125 320.613281 308.242188 319.992188 C 307.871094 319.695312 306.820312 319.703125 306.515625 320.003906 C 306.207031 320.308594 306.195312 321.355469 306.5 321.710938 C 307.144531 322.476562 308.035156 323.082031 308.929688 323.558594 C 309.085938 323.640625 309.757812 322.777344 310.234375 322.304688 Z M 137.292969 203.984375 C 136.832031 203.53125 136.375 203.078125 135.824219 202.535156 C 134.957031 203.007812 134.0625 203.496094 133.164062 203.984375 C 133.625 204.4375 134.183594 205.328125 134.519531 205.253906 C 135.492188 205.042969 136.375 204.4375 137.292969 203.984375 Z M 272.085938 324.769531 C 271.113281 324.984375 270.230469 325.589844 269.316406 326.039062 C 269.773438 326.492188 270.332031 327.390625 270.671875 327.3125 C 271.644531 327.101562 272.523438 326.496094 273.441406 326.042969 C 272.980469 325.589844 272.425781 324.695312 272.085938 324.769531 Z M 306.445312 319.9375 C 306.445312 318.042969 306.6875 316.105469 306.335938 314.277344 C 306.179688 313.453125 304.871094 312.796875 303.984375 312.21875 C 303.878906 312.148438 302.882812 312.96875 302.714844 313.5 C 301.929688 315.988281 301.972656 318.359375 304.597656 319.902344 C 305.03125 320.160156 305.808594 319.9375 306.445312 319.9375 Z M 345.640625 295.535156 C 348.605469 292.816406 348.605469 290.101562 345.640625 287.378906 C 342.679688 290.101562 342.679688 292.816406 345.640625 295.535156 Z M 366.925781 279.898438 C 366.453125 279.929688 365.855469 279.789062 365.535156 280.023438 C 363.46875 281.539062 363.53125 285.582031 365.632812 286.714844 C 365.980469 286.902344 366.683594 286.851562 367.003906 286.617188 C 369.070312 285.101562 368.992188 281.089844 366.925781 279.898438 Z M 384.054688 280.5625 C 382.515625 278.523438 377.96875 278.476562 377.371094 280.675781 C 376.75 282.964844 378.773438 283.492188 380.820312 283.3125 C 381.917969 282.863281 383.074219 282.449219 384.152344 281.878906 C 384.324219 281.789062 384.289062 280.878906 384.054688 280.5625 Z M 416.382812 144.316406 C 416.957031 143.253906 417.375 142.109375 417.832031 141.027344 C 418.015625 139.011719 417.480469 137.015625 415.160156 137.628906 C 412.929688 138.214844 412.976562 142.703125 415.046875 144.21875 C 415.363281 144.449219 416.289062 144.480469 416.382812 144.316406 Z M 382.773438 75.8125 C 379.8125 78.535156 379.8125 81.246094 382.773438 83.96875 C 385.734375 81.246094 385.734375 78.535156 382.773438 75.8125 Z M 50.761719 218.214844 C 51.855469 217.765625 53.015625 217.351562 54.09375 216.78125 C 54.261719 216.691406 54.230469 215.78125 53.992188 215.464844 C 52.457031 213.425781 47.90625 213.378906 47.3125 215.578125 C 46.691406 217.867188 48.714844 218.394531 50.761719 218.214844 Z M 359.824219 201.867188 C 361.714844 202.453125 363.371094 201.523438 363.695312 199.542969 C 363.757812 199.152344 361.769531 198.441406 360.722656 197.878906 C 360.355469 197.878906 359.960938 197.832031 359.589844 197.820312 C 359.710938 197.59375 359.835938 197.371094 359.894531 197.136719 C 359.949219 196.917969 359.296875 196.5625 358.964844 196.269531 C 358.609375 196.84375 358.253906 197.414062 357.90625 197.964844 C 358.027344 198.074219 358.117188 198.152344 358.230469 198.25 C 357.269531 198.765625 356.1875 199.371094 356.074219 200.074219 C 355.472656 203.835938 358.507812 201.464844 359.824219 201.867188 Z M 349.429688 205.628906 C 351.949219 206.40625 354.355469 206.363281 355.917969 203.773438 C 356.179688 203.34375 355.980469 202.03125 355.953125 202.027344 C 354.035156 201.941406 352.066406 201.710938 350.214844 202.058594 C 349.378906 202.210938 348.714844 203.5 348.128906 204.378906 C 348.058594 204.484375 348.886719 205.464844 349.429688 205.628906 Z M 322.167969 180.296875 C 322.402344 179.980469 322.265625 179.390625 322.296875 178.925781 C 321.085938 176.886719 317.019531 176.808594 315.480469 178.847656 C 315.242188 179.164062 315.195312 179.855469 315.382812 180.199219 C 316.53125 182.273438 320.632812 182.335938 322.167969 180.296875 Z M 155.855469 210.101562 C 157.730469 209.835938 159.960938 210.910156 161.304688 208.734375 C 161.515625 208.394531 161.539062 207.589844 161.304688 207.386719 C 159.082031 205.457031 152.632812 205.457031 150.410156 207.386719 C 150.175781 207.589844 150.199219 208.394531 150.410156 208.734375 C 151.113281 209.871094 152.0625 210.117188 153.070312 210.132812 C 153.027344 210.191406 152.996094 210.246094 153.007812 210.289062 C 153.164062 210.910156 153.605469 211.472656 153.9375 212.058594 C 154.265625 211.765625 154.921875 211.410156 154.867188 211.191406 C 154.769531 210.808594 154.5625 210.445312 154.339844 210.085938 C 154.855469 210.054688 155.367188 210.03125 155.855469 210.101562 Z M 485.703125 109.203125 C 477.269531 107.40625 474.570312 110.964844 471.671875 114.863281 C 477.996094 119.027344 479.980469 113.398438 485.703125 109.203125 Z M 141.453125 114.390625 C 141.457031 116.214844 141.890625 118.039062 142.171875 120.214844 C 143.671875 119.476562 145.085938 119.242188 145.414062 118.527344 C 146.167969 116.875 146.160156 114.882812 146.921875 113.230469 C 147.4375 112.109375 148.726562 111.335938 149.667969 110.40625 C 142.34375 107.335938 141.433594 107.75 141.453125 114.390625 Z M 428.253906 153 C 427.949219 153.0625 427.109375 151.378906 426.839844 150.417969 C 426.753906 150.109375 427.769531 149.0625 428.144531 149.128906 C 431.992188 149.808594 434.335938 147.726562 436.289062 144.679688 C 438.257812 148.605469 440.074219 152.230469 441.886719 155.835938 C 440.535156 158.023438 437.820312 157.777344 436.609375 157.023438 C 433.945312 155.371094 432.25 152.15625 428.253906 153"/></g><g id="change4_1"><path fill="#2b241a" d="M 326.898438 286.078125 C 325.359375 288.117188 321.261719 288.054688 320.117188 285.980469 C 319.925781 285.636719 319.976562 284.945312 320.214844 284.628906 C 321.75 282.589844 325.816406 282.667969 327.027344 284.707031 C 326.992188 285.171875 327.136719 285.761719 326.898438 286.078125 Z M 213.890625 321.972656 C 212.578125 322.167969 211.21875 322.039062 209.875 322.039062 C 208.535156 322.039062 207.070312 322.359375 205.894531 321.921875 C 205.125 321.640625 204.621094 320.304688 204.3125 319.34375 C 204.222656 319.054688 205.15625 318.058594 205.652344 318.03125 C 208.328125 317.898438 211.035156 317.804688 213.683594 318.089844 C 214.316406 318.160156 214.925781 319.703125 215.234375 320.660156 C 215.328125 320.953125 214.425781 321.894531 213.890625 321.972656 Z M 133.136719 301.511719 C 132.804688 300.929688 132.363281 300.367188 132.207031 299.746094 C 132.152344 299.53125 132.808594 299.175781 133.136719 298.882812 C 133.46875 299.464844 133.910156 300.027344 134.066406 300.648438 C 134.121094 300.867188 133.46875 301.222656 133.136719 301.511719 Z M 331.574219 276.816406 C 307.871094 289.824219 282.464844 301.582031 256.355469 308.679688 C 256.816406 309.574219 257.417969 310.4375 257.632812 311.382812 C 257.707031 311.71875 256.800781 312.269531 256.34375 312.722656 C 255.882812 311.816406 255.269531 310.945312 255.050781 309.988281 C 254.980469 309.664062 255.820312 309.140625 256.289062 308.699219 C 230.898438 315.597656 204.84375 318.089844 179.039062 313.011719 C 143.546875 306.027344 111.945312 285.285156 76.503906 278.023438 C 53.925781 273.398438 27.90625 273.230469 12.300781 256.265625 C 12.300781 256.265625 16.429688 274.589844 54.214844 279.664062 C 112.765625 287.535156 155.660156 323.882812 200.75 323.882812 C 245.835938 323.882812 320.457031 301.054688 394.171875 243.085938 C 467.890625 185.113281 485.566406 147.628906 492.164062 108.757812 C 467.519531 184.214844 401.167969 238.621094 331.574219 276.816406"/></g></g></svg>