<?xml version="1.0" encoding="UTF-8" standalone="no"?><svg xmlns="http://www.w3.org/2000/svg" xmlns:xlink="http://www.w3.org/1999/xlink" contentScriptType="text/ecmascript" fill="#000000" width="551.2" zoomAndPan="magnify" contentStyleType="text/css" viewBox="0.0 0.0 551.2 609.3" height="609.3" preserveAspectRatio="xMidYMid meet" version="1"><g id="change1_1"><path fill="#ffffff" d="M545.64,445.85c-3.3,3.3-7.74,4.68-12.05,4.27l-0.1,0.13c0.02,3.48-1.16,6.96-3.54,9.78 c-0.27,0.33-0.56,0.65-0.86,0.95c-5.08,5.08-12.89,5.75-18.71,2.04c-0.59,0.95-1.27,1.86-2.1,2.69c-2.13,2.13-4.75,3.48-7.49,4.07 c-2.26,70.79-17.86,123.28-29.04,130.14c-15.33,9.42-36.24,3.53-44.6-20.01h-62.36h-17.09h-54.05h-79.45h0 c-1.9,5.36-4.46,9.8-7.45,13.35c-1.79,2.13-3.74,3.94-5.81,5.45c-0.41,0.3-0.83,0.59-1.25,0.86c-0.36,0.23-0.72,0.46-1.08,0.68 c-1.65,0.98-3.35,1.78-5.09,2.39c-0.86,0.3-1.73,0.56-2.6,0.78c-6.14,1.5-12.56,0.82-18.39-1.92c0.28,0.13,0.56,0.28,0.85,0.4 c-0.29-0.12-0.57-0.27-0.85-0.4c-0.23-0.11-0.46-0.21-0.68-0.32c-0.76-0.38-1.52-0.79-2.26-1.24 c-15.33-9.42-39.03-104.76-25.09-215.41c0.27-2.12,0.56-4.23,0.86-6.33c0.08-0.55,0.16-1.09,0.24-1.63c0.26-1.73,0.52-3.44,0.8-5.15 c0.06-0.38,0.12-0.77,0.19-1.15c5.32-31.96,14.47-61.25,24.58-86.46c-83.15-14.72-133.55-54.33-153.51-73.17 c-0.45,0.04-0.89,0.14-1.35,0.14C7.31,210.75,0,203.45,0,194.44c0-4.98,2.28-9.39,5.8-12.38l-0.05-0.51 c-2.88-2.94-4.66-6.96-4.66-11.4c0-3.19,0.95-6.14,2.53-8.66l-0.17-1.6l10.04-8.62c-0.01-0.24-0.07-0.46-0.07-0.7 c0-9.01,7.31-16.32,16.32-16.32c7.58,0,13.89,5.19,15.72,12.19c2.36-5.12,7.27-8.78,13.11-9.39c0.56-0.06,1.11-0.12,1.68-0.12 c7.28,0,13.37,4.8,15.47,11.38c0.28,0.2,0.6,0.42,0.94,0.66c0.09,0.06,0.17,0.12,0.26,0.18c0.33,0.23,0.69,0.47,1.08,0.74 c0.04,0.03,0.08,0.05,0.12,0.08c14.44,9.72,66.39,40.95,141.21,44c0.4-0.56,0.74-1.03,1.02-1.4c-7.77-11.09-13.74-23.53-17.5-36.89 c-0.05-0.18-0.1-0.36-0.15-0.54c-0.36-1.28-0.69-2.58-1.01-3.88c-0.11-0.48-0.22-0.95-0.33-1.43c-0.27-1.17-0.54-2.35-0.77-3.54 c-0.31-1.56-0.59-3.13-0.84-4.72c-0.12-0.75-0.21-1.51-0.31-2.27c-0.15-1.12-0.31-2.25-0.43-3.38c-0.08-0.73-0.15-1.46-0.22-2.2 c-0.11-1.24-0.21-2.49-0.29-3.75c-0.04-0.62-0.08-1.24-0.11-1.87c-0.09-1.88-0.14-3.77-0.14-5.68c0,0,0,0,0,0c0,0,0,0,0,0 c0-7.78,0.74-15.38,2.14-22.76c0.25-1.31,0.51-2.61,0.8-3.9c0.64-2.85,1.37-5.66,2.2-8.44c0.35-1.18,0.72-2.34,1.11-3.51 c2.76-8.3,6.37-16.22,10.76-23.62c-8.4-5.46-13.96-14.9-13.96-25.66c0-16.9,13.7-30.6,30.6-30.6c10.64,0,20.01,5.44,25.49,13.68 C275.85,6.44,297.5,0,320.66,0c1.59,0,3.17,0.05,4.74,0.12c21.31,0.81,41.23,7.05,58.4,17.4c5.49-8.2,14.83-13.6,25.44-13.6 c16.9,0,30.6,13.7,30.6,30.6c0,10.7-5.5,20.1-13.82,25.57c10.82,18.26,17.05,39.55,17.05,62.32c0,26.1-8.19,50.27-22.11,70.14 c0.18,0.24,0.39,0.53,0.62,0.86c124.66,98.73,127.42,212.66,126.69,234.86C551.24,433.95,550.4,441.09,545.64,445.85z"/></g><g id="change2_1"><path fill="#5f3916" d="M247.61,24.18c-9.9,7.37-18.62,16.21-25.9,26.18c-5.21-3.35-8.66-9.18-8.66-15.83 c0-10.4,8.43-18.83,18.83-18.83C238.46,15.7,244.25,19.07,247.61,24.18z M409.24,15.7c-6.54,0-12.29,3.33-15.67,8.39 c9.92,7.37,18.68,16.22,25.98,26.2c5.13-3.36,8.53-9.16,8.53-15.75C428.07,24.13,419.64,15.7,409.24,15.7z M337.67,109.64h-27.94 c-20.66,0-26.78,13.02-13.61,28.93l3.62,4.37c13.18,15.91,34.74,15.91,47.92,0l3.62-4.37C364.46,122.66,358.33,109.64,337.67,109.64 z M62.78,165.14c-9.26-7.23-23.73-4.16-32.34,6.86c-8.6,11.02-8.07,25.81,1.19,33.03c9.26,7.23,23.73,4.16,32.34-6.86 C72.57,187.16,72.04,172.37,62.78,165.14z M59.76,155.74c3.28,0,5.95-2.49,6.31-5.67c0.03-0.23,0.07-0.46,0.07-0.71 c0-3.41-2.68-6.16-6.04-6.35c-0.12-0.01-0.22-0.03-0.34-0.03c-3.52,0-6.38,2.86-6.38,6.38C53.38,152.88,56.23,155.74,59.76,155.74z M29.13,154.89c3.52,0,6.38-2.86,6.38-6.38c0-3.52-2.86-6.38-6.38-6.38c-3.52,0-6.38,2.86-6.38,6.38 C22.75,152.03,25.61,154.89,29.13,154.89z M16.16,162.76c-3.52,0-6.38,2.86-6.38,6.38c0,3.52,2.86,6.38,6.38,6.38 c3.52,0,6.38-2.86,6.38-6.38C22.54,165.61,19.69,162.76,16.16,162.76z M14.04,188.7c-3.52,0-6.38,2.86-6.38,6.38 c0,3.52,2.86,6.38,6.38,6.38c3.52,0,6.38-2.86,6.38-6.38C20.41,191.56,17.56,188.7,14.04,188.7z"/></g><g id="change3_1"><path fill="inherit" d="M288.54,84.36c0,4.88-2.37,8.83-5.3,8.83c-2.93,0-5.3-3.95-5.3-8.83c0-4.88,2.37-8.83,5.3-8.83 C286.16,75.53,288.54,79.48,288.54,84.36z M357.99,75.53c-2.93,0-5.3,3.95-5.3,8.83c0,4.88,2.37,8.83,5.3,8.83 c2.93,0,5.3-3.95,5.3-8.83C363.28,79.48,360.91,75.53,357.99,75.53z"/></g><g id="change4_1"><path fill="#e7f6fd" d="M531.9,456.93c-0.53,1.09-1.16,2.14-1.96,3.11c-0.27,0.33-0.56,0.65-0.86,0.95 c-5.08,5.08-12.89,5.75-18.71,2.04c-0.59,0.95-1.27,1.86-2.1,2.69c-2.13,2.13-4.75,3.48-7.49,4.07c0.84-26.36-0.17-55.25-3.95-85.27 c-4.02-31.91-12.1-61.47-21.56-87.38C496.09,327.04,524.67,380.67,531.9,456.93z M212.21,204.46c6.79,0.68,13.18,1.19,19.07,1.56 c0.05,0,0.09,0.01,0.14,0.01c21.54,1.35,36.02,0.93,36.02,0.93c-4.09-4.29-7.78-8.95-11.22-13.8c-0.01-0.02-0.03-0.04-0.04-0.05 c-0.39-0.54-0.79-1.07-1.17-1.62c0,0,0,0,0,0c-13.48-19.67-21.45-43.41-21.45-69.06c0-24.04,6.96-46.42,18.94-65.31 c2.35-3.71,4.88-7.3,7.61-10.73c18.97-23.81,46.64-40.39,78.21-44.96c-4.25-0.62-8.55-1.09-12.92-1.3C323.83,0.05,322.25,0,320.66,0 c-23.16,0-44.81,6.44-63.28,17.61c-3.37,2.04-6.62,4.23-9.77,6.57c-9.9,7.37-18.62,16.21-25.9,26.18c-2.31,3.16-4.47,6.44-6.47,9.83 c-4.38,7.41-7.99,15.32-10.76,23.62c-0.39,1.16-0.76,2.33-1.11,3.51c-0.83,2.77-1.56,5.59-2.2,8.44c-0.29,1.29-0.56,2.6-0.8,3.9 c-1.39,7.37-2.14,14.98-2.14,22.76c0,0,0,0,0,0c0,0,0,0,0,0c0,1.9,0.06,3.79,0.14,5.68c0.03,0.63,0.07,1.25,0.11,1.87 c0.08,1.25,0.17,2.5,0.29,3.75c0.07,0.73,0.14,1.47,0.22,2.2c0.12,1.13,0.27,2.26,0.43,3.38c0.11,0.76,0.2,1.52,0.31,2.27 c0.25,1.58,0.53,3.15,0.84,4.72c0.24,1.19,0.5,2.36,0.77,3.54c0.11,0.48,0.22,0.96,0.33,1.43c0.32,1.3,0.65,2.59,1.01,3.88 c0.05,0.18,0.1,0.36,0.15,0.54c3.78,13.34,9.77,25.76,17.54,36.85c0,0,0,0,0,0c-0.01,0.01-0.02,0.03-0.03,0.04 c-0.25,0.34-0.66,0.92-1.01,1.4c0,0-0.01,0-0.01,0c-74.82-3.05-126.77-34.28-141.21-44c-0.04-0.03-0.08-0.05-0.12-0.08 c-0.39-0.26-0.75-0.51-1.08-0.74c-0.09-0.06-0.18-0.12-0.26-0.18c-0.34-0.24-0.66-0.46-0.94-0.66c-2.1-6.58-8.19-11.38-15.47-11.38 c-0.57,0-1.13,0.07-1.68,0.12c-0.81,0.11-1.61,0.27-2.39,0.48c1.23,1.89,2.55,3.71,3.92,5.49c3.36,0.18,6.04,2.94,6.04,6.35 c0,0.24-0.04,0.47-0.07,0.71c34.21,36.47,99.18,49.7,146.12,54.4C212.2,204.46,212.2,204.46,212.21,204.46z M193.83,506.94 c-26.89-57.61-6.78-177.49,1.55-219.71c1.88-9.53,3.16-15.12,3.16-15.12l-26.94,11.75l-0.45,0.19 c-10.09,25.18-19.24,54.31-24.56,86.19c-0.06,0.38-0.12,0.77-0.19,1.15c-0.28,1.71-0.55,3.43-0.8,5.15 c-0.08,0.54-0.16,1.09-0.24,1.63c-0.3,2.1-0.59,4.21-0.86,6.33c-13.94,110.65,9.76,205.99,25.09,215.41 c6.56,4.03,14.14,5.25,21.33,3.49c0.87-0.21,1.74-0.47,2.6-0.78c1.74-0.61,3.44-1.41,5.09-2.39c0.36-0.22,0.72-0.44,1.08-0.68 c0.42-0.27,0.83-0.56,1.25-0.86c2.06-1.5,4.01-3.31,5.81-5.45c2.99-3.55,5.54-7.99,7.45-13.35h0h79.45h54.05h17.09 C297.88,569.48,213.14,548.32,193.83,506.94z M321.35,278.58c-50.18,0-90.87,57.18-90.87,127.72s-13.36,127.72,90.87,127.72 s90.87-57.18,90.87-127.72S371.53,278.58,321.35,278.58z"/></g></svg>