<?xml version="1.0" encoding="UTF-8" standalone="no"?><svg xmlns="http://www.w3.org/2000/svg" xmlns:xlink="http://www.w3.org/1999/xlink" contentScriptType="text/ecmascript" fill="#ffde59" width="122" zoomAndPan="magnify" contentStyleType="text/css" viewBox="0.0 0.0 122.0 92.7" height="92.7" preserveAspectRatio="xMidYMid meet" version="1"><g id="change1_1"><path fill="inherit" d="M56.162,52.912c-21.694-0.145-25.568-2.73-25.732-34.752c-0.004-0.808-0.662-1.464-1.466-1.464 c-0.804,0-1.461,0.657-1.465,1.464c-0.165,32.022-4.039,34.608-25.732,34.752C0.792,52.918,0,53.711,0,54.678 s0.792,1.759,1.766,1.766c21.693,0.145,25.568,2.73,25.732,34.752c0.004,0.808,0.662,1.465,1.465,1.465 c0.804,0,1.462-0.657,1.466-1.464c0.164-32.022,4.039-34.608,25.732-34.752c0.974-0.006,1.766-0.799,1.766-1.766 S57.135,52.918,56.162,52.912z"/><path fill="inherit" d="M120.983,26.381c-15.789-0.105-18.893-2.166-19.013-25.584C101.968,0.357,101.611,0,101.174,0s-0.794,0.357-0.796,0.797 c-0.12,23.418-3.225,25.479-19.013,25.584c-0.561,0.004-1.017,0.458-1.017,1.014s0.456,1.011,1.017,1.015 c15.789,0.105,18.893,2.166,19.013,25.584c0.002,0.439,0.36,0.796,0.796,0.796s0.794-0.357,0.796-0.796 c0.12-23.419,3.225-25.479,19.013-25.584c0.561-0.004,1.017-0.459,1.017-1.015S121.544,26.385,120.983,26.381z"/><path fill="inherit" d="M79.968,68.627c-0.995,2.916-2.69,5.099-4.894,6.281c2.204,1.183,3.899,3.365,4.894,6.282 c0.995-2.917,2.69-5.099,4.894-6.282C82.658,73.726,80.963,71.543,79.968,68.627z"/><path fill="inherit" d="M51.106,21.977c0.995-2.916,2.69-5.099,4.894-6.281c-2.204-1.183-3.899-3.365-4.894-6.281 c-0.995,2.916-2.69,5.099-4.894,6.281C48.417,16.878,50.112,19.061,51.106,21.977z"/></g></svg>