<?xml version="1.0" encoding="UTF-8" standalone="no"?><svg xmlns="http://www.w3.org/2000/svg" xmlns:xlink="http://www.w3.org/1999/xlink" contentScriptType="text/ecmascript" fill="#000000" width="500" zoomAndPan="magnify" contentStyleType="text/css" viewBox="0.0 0.0 500.0 146.5" height="146.5" preserveAspectRatio="xMidYMid meet" version="1"><defs><clipPath id="a"><path d="M 0 0 L 500 0 L 500 146.46875 L 0 146.46875 Z M 0 0"/></clipPath></defs><g><g id="change1_1" clip-path="url(#a)"><path fill="#e46a0d" d="M 75.863281 144.179688 L 427.910156 144.179688 C 467.726562 144.179688 500 111.90625 500 72.089844 C 500 32.277344 467.726562 0.00390625 427.910156 0.00390625 L 75.863281 0.00390625 C 36.050781 0.00390625 3.773438 32.277344 3.773438 72.089844 C 3.773438 87.613281 8.695312 101.976562 17.042969 113.742188 C 12.644531 127.722656 0 146.46875 0 146.46875 C 0 146.46875 20.628906 135.273438 32.945312 130.007812 C 44.933594 138.910156 59.78125 144.179688 75.863281 144.179688"/></g></g></svg>