<?xml version="1.0" encoding="UTF-8" standalone="no"?><svg xmlns="http://www.w3.org/2000/svg" xmlns:xlink="http://www.w3.org/1999/xlink" contentScriptType="text/ecmascript" fill="#000000" width="128.5" zoomAndPan="magnify" contentStyleType="text/css" viewBox="-0.1 -0.0 128.5 84.4" height="84.4" preserveAspectRatio="xMidYMid meet" version="1"><g fill="#e46a0d" id="change1_1"><path fill="inherit" d="M68.7,0.7c-0.1-0.1-0.2-0.2-0.3-0.2c-0.5-0.1-1-0.3-1.5-0.4c-1.1-0.1-2.2,0-3.3,0.1 c-0.5,0.1-0.9,0.1-1.4,0.1c-0.6,0.1-1.3,0.1-1.9,0.2c-0.8,0.1-1.6,0.1-2.4,0.2c-1.4,0.1-2.7,0.3-4.1,0.4c-0.2,0-0.4,0.1-0.6,0.1 c-0.6,0.1-1.3,0.2-1.9,0.3c-0.7,0.1-1.4,0.2-2.1,0.3c-1.1,0.3-2.2,0.6-3.3,1c-1.3,0.4-2.5,0.8-3.7,1.2c-0.9,0.3-1.8,0.6-2.7,0.9 c-1.3,0.5-2.6,1.1-3.9,1.7c-1.4,0.6-2.9,1.3-4.3,2c-0.9,0.4-1.7,1-2.5,1.4c-1,0.4-1.9,0.9-2.7,1.5c-1.1,0.7-2.4,1.2-3.4,2 c0,0-0.1,0-0.1,0.1c-0.7,0.4-1.4,0.9-2,1.4c-0.8,0.5-1.5,1.1-2.3,1.6c-0.7,0.5-1.3,0.9-2,1.3c-0.1,0-0.1,0.1-0.2,0.1 c-0.5,0.4-1,0.8-1.5,1.2c-0.1,0.1-0.3,0.2-0.4,0.3c-0.2,0.2-0.5,0.4-0.7,0.6c-0.5,0.4-1,0.8-1.4,1.3c-0.5,0.5-1.1,0.9-1.6,1.4 c-0.5,0.5-1.1,1-1.5,1.5c-0.4,0.6-0.8,1.2-1.5,1.7C7.1,26,7.1,26.2,7,26.2c-0.1,0.2-0.3,0.4-0.5,0.6C6,27.5,5.3,28.2,4.8,29 c-0.7,1.1-1.4,2.1-1.9,3.3c-0.5,1.2-1,2.3-1.5,3.5c-0.3,0.7-0.6,1.5-0.7,2.3c-0.1,0.5-0.4,1-0.4,1.5c0,1.4-0.4,2.7-0.2,4.1 c0,0,0,0.1,0,0.1c0.1,1.1,0.1,2.2,0.2,3.3c0.1,1.1,0.2,2.1,0.5,3.1c0,0.1,0,0.2,0,0.2c0.1,1,0.3,2,0.6,2.9c0.6,1.7,1,3.5,1.9,5.2 c0.4,0.7,0.6,1.4,1,2.1c0.7,1.2,1.4,2.4,2.1,3.6c0.1,0.1,0.2,0.2,0.3,0.4c0.1,0.1,0.2,0.3,0.3,0.4c0.4,0.7,0.8,1.3,1.4,1.9 c0.4,0.4,0.6,0.8,0.9,1.2c0.9,1,1.7,1.9,2.6,2.8c0.4,0.4,0.8,0.8,1.2,1.1c0.6,0.5,1.2,0.9,1.8,1.4c1.2,1.1,2.6,2.1,4,3 c1.7,1,3.4,1.9,5.1,2.9c0.3,0.2,0.7,0.2,1,0.3c0.5,0.2,1,0.5,1.5,0.7c0.4,0.2,0.9,0.4,1.3,0.5c0.5,0.2,1,0.3,1.5,0.4 c1.8,0.5,3.5,1.3,5.3,1.5c0.9,0.1,1.8,0.4,2.7,0.5c0.7,0.1,1.4,0.3,2.1,0.4c0.6,0.1,1.2,0.1,1.8,0.1c1.1,0.1,2.1,0.3,3.2,0.4 c0.7,0.1,1.4,0.1,2.2,0.1c0.5,0,0.9-0.1,1.4-0.1c1.1,0,2.1,0.2,3.2,0.2c0.7,0,1.4-0.1,2.1-0.1c1,0,2,0,3,0c0.8,0,1.5-0.1,2.3-0.1 c0.6-0.1,1.1-0.2,1.7-0.2c0.6,0,1.2,0,1.7-0.3c0.1-0.1,0.3,0,0.5,0c0.2,0,0.5,0,0.7,0.1c0.4,0.1,0.7-0.2,1-0.2 c0.5,0.1,1-0.1,1.5-0.1c0.3,0,0.7,0.1,1,0c0.8-0.1,1.6-0.2,2.4-0.4c0.8-0.1,1.7-0.3,2.5-0.4c0.6-0.1,1.2-0.2,1.8-0.3 c0.3-0.1,0.7-0.3,1-0.3c0.6,0,1.2,0,1.8-0.2c0.6-0.2,1.2-0.3,1.9-0.5c0.3-0.1,0.7-0.2,1.1-0.2c1-0.2,2-0.4,3-0.5 c0.1,0,0.1,0,0.2-0.1c0.5-0.3,1-0.5,1.6-0.6c0.4-0.1,0.7-0.1,1.1-0.2c1.2-0.4,2.4-0.8,3.6-1.2c1.4-0.4,2.7-1.1,4.2-1.5 c0.7-0.2,1.4-0.4,2.1-0.7c0.4-0.2,0.9-0.3,1.3-0.5c1.3-0.6,2.6-1.2,4-1.9c0.6-0.3,1.1-0.6,1.7-0.9c1.1-0.6,2.2-1.1,3.4-1.7 c0.6-0.3,1.1-0.5,1.7-0.8c0.8-0.4,1.6-0.8,2.4-1.2c0.7-0.4,1.3-0.9,2.1-1.2c0.3-0.1,0.5-0.3,0.7-0.5c0.3-0.2,0.7-0.5,1-0.7 c0.6-0.4,1.2-0.8,1.8-1.2c0.7-0.5,1.3-1.1,2-1.6c0.9-0.7,1.8-1.4,2.6-2.2c1-1,1.8-2.1,2.8-3c0.1-0.1,0.2-0.2,0.3-0.4 c0.2-0.3,0.4-0.7,0.7-1c0.8-0.8,1.4-1.8,2-2.7c0.5-0.7,0.8-1.6,1.1-2.4c0.4-0.9,0.5-1.8,1-2.6c0.1-0.1,0.1-0.2,0.1-0.3 c0.2-1.3,0.3-2.7,0.5-4c0.2-1.3,0-2.5,0-3.8c0-1-0.3-2.1-0.4-3.1c0-0.1-0.1-0.3-0.1-0.4c-0.3-0.5-0.3-1.1-0.3-1.7 c0-0.2-0.1-0.4-0.1-0.5c-0.2-0.4-0.5-0.8-0.5-1.3c0-0.1,0-0.2-0.1-0.3c-0.3-0.4-0.4-0.8-0.6-1.3c-0.5-0.9-1-1.8-1.5-2.7 c-0.3-0.6-0.7-1.1-1-1.8c-0.2-0.5-0.5-0.9-0.8-1.3c-0.4-0.6-1.1-1.2-1.3-2c0-0.1-0.2-0.2-0.2-0.2c-0.1-0.1-0.2-0.1-0.2-0.1 c-0.5-0.6-1-1.2-1.6-1.9c-1.2-1.3-2.3-2.6-3.6-3.8c-0.1-0.1-0.2-0.2-0.3-0.3c-0.4-0.4-0.8-0.8-1.3-1.1c-0.8-0.7-1.7-1.4-2.6-2.1 c-0.6-0.5-1.3-1-1.9-1.5c-0.1,0-0.1-0.1-0.2-0.1c-0.5-0.3-1.1-0.6-1.6-1c-0.6-0.4-1.1-0.8-1.7-1.2c-0.3-0.2-0.6-0.4-0.9-0.6 c-0.7-0.4-1.4-0.7-2.1-1.1c-0.7-0.4-1.4-0.7-2.1-1C99.3,9,98,8.3,96.6,7.8c-1.4-0.5-2.9-1-4.3-1.4c-1.5-0.4-2.9-0.8-4.4-1 c-1.8-0.3-3.5-0.7-5.3-0.9c-1-0.1-2.1-0.2-3.1-0.3C78.7,4.1,78,4,77.3,4.1c-0.2,0-0.4,0-0.6,0C75.5,4.1,74.3,4,73.1,4 c-0.7,0-1.3,0-1.9,0.4C70.5,4,70.4,4,69.8,4.1c-0.4,0.1-0.9,0.1-1.3,0c-0.3-0.1-0.7,0-1,0.1c-0.1,0-0.3,0.1-0.4,0.1 c-0.3,0-0.6,0-0.8,0.1c-0.2,0-0.5,0.1-0.7,0.1c-1.1-0.1-2.2,0-3.3,0.1c-0.3,0-0.7,0-1,0.1c-1.1,0.2-2.2,0.5-3.4,0.4 c-0.4,0-0.8-0.1-1.2,0.1c-0.1,0-0.2,0-0.3,0c-0.1,0-0.3,0-0.4,0c-0.3,0.3-0.8,0.3-1.2,0.4c-0.3,0.1-0.5,0.1-0.8,0.3 C54,6,53.7,6.1,53.6,6.1c-0.6-0.1-1,0.2-1.5,0.4c-0.6,0.2-0.6,0.3-0.2,0.8c0,0,0,0.1,0,0.1c-0.3,0.1-0.5,0.3-0.8,0.4 c0.1,0.1,0.2,0.2,0.3,0.2c0.5-0.1,0.9-0.2,1.4-0.3c0.1,0,0.2-0.1,0.3-0.1c0.6,0,1.2-0.1,1.7-0.1c0.3,0,0.5-0.1,0.5-0.4 c0-0.3,0.2-0.3,0.4-0.3c0.2,0,0.4,0,0.6,0c0,0.2-0.1,0.3-0.1,0.5c0.6,0.1,1.1,0.2,1.6-0.2c-0.1-0.1-0.2-0.3-0.3-0.4 c0.4-0.1,0.7-0.2,0.9,0.2c0.2,0.3,0.5,0.4,0.8,0.4C60,7.1,60.7,7,61.5,7c1.3-0.1,2.5-0.2,3.8-0.3c1.2-0.1,2.4-0.1,3.6-0.1 c2-0.1,4.1-0.1,6.1,0.1c0.9,0.1,1.9,0.1,2.8,0.2c0.2,0,0.5,0,0.7,0c0.2,0,0.4,0,0.6,0c0.4,0,0.8,0.1,1.2,0.1c0.3,0,0.6,0,0.9,0.1 C82,7,82.7,7.1,83.5,7.2c0.4,0,0.8,0.1,1.1,0.1c1,0.2,1.9,0.5,2.9,0.7c0.9,0.2,1.9,0.3,2.8,0.6C91.1,8.9,92,9,92.9,9.3 c1.2,0.4,2.4,0.8,3.6,1.2c0.7,0.2,1.3,0.5,2,0.7c0.5,0.2,1,0.5,1.6,0.8c0.8,0.3,1.6,0.7,2.3,1.1c0.4,0.3,0.9,0.5,1.4,0.7 c0.6,0.3,1.2,0.5,1.8,1c0.3,0.3,0.7,0.5,1,0.7c0.5,0.3,1.1,0.6,1.6,1c0.9,0.7,2,1.2,2.7,2.1c0,0,0,0,0,0c0.9,0.7,1.8,1.2,2.5,2 c0.7,0.8,1.6,1.5,2.3,2.2c0.4,0.4,0.7,0.8,1.1,1.2c0.7,0.6,1.3,1.3,1.8,2.1c0.6,0.7,1.3,1.4,1.6,2.3c0.7,0.6,0.8,1.5,1.5,2.1 c0,0,0,0,0,0c0.6,1.1,1.2,2.1,1.7,3.2c0.3,0.7,0.6,1.4,0.8,2.1c0.1,0.3,0.2,0.6,0.3,1c0.2,0.6,0.4,1.1,0.5,1.7 c0.1,0.4,0.1,0.8,0.2,1.2c0.1,0.8,0.3,1.6,0.2,2.4c0,0.5-0.1,1.1-0.1,1.6c0.1,1-0.2,2-0.3,3c-0.2,1.3-0.6,2.5-1.1,3.7 c-0.7,1.7-1.5,3.2-2.6,4.6c-0.2,0.3-0.5,0.5-0.7,0.9c-0.4,0.7-1,1.4-1.6,2c-0.5,0.6-1.1,1.1-1.7,1.7c-0.1,0.1-0.2,0.2-0.2,0.3 c-0.1,0.3-0.4,0.6-0.7,0.7c-0.5,0.2-0.8,0.5-1.1,0.8c-0.2,0.1-0.3,0.3-0.5,0.4c-0.4,0.3-0.8,0.6-1.2,0.9c-0.4,0.3-0.8,0.7-1.2,1 c-0.8,0.5-1.6,0.9-2.3,1.6c-0.2,0.2-0.4,0.4-0.6,0.5c-0.8,0.2-1.4,0.8-2.1,1.2c-0.2,0.1-0.4,0.1-0.5,0.2c-0.5,0.6-1.4,0.7-2,1.2 c-0.7,0.5-1.7,0.6-2.4,1.3c0,0-0.1,0-0.1,0.1c-0.4,0.2-0.8,0.3-1.1,0.5c-0.3,0.2-0.6,0.4-0.9,0.5c-0.6,0.3-1.2,0.5-1.9,0.8 c-0.6,0.3-1.2,0.5-1.8,0.7c-0.3,0.1-0.5,0.3-0.7,0.4c-1.1,0.4-2,1-3.1,1.3c-0.8,0.2-1.6,0.7-2.5,0.8c-0.1,0-0.1,0-0.2,0.1 c-0.6,0.2-1.1,0.5-1.7,0.7c-0.2,0.1-0.5,0.2-0.8,0.2c-0.6,0.2-1.2,0.3-1.7,0.5c-0.6,0.2-1.3,0.4-1.9,0.7c-0.5,0.2-1.1,0.3-1.6,0.5 c-0.6,0.2-1.2,0.4-1.8,0.6c-1.2,0.3-2.3,0.5-3.5,0.8c-0.7,0.2-1.5,0.3-2.2,0.5c-0.6,0.1-1.1,0.1-1.7,0.3c-0.6,0.2-1.2,0.3-1.8,0.3 c-0.6,0.1-1.1,0.1-1.6,0.4c-0.1,0-0.2,0.1-0.3,0.1c-1.1,0-2.2,0.3-3.2,0.4c-0.7,0.1-1.3,0.2-2,0.2c-0.4,0-0.9,0-1.3,0 c-1.1,0.1-2.2,0.2-3.3,0.3c-0.8,0.1-1.7,0.1-2.5,0.2c-1.2,0.1-2.5,0.2-3.7,0.2c-0.9,0-1.9,0-2.8,0c-1.1,0-2.1,0-3.2,0 c-0.9,0-1.7-0.1-2.6-0.1c-0.9-0.1-1.8-0.1-2.7-0.2c-0.7-0.1-1.5-0.2-2.2-0.3c-0.5-0.1-0.9-0.1-1.4-0.2c-1.3-0.2-2.7-0.5-4-0.7 c-0.3-0.1-0.6-0.1-0.8-0.2c-0.8-0.2-1.6-0.4-2.4-0.6c-1.3-0.4-2.6-0.8-4-1.2c-0.2-0.1-0.5-0.2-0.7-0.3c-0.8-0.3-1.5-0.6-2.3-0.9 c-0.5-0.2-1-0.5-1.5-0.8c-0.7-0.4-1.3-0.9-2.1-1.2c-0.9-0.3-1.5-1.2-2.5-1.4c0,0-0.1,0-0.1-0.1c-0.4-0.3-0.8-0.6-1.3-1 c-0.9-0.8-1.8-1.5-2.8-2.3c-0.4-0.3-0.7-0.7-1.1-1c-0.3-0.3-0.6-0.6-0.9-0.9c-0.3-0.4-0.7-0.7-1-1.1c-0.2-0.2-0.4-0.3-0.5-0.5 c-0.8-1-1.5-1.9-2.3-2.9c-0.5-0.6-0.9-1.3-1.3-2c-0.6-1-1.1-2.1-1.6-3.2c0-0.1-0.1-0.2-0.1-0.3c-0.1-0.7-0.5-1.3-0.7-2 c-0.2-0.8-0.5-1.5-0.8-2.3c-0.2-0.8-0.5-1.6-0.6-2.5c-0.1-0.7-0.3-1.4-0.3-2.1c-0.1-1.3-0.2-2.5-0.2-3.8c0-1.1,0-2.1,0.1-3.2 c0.1-1.6,0.6-3.2,1.1-4.8c0.3-0.9,0.7-1.7,1.1-2.6c0.2-0.5,0.5-1,0.8-1.5c0.4-0.6,0.7-1.3,1.1-1.9c0.3-0.5,0.7-1,1.1-1.5 c0.3-0.3,0.5-0.8,0.8-1c0.6-0.4,0.9-1,1.4-1.5c0.5-0.5,0.9-1.1,1.4-1.7c0.6-0.7,1.4-1.3,2-1.9c0.5-0.5,1-0.9,1.5-1.3 c0.4-0.4,0.8-0.8,1.3-1.1c0.2-0.1,0.3-0.3,0.5-0.4c0.2-0.2,0.4-0.3,0.6-0.5c0.2-0.1,0.4-0.3,0.6-0.4c0.2-0.2,0.4-0.4,0.6-0.6 c1.2-0.8,2.2-1.7,3.4-2.3c0.2-0.1,0.4-0.3,0.6-0.5c0.2-0.1,0.4-0.3,0.6-0.4c1-0.6,2-1.1,2.9-1.8c0.6-0.4,1.2-1,2-1.2 c0.1,0,0.1-0.1,0.1-0.1c0.8-0.5,1.7-0.9,2.5-1.4c0.4-0.2,0.9-0.5,1.3-0.7c0.5-0.2,0.9-0.4,1.4-0.6c1.1-0.5,2.1-1,3.2-1.5 C38,8.7,38.8,8.3,39.7,8c0.8-0.3,1.7-0.6,2.5-0.9c0.5-0.2,1.1-0.4,1.6-0.6c1.1-0.4,2.2-0.8,3.4-1.1c1.3-0.4,2.6-0.6,3.9-0.9 c0.5-0.1,1-0.2,1.6-0.3C53,4.1,53.4,4,53.7,4c0.3,0,0.5-0.1,0.8-0.2c0.9-0.1,1.7-0.3,2.6-0.4c0.4,0,0.7-0.1,1.1-0.1 c0.4,0,0.8-0.1,1.2-0.1c0.4-0.1,0.9-0.2,1.3-0.3c1.4-0.2,2.9-0.3,4.3-0.5c0.4,0,0.8-0.1,1.2-0.1c0-0.5,0-0.5,0.4-0.6 c0.3,0,0.5,0,0.8-0.1c0.2-0.1,0.4-0.2,0.6-0.3C68.2,1.1,68.4,0.9,68.7,0.7z"/><path fill="inherit" d="M68.7,0.7c-0.3,0.3-0.4,0.5-0.6,0.7c-0.2,0.1-0.4,0.2-0.6,0.3c-0.3,0.1-0.5,0.1-0.8,0.1 c-0.4,0.1-0.4,0.1-0.4,0.6c-0.4,0-0.8,0.1-1.2,0.1c-1.4,0.2-2.9,0.3-4.3,0.5c-0.5,0.1-0.9,0.2-1.3,0.3c-0.4,0.1-0.8,0.1-1.2,0.1 c-0.4,0-0.7,0.1-1.1,0.1c-0.9,0.1-1.7,0.2-2.6,0.4c-0.3,0-0.5,0.1-0.8,0.2C53.4,4,53,4.1,52.7,4.1c-0.5,0.1-1,0.2-1.6,0.3 c-1.3,0.3-2.6,0.6-3.9,0.9c-1.1,0.3-2.3,0.7-3.4,1.1c-0.5,0.2-1.1,0.4-1.6,0.6c-0.8,0.3-1.7,0.6-2.5,0.9c-0.9,0.4-1.8,0.7-2.7,1.1 c-1.1,0.5-2.1,1-3.2,1.5c-0.5,0.2-0.9,0.4-1.4,0.6c-0.5,0.2-0.9,0.5-1.3,0.7c-0.8,0.5-1.7,0.9-2.5,1.4c0,0-0.1,0.1-0.1,0.1 c-0.8,0.2-1.3,0.8-2,1.2c-0.9,0.6-1.9,1.2-2.9,1.8c-0.2,0.1-0.4,0.3-0.6,0.4c-0.2,0.2-0.4,0.3-0.6,0.5c-1.2,0.6-2.3,1.6-3.4,2.3 c-0.2,0.2-0.4,0.4-0.6,0.6c-0.2,0.2-0.4,0.3-0.6,0.4c-0.2,0.2-0.4,0.3-0.6,0.5c-0.2,0.1-0.3,0.3-0.5,0.4c-0.5,0.3-0.9,0.7-1.3,1.1 c-0.5,0.4-1,0.9-1.5,1.3c-0.7,0.6-1.4,1.2-2,1.9c-0.5,0.5-0.9,1.2-1.4,1.7C9.9,28,9.5,28.6,9,29c-0.3,0.3-0.5,0.7-0.8,1 c-0.4,0.5-0.8,1-1.1,1.5c-0.4,0.6-0.8,1.3-1.1,1.9c-0.3,0.5-0.6,1-0.8,1.5c-0.4,0.9-0.8,1.7-1.1,2.6c-0.5,1.6-0.9,3.2-1.1,4.8 c-0.1,1.1-0.1,2.1-0.1,3.2c0,1.3,0.1,2.5,0.2,3.8c0.1,0.7,0.3,1.4,0.3,2.1c0.1,0.8,0.4,1.7,0.6,2.5c0.2,0.8,0.5,1.5,0.8,2.3 c0.2,0.7,0.7,1.3,0.7,2c0,0.1,0.1,0.2,0.1,0.3c0.5,1.1,1.1,2.1,1.6,3.2c0.4,0.7,0.8,1.4,1.3,2c0.7,1,1.5,2,2.3,2.9 c0.2,0.2,0.3,0.4,0.5,0.5c0.3,0.4,0.7,0.7,1,1.1c0.3,0.3,0.6,0.6,0.9,0.9c0.4,0.3,0.7,0.7,1.1,1c0.9,0.8,1.8,1.5,2.8,2.3 c0.4,0.3,0.8,0.7,1.3,1c0,0,0.1,0.1,0.1,0.1c0.9,0.3,1.6,1.1,2.5,1.4c0.7,0.3,1.4,0.8,2.1,1.2c0.5,0.3,1,0.6,1.5,0.8 c0.7,0.3,1.5,0.6,2.3,0.9c0.2,0.1,0.5,0.3,0.7,0.3c1.3,0.4,2.6,0.8,4,1.2c0.8,0.2,1.6,0.4,2.4,0.6c0.3,0.1,0.6,0.1,0.8,0.2 c1.3,0.3,2.7,0.5,4,0.7c0.4,0.1,0.9,0.1,1.4,0.2c0.7,0.1,1.5,0.2,2.2,0.3c0.9,0.1,1.8,0.2,2.7,0.2c0.9,0.1,1.7,0.1,2.6,0.1 c1.1,0,2.1,0,3.2,0c0.9,0,1.9,0,2.8,0c1.2,0,2.5-0.1,3.7-0.2c0.8-0.1,1.7-0.1,2.5-0.2c1.1-0.1,2.2-0.2,3.3-0.3c0.4,0,0.9,0,1.3,0 c0.7-0.1,1.3-0.1,2-0.2c1.1-0.1,2.1-0.4,3.2-0.4c0.1,0,0.2,0,0.3-0.1c0.5-0.2,1-0.3,1.6-0.4c0.6-0.1,1.2-0.1,1.8-0.3 c0.5-0.2,1.1-0.2,1.7-0.3c0.7-0.1,1.5-0.3,2.2-0.5c1.2-0.3,2.3-0.5,3.5-0.8c0.6-0.2,1.2-0.4,1.8-0.6c0.5-0.2,1.1-0.3,1.6-0.5 c0.6-0.2,1.3-0.4,1.9-0.7c0.6-0.2,1.1-0.4,1.7-0.5c0.3-0.1,0.5-0.1,0.8-0.2c0.6-0.2,1.1-0.5,1.7-0.7c0.1,0,0.1-0.1,0.2-0.1 c0.9-0.1,1.6-0.6,2.5-0.8c1.1-0.3,2.1-0.9,3.1-1.3c0.3-0.1,0.5-0.3,0.7-0.4c0.6-0.3,1.2-0.5,1.8-0.7c0.6-0.3,1.3-0.5,1.9-0.8 c0.3-0.1,0.6-0.3,0.9-0.5c0.4-0.2,0.8-0.3,1.1-0.5c0,0,0.1,0,0.1-0.1c0.6-0.7,1.6-0.8,2.4-1.3c0.6-0.4,1.4-0.6,2-1.2 c0.1-0.1,0.3-0.1,0.5-0.2c0.7-0.3,1.3-0.9,2.1-1.2c0.2-0.1,0.4-0.3,0.6-0.5c0.7-0.6,1.5-1,2.3-1.6c0.4-0.3,0.8-0.7,1.2-1 c0.4-0.3,0.8-0.6,1.2-0.9c0.2-0.1,0.3-0.3,0.5-0.4c0.4-0.3,0.7-0.7,1.1-0.8c0.3-0.1,0.6-0.3,0.7-0.7c0-0.1,0.1-0.2,0.2-0.3 c0.6-0.6,1.1-1.1,1.7-1.7c0.6-0.6,1.1-1.2,1.6-2c0.2-0.3,0.5-0.6,0.7-0.9c1.1-1.4,2-2.9,2.6-4.6c0.5-1.2,0.9-2.4,1.1-3.7 c0.2-1,0.4-2,0.3-3c0-0.5,0-1,0.1-1.6c0.1-0.8-0.1-1.6-0.2-2.4c-0.1-0.4-0.1-0.8-0.2-1.2c-0.1-0.6-0.4-1.1-0.5-1.7 c-0.1-0.3-0.2-0.7-0.3-1c-0.3-0.7-0.5-1.4-0.8-2.1c-0.5-1.1-1.2-2.1-1.7-3.2c0,0,0,0,0,0c-0.6-0.6-0.8-1.5-1.5-2.1 c-0.3-0.9-1-1.6-1.6-2.3c-0.6-0.7-1.1-1.5-1.8-2.1c-0.4-0.3-0.7-0.8-1.1-1.2c-0.8-0.7-1.6-1.4-2.3-2.2c-0.8-0.8-1.7-1.4-2.5-2 c0,0,0,0,0,0c-0.8-0.9-1.8-1.4-2.7-2.1c-0.5-0.4-1.1-0.7-1.6-1c-0.3-0.2-0.7-0.4-1-0.7c-0.5-0.5-1.1-0.7-1.8-1 c-0.5-0.2-0.9-0.4-1.4-0.7c-0.7-0.5-1.5-0.8-2.3-1.1c-0.5-0.2-1-0.5-1.6-0.8c-0.6-0.3-1.3-0.5-2-0.7c-1.2-0.4-2.4-0.8-3.6-1.2 C92,9,91.1,8.9,90.2,8.6c-0.9-0.3-1.8-0.4-2.8-0.6c-1-0.2-1.9-0.5-2.9-0.7c-0.4-0.1-0.8-0.1-1.1-0.1C82.7,7.1,82,7,81.3,7 c-0.3,0-0.6,0-0.9-0.1c-0.4,0-0.8-0.1-1.2-0.1c-0.2,0-0.4,0-0.6,0c-0.2,0-0.5,0-0.7,0c-0.9-0.1-1.9-0.1-2.8-0.2 c-2-0.1-4.1-0.1-6.1-0.1c-1.2,0-2.4,0-3.6,0.1C64,6.7,62.8,6.8,61.5,7C60.7,7,60,7.1,59.2,7.1c-0.3,0-0.7-0.1-0.8-0.4 c-0.2-0.4-0.5-0.2-0.9-0.2c0.1,0.2,0.2,0.3,0.3,0.4c-0.5,0.4-1,0.4-1.6,0.2c0-0.2,0.1-0.3,0.1-0.5c-0.2,0-0.4,0-0.6,0 c-0.2,0-0.4,0.1-0.4,0.3c0,0.3-0.2,0.4-0.5,0.4c-0.6,0-1.2,0.1-1.7,0.1c-0.1,0-0.2,0.1-0.3,0.1C52.2,7.8,51.8,8,51.3,8 c-0.1,0-0.2-0.1-0.3-0.2c0.3-0.2,0.6-0.3,0.8-0.4c0-0.1,0-0.1,0-0.1c-0.3-0.6-0.3-0.6,0.2-0.8c0.5-0.2,1-0.4,1.5-0.4 c0.2,0,0.4-0.1,0.5-0.2c0.2-0.2,0.5-0.3,0.8-0.3c0.4-0.1,0.8-0.1,1.2-0.4c0.1-0.1,0.3,0,0.4,0c0.1,0,0.3,0.1,0.3,0 C57.1,4.9,57.5,5,57.9,5c1.2,0.1,2.2-0.3,3.4-0.4c0.3-0.1,0.7,0,1-0.1c1.1-0.1,2.2-0.2,3.3-0.1c0.2,0,0.4-0.1,0.7-0.1 c0.3,0,0.6,0,0.8-0.1c0.1,0,0.3-0.1,0.4-0.1c0.3,0,0.7-0.1,1-0.1c0.4,0.1,0.9,0.1,1.3,0C70.4,4,70.5,4,71.2,4.4 C71.7,4,72.4,3.9,73.1,4c1.2,0,2.4,0.1,3.6,0.2c0.2,0,0.4,0,0.6,0c0.7-0.1,1.4,0,2.2,0.1c1,0.1,2.1,0.2,3.1,0.3 c1.8,0.1,3.5,0.6,5.3,0.9c1.5,0.3,3,0.6,4.4,1c1.5,0.4,2.9,0.9,4.3,1.4c1.4,0.5,2.7,1.2,4.1,1.8c0.7,0.3,1.4,0.7,2.1,1 c0.7,0.4,1.4,0.7,2.1,1.1c0.3,0.2,0.6,0.4,0.9,0.6c0.6,0.4,1.1,0.8,1.7,1.2c0.5,0.3,1.1,0.6,1.6,1c0.1,0,0.1,0.1,0.2,0.1 c0.6,0.5,1.3,1,1.9,1.5c0.9,0.7,1.7,1.4,2.6,2.1c0.4,0.4,0.8,0.8,1.3,1.1c0.1,0.1,0.2,0.2,0.3,0.3c1.3,1.1,2.5,2.5,3.6,3.8 c0.5,0.6,1.1,1.2,1.6,1.9c0.1,0.1,0.2,0.1,0.2,0.1c0.1,0.1,0.2,0.1,0.2,0.2c0.2,0.8,0.9,1.3,1.3,2c0.3,0.4,0.6,0.8,0.8,1.3 c0.3,0.6,0.7,1.2,1,1.8c0.5,0.9,1,1.8,1.5,2.7c0.2,0.4,0.3,0.9,0.6,1.3c0.1,0.1,0.1,0.2,0.1,0.3c0,0.5,0.2,0.9,0.5,1.3 c0.1,0.2,0.1,0.3,0.1,0.5c0,0.6,0.1,1.1,0.3,1.7c0.1,0.1,0.1,0.2,0.1,0.4c0.2,1,0.4,2.1,0.4,3.1c0,1.3,0.2,2.5,0,3.8 c-0.2,1.3-0.3,2.7-0.5,4c0,0.1,0,0.2-0.1,0.3c-0.5,0.8-0.7,1.8-1,2.6c-0.3,0.8-0.6,1.7-1.1,2.4c-0.6,0.9-1.2,1.9-2,2.7 c-0.3,0.3-0.5,0.7-0.7,1c-0.1,0.1-0.2,0.3-0.3,0.4c-1,0.9-1.8,2-2.8,3c-0.8,0.8-1.7,1.5-2.6,2.2c-0.7,0.5-1.3,1.1-2,1.6 c-0.6,0.4-1.2,0.8-1.8,1.2c-0.3,0.2-0.7,0.5-1,0.7c-0.2,0.2-0.5,0.4-0.7,0.5c-0.8,0.3-1.4,0.8-2.1,1.2c-0.8,0.4-1.6,0.8-2.4,1.2 c-0.6,0.3-1.1,0.5-1.7,0.8c-1.1,0.5-2.2,1.1-3.4,1.7c-0.6,0.3-1.1,0.6-1.7,0.9c-1.3,0.6-2.6,1.3-4,1.9c-0.4,0.2-0.9,0.3-1.3,0.5 c-0.7,0.3-1.4,0.5-2.1,0.7c-1.4,0.4-2.7,1.1-4.2,1.5c-1.2,0.4-2.4,0.8-3.6,1.2c-0.4,0.1-0.7,0.2-1.1,0.2c-0.6,0.1-1.1,0.3-1.6,0.6 c0,0-0.1,0-0.2,0.1c-1,0.2-2,0.4-3,0.5c-0.4,0.1-0.7,0.2-1.1,0.2c-0.6,0.2-1.3,0.3-1.9,0.5c-0.6,0.2-1.2,0.3-1.8,0.2 c-0.3,0-0.6,0.2-1,0.3c-0.6,0.1-1.2,0.2-1.8,0.3c-0.8,0.1-1.7,0.3-2.5,0.4c-0.8,0.1-1.6,0.3-2.4,0.4c-0.3,0-0.7,0-1,0 c-0.5,0-1,0.2-1.5,0.1c-0.3,0-0.7,0.2-1,0.2c-0.2,0-0.5,0-0.7-0.1c-0.2,0-0.4-0.1-0.5,0C61.2,84,60.7,84,60.1,84 c-0.6,0-1.1,0.2-1.7,0.2c-0.8,0.1-1.5,0.1-2.3,0.1c-1,0-2,0-3,0c-0.7,0-1.4,0.1-2.1,0.1c-1.1,0-2.1-0.1-3.2-0.2 c-0.4,0-0.9,0.1-1.4,0.1c-0.7,0-1.4-0.1-2.2-0.1c-1.1-0.1-2.1-0.3-3.2-0.4c-0.6-0.1-1.2,0-1.8-0.1c-0.7-0.1-1.4-0.2-2.1-0.4 c-0.9-0.2-1.8-0.5-2.7-0.5c-1.9-0.2-3.6-1-5.3-1.5c-0.5-0.1-1-0.3-1.5-0.4c-0.4-0.1-0.9-0.3-1.3-0.5c-0.5-0.2-1-0.5-1.5-0.7 c-0.3-0.1-0.7-0.2-1-0.3c-1.7-0.9-3.4-1.9-5.1-2.9c-1.4-0.9-2.8-1.9-4-3c-0.6-0.5-1.2-0.9-1.8-1.4c-0.4-0.3-0.8-0.7-1.2-1.1 c-0.9-0.9-1.8-1.9-2.6-2.8c-0.3-0.4-0.6-0.8-0.9-1.2c-0.6-0.6-1-1.2-1.4-1.9c-0.1-0.1-0.2-0.3-0.3-0.4c-0.1-0.1-0.2-0.2-0.3-0.4 c-0.7-1.2-1.4-2.4-2.1-3.6c-0.4-0.7-0.6-1.4-1-2.1c-0.9-1.6-1.3-3.4-1.9-5.2c-0.3-0.9-0.5-1.9-0.6-2.9c0-0.1,0-0.2,0-0.2 c-0.3-1-0.4-2.1-0.5-3.1C0.1,46,0.1,44.9,0,43.8c0,0,0-0.1,0-0.1c-0.1-1.4,0.2-2.8,0.2-4.1c0-0.5,0.3-1,0.4-1.5 c0.2-0.8,0.4-1.6,0.7-2.3c0.5-1.1,1.1-2.3,1.5-3.5c0.5-1.2,1.2-2.2,1.9-3.3c0.5-0.8,1.2-1.5,1.8-2.2c0.2-0.2,0.3-0.4,0.5-0.6 C7.1,26.2,7.1,26,7.2,26c0.6-0.4,1-1.1,1.5-1.7c0.4-0.6,1-1,1.5-1.5c0.5-0.5,1.1-0.9,1.6-1.4c0.5-0.4,0.9-0.9,1.4-1.3 c0.2-0.2,0.5-0.4,0.7-0.6c0.1-0.1,0.3-0.2,0.4-0.3c0.5-0.4,1-0.8,1.5-1.2c0.1,0,0.1-0.1,0.2-0.1c0.7-0.4,1.3-0.9,2-1.3 c0.8-0.5,1.5-1.1,2.3-1.6c0.7-0.5,1.4-0.9,2-1.4c0,0,0.1,0,0.1-0.1c1-0.8,2.3-1.3,3.4-2c0.9-0.6,1.8-1.1,2.7-1.5 c0.9-0.4,1.7-1,2.5-1.4c1.4-0.7,2.8-1.4,4.3-2c1.3-0.6,2.6-1.1,3.9-1.7c0.9-0.3,1.8-0.6,2.7-0.9c1.2-0.4,2.5-0.8,3.7-1.2 c1.1-0.3,2.2-0.7,3.3-1c0.7-0.2,1.4-0.2,2.1-0.3c0.6-0.1,1.3-0.2,1.9-0.3c0.2,0,0.4-0.1,0.6-0.1c1.4-0.2,2.7-0.3,4.1-0.4 c0.8-0.1,1.6-0.1,2.4-0.2c0.6,0,1.3-0.1,1.9-0.2c0.5,0,0.9,0,1.4-0.1c1.1-0.1,2.2-0.2,3.3-0.1c0.5,0,1,0.2,1.5,0.4 C68.4,0.4,68.6,0.6,68.7,0.7z M52.1,7.3c0.2,0.1,0.3,0.1,0.5,0.1c0.1,0,0.2-0.1,0.3-0.1c0-0.1,0-0.3,0-0.4 C52.6,6.7,52.3,6.8,52.1,7.3z M54.1,7.2c-0.1-0.3-0.3-0.3-0.5,0C53.9,7.2,54,7.2,54.1,7.2z"/><path fill="inherit" d="M52.1,7.3c0.3-0.5,0.5-0.6,0.7-0.4c0.1,0.1,0.1,0.2,0,0.4c0,0.1-0.2,0.1-0.3,0.1 C52.4,7.5,52.3,7.4,52.1,7.3z"/><path fill="inherit" d="M54.1,7.2c-0.1,0-0.2,0-0.5,0C53.9,6.9,54,6.9,54.1,7.2z"/></g></svg>