<?xml version="1.0" encoding="UTF-8" standalone="no"?><svg xmlns="http://www.w3.org/2000/svg" xmlns:xlink="http://www.w3.org/1999/xlink" contentScriptType="text/ecmascript" fill="#000000" width="98.7" zoomAndPan="magnify" contentStyleType="text/css" viewBox="-0.1 -0.5 98.7 37.2" height="37.2" preserveAspectRatio="xMidYMid meet" version="1"><g data-name="Layer 2"><g data-name="Layer 1"><g id="change1_1"><path fill="#ffffff" d="M3.35,29.58a8.67,8.67,0,0,0,2.77,2.54C8.44,33.66,13,33.73,15,33.87c39.78,2.9,37.88,1.86,69.51-1.61C96,31,98.61,30.65,97.38,12.92c-.14-2-.46-6.06-1.35-7.91a5.47,5.47,0,0,0-4.24-3.32c-1.28-.31-8.12-.81-8.22-.82C65.05-.47,56.09,0,28.93.57,24.2.68,9.64,1.25,5.24,2.87a6.65,6.65,0,0,0-2.94,2C.14,7.7-.1,12.37,0,15.92.1,17.78,1.19,26.69,3.35,29.58Z"/></g></g></g></svg>