<?xml version="1.0" encoding="UTF-8" standalone="no"?><svg xmlns="http://www.w3.org/2000/svg" xmlns:xlink="http://www.w3.org/1999/xlink" contentScriptType="text/ecmascript" fill="#000000" width="383.3" zoomAndPan="magnify" contentStyleType="text/css" viewBox="-11.6 -1.4 383.3 468.8" height="468.8" preserveAspectRatio="xMidYMid meet" version="1"><defs><clipPath id="a"><path d="M 76 443 L 107 443 L 107 467.398438 L 76 467.398438 Z M 76 443"/></clipPath><clipPath id="b"><path d="M 307 51 L 371.660156 51 L 371.660156 91 L 307 91 Z M 307 51"/></clipPath></defs><g><g id="change1_2"><path fill="#dfbe69" d="M 265.136719 96.65625 C 233.972656 111.890625 233.8125 135.027344 227.257812 135.023438 C 218.667969 135.015625 226.265625 72.957031 254.976562 68.203125 C 255.34375 72.480469 265.136719 96.65625 265.136719 96.65625"/></g><g id="change2_1"><path fill="#937b6d" d="M 289.871094 47.085938 C 305.65625 25.960938 276.871094 1.601562 279.847656 0.113281 C 282.824219 -1.375 314.460938 10.925781 306.625 50.101562 C 305.734375 50.101562 289.871094 47.085938 289.871094 47.085938"/></g><g id="change2_2"><path fill="#937b6d" d="M 252.34375 65.816406 C 221.960938 39.875 239.214844 10.644531 242.476562 9.972656 C 245.734375 9.300781 238.175781 46.242188 263.644531 53.085938 L 252.34375 65.816406"/></g><g id="change3_1"><path fill="#d1ae61" d="M 270.191406 297.597656 C 270.191406 297.597656 236.378906 335.820312 229.03125 371.59375 C 221.679688 407.367188 246.179688 464.210938 246.179688 464.210938 L 211.875 464.210938 C 211.875 464.210938 213.34375 441.179688 202.5625 441.179688 C 191.78125 441.179688 204.035156 346.601562 197.171875 331.902344 C 190.3125 317.199219 159.933594 280.9375 159.933594 280.9375 L 270.191406 297.597656"/></g><g id="change3_2"><path fill="#d1ae61" d="M 39.996094 286.546875 C 44.960938 323.214844 18.238281 347.210938 13.601562 352.710938 C 8.96875 358.210938 13.601562 443.742188 13.601562 443.742188 L 40.609375 443.742188 L 43.765625 386.496094 C 43.765625 386.496094 84.394531 352.714844 84.847656 318.480469 C 85.304688 284.242188 39.996094 286.546875 39.996094 286.546875"/></g><g id="change1_3"><path fill="#dfbe69" d="M 48.925781 295.769531 C 65.808594 328.699219 48.597656 360.21875 46.054688 366.945312 C 43.511719 373.675781 76.347656 452.792969 76.347656 452.792969 L 101.8125 443.808594 L 85.738281 388.773438 C 85.738281 388.773438 112.8125 343.398438 101.847656 310.960938 C 90.886719 278.519531 48.925781 295.769531 48.925781 295.769531"/></g><g id="change1_4"><path fill="#dfbe69" d="M 282.128906 272.855469 C 282.128906 272.855469 266.824219 324.5625 275.765625 362.105469 C 284.707031 399.648438 333.566406 443.136719 333.566406 443.136719 L 300.714844 458.464844 C 300.714844 458.464844 291.832031 435.75 281.507812 440.566406 C 271.183594 445.382812 240.664062 349.339844 227.523438 338.324219 C 214.386719 327.3125 169.09375 306.15625 169.09375 306.15625 L 282.128906 272.855469"/></g><g id="change1_5"><path fill="#dfbe69" d="M 256.277344 102.148438 C 256.277344 102.148438 254.304688 163.648438 175.6875 164.875 C 97.070312 166.105469 62.058594 107.140625 25.207031 164.875 C -11.644531 222.609375 44.246094 334.394531 122.867188 336.851562 C 201.484375 339.308594 273.769531 327.824219 287.898438 253.503906 C 302.023438 179.1875 293.613281 157.503906 293.613281 157.503906 L 256.277344 102.148438"/></g><g id="change1_6"><path fill="#dfbe69" d="M 53.863281 140.53125 C 15.050781 133.65625 31.410156 92.097656 15.210938 95.585938 C -0.988281 99.074219 -9.992188 162.425781 18.3125 179.105469 C 46.617188 195.78125 53.863281 140.53125 53.863281 140.53125"/></g><g id="change4_2"><path fill="#8f743f" d="M 13.601562 443.742188 L 13.601562 459.234375 L 40.011719 459.234375 L 40.609375 443.742188 L 13.601562 443.742188"/></g><g id="change4_1" clip-path="url(#a)"><path fill="#8f743f" d="M 76.347656 452.792969 L 81.5 467.398438 L 106.402344 458.613281 L 101.8125 443.808594 L 76.347656 452.792969"/></g><g id="change4_3"><path fill="#8f743f" d="M 211.875 464.210938 L 210.355469 448.828125 L 240.105469 448.828125 L 246.179688 464.210938 L 211.875 464.210938"/></g><g id="change5_1"><path fill="#ecdca2" d="M 256.40625 101.613281 C 255.210938 110.742188 252.046875 121.296875 244.53125 131.976562 C 237.015625 142.652344 226.320312 154.671875 228.496094 160.640625 C 230.671875 166.609375 241.828125 160.640625 241.828125 160.640625 C 241.828125 160.640625 234.25 185.648438 238.933594 188.992188 C 243.617188 192.339844 251.480469 182.136719 251.480469 182.136719 C 251.480469 182.136719 243.953125 211.242188 250.140625 213.082031 C 256.332031 214.921875 261.183594 204.382812 261.183594 204.382812 C 261.183594 204.382812 263.523438 245.703125 272.726562 244.53125 C 281.925781 243.363281 280.921875 222.449219 280.921875 222.449219 C 280.921875 222.449219 286.109375 228.304688 290.125 226.96875 C 294.140625 225.628906 289.160156 206.738281 289.160156 206.738281 C 289.160156 206.738281 294.296875 211.59375 297.820312 209.402344 C 303.210938 206.046875 292.632812 186.484375 292.632812 186.484375 C 292.632812 186.484375 297.214844 189.246094 300.464844 186.589844 C 305.417969 182.535156 296.097656 158.253906 296.097656 158.253906 L 256.40625 101.613281"/></g><g id="change4_4"><path fill="#8f743f" d="M 300.714844 458.464844 L 292.464844 444.5 L 319.667969 429.976562 L 333.566406 443.136719 L 300.714844 458.464844"/></g><g id="change1_7"><path fill="#dfbe69" d="M 277.011719 46.480469 C 254.359375 52.304688 245.234375 66.710938 248.503906 82.511719 C 251.234375 95.726562 284.929688 164.660156 305.382812 160.457031 C 325.832031 156.253906 321.757812 86.796875 319.175781 66.777344 C 316.871094 48.910156 303.464844 39.679688 277.011719 46.480469"/></g><g id="change6_1"><path fill="#040606" d="M 271.457031 92.742188 C 266.550781 92.742188 262.199219 89.859375 261.980469 89.710938 L 262.734375 88.59375 C 262.792969 88.632812 268.722656 92.554688 274.109375 91.046875 C 276.863281 90.273438 279.039062 88.195312 280.578125 84.871094 L 281.800781 85.433594 C 280.089844 89.136719 277.621094 91.460938 274.464844 92.34375 C 273.460938 92.625 272.445312 92.742188 271.457031 92.742188"/></g><g id="change6_2"><path fill="#040606" d="M 299.105469 84.867188 C 295.019531 84.867188 291.476562 83.199219 291.273438 83.105469 L 291.855469 81.886719 C 291.917969 81.917969 298.351562 84.9375 303.464844 82.664062 C 306.078125 81.503906 307.929688 79.132812 308.972656 75.621094 L 310.265625 76.003906 C 309.105469 79.914062 306.996094 82.570312 304.003906 83.898438 C 302.402344 84.609375 300.710938 84.867188 299.105469 84.867188"/></g><g id="change6_3"><path fill="#040606" d="M 284.601562 131.0625 C 284.304688 127.921875 306.9375 120.472656 309.476562 123.574219 C 312.015625 126.675781 304.988281 139.273438 302.609375 140.886719 C 300.226562 142.496094 285.003906 135.308594 284.601562 131.0625"/></g><g id="change6_4"><path fill="#040606" d="M 294.992188 150.097656 C 293.914062 150.097656 292.769531 149.839844 291.59375 149.324219 L 292.132812 148.09375 C 294.429688 149.101562 296.546875 148.933594 298.097656 147.625 C 300.222656 145.824219 300.929688 142.269531 299.9375 138.351562 L 301.210938 137.917969 C 301.238281 137.988281 304.1875 144.722656 308.007812 145.253906 C 309.484375 145.457031 310.957031 144.65625 312.398438 142.882812 L 313.445312 143.730469 C 311.6875 145.898438 309.796875 146.863281 307.824219 146.585938 C 305.238281 146.226562 303.109375 143.773438 301.722656 141.648438 C 301.734375 144.589844 300.777344 147.121094 298.964844 148.652344 C 297.828125 149.613281 296.472656 150.097656 294.992188 150.097656"/></g><g id="change1_1" clip-path="url(#b)"><path fill="#dfbe69" d="M 317.480469 82.867188 C 351.390625 75.566406 365.824219 93.644531 370.972656 89.589844 C 377.71875 84.273438 333.371094 40.199219 307.871094 54.222656 C 310.222656 57.808594 317.480469 82.867188 317.480469 82.867188"/></g><g id="change5_2"><path fill="#ecdca2" d="M 259.453125 54.425781 C 256.621094 61.578125 264.269531 63.953125 269.449219 59.761719 C 272.300781 70.835938 287.820312 64.679688 284.597656 55.082031 C 293.75 59.875 301.746094 48.917969 289.890625 44.339844 C 282.664062 41.546875 261.6875 48.773438 259.453125 54.425781"/></g></g></svg>