<?xml version="1.0" encoding="UTF-8" standalone="no"?><svg xmlns="http://www.w3.org/2000/svg" xmlns:xlink="http://www.w3.org/1999/xlink" contentScriptType="text/ecmascript" fill="#000000" width="40" zoomAndPan="magnify" contentStyleType="text/css" viewBox="4.0 6.0 40.0 36.0" height="36" preserveAspectRatio="xMidYMid meet" version="1"><g id="change1_1"><path fill="#f44336" d="M37.781 13.656L24 8 10.219 13.656 6 23 7 23 7 42 41 42 41 23 42 23z"/></g><g id="change2_1"><path fill="#ff8a80" d="M15 29H33V41H15z"/></g><g><g id="change3_1"><path fill="#ffffff" d="M20 14H28V22H20z"/></g><g id="change3_2"><path fill="#ffffff" d="M32,30v10H16V30H32 M34,28H14v14h20V28L34,28z"/></g><g id="change3_3"><path fill="#ffffff" d="M23 29H25V42H23z"/></g><path fill="none" stroke-width="2" d="M16 41L24 29 32 41" stroke-linejoin="bevel" stroke="#ffffff"/></g><g fill="#b71c1c" id="change4_1"><path fill="inherit" d="M39 12.001L24 6 24 8 37.781 13.656z"/><path fill="inherit" d="M42 24L44 24 39 12.001 37.781 13.656z"/><path fill="inherit" d="M9 12.001L24 6 24 8 10.219 13.656z"/><path fill="inherit" d="M6 24L4 24 9 12.001 10.219 13.656z"/></g><g id="change5_1"><path fill="#4e342e" d="M22.001 16H26V20H22.001z"/></g></svg>