<?xml version="1.0" encoding="UTF-8" standalone="no"?><svg xmlns="http://www.w3.org/2000/svg" xmlns:xlink="http://www.w3.org/1999/xlink" contentScriptType="text/ecmascript" fill="#000000" width="348.4" zoomAndPan="magnify" contentStyleType="text/css" viewBox="38.4 160.2 348.4 104.9" height="104.9" preserveAspectRatio="xMidYMid meet" version="1"><g><g id="change1_1"><path fill="#b1aa99" d="M 47.328125 265.027344 L 38.375 265.027344 L 38.375 160.171875 L 47.328125 160.171875 L 47.328125 265.027344"/></g><g id="change1_2"><path fill="#b1aa99" d="M 156.019531 169.65625 L 156.019531 176.929688 L 44.128906 176.929688 L 44.128906 169.65625 L 156.019531 169.65625"/></g><g id="change1_3"><path fill="#b1aa99" d="M 156.019531 248.195312 L 156.019531 255.464844 L 44.128906 255.464844 L 44.128906 248.195312 L 156.019531 248.195312"/></g><g id="change1_4"><path fill="#b1aa99" d="M 157.152344 241.164062 L 153.21875 249.203125 L 41.714844 184.039062 L 45.648438 176 L 157.152344 241.164062"/></g><g id="change1_5"><path fill="#b1aa99" d="M 41.714844 241.164062 L 45.648438 249.203125 L 157.152344 184.039062 L 153.21875 176 L 41.714844 241.164062"/></g><g id="change2_1"><path fill="#918f8f" d="M 44.425781 173.425781 C 44.425781 174.289062 43.71875 175 42.851562 175 C 41.980469 175 41.277344 174.289062 41.277344 173.425781 C 41.277344 172.554688 41.980469 171.847656 42.851562 171.847656 C 43.71875 171.847656 44.425781 172.554688 44.425781 173.425781"/></g><g id="change2_2"><path fill="#918f8f" d="M 44.425781 179.199219 C 44.425781 180.066406 43.71875 180.773438 42.851562 180.773438 C 41.980469 180.773438 41.277344 180.066406 41.277344 179.199219 C 41.277344 178.328125 41.980469 177.621094 42.851562 177.621094 C 43.71875 177.621094 44.425781 178.328125 44.425781 179.199219"/></g><g id="change2_3"><path fill="#918f8f" d="M 44.425781 244.480469 C 44.425781 245.351562 43.71875 246.054688 42.851562 246.054688 C 41.980469 246.054688 41.277344 245.351562 41.277344 244.480469 C 41.277344 243.609375 41.980469 242.902344 42.851562 242.902344 C 43.71875 242.902344 44.425781 243.609375 44.425781 244.480469"/></g><g id="change2_4"><path fill="#918f8f" d="M 44.425781 250.257812 C 44.425781 251.125 43.71875 251.828125 42.851562 251.828125 C 41.980469 251.828125 41.277344 251.125 41.277344 250.257812 C 41.277344 249.382812 41.980469 248.679688 42.851562 248.679688 C 43.71875 248.679688 44.425781 249.382812 44.425781 250.257812"/></g><g id="change2_5"><path fill="#918f8f" d="M 96.546875 211.023438 C 97.414062 211.023438 98.121094 211.730469 98.121094 212.601562 C 98.121094 213.46875 97.414062 214.179688 96.546875 214.179688 C 95.675781 214.179688 94.96875 213.46875 94.96875 212.601562 C 94.96875 211.730469 95.675781 211.023438 96.546875 211.023438"/></g><g id="change2_6"><path fill="#918f8f" d="M 102.320312 211.023438 C 103.191406 211.023438 103.898438 211.730469 103.898438 212.601562 C 103.898438 213.46875 103.191406 214.179688 102.320312 214.179688 C 101.449219 214.179688 100.746094 213.46875 100.746094 212.601562 C 100.746094 211.730469 101.449219 211.023438 102.320312 211.023438"/></g><g id="change1_6"><path fill="#b1aa99" d="M 160.492188 265.027344 L 151.542969 265.027344 L 151.542969 160.171875 L 160.492188 160.171875 L 160.492188 265.027344"/></g><g id="change1_7"><path fill="#b1aa99" d="M 269.1875 169.65625 L 269.1875 176.929688 L 157.296875 176.929688 L 157.296875 169.65625 L 269.1875 169.65625"/></g><g id="change1_8"><path fill="#b1aa99" d="M 269.1875 248.195312 L 269.1875 255.464844 L 157.296875 255.464844 L 157.296875 248.195312 L 269.1875 248.195312"/></g><g id="change1_9"><path fill="#b1aa99" d="M 270.320312 241.164062 L 266.386719 249.203125 L 154.882812 184.039062 L 158.8125 176 L 270.320312 241.164062"/></g><g id="change1_10"><path fill="#b1aa99" d="M 154.882812 241.164062 L 158.8125 249.203125 L 270.320312 184.039062 L 266.386719 176 L 154.882812 241.164062"/></g><g id="change2_7"><path fill="#918f8f" d="M 157.59375 173.425781 C 157.59375 174.289062 156.886719 175 156.019531 175 C 155.148438 175 154.441406 174.289062 154.441406 173.425781 C 154.441406 172.554688 155.148438 171.847656 156.019531 171.847656 C 156.886719 171.847656 157.59375 172.554688 157.59375 173.425781"/></g><g id="change2_8"><path fill="#918f8f" d="M 157.59375 179.199219 C 157.59375 180.066406 156.886719 180.773438 156.019531 180.773438 C 155.148438 180.773438 154.441406 180.066406 154.441406 179.199219 C 154.441406 178.328125 155.148438 177.621094 156.019531 177.621094 C 156.886719 177.621094 157.59375 178.328125 157.59375 179.199219"/></g><g id="change2_9"><path fill="#918f8f" d="M 157.59375 244.480469 C 157.59375 245.351562 156.886719 246.054688 156.019531 246.054688 C 155.148438 246.054688 154.441406 245.351562 154.441406 244.480469 C 154.441406 243.609375 155.148438 242.902344 156.019531 242.902344 C 156.886719 242.902344 157.59375 243.609375 157.59375 244.480469"/></g><g id="change2_10"><path fill="#918f8f" d="M 157.59375 250.257812 C 157.59375 251.125 156.886719 251.828125 156.019531 251.828125 C 155.148438 251.828125 154.441406 251.125 154.441406 250.257812 C 154.441406 249.382812 155.148438 248.679688 156.019531 248.679688 C 156.886719 248.679688 157.59375 249.382812 157.59375 250.257812"/></g><g id="change2_11"><path fill="#918f8f" d="M 209.710938 211.023438 C 210.582031 211.023438 211.289062 211.730469 211.289062 212.601562 C 211.289062 213.46875 210.582031 214.179688 209.710938 214.179688 C 208.84375 214.179688 208.140625 213.46875 208.140625 212.601562 C 208.140625 211.730469 208.84375 211.023438 209.710938 211.023438"/></g><g id="change2_12"><path fill="#918f8f" d="M 215.488281 211.023438 C 216.359375 211.023438 217.0625 211.730469 217.0625 212.601562 C 217.0625 213.46875 216.359375 214.179688 215.488281 214.179688 C 214.617188 214.179688 213.914062 213.46875 213.914062 212.601562 C 213.914062 211.730469 214.617188 211.023438 215.488281 211.023438"/></g><g id="change1_11"><path fill="#b1aa99" d="M 273.660156 265.027344 L 264.707031 265.027344 L 264.707031 160.171875 L 273.660156 160.171875 L 273.660156 265.027344"/></g><g id="change1_12"><path fill="#b1aa99" d="M 382.351562 169.65625 L 382.351562 176.929688 L 270.464844 176.929688 L 270.464844 169.65625 L 382.351562 169.65625"/></g><g id="change1_13"><path fill="#b1aa99" d="M 382.351562 248.195312 L 382.351562 255.464844 L 270.464844 255.464844 L 270.464844 248.195312 L 382.351562 248.195312"/></g><g id="change1_14"><path fill="#b1aa99" d="M 383.484375 241.164062 L 379.554688 249.203125 L 268.050781 184.039062 L 271.984375 176 L 383.484375 241.164062"/></g><g id="change1_15"><path fill="#b1aa99" d="M 268.050781 241.164062 L 271.984375 249.203125 L 383.484375 184.039062 L 379.554688 176 L 268.050781 241.164062"/></g><g id="change2_13"><path fill="#918f8f" d="M 270.761719 173.425781 C 270.761719 174.289062 270.054688 175 269.1875 175 C 268.3125 175 267.609375 174.289062 267.609375 173.425781 C 267.609375 172.554688 268.3125 171.847656 269.1875 171.847656 C 270.054688 171.847656 270.761719 172.554688 270.761719 173.425781"/></g><g id="change2_14"><path fill="#918f8f" d="M 270.761719 179.199219 C 270.761719 180.066406 270.054688 180.773438 269.1875 180.773438 C 268.3125 180.773438 267.609375 180.066406 267.609375 179.199219 C 267.609375 178.328125 268.3125 177.621094 269.1875 177.621094 C 270.054688 177.621094 270.761719 178.328125 270.761719 179.199219"/></g><g id="change2_15"><path fill="#918f8f" d="M 270.761719 244.480469 C 270.761719 245.351562 270.054688 246.054688 269.1875 246.054688 C 268.3125 246.054688 267.609375 245.351562 267.609375 244.480469 C 267.609375 243.609375 268.3125 242.902344 269.1875 242.902344 C 270.054688 242.902344 270.761719 243.609375 270.761719 244.480469"/></g><g id="change2_16"><path fill="#918f8f" d="M 270.761719 250.257812 C 270.761719 251.125 270.054688 251.828125 269.1875 251.828125 C 268.3125 251.828125 267.609375 251.125 267.609375 250.257812 C 267.609375 249.382812 268.3125 248.679688 269.1875 248.679688 C 270.054688 248.679688 270.761719 249.382812 270.761719 250.257812"/></g><g id="change2_17"><path fill="#918f8f" d="M 322.878906 211.023438 C 323.75 211.023438 324.453125 211.730469 324.453125 212.601562 C 324.453125 213.46875 323.75 214.179688 322.878906 214.179688 C 322.011719 214.179688 321.308594 213.46875 321.308594 212.601562 C 321.308594 211.730469 322.011719 211.023438 322.878906 211.023438"/></g><g id="change2_18"><path fill="#918f8f" d="M 328.65625 211.023438 C 329.523438 211.023438 330.230469 211.730469 330.230469 212.601562 C 330.230469 213.46875 329.523438 214.179688 328.65625 214.179688 C 327.785156 214.179688 327.078125 213.46875 327.078125 212.601562 C 327.078125 211.730469 327.785156 211.023438 328.65625 211.023438"/></g><g id="change1_16"><path fill="#b1aa99" d="M 386.824219 265.027344 L 377.875 265.027344 L 377.875 160.171875 L 386.824219 160.171875 L 386.824219 265.027344"/></g><g id="change2_19"><path fill="#918f8f" d="M 383.925781 173.425781 C 383.925781 174.289062 383.222656 175 382.351562 175 C 381.480469 175 380.777344 174.289062 380.777344 173.425781 C 380.777344 172.554688 381.480469 171.847656 382.351562 171.847656 C 383.222656 171.847656 383.925781 172.554688 383.925781 173.425781"/></g><g id="change2_20"><path fill="#918f8f" d="M 383.925781 179.199219 C 383.925781 180.066406 383.222656 180.773438 382.351562 180.773438 C 381.480469 180.773438 380.777344 180.066406 380.777344 179.199219 C 380.777344 178.328125 381.480469 177.621094 382.351562 177.621094 C 383.222656 177.621094 383.925781 178.328125 383.925781 179.199219"/></g><g id="change2_21"><path fill="#918f8f" d="M 383.925781 244.480469 C 383.925781 245.351562 383.222656 246.054688 382.351562 246.054688 C 381.480469 246.054688 380.777344 245.351562 380.777344 244.480469 C 380.777344 243.609375 381.480469 242.902344 382.351562 242.902344 C 383.222656 242.902344 383.925781 243.609375 383.925781 244.480469"/></g><g id="change2_22"><path fill="#918f8f" d="M 383.925781 250.257812 C 383.925781 251.125 383.222656 251.828125 382.351562 251.828125 C 381.480469 251.828125 380.777344 251.125 380.777344 250.257812 C 380.777344 249.382812 381.480469 248.679688 382.351562 248.679688 C 383.222656 248.679688 383.925781 249.382812 383.925781 250.257812"/></g></g></svg>