<?xml version="1.0" encoding="UTF-8" standalone="no"?><svg xmlns="http://www.w3.org/2000/svg" xmlns:xlink="http://www.w3.org/1999/xlink" contentScriptType="text/ecmascript" fill="#000000" width="1706.7" zoomAndPan="magnify" contentStyleType="text/css" viewBox="-66.1 -0.2 1706.7 1856.5" height="1856.5" preserveAspectRatio="xMidYMid meet" version="1"><defs><clipPath id="a"><path d="M 686 1787 L 712 1787 L 712 1846.261719 L 686 1846.261719 Z M 686 1787"/></clipPath><clipPath id="b"><path d="M 1510 1179 L 1632.210938 1179 L 1632.210938 1328 L 1510 1328 Z M 1510 1179"/></clipPath></defs><g><g><path fill="#db8b2c" d="M 1190.171875 1410.851562 C 1190.171875 1410.851562 1160.398438 1391.828125 1189.460938 1379.570312 C 1218.53125 1367.320312 1303.480469 1427.539062 1387.371094 1400.5 C 1444.480469 1382.089844 1475.300781 1353.960938 1492.539062 1318.320312 C 1507.460938 1287.488281 1526.578125 1328.058594 1495 1372.128906 C 1415.378906 1483.25 1266.839844 1462.671875 1190.171875 1410.851562"/></g><g><path fill="#b77941" d="M 1488.816406 1325.660156 C 1476.640625 1293.679688 1443.726562 1182.949219 1550.671875 1137.769531 C 1570.738281 1129.289062 1640.621094 1147.730469 1616.449219 1192.828125 C 1600.769531 1222.078125 1566.902344 1244.242188 1549 1274.648438 C 1539.964844 1289.988281 1523.0625 1320.917969 1508.84375 1332.839844 C 1502.546875 1338.121094 1490.949219 1331.25 1488.816406 1325.660156"/></g><g><path fill="#ea9e2f" d="M 470.671875 1189.210938 C 452.425781 1199.960938 306.3125 1328.671875 363.546875 1464.398438 C 411.195312 1577.410156 473.613281 1644.671875 494.179688 1666.53125 C 494.179688 1666.53125 439.128906 1716.21875 458.640625 1757.171875 C 469.113281 1779.140625 494.191406 1783.378906 522.035156 1781.921875 C 597.773438 1777.929688 623.304688 1761.609375 675.863281 1707.171875 C 699.207031 1682.988281 911.730469 1687.929688 987.679688 1706.570312 C 1063.628906 1725.210938 1082.371094 1760.691406 1154.628906 1761.621094 C 1154.628906 1761.621094 1219.210938 1762.261719 1233.679688 1711.359375 C 1242.550781 1680.140625 1208.140625 1642.230469 1180.371094 1625.308594 C 1180.371094 1625.308594 1252.148438 1517.46875 1269.601562 1412.890625 C 1289.808594 1291.820312 1221.441406 1171.058594 1091.78125 1132.699219 C 997.210938 1104.730469 470.671875 1189.210938 470.671875 1189.210938"/></g><g><path fill="#f9c255" d="M 525.523438 1316.648438 C 525.523438 1316.648438 468.609375 1354.738281 504.183594 1448.070312 C 539.757812 1541.390625 604.070312 1631.308594 648.992188 1710.820312 C 648.992188 1710.820312 589.371094 1784.050781 623.011719 1824.03125 C 645.652344 1850.808594 733.101562 1856.351562 801.058594 1802.21875 C 801.058594 1802.21875 838.34375 1769.550781 828.789062 1720.148438 C 828.789062 1720.148438 776.414062 1466.230469 762.691406 1419.980469 C 748.964844 1373.730469 718.820312 1261.621094 649.078125 1264.550781 C 579.332031 1267.480469 525.523438 1316.648438 525.523438 1316.648438"/></g><g><path fill="#f9c255" d="M 945.914062 1351.910156 C 928.65625 1445.519531 944.027344 1651.011719 940.566406 1665.929688 C 934.023438 1694.128906 889.375 1764.980469 926.054688 1811.601562 C 958.792969 1853.199219 1051.308594 1843.410156 1097.480469 1818.929688 C 1164.621094 1783.328125 1104.039062 1691.339844 1110.261719 1680.269531 C 1139.589844 1628.109375 1219.738281 1473.351562 1218.53125 1367.320312 C 1217.03125 1236.859375 1153.558594 1196.71875 1100.949219 1203.789062 C 1041.890625 1211.71875 963.710938 1232.109375 945.914062 1351.910156"/></g><g><path fill="#b2764d" d="M 492.296875 1782.691406 C 492.109375 1782.769531 491.914062 1782.828125 491.707031 1782.859375 C 490.28125 1783.101562 488.933594 1782.128906 488.699219 1780.710938 C 483.445312 1748.828125 503.894531 1714.929688 504.765625 1713.5 C 505.527344 1712.269531 507.125 1711.878906 508.359375 1712.628906 C 509.589844 1713.390625 509.976562 1715 509.226562 1716.230469 C 509.023438 1716.558594 488.925781 1749.921875 493.859375 1779.851562 C 494.058594 1781.070312 493.382812 1782.230469 492.296875 1782.691406"/></g><g><path fill="#b2764d" d="M 540.597656 1783.089844 C 540.375 1783.191406 540.132812 1783.25 539.878906 1783.28125 C 538.445312 1783.449219 537.148438 1782.410156 536.984375 1780.980469 C 533.234375 1748.210938 552.640625 1725.78125 553.472656 1724.828125 C 554.421875 1723.75 556.074219 1723.648438 557.15625 1724.601562 C 558.238281 1725.550781 558.347656 1727.210938 557.394531 1728.289062 C 557.207031 1728.5 538.699219 1750 542.179688 1780.390625 C 542.316406 1781.570312 541.640625 1782.648438 540.597656 1783.089844"/></g><g><path fill="#b2764d" d="M 1191.78125 1755.769531 C 1190.460938 1756.328125 1188.941406 1755.71875 1188.371094 1754.398438 C 1181.960938 1739.558594 1172.28125 1727.078125 1156.03125 1712.691406 C 1154.949219 1711.738281 1154.851562 1710.078125 1155.800781 1709 C 1156.769531 1707.921875 1158.410156 1707.820312 1159.5 1708.78125 C 1176.359375 1723.710938 1186.429688 1736.738281 1193.160156 1752.328125 C 1193.738281 1753.648438 1193.128906 1755.191406 1191.800781 1755.761719 C 1191.789062 1755.769531 1191.789062 1755.769531 1191.78125 1755.769531"/></g><g><path fill="#b2764d" d="M 1229.640625 1726.308594 C 1228.308594 1726.871094 1226.769531 1726.238281 1226.210938 1724.910156 C 1216.191406 1701.160156 1188.179688 1688.550781 1187.898438 1688.421875 C 1186.578125 1687.839844 1185.980469 1686.289062 1186.558594 1684.96875 C 1187.148438 1683.648438 1188.691406 1683.058594 1190 1683.640625 C 1191.230469 1684.179688 1220.191406 1697.179688 1231.03125 1722.878906 C 1231.589844 1724.210938 1230.96875 1725.75 1229.640625 1726.308594"/></g><g><path fill="#b2764d" d="M 647.324219 1837.859375 C 647.066406 1837.96875 646.789062 1838.039062 646.496094 1838.058594 C 645.058594 1838.171875 643.808594 1837.078125 643.699219 1835.640625 C 641.195312 1801.300781 661.117188 1778.269531 661.964844 1777.300781 C 662.929688 1776.21875 664.570312 1776.121094 665.652344 1777.070312 C 666.738281 1778.019531 666.84375 1779.671875 665.890625 1780.761719 C 665.699219 1780.980469 646.570312 1803.179688 648.914062 1835.261719 C 648.996094 1836.410156 648.328125 1837.441406 647.324219 1837.859375"/></g><g clip-path="url(#a)"><path fill="#b2764d" d="M 692.191406 1846.050781 C 692.121094 1846.078125 692.046875 1846.109375 691.972656 1846.128906 C 690.601562 1846.570312 689.128906 1845.820312 688.683594 1844.441406 C 680.246094 1818.191406 705.695312 1789.101562 706.78125 1787.878906 C 707.746094 1786.800781 709.394531 1786.699219 710.472656 1787.660156 C 711.550781 1788.609375 711.652344 1790.269531 710.695312 1791.339844 C 710.445312 1791.621094 686.140625 1819.429688 693.664062 1842.839844 C 694.082031 1844.140625 693.425781 1845.53125 692.191406 1846.050781"/></g><g><path fill="#b2764d" d="M 1009.640625 1842.429688 C 1009.128906 1842.648438 1008.550781 1842.699219 1007.96875 1842.550781 C 1006.570312 1842.179688 1005.738281 1840.75 1006.101562 1839.359375 C 1012.238281 1815.941406 1000 1786.441406 999.875 1786.140625 C 999.316406 1784.808594 999.9375 1783.28125 1001.269531 1782.71875 C 1002.601562 1782.160156 1004.128906 1782.78125 1004.691406 1784.109375 C 1005.230469 1785.378906 1017.761719 1815.53125 1011.160156 1840.679688 C 1010.941406 1841.5 1010.371094 1842.128906 1009.640625 1842.429688"/></g><g><path fill="#b2764d" d="M 1077.078125 1828.789062 C 1076.558594 1829.011719 1075.960938 1829.058594 1075.371094 1828.898438 C 1073.980469 1828.519531 1073.160156 1827.078125 1073.539062 1825.691406 C 1080.179688 1801.671875 1063.511719 1776.171875 1063.339844 1775.910156 C 1062.550781 1774.710938 1062.871094 1773.078125 1064.070312 1772.289062 C 1065.28125 1771.480469 1066.898438 1771.820312 1067.699219 1773.019531 C 1068.441406 1774.140625 1085.851562 1800.789062 1078.578125 1827.078125 C 1078.359375 1827.878906 1077.789062 1828.488281 1077.078125 1828.789062"/></g><g><path fill="#874d39" d="M 1491.621094 1326.261719 C 1490.730469 1326.628906 1489.710938 1326.21875 1489.339844 1325.328125 C 1471.398438 1282.800781 1434.070312 1194.289062 1543.761719 1128.738281 C 1544.558594 1128.261719 1545.648438 1128.511719 1546.148438 1129.339844 C 1546.648438 1130.171875 1546.378906 1131.238281 1545.550781 1131.730469 C 1438.460938 1195.71875 1473.648438 1279.148438 1492.550781 1323.980469 C 1492.921875 1324.859375 1492.511719 1325.878906 1491.621094 1326.261719"/></g><g><path fill="#874d39" d="M 1499.839844 1326.691406 C 1499.71875 1326.738281 1499.589844 1326.78125 1499.449219 1326.800781 C 1498.511719 1326.960938 1497.601562 1326.328125 1497.449219 1325.378906 C 1490.558594 1284.21875 1495.890625 1248.5 1513.730469 1216.171875 C 1525.011719 1195.730469 1540.660156 1182.769531 1555.800781 1170.238281 C 1567.628906 1160.449219 1578.808594 1151.199219 1587.820312 1138.730469 C 1588.390625 1137.960938 1589.480469 1137.78125 1590.261719 1138.339844 C 1591.039062 1138.898438 1591.210938 1139.988281 1590.648438 1140.769531 C 1581.371094 1153.601562 1569.5 1163.421875 1558.019531 1172.929688 C 1543.128906 1185.25 1527.738281 1198 1516.78125 1217.851562 C 1499.328125 1249.46875 1494.140625 1284.449219 1500.878906 1324.800781 C 1501.019531 1325.609375 1500.570312 1326.390625 1499.839844 1326.691406"/></g><g><path fill="#874d39" d="M 1506.550781 1327.390625 C 1506.261719 1327.511719 1505.941406 1327.558594 1505.609375 1327.511719 C 1504.660156 1327.371094 1504.011719 1326.480469 1504.140625 1325.53125 C 1504.601562 1322.46875 1504.761719 1318.398438 1504.949219 1313.679688 C 1505.78125 1293.238281 1507.171875 1259.050781 1534.550781 1226.109375 C 1552.679688 1204.300781 1569.21875 1192.429688 1583.808594 1181.960938 C 1596.660156 1172.730469 1607.761719 1164.769531 1617.199219 1152.058594 C 1617.78125 1151.289062 1618.871094 1151.121094 1619.640625 1151.699219 C 1620.421875 1152.269531 1620.578125 1153.371094 1620 1154.140625 C 1610.230469 1167.28125 1598.929688 1175.390625 1585.839844 1184.789062 C 1571.421875 1195.140625 1555.078125 1206.871094 1537.230469 1228.339844 C 1510.601562 1260.371094 1509.25 1293.828125 1508.441406 1313.820312 C 1508.238281 1318.640625 1508.070312 1322.800781 1507.589844 1326.039062 C 1507.5 1326.660156 1507.078125 1327.160156 1506.550781 1327.390625"/></g><g clip-path="url(#b)"><path fill="#874d39" d="M 1512.847656 1327.25 C 1512.488281 1327.398438 1512.089844 1327.441406 1511.699219 1327.320312 C 1510.765625 1327.058594 1510.226562 1326.101562 1510.488281 1325.179688 L 1510.746094 1324.238281 C 1514.351562 1311.359375 1518.425781 1296.761719 1561.617188 1253.429688 C 1562.335938 1252.890625 1610.960938 1219.078125 1628.886719 1180.507812 C 1629.296875 1179.640625 1630.328125 1179.257812 1631.210938 1179.660156 C 1632.082031 1180.070312 1632.460938 1181.097656 1632.050781 1181.980469 C 1613.714844 1221.417969 1564.328125 1255.75 1563.828125 1256.097656 C 1521.542969 1298.570312 1517.585938 1312.710938 1514.109375 1325.179688 L 1513.839844 1326.121094 C 1513.699219 1326.648438 1513.320312 1327.050781 1512.847656 1327.25"/></g><g><path fill="#874d39" d="M 1497.03125 1327.878906 C 1496.191406 1328.230469 1495.199219 1327.871094 1494.789062 1327.039062 C 1480.519531 1297.941406 1484.300781 1227.210938 1501.53125 1200.898438 C 1514.578125 1180.980469 1546.660156 1150.730469 1562.078125 1136.199219 C 1566.539062 1131.988281 1570.390625 1128.359375 1570.890625 1127.691406 C 1571.371094 1126.851562 1572.421875 1126.609375 1573.25 1127.089844 C 1574.078125 1127.578125 1574.339844 1128.679688 1573.859375 1129.511719 C 1573.410156 1130.28125 1571.679688 1131.941406 1564.480469 1138.730469 C 1549.148438 1153.179688 1517.269531 1183.238281 1504.449219 1202.808594 C 1488.050781 1227.839844 1484.328125 1297.789062 1497.921875 1325.5 C 1498.339844 1326.371094 1497.980469 1327.410156 1497.121094 1327.839844 C 1497.089844 1327.851562 1497.058594 1327.871094 1497.03125 1327.878906"/></g><g><path fill="#dd5c24" d="M 514.789062 72.746094 C 109.1875 188.769531 87.472656 409.148438 44.191406 523.175781 C -66.117188 759.492188 41.828125 1084.148438 238.0625 1250.019531 C 303.992188 1305.757812 426.546875 1350.019531 478.21875 1356.519531 C 536.171875 1363.808594 593.253906 1377.839844 651.503906 1382.160156 C 822.351562 1394.820312 1175.3125 1284.660156 1348.355469 1135.347656 C 1550.734375 960.707031 1589.109375 664.535156 1436.195312 348.320312 C 1331.386719 131.578125 1145.5 -0.152344 897.421875 0.00390625 C 770.78125 0.0820312 635.28125 38.277344 514.789062 72.746094"/></g><g><path fill="#dd5c24" d="M 638.351562 562.453125 C 569.722656 480.496094 380.003906 253.9375 301.679688 160.398438 C 205.628906 216.5625 150.417969 280.820312 115.3125 342.421875 C 196.382812 390.007812 475.773438 554.570312 588.796875 628.832031 C 601.695312 604.835938 618.351562 582.414062 638.351562 562.453125"/></g><g><path fill="#d15428" d="M 734.070312 498.3125 C 749.511719 491.796875 765.164062 486.746094 780.863281 482.9375 L 647.082031 36.683594 C 601.820312 47.949219 557.359375 60.5625 514.792969 72.742188 C 482.5 81.976562 452.667969 91.878906 425.039062 102.328125 C 494.011719 214.5 621.179688 420.789062 686.546875 523.503906 C 701.332031 513.921875 717.175781 505.441406 734.070312 498.3125"/></g><g><path fill="#f98f46" d="M 686.542969 523.511719 C 621.175781 420.804688 494.007812 214.507812 425.035156 102.339844 C 377.71875 120.238281 336.949219 139.773438 301.679688 160.390625 C 380.003906 253.933594 569.726562 480.492188 638.351562 562.445312 C 652.746094 548.078125 668.84375 534.980469 686.542969 523.511719"/></g><g><path fill="#f98f46" d="M 588.796875 628.828125 C 475.777344 554.558594 196.386719 390 115.3125 342.421875 C 87.265625 391.628906 72.023438 439.121094 59.046875 479.429688 C 187.609375 526.511719 457 633.328125 568.394531 677.691406 C 573.503906 660.898438 580.351562 644.53125 588.796875 628.828125"/></g><g><path fill="#f98f46" d="M 557.921875 735.53125 C 463.753906 732.820312 126.449219 722.980469 0.246094 717.421875 C -1.207031 770.289062 4.667969 824.148438 16.878906 877.0625 L 561.914062 796.390625 C 557.933594 776.199219 556.671875 755.78125 557.921875 735.53125"/></g><g><path fill="#dd5c24" d="M 1052.5 563.410156 L 1423.210938 322.824219 C 1387.007812 254.527344 1342.289062 195.433594 1289.71875 147.148438 L 1011.890625 525.757812 C 1026.796875 536.703125 1040.410156 549.316406 1052.5 563.410156"/></g><g><path fill="#dd5c24" d="M 884.121094 476.410156 L 894.027344 0.0585938 C 813.15625 0.53125 728.796875 16.34375 647.082031 36.6875 L 780.863281 482.933594 C 815.609375 474.496094 850.585938 472.503906 884.121094 476.410156"/></g><g><path fill="#f98f46" d="M 1011.894531 525.753906 L 1289.722656 147.140625 C 1261.164062 120.914062 1230.285156 97.886719 1197.191406 78.296875 L 962.09375 497.28125 C 979.785156 504.972656 996.515625 514.464844 1011.894531 525.753906"/></g><g><path fill="#d15428" d="M 1090.910156 625.378906 C 1094.261719 633.300781 1097.109375 641.320312 1099.539062 649.398438 L 1499.25 512.75 C 1484.039062 458.929688 1463.089844 403.941406 1436.199219 348.320312 C 1432.011719 339.671875 1427.648438 331.199219 1423.210938 322.828125 L 1052.5 563.398438 C 1068.121094 581.621094 1081.191406 602.320312 1090.910156 625.378906"/></g><g><path fill="#d15428" d="M 962.089844 497.292969 L 1197.195312 78.296875 C 1111.5 27.574219 1011 -0.0742188 897.421875 0.00390625 C 896.292969 0.00390625 895.15625 0.0625 894.023438 0.0625 L 884.121094 476.417969 C 911.382812 479.589844 937.660156 486.679688 962.089844 497.292969"/></g><g><path fill="#dd5c24" d="M 568.394531 677.691406 C 457 633.328125 187.609375 526.511719 59.046875 479.429688 C 53.964844 495.21875 49.222656 509.921875 44.191406 523.171875 C 16.015625 583.53125 2.113281 649.660156 0.246094 717.421875 C 126.449219 722.980469 463.753906 732.820312 557.921875 735.53125 C 559.128906 715.96875 562.652344 696.570312 568.394531 677.691406"/></g><g><path fill="#f98f46" d="M 1024.609375 909.375 C 1088.941406 988.164062 1214.640625 1136.21875 1265.441406 1195.929688 C 1295.980469 1176.671875 1323.949219 1156.398438 1348.351562 1135.351562 C 1371.351562 1115.5 1392.210938 1094.058594 1410.941406 1071.21875 L 1070.800781 851.792969 C 1058.179688 872.546875 1042.730469 891.964844 1024.609375 909.375"/></g><g><path fill="#dd5c24" d="M 1070.800781 851.792969 L 1410.941406 1071.21875 C 1452.691406 1020.289062 1483.699219 962.300781 1503.550781 898.898438 C 1407.101562 872.199219 1195.238281 814 1098.28125 790.851562 C 1091.789062 812.011719 1082.539062 832.480469 1070.800781 851.792969"/></g><g><path fill="#f98f46" d="M 1099.539062 649.398438 C 1104.441406 665.730469 1107.460938 682.308594 1108.75 698.929688 C 1191.089844 685.140625 1407.441406 655.941406 1524.859375 640.320312 C 1520.019531 598.75 1511.511719 556.128906 1499.25 512.75 L 1099.539062 649.398438"/></g><g><path fill="#d15428" d="M 1098.28125 790.851562 C 1195.238281 814 1407.101562 872.199219 1503.550781 898.898438 C 1528.230469 820.019531 1535.621094 732.769531 1524.859375 640.320312 C 1407.441406 655.941406 1191.089844 685.140625 1108.75 698.929688 C 1111.148438 729.941406 1107.429688 761.039062 1098.28125 790.851562"/></g><g><path fill="#d15428" d="M 932.8125 969.597656 C 922.351562 974.007812 911.789062 977.710938 901.191406 980.875 L 1029.570312 1308.761719 C 1113.480469 1278.210938 1196.078125 1239.691406 1265.441406 1195.929688 C 1214.640625 1136.21875 1088.941406 988.164062 1024.609375 909.375 C 998.957031 934.035156 968.089844 954.71875 932.8125 969.597656"/></g><g><path fill="#f98f46" d="M 748.210938 985.28125 L 719.402344 1381.601562 C 757.21875 1378.828125 799.570312 1372.378906 844.355469 1362.710938 L 811.796875 993.433594 C 790.0625 993.109375 768.730469 990.324219 748.210938 985.28125"/></g><g><path fill="#dd5c24" d="M 612.488281 902.265625 L 212.933594 1227.441406 C 221.136719 1235.25 229.507812 1242.800781 238.058594 1250.019531 C 296.921875 1299.78125 400.878906 1340.371094 459.273438 1353.128906 L 670.28125 952.46875 C 648.539062 938.839844 629.007812 922.011719 612.488281 902.265625"/></g><g><path fill="#f98f46" d="M 588.046875 867.0625 L 120.265625 1116.371094 C 147.523438 1157.300781 178.667969 1194.820312 212.933594 1227.441406 L 612.488281 902.265625 C 603.386719 891.382812 595.167969 879.660156 588.046875 867.0625"/></g><g><path fill="#dd5c24" d="M 811.796875 993.433594 L 844.355469 1362.710938 C 903.535156 1349.941406 966.914062 1331.570312 1029.570312 1308.761719 L 901.191406 980.875 C 871.394531 989.765625 841.242188 993.867188 811.796875 993.433594"/></g><g><path fill="#d15428" d="M 670.28125 952.46875 L 459.273438 1353.128906 C 466.285156 1354.671875 472.679688 1355.820312 478.21875 1356.519531 C 536.171875 1363.808594 593.253906 1377.839844 651.503906 1382.160156 C 671.769531 1383.660156 694.621094 1383.421875 719.402344 1381.601562 L 748.210938 985.28125 C 720.335938 978.433594 694.019531 967.347656 670.28125 952.46875"/></g><g><path fill="#d15428" d="M 575.964844 842.539062 C 569.589844 827.421875 564.980469 811.96875 561.914062 796.390625 L 16.878906 877.0625 C 36.476562 961.984375 72.363281 1044.441406 120.265625 1116.371094 L 588.046875 867.0625 C 583.601562 859.203125 579.546875 851.035156 575.964844 842.539062"/></g><g><path fill="#f98f46" d="M 897.421875 -0.00390625 C 881.707031 -0.00390625 865.851562 0.609375 849.910156 1.707031 L 844.824219 411.550781 L 915.632812 426.898438 L 980.960938 5.242188 C 953.953125 1.800781 926.125 -0.0234375 897.421875 -0.00390625"/></g><g><path fill="#f4b23d" d="M 425.019531 553.328125 C 425.019531 553.328125 408.488281 455.738281 345.609375 459.898438 C 312.347656 462.089844 262.066406 508.578125 282.832031 557.820312 C 295.472656 587.789062 311.496094 602.46875 365.902344 600.960938 C 431.980469 599.128906 425.019531 553.328125 425.019531 553.328125"/></g><g><path fill="#d6953e" d="M 334.910156 523.328125 C 344.207031 524.710938 355.78125 530.308594 363.53125 535.449219 C 367.847656 538.300781 371.910156 541.761719 375.21875 545.761719 C 379.128906 550.5 380.914062 557 385.65625 560.839844 C 387.546875 562.371094 390.105469 560.269531 390.824219 558.570312 C 395.21875 548.25 378.484375 533.640625 371.175781 528.609375 C 359.242188 520.378906 348.371094 519.308594 334.503906 522.589844 C 333.992188 522.71875 334.683594 523.289062 334.910156 523.328125"/></g><g><path fill="#f4b23d" d="M 1054.199219 405.648438 C 1054.199219 405.648438 1010.648438 316.769531 1064.121094 283.429688 C 1092.410156 265.800781 1160.371094 274.179688 1172.261719 326.289062 C 1179.488281 358 1175.050781 379.269531 1130 409.808594 C 1075.28125 446.890625 1054.199219 405.648438 1054.199219 405.648438"/></g><g><path fill="#d6953e" d="M 1113.328125 329.019531 C 1099.390625 331.53125 1089.238281 338.101562 1081.710938 350.511719 C 1076.289062 359.449219 1070.078125 375.058594 1076.019531 384.910156 C 1077.03125 386.589844 1079.5 385.910156 1080.648438 384.878906 C 1083.988281 381.878906 1083.449219 378.601562 1083.96875 374.289062 C 1084.738281 367.730469 1086.75 361.671875 1089.828125 355.871094 C 1095.328125 345.558594 1104.269531 336.210938 1113.929688 329.710938 C 1114.308594 329.460938 1113.578125 328.96875 1113.328125 329.019531"/></g><g><path fill="#f9c255" d="M 881.039062 322.371094 C 838.589844 321.238281 795.105469 325.109375 751.921875 332.960938 C 602.960938 360.058594 448.5 423.480469 370.191406 560.679688 C 322.253906 644.679688 304.863281 753.070312 333.480469 846.636719 C 351.941406 906.992188 380.433594 1011.078125 540.144531 1086.300781 C 647.683594 1136.949219 842.753906 1123.800781 1051.480469 1026.769531 C 1288.710938 916.492188 1316.460938 687.429688 1197.839844 492.691406 C 1125.289062 373.601562 1007.789062 325.730469 881.039062 322.371094"/></g><g><path fill="inherit" d="M 638.136719 748.46875 C 641.128906 768.210938 630.691406 786.160156 614.832031 788.558594 C 598.972656 790.960938 583.691406 776.898438 580.703125 757.160156 C 577.714844 737.421875 588.148438 719.46875 604.007812 717.058594 C 619.867188 714.660156 635.148438 728.71875 638.136719 748.46875"/></g><g><path fill="inherit" d="M 1049.460938 659.289062 C 1052.441406 679.03125 1042.011719 696.980469 1026.148438 699.378906 C 1010.289062 701.78125 995.007812 687.71875 992.019531 667.980469 C 989.03125 648.238281 999.464844 630.289062 1015.328125 627.878906 C 1031.191406 625.480469 1046.46875 639.539062 1049.460938 659.289062"/></g><g><path fill="#6b4c49" d="M 952.007812 938.78125 C 942.902344 942.621094 934.484375 942.960938 928.324219 942.332031 C 893.644531 938.789062 857.765625 899.835938 848.351562 855.492188 C 847.746094 852.667969 849.546875 849.886719 852.378906 849.292969 C 855.203125 848.691406 857.976562 850.496094 858.574219 853.320312 C 866.976562 892.867188 899.402344 928.867188 929.386719 931.929688 C 950.113281 934.042969 967.597656 920.246094 979.957031 892.035156 C 981.113281 889.390625 984.195312 888.1875 986.839844 889.34375 C 989.484375 890.5 990.691406 893.582031 989.53125 896.226562 C 978.460938 921.511719 964.578125 933.480469 952.007812 938.78125"/></g><g><path fill="#6b4c49" d="M 820.53125 965.742188 C 798.445312 975.054688 774.726562 968.019531 760.738281 947.6875 C 759.101562 945.3125 759.703125 942.054688 762.078125 940.417969 C 764.453125 938.769531 767.710938 939.382812 769.347656 941.761719 C 781.058594 958.777344 800.441406 963.945312 818.734375 955.078125 C 841.578125 943.929688 858.113281 911.980469 843.546875 865.734375 C 842.679688 862.976562 844.183594 860.050781 846.960938 859.175781 C 849.714844 858.308594 852.648438 859.835938 853.515625 862.59375 C 869.953125 914.769531 850.195312 951.359375 823.320312 964.472656 C 822.394531 964.925781 821.464844 965.347656 820.53125 965.742188"/></g><g><path fill="#d89660" d="M 835.285156 634.871094 C 804.027344 600.601562 779.988281 622.089844 770.917969 647.660156 C 751.164062 703.339844 726.445312 858.386719 769.054688 878.863281 C 808.972656 898.050781 913.863281 876.753906 937.128906 831.011719 C 953.128906 799.539062 869.777344 672.671875 835.285156 634.871094"/></g><g><path fill="#f99653" d="M 835.285156 634.871094 C 804.027344 600.601562 779.988281 622.089844 770.917969 647.660156 C 755.15625 692.089844 736.269531 799.730469 750.914062 851.839844 C 789.152344 840.019531 879.289062 814.050781 938.3125 812.371094 C 930.445312 765.339844 864.894531 667.320312 835.285156 634.871094"/></g><g><path fill="#663c36" d="M 750.914062 851.839844 C 754.621094 865.03125 760.441406 874.726562 769.054688 878.863281 C 808.976562 898.050781 913.863281 876.753906 937.128906 831.011719 C 939.394531 826.550781 939.609375 820.128906 938.3125 812.371094 C 879.289062 814.050781 789.152344 840.019531 750.914062 851.839844"/></g></g></svg>