<?xml version="1.0" encoding="UTF-8" standalone="no"?><svg xmlns="http://www.w3.org/2000/svg" xmlns:xlink="http://www.w3.org/1999/xlink" contentScriptType="text/ecmascript" fill="#000000" width="586.4" zoomAndPan="magnify" contentStyleType="text/css" viewBox="0.0 0.0 586.4 721.1" height="721.1" preserveAspectRatio="xMidYMid meet" version="1"><defs><clipPath id="a"><path d="M 0 0 L 586.378906 0 L 586.378906 455 L 0 455 Z M 0 0"/></clipPath><clipPath id="b"><path d="M 0 33 L 586.378906 33 L 586.378906 455 L 0 455 Z M 0 33"/></clipPath><clipPath id="c"><path d="M 260.847656 14.734375 C 262.523438 14.257812 263.917969 13.796875 264.933594 13.339844 C 312.230469 -8 390.527344 -4.742188 431.015625 30.421875 C 489.902344 81.5625 343.679688 131.519531 344.050781 142.601562 C 344.320312 150.746094 422.136719 156.285156 415.636719 186.011719 C 411.71875 203.921875 391.433594 216.550781 377.082031 225.367188 C 295.328125 275.585938 288.621094 232.429688 198.382812 235.648438 C 161.335938 236.96875 38.949219 270.257812 11.753906 243.796875 C 9.355469 241.464844 7.6875 238.539062 6.523438 235.417969 C -9.40625 192.730469 56.363281 173.910156 53.152344 146.515625 C 50.691406 125.535156 -4.542969 129.324219 4.769531 97.8125 C 10.710938 77.691406 40.617188 67.738281 57.863281 61.957031 C 68.515625 58.390625 131.714844 42.816406 179.296875 34.929688 C 192.792969 18.664062 224.683594 4.945312 260.847656 14.734375 Z M 80.40625 316.554688 C 85.007812 303.179688 108.472656 290.742188 118.355469 287.992188 C 151.523438 278.753906 146.5625 303.96875 167.472656 311.734375 C 186.277344 318.71875 228.519531 303.515625 227.921875 338.878906 C 226.878906 400.359375 131.769531 449.867188 78.199219 449.9375 C 67.847656 449.949219 53.046875 450.277344 44.445312 443.363281 C 41.824219 441.257812 40.402344 438.398438 39.898438 435.117188 C 38.269531 424.539062 46.914062 412.308594 40.921875 402.410156 C 29.992188 384.355469 -17.148438 381.648438 6.601562 350.226562 C 20.214844 332.210938 44.097656 325.964844 65.515625 324.632812 L 66.125 324.597656 C 69.992188 321.535156 74.992188 318.722656 80.40625 316.554688 Z M 488.644531 282.351562 C 514.660156 273.492188 553.773438 248.515625 573.523438 279.203125 C 584.054688 295.566406 555.492188 316.921875 551.269531 331.414062 C 547.800781 343.320312 596.160156 347.371094 584.585938 381.703125 C 570.257812 424.195312 393.242188 482.453125 341.269531 439.511719 C 317.265625 419.675781 358.320312 400.800781 353.695312 379.894531 C 349.289062 359.972656 297.492188 358.996094 329.296875 332.144531 C 332.214844 329.679688 336.171875 326.945312 339.40625 324.976562 C 357.054688 314.21875 377.050781 307.445312 397.277344 302.609375 C 397.785156 296.1875 401.289062 289.460938 409.054688 282.59375 C 426.109375 267.511719 455.007812 267.171875 475.261719 274.992188 C 478.390625 276.203125 484.183594 278.839844 488.644531 282.351562 Z M 488.644531 282.351562"/></clipPath><clipPath id="d"><path d="M 88 89 L 486 89 L 486 721.101562 L 88 721.101562 Z M 88 89"/></clipPath></defs><g><g id="change1_1" clip-path="url(#a)"><path fill="#689f2e" d="M 260.847656 14.734375 C 262.523438 14.257812 263.917969 13.796875 264.933594 13.339844 C 312.230469 -8 390.527344 -4.742188 431.015625 30.421875 C 489.902344 81.5625 343.679688 131.519531 344.050781 142.601562 C 344.320312 150.746094 422.136719 156.285156 415.636719 186.011719 C 411.71875 203.921875 391.433594 216.550781 377.082031 225.367188 C 295.328125 275.585938 288.621094 232.429688 198.382812 235.648438 C 161.335938 236.96875 38.949219 270.257812 11.753906 243.796875 C 9.355469 241.464844 7.6875 238.539062 6.523438 235.417969 C -9.40625 192.730469 56.363281 173.910156 53.152344 146.515625 C 50.691406 125.535156 -4.542969 129.324219 4.769531 97.8125 C 10.710938 77.691406 40.617188 67.738281 57.863281 61.957031 C 68.515625 58.390625 131.714844 42.816406 179.296875 34.929688 C 192.792969 18.664062 224.683594 4.945312 260.847656 14.734375 Z M 80.40625 316.554688 C 85.007812 303.179688 108.472656 290.742188 118.355469 287.992188 C 151.523438 278.753906 146.5625 303.96875 167.472656 311.734375 C 186.277344 318.71875 228.519531 303.515625 227.921875 338.878906 C 226.878906 400.359375 131.769531 449.867188 78.199219 449.9375 C 67.847656 449.949219 53.046875 450.277344 44.445312 443.363281 C 41.824219 441.257812 40.402344 438.398438 39.898438 435.117188 C 38.269531 424.539062 46.914062 412.308594 40.921875 402.410156 C 29.992188 384.355469 -17.148438 381.648438 6.601562 350.226562 C 20.214844 332.210938 44.097656 325.964844 65.515625 324.632812 L 66.125 324.597656 C 69.992188 321.535156 74.992188 318.722656 80.40625 316.554688 Z M 488.644531 282.351562 C 514.660156 273.492188 553.773438 248.515625 573.523438 279.203125 C 584.054688 295.566406 555.492188 316.921875 551.269531 331.414062 C 547.800781 343.320312 596.160156 347.371094 584.585938 381.703125 C 570.257812 424.195312 393.242188 482.453125 341.269531 439.511719 C 317.265625 419.675781 358.320312 400.800781 353.695312 379.894531 C 349.289062 359.972656 297.492188 358.996094 329.296875 332.144531 C 332.214844 329.679688 336.171875 326.945312 339.40625 324.976562 C 357.054688 314.21875 377.050781 307.445312 397.277344 302.609375 C 397.785156 296.1875 401.289062 289.460938 409.054688 282.59375 C 426.109375 267.511719 455.007812 267.171875 475.261719 274.992188 C 478.390625 276.203125 484.183594 278.839844 488.644531 282.351562" fill-rule="evenodd"/></g><g clip-path="url(#b)"><g clip-rule="evenodd" clip-path="url(#c)"><path stroke-linecap="round" transform="matrix(.1 0 0 -.1 0 721.1)" fill="none" stroke-linejoin="round" d="M 3072.773438 2707.015625 C 3383.671875 2778.304688 3654.335938 2945.296875 4007.1875 2875.375 C 4166.757812 2843.734375 4306.523438 2722.289062 4469.6875 2717.171875 C 4700.546875 2709.984375 4928.359375 2814.554688 5160.078125 2827.796875 M 3174.804688 2964.007812 C 3170.507812 2968.109375 3229.023438 2999.164062 3233.164062 3001.351562 C 3525.039062 3156.195312 3927.226562 3300.882812 4258.554688 3292.289062 C 4526.875 3285.296875 4755.234375 3066.117188 5015.3125 3079.125 C 5278.4375 3092.289062 5474.765625 3308.34375 5707.695312 3400.84375 C 5848.359375 3456.742188 6013.359375 3422.367188 6161.484375 3445.765625 M 2996.914062 3121.351562 C 3274.84375 3462.328125 4008.4375 3908.1875 4461.640625 3829.828125 C 4650.46875 3797.210938 4833.59375 3654.007812 5030.039062 3677.679688 C 5257.070312 3705.023438 5403.59375 3896.9375 5613.164062 3953.851562 C 5776.796875 3998.265625 5963.164062 3941.78125 6136.015625 3977.953125 M 3050.273438 3511.390625 C 3043.632812 3508.773438 3071.601562 3595.21875 3074.335938 3600.53125 C 3118.984375 3686.703125 3183.398438 3760.335938 3254.492188 3825.804688 C 3415.390625 3974.085938 3598.671875 4076.976562 3820.195312 4095.257812 C 4031.015625 4112.679688 4234.921875 4048.8125 4444.882812 4098.617188 C 4654.0625 4148.226562 4843.671875 4299.359375 5057.539062 4320.492188 C 5395.703125 4353.890625 5599.0625 4175.101562 5935.585938 4367.40625 M 247.695312 2517.09375 C 864.257812 2998.539062 1241.757812 2932.835938 1938.710938 3092.523438 M 53.085938 3049.945312 C 53.710938 3048.734375 88.125 3072.757812 90.195312 3074.28125 C 237.148438 3180.492188 388.242188 3280.257812 545.898438 3370.023438 C 1083.632812 3676.234375 1153.398438 3494.4375 1610.976562 3587.210938 C 1951.601562 3656.234375 1933.203125 3744.398438 2276.5625 3714.554688 M 8.085938 3304.984375 C 35.273438 3768.265625 932.578125 3633.304688 1143.125 3731.976562 C 1340.664062 3824.59375 1407.734375 4104.164062 1618.359375 4170.335938 C 1754.84375 4213.226562 1930.664062 4121.820312 2072.773438 4117.40625 M -165.585938 4735.960938 C -101.757812 4835.609375 93.828125 4911.976562 224.179688 4963.96875 C 687.5 5148.734375 1143.398438 5216.3125 1634.414062 5110.0625 C 1817.148438 5070.53125 1993.007812 4987.09375 2184.0625 5008.1875 C 2492.421875 5042.210938 2762.148438 5251.976562 3076.171875 5266.898438 C 3401.171875 5282.40625 3603.984375 5109.710938 3950.234375 5217.328125 M 133.125 5205.257812 C 106.132812 5205.257812 180.976562 5230.414062 203.828125 5244.789062 C 274.570312 5289.242188 347.890625 5327.132812 425.3125 5358.734375 C 590.9375 5426.390625 766.484375 5470.140625 941.367188 5506.195312 C 1090.234375 5536.898438 1242.070312 5562.71875 1393.789062 5573.890625 C 1634.375 5591.625 1864.609375 5528.304688 2103.632812 5528.304688 C 2762.851562 5528.304688 3441.132812 5611.507812 4088.320312 5724.046875 M 183.867188 5748.304688 C 169.101562 5739.671875 213.515625 5765.453125 229.179688 5772.328125 C 685.234375 5972.640625 1080.351562 5843.890625 1553.984375 5859.4375 C 1802.773438 5867.601562 2005.46875 5995.0625 2244.375 6039.085938 C 2522.96875 6090.375 2811.523438 6015.882812 3082.890625 6063.1875 C 3485.351562 6133.382812 3831.679688 6358.265625 4251.835938 6413.734375 M 0.234375 6040.21875 C -1.289062 6039.710938 -18.203125 6011.390625 3.515625 6033.890625 C 99.140625 6133.070312 264.570312 6201.078125 387.695312 6254.90625 C 731.367188 6405.0625 1004.375 6299.046875 1352.890625 6275.023438 C 1626.171875 6256.15625 1795.976562 6564.164062 2050.664062 6619.515625 C 2215 6655.257812 2359.765625 6552.210938 2521.210938 6557.875 C 2703.984375 6564.242188 2852.578125 6694.671875 3030.625 6722.09375 C 3430.78125 6783.65625 3756.25 6713.34375 4168.75 6839.398438" stroke="#265728" stroke-width="67.5" stroke-miterlimit="10"/></g></g><g clip-path="url(#d)"><path stroke-linecap="round" transform="matrix(.1 0 0 -.1 0 721.1)" fill="none" stroke-linejoin="round" d="M 2746.484375 1634.164062 C 2775.859375 1642.679688 2728.90625 1693.304688 2727.1875 1723.8125 C 2721.71875 1820.765625 2745.585938 1919.828125 2771.796875 2012.328125 C 2844.609375 2268.851562 2970.234375 2514.164062 3129.84375 2727.40625 C 3573.554688 3320.21875 4237.5 3443.1875 4811.5625 3838.460938 M 925.546875 3525.0625 C 1063.671875 3208.929688 2066.757812 2791.859375 2364.921875 2461.15625 C 2564.570312 2239.671875 2664.882812 1921.234375 2749.53125 1640.609375 M 2360.9375 4229.75 C 2272.5 4811.273438 2496.171875 5709.945312 2622.617188 6268.382812 M 1500.625 5899.007812 C 1586.40625 5779.90625 1823.125 5467.914062 1905.15625 5337.25 C 2650.78125 4149.945312 2770.46875 1396.976562 2887.265625 44.203125" stroke="#662627" stroke-width="88.41" stroke-miterlimit="10"/></g></g></svg>