<?xml version="1.0" encoding="UTF-8" standalone="no"?><svg xmlns="http://www.w3.org/2000/svg" xmlns:xlink="http://www.w3.org/1999/xlink" contentScriptType="text/ecmascript" fill="#000000" width="1730.2" zoomAndPan="magnify" contentStyleType="text/css" viewBox="1136.3 534.0 1730.2 2931.6" height="2931.6" preserveAspectRatio="xMidYMid meet" version="1"><g><g id="change1_1"><path fill="#ae6b30" d="M 2036.335938 2542.671875 C 2036.335938 2542.671875 2216.046875 2872.917969 2204.660156 2897.058594 C 2193.261719 2921.1875 2110.429688 3105.558594 2117.714844 3125.859375 C 2124.996094 3146.15625 2194.988281 3171.867188 2211.308594 3166.386719 C 2227.660156 3160.898438 2346.027344 2888.746094 2345.480469 2864.875 C 2344.960938 2841.015625 2170.519531 2442.425781 2170.519531 2442.425781 L 2036.335938 2542.671875"/></g><g id="change1_2"><path fill="#ae6b30" d="M 1671.335938 2542.378906 C 1671.335938 2542.378906 1584.039062 2830.882812 1584.949219 2946.84375 C 1585.851562 3062.804688 1593.101562 3233.207031 1591.472656 3236.648438 C 1589.851562 3240.097656 1514.960938 3246.90625 1504.53125 3238.605469 C 1494.113281 3230.316406 1464.902344 2993.894531 1457.621094 2821.800781 C 1450.320312 2649.691406 1486.320312 2430.574219 1486.320312 2430.574219 L 1671.335938 2542.378906"/></g><g id="change2_1"><path fill="#d18133" d="M 1948.890625 1615.113281 C 1948.890625 1615.113281 1929.503906 1890.136719 1817.253906 1979.664062 C 1705.003906 2069.179688 1488.035156 2053.597656 1399.46875 2059.011719 C 1310.898438 2064.425781 1268.667969 2082.433594 1268.667969 2082.433594 C 1268.667969 2082.433594 1223.039062 2025.476562 1223.738281 1981.113281 C 1224.445312 1936.753906 1236.925781 1885.308594 1204.886719 1901.375 C 1172.835938 1917.453125 1136.296875 1960.90625 1139.765625 2039.289062 C 1143.25 2117.667969 1194.847656 2136.980469 1194.847656 2136.980469 C 1194.847656 2136.980469 1144.21875 2312.085938 1192.9375 2430.378906 C 1241.65625 2548.671875 1396.964844 2628.742188 1690.09375 2618.710938 C 1983.230469 2608.691406 2130.625 2564.433594 2239.128906 2384.597656 C 2347.648438 2204.765625 2311.992188 1919.046875 2294.523438 1820.507812 C 2277.054688 1721.980469 2267.339844 1646.410156 2267.339844 1646.410156 L 1948.890625 1615.113281"/></g><g id="change3_1"><path fill="#70543f" d="M 2096.191406 943.195312 C 2096.191406 943.195312 2107.371094 815.015625 2060.269531 768.765625 C 2013.179688 722.496094 1954.019531 708.480469 1947.21875 690.726562 C 1940.429688 672.972656 1954.738281 570.308594 1913.570312 559.71875 C 1872.390625 549.128906 1898.789062 641.925781 1892.769531 658.679688 C 1886.757812 675.457031 1799.839844 678.691406 1789.300781 664.847656 C 1778.75 651.027344 1766.359375 555.359375 1729.28125 556.210938 C 1692.210938 557.039062 1731.511719 654.640625 1717.609375 662.636719 C 1703.71875 670.632812 1643.492188 665.59375 1618.5 635.460938 C 1593.519531 605.308594 1606.75 567.925781 1565.429688 550.9375 C 1524.109375 533.96875 1517.480469 580.175781 1531.160156 619.511719 C 1544.839844 658.851562 1548.480469 695.871094 1677.417969 718.5625 C 1806.371094 741.226562 1927.800781 737.210938 1973.621094 783.5 C 2019.441406 829.792969 2016.730469 879.742188 2005.410156 945.234375 C 1994.101562 1010.75 2085.796875 993.3125 2085.796875 993.3125 L 2098.347656 949.550781 L 2096.191406 943.195312"/></g><g id="change3_2"><path fill="#70543f" d="M 2237.832031 916.191406 C 2237.832031 916.191406 2246.691406 787.832031 2300.394531 749.441406 C 2354.101562 711.050781 2414.726562 706.386719 2424.195312 689.914062 C 2433.667969 673.417969 2435.484375 569.78125 2477.777344 565.734375 C 2520.113281 561.660156 2479.613281 649.222656 2482.964844 666.710938 C 2486.296875 684.21875 2571.644531 700.902344 2584.21875 688.878906 C 2596.789062 676.855469 2623.894531 584.273438 2660.386719 590.855469 C 2696.878906 597.457031 2642.902344 687.785156 2655.386719 697.824219 C 2667.855469 707.863281 2728.164062 712.253906 2757.503906 686.347656 C 2786.867188 660.464844 2779.613281 621.464844 2823.066406 611.105469 C 2866.519531 600.769531 2865.886719 647.429688 2846.269531 684.175781 C 2826.652344 720.921875 2817.308594 756.929688 2686.398438 759.292969 C 2555.488281 761.675781 2436.15625 738.851562 2383.71875 777.453125 C 2331.257812 816.078125 2326.195312 865.839844 2327.183594 932.304688 C 2328.199219 998.753906 2240.300781 967.300781 2240.300781 967.300781 L 2234.707031 922.117188 L 2237.832031 916.191406"/></g><g id="change4_1"><path fill="#dba26a" d="M 1777.285156 1266.339844 C 1777.285156 1266.339844 1732.0625 1473.320312 1842.035156 1584.679688 C 1951.984375 1696.054688 2110.753906 1702.699219 2219.316406 1695.132812 C 2327.875 1687.570312 2498.261719 1584.976562 2539.152344 1469.058594 C 2580.019531 1353.125 2547.828125 1287.332031 2547.828125 1287.332031 L 2294.359375 1165.136719 L 1914.195312 1173.710938 L 1777.285156 1266.339844"/></g><g id="change2_2"><path fill="#d18133" d="M 2065.921875 1415.902344 C 2065.921875 1415.902344 2038.6875 1297.546875 1971.066406 1270.933594 C 1903.433594 1244.324219 1777.28125 1266.34375 1777.28125 1266.34375 C 1777.28125 1266.34375 1777.992188 1184.445312 1807.503906 1131.339844 C 1837.003906 1078.230469 1892.222656 1030.941406 1892.222656 1030.941406 C 1892.222656 1030.941406 1661.710938 1019.5 1684.121094 935.851562 C 1706.542969 852.203125 1918.292969 995.808594 1918.292969 995.808594 C 1918.292969 995.808594 1972.816406 917.839844 2154.570312 922.683594 C 2336.320312 927.546875 2413.84375 1017.886719 2413.84375 1017.886719 C 2413.84375 1017.886719 2616.800781 829.113281 2654.167969 897.355469 C 2691.519531 965.578125 2434.890625 1044.285156 2434.890625 1044.285156 C 2434.890625 1044.285156 2492.648438 1109.492188 2517.082031 1171.625 C 2541.496094 1233.761719 2547.835938 1287.335938 2547.835938 1287.335938 C 2547.835938 1287.335938 2445.902344 1248.699219 2354.394531 1275.078125 C 2262.886719 1301.4375 2223.179688 1412.339844 2223.179688 1412.339844 L 2065.921875 1415.902344"/></g><g id="change5_1"><path fill="#f6e8bc" d="M 2009.726562 1438.914062 C 2009.726562 1438.914062 1959.234375 1506.570312 1984.09375 1588.515625 C 2008.988281 1670.457031 2132.863281 1690.046875 2214.949219 1671.574219 C 2297.035156 1653.085938 2324.585938 1569.964844 2314.4375 1516.464844 C 2304.273438 1462.96875 2270.378906 1435.308594 2270.378906 1435.308594 L 2009.726562 1438.914062"/></g><g id="change6_1"><path fill="#645130" d="M 2282.769531 1445.5625 C 2301.769531 1418.683594 2230.816406 1373.386719 2132.957031 1382.410156 C 2035.078125 1391.449219 2005.058594 1421.117188 2009.714844 1438.921875 C 2014.386719 1456.726562 2099.261719 1498.300781 2148.894531 1494.628906 C 2198.507812 1490.9375 2282.769531 1445.5625 2282.769531 1445.5625"/></g><g id="change6_2"><path fill="#645130" d="M 2087 1535.1875 C 2087.394531 1531.628906 2092.605469 1531.234375 2092.753906 1535.066406 C 2093.996094 1566.539062 2115.019531 1594.710938 2149.097656 1593.347656 C 2164.53125 1592.742188 2178.980469 1586.199219 2188.992188 1574.308594 C 2199.367188 1562.011719 2199.261719 1549.289062 2203.636719 1534.914062 C 2203.925781 1533.976562 2205.136719 1533.992188 2205.484375 1534.871094 C 2210.800781 1548.773438 2201.730469 1567.402344 2192.945312 1578.082031 C 2182.132812 1591.210938 2166.199219 1598.710938 2149.25 1599.332031 C 2114.898438 1600.558594 2083.136719 1570.476562 2087 1535.1875"/></g><g id="change6_3"><path fill="#645130" d="M 1893.210938 1340.0625 C 1893.523438 1353.722656 1904.84375 1364.53125 1918.5 1364.234375 C 1932.144531 1363.921875 1942.949219 1352.601562 1942.65625 1338.945312 C 1942.339844 1325.300781 1931.023438 1314.476562 1917.382812 1314.789062 C 1903.722656 1315.101562 1892.898438 1326.421875 1893.210938 1340.0625"/></g><g id="change6_4"><path fill="#645130" d="M 2341.914062 1345.28125 C 2342.210938 1358.925781 2353.539062 1369.746094 2367.1875 1369.433594 C 2380.835938 1369.140625 2391.65625 1357.808594 2391.34375 1344.160156 C 2391.046875 1330.511719 2379.734375 1319.691406 2366.070312 1320.003906 C 2352.421875 1320.316406 2341.601562 1331.632812 2341.914062 1345.28125"/></g><g id="change2_3"><path fill="#d18133" d="M 1983.90625 2562.613281 C 1983.90625 2562.613281 1924.035156 2857.328125 1941.558594 3029.199219 C 1959.082031 3201.070312 1989.253906 3335.128906 1974.132812 3342.300781 C 1959.011719 3349.460938 1873.828125 3353.089844 1866.796875 3344.71875 C 1859.792969 3336.347656 1797.257812 3134.789062 1794.121094 2919.957031 C 1790.984375 2705.132812 1800.066406 2578.710938 1800.066406 2578.710938 L 1983.90625 2562.613281"/></g><g id="change2_4"><path fill="#d18133" d="M 1431.578125 2575.078125 C 1431.578125 2575.078125 1344.28125 2863.589844 1345.191406 2979.550781 C 1346.101562 3095.511719 1353.351562 3265.898438 1351.71875 3269.351562 C 1350.101562 3272.800781 1275.199219 3279.601562 1264.78125 3271.308594 C 1254.359375 3263.019531 1225.148438 3026.601562 1217.859375 2854.5 C 1210.558594 2682.398438 1246.558594 2463.28125 1246.558594 2463.28125 L 1431.578125 2575.078125"/></g><g id="change3_3"><path fill="#70543f" d="M 2211.308594 3166.390625 C 2211.308594 3166.390625 2195.71875 3257.5625 2184.242188 3259.101562 C 2172.765625 3260.640625 2083.621094 3221.710938 2075.453125 3200.152344 C 2067.300781 3178.589844 2117.714844 3125.859375 2117.714844 3125.859375 L 2211.308594 3166.390625"/></g><g id="change3_4"><path fill="#70543f" d="M 1974.128906 3342.300781 C 1974.128906 3342.300781 2006.464844 3430.679688 1995.101562 3437.339844 C 1983.742188 3443.992188 1879.332031 3465.53125 1860.855469 3440.359375 C 1842.378906 3415.203125 1866.800781 3344.722656 1866.800781 3344.722656 L 1974.128906 3342.300781"/></g><g id="change3_5"><path fill="#70543f" d="M 1591.476562 3236.648438 C 1591.476562 3236.648438 1632.753906 3308.636719 1615.054688 3317.988281 C 1597.363281 3327.339844 1515.65625 3334.296875 1505.097656 3320.46875 C 1494.550781 3306.636719 1504.539062 3238.609375 1504.539062 3238.609375 L 1591.476562 3236.648438"/></g><g id="change3_6"><path fill="#70543f" d="M 1351.71875 3269.351562 C 1351.71875 3269.351562 1388.070312 3349.550781 1372.859375 3355.859375 C 1357.648438 3362.171875 1264.550781 3374.5 1256.390625 3352.941406 C 1248.230469 3331.378906 1264.78125 3271.308594 1264.78125 3271.308594 L 1351.71875 3269.351562"/></g><g id="change7_1"><path fill="#a6441e" d="M 1756.09375 2057.988281 C 1768.078125 2046.113281 1781.132812 2034.652344 1795.269531 2025.40625 C 1808.359375 2016.828125 1825.394531 2032.996094 1817.328125 2046.503906 C 1808.675781 2060.992188 1797.789062 2074.511719 1786.425781 2086.992188 C 1768.199219 2106.984375 1736.871094 2077.027344 1756.09375 2057.988281"/></g><g id="change7_2"><path fill="#a6441e" d="M 1742.378906 2115.433594 C 1746.28125 2112.9375 1749.90625 2111.714844 1754.585938 2111.226562 C 1755.707031 2111.121094 1756.3125 2111.0625 1756.625 2111.0625 C 1756.929688 2110.992188 1757.300781 2110.910156 1757.777344 2110.796875 C 1759.539062 2110.386719 1761.261719 2109.851562 1763.007812 2109.410156 C 1764.933594 2108.757812 1766.914062 2108.394531 1768.949219 2108.3125 C 1767.867188 2108.128906 1767.949219 2107.917969 1769.183594 2107.660156 C 1778.898438 2103.632812 1790.617188 2101.195312 1795.59375 2113.300781 C 1799.878906 2123.738281 1789.664062 2133.324219 1782.765625 2139.628906 C 1778.957031 2143.109375 1774.449219 2145.859375 1769.859375 2148.164062 C 1762.148438 2152.046875 1756.847656 2153.292969 1748.015625 2152.089844 C 1740.269531 2151.03125 1734.328125 2142.726562 1733.222656 2135.691406 C 1731.976562 2127.722656 1735.519531 2119.8125 1742.378906 2115.433594"/></g><g id="change7_3"><path fill="#a6441e" d="M 1678.601562 2065.898438 C 1684.335938 2056.296875 1693.015625 2054.03125 1703.335938 2053.550781 C 1704.503906 2053.492188 1705.710938 2053.371094 1706.882812 2053.410156 C 1707.191406 2053.433594 1710.941406 2053.886719 1711.539062 2053.96875 C 1713.976562 2054.195312 1716.316406 2054.328125 1718.65625 2055.257812 C 1720.222656 2055.867188 1721.5 2056.667969 1723.027344 2057.289062 C 1732.128906 2061.027344 1731.652344 2073.363281 1726.417969 2079.632812 C 1728.605469 2077.007812 1724.84375 2081.925781 1724.640625 2082.164062 C 1723.253906 2083.585938 1721.476562 2084.648438 1719.839844 2085.738281 C 1720.113281 2085.402344 1720.402344 2085.066406 1720.6875 2084.746094 C 1719.457031 2085.738281 1718.238281 2086.726562 1717.007812 2087.71875 C 1715.816406 2088.507812 1714.371094 2088.996094 1713.078125 2089.570312 C 1709.34375 2091.277344 1705.710938 2093.320312 1701.640625 2093.964844 C 1696.109375 2094.835938 1690.785156 2094.335938 1685.898438 2091.335938 C 1677.492188 2086.179688 1673.25 2074.90625 1678.601562 2065.898438"/></g><g id="change7_4"><path fill="#a6441e" d="M 1578.359375 2094.550781 C 1585.117188 2073.199219 1620.949219 2070.667969 1639.140625 2074.917969 C 1651.652344 2077.851562 1656.550781 2091.925781 1651.203125 2102.777344 C 1640.039062 2125.398438 1593.9375 2141.589844 1580.066406 2114.921875 C 1575.222656 2108.78125 1574.773438 2101.203125 1578.359375 2094.550781"/></g><g id="change7_5"><path fill="#a6441e" d="M 1480.605469 2092.710938 C 1493.125 2083.332031 1508.167969 2081.765625 1523.230469 2086.179688 C 1535.597656 2089.804688 1550.027344 2099.324219 1543.246094 2114.09375 C 1538.882812 2123.589844 1527.160156 2128.96875 1517.6875 2131.699219 C 1504.304688 2135.570312 1493.503906 2134.160156 1481.394531 2127.851562 C 1466.824219 2120.25 1468.953125 2101.445312 1480.605469 2092.710938"/></g><g id="change7_6"><path fill="#a6441e" d="M 1401.441406 2107.308594 C 1401.5 2104.699219 1401.992188 2102.464844 1402.863281 2100.335938 C 1404.988281 2093.839844 1410.195312 2088.195312 1416.917969 2086.398438 C 1425.097656 2084.210938 1432.386719 2084.871094 1439.816406 2088.960938 C 1447.855469 2093.367188 1453.296875 2100.644531 1453.636719 2110.011719 C 1453.941406 2118.613281 1447.832031 2126.769531 1439.671875 2129.226562 C 1435.558594 2130.484375 1430.742188 2130.800781 1426.59375 2129.589844 C 1425.027344 2129.132812 1423.558594 2128.710938 1421.914062 2128.5 C 1422.136719 2128.523438 1422.359375 2128.558594 1422.585938 2128.570312 C 1421.101562 2128.320312 1419.644531 2127.957031 1418.152344 2127.359375 C 1417.660156 2127.160156 1417.164062 2126.945312 1416.671875 2126.746094 C 1413.652344 2125.628906 1410.738281 2124.398438 1408.386719 2121.941406 C 1407.714844 2121.117188 1407.046875 2120.304688 1406.386719 2119.472656 C 1403.425781 2116.59375 1401.347656 2111.140625 1401.441406 2107.308594"/></g><g id="change7_7"><path fill="#a6441e" d="M 1338.75 2103.585938 C 1342.957031 2101.605469 1346.417969 2100.332031 1351.128906 2100.113281 C 1352.875 2100.042969 1354.695312 2100.007812 1356.433594 2100.089844 C 1359.195312 2100.214844 1361.339844 2100.777344 1363.925781 2101.3125 C 1364.976562 2101.511719 1366.023438 2101.707031 1367.074219 2101.894531 C 1370.710938 2103.410156 1371.316406 2103.621094 1368.894531 2102.523438 C 1379.09375 2102.234375 1384.921875 2117.816406 1374.859375 2122.726562 C 1374.453125 2122.875 1374.078125 2123.074219 1373.71875 2123.273438 C 1367.679688 2130.394531 1358.273438 2135.863281 1348.402344 2136.28125 C 1340.964844 2136.597656 1332.933594 2131.070312 1331.078125 2123.703125 C 1329.332031 2116.710938 1331.570312 2106.953125 1338.75 2103.585938"/></g><g id="change7_8"><path fill="#a6441e" d="M 1653.203125 2141.796875 C 1665.683594 2137.804688 1680.039062 2135.425781 1692.828125 2138.925781 C 1701.851562 2141.398438 1703.957031 2151.613281 1698.453125 2158.441406 C 1687.234375 2172.386719 1637.839844 2198.421875 1629.03125 2169.8125 C 1624.386719 2154.703125 1641.695312 2145.480469 1653.203125 2141.796875"/></g><g id="change7_9"><path fill="#a6441e" d="M 1519.851562 2169.324219 C 1523.535156 2151.597656 1544.667969 2147.960938 1559.472656 2149.734375 C 1576.277344 2151.757812 1588.1875 2157.6875 1600.230469 2169.402344 C 1605.761719 2174.789062 1603.21875 2183.617188 1596.21875 2186.09375 C 1581.675781 2191.21875 1567.746094 2195.113281 1552.109375 2195.683594 C 1537.351562 2196.214844 1516.011719 2187.796875 1519.851562 2169.324219"/></g><g id="change7_10"><path fill="#a6441e" d="M 1441.550781 2159.796875 C 1449.410156 2157.117188 1456.726562 2156.585938 1464.984375 2157.894531 C 1468.726562 2158.484375 1472.335938 2159.492188 1475.738281 2161.289062 C 1478.871094 2162.929688 1481.632812 2166.074219 1484.96875 2167.351562 C 1492.285156 2170.167969 1492.5 2179.042969 1485.308594 2182.1875 C 1482.390625 2183.464844 1480.285156 2186.304688 1477.660156 2188.023438 C 1474.132812 2190.34375 1469.824219 2191.710938 1465.765625 2192.546875 C 1457.609375 2194.210938 1450.25 2194.027344 1442.265625 2191.6875 C 1426.453125 2187.085938 1425.945312 2165.109375 1441.550781 2159.796875"/></g><g id="change7_11"><path fill="#a6441e" d="M 1634.773438 2209.679688 C 1635.125 2209.503906 1635.492188 2209.316406 1635.832031 2209.140625 C 1641.21875 2203.375 1649.886719 2200.5625 1657.46875 2201.402344 C 1666.191406 2202.371094 1675.761719 2203.929688 1681.546875 2210.617188 C 1687.386719 2217.386719 1687.609375 2225.3125 1682.035156 2232.378906 C 1676.570312 2239.308594 1667.054688 2241.308594 1658.398438 2242.667969 C 1650.859375 2243.859375 1642.070312 2241.429688 1636.441406 2235.921875 L 1635.359375 2235.425781 C 1625.511719 2230.929688 1625.148438 2214.613281 1634.773438 2209.679688"/></g><g id="change7_12"><path fill="#a6441e" d="M 1502 2244.40625 C 1502.773438 2237.53125 1507.460938 2231.886719 1514.085938 2229.742188 C 1519.886719 2227.847656 1525.433594 2226.707031 1531.582031 2228.242188 C 1537.390625 2229.664062 1544.300781 2234.277344 1547.226562 2239.730469 C 1550.675781 2246.167969 1550.359375 2254.164062 1545.113281 2259.617188 C 1540.914062 2263.976562 1533.367188 2267.382812 1527.21875 2267.144531 C 1522.933594 2266.992188 1518.65625 2266.359375 1514.871094 2264.238281 C 1513.414062 2263.421875 1512.042969 2262.410156 1510.660156 2261.476562 C 1504.753906 2257.515625 1501.183594 2251.761719 1502 2244.40625"/></g><g id="change7_13"><path fill="#a6441e" d="M 1357.191406 2182.292969 C 1358.300781 2180.054688 1361.210938 2177.589844 1363.6875 2177.050781 C 1365.734375 2176.617188 1367.785156 2176.179688 1369.824219 2175.730469 C 1374.066406 2174.824219 1378.691406 2175.316406 1381.882812 2178.621094 C 1384.132812 2180.980469 1385.601562 2183.917969 1385.679688 2187.242188 C 1385.746094 2190.398438 1384.445312 2193.746094 1382.261719 2196.03125 C 1379.050781 2199.390625 1374.792969 2200.207031 1370.371094 2199.457031 C 1368.300781 2199.109375 1366.238281 2198.773438 1364.179688 2198.429688 C 1361.863281 2198.035156 1359.734375 2196.324219 1358.324219 2194.585938 C 1356.832031 2192.738281 1355.738281 2190.355469 1355.792969 2187.925781 C 1355.835938 2185.953125 1356.296875 2184.050781 1357.191406 2182.292969"/></g><g id="change7_14"><path fill="#a6441e" d="M 1961.800781 1689.445312 C 1964.585938 1683.019531 1973.597656 1685.410156 1975.644531 1690.9375 C 1981.445312 1706.671875 1992.277344 1730.355469 1981.898438 1746.234375 C 1975.246094 1756.394531 1959.425781 1758.585938 1952.6875 1746.886719 C 1942.242188 1728.777344 1954.378906 1706.503906 1961.800781 1689.445312"/></g><g id="change7_15"><path fill="#a6441e" d="M 1934.9375 1805.675781 C 1936.277344 1802.972656 1937.492188 1799.929688 1939.046875 1797.363281 C 1941.21875 1793.8125 1944.316406 1790.957031 1946.023438 1787.121094 C 1951.511719 1774.742188 1973.339844 1779.914062 1972.234375 1793.59375 C 1971.90625 1797.785156 1973.203125 1801.675781 1973.492188 1805.867188 C 1973.695312 1808.882812 1973.246094 1812.078125 1973.136719 1815.09375 C 1972.753906 1825.335938 1971.960938 1834.234375 1964.222656 1841.878906 C 1953.464844 1852.5 1934.773438 1848.582031 1930.269531 1833.730469 C 1927.035156 1823.09375 1930.296875 1815.039062 1934.9375 1805.675781"/></g><g id="change7_16"><path fill="#a6441e" d="M 1883.679688 1928.109375 C 1886.652344 1916.289062 1899.429688 1900.753906 1913.378906 1903.023438 C 1914.035156 1902.789062 1914.691406 1902.570312 1915.375 1902.339844 C 1918.347656 1901.269531 1922.070312 1902.828125 1923.667969 1905.480469 C 1924.324219 1906.589844 1924.980469 1907.644531 1925.546875 1908.742188 C 1926.089844 1909.5 1926.539062 1910.3125 1926.898438 1911.160156 C 1931.730469 1918.179688 1931.058594 1928.5625 1927.183594 1935.761719 C 1923.0625 1943.410156 1916.480469 1949.269531 1907.929688 1951.292969 C 1893.890625 1954.628906 1879.90625 1943.011719 1883.679688 1928.109375"/></g><g id="change7_17"><path fill="#a6441e" d="M 1843.84375 1979.027344 C 1850.132812 1973.566406 1858.152344 1967.082031 1867.070312 1970.085938 L 1867.042969 1970.085938 C 1871.332031 1970.996094 1874.863281 1973.890625 1876.136719 1978.34375 C 1877.84375 1982.394531 1877.707031 1986.585938 1876.335938 1990.925781 C 1875.3125 1994.105469 1874.113281 1997.210938 1872.59375 2000.207031 C 1869.789062 2005.644531 1863.375 2009.523438 1857.253906 2009.460938 C 1857.054688 2009.460938 1856.839844 2009.449219 1856.640625 2009.449219 C 1849.296875 2009.386719 1841.652344 2004.632812 1839.742188 1997.175781 C 1839.703125 1997 1839.65625 1996.824219 1839.605469 1996.640625 C 1838.109375 1990.8125 1838.980469 1983.257812 1843.84375 1979.027344"/></g><g id="change7_18"><path fill="#a6441e" d="M 1950.816406 1901.773438 C 1951.652344 1895.6875 1952.722656 1889.179688 1954.878906 1883.441406 C 1959.109375 1872.171875 1965.921875 1863.308594 1972.230469 1853.296875 C 1978.011719 1844.0625 1996.714844 1845.824219 1995.296875 1858.984375 C 1993.988281 1871.097656 1994.253906 1883.070312 1990.511719 1894.894531 C 1988.832031 1900.171875 1986.039062 1905.488281 1983.316406 1910.316406 C 1981.582031 1913.398438 1979.980469 1916.308594 1977.191406 1918.582031 C 1976.304688 1919.296875 1971.265625 1922.710938 1972.46875 1921.507812 C 1965.035156 1929.003906 1953.792969 1923.488281 1952.722656 1913.835938 C 1952.511719 1912.101562 1950.210938 1906.214844 1950.816406 1901.773438"/></g><g id="change7_19"><path fill="#a6441e" d="M 1890.488281 2022.019531 C 1896.632812 2009.4375 1906.480469 1995.730469 1920.371094 1991.359375 C 1928.195312 1988.90625 1938.066406 1993.730469 1940.050781 2001.960938 C 1943.53125 2016.371094 1937.363281 2031.644531 1929.578125 2043.710938 C 1923.234375 2053.519531 1906.851562 2068.746094 1893.933594 2061.566406 C 1881.074219 2054.421875 1885.371094 2032.484375 1890.488281 2022.019531"/></g><g id="change7_20"><path fill="#a6441e" d="M 1829.355469 2102.007812 C 1829.535156 2097.960938 1829.980469 2094.609375 1832.1875 2091.121094 C 1832.695312 2090.316406 1833.273438 2089.550781 1833.816406 2088.773438 C 1834.875 2087.238281 1836.042969 2085.28125 1837.234375 2084.03125 C 1839.773438 2081.953125 1840.785156 2081.140625 1840.277344 2081.578125 C 1841.140625 2080.859375 1842.035156 2080.183594 1842.992188 2079.617188 C 1845.46875 2078.039062 1849.289062 2077.367188 1852.121094 2078.203125 C 1855.257812 2079.148438 1857.359375 2080.929688 1859.351562 2083.511719 C 1859.871094 2084.183594 1860.308594 2084.902344 1860.683594 2085.644531 C 1861.699219 2087.003906 1862.558594 2088.429688 1863.148438 2090.257812 C 1863.410156 2091.109375 1863.621094 2091.980469 1863.871094 2092.851562 C 1865.0625 2097.21875 1865.875 2101.453125 1864.507812 2105.957031 C 1861.898438 2114.519531 1854.269531 2120.183594 1845.210938 2119.179688 C 1836.941406 2118.261719 1828.96875 2110.898438 1829.355469 2102.007812"/></g><g id="change7_21"><path fill="#a6441e" d="M 2009.890625 1716.699219 C 2010.273438 1714.511719 2010.765625 1712.339844 2011.1875 1710.167969 C 2012.964844 1701.339844 2026.828125 1701.015625 2029.003906 1709.773438 C 2029.523438 1711.917969 2030.144531 1714.0625 2030.597656 1716.21875 C 2031.371094 1719.929688 2030.539062 1722.988281 2029.933594 1726.628906 C 2029.257812 1730.675781 2024.671875 1734.132812 2020.636719 1734.035156 C 2016.5625 1733.949219 2011.949219 1731.355469 2011.019531 1727.050781 C 2010.242188 1723.441406 2009.257812 1720.480469 2009.890625 1716.699219"/></g><g id="change7_22"><path fill="#a6441e" d="M 1242.894531 2108.886719 C 1251.882812 2104.847656 1261.109375 2104.246094 1270.691406 2106.058594 C 1275.820312 2107.011719 1280.136719 2111.605469 1281.589844 2116.457031 C 1282.84375 2120.65625 1282.125 2124.332031 1280.308594 2127.773438 C 1283.4375 2126.75 1286.832031 2126.515625 1290.101562 2126.332031 C 1296.441406 2125.992188 1303.5 2127.832031 1307.164062 2128.902344 C 1317.539062 2131.960938 1322.191406 2145.148438 1314.1875 2153.300781 C 1312.851562 2155.023438 1312.527344 2155.1875 1313.199219 2153.789062 C 1311.617188 2156.605469 1309.464844 2158.847656 1306.734375 2160.558594 C 1304.953125 2161.804688 1303.105469 2162.78125 1301.152344 2163.757812 C 1298.230469 2165.199219 1295.347656 2166.699219 1292.195312 2167.5625 C 1288.53125 2168.617188 1284.855469 2168.710938 1281.160156 2167.804688 C 1275.679688 2165.757812 1274.460938 2165.246094 1277.496094 2166.269531 C 1266.828125 2162.246094 1261.5625 2152.082031 1265.28125 2142.390625 C 1262.585938 2143.9375 1259.734375 2145.253906 1256.804688 2146.277344 C 1246.722656 2149.8125 1230.613281 2146.859375 1227.160156 2135.285156 C 1223.738281 2123.898438 1233.265625 2113.199219 1242.894531 2108.886719"/></g><g id="change7_23"><path fill="#a6441e" d="M 1202.523438 2218.273438 C 1204.609375 2212.871094 1208.78125 2207.125 1209.699219 2201.390625 C 1211.253906 2191.695312 1225.34375 2192.613281 1228.039062 2200.980469 C 1230.65625 2209.101562 1235.015625 2215.246094 1235.59375 2224.15625 C 1236.261719 2234.339844 1234.628906 2243.46875 1227.816406 2251.269531 C 1216.777344 2263.914062 1199.238281 2253.453125 1197.410156 2239.464844 C 1196.421875 2231.886719 1199.859375 2225.1875 1202.523438 2218.273438"/></g><g id="change7_24"><path fill="#a6441e" d="M 1235.371094 2282.804688 C 1235.941406 2280.519531 1237.636719 2278.019531 1239.730469 2276.855469 C 1244.136719 2274.402344 1250.613281 2275.246094 1253.199219 2280.074219 C 1253.726562 2281.046875 1254.277344 2282.023438 1254.777344 2283.007812 C 1255.695312 2284.808594 1256.164062 2286.363281 1256.195312 2288.34375 C 1256.203125 2289.445312 1255.929688 2290.777344 1255.761719 2291.941406 C 1255.398438 2294.527344 1253.113281 2296.675781 1250.867188 2297.667969 C 1248.242188 2298.855469 1245.703125 2298.632812 1243.128906 2297.40625 C 1241.042969 2296.421875 1239.203125 2295.148438 1237.984375 2293.066406 C 1237.464844 2292.175781 1237.011719 2291.242188 1236.523438 2290.332031 C 1235.273438 2288.015625 1234.714844 2285.421875 1235.371094 2282.804688"/></g><g id="change7_25"><path fill="#a6441e" d="M 2194.398438 948.503906 C 2207.394531 949.253906 2222.375 949.683594 2233.871094 956.371094 C 2240.574219 960.265625 2242.148438 971.800781 2234.320312 975.695312 C 2222.730469 981.40625 2209.734375 981.628906 2197 981.628906 C 2185.84375 981.648438 2168.726562 979.738281 2168.335938 964.816406 C 2167.980469 951.070312 2184.042969 947.90625 2194.398438 948.503906"/></g><g id="change7_26"><path fill="#a6441e" d="M 2090.378906 958.507812 C 2102.046875 957.179688 2117.355469 957.761719 2124.632812 968.175781 C 2126.988281 971.535156 2126.539062 977.621094 2123.347656 980.402344 C 2118.472656 984.640625 2114.40625 985.238281 2108.226562 986.582031 C 2102.328125 987.871094 2096.914062 990.054688 2091.21875 991.941406 C 2080.222656 995.5625 2061.035156 998.882812 2060.417969 981.671875 C 2059.875 966.8125 2078.355469 959.886719 2090.378906 958.507812"/></g><g id="change7_27"><path fill="#a6441e" d="M 1997.988281 1005.464844 C 1999.355469 1003.625 2001.066406 1002.351562 2003.019531 1001.191406 C 2004.550781 1000.289062 2006.082031 999.367188 2007.71875 998.648438 C 2008.164062 998.316406 2008.585938 997.964844 2009.027344 997.632812 C 2009.859375 997.265625 2010.667969 996.898438 2011.480469 996.527344 C 2012.863281 996.066406 2014.226562 995.976562 2015.609375 996.25 C 2017.78125 996.492188 2020.050781 997.339844 2021.617188 998.960938 C 2022.851562 1000.25 2023.792969 1001.78125 2024.382812 1003.476562 C 2025.136719 1005.6875 2024.898438 1009.503906 2023.515625 1011.472656 C 2023.203125 1011.917969 2022.871094 1012.378906 2022.554688 1012.820312 C 2021.929688 1014.496094 2021.0625 1016.0625 2020.214844 1017.648438 C 2019.441406 1019.105469 2018.613281 1020.617188 2017.453125 1021.8125 C 2015.039062 1024.355469 2011.167969 1026.179688 2007.648438 1026.035156 C 2004.550781 1025.90625 2001.195312 1024.984375 1998.964844 1022.660156 C 1996.644531 1020.246094 1995.5 1017.484375 1995.207031 1014.128906 C 1994.929688 1010.957031 1996.164062 1007.953125 1997.988281 1005.464844"/></g><g id="change7_28"><path fill="#a6441e" d="M 2151.78125 1008.359375 C 2154.308594 1008.507812 2156.761719 1008.230469 2159.199219 1007.414062 C 2163.585938 1005.460938 2164.308594 1005.109375 2161.449219 1006.390625 C 2162.859375 1005.832031 2164.234375 1005.164062 2165.59375 1004.457031 C 2165.628906 1004.457031 2165.683594 1004.457031 2165.722656 1004.457031 C 2163.066406 1005.960938 2168.902344 1004.195312 2166.503906 1004.363281 C 2167.804688 1004.214844 2169.085938 1004.105469 2170.386719 1004.105469 C 2176.578125 1004.066406 2181.652344 999.476562 2183.363281 993.75 C 2185.164062 987.726562 2181.6875 981.558594 2176.726562 978.414062 C 2163.789062 970.238281 2141.261719 973.492188 2137.394531 990.347656 C 2135.164062 1000.109375 2142.339844 1007.804688 2151.78125 1008.359375"/></g><g id="change7_29"><path fill="#a6441e" d="M 2320.292969 976.878906 C 2338.457031 966.570312 2375.734375 988.417969 2375.324219 1009.019531 C 2375.136719 1017.207031 2367.898438 1023.441406 2359.691406 1021.488281 C 2349.734375 1019.144531 2344.003906 1009.671875 2336.875 1003.046875 C 2330.996094 997.613281 2321.933594 992.269531 2318.359375 984.957031 C 2317.019531 982.183594 2317.316406 978.554688 2320.292969 976.878906"/></g><g id="change7_30"><path fill="#a6441e" d="M 2257.816406 1000.160156 C 2261.625 999.882812 2264.554688 999.054688 2268.472656 999.570312 C 2272.304688 1000.085938 2275.507812 1001.210938 2279.078125 1002.757812 C 2281.804688 1003.933594 2284.769531 1005.078125 2287.308594 1006.640625 C 2290.878906 1008.851562 2292.628906 1011.6875 2294.195312 1015.089844 C 2296.734375 1018.460938 2298.429688 1022.675781 2296.144531 1026.746094 C 2293.640625 1031.164062 2286.976562 1033.703125 2282.355469 1034.421875 C 2277.183594 1035.25 2270.148438 1033.558594 2265.085938 1031.957031 C 2258.347656 1029.800781 2254.703125 1025.824219 2249.585938 1021.386719 C 2241.097656 1013.988281 2247.761719 1000.933594 2257.816406 1000.160156"/></g><g id="change7_31"><path fill="#a6441e" d="M 2388.761719 1043.703125 C 2392.867188 1038.304688 2399.558594 1037.066406 2405.648438 1039.941406 C 2414.027344 1043.902344 2421.023438 1047.59375 2427.042969 1054.9375 C 2433.476562 1062.769531 2437.257812 1075.820312 2431.078125 1084.785156 C 2428.460938 1088.582031 2424.496094 1090.710938 2419.824219 1089.671875 C 2404.300781 1086.164062 2400.867188 1069.605469 2390.175781 1060.953125 C 2385.140625 1056.882812 2385.089844 1048.539062 2388.761719 1043.703125"/></g><g id="change7_32"><path fill="#a6441e" d="M 2334.789062 1084.074219 C 2336.394531 1084.796875 2337.984375 1085.589844 2339.574219 1086.386719 C 2340.242188 1086.710938 2340.875 1087.089844 2341.523438 1087.46875 C 2341.542969 1087.46875 2341.558594 1087.46875 2341.578125 1087.488281 C 2342.734375 1088.460938 2343.960938 1089.363281 2345.046875 1090.449219 C 2345.136719 1090.539062 2345.226562 1090.648438 2345.316406 1090.738281 C 2345.640625 1091.242188 2346.238281 1092.21875 2346.292969 1092.308594 C 2350.753906 1099.839844 2360.523438 1101.519531 2367.835938 1097.457031 C 2374.914062 1093.519531 2377.714844 1082.609375 2372.980469 1075.894531 C 2364.980469 1064.554688 2351.402344 1056.480469 2337.261719 1060.996094 C 2332.460938 1062.53125 2329.046875 1066.683594 2328.503906 1071.667969 C 2327.980469 1076.21875 2330.257812 1082.050781 2334.789062 1084.074219"/></g><g id="change7_33"><path fill="#a6441e" d="M 1926.984375 1036.808594 C 1926.785156 1036.824219 1926.585938 1036.878906 1926.382812 1036.898438 C 1926.367188 1036.859375 1926.546875 1036.84375 1926.984375 1036.808594"/></g><g id="change7_34"><path fill="#a6441e" d="M 1918.183594 1039.613281 C 1920.921875 1038.300781 1923.417969 1037.222656 1926.390625 1036.894531 C 1926.425781 1037.097656 1935.542969 1037.261719 1931.09375 1037.296875 C 1932.1875 1037.277344 1933.320312 1037.277344 1934.394531 1037.167969 C 1934.59375 1037.023438 1936.839844 1036.421875 1936.855469 1036.421875 C 1937.839844 1036.148438 1940.757812 1035.128906 1940.867188 1035.308594 C 1941.523438 1034.855469 1942.179688 1034.398438 1942.875 1034.035156 C 1944.585938 1033.101562 1947.105469 1031.625 1947.816406 1030.679688 C 1949.910156 1027.90625 1954.160156 1030.242188 1954.324219 1033.214844 C 1954.453125 1035.746094 1955.363281 1039.558594 1954.6875 1042.675781 C 1953.976562 1045.921875 1952.082031 1050.425781 1950.347656 1053.179688 C 1945.242188 1061.367188 1932.078125 1070.375 1922.324219 1066.636719 C 1916.707031 1064.464844 1912.351562 1060.910156 1911.4375 1054.527344 C 1910.691406 1049.1875 1912.859375 1042.183594 1918.183594 1039.613281"/></g><g id="change7_35"><path fill="#a6441e" d="M 2067.871094 1029.300781 C 2075.582031 1021.972656 2087.269531 1018.035156 2097.511719 1015.453125 C 2103.921875 1013.839844 2110.867188 1016.113281 2114.402344 1021.882812 C 2117.609375 1027.085938 2117.445312 1035.695312 2112.496094 1039.910156 C 2104.96875 1046.320312 2094.78125 1055.023438 2084.835938 1056.984375 C 2077.707031 1058.394531 2069.539062 1056.582031 2065.707031 1049.691406 C 2062.171875 1043.390625 2062.335938 1034.542969 2067.871094 1029.300781"/></g><g id="change7_36"><path fill="#a6441e" d="M 2209.460938 1045.5625 C 2214.027344 1041.816406 2218.921875 1038.433594 2224.6875 1036.742188 C 2229.523438 1035.320312 2235.21875 1035.285156 2240.257812 1035.085938 C 2245.625 1034.867188 2250.789062 1038.742188 2252.320312 1043.851562 C 2253.972656 1049.402344 2251.390625 1054.550781 2246.988281 1057.878906 C 2238.640625 1064.171875 2230.417969 1068.648438 2219.628906 1068.648438 C 2214.207031 1068.648438 2209.113281 1065.574219 2206.96875 1060.535156 C 2205.003906 1056.003906 2205.242188 1049 2209.460938 1045.5625"/></g><g id="change7_37"><path fill="#a6441e" d="M 2122.511719 1064.835938 C 2128.621094 1062.855469 2137.429688 1063.792969 2143.71875 1065.195312 C 2151.394531 1066.925781 2157.125 1071.773438 2156.1875 1080.082031 C 2155.46875 1086.351562 2148.640625 1089.828125 2143.503906 1091.972656 C 2138.457031 1094.082031 2133.015625 1096.585938 2127.503906 1096.316406 C 2119.429688 1095.9375 2112.691406 1090.980469 2111.394531 1082.746094 C 2110.148438 1074.820312 2114.835938 1067.359375 2122.511719 1064.835938"/></g><g id="change7_38"><path fill="#a6441e" d="M 2167.714844 1101.777344 C 2168.734375 1097.746094 2171.835938 1094.550781 2175.800781 1093.320312 C 2181.292969 1091.605469 2185.96875 1092.390625 2190.839844 1095.335938 C 2193.425781 1096.890625 2195.925781 1098.601562 2198.460938 1100.226562 C 2202.097656 1102.5625 2204.667969 1107.058594 2203.347656 1111.484375 C 2202.117188 1115.625 2198.351562 1119.191406 2193.800781 1119.101562 C 2185.878906 1118.960938 2176.566406 1120.03125 2171.015625 1113.234375 C 2168.269531 1109.84375 2166.574219 1106.273438 2167.714844 1101.777344"/></g><g id="change7_39"><path fill="#a6441e" d="M 1872.519531 2875.546875 C 1899.25 2855.207031 1941.605469 2869.167969 1940.59375 2906.097656 C 1940.191406 2921.105469 1930.863281 2936.375 1915.640625 2940.097656 C 1899.320312 2944.078125 1885.480469 2929.726562 1892.042969 2914.117188 C 1895.710938 2905.40625 1911.351562 2909.117188 1910.398438 2918.644531 C 1910.265625 2919.886719 1916.617188 2914.496094 1917.402344 2912.914062 C 1918.84375 2910.015625 1919.34375 2906.695312 1919.164062 2903.484375 C 1918.761719 2896.265625 1914.304688 2890.636719 1907.992188 2887.386719 C 1892.160156 2879.214844 1875.164062 2887.785156 1868.230469 2903.105469 C 1860.976562 2919.136719 1870.519531 2941.804688 1880.367188 2954.917969 C 1885.0625 2961.167969 1891.886719 2968.734375 1900.429688 2968.316406 C 1908.300781 2967.9375 1912.507812 2960.695312 1917.378906 2955.375 C 1918.378906 2954.285156 1920.488281 2953.804688 1921.773438 2954.707031 C 1935.316406 2964.136719 1923.871094 2981.4375 1912.089844 2986.457031 C 1895.042969 2993.714844 1877.59375 2984.167969 1866.371094 2971.167969 C 1842.5 2943.507812 1841.894531 2898.855469 1872.519531 2875.546875"/></g><g id="change7_40"><path fill="#a6441e" d="M 1288.308594 2859.148438 C 1300.480469 2852.011719 1315.21875 2853.921875 1325.46875 2863.550781 C 1337.789062 2875.140625 1341.871094 2895.398438 1341.710938 2911.71875 C 1341.589844 2923.691406 1334.109375 2937.851562 1320.308594 2937.328125 C 1306.339844 2936.800781 1299.128906 2921.210938 1307.820312 2910.699219 C 1312.019531 2905.640625 1321.550781 2908.269531 1323.050781 2914.378906 C 1323.109375 2912.558594 1323.171875 2910.761719 1323.160156 2910.25 C 1323.089844 2906.898438 1322.808594 2903.550781 1322.441406 2900.21875 C 1321.511719 2891.859375 1319.910156 2882.148438 1313.628906 2875.941406 C 1294.191406 2856.738281 1283.070312 2892.878906 1282.179688 2906.109375 C 1281.210938 2920.570312 1281.859375 2937.179688 1291.128906 2949.121094 C 1300.128906 2960.71875 1318.398438 2965.558594 1331.300781 2957.839844 C 1331.648438 2957.628906 1332.109375 2958.03125 1331.890625 2958.398438 C 1316.859375 2983.359375 1283.941406 2968.589844 1273.011719 2947.808594 C 1259.800781 2922.699219 1261.320312 2875 1288.308594 2859.148438"/></g><g id="change7_41"><path fill="#a6441e" d="M 1566.078125 2837.601562 C 1569 2832.960938 1575.710938 2833.671875 1577.550781 2838.839844 C 1582.679688 2853.191406 1581.808594 2871.648438 1575.210938 2885.378906 C 1571.550781 2893 1560.078125 2887.910156 1561.800781 2880.070312 C 1564.039062 2869.808594 1565.339844 2860.820312 1565.519531 2851.070312 C 1556.191406 2858.671875 1550.5 2872.710938 1550.140625 2883.460938 C 1549.949219 2888.949219 1550.691406 2894.761719 1552.238281 2900.011719 C 1553.800781 2905.300781 1566.75 2920.140625 1570.488281 2906.480469 C 1570.859375 2905.160156 1572.78125 2905.078125 1573.191406 2906.421875 C 1575.371094 2913.539062 1570.699219 2920.761719 1563.320312 2922.398438 C 1554.238281 2924.421875 1546.160156 2916.390625 1543.179688 2908.648438 C 1533.351562 2883.128906 1553.570312 2857.511719 1566.078125 2837.601562"/></g><g id="change7_42"><path fill="#a6441e" d="M 2315.867188 2811.617188 C 2340.039062 2815.835938 2340.152344 2845.628906 2329.738281 2862.296875 C 2325.132812 2869.667969 2314.300781 2865.265625 2315.808594 2856.789062 C 2317.0625 2849.785156 2323.03125 2838.265625 2318.558594 2831.835938 C 2317.191406 2826.109375 2313.738281 2826.554688 2308.214844 2833.175781 C 2308.242188 2834.417969 2308.285156 2835.65625 2308.316406 2836.886719 C 2307.96875 2840.605469 2309.191406 2845.617188 2309.59375 2849.289062 C 2310.371094 2856.476562 2310.832031 2863.796875 2311.984375 2870.9375 C 2312.585938 2874.625 2314.183594 2884.046875 2318.773438 2885.605469 C 2321.851562 2886.648438 2325.894531 2884.289062 2325.03125 2880.746094 C 2324.472656 2878.457031 2326.570312 2875.308594 2329.234375 2876.347656 C 2345.144531 2882.527344 2337.234375 2904.617188 2322.253906 2905.9375 C 2293.625 2908.457031 2293.121094 2873.335938 2292.558594 2854.054688 C 2292.101562 2837.957031 2290.660156 2807.21875 2315.867188 2811.617188"/></g><g id="change8_1"><path fill="#e79950" d="M 2208.496094 2337.867188 C 2217.445312 2319.976562 2230.011719 2303.34375 2240.84375 2286.550781 C 2245.890625 2278.742188 2260.746094 2283.011719 2257.109375 2292.972656 C 2249.898438 2312.667969 2243.921875 2333.539062 2234.601562 2352.347656 C 2226.085938 2369.558594 2199.898438 2355.078125 2208.496094 2337.867188"/></g><g id="change8_2"><path fill="#e79950" d="M 2190.203125 2268.109375 C 2191.222656 2266.09375 2192.492188 2264.117188 2193.71875 2262.21875 C 2196.367188 2258.15625 2199.472656 2253.546875 2202.980469 2250.179688 C 2206.25 2247.027344 2210.929688 2245.800781 2215.210938 2247.558594 C 2218.960938 2249.113281 2222.765625 2253.261719 2222.34375 2257.679688 C 2221.878906 2262.644531 2220.800781 2267.566406 2219.246094 2272.3125 C 2217.203125 2278.503906 2215.171875 2285.578125 2208.953125 2288.714844 C 2201.820312 2292.300781 2190.816406 2290.296875 2188.878906 2281.078125 C 2187.910156 2276.414062 2188.019531 2272.421875 2190.203125 2268.109375"/></g><g id="change8_3"><path fill="#e79950" d="M 2247.097656 2228.957031 C 2250.183594 2225.636719 2253.800781 2222.128906 2255.839844 2218.917969 C 2258.617188 2214.546875 2264.554688 2212.160156 2269.300781 2215.050781 C 2273.644531 2217.71875 2276.117188 2223.832031 2273.140625 2228.496094 C 2271.675781 2230.828125 2270.601562 2233.175781 2269.496094 2235.6875 C 2269.132812 2236.527344 2268.757812 2237.378906 2268.394531 2238.230469 C 2268.378906 2238.300781 2268.253906 2238.648438 2268.015625 2239.265625 C 2267.5 2240.589844 2266.984375 2241.902344 2266.4375 2243.214844 C 2263.703125 2250.03125 2253.886719 2250.824219 2248.734375 2247.015625 C 2242.894531 2242.714844 2242.128906 2234.320312 2247.097656 2228.957031"/></g><g id="change8_4"><path fill="#e79950" d="M 2224.902344 2189.46875 C 2226.183594 2184.035156 2227.671875 2178.808594 2229.21875 2173.484375 C 2232.058594 2163.597656 2246.839844 2165.003906 2247.28125 2175.511719 C 2247.503906 2180.988281 2247.738281 2186.378906 2247.695312 2192.03125 C 2247.640625 2199.011719 2241.863281 2204.472656 2234.84375 2203.699219 C 2227.933594 2202.925781 2223.300781 2196.292969 2224.902344 2189.46875"/></g><g id="change8_5"><path fill="#e79950" d="M 2261.691406 2102.433594 C 2263.171875 2095.8125 2270.03125 2091.386719 2276.582031 2092.21875 C 2283.9375 2093.148438 2287.8125 2098.5 2288.851562 2105.488281 C 2291.207031 2121.269531 2296.375 2139.695312 2289.402344 2154.699219 C 2282.359375 2169.859375 2261.535156 2164.421875 2256.449219 2151.148438 C 2251.082031 2137.132812 2258.535156 2116.589844 2261.691406 2102.433594"/></g><g id="change8_6"><path fill="#e79950" d="M 2223.546875 2100.738281 C 2226.078125 2092.28125 2229.167969 2084.460938 2233.167969 2076.722656 C 2236.738281 2069.800781 2246.898438 2071.546875 2249.210938 2078.453125 C 2250.496094 2082.300781 2251.714844 2085.941406 2252.640625 2089.941406 C 2253.734375 2094.566406 2254.261719 2099.5625 2254.898438 2104.269531 C 2256.214844 2113.902344 2245.722656 2121.253906 2237.234375 2120.296875 C 2228.167969 2119.285156 2220.777344 2110.039062 2223.546875 2100.738281"/></g><g id="change8_7"><path fill="#e79950" d="M 2263 2000.933594 C 2268.0625 1991.949219 2281.183594 1991.652344 2286.640625 2000.398438 C 2289.832031 2005.488281 2292.023438 2010.496094 2292.011719 2016.640625 C 2291.996094 2023.671875 2290.492188 2029.5625 2286.089844 2035.128906 C 2281.449219 2041.035156 2270.003906 2041.261719 2265.125 2035.621094 C 2260.46875 2030.238281 2258.710938 2024.429688 2258.390625 2017.398438 C 2258.09375 2011.269531 2260.0625 2006.148438 2263 2000.933594"/></g><g id="change8_8"><path fill="#e79950" d="M 2254.53125 1906.835938 C 2254.125 1905.421875 2253.984375 1903.921875 2254.152344 1902.339844 C 2254.585938 1898.527344 2256.476562 1896.203125 2259.40625 1893.890625 C 2260.007812 1893.414062 2260.738281 1893.023438 2261.464844 1892.6875 C 2262.390625 1892.183594 2263.511719 1891.789062 2264.394531 1891.453125 C 2268.484375 1889.855469 2275.125 1891.203125 2277.984375 1894.703125 C 2280.253906 1897.492188 2281.769531 1899.328125 2282.875 1902.832031 C 2283.503906 1904.804688 2283.84375 1906.9375 2283.8125 1909.023438 C 2283.730469 1916.058594 2279.835938 1922.277344 2272.886719 1924.367188 C 2268.960938 1925.542969 2264.605469 1924.492188 2261.632812 1921.660156 C 2259.378906 1919.503906 2258.410156 1916.910156 2258.257812 1914.109375 C 2256.324219 1912.09375 2254.839844 1909.542969 2254.53125 1906.835938"/></g><g id="change8_9"><path fill="#e79950" d="M 2153.726562 2424.457031 C 2160.214844 2416.230469 2166.546875 2408.191406 2172.195312 2399.328125 C 2177.535156 2390.96875 2182.226562 2381.546875 2188.757812 2374.109375 C 2195.128906 2366.871094 2205.617188 2372.699219 2206.527344 2380.992188 C 2209.074219 2404.519531 2193.757812 2431.585938 2179.8125 2449.394531 C 2165.503906 2467.675781 2139.398438 2442.589844 2153.726562 2424.457031"/></g><g id="change8_10"><path fill="#e79950" d="M 2153.703125 2331.804688 C 2159.71875 2321.753906 2166.351562 2312.121094 2172.527344 2302.203125 C 2178.003906 2293.378906 2192.574219 2296.070312 2192.75 2307.195312 C 2193.101562 2330.175781 2187.070312 2372.035156 2157.902344 2374.765625 C 2152.050781 2375.316406 2146.882812 2370.632812 2145.09375 2365.46875 C 2141.109375 2354.019531 2147.90625 2341.492188 2153.703125 2331.804688"/></g><g id="change8_11"><path fill="#e79950" d="M 2072.148438 2385.558594 C 2079.8125 2371.800781 2097.820312 2358.957031 2114.140625 2359.179688 C 2127.046875 2359.351562 2131.664062 2373.277344 2124.5 2382.679688 C 2122.078125 2385.871094 2118.378906 2388.683594 2115.460938 2391.507812 C 2112.347656 2394.515625 2109.421875 2397.773438 2106.453125 2400.949219 C 2102.28125 2405.449219 2098.8125 2409.359375 2092.757812 2411.164062 C 2085.070312 2413.464844 2076.710938 2410.289062 2072.539062 2403.460938 C 2069.246094 2398.046875 2069.050781 2391.101562 2072.148438 2385.558594"/></g><g id="change8_12"><path fill="#e79950" d="M 2082.25 2460.039062 C 2082.132812 2454.851562 2085.058594 2449.15625 2087.683594 2444.753906 C 2090.425781 2440.15625 2094.726562 2436.601562 2099.308594 2433.898438 C 2101.53125 2432.578125 2103.910156 2431.558594 2106.390625 2430.894531 C 2108.117188 2430.554688 2109.839844 2430.265625 2111.578125 2430.03125 C 2110.296875 2430.277344 2110.546875 2430.238281 2112.28125 2429.914062 C 2117.808594 2428.855469 2123.386719 2430.253906 2126.496094 2435.320312 C 2129.382812 2440.011719 2128.703125 2446.476562 2124.890625 2450.460938 C 2121.179688 2454.328125 2117.535156 2461.070312 2113.601562 2464.765625 C 2107.058594 2470.933594 2103.960938 2473.871094 2096.984375 2476.144531 C 2092.910156 2477.476562 2087.828125 2475.570312 2085.671875 2471.847656 C 2084.625 2470.03125 2083.871094 2468.191406 2083.398438 2466.164062 C 2082.941406 2462.246094 2082.757812 2461.539062 2082.890625 2464.035156 C 2082.667969 2462.703125 2082.457031 2461.382812 2082.25 2460.039062"/></g><g id="change8_13"><path fill="#e79950" d="M 2061.601562 2501.355469 C 2066.464844 2499.210938 2071.105469 2497.101562 2076.277344 2495.847656 C 2081.292969 2494.644531 2086.644531 2493.78125 2091.503906 2492.214844 C 2102.429688 2488.710938 2107.199219 2503.140625 2099.195312 2509.355469 C 2095.34375 2512.355469 2091.855469 2516.339844 2088.144531 2519.597656 C 2083.785156 2523.421875 2079.066406 2526.316406 2074.183594 2529.371094 C 2066.28125 2534.292969 2055.773438 2530.792969 2052.050781 2522.464844 C 2047.925781 2513.273438 2053.136719 2505.078125 2061.601562 2501.355469"/></g><g id="change8_14"><path fill="#e79950" d="M 1980.78125 2507.710938 C 1984.179688 2507.476562 1987.574219 2507.230469 1990.984375 2506.996094 C 1994.878906 2506.722656 1998.695312 2507.429688 2002.535156 2508.019531 C 2010.121094 2509.183594 2013.765625 2520.929688 2007.703125 2525.945312 C 2004.773438 2528.367188 2001.980469 2530.949219 1998.570312 2532.679688 C 1995.542969 2534.199219 1992.519531 2535.730469 1989.503906 2537.25 C 1980.410156 2541.835938 1968.96875 2538.660156 1965.84375 2528.257812 C 1962.792969 2518.066406 1970.503906 2508.441406 1980.78125 2507.710938"/></g><g id="change8_15"><path fill="#e79950" d="M 1989.386719 2465.878906 C 1989.507812 2465.644531 1990.53125 2463.410156 1990.558594 2463.546875 C 1990.871094 2462.625 1991.429688 2460.9375 1991.269531 2461.300781 C 1992.578125 2458.03125 1995.074219 2455.386719 1997.632812 2453.003906 C 2001.300781 2449.558594 2005.371094 2446.003906 2009.648438 2443.40625 C 2020.730469 2436.667969 2033.996094 2449.335938 2027.757812 2460.714844 C 2025.347656 2465.121094 2021.992188 2469.3125 2018.710938 2473.15625 C 2016.898438 2475.277344 2014.816406 2477.636719 2012.433594 2479.09375 C 2011.210938 2479.84375 2009.800781 2480.167969 2008.488281 2480.644531 C 2008.402344 2480.78125 2006.242188 2481.953125 2006.21875 2481.964844 C 1995.550781 2487.832031 1984.007812 2476.824219 1989.386719 2465.878906"/></g><g id="change8_16"><path fill="#e79950" d="M 1852.96875 2577.167969 C 1859.222656 2550.976562 1903.675781 2538.199219 1926.691406 2545.730469 C 1934.460938 2548.285156 1938.886719 2561.15625 1929.714844 2565.390625 C 1919.199219 2570.269531 1908.125 2573.253906 1897.824219 2578.679688 C 1887.164062 2584.269531 1878.671875 2592.429688 1866.480469 2594.09375 C 1857.441406 2595.320312 1851.101562 2584.945312 1852.96875 2577.167969"/></g><g id="change8_17"><path fill="#e79950" d="M 1881.539062 2496 C 1896.6875 2488.964844 1912.394531 2483.304688 1927.277344 2475.695312 C 1938.101562 2470.152344 1947.132812 2482.265625 1940.132812 2491.59375 C 1928.699219 2506.824219 1913.160156 2519.523438 1894.859375 2525.710938 C 1877.621094 2531.527344 1864.457031 2503.933594 1881.539062 2496"/></g><g id="change8_18"><path fill="#e79950" d="M 1870.394531 2435.902344 C 1875.898438 2433.789062 1881.332031 2431.617188 1887.128906 2430.539062 C 1889.464844 2430.105469 1891.777344 2429.566406 1894.097656 2429.058594 C 1897.292969 2428.355469 1899.847656 2428.496094 1903.050781 2428.296875 C 1910.421875 2427.816406 1912.675781 2436.523438 1908.859375 2441.464844 C 1906.960938 2443.929688 1905.585938 2445.910156 1903.242188 2448.128906 C 1901.410156 2449.867188 1899.777344 2451.847656 1897.960938 2453.585938 C 1893.523438 2457.75 1888.300781 2461.222656 1883.316406 2464.722656 C 1878.117188 2468.382812 1868.25 2467.796875 1863.976562 2462.679688 C 1862.042969 2460.355469 1860.679688 2458.664062 1859.730469 2455.742188 C 1856.878906 2447.121094 1862.535156 2438.941406 1870.394531 2435.902344"/></g><g id="change8_19"><path fill="#e79950" d="M 1956.867188 2365.308594 C 1960.796875 2359.945312 1964.808594 2356.019531 1971.386719 2354.042969 C 1977.839844 2352.117188 1983.671875 2353.171875 1989.082031 2354.238281 C 2000.335938 2356.421875 2000.25 2373.457031 1989.585938 2376.425781 C 1989.449219 2376.453125 1989.328125 2376.488281 1989.191406 2376.539062 C 1984.382812 2379.480469 1979.03125 2381.570312 1974.222656 2384.242188 C 1970.28125 2386.429688 1966.21875 2392.0625 1961.9375 2395.265625 C 1958.882812 2397.535156 1953.824219 2396.050781 1952.035156 2392.90625 C 1946.632812 2383.433594 1951.617188 2372.5 1956.867188 2365.308594"/></g><g id="change8_20"><path fill="#e79950" d="M 1756.613281 2560.832031 C 1772.699219 2559.03125 1790.402344 2558.964844 1806.472656 2560.597656 C 1814.839844 2561.445312 1822.992188 2572.375 1814.78125 2579.441406 C 1798.085938 2593.8125 1774.488281 2599.550781 1752.734375 2595.324219 C 1732.15625 2591.339844 1738.105469 2562.878906 1756.613281 2560.832031"/></g><g id="change8_21"><path fill="#e79950" d="M 1802.171875 2510.167969 C 1805.332031 2503.140625 1813.292969 2500.261719 1820.34375 2498.570312 C 1826.1875 2497.171875 1832.257812 2495.898438 1838.273438 2496.066406 C 1844.277344 2496.25 1849.792969 2499.808594 1851.566406 2505.722656 C 1853.40625 2511.882812 1850.496094 2517.457031 1845.6875 2521.164062 C 1841.148438 2524.652344 1835.875 2526.6875 1830.667969 2529.03125 C 1823.414062 2532.292969 1815.167969 2534.308594 1807.890625 2530.101562 C 1800.601562 2525.914062 1798.863281 2517.5 1802.171875 2510.167969"/></g><g id="change8_22"><path fill="#e79950" d="M 1779.734375 2472.203125 C 1780.347656 2474.789062 1782.433594 2477.234375 1784.574219 2478.425781 C 1785.496094 2478.9375 1786.421875 2479.25 1787.347656 2479.417969 C 1792.085938 2481.289062 1797.292969 2480.1875 1801.550781 2476.886719 C 1801.5625 2476.886719 1801.574219 2476.886719 1801.597656 2476.886719 C 1800.839844 2477.464844 1800.90625 2477.464844 1801.851562 2476.820312 C 1801.863281 2476.808594 1801.875 2476.808594 1801.886719 2476.796875 C 1802.832031 2476.5625 1804.195312 2476.375 1802.054688 2476.707031 C 1802.054688 2476.699219 1802.066406 2476.699219 1802.066406 2476.699219 C 1805.175781 2476.183594 1805.578125 2476.140625 1803.191406 2476.585938 C 1803.480469 2476.574219 1803.769531 2476.5625 1804.058594 2476.5625 C 1805.242188 2476.597656 1806.414062 2476.453125 1807.582031 2476.21875 C 1810.402344 2476.039062 1812.867188 2474.925781 1814.785156 2472.40625 C 1817.195312 2469.226562 1817.238281 2465.003906 1815.296875 2461.601562 C 1816.890625 2464.390625 1814.875 2460.476562 1814.21875 2459.484375 C 1812.96875 2457.578125 1811.261719 2456.21875 1809.378906 2455.011719 C 1807.539062 2453.832031 1805.375 2452.863281 1803.257812 2452.40625 C 1798.476562 2451.367188 1793.023438 2451.644531 1788.496094 2453.550781 C 1784.382812 2455.269531 1781.441406 2457.476562 1779.757812 2461.714844 C 1778.496094 2464.925781 1778.273438 2468.925781 1779.734375 2472.203125"/></g><g id="change8_23"><path fill="#e79950" d="M 1801.71875 2476.765625 C 1801.730469 2476.757812 1801.742188 2476.757812 1801.753906 2476.757812 L 1801.742188 2476.757812 C 1801.730469 2476.765625 1801.71875 2476.765625 1801.707031 2476.765625 C 1801.71875 2476.765625 1801.71875 2476.765625 1801.71875 2476.765625"/></g><g id="change8_24"><path fill="#e79950" d="M 1705.546875 2533.605469 C 1709.945312 2513.953125 1736.675781 2506.972656 1752.640625 2516.613281 C 1761.882812 2522.203125 1759.679688 2534.589844 1750.296875 2538.371094 C 1739.464844 2542.75 1730.027344 2548.230469 1718.0625 2549.289062 C 1709.644531 2550.046875 1703.859375 2541.117188 1705.546875 2533.605469"/></g><g id="change8_25"><path fill="#e79950" d="M 1626.121094 2587.859375 C 1639.695312 2573.066406 1670.144531 2569.871094 1688.476562 2576.386719 C 1693.433594 2578.148438 1696.847656 2584.914062 1692.152344 2589.121094 C 1676.839844 2602.871094 1647.679688 2611.710938 1628.378906 2602.695312 C 1622.695312 2600.027344 1622.246094 2592.085938 1626.121094 2587.859375"/></g><g id="change8_26"><path fill="#e79950" d="M 1514.921875 2584.679688 C 1515.660156 2578.878906 1520.839844 2572.71875 1527.308594 2573.238281 C 1537.261719 2574.039062 1546.941406 2577.609375 1555.609375 2582.53125 C 1561.601562 2585.929688 1561.78125 2597.488281 1553.859375 2598.789062 C 1544.351562 2600.351562 1533.839844 2601.179688 1524.460938 2598.578125 C 1518.328125 2596.890625 1514.109375 2591.050781 1514.921875 2584.679688"/></g><g id="change8_27"><path fill="#e79950" d="M 1618.65625 2525.085938 C 1628.695312 2523.535156 1639.921875 2522.191406 1649.949219 2524.238281 C 1658.875 2526.082031 1660.984375 2539.464844 1652.964844 2543.90625 C 1644.476562 2548.605469 1634.320312 2550.4375 1624.832031 2552.140625 C 1615.679688 2553.800781 1601.324219 2554.097656 1599.429688 2542.082031 C 1597.644531 2530.84375 1609.800781 2526.441406 1618.65625 2525.085938"/></g><g id="change8_28"><path fill="#e79950" d="M 1627.675781 2499.21875 C 1630.464844 2491.777344 1636.445312 2489.710938 1643.765625 2488.21875 C 1650.308594 2486.878906 1657.453125 2486.054688 1664.101562 2486.652344 C 1672.121094 2487.371094 1677.675781 2498.613281 1669.011719 2503.304688 C 1663.246094 2506.414062 1656.742188 2508.699219 1650.351562 2510.140625 C 1643.691406 2511.652344 1635.3125 2513.277344 1630.15625 2507.804688 C 1628.148438 2505.671875 1626.554688 2502.203125 1627.675781 2499.21875"/></g><g id="change8_29"><path fill="#e79950" d="M 1517.46875 2526.171875 C 1522.429688 2522.808594 1526.941406 2520.949219 1533.058594 2520.730469 C 1537.21875 2520.578125 1541.171875 2520.910156 1545.03125 2522.058594 C 1557.480469 2522.5 1561.449219 2541.960938 1548.261719 2545.019531 C 1546.070312 2545.53125 1543.988281 2547.121094 1541.769531 2547.808594 C 1540.121094 2548.320312 1538.351562 2548.710938 1536.660156 2549.058594 C 1530.910156 2550.21875 1526.238281 2549.710938 1520.769531 2547.640625 C 1511.410156 2544.078125 1508.488281 2532.230469 1517.46875 2526.171875"/></g><g id="change8_30"><path fill="#e79950" d="M 1446.160156 2573.980469 C 1446.78125 2571.890625 1447.828125 2569.988281 1449.28125 2568.339844 C 1451.609375 2565.679688 1454.800781 2564.941406 1458.109375 2564.449219 C 1455.308594 2564.671875 1455.960938 2564.511719 1460.058594 2563.980469 C 1462.488281 2563.941406 1464.769531 2564.5 1466.890625 2565.671875 C 1467.789062 2566.019531 1468.679688 2566.378906 1469.570312 2566.730469 C 1472.339844 2567.839844 1474.628906 2569.019531 1476.78125 2571.21875 C 1479.519531 2574.03125 1480.800781 2577.890625 1479.820312 2581.769531 C 1478.800781 2585.828125 1475.980469 2587.949219 1472.378906 2589.558594 C 1469.539062 2590.828125 1466.648438 2590.828125 1463.621094 2590.859375 C 1462.640625 2590.871094 1461.648438 2590.910156 1460.671875 2590.878906 C 1458.238281 2590.929688 1455.96875 2590.371094 1453.839844 2589.199219 C 1450.679688 2586.828125 1450.160156 2586.460938 1452.28125 2588.101562 C 1447.609375 2585.398438 1444.550781 2579.359375 1446.160156 2573.980469"/></g><g id="change8_31"><path fill="#e79950" d="M 2463.425781 1135.707031 C 2465.941406 1132.558594 2471.042969 1132.257812 2474.367188 1134.035156 C 2480.03125 1137.046875 2483.9375 1144.222656 2487.511719 1149.414062 C 2491.449219 1155.167969 2496.449219 1160.25 2499.878906 1166.304688 C 2501.988281 1170.085938 2502.851562 1174.851562 2501.566406 1179.074219 C 2500.988281 1184.722656 2496.941406 1188.699219 2491.257812 1189.4375 C 2487.191406 1190.722656 2482.335938 1190.597656 2478.925781 1188.222656 C 2464.882812 1178.441406 2450.773438 1151.4375 2463.425781 1135.707031"/></g><g id="change8_32"><path fill="#e79950" d="M 2502.039062 1230.859375 C 2502.894531 1218.933594 2518.96875 1215.550781 2523.171875 1227.511719 C 2525.5625 1234.273438 2527.816406 1240.714844 2529.082031 1247.789062 C 2530.550781 1256.003906 2526.859375 1264.066406 2517.839844 1265.484375 C 2509.195312 1266.867188 2502.449219 1260.53125 2501.699219 1252.125 C 2501.046875 1244.917969 2501.542969 1238.066406 2502.039062 1230.859375"/></g><g id="change8_33"><path fill="#e79950" d="M 2452.160156 1176.753906 C 2464.511719 1190.476562 2477.28125 1211.339844 2468.367188 1230.0625 C 2463.488281 1240.3125 2448.097656 1237.515625 2444.96875 1227.527344 C 2442.851562 1220.839844 2444.03125 1213.945312 2443.320312 1207.046875 C 2442.660156 1200.464844 2441.148438 1194.039062 2437.917969 1188.269531 C 2433.003906 1179.535156 2444.832031 1168.625 2452.160156 1176.753906"/></g><g id="change8_34"><path fill="#e79950" d="M 2397.921875 1227.988281 C 2398.074219 1227.097656 2398.265625 1226.210938 2398.453125 1225.324219 C 2398.859375 1223.191406 2400.328125 1221.277344 2401.984375 1219.945312 C 2403.675781 1218.582031 2405.859375 1217.574219 2408.097656 1217.625 C 2412.433594 1217.726562 2416.988281 1220.425781 2418.097656 1224.878906 C 2418.304688 1225.765625 2418.542969 1226.636719 2418.730469 1227.527344 C 2419.003906 1228.667969 2419.261719 1229.964844 2419.277344 1231.144531 C 2419.292969 1232.425781 2419.003906 1233.757812 2418.816406 1235.019531 C 2418.476562 1235.890625 2418.132812 1236.742188 2417.792969 1237.597656 C 2417.144531 1238.878906 2416.253906 1239.902344 2415.113281 1240.667969 C 2413.335938 1242.101562 2411.015625 1243.179688 2408.675781 1243.109375 C 2406.78125 1243.078125 2404.957031 1242.617188 2403.230469 1241.777344 C 2401.132812 1240.722656 2398.621094 1237.871094 2398.179688 1235.496094 C 2397.667969 1232.75 2397.410156 1230.769531 2397.921875 1227.988281"/></g><g id="change8_35"><path fill="#e79950" d="M 2345.457031 1240.269531 C 2347.847656 1237.761719 2351.492188 1236.710938 2354.847656 1237.558594 C 2358.222656 1238.40625 2360.699219 1240.949219 2361.78125 1244.1875 C 2362.085938 1245.066406 2362.375 1245.914062 2362.664062 1246.796875 C 2364.648438 1252.664062 2358.695312 1258.882812 2352.761719 1257.15625 C 2351.882812 1256.917969 2350.984375 1256.644531 2350.101562 1256.390625 C 2346.8125 1255.441406 2344.183594 1253.101562 2343.183594 1249.761719 C 2342.183594 1246.457031 2343.066406 1242.761719 2345.457031 1240.269531"/></g><g id="change8_36"><path fill="#e79950" d="M 1862.914062 1094.253906 C 1868.003906 1088.75 1874.46875 1084.273438 1881.261719 1081.191406 C 1884.863281 1079.558594 1888.824219 1079.398438 1891.886719 1082.320312 C 1894.71875 1085.023438 1895.34375 1089.484375 1893.5 1092.890625 C 1889.96875 1099.449219 1885.257812 1105.34375 1879.578125 1110.179688 C 1873.933594 1115 1864.453125 1122.367188 1857.484375 1115.683594 C 1850.40625 1108.925781 1857.96875 1099.628906 1862.914062 1094.253906"/></g><g id="change8_37"><path fill="#e79950" d="M 1810.496094 1186.292969 C 1811.804688 1181.949219 1813.410156 1177.605469 1815.121094 1173.734375 C 1816.390625 1170.820312 1817.910156 1167.976562 1818.414062 1164.785156 C 1819.550781 1157.792969 1829.664062 1156.953125 1833.050781 1162.535156 C 1839.328125 1172.914062 1842.207031 1184.984375 1834.882812 1195.917969 C 1831.21875 1201.378906 1824.902344 1204.34375 1818.503906 1201.710938 C 1812.695312 1199.304688 1808.578125 1192.710938 1810.496094 1186.292969"/></g><g id="change8_38"><path fill="#e79950" d="M 1817.324219 1226.0625 C 1830.121094 1225.773438 1830.582031 1245.667969 1817.765625 1245.957031 C 1804.949219 1246.246094 1804.492188 1226.351562 1817.324219 1226.0625"/></g><g id="change8_39"><path fill="#e79950" d="M 1866.886719 1132.445312 C 1870.046875 1121.972656 1886.855469 1122.839844 1886.730469 1134.667969 C 1886.625 1143.710938 1885.902344 1152.503906 1884.914062 1161.488281 C 1884.011719 1169.839844 1882.847656 1178.722656 1876.472656 1184.761719 C 1872.445312 1188.558594 1865.261719 1188.539062 1862.3125 1183.261719 C 1854.277344 1168.871094 1862.472656 1147.082031 1866.886719 1132.445312"/></g><g id="change8_40"><path fill="#e79950" d="M 1859.859375 1222.550781 C 1860.78125 1219.953125 1861.894531 1217.917969 1863.550781 1216.292969 C 1865.605469 1213.726562 1868.664062 1212.324219 1872.070312 1212.703125 C 1875.097656 1213.042969 1878.722656 1215.234375 1879.816406 1218.34375 C 1879.867188 1218.414062 1879.917969 1218.464844 1879.953125 1218.550781 C 1880.054688 1218.722656 1880.347656 1219.132812 1880.585938 1219.507812 C 1880.808594 1219.730469 1881.066406 1219.9375 1881.269531 1220.175781 C 1883.152344 1222.074219 1884.367188 1224.160156 1885.289062 1226.621094 C 1886.382812 1229.546875 1885.9375 1231.839844 1885.597656 1234.847656 C 1886.074219 1230.691406 1885.957031 1232.523438 1885.921875 1233.582031 C 1885.699219 1239.039062 1882.382812 1243.46875 1876.839844 1244.339844 C 1867.640625 1245.777344 1858.917969 1239.585938 1858.625 1229.820312 C 1858.558594 1227.476562 1859.070312 1224.808594 1859.859375 1222.550781"/></g><g id="change8_41"><path fill="#e79950" d="M 1906.582031 1119.613281 C 1911.148438 1113.253906 1921.015625 1114.882812 1921.667969 1123.347656 C 1922.734375 1137.164062 1921.175781 1150.144531 1910.601562 1160.078125 C 1906.386719 1164.027344 1898.949219 1162.914062 1897.300781 1156.890625 C 1893.386719 1142.757812 1898.34375 1131.050781 1906.582031 1119.613281"/></g><g id="change8_42"><path fill="#e79950" d="M 1915.878906 1213.433594 C 1917.0625 1211.070312 1919.375 1209.648438 1921.722656 1208.722656 C 1923.710938 1207.953125 1925.644531 1207.695312 1927.785156 1207.9375 C 1929.171875 1208.089844 1930.21875 1208.484375 1931.503906 1208.945312 C 1933.507812 1209.699219 1935.117188 1210.523438 1936.503906 1212.234375 C 1937.773438 1213.8125 1938.714844 1215.867188 1938.679688 1217.941406 C 1938.628906 1219.617188 1938.234375 1221.261719 1937.480469 1222.753906 C 1936.335938 1225.066406 1934.160156 1226.300781 1931.914062 1227.242188 C 1930.664062 1227.773438 1929.601562 1228.21875 1928.25 1228.425781 C 1926.125 1228.765625 1924.1875 1228.613281 1922.148438 1227.910156 C 1920.042969 1227.191406 1918.328125 1226.230469 1916.90625 1224.46875 C 1915.570312 1222.824219 1914.578125 1220.664062 1914.628906 1218.488281 C 1914.664062 1216.722656 1915.09375 1215.011719 1915.878906 1213.433594"/></g><g id="change8_43"><path fill="#e79950" d="M 1761.988281 961.035156 C 1772.625 967.691406 1785.375 971.554688 1796.597656 977.308594 C 1807.027344 982.652344 1817.917969 987 1828.957031 990.898438 C 1850.046875 998.363281 1875.28125 1001.699219 1894.328125 1013.566406 C 1896.914062 1015.175781 1897.140625 1020.183594 1893.539062 1020.820312 C 1870.984375 1024.851562 1845.554688 1017.109375 1823.375 1013.078125 C 1810.484375 1010.753906 1797.628906 1008.371094 1784.617188 1006.816406 C 1771.808594 1005.277344 1759.734375 1000.40625 1747.035156 998.847656 C 1718.316406 995.304688 1735.175781 944.238281 1761.988281 961.035156"/></g><g id="change8_44"><path fill="#e79950" d="M 2474.046875 1000.402344 C 2480.414062 989.929688 2486.835938 984.648438 2497.328125 977.996094 C 2507.324219 971.648438 2516.160156 963.859375 2526.230469 957.699219 C 2547.746094 944.550781 2569.160156 931.417969 2590.558594 918.078125 C 2615.738281 902.378906 2636.378906 943.695312 2607.664062 956.179688 C 2585.199219 965.949219 2562.816406 975.582031 2540.5625 985.808594 C 2530.261719 990.539062 2519.277344 993.125 2508.824219 997.570312 C 2497.214844 1002.511719 2488.984375 1005.210938 2476.519531 1004.507812 C 2474.542969 1004.394531 2472.871094 1002.320312 2474.046875 1000.402344"/></g><g id="change8_45"><path fill="#e79950" d="M 1858.574219 1417.875 C 1861.527344 1406.105469 1875.003906 1396.890625 1887.191406 1400.769531 C 1894.90625 1403.214844 1902.394531 1405.53125 1910.539062 1405.832031 C 1919.882812 1406.183594 1928.695312 1404.363281 1937.925781 1406.519531 C 1951.503906 1409.714844 1959.566406 1430.171875 1947.589844 1440.074219 C 1928.632812 1455.769531 1898.050781 1454.636719 1875.691406 1446.492188 C 1863.746094 1442.132812 1855.25 1431.144531 1858.574219 1417.875"/></g><g id="change8_46"><path fill="#e79950" d="M 2347.875 1380.980469 C 2362.191406 1381.011719 2376.828125 1382.78125 2391.082031 1384.179688 C 2405.589844 1385.609375 2420.402344 1387.199219 2432.839844 1395.425781 C 2441.917969 1401.46875 2444.683594 1416.636719 2433.453125 1422.546875 C 2420.386719 1429.441406 2406.699219 1430.695312 2392.140625 1430.773438 C 2377.871094 1430.839844 2363.152344 1431.015625 2348.949219 1429.632812 C 2335.871094 1428.363281 2324.414062 1420.121094 2324.078125 1405.855469 C 2323.789062 1392.917969 2334.648438 1380.933594 2347.875 1380.980469"/></g></g></svg>