<?xml version="1.0" encoding="UTF-8" standalone="no"?><svg xmlns="http://www.w3.org/2000/svg" xmlns:xlink="http://www.w3.org/1999/xlink" contentScriptType="text/ecmascript" fill="#000000" width="285.1" zoomAndPan="magnify" contentStyleType="text/css" viewBox="75.7 71.2 285.1 282.7" height="282.7" preserveAspectRatio="xMidYMid meet" version="1"><g><g><path fill="#935c36" d="M 101.125 104.515625 C 99.601562 105.632812 98.441406 106.882812 97.570312 108.273438 C 95.667969 105.480469 92.320312 98.738281 92.902344 89.113281 C 93.121094 85.480469 94.277344 76.847656 95.015625 78.722656 C 96.46875 81.539062 98.851562 83.492188 100.113281 84.90625 C 103.089844 88.242188 105.574219 89.453125 108.3125 93.03125 C 109.9375 95.160156 111.425781 98.347656 111.140625 101.261719 C 107.578125 101.433594 104.035156 102.382812 101.125 104.515625"/></g><g><path fill="#fac0b0" d="M 97.917969 107.769531 C 94.25 100.3125 93.019531 92.933594 94.578125 84.820312 C 95.539062 86.507812 96.550781 88.175781 97.660156 89.8125 C 100.277344 93.652344 103.492188 97.617188 103.78125 102.4375 C 103.792969 102.621094 103.828125 102.785156 103.863281 102.953125 C 102.910156 103.386719 101.984375 103.886719 101.125 104.515625 C 99.789062 105.496094 98.746094 106.585938 97.917969 107.769531"/></g><g><path fill="#552d18" d="M 296.425781 191.796875 C 296.425781 191.796875 313.507812 183.066406 315.300781 197.449219 C 317.101562 211.832031 296.066406 243.113281 308.472656 269.183594 C 320.878906 295.253906 350.183594 281.769531 343.171875 264.152344 C 343.171875 264.152344 336.695312 275.226562 331.304688 270.589844 C 325.910156 265.949219 318.539062 261.09375 330.765625 241.140625 C 342.988281 221.183594 360.789062 185.222656 335.796875 163.472656 C 310.808594 141.714844 279.164062 159.871094 281.863281 189.359375 C 284.558594 218.84375 296.425781 191.796875 296.425781 191.796875"/></g><g><path fill="#482513" d="M 320.746094 261.359375 C 320.746094 261.359375 320.695312 260.804688 320.605469 259.769531 C 320.539062 258.726562 320.453125 257.191406 320.566406 255.242188 C 320.664062 253.289062 320.933594 250.925781 321.453125 248.25 C 321.964844 245.574219 322.722656 242.589844 323.71875 239.394531 C 325.664062 233.003906 328.359375 225.6875 331.011719 217.84375 C 332.308594 213.90625 333.503906 209.8125 334.46875 205.636719 C 334.683594 204.566406 334.902344 203.492188 335.121094 202.414062 C 335.300781 201.398438 335.488281 200.273438 335.644531 199.210938 C 335.96875 197.050781 336.191406 194.882812 336.300781 192.722656 C 336.382812 190.566406 336.347656 188.40625 335.988281 186.339844 C 335.902344 185.816406 335.796875 185.3125 335.671875 184.839844 C 335.585938 184.390625 335.351562 183.765625 335.222656 183.332031 C 334.84375 182.308594 334.46875 181.285156 334.097656 180.269531 C 332.5625 176.253906 330.824219 172.355469 328.28125 169.304688 C 327 167.769531 325.585938 166.53125 323.894531 165.632812 C 322.195312 164.691406 320.445312 163.925781 318.683594 163.363281 C 315.703125 162.410156 312.714844 161.945312 309.90625 161.945312 C 309.386719 161.945312 308.871094 161.960938 308.363281 161.992188 C 307.585938 162.035156 306.726562 162.132812 305.996094 162.230469 C 305.265625 162.355469 304.539062 162.574219 303.855469 162.835938 C 302.480469 163.351562 301.242188 164.035156 300.171875 164.804688 C 298.011719 166.335938 296.578125 168.234375 295.757812 169.957031 C 294.925781 171.683594 294.617188 173.191406 294.480469 174.214844 C 294.410156 174.730469 294.378906 175.128906 294.367188 175.398438 C 294.351562 175.664062 294.34375 175.804688 294.34375 175.804688 C 294.34375 175.804688 294.34375 175.664062 294.339844 175.394531 C 294.332031 175.125 294.335938 174.730469 294.367188 174.203125 C 294.4375 173.167969 294.613281 171.613281 295.375 169.78125 C 296.125 167.964844 297.511719 165.898438 299.6875 164.167969 C 300.773438 163.304688 302.03125 162.511719 303.46875 161.882812 C 304.1875 161.566406 304.945312 161.289062 305.777344 161.101562 C 306.617188 160.933594 307.378906 160.824219 308.257812 160.730469 C 309.199219 160.632812 310.167969 160.578125 311.15625 160.578125 C 313.734375 160.578125 316.453125 160.929688 319.183594 161.722656 C 321.070312 162.257812 322.953125 163.011719 324.792969 163.949219 C 325.71875 164.40625 326.660156 165.003906 327.507812 165.6875 C 328.355469 166.371094 329.128906 167.144531 329.847656 167.96875 C 332.703125 171.296875 334.601562 175.351562 336.21875 179.449219 C 336.601562 180.480469 336.988281 181.519531 337.378906 182.554688 C 337.570312 183.175781 337.738281 183.578125 337.886719 184.210938 C 338.046875 184.800781 338.167969 185.378906 338.265625 185.945312 C 338.679688 188.238281 338.726562 190.546875 338.652344 192.820312 C 338.558594 195.097656 338.289062 197.34375 337.945312 199.558594 C 337.773438 200.675781 337.597656 201.730469 337.382812 202.878906 C 337.15625 203.953125 336.933594 205.027344 336.707031 206.097656 C 335.707031 210.4375 334.367188 214.570312 332.992188 218.519531 C 331.597656 222.460938 330.144531 226.21875 328.773438 229.773438 C 327.429688 233.335938 326.140625 236.710938 325.023438 239.828125 C 323.914062 242.949219 322.996094 245.84375 322.320312 248.445312 C 321.648438 251.046875 321.246094 253.359375 321.03125 255.28125 C 320.816406 257.199219 320.746094 258.722656 320.734375 259.765625 C 320.742188 260.804688 320.746094 261.359375 320.746094 261.359375"/></g><g><path fill="#482513" d="M 317.75 244.71875 C 317.75 244.71875 317.808594 244.3125 317.917969 243.554688 C 318.035156 242.796875 318.171875 241.679688 318.40625 240.269531 C 318.683594 238.863281 318.964844 237.144531 319.421875 235.199219 C 319.839844 233.246094 320.378906 231.0625 320.996094 228.683594 C 321.617188 226.304688 322.359375 223.742188 323.179688 221.0625 C 323.976562 218.378906 324.882812 215.511719 325.847656 212.621094 C 326.335938 211.167969 326.789062 209.691406 327.261719 208.199219 C 327.742188 206.710938 328.210938 205.195312 328.640625 203.644531 C 328.863281 202.867188 329.085938 202.09375 329.3125 201.316406 L 329.648438 200.148438 C 329.757812 199.796875 329.835938 199.394531 329.929688 199.019531 C 330.277344 197.484375 330.492188 195.914062 330.589844 194.34375 C 330.796875 191.199219 330.527344 188.023438 329.734375 185.035156 C 329.351562 183.546875 328.871094 182.058594 328.269531 180.699219 C 328 180.023438 327.636719 179.316406 327.285156 178.621094 C 327.003906 178.007812 326.601562 177.476562 326.144531 176.921875 C 324.292969 174.753906 321.941406 173.046875 319.492188 172.089844 C 317.691406 171.359375 315.847656 171.023438 314.066406 171.023438 C 313.421875 171.023438 312.785156 171.066406 312.160156 171.152344 C 309.914062 171.425781 307.894531 172.40625 306.257812 173.417969 C 304.605469 174.445312 303.289062 175.5625 302.277344 176.550781 C 301.265625 177.542969 300.535156 178.390625 300.0625 178.988281 C 299.59375 179.59375 299.394531 179.953125 299.394531 179.953125 C 299.394531 179.953125 299.539062 179.566406 299.929688 178.898438 C 300.3125 178.230469 300.941406 177.28125 301.878906 176.179688 C 302.808594 175.074219 304.035156 173.796875 305.652344 172.542969 C 307.285156 171.320312 309.335938 170.117188 311.949219 169.601562 C 312.863281 169.425781 313.84375 169.332031 314.855469 169.332031 C 316.585938 169.332031 318.410156 169.609375 320.183594 170.257812 C 322.984375 171.277344 325.664062 173.03125 327.820312 175.496094 C 328.34375 176.109375 328.890625 176.816406 329.273438 177.617188 C 329.628906 178.308594 329.992188 178.988281 330.316406 179.773438 C 331 181.296875 331.53125 182.847656 331.945312 184.472656 C 332.769531 187.710938 333.027344 191.136719 332.769531 194.507812 C 332.621094 196.191406 332.339844 197.863281 331.925781 199.492188 C 331.808594 199.90625 331.71875 200.300781 331.582031 200.722656 L 331.222656 201.882812 C 330.984375 202.65625 330.746094 203.429688 330.507812 204.195312 C 330.054688 205.734375 329.515625 207.25 328.984375 208.746094 C 328.457031 210.242188 327.945312 211.730469 327.410156 213.160156 C 326.363281 216.058594 325.316406 218.78125 324.421875 221.457031 C 323.507812 224.113281 322.664062 226.621094 321.910156 228.949219 C 321.171875 231.277344 320.523438 233.425781 320.003906 235.34375 C 319.441406 237.253906 319.085938 238.949219 318.71875 240.328125 C 318.386719 241.71875 318.167969 242.820312 318 243.566406 C 317.835938 244.316406 317.75 244.71875 317.75 244.71875"/></g><g><path fill="#482513" d="M 329.617188 277.839844 C 329.578125 277.839844 329.542969 277.839844 329.503906 277.839844 C 328.339844 277.804688 327.128906 277.574219 325.890625 277.121094 C 323.417969 276.242188 320.90625 274.53125 318.664062 272.273438 C 316.402344 270.097656 314.03125 267.351562 312.714844 263.792969 C 312.039062 262.03125 311.617188 260.148438 311.445312 258.164062 C 311.28125 256.246094 311.328125 254.257812 311.441406 252.289062 C 311.644531 248.332031 312.15625 244.300781 312.777344 240.21875 C 313.402344 236.140625 314.148438 232.019531 315.054688 227.925781 C 315.960938 223.851562 316.925781 219.726562 318.296875 215.792969 C 319.640625 211.882812 321.128906 208.140625 322.226562 204.453125 C 323.320312 200.78125 324.015625 197.125 323.667969 193.746094 C 323.574219 192.914062 323.433594 192.0625 323.21875 191.320312 C 322.996094 190.507812 322.699219 189.757812 322.40625 188.976562 C 321.796875 187.453125 321.085938 186.042969 320.289062 184.769531 C 318.710938 182.203125 316.597656 180.316406 314.359375 179.417969 C 313.253906 178.972656 312.140625 178.789062 311.101562 178.789062 C 310.03125 178.789062 309.039062 178.980469 308.203125 179.285156 C 306.527344 179.894531 305.4375 180.867188 304.839844 181.609375 C 304.546875 181.996094 304.363281 182.316406 304.257812 182.546875 C 304.15625 182.777344 304.105469 182.898438 304.105469 182.898438 C 304.105469 182.898438 304.144531 182.773438 304.21875 182.53125 C 304.300781 182.296875 304.453125 181.945312 304.710938 181.519531 C 305.238281 180.695312 306.269531 179.558594 308 178.789062 C 309.039062 178.316406 310.355469 177.984375 311.8125 177.984375 C 312.734375 177.984375 313.710938 178.117188 314.707031 178.429688 C 317.289062 179.21875 319.730469 181.253906 321.585938 183.898438 C 322.527344 185.222656 323.324219 186.710938 324.039062 188.285156 C 324.375 189.070312 324.738281 189.902344 324.988281 190.765625 C 325.277344 191.6875 325.4375 192.585938 325.566406 193.527344 C 326.046875 197.304688 325.3125 201.230469 324.234375 205.035156 C 323.148438 208.859375 321.699219 212.648438 320.429688 216.511719 C 319.121094 220.34375 318.203125 224.355469 317.335938 228.417969 C 316.492188 232.476562 315.695312 236.546875 315.054688 240.578125 C 314.734375 242.59375 314.4375 244.59375 314.191406 246.570312 C 313.929688 248.550781 313.703125 250.507812 313.5625 252.429688 C 313.414062 254.355469 313.328125 256.21875 313.445312 258.050781 C 313.550781 259.816406 313.863281 261.574219 314.421875 263.179688 C 315.503906 266.421875 317.566406 269.046875 319.664062 271.296875 C 321.730469 273.558594 323.976562 275.273438 326.230469 276.273438 C 327.347656 276.769531 328.488281 277.058594 329.515625 277.160156 C 329.738281 277.179688 329.957031 277.1875 330.167969 277.1875 C 330.988281 277.1875 331.722656 277.0625 332.410156 276.859375 C 334.117188 276.34375 335.332031 275.539062 336.136719 275.003906 C 336.941406 274.449219 337.347656 274.125 337.347656 274.125 C 337.347656 274.125 336.972656 274.484375 336.21875 275.109375 C 335.453125 275.714844 334.320312 276.660156 332.558594 277.3125 C 331.726562 277.628906 330.6875 277.839844 329.617188 277.839844"/></g><g><path fill="#895632" d="M 239.671875 281.179688 C 237.289062 284.042969 235.472656 287.320312 233.390625 290.398438 C 229.316406 296.421875 226.886719 302.179688 225.664062 305.375 C 223.191406 311.828125 230.996094 328.34375 234.253906 318.3125 C 237.753906 307.546875 246.761719 306.691406 253.25 297.351562 C 255.625 293.929688 258.074219 290.566406 260.371094 287.078125 C 262.285156 284.179688 263.804688 280.460938 261.164062 277.578125 C 259.226562 275.460938 250.351562 268.359375 239.671875 281.179688"/></g><g><path fill="#895632" d="M 226.492188 303.300781 C 224.042969 306.824219 221.539062 327.832031 220.277344 331.480469 C 219.191406 334.605469 217.070312 337.347656 216.386719 340.613281 C 215.765625 343.558594 212.910156 348.976562 215.332031 351.472656 C 217.648438 353.859375 222.105469 353.722656 225.101562 353.503906 C 228.933594 353.214844 233.195312 353.300781 236.960938 351.503906 C 239.265625 350.402344 239.835938 349.351562 239.15625 346.929688 C 238.738281 345.445312 238.5 344.011719 238.082031 342.519531 C 237.601562 340.796875 236.925781 339.199219 236.027344 337.78125 C 235.042969 336.226562 233.949219 335.480469 235.171875 333.679688 C 236.378906 331.90625 238.839844 331.628906 239.925781 329.710938 C 241.125 327.605469 238.992188 326.191406 238.003906 324.347656 C 235.703125 320.070312 235.386719 316.167969 238.191406 311.34375 L 226.492188 303.300781"/></g><g><path fill="#251512" d="M 238.082031 342.519531 C 237.660156 341.015625 237.0625 339.632812 236.328125 338.359375 C 231.875 339.433594 226.636719 339.554688 222.320312 338.585938 C 220.410156 338.15625 218.996094 337.421875 217.984375 336.398438 C 217.308594 337.75 216.695312 339.125 216.386719 340.613281 C 215.765625 343.558594 212.910156 348.976562 215.332031 351.472656 C 217.648438 353.859375 222.105469 353.722656 225.101562 353.503906 C 228.933594 353.214844 233.195312 353.300781 236.960938 351.503906 C 239.265625 350.402344 239.835938 349.351562 239.15625 346.929688 C 238.738281 345.445312 238.5 344.011719 238.082031 342.519531"/></g><g><path fill="#895632" d="M 266.117188 198.351562 C 269.605469 205.253906 269.59375 212.273438 268.425781 219.707031 C 265.871094 235.929688 257.851562 251.628906 257.609375 267.777344 C 257.5625 270.984375 257.871094 273.703125 260.285156 276.414062 C 254.882812 279.945312 237.957031 292.398438 236.75 284.945312 C 235.136719 274.964844 227.546875 264.363281 225.976562 261.226562 C 217.328125 243.941406 204.695312 230.082031 200.496094 210.324219 C 199.085938 203.6875 201.125 195.519531 205.148438 190.070312 C 209.859375 183.6875 217.003906 183.746094 224.210938 183.808594 C 226.34375 183.824219 228.484375 183.84375 230.566406 183.695312 C 239.6875 183.039062 251.699219 169.777344 266.117188 198.351562"/></g><g><path fill="#895632" d="M 151.886719 252.453125 C 147.128906 254.957031 142.25 255.03125 137.070312 254.308594 C 125.769531 252.722656 117.9375 251.023438 106.714844 251.042969 C 104.484375 251.046875 102.066406 251.21875 99.757812 251.480469 C 97.242188 247.769531 86.246094 234.582031 89.777344 230.699219 C 91.339844 228.980469 94.882812 228.390625 96.875 227.246094 C 98.917969 226.066406 101.242188 225.070312 103.410156 223.941406 C 115.320312 217.730469 129.113281 210.140625 142.796875 206.992188 C 147.386719 205.933594 153.089844 207.253906 156.925781 209.984375 C 162.742188 214.132812 165.761719 220.484375 166.324219 226.816406 C 166.882812 233.144531 171.570312 242.09375 151.886719 252.453125"/></g><g><path fill="#895632" d="M 84.007812 245.183594 C 84.039062 248.902344 84.773438 252.578125 85.171875 256.273438 C 85.957031 263.503906 86.902344 270.785156 89.058594 277.746094 C 90.601562 282.726562 92.558594 290.292969 97.976562 292.445312 C 104.378906 294.992188 105.105469 286.988281 104.492188 282.722656 C 102.886719 271.519531 105.90625 260.066406 104.820312 248.742188 C 104.421875 244.597656 104.117188 240.449219 103.617188 236.304688 C 103.203125 232.855469 101.957031 229.035156 98.078125 228.539062 C 95.230469 228.175781 83.871094 228.496094 84.007812 245.183594"/></g><g><path fill="#935c36" d="M 143.097656 181.804688 C 143.074219 181.949219 143.054688 182.078125 143.039062 182.199219 C 141.289062 193.464844 135.617188 203.75 134.5625 215.171875 C 133.640625 225.199219 132.398438 247.597656 138.96875 255.371094 C 143.824219 261.121094 151.871094 260.40625 159.984375 259.6875 C 164.339844 259.304688 168.714844 258.917969 172.625 259.535156 C 184.824219 261.460938 197.671875 262.605469 210.015625 262.140625 C 227.472656 261.484375 249.890625 255.203125 265.929688 248.097656 C 280.609375 241.589844 288.890625 236.046875 291.625 232.078125 C 298.984375 221.40625 303.773438 211.675781 301.300781 199.214844 C 298.992188 187.585938 292.289062 179.191406 280.300781 177.09375 C 277.253906 176.558594 248.195312 176.273438 245.199219 176.167969 C 232.066406 175.714844 219.34375 178.78125 206.089844 179.9375 C 197.585938 180.675781 179.796875 172.007812 175.613281 141.472656 C 173.773438 128.050781 169.738281 113.726562 145.03125 99.65625 L 139.296875 163.816406 C 145.414062 164.050781 143.71875 177.667969 143.097656 181.804688"/></g><g><path fill="#e9e9e9" d="M 204.410156 262.242188 C 194.882812 262.242188 185.160156 261.375 175.761719 260.011719 C 185.160156 261.375 194.882812 262.242188 204.410156 262.242188 C 206.289062 262.242188 208.15625 262.210938 210.015625 262.140625 C 212.964844 262.027344 216.054688 261.757812 219.230469 261.347656 C 216.054688 261.757812 212.964844 262.027344 210.015625 262.140625 C 208.15625 262.210938 206.289062 262.242188 204.410156 262.242188 M 219.242188 261.347656 C 219.253906 261.347656 219.261719 261.34375 219.273438 261.34375 C 219.261719 261.34375 219.253906 261.347656 219.242188 261.347656 M 135.542969 209.046875 C 136.855469 203.09375 139.050781 197.359375 140.8125 191.511719 C 140.808594 191.527344 140.808594 191.546875 140.808594 191.5625 C 139.050781 197.390625 136.855469 203.109375 135.546875 209.042969 C 135.542969 209.046875 135.542969 209.046875 135.542969 209.046875"/></g><g><path fill="#7e4f2d" d="M 134.566406 215.128906 C 134.566406 215.125 134.570312 215.121094 134.570312 215.117188 C 134.570312 215.121094 134.566406 215.125 134.566406 215.128906 M 134.570312 215.082031 C 134.574219 215.082031 134.574219 215.078125 134.574219 215.074219 C 134.574219 215.078125 134.574219 215.078125 134.570312 215.082031 M 134.578125 215.035156 C 134.578125 215.027344 134.578125 215.023438 134.578125 215.019531 C 134.578125 215.023438 134.578125 215.027344 134.578125 215.035156 M 134.582031 214.992188 C 134.582031 214.984375 134.582031 214.980469 134.582031 214.976562 C 134.582031 214.980469 134.582031 214.984375 134.582031 214.992188 M 134.585938 214.941406 C 134.585938 214.933594 134.589844 214.921875 134.589844 214.914062 C 134.589844 214.921875 134.585938 214.933594 134.585938 214.941406 M 134.589844 214.902344 C 134.589844 214.890625 134.59375 214.882812 134.59375 214.871094 C 134.59375 214.882812 134.589844 214.890625 134.589844 214.902344 M 134.59375 214.871094 C 134.789062 212.898438 135.121094 210.960938 135.542969 209.046875 C 135.542969 209.046875 135.542969 209.046875 135.546875 209.042969 C 135.121094 210.960938 134.789062 212.898438 134.59375 214.871094"/></g><g><path fill="#875431" d="M 204.410156 262.242188 C 194.882812 262.242188 185.160156 261.375 175.761719 260.011719 C 176.65625 258.539062 177.527344 257.109375 178.347656 255.71875 C 180.136719 256.035156 181.890625 256.3125 183.574219 256.570312 C 189.902344 257.535156 196.1875 257.9375 202.449219 257.9375 C 216.898438 257.9375 231.214844 255.785156 245.628906 253.390625 C 246.632812 253.222656 247.632812 253.046875 248.628906 252.859375 C 248.8125 253.148438 248.996094 253.421875 249.191406 253.675781 C 249.34375 253.882812 249.492188 254.085938 249.632812 254.277344 C 239.761719 257.492188 229.101562 260.074219 219.273438 261.34375 C 219.261719 261.34375 219.253906 261.347656 219.242188 261.347656 C 219.238281 261.347656 219.234375 261.347656 219.230469 261.347656 C 216.054688 261.757812 212.964844 262.027344 210.015625 262.140625 C 208.15625 262.210938 206.289062 262.242188 204.410156 262.242188 M 138.105469 254.199219 C 134.734375 248.984375 133.820312 239.355469 133.816406 230.429688 C 133.816406 224.546875 134.214844 218.972656 134.5625 215.171875 C 134.566406 215.160156 134.566406 215.144531 134.566406 215.128906 C 134.566406 215.125 134.570312 215.121094 134.570312 215.117188 C 134.570312 215.105469 134.570312 215.09375 134.570312 215.082031 C 134.574219 215.078125 134.574219 215.078125 134.574219 215.074219 C 134.574219 215.0625 134.574219 215.046875 134.578125 215.035156 C 134.578125 215.027344 134.578125 215.023438 134.578125 215.019531 C 134.578125 215.007812 134.578125 215 134.582031 214.992188 C 134.582031 214.984375 134.582031 214.980469 134.582031 214.976562 C 134.585938 214.964844 134.585938 214.953125 134.585938 214.941406 C 134.585938 214.933594 134.589844 214.921875 134.589844 214.914062 C 134.589844 214.910156 134.589844 214.90625 134.589844 214.902344 C 134.589844 214.890625 134.59375 214.882812 134.59375 214.871094 C 134.789062 212.898438 135.121094 210.960938 135.546875 209.042969 C 136.855469 203.109375 139.050781 197.390625 140.808594 191.5625 C 140.523438 197.652344 140.074219 204.011719 140.078125 210.3125 C 138.585938 228.359375 138.035156 242.421875 138.105469 254.199219 M 249.726562 253.707031 C 249.675781 253.621094 249.621094 253.53125 249.566406 253.441406 C 249.429688 253.226562 249.296875 252.996094 249.167969 252.757812 C 249.167969 252.757812 249.171875 252.753906 249.171875 252.753906 C 249.355469 253.070312 249.539062 253.386719 249.726562 253.707031"/></g><g><path fill="#fac0ad" d="M 78.253906 152.375 C 79.066406 154.875 84.347656 158.71875 86.847656 157.90625 C 89.347656 157.09375 88.121094 151.9375 87.308594 149.433594 C 86.496094 146.933594 83.8125 145.5625 81.3125 146.371094 C 78.8125 147.1875 77.441406 149.875 78.253906 152.375"/></g><g><path fill="#e9e9e9" d="M 78.257812 152.382812 C 78.257812 152.382812 78.253906 152.378906 78.253906 152.375 C 78.253906 152.371094 78.25 152.367188 78.25 152.363281 C 78.25 152.367188 78.253906 152.371094 78.253906 152.375 C 78.253906 152.378906 78.257812 152.382812 78.257812 152.382812 M 78.246094 152.351562 C 78.246094 152.351562 78.246094 152.351562 78.246094 152.347656 C 78.246094 152.351562 78.246094 152.351562 78.246094 152.351562"/></g><g><path fill="#e5b09e" d="M 81.011719 155.714844 C 79.679688 154.65625 78.59375 153.40625 78.257812 152.382812 C 78.257812 152.382812 78.253906 152.378906 78.253906 152.375 C 78.253906 152.371094 78.25 152.367188 78.25 152.363281 C 78.25 152.359375 78.246094 152.355469 78.246094 152.351562 C 78.246094 152.351562 78.246094 152.351562 78.246094 152.347656 C 77.589844 150.285156 78.425781 148.113281 80.144531 146.964844 C 79.863281 147.671875 79.71875 148.457031 79.734375 149.121094 C 79.769531 150.5625 80.726562 152.273438 82.144531 152.273438 C 82.671875 152.273438 83.257812 152.035156 83.886719 151.464844 C 82.886719 152.859375 81.910156 154.261719 81.011719 155.714844"/></g><g><path fill="#935c36" d="M 145.03125 99.65625 C 140.042969 96.613281 132.835938 95.503906 126.957031 95.207031 C 116.203125 94.667969 99.21875 97.980469 95.507812 109.207031 C 92.402344 118.613281 94.589844 129.480469 91.429688 138.667969 C 87.890625 148.96875 78.542969 154.886719 77.027344 166.199219 C 75.726562 175.882812 79.65625 186.128906 90.128906 188.292969 C 94.003906 189.097656 100.296875 189.65625 104.054688 188.335938 C 108.953125 186.609375 110.269531 181.855469 113.140625 178.421875 C 119.496094 170.820312 131.761719 175.492188 139.832031 169.664062 C 149.496094 162.6875 151.503906 149.960938 152.808594 140.144531 C 157.144531 107.480469 150.667969 103.089844 145.03125 99.65625"/></g><g><path fill="#fac0ad" d="M 117.546875 175.183594 C 118.859375 170.394531 118.5 165.292969 115.363281 160.5 C 109.480469 151.519531 96.828125 142.761719 86.246094 148.167969 C 82.367188 153.695312 78.019531 158.789062 77.027344 166.199219 C 75.726562 175.882812 79.65625 186.128906 90.128906 188.292969 C 94.003906 189.097656 100.296875 189.65625 104.054688 188.335938 C 108.953125 186.609375 110.269531 181.855469 113.140625 178.421875 C 114.398438 176.914062 115.902344 175.902344 117.546875 175.183594"/></g><g><path fill="#875431" d="M 77.027344 166.199219 C 77.027344 166.183594 77.03125 166.171875 77.03125 166.160156 C 77.03125 166.171875 77.027344 166.1875 77.027344 166.199219 M 77.035156 166.140625 C 77.035156 166.136719 77.035156 166.128906 77.035156 166.121094 C 77.035156 166.128906 77.035156 166.136719 77.035156 166.140625 M 77.039062 166.101562 C 77.039062 166.09375 77.039062 166.089844 77.042969 166.085938 C 77.039062 166.089844 77.039062 166.09375 77.039062 166.101562 M 77.042969 166.058594 L 77.042969 166.058594"/></g><g><path fill="#e5b09e" d="M 98.148438 189.125 C 95.300781 189.125 92.324219 188.75 90.128906 188.292969 C 80.933594 186.394531 76.78125 178.265625 76.785156 169.753906 C 76.785156 168.570312 76.867188 167.382812 77.027344 166.199219 C 77.027344 166.1875 77.03125 166.171875 77.03125 166.160156 C 77.03125 166.152344 77.03125 166.148438 77.035156 166.140625 C 77.035156 166.136719 77.035156 166.128906 77.035156 166.121094 C 77.035156 166.113281 77.039062 166.105469 77.039062 166.101562 C 77.039062 166.09375 77.039062 166.089844 77.042969 166.085938 C 77.042969 166.078125 77.042969 166.066406 77.042969 166.058594 C 77.867188 160.203125 80.789062 155.792969 83.894531 151.457031 C 81.355469 159.367188 83.699219 169.261719 88.828125 175.226562 C 92.179688 179.125 96.230469 180.640625 100.472656 180.640625 C 103.90625 180.640625 107.460938 179.648438 110.875 178.121094 C 110.699219 178.355469 110.523438 178.589844 110.339844 178.820312 C 109.753906 179.582031 109.089844 180.320312 108.398438 181.046875 C 107.703125 181.769531 106.953125 182.464844 106.160156 183.101562 C 105.378906 183.75 104.550781 184.339844 103.699219 184.863281 C 102.839844 185.371094 101.980469 185.859375 101.105469 186.238281 C 100.234375 186.632812 99.367188 186.960938 98.53125 187.222656 C 97.691406 187.488281 96.882812 187.675781 96.128906 187.851562 C 95.367188 187.976562 94.671875 188.132812 94.042969 188.199219 C 93.417969 188.261719 92.867188 188.355469 92.414062 188.363281 C 91.507812 188.410156 90.980469 188.457031 90.980469 188.457031 C 90.980469 188.457031 91.5 188.515625 92.414062 188.59375 C 92.875 188.644531 93.429688 188.617188 94.074219 188.640625 C 94.140625 188.640625 94.207031 188.640625 94.273438 188.640625 C 94.863281 188.640625 95.523438 188.582031 96.234375 188.519531 C 97.023438 188.417969 97.878906 188.300781 98.765625 188.070312 C 99.65625 187.855469 100.585938 187.582031 101.511719 187.195312 C 102.441406 186.828125 103.378906 186.375 104.289062 185.839844 C 105.191406 185.296875 106.074219 184.6875 106.90625 184.015625 C 107.730469 183.335938 108.507812 182.597656 109.226562 181.828125 C 109.945312 181.0625 110.585938 180.253906 111.167969 179.445312 C 111.6875 178.746094 112.128906 178.027344 112.535156 177.332031 C 114.34375 176.425781 116.097656 175.382812 117.753906 174.28125 C 117.683594 174.582031 117.628906 174.882812 117.546875 175.183594 C 115.902344 175.902344 114.398438 176.914062 113.140625 178.421875 C 110.269531 181.855469 108.953125 186.609375 104.054688 188.335938 C 102.425781 188.90625 100.324219 189.125 98.148438 189.125"/></g><g><path fill="#d3d2d2" d="M 142.476562 167.4375 C 142.628906 167.289062 142.777344 167.140625 142.921875 166.992188 C 142.925781 167.003906 142.933594 167.019531 142.9375 167.03125 C 142.714844 167.230469 142.558594 167.367188 142.476562 167.4375"/></g><g><path fill="#7a4c2c" d="M 142.9375 167.03125 C 142.933594 167.019531 142.925781 167.003906 142.921875 166.992188 C 149.957031 159.746094 151.65625 148.808594 152.808594 140.144531 C 152.96875 138.914062 153.117188 137.726562 153.25 136.578125 C 153.324219 136.875 153.390625 137.179688 153.460938 137.488281 C 153.609375 138.0625 153.660156 138.664062 153.769531 139.273438 C 153.855469 139.886719 153.976562 140.511719 153.988281 141.15625 C 154.050781 142.441406 154.171875 143.773438 154.035156 145.132812 C 153.980469 145.808594 153.992188 146.496094 153.878906 147.175781 C 153.769531 147.851562 153.660156 148.535156 153.554688 149.21875 C 153.492188 149.554688 153.441406 149.898438 153.363281 150.234375 L 153.078125 151.226562 C 152.886719 151.886719 152.695312 152.542969 152.507812 153.195312 C 152.347656 153.855469 152.019531 154.453125 151.769531 155.066406 C 151.503906 155.675781 151.242188 156.277344 150.984375 156.867188 C 150.421875 158.023438 149.722656 159.0625 149.128906 160.070312 C 148.976562 160.320312 148.835938 160.574219 148.671875 160.808594 C 148.5 161.03125 148.328125 161.253906 148.15625 161.472656 C 147.8125 161.902344 147.480469 162.316406 147.160156 162.71875 C 146.523438 163.507812 145.96875 164.253906 145.339844 164.800781 C 144.75 165.378906 144.21875 165.863281 143.785156 166.265625 C 143.445312 166.578125 143.15625 166.835938 142.9375 167.03125"/></g><g><path fill="#7a4c2c" d="M 142.410156 167.492188 C 142.410156 167.492188 142.777344 166.921875 143.433594 165.953125 C 143.765625 165.472656 144.160156 164.886719 144.632812 164.234375 C 145.136719 163.605469 145.535156 162.777344 146.050781 161.9375 C 146.300781 161.515625 146.558594 161.074219 146.828125 160.617188 C 146.964844 160.394531 147.101562 160.164062 147.242188 159.929688 C 147.375 159.691406 147.480469 159.4375 147.605469 159.183594 C 148.066406 158.160156 148.609375 157.117188 149.089844 156.007812 C 149.488281 154.863281 149.953125 153.699219 150.335938 152.496094 C 150.5 151.886719 150.664062 151.269531 150.828125 150.648438 L 151.078125 149.722656 C 151.144531 149.40625 151.179688 149.089844 151.234375 148.769531 L 151.574219 146.878906 C 151.699219 146.25 151.695312 145.605469 151.761719 144.976562 C 151.789062 144.347656 151.910156 143.722656 151.894531 143.101562 C 151.902344 142.476562 151.90625 141.859375 151.914062 141.257812 C 151.949219 140.648438 151.851562 140.058594 151.839844 139.472656 C 151.796875 138.890625 151.808594 138.3125 151.722656 137.761719 C 151.574219 136.652344 151.484375 135.59375 151.289062 134.628906 C 151.136719 133.65625 150.925781 132.78125 150.761719 131.988281 C 150.558594 131.214844 150.398438 130.523438 150.230469 129.96875 C 150.0625 129.410156 149.941406 128.96875 149.835938 128.671875 C 149.742188 128.371094 149.679688 128.214844 149.679688 128.214844 C 149.679688 128.214844 149.78125 128.351562 149.949219 128.613281 C 150.125 128.878906 150.378906 129.269531 150.660156 129.789062 C 150.953125 130.304688 151.273438 130.945312 151.613281 131.699219 C 151.929688 132.464844 152.3125 133.320312 152.601562 134.300781 C 152.851562 135.003906 153.058594 135.769531 153.25 136.578125 C 153.117188 137.726562 152.96875 138.914062 152.808594 140.144531 C 151.65625 148.808594 149.957031 159.746094 142.921875 166.992188 C 142.777344 167.140625 142.628906 167.289062 142.476562 167.4375 C 142.433594 167.476562 142.410156 167.492188 142.410156 167.492188"/></g><g><path fill="#fac0ad" d="M 115.382812 153.945312 C 114.03125 158.105469 105.25 164.492188 101.09375 163.144531 C 96.9375 161.796875 98.976562 153.214844 100.328125 149.058594 C 101.675781 144.898438 106.140625 142.621094 110.296875 143.972656 C 114.453125 145.320312 116.730469 149.789062 115.382812 153.945312"/></g><g><path fill="#f8a48d" d="M 109.890625 148.984375 C 109.222656 148.171875 108.308594 147.492188 107.292969 147.253906 C 106.324219 147.027344 104.292969 147.273438 103.609375 148.121094 C 102.679688 149.265625 103.59375 151.125 104.203125 152.214844 C 105.875 155.210938 106.761719 157.488281 106.203125 160.300781 C 107.738281 159.398438 109.285156 157.453125 109.953125 156.523438 C 111.398438 154.496094 111.640625 151.585938 110.253906 149.480469 C 110.144531 149.3125 110.023438 149.148438 109.890625 148.984375"/></g><g><path fill="#f79889" d="M 105.601562 152.589844 C 104.992188 151.5 104.078125 149.640625 105.007812 148.492188 C 105.578125 147.792969 107.070312 147.507812 108.117188 147.558594 C 107.851562 147.429688 107.578125 147.320312 107.292969 147.253906 C 106.324219 147.027344 104.292969 147.273438 103.609375 148.121094 C 102.679688 149.265625 103.59375 151.125 104.203125 152.214844 C 105.875 155.210938 106.761719 157.488281 106.203125 160.300781 C 106.734375 159.984375 107.261719 159.550781 107.753906 159.078125 C 107.765625 156.949219 106.945312 155 105.601562 152.589844"/></g><g><path fill="#cf9e8e" d="M 110.875 178.121094 C 111.824219 176.847656 112.617188 175.582031 113.261719 174.441406 C 114.023438 173.09375 114.601562 171.925781 114.957031 171.085938 C 115.324219 170.253906 115.507812 169.761719 115.507812 169.761719 C 115.507812 169.761719 115.425781 170.277344 115.171875 171.164062 C 114.90625 172.039062 114.523438 173.308594 113.867188 174.746094 C 113.546875 175.472656 113.15625 176.238281 112.714844 177.03125 C 112.65625 177.132812 112.597656 177.230469 112.535156 177.332031 C 111.988281 177.609375 111.433594 177.871094 110.875 178.121094"/></g><g><path fill="#be9182" d="M 94.273438 188.640625 C 94.207031 188.640625 94.140625 188.640625 94.074219 188.640625 C 93.429688 188.617188 92.875 188.644531 92.414062 188.59375 C 91.5 188.515625 90.980469 188.457031 90.980469 188.457031 C 90.980469 188.457031 91.507812 188.410156 92.414062 188.363281 C 92.867188 188.355469 93.417969 188.261719 94.042969 188.199219 C 94.671875 188.132812 95.367188 187.976562 96.128906 187.851562 C 96.882812 187.675781 97.691406 187.488281 98.53125 187.222656 C 99.367188 186.960938 100.234375 186.632812 101.105469 186.238281 C 101.980469 185.859375 102.839844 185.371094 103.699219 184.863281 C 104.550781 184.339844 105.378906 183.75 106.160156 183.101562 C 106.953125 182.464844 107.703125 181.769531 108.398438 181.046875 C 109.089844 180.320312 109.753906 179.582031 110.339844 178.820312 C 110.523438 178.589844 110.699219 178.355469 110.875 178.121094 C 111.433594 177.871094 111.988281 177.609375 112.535156 177.332031 C 112.128906 178.027344 111.6875 178.746094 111.167969 179.445312 C 110.585938 180.253906 109.945312 181.0625 109.226562 181.828125 C 108.507812 182.597656 107.730469 183.335938 106.90625 184.015625 C 106.074219 184.6875 105.191406 185.296875 104.289062 185.839844 C 103.378906 186.375 102.441406 186.828125 101.511719 187.195312 C 100.585938 187.582031 99.65625 187.855469 98.765625 188.070312 C 97.878906 188.300781 97.023438 188.417969 96.234375 188.519531 C 95.523438 188.582031 94.863281 188.640625 94.273438 188.640625"/></g><g><path fill="#552d18" d="M 126.957031 95.207031 C 126.824219 95.277344 122.253906 98.023438 121.265625 100.3125 C 119.929688 103.398438 121.375 106.902344 121.082031 110.070312 C 119.582031 108.644531 119.183594 106.082031 119.082031 104.105469 C 114.695312 106.402344 115.367188 112.972656 115.0625 117.066406 C 114.246094 114.703125 113.554688 109.890625 111.199219 108.4375 C 110.558594 111.050781 111.066406 114.429688 110.75 117.113281 C 110.371094 120.285156 109.535156 122.636719 107.394531 125.121094 C 105.738281 127.042969 103.84375 128.460938 102.753906 130.800781 C 101.519531 133.449219 101.425781 135.144531 101.214844 138.066406 C 100.46875 136.203125 100.25 134.96875 100.25 132.769531 C 100.25 129.984375 100.863281 127.722656 101.746094 125.078125 C 103.453125 119.976562 102.789062 113.199219 100.558594 108.472656 C 99.207031 108.351562 96.746094 107.277344 94.292969 112.597656 C 93.964844 109.453125 94.882812 106.339844 95.914062 103.394531 C 96.519531 101.675781 97.746094 100.152344 98.230469 98.441406 C 95.953125 99.207031 93.738281 101.203125 91.09375 101.59375 C 92.929688 97.527344 95.253906 94.824219 98.78125 91.832031 C 100.191406 90.636719 101.34375 89.261719 102.925781 88.296875 C 103.835938 87.734375 104.9375 87.339844 105.726562 86.660156 C 103.210938 84.375 99.667969 85.5625 96.597656 85.1875 C 98.890625 82.582031 101.625 80.929688 104.621094 79.253906 C 107.046875 77.898438 108.269531 77.316406 111.074219 77.40625 C 112.589844 77.453125 114.082031 77.640625 115.597656 77.542969 C 114.332031 76.765625 112.898438 75.796875 111.511719 75.113281 C 109.289062 74.011719 105.910156 73.664062 104.078125 72.265625 C 107.292969 71.152344 111.144531 71.609375 114.421875 72.195312 C 116.296875 72.527344 118.210938 73.140625 119.960938 73.933594 C 121.082031 74.441406 123.546875 76.402344 124.609375 76.074219 C 124.609375 76.074219 134.480469 79.074219 136.285156 84.90625 C 138.09375 90.738281 126.957031 95.207031 126.957031 95.207031"/></g><g><path fill="#3a2015" d="M 132.140625 131.484375 C 132.140625 131.484375 131.910156 131.105469 131.585938 130.472656 C 131.425781 130.171875 131.226562 129.804688 131 129.386719 C 130.769531 128.984375 130.535156 128.535156 130.246094 128.121094 C 129.964844 127.703125 129.65625 127.3125 129.316406 127.019531 C 129.144531 126.875 128.980469 126.742188 128.765625 126.589844 C 128.660156 126.511719 128.542969 126.4375 128.40625 126.320312 L 128.355469 126.28125 L 128.332031 126.261719 L 128.324219 126.257812 L 128.378906 126.3125 L 128.363281 126.304688 L 128.257812 126.222656 L 128.042969 126.0625 L 127.796875 125.960938 C 127.695312 125.910156 127.601562 125.855469 127.496094 125.820312 C 127.296875 125.730469 127.082031 125.683594 126.878906 125.617188 C 126.460938 125.523438 126.027344 125.457031 125.578125 125.484375 C 125.125 125.480469 124.671875 125.574219 124.191406 125.707031 C 123.746094 125.851562 123.710938 125.886719 123.503906 125.933594 C 123.296875 126.023438 123.097656 126.121094 122.902344 126.226562 C 122.527344 126.4375 122.164062 126.710938 121.828125 127.054688 C 121.484375 127.390625 121.1875 127.8125 120.90625 128.234375 C 120.632812 128.660156 120.382812 129.097656 120.175781 129.507812 C 119.960938 129.914062 119.757812 130.289062 119.605469 130.605469 C 119.289062 131.242188 119.074219 131.628906 119.074219 131.628906 C 119.074219 131.628906 118.847656 131.253906 118.601562 130.558594 C 118.347656 129.859375 118.054688 128.839844 118.074219 127.484375 C 118.101562 126.808594 118.1875 126.046875 118.480469 125.238281 C 118.773438 124.4375 119.25 123.59375 119.941406 122.859375 C 120.277344 122.484375 120.675781 122.175781 121.09375 121.871094 C 121.53125 121.574219 122.148438 121.25 122.410156 121.144531 C 123.316406 120.71875 124.375 120.476562 125.445312 120.441406 C 126.515625 120.421875 127.609375 120.617188 128.59375 121.042969 C 129.085938 121.25 129.550781 121.511719 129.96875 121.820312 C 130.183594 121.96875 130.378906 122.132812 130.570312 122.296875 C 130.761719 122.460938 130.988281 122.699219 131.15625 122.878906 L 131.320312 123.09375 L 131.402344 123.195312 L 131.410156 123.210938 L 131.476562 123.277344 L 131.480469 123.285156 L 131.539062 123.367188 C 131.644531 123.511719 131.765625 123.683594 131.882812 123.867188 C 132.117188 124.234375 132.371094 124.632812 132.53125 125.046875 C 132.882812 125.871094 133 126.652344 133.035156 127.328125 C 133.082031 128.6875 132.8125 129.695312 132.578125 130.410156 C 132.484375 130.761719 132.335938 131.019531 132.269531 131.203125 C 132.1875 131.390625 132.140625 131.484375 132.140625 131.484375"/></g><g><path fill="#3a2015" d="M 97.84375 120.90625 C 97.769531 120.578125 97.660156 120.253906 97.527344 119.945312 L 97.339844 119.523438 L 97.078125 119.0625 C 96.996094 118.929688 96.964844 118.835938 96.839844 118.671875 L 96.414062 118.179688 C 96.117188 117.84375 95.828125 117.632812 95.5 117.386719 C 95.035156 117.082031 94.519531 116.863281 93.984375 116.695312 C 93.859375 117.824219 93.769531 118.960938 93.695312 120.101562 L 93.78125 120.136719 C 93.921875 120.234375 94.136719 120.335938 94.234375 120.414062 L 94.417969 120.53125 L 94.691406 120.8125 L 94.835938 120.964844 L 94.90625 121.039062 L 94.917969 121.050781 L 94.863281 120.972656 L 94.878906 120.988281 L 94.90625 121.023438 L 95.140625 121.300781 C 95.28125 121.460938 95.378906 121.617188 95.492188 121.769531 C 95.6875 122.078125 95.867188 122.441406 96.003906 122.820312 C 96.242188 123.59375 96.429688 124.296875 96.539062 124.855469 C 96.65625 125.398438 96.753906 125.710938 96.753906 125.710938 C 96.753906 125.710938 96.933594 125.4375 97.191406 124.941406 C 97.324219 124.703125 97.472656 124.398438 97.585938 124.007812 C 97.726562 123.628906 97.839844 123.179688 97.90625 122.671875 C 97.964844 122.15625 97.988281 121.558594 97.84375 120.90625"/></g><g><path fill="#895632" d="M 90.335938 281.824219 C 92.585938 295.0625 99.25 299.238281 100.296875 299.855469 C 103.621094 301.8125 106.679688 304.300781 109.289062 307.148438 C 111.527344 309.589844 112.929688 312.757812 115.476562 314.914062 C 117.769531 316.859375 121.183594 321.949219 124.527344 321.003906 C 127.734375 320.101562 129.726562 316.109375 130.957031 313.375 C 132.527344 309.863281 134.628906 306.15625 134.835938 301.988281 C 134.964844 299.4375 134.308594 298.4375 131.859375 297.886719 C 130.351562 297.546875 128.976562 297.074219 127.46875 296.734375 C 125.722656 296.339844 123.996094 296.171875 122.320312 296.289062 C 120.484375 296.414062 119.308594 297.019531 118.308594 295.089844 C 117.320312 293.183594 118.246094 290.890625 117.078125 289.023438 C 115.792969 286.96875 113.535156 288.167969 111.445312 288.164062 C 106.589844 288.152344 104.597656 285.386719 104.042969 273.199219 L 90.335938 281.824219"/></g><g><path fill="#251512" d="M 131.859375 297.886719 C 130.351562 297.546875 128.976562 297.074219 127.46875 296.734375 C 125.722656 296.339844 123.996094 296.171875 122.320312 296.289062 C 122.019531 299.089844 121.539062 301.84375 119.960938 304.230469 C 118 307.191406 115.480469 309.773438 112.164062 310.988281 C 113.144531 312.410156 114.15625 313.800781 115.476562 314.914062 C 117.769531 316.859375 121.183594 321.949219 124.527344 321.003906 C 127.734375 320.101562 129.726562 316.109375 130.957031 313.375 C 132.527344 309.863281 134.628906 306.15625 134.835938 301.988281 C 134.964844 299.4375 134.308594 298.4375 131.859375 297.886719"/></g><g><path fill="#935c36" d="M 142.636719 274.535156 C 142.019531 278.410156 142.132812 282.363281 141.898438 286.277344 C 141.445312 293.933594 141.148438 301.675781 142.167969 309.292969 C 142.894531 314.746094 143.601562 322.957031 148.859375 326.152344 C 155.070312 329.921875 157.234375 321.726562 157.34375 317.183594 C 157.644531 305.246094 162.800781 293.863281 163.660156 281.898438 C 163.972656 277.515625 164.382812 273.148438 164.59375 268.746094 C 164.769531 265.085938 164.148438 260.894531 160.199219 259.699219 C 157.300781 258.820312 145.425781 257.15625 142.636719 274.535156"/></g><g><path fill="#935c36" d="M 141.679688 304.308594 C 142.539062 313.585938 142.757812 316.578125 142.625 317.847656 C 142.207031 321.902344 141.160156 325.929688 139.574219 329.683594 C 138.214844 332.898438 135.789062 335.632812 134.835938 339.023438 C 133.980469 342.078125 130.597656 347.582031 132.96875 350.378906 C 135.242188 353.054688 139.945312 353.21875 143.113281 353.195312 C 147.167969 353.164062 151.644531 353.550781 155.734375 351.925781 C 158.238281 350.925781 158.910156 349.859375 158.363281 347.265625 C 158.027344 345.671875 157.875 344.144531 157.542969 342.546875 C 157.15625 340.699219 156.554688 338.96875 155.710938 337.414062 C 154.785156 335.710938 153.6875 334.84375 155.097656 333.039062 C 156.492188 331.257812 159.101562 331.136719 160.378906 329.195312 C 161.789062 327.0625 159.644531 325.429688 158.730469 323.414062 C 156.609375 318.75 158.230469 315.542969 158.425781 307.859375 L 141.679688 304.308594"/></g><g><path fill="#251512" d="M 157.542969 342.546875 C 157.179688 340.8125 156.609375 339.195312 155.84375 337.714844 C 151.648438 338.277344 147.429688 338.59375 143.1875 338.25 C 140.753906 338.050781 138.039062 337.578125 136.003906 336.171875 C 135.53125 337.089844 135.117188 338.023438 134.835938 339.023438 C 133.980469 342.078125 130.597656 347.582031 132.96875 350.378906 C 135.242188 353.054688 139.945312 353.21875 143.113281 353.195312 C 147.167969 353.164062 151.644531 353.550781 155.734375 351.925781 C 158.238281 350.925781 158.910156 349.859375 158.363281 347.265625 C 158.027344 345.671875 157.875 344.144531 157.542969 342.546875"/></g><g><path fill="#935c36" d="M 184.261719 235.195312 C 185.167969 240.792969 183.609375 245.699219 181.144531 250.636719 C 175.769531 261.40625 164.621094 274.625 162.125 291.839844 C 161.789062 294.171875 142.226562 303.070312 141.480469 297.585938 C 138.511719 275.625 136.347656 255.4375 140.078125 210.296875 C 140.488281 205.339844 156.945312 210.59375 163.464844 212.15625 C 169.980469 213.71875 180.507812 212.035156 184.261719 235.195312"/></g><g><path fill="#935c36" d="M 299.074219 272.808594 C 296.242188 275.226562 293.890625 278.140625 291.316406 280.816406 C 286.273438 286.058594 279.25 292.691406 277.5 295.632812 C 273.964844 301.574219 292.757812 312.859375 292.730469 302.316406 C 292.71875 296.816406 304.863281 292.546875 307.230469 291.144531 C 311.738281 288.472656 315.609375 285.191406 318.46875 282.148438 C 320.847656 279.617188 322.980469 276.210938 320.867188 272.921875 C 319.320312 270.503906 311.78125 261.996094 299.074219 272.808594"/></g><g><path fill="#935c36" d="M 277.5 295.632812 C 273.445312 304.15625 285.03125 321.183594 286.304688 324.828125 C 287.394531 327.949219 289.070312 332.128906 290.558594 335.113281 C 291.902344 337.8125 293.949219 342.996094 297.394531 343.445312 C 300.695312 343.882812 304.105469 341.011719 306.316406 338.976562 C 309.144531 336.375 312.539062 333.800781 314.378906 330.054688 C 315.5 327.761719 315.296875 326.582031 313.261719 325.105469 C 312.015625 324.203125 310.933594 323.222656 309.683594 322.3125 C 308.234375 321.261719 306.71875 320.429688 305.132812 319.871094 C 303.394531 319.261719 302.070312 319.351562 301.914062 317.183594 C 301.761719 315.042969 303.519531 313.304688 303.183594 311.125 C 302.816406 308.730469 300.269531 308.945312 298.347656 308.113281 C 293.890625 306.183594 292.976562 304.890625 292.183594 299.367188 L 277.5 295.632812"/></g><g><path fill="#251512" d="M 313.261719 325.105469 C 312.015625 324.203125 310.933594 323.222656 309.683594 322.3125 C 308.234375 321.261719 306.71875 320.429688 305.132812 319.871094 C 304.746094 319.734375 304.382812 319.636719 304.046875 319.539062 C 299.824219 324.222656 293.832031 327.027344 287.671875 328.472656 C 288.578125 330.785156 289.601562 333.191406 290.558594 335.113281 C 291.902344 337.8125 293.949219 342.996094 297.394531 343.445312 C 300.695312 343.882812 304.105469 341.011719 306.316406 338.976562 C 309.144531 336.375 312.539062 333.800781 314.378906 330.054688 C 315.5 327.761719 315.296875 326.582031 313.261719 325.105469"/></g><g><path fill="#935c36" d="M 299.902344 253.992188 C 297.757812 244.019531 302.378906 241.433594 304.835938 233.105469 C 308.507812 220.628906 307.511719 213.285156 305.75 205.753906 C 298.46875 174.585938 285.792969 176.851562 275.289062 176.351562 C 266.15625 175.917969 256.332031 176.742188 248.449219 183.335938 C 243.253906 187.6875 239.554688 195.15625 239.15625 201.925781 C 237.40625 231.574219 241.960938 240.839844 251.921875 257.398438 C 264.007812 277.480469 292.96875 269.808594 292.1875 279.894531 C 291.679688 286.441406 305.332031 274.355469 313.429688 267.71875 C 308.109375 267.179688 301.949219 263.488281 299.902344 253.992188"/></g><g><path fill="#734729" d="M 251.921875 257.398438 C 251.921875 257.398438 251.457031 256.773438 250.644531 255.675781 C 250.351562 255.273438 250.011719 254.804688 249.636719 254.285156 C 249.753906 254.246094 249.875 254.207031 249.996094 254.167969 C 250.613281 255.21875 251.257812 256.292969 251.921875 257.398438"/></g><g><path fill="#7a4c2c" d="M 249.636719 254.285156 C 249.632812 254.28125 249.632812 254.28125 249.632812 254.277344 C 249.753906 254.238281 249.871094 254.199219 249.992188 254.160156 C 249.992188 254.164062 249.996094 254.164062 249.996094 254.167969 C 249.875 254.207031 249.753906 254.246094 249.636719 254.285156 M 248.628906 252.859375 C 248.253906 252.277344 247.890625 251.632812 247.476562 250.964844 C 246.882812 249.949219 246.179688 248.878906 245.601562 247.660156 C 245.007812 246.449219 244.289062 245.210938 243.730469 243.847656 C 243.1875 242.480469 242.527344 241.101562 242.035156 239.632812 C 241.785156 238.898438 241.539062 238.15625 241.289062 237.414062 C 241.027344 236.675781 240.789062 235.929688 240.597656 235.164062 C 240.195312 233.644531 239.773438 232.128906 239.492188 230.601562 C 239.339844 229.84375 239.171875 229.09375 239.050781 228.34375 C 238.941406 227.59375 238.835938 226.851562 238.730469 226.121094 C 238.484375 224.667969 238.441406 223.238281 238.304688 221.898438 C 238.265625 220.546875 238.164062 219.273438 238.191406 218.097656 C 238.195312 217.507812 238.183594 216.945312 238.199219 216.40625 C 238.230469 215.871094 238.257812 215.363281 238.285156 214.890625 C 238.335938 213.933594 238.429688 213.105469 238.492188 212.425781 C 238.644531 211.152344 238.796875 210.402344 238.816406 210.308594 C 238.816406 210.316406 238.816406 210.324219 238.816406 210.332031 C 238.804688 210.5 238.753906 211.246094 238.722656 212.441406 C 238.714844 213.121094 238.691406 213.949219 238.722656 214.898438 C 238.738281 215.847656 238.785156 216.914062 238.851562 218.074219 C 238.863281 218.496094 238.894531 218.929688 238.933594 219.375 C 239.660156 234.003906 243.136719 242.289062 249.089844 252.613281 C 249.117188 252.660156 249.140625 252.710938 249.167969 252.757812 C 248.988281 252.789062 248.808594 252.824219 248.628906 252.859375"/></g><g><path fill="#714628" d="M 249.632812 254.277344 C 249.492188 254.085938 249.34375 253.882812 249.191406 253.675781 C 248.996094 253.421875 248.8125 253.148438 248.628906 252.859375 C 248.808594 252.824219 248.988281 252.789062 249.167969 252.757812 C 249.296875 252.996094 249.429688 253.226562 249.566406 253.441406 C 249.621094 253.53125 249.675781 253.621094 249.726562 253.707031 C 249.816406 253.859375 249.902344 254.011719 249.992188 254.160156 C 249.871094 254.199219 249.753906 254.238281 249.632812 254.277344"/></g><g><path fill="#7a4c2c" d="M 251.921875 257.398438 C 251.257812 256.292969 250.613281 255.21875 249.996094 254.167969 C 249.996094 254.164062 249.992188 254.164062 249.992188 254.160156 C 249.902344 254.011719 249.816406 253.859375 249.726562 253.707031 C 250.148438 254.410156 250.519531 255.027344 250.835938 255.546875 C 251.527344 256.726562 251.921875 257.398438 251.921875 257.398438 M 249.089844 252.613281 C 243.136719 242.289062 239.660156 234.003906 238.933594 219.375 C 239 220.15625 239.09375 220.976562 239.160156 221.820312 C 239.359375 223.144531 239.488281 224.539062 239.757812 225.972656 C 239.878906 226.6875 240.003906 227.414062 240.132812 228.148438 C 240.273438 228.882812 240.453125 229.617188 240.609375 230.363281 C 240.894531 231.863281 241.328125 233.351562 241.734375 234.84375 C 241.917969 235.597656 242.144531 236.335938 242.394531 237.0625 C 242.636719 237.796875 242.871094 238.527344 243.109375 239.253906 C 243.59375 240.695312 244.179688 242.078125 244.6875 243.4375 C 245.21875 244.792969 245.847656 246.050781 246.371094 247.277344 C 246.882812 248.511719 247.523438 249.601562 248.058594 250.636719 C 248.445312 251.324219 248.765625 252 249.089844 252.613281 M 238.816406 210.332031 C 238.816406 210.324219 238.816406 210.316406 238.816406 210.308594 C 238.820312 210.300781 238.820312 210.296875 238.820312 210.296875 C 238.820312 210.296875 238.820312 210.308594 238.816406 210.332031"/></g><g><path fill="#7a4c2c" d="M 285.894531 191.226562 C 282.121094 191.226562 279.066406 189.273438 279.066406 186.863281 C 279.066406 184.457031 282.121094 182.503906 285.894531 182.503906 C 289.664062 182.503906 292.71875 184.457031 292.71875 186.863281 C 292.71875 189.273438 289.664062 191.226562 285.894531 191.226562"/></g><g><path fill="#7a4c2c" d="M 287.371094 202.589844 C 285.355469 202.589844 283.714844 201.691406 283.480469 200.332031 C 283.199219 198.707031 285.035156 197.035156 287.578125 196.597656 C 287.996094 196.527344 288.40625 196.492188 288.800781 196.492188 C 290.820312 196.492188 292.457031 197.386719 292.691406 198.746094 C 292.972656 200.371094 291.140625 202.042969 288.59375 202.480469 C 288.179688 202.554688 287.765625 202.589844 287.371094 202.589844"/></g><g><path fill="#7a4c2c" d="M 294.265625 195.335938 C 292.90625 195.335938 291.800781 194.730469 291.644531 193.8125 C 291.457031 192.722656 292.691406 191.59375 294.40625 191.300781 C 294.6875 191.25 294.964844 191.226562 295.230469 191.226562 C 296.589844 191.226562 297.691406 191.832031 297.851562 192.746094 C 298.039062 193.839844 296.804688 194.96875 295.089844 195.261719 C 294.808594 195.3125 294.53125 195.335938 294.265625 195.335938"/></g><g><path fill="#7a4c2c" d="M 184.519531 238.695312 C 184.535156 237.558594 184.457031 236.394531 184.261719 235.195312 C 184.175781 234.671875 184.089844 234.160156 183.996094 233.660156 C 184.085938 232.617188 184.175781 231.59375 184.183594 230.589844 C 184.222656 229.925781 184.21875 229.277344 184.210938 228.640625 C 184.203125 228.007812 184.222656 227.382812 184.1875 226.773438 C 184.132812 225.5625 184.070312 224.414062 183.941406 223.363281 C 183.847656 222.304688 183.679688 221.347656 183.578125 220.484375 C 183.433594 219.632812 183.300781 218.890625 183.195312 218.277344 C 182.9375 217.058594 182.792969 216.359375 182.792969 216.359375 C 182.792969 216.359375 183.019531 217.035156 183.417969 218.222656 C 183.582031 218.824219 183.78125 219.558594 184.011719 220.398438 C 184.195312 221.25 184.457031 222.207031 184.597656 223.273438 C 184.789062 224.332031 184.921875 225.492188 185.050781 226.722656 C 185.132812 227.949219 185.265625 229.253906 185.222656 230.605469 C 185.242188 231.953125 185.160156 233.347656 185.050781 234.761719 C 184.890625 236.058594 184.769531 237.386719 184.519531 238.695312"/></g><g><path fill="#7a4c2c" d="M 175.5625 259.984375 C 175.5625 259.984375 175.882812 259.347656 176.441406 258.230469 C 176.722656 257.675781 177.089844 257.007812 177.460938 256.226562 C 177.8125 255.433594 178.210938 254.542969 178.667969 253.589844 C 179.121094 252.628906 179.515625 251.542969 179.984375 250.421875 C 180.449219 249.296875 180.800781 248.0625 181.269531 246.824219 C 181.652344 245.558594 182.058594 244.253906 182.402344 242.910156 C 182.566406 242.234375 182.730469 241.558594 182.894531 240.875 C 183.0625 240.191406 183.160156 239.492188 183.296875 238.804688 C 183.59375 237.425781 183.730469 236.023438 183.914062 234.648438 C 183.941406 234.316406 183.96875 233.988281 183.996094 233.660156 C 184.089844 234.160156 184.175781 234.671875 184.261719 235.195312 C 184.457031 236.394531 184.535156 237.558594 184.519531 238.695312 C 184.5 238.804688 184.480469 238.910156 184.457031 239.015625 C 184.3125 239.71875 184.203125 240.433594 184.027344 241.128906 C 183.851562 241.824219 183.675781 242.515625 183.503906 243.203125 C 183.148438 244.570312 182.671875 245.886719 182.25 247.164062 C 181.753906 248.414062 181.308594 249.640625 180.773438 250.753906 C 180.234375 251.859375 179.78125 252.933594 179.265625 253.878906 C 178.757812 254.828125 178.269531 255.683594 177.839844 256.441406 C 177.394531 257.1875 176.972656 257.816406 176.640625 258.34375 C 175.953125 259.386719 175.5625 259.984375 175.5625 259.984375"/></g><g><path fill="#43bcbb" d="M 185.230469 169.175781 C 186.894531 182.503906 186.25 190.464844 184.589844 196.492188 C 183.542969 200.300781 182 203.992188 181.066406 207.832031 C 179.90625 212.621094 181.796875 212.351562 184.8125 212.078125 C 185.871094 211.984375 187.070312 211.886719 188.324219 212.011719 C 196.492188 212.824219 200.039062 218.363281 208.699219 218.964844 C 217.5625 219.578125 225.28125 217.191406 231.140625 213.308594 C 242.519531 205.765625 245.90625 188.921875 244.070312 176.152344 C 231.335938 175.902344 218.964844 178.816406 206.089844 179.9375 C 200.984375 180.378906 192.53125 177.421875 185.683594 168.382812 C 185.574219 168.667969 185.421875 168.941406 185.230469 169.175781"/></g><g><path fill="#57c7c9" d="M 187.554688 171.464844 C 187.828125 172.199219 188.078125 172.9375 188.308594 173.667969 L 189.4375 173.320312 C 189.203125 172.5625 188.945312 171.808594 188.660156 171.050781 L 187.554688 171.46875"/></g><g><path fill="#57c7c9" d="M 189.496094 178.296875 C 189.828125 179.855469 190.101562 181.429688 190.363281 183.023438 L 191.527344 182.835938 C 191.269531 181.230469 190.988281 179.640625 190.652344 178.054688 Z M 191.121094 187.800781 C 191.253906 188.597656 191.390625 189.402344 191.535156 190.214844 C 191.6875 191.054688 191.871094 191.847656 192.089844 192.601562 L 193.226562 192.273438 C 193.019531 191.5625 192.84375 190.804688 192.699219 190.003906 C 192.554688 189.199219 192.417969 188.402344 192.289062 187.609375 Z M 194.09375 197.164062 C 195.042969 198.664062 196.191406 199.886719 197.492188 200.855469 L 198.199219 199.90625 C 197.011719 199.023438 195.964844 197.914062 195.09375 196.53125 Z M 201.984375 203.082031 C 203.523438 203.550781 205.171875 203.808594 206.882812 203.894531 L 206.941406 202.714844 C 205.308594 202.632812 203.761719 202.386719 202.324219 201.953125 Z M 211.804688 203.710938 C 212.960938 203.578125 214.132812 203.386719 215.316406 203.144531 C 215.761719 203.054688 216.199219 202.957031 216.628906 202.851562 L 216.355469 201.703125 C 215.9375 201.804688 215.511719 201.898438 215.078125 201.984375 C 213.929688 202.222656 212.789062 202.40625 211.667969 202.535156 Z M 221.320312 201.402344 C 222.925781 200.777344 224.398438 200.050781 225.746094 199.234375 L 225.132812 198.222656 C 223.847656 199.003906 222.4375 199.699219 220.890625 200.300781 Z M 229.695312 196.261719 C 230.921875 195.117188 232 193.867188 232.9375 192.523438 L 231.96875 191.847656 C 231.074219 193.125 230.054688 194.3125 228.890625 195.394531 Z M 235.355469 188.21875 C 236.011719 186.746094 236.554688 185.195312 236.992188 183.578125 L 235.851562 183.269531 C 235.425781 184.832031 234.90625 186.324219 234.277344 187.738281 L 235.355469 188.21875"/></g><g><path fill="#57c7c9" d="M 237.996094 178.726562 C 238.113281 177.949219 238.210938 177.15625 238.292969 176.355469 L 237.117188 176.234375 C 237.035156 177.019531 236.941406 177.792969 236.828125 178.554688 L 237.996094 178.726562"/></g><g><path fill="#7a4c2c" d="M 211.453125 219.0625 C 210.550781 219.0625 209.632812 219.027344 208.699219 218.964844 C 200.039062 218.363281 196.492188 212.824219 188.324219 212.011719 C 187.894531 211.96875 187.472656 211.953125 187.0625 211.953125 C 186.265625 211.953125 185.507812 212.015625 184.8125 212.078125 C 184.113281 212.140625 183.476562 212.203125 182.921875 212.203125 C 181.574219 212.203125 180.722656 211.832031 180.722656 210.175781 C 180.722656 211.832031 181.574219 212.203125 182.921875 212.203125 C 183.476562 212.203125 184.113281 212.140625 184.8125 212.078125 C 185.507812 212.015625 186.265625 211.953125 187.0625 211.953125 C 187.472656 211.953125 187.894531 211.96875 188.324219 212.011719 C 196.492188 212.824219 200.039062 218.363281 208.699219 218.964844 C 209.632812 219.027344 210.550781 219.0625 211.453125 219.0625 C 219.164062 219.0625 225.898438 216.78125 231.140625 213.308594 C 231.152344 213.300781 231.164062 213.292969 231.171875 213.285156 C 231.164062 213.292969 231.152344 213.300781 231.140625 213.308594 C 225.898438 216.78125 219.164062 219.0625 211.453125 219.0625 M 231.179688 213.28125 C 231.1875 213.277344 231.195312 213.269531 231.207031 213.265625 C 231.195312 213.269531 231.1875 213.277344 231.179688 213.28125 M 231.210938 213.261719 C 231.242188 213.242188 231.273438 213.21875 231.304688 213.199219 C 231.273438 213.21875 231.242188 213.238281 231.210938 213.261719 M 231.3125 213.195312 C 231.320312 213.1875 231.328125 213.183594 231.335938 213.175781 C 231.328125 213.183594 231.320312 213.1875 231.3125 213.195312 M 231.34375 213.171875 C 231.351562 213.167969 231.359375 213.160156 231.367188 213.15625 C 231.359375 213.160156 231.351562 213.167969 231.34375 213.171875 M 231.378906 213.148438 C 231.382812 213.148438 231.382812 213.144531 231.386719 213.140625 C 231.382812 213.144531 231.378906 213.148438 231.378906 213.148438 M 231.429688 213.113281 L 231.429688 213.113281 M 184.703125 196.074219 C 184.820312 195.628906 184.933594 195.167969 185.039062 194.699219 C 184.933594 195.167969 184.820312 195.628906 184.703125 196.074219"/></g><g><path fill="#379a9b" d="M 211.453125 219.0625 C 210.550781 219.0625 209.632812 219.027344 208.699219 218.964844 C 200.039062 218.363281 196.492188 212.824219 188.324219 212.011719 C 187.894531 211.96875 187.472656 211.953125 187.0625 211.953125 C 186.265625 211.953125 185.507812 212.015625 184.8125 212.078125 C 184.113281 212.140625 183.476562 212.203125 182.921875 212.203125 C 181.574219 212.203125 180.722656 211.832031 180.722656 210.175781 C 180.71875 209.574219 180.828125 208.808594 181.066406 207.832031 C 182 203.992188 183.542969 200.300781 184.589844 196.492188 C 184.628906 196.351562 184.667969 196.214844 184.703125 196.074219 C 184.820312 195.628906 184.933594 195.167969 185.039062 194.699219 C 186.636719 200.050781 180.34375 209.164062 191.347656 209.886719 C 199.996094 210.453125 203.429688 214.605469 211.855469 214.605469 C 214.566406 214.605469 217.796875 214.175781 221.882812 213.058594 C 229.859375 210.878906 236.433594 206.429688 241.027344 200.847656 C 238.90625 205.789062 235.769531 210.140625 231.429688 213.113281 C 231.414062 213.125 231.402344 213.132812 231.386719 213.140625 C 231.382812 213.144531 231.382812 213.148438 231.378906 213.148438 C 231.371094 213.152344 231.367188 213.15625 231.367188 213.15625 C 231.359375 213.160156 231.351562 213.167969 231.34375 213.171875 C 231.34375 213.175781 231.339844 213.175781 231.335938 213.175781 C 231.328125 213.183594 231.320312 213.1875 231.3125 213.195312 C 231.308594 213.195312 231.308594 213.195312 231.304688 213.199219 C 231.273438 213.21875 231.242188 213.242188 231.210938 213.261719 C 231.210938 213.261719 231.207031 213.265625 231.207031 213.265625 C 231.195312 213.269531 231.1875 213.277344 231.179688 213.28125 C 231.175781 213.285156 231.175781 213.285156 231.171875 213.285156 C 231.164062 213.292969 231.152344 213.300781 231.140625 213.308594 C 225.898438 216.78125 219.164062 219.0625 211.453125 219.0625"/></g><g><path fill="#552d18" d="M 136.875 89.757812 C 138.910156 85.417969 151.375 84.132812 156.503906 83.535156 C 160.535156 83.0625 168.253906 85.011719 171.132812 87.6875 C 166.554688 86.550781 163.824219 87.0625 159.386719 88.699219 C 161.210938 93.273438 172.894531 94.246094 176.898438 98.433594 C 181.792969 103.550781 184.410156 110.851562 185.363281 117.90625 C 187.074219 130.546875 186.636719 146.648438 198.625 155.683594 C 190.097656 160.21875 182.492188 151.808594 178.113281 146.574219 C 179.945312 154.53125 184.953125 162.359375 192.050781 166.773438 C 189.035156 167.96875 186.253906 165.949219 183.449219 165.015625 C 185.332031 168.4375 190.53125 174.078125 193.945312 176.226562 C 184.316406 181.402344 200.515625 195.121094 199.644531 202.289062 C 196.925781 199.921875 195.035156 196.480469 192.507812 193.660156 C 188.691406 189.402344 188.308594 190.347656 182.570312 190.871094 C 172.519531 191.796875 170.148438 187.847656 167 179.703125 C 163.101562 185.113281 166.867188 191.492188 168.210938 196.878906 C 160.519531 192.273438 159.523438 180.617188 161.558594 173.105469 C 163.347656 166.492188 165.746094 158.925781 162.457031 152.628906 C 159.074219 154.484375 157.53125 162.113281 157.832031 165.738281 C 155.054688 160.644531 156.925781 153.363281 158.367188 148.199219 C 160.117188 141.941406 161.082031 139.019531 159.933594 132.4375 C 157.980469 121.242188 159.003906 116.480469 153.007812 106.527344 C 149.671875 100.984375 140.199219 97.464844 140.199219 97.464844 C 140.199219 97.464844 134.644531 94.503906 136.875 89.757812"/></g><g><path fill="#935c36" d="M 135.273438 104.515625 C 136.796875 105.632812 137.957031 106.882812 138.828125 108.273438 C 140.730469 105.480469 144.078125 98.738281 143.496094 89.113281 C 143.277344 85.480469 142.121094 76.847656 141.382812 78.722656 C 139.929688 81.539062 137.546875 83.492188 136.285156 84.90625 C 133.308594 88.242188 130.824219 89.453125 128.085938 93.03125 C 126.460938 95.160156 124.972656 98.347656 125.257812 101.261719 C 128.820312 101.433594 132.363281 102.382812 135.273438 104.515625"/></g><g><path fill="#fac0b0" d="M 138.480469 107.769531 C 142.148438 100.3125 143.378906 92.933594 141.820312 84.820312 C 140.859375 86.507812 139.847656 88.175781 138.734375 89.8125 C 136.121094 93.652344 132.90625 97.617188 132.617188 102.4375 C 132.605469 102.621094 132.570312 102.785156 132.535156 102.953125 C 133.488281 103.386719 134.414062 103.886719 135.273438 104.515625 C 136.609375 105.496094 137.652344 106.585938 138.480469 107.769531"/></g></g></svg>