<?xml version="1.0" encoding="UTF-8" standalone="no"?><svg xmlns="http://www.w3.org/2000/svg" xmlns:xlink="http://www.w3.org/1999/xlink" contentScriptType="text/ecmascript" zoomAndPan="magnify" text-rendering="geometricPrecision" contentStyleType="text/css" version="1" width="778.676" shape-rendering="geometricPrecision" clip-rule="evenodd" fill="#000000" preserveAspectRatio="xMidYMid meet" viewBox="0 0 778.676 778.676" height="778.676" fill-rule="evenodd" image-rendering="optimizeQuality"><g><path fill="#ffffff" d="M58.004 3.919c36.815,0 76.55,-1.737 113.365,-1.737 36.815,0 64.979,3.383 101.794,3.383 36.815,0 79.36,3.877 116.175,3.877 36.815,0 73.63,-9.442 110.445,-9.442 36.815,0 73.63,7.294 110.445,7.294 36.815,0 73.63,-3.375 110.445,-3.375 4.91,0 9.61,1.408 14.136,2.661 4.526,1.252 8.906,2.818 12.874,5.149 3.968,2.331 7.585,5.207 10.821,8.444 3.236,3.236 6.112,6.853 8.443,10.82 2.332,3.968 3.897,8.348 5.15,12.874 1.252,4.526 2.66,9.226 2.66,14.137 0,36.815 -3.374,73.63 -3.374,110.445 0,36.814 7.293,73.629 7.293,110.444 0,36.815 -9.441,73.63 -9.441,110.445 0,36.815 9.441,73.63 9.441,110.445 0,36.815 -7.293,73.63 -7.293,110.445 0,36.815 3.374,73.63 3.374,110.445 0,4.91 -1.408,9.61 -2.66,14.136 -1.253,4.526 -2.818,8.906 -5.15,12.874 -2.331,3.968 -5.207,7.585 -8.443,10.821 -3.236,3.236 -6.853,6.112 -10.821,8.443 -3.968,2.332 -8.348,3.897 -12.874,5.15 -4.525,1.252 -9.226,2.66 -14.136,2.66 -36.815,0 -73.63,-3.374 -110.445,-3.374 -36.815,0 -73.63,7.293 -110.445,7.293 -36.815,0 -73.63,-9.441 -110.445,-9.441 -36.815,0 -73.63,9.441 -110.445,9.441 -36.815,0 -73.63,-7.293 -110.444,-7.293 -36.815,0 -73.63,3.374 -110.445,3.374 -4.91,0 -9.611,-1.408 -14.137,-2.66 -4.526,-1.253 -8.906,-2.818 -12.874,-5.15 -3.967,-2.331 -7.584,-5.207 -10.82,-8.443 -3.237,-3.236 -6.113,-6.853 -8.444,-10.821 -2.331,-3.968 -3.897,-8.348 -5.149,-12.874 -1.253,-4.525 -2.661,-9.226 -2.661,-14.136 0,-36.815 3.375,-73.63 3.375,-110.445 0,-36.815 -7.294,-73.63 -7.294,-110.445 0,-36.815 9.442,-73.63 9.442,-110.445 0,-36.815 -9.442,-73.63 -9.442,-110.445 0,-36.815 7.294,-73.63 7.294,-110.444 0,-36.815 -3.375,-73.63 -3.375,-110.445 0,-4.91 1.408,-9.611 2.661,-14.137 1.252,-4.526 2.818,-8.906 5.149,-12.874 2.331,-3.967 5.207,-7.584 8.444,-10.82 3.236,-3.237 6.853,-6.113 10.82,-8.444 3.968,-2.331 8.348,-3.897 12.874,-5.149 4.526,-1.253 9.227,-2.661 14.137,-2.661z"/></g></svg>