<?xml version="1.0" encoding="UTF-8" standalone="no"?><svg xmlns="http://www.w3.org/2000/svg" xmlns:xlink="http://www.w3.org/1999/xlink" contentScriptType="text/ecmascript" fill="#000000" width="236.5" zoomAndPan="magnify" contentStyleType="text/css" viewBox="94.2 85.8 236.5 253.5" height="253.5" preserveAspectRatio="xMidYMid meet" version="1"><g><g id="change1_2"><path fill="#95c127" d="M165.77,135.55c16.55,16.74,16.4,43.71,16.4,43.71s-26.98-0.16-43.52-16.9 c-16.55-16.74-20.55-39.61-16.4-43.71C126.4,114.55,149.22,118.82,165.77,135.55z"/></g><g id="change2_6"><path fill="#68a52c" d="M173.39,168.51c-13.5-13.65-27-27.31-40.5-40.96c-1.19-1.21-3.06,0.66-1.86,1.86 c13.5,13.65,27,27.31,40.5,40.96C172.72,171.58,174.58,169.72,173.39,168.51L173.39,168.51z"/></g><g id="change2_7"><path fill="#68a52c" d="M166.01,160.36c-2.71-4.97-3.21-10.11-0.98-15.37c0.65-1.54-1.61-2.89-2.27-1.33 c-2.61,6.16-2.23,12.16,0.98,18.03C164.55,163.18,166.82,161.85,166.01,160.36L166.01,160.36z"/></g><g id="change2_8"><path fill="#68a52c" d="M150.75,145.39c-2.4-3.97-3.03-8.41-1.82-12.88c0.44-1.64-2.1-2.34-2.54-0.7 c-1.39,5.13-0.66,10.36,2.09,14.91C149.35,148.17,151.63,146.85,150.75,145.39L150.75,145.39z"/></g><g fill="#68a52c" id="change2_2"><path fill="inherit" d="M162.43,156.97c-5.66-3.18-11.65-3.79-17.7-1.3c-1.55,0.64-0.87,3.18,0.7,2.54 c5.41-2.22,10.56-1.83,15.67,1.03C162.58,160.07,163.91,157.8,162.43,156.97L162.43,156.97z"/><path fill="inherit" d="M147.64,141.54c-4.52-2.8-9.75-3.58-14.89-2.25c-1.64,0.42-0.94,2.96,0.7,2.54 c4.49-1.16,8.93-0.46,12.86,1.98C147.76,144.71,149.08,142.43,147.64,141.54L147.64,141.54z"/></g><g><g id="change1_1"><path fill="#95c127" d="M225.72,162.56c-16.74,16.55-43.71,16.4-43.71,16.4s0.16-26.98,16.9-43.52s39.61-20.55,43.71-16.4 C246.72,123.18,242.46,146.01,225.72,162.56z"/></g><g id="change2_3"><path fill="#68a52c" d="M192.76,170.17c13.65-13.5,27.31-27,40.96-40.5c1.21-1.19-0.66-3.06-1.86-1.86 c-13.65,13.5-27.31,27-40.96,40.5C189.69,169.5,191.55,171.37,192.76,170.17L192.76,170.17z"/></g><g id="change2_4"><path fill="#68a52c" d="M200.91,162.8c4.97-2.71,10.11-3.21,15.37-0.98c1.54,0.65,2.89-1.61,1.33-2.27 c-6.16-2.61-12.16-2.23-18.03,0.98C198.1,161.34,199.42,163.61,200.91,162.8L200.91,162.8z"/></g><g id="change2_5"><path fill="#68a52c" d="M215.88,147.53c3.97-2.4,8.41-3.03,12.88-1.82c1.64,0.44,2.34-2.1,0.7-2.54 c-5.13-1.39-10.36-0.66-14.91,2.09C213.1,146.14,214.43,148.41,215.88,147.53L215.88,147.53z"/></g><g fill="#68a52c" id="change2_1"><path fill="inherit" d="M204.3,159.22c3.18-5.66,3.79-11.65,1.3-17.7c-0.64-1.55-3.18-0.87-2.54,0.7 c2.22,5.41,1.83,10.56-1.03,15.67C201.2,159.37,203.47,160.7,204.3,159.22L204.3,159.22z"/><path fill="inherit" d="M219.73,144.43c2.8-4.52,3.58-9.75,2.25-14.89c-0.42-1.64-2.96-0.94-2.54,0.7 c1.16,4.49,0.46,8.93-1.98,12.86C216.57,144.54,218.84,145.87,219.73,144.43L219.73,144.43z"/></g></g><g id="change3_1"><path fill="#b2cc17" d="M182.17,240.55L182.17,240.55c-3.5,0-6.34-2.84-6.34-6.34v-68.02c0-3.5,2.84-6.34,6.34-6.34h0 c3.5,0,6.34,2.84,6.34,6.34v68.02C188.5,237.71,185.67,240.55,182.17,240.55z"/></g><g><g id="change3_2"><path fill="#b2cc17" d="M201.24,128.59c-0.13,23.54-19.31,42.51-19.31,42.51s-18.96-19.19-18.83-42.73s13.48-42.54,19.31-42.51 C188.25,85.9,201.37,105.05,201.24,128.59z"/></g><g id="change4_2"><path fill="#73b731" d="M183.32,157.28c0.11-19.2,0.22-38.4,0.33-57.6c0.01-1.69-2.62-1.7-2.63,0 c-0.11,19.2-0.22,38.4-0.33,57.6C180.68,158.98,183.31,158.98,183.32,157.28L183.32,157.28z"/></g><g id="change4_3"><path fill="#73b731" d="M183.87,146.31c1.51-5.39,4.93-9.52,10.2-11.58c1.56-0.61,0.88-3.16-0.7-2.54 c-6.15,2.4-10.26,7.07-12.04,13.42C180.87,147.25,183.41,147.95,183.87,146.31L183.87,146.31z"/></g><g id="change4_4"><path fill="#73b731" d="M183.66,124.94c1.07-4.48,3.82-8.16,7.84-10.42c1.48-0.83,0.15-3.11-1.33-2.27 c-4.58,2.58-7.83,6.88-9.05,12C180.73,125.89,183.26,126.59,183.66,124.94L183.66,124.94z"/></g><g fill="#73b731" id="change4_1"><path fill="inherit" d="M183.73,141.36c-1.71-6.37-5.77-11.07-11.89-13.54c-1.57-0.63-2.25,1.91-0.7,2.54 c5.24,2.12,8.6,6.3,10.05,11.7C181.63,143.69,184.17,143,183.73,141.36L183.73,141.36z"/><path fill="inherit" d="M184.19,119.99c-1.16-5.13-4.37-9.46-8.92-12.09c-1.47-0.85-2.8,1.42-1.33,2.27 c3.99,2.31,6.7,6.02,7.71,10.52C182.02,122.34,184.56,121.64,184.19,119.99L184.19,119.99z"/></g></g><g id="change5_1"><path fill="#dc7d3f" d="M245.78,210.99c-0.46-0.03-0.91-0.03-1.35-0.01c-2.42-5.75-7.9-9.97-14.55-10.45 c-1.62-0.12-3.2,0.01-4.72,0.33c-2.12-6.37-7.9-11.16-15.02-11.68c-3.67-0.26-7.14,0.66-10.06,2.42 c-3.85-3.33-8.75-5.52-14.22-5.91c-0.35-0.03-0.69-0.01-1.04-0.02c-0.35-0.04-0.68-0.1-1.03-0.13 c-5.47-0.39-10.63,1.06-14.92,3.81c-2.64-2.17-5.95-3.58-9.61-3.84c-7.12-0.51-13.52,3.4-16.54,9.4c-1.46-0.53-3-0.88-4.62-1 c-6.65-0.48-12.67,2.91-15.9,8.26c-0.44-0.09-0.88-0.16-1.34-0.19c-6-0.43-11.22,4.08-11.65,10.08 c-0.43,6,4.08,11.22,10.08,11.65c1.85,0.13,3.62-0.2,5.2-0.91c2.83,2.97,6.72,4.95,11.14,5.27c2.06,0.15,4.05-0.09,5.92-0.63 c2.64,5.16,7.81,8.86,14.01,9.31c3.35,0.24,6.53-0.51,9.28-1.99c3.24,4.8,8.56,8.12,14.78,8.57c6.65,0.48,12.76-2.44,16.65-7.27 c2.73,2.46,6.24,4.08,10.19,4.37c6.2,0.45,11.85-2.47,15.2-7.2c1.78,0.8,3.71,1.32,5.77,1.47c4.42,0.32,8.55-1.08,11.78-3.62 c1.46,0.92,3.17,1.51,5.01,1.64c6,0.43,11.22-4.08,11.65-10.08C256.29,216.64,251.78,211.43,245.78,210.99z"/></g><g fill="#a86230" id="change6_1"><circle fill="inherit" r="5.42" cx="152.32" cy="212.11"/><circle fill="inherit" r="3.08" cx="152.55" cy="198.59"/><circle fill="inherit" r="3.08" cx="139.61" cy="207.57"/></g><g fill="#a86230" id="change6_2"><circle fill="inherit" r="5.42" cx="213.21" cy="216.66"/><circle fill="inherit" r="3.08" cx="214.93" cy="203.26"/><circle fill="inherit" r="3.08" cx="226.44" cy="213.99"/></g><g><g id="change7_1"><circle fill="#414343" r="31.78" cx="127.57" cy="307.56"/></g><g id="change8_1"><circle fill="#ffd91d" r="14.99" cx="127.57" cy="307.56"/></g><g id="change9_1"><path fill="#fab725" d="M125.99,312.45c-0.26,0-0.53-0.04-0.8-0.11c-1.61-0.44-2.56-2.1-2.12-3.71l17.11-62.44 c0.44-1.61,2.1-2.55,3.71-2.12c1.61,0.44,2.56,2.1,2.12,3.71l-17.11,62.44C128.54,311.57,127.32,312.45,125.99,312.45z"/></g><g id="change8_2"><path fill="#ffd91d" d="M249.47,294.46h-81.48c-2.41,0-4.7-1.01-6.33-2.79l-60.81-66.56c-0.45-0.5-0.87-1.03-1.17-1.63 c-2.31-4.61,0.78-10.36,6.18-10.69c16.08-0.99,44.9-1.94,75.68,1.04c35.18,3.41,63.95,11.08,76.02,14.67 c3.63,1.08,6.12,4.42,6.12,8.21v43.54C263.67,288.1,257.31,294.46,249.47,294.46z"/></g><g id="change9_2"><path fill="#fab725" d="M182.98,213.83c-30.78-2.98-59.72-2.68-75.79-1.57c-11.51,0.79-12.97,3.86-12.14,8.52 c1.21,6.8,10.8,4.91,12.26,4.82c16.08-0.99,44.9-1.94,75.68,1.04c35.96,3.49,68.34,12.34,81.35,16.24 c3.32,0.99,6.8-0.96,7.69-4.31l0,0c0.84-3.19-0.99-6.47-4.15-7.43C254.58,227.12,219.68,217.39,182.98,213.83z"/></g><g id="change9_3"><path fill="#fab725" d="M116.73,315.57c-1.26,0-2.44-0.8-2.86-2.06c-0.53-1.58,0.32-3.3,1.9-3.83l42.84-14.43 c5.85-2.53,12.05-3.82,18.42-3.82h62.53c0.11,0,11.33-0.12,17.27-6.61c2.33-2.55,4.25-5.03,5.95-7.22 c1.6-2.06,2.99-3.85,4.45-5.39l32.4-46.47c0.38-0.54,0.92-0.95,1.55-1.15l25.22-8.11c1.59-0.51,3.29,0.36,3.8,1.95 c0.51,1.59-0.36,3.29-1.95,3.8l-24.25,7.8l-31.95,45.83c-0.09,0.13-0.19,0.25-0.3,0.37c-1.3,1.35-2.64,3.08-4.19,5.08 c-1.77,2.28-3.77,4.86-6.26,7.59c-7.75,8.48-21.16,8.58-21.73,8.58h-62.53c-5.58,0-11.01,1.13-16.13,3.36 c-0.08,0.03-0.16,0.07-0.24,0.09l-42.96,14.47C117.37,315.52,117.05,315.57,116.73,315.57z"/></g><g id="change7_2"><path fill="#414343" d="M330.21,218.44c-0.51-1.59-2.21-2.46-3.8-1.95l-24.61,7.91c0.54,1.97,1.27,3.88,2.14,5.73l0.07-0.1 l24.25-7.8C329.84,221.73,330.72,220.03,330.21,218.44z"/></g><g id="change9_4"><path fill="#fab725" d="M246.86,327.28c-2.45,0-4.92-0.46-7.27-1.38l-69.76-27.47c-1.55-0.61-2.32-2.37-1.7-3.92 c0.61-1.55,2.37-2.32,3.92-1.7l69.76,27.47c4.32,1.7,8.99,1.18,12.82-1.43c3.83-2.61,6.03-6.77,6.03-11.41v-22.52 c0-1.67,1.35-3.02,3.02-3.02s3.02,1.35,3.02,3.02v22.52c0,6.57-3.24,12.7-8.67,16.4C254.68,326.12,250.78,327.28,246.86,327.28 z"/></g></g></g></svg>