<?xml version="1.0" encoding="UTF-8" standalone="no"?><svg xmlns="http://www.w3.org/2000/svg" xmlns:xlink="http://www.w3.org/1999/xlink" contentScriptType="text/ecmascript" fill="#000000" width="88" zoomAndPan="magnify" contentStyleType="text/css" viewBox="0.1 0.0 88.0 118.5" height="118.5" preserveAspectRatio="xMidYMid meet" version="1"><g data-name="Layer 2"><g id="change1_1" data-name="Women Portraits"><path fill="#ffffff" d="M88.13,60v-.32c0-1.08-.07-2.21-.21-3.3l-.06-.47c-.09-.72-.18-1.47-.31-2.2,0-.2-.08-.41-.11-.61-.07-.42-.14-.86-.24-1.28l-.42-2c-.09-.43-.2-.87-.31-1.29-.06-.21-.11-.41-.16-.62-.29-1.14-.65-2.28-1-3.38l0-.12c-.05-.16-.1-.31-.15-.48a.43.43,0,0,1,0,0c0-.08,0-.17,0-.25a4.5,4.5,0,0,0-.08-.51c-.11-.44-.2-.89-.3-1.34l-.15-.68c-.21-.9-.46-1.81-.71-2.68-.08-.31-.16-.61-.25-.91s-.21-.72-.33-1.06l-.15-.49c-.06-.18-.12-.37-.17-.56-.12-.38-.24-.76-.37-1.14L82,32.7l-.19-.52-.1-.28c-.12-.34-.25-.69-.39-1l-.72-1.72-.26-.61c-.22-.51-.47-1-.71-1.5l0-.06-.53-1.07-.54-1.09c-.17-.35-.37-.7-.56-1l-.26-.46-.08-.15c-.23-.41-.46-.83-.72-1.24l-.37-.6-.39-.61L76,20.54a3,3,0,0,0-.24-.38l-.65-.93-.62-.89c-.25-.36-.53-.71-.79-1.05l-.34-.44c-.83-1.1-1.78-2.14-2.69-3.14l-.15-.16c-.3-.33-.64-.65-1-1l-.47-.44A31.06,31.06,0,0,0,66.17,9.6a40.62,40.62,0,0,0-8.32-4.92l0,0-1.37-.6L56.21,4l-.46-.2-1.27-.48-.92-.35c-.78-.3-1.52-.56-2.25-.8L50.78,2c-.87-.3-1.77-.6-2.68-.83a38,38,0,0,0-6.32-1C40.62,0,39.55,0,38.5,0s-1.87,0-2.74.11a36.71,36.71,0,0,0-6.38,1.06c-1.07.28-2,.58-3,.91s-2.13.76-3.18,1.2A30.72,30.72,0,0,0,18.15,6a31.79,31.79,0,0,0-4.81,3.7,31,31,0,0,0-3.83,4.5C9,15,8.47,15.73,8,16.51l-.11.18c-.2.35-.41.71-.59,1.08l-.55,1.11L6.23,20l0,.09c-.27.54-.55,1.1-.78,1.66l-.25.6c-.41,1-.85,2-1.22,3.08-.07.2-.14.4-.22.6-.15.41-.31.84-.44,1.26l-.3,1-.33,1.05c-.13.41-.23.83-.32,1.25-.05.19-.09.38-.14.58-.14.55-.24,1-.32,1.38l-.06.32L1.38,35c-.1.49-.17,1-.24,1.47,0,.15,0,.3-.07.44s-.07.46-.1.68c-.15,1-.3,2-.4,3l-.09.95c-.09.88-.18,1.8-.23,2.7s-.08,1.7-.13,2.55v.05l0,.31c0,.29,0,.6,0,.89,0,.79,0,1.57,0,2.36,0,.19,0,.38,0,.57,0,.38,0,.78,0,1.18l.09,2.61,0,1.42c0,.28,0,.56.06.84l0,.3.11,1.3.11,1.3c.08,1,.2,1.92.31,2.85l.09.75c.05.48.11.92.17,1.33s.07.54.11.81c.08.65.17,1.32.29,2,.06.33.11.66.17,1,.13.76.26,1.56.43,2.33.09.42.17.83.26,1.25.17.82.34,1.68.55,2.51.12.52.25,1,.37,1.55l.15.62c.05.18.09.37.13.56.09.38.18.77.29,1.15.34,1.26.69,2.51,1,3.76.1.36.22.73.34,1.08,0,.17.11.34.16.51.21.65.41,1.29.61,1.94l0,0c.11.37.25.74.38,1.1.07.18.14.36.2.54l.21.57c.13.38.26.78.42,1.16s.3.76.46,1.14l.36.89c.2.49.42,1,.63,1.42l.3.66c.26.54.52,1.11.8,1.65l.52,1,.52,1c.52,1,1.16,2,1.77,2.91l.22.35c.66,1,1.42,2,2.16,2.9l.19.24c.39.5.84,1,1.26,1.45l.48.52c.42.48.8.88,1.18,1.25l.39.39c.3.31.62.62.95.91l.58.49,1.19,1,.4.3.21.14c.36.27.72.54,1.09.8h0c.56.41,1.16.81,1.73,1.19l.49.32c.55.37,1.12.73,1.68,1.08l0,0a6.48,6.48,0,0,0,.57.33l.17.09.31.17c.2.11.4.23.61.33l.53.27c.39.19.79.4,1.19.58l.37.18c.23.11.48.23.73.33l.8.31.22.09.08,0c.48.19,1,.39,1.49.55l1.22.39.09,0c.49.16,1,.28,1.5.4l.53.13c.5.13,1,.22,1.52.31l.57.1c.5.09,1,.15,1.51.21l.54.07c1.78.22,3.57.33,5.09.41l.87,0h1.19c.62,0,1.26,0,1.9-.11a31.2,31.2,0,0,0,5.34-.9c.5-.14,1-.29,1.47-.47.66-.23,1.35-.48,2-.76a20.25,20.25,0,0,0,2.33-1.17c1.11-.65,2.17-1.39,3.19-2.11l.15-.1A35.15,35.15,0,0,0,71,107.4l-.06.06-.05.07.4-.46.38-.43.11-.12h0c1.1-1.22,2-2.34,2.82-3.4l.31-.42c.65-.85,1.31-1.73,1.91-2.62L77,99.7c.6-.89,1.22-1.81,1.79-2.74s1.27-2.17,2-3.46c.25-.47.5-.94.73-1.41.09-.2.19-.4.29-.61.3-.6.61-1.22.89-1.84.45-1,1-2.33,1.56-3.7.44-1.19.79-2.42,1.13-3.61s.57-2.18.8-3.29c.29-1.39.52-2.65.72-3.84.24-1.46.43-3,.61-4.39l0-.09c.33-2.68.46-5.35.54-7.38C88.15,62,88.16,60.92,88.13,60ZM14.88,90.22l-.06-.15.07.17Z"/></g></g></svg>