<?xml version="1.0" encoding="UTF-8" standalone="no"?><svg xmlns="http://www.w3.org/2000/svg" xmlns:xlink="http://www.w3.org/1999/xlink" contentScriptType="text/ecmascript" fill="#000000" width="526.2" zoomAndPan="magnify" contentStyleType="text/css" viewBox="-19.0 0.0 526.2 717.3" height="717.3" preserveAspectRatio="xMidYMid meet" version="1"><g id="change1_1"><path fill="#ffe977" clip-rule="evenodd" d="M179.4,711.5c-24.3-14.1-77.6-146.4-90.8-170.5 C67.4,502.5,49.3,470,37,432.9C-10.2,291.4-19,191,50.8,51.4C54.1,44.8,71.2,0,76.5,0c8,0,13.8,48.9,13.8,55.3 c0,43.8,14.6,92.8,5.9,136.4c-20.1,100.6-9.2,186.5,27.7,278.7c12.8,31.9,21.6,68.6,29.6,100.8c3.8,15.3,15.8,34.9,15.8,47.4 c0,6.6,2,26.4,2,19.8c0-53.9,18.4-156.3,2-205.6c-25.7-77-14-252.8,41.5-308.3c11.7-11.7,32.4-45.7,37.6-61.3 c1.7-5,7.9-13.8,7.9-13.8s-1,10.6,0,15.8c4.2,21.2,2,45.2,2,67.2c0,24.7,17.5,85.5,7.9,104.8c-7,14-9.2,37.5-11.9,53.4 c-6.1,36.3-26.2,74.5-37.6,108.7c-13.6,40.8-11.9,112.8-11.9,156.2c0,24.9-9.9,48-9.9,69.2c0,4-2,11.9-2,11.9s2.4-6.7,4-9.9 c8.6-17.2,15.3-37.8,25.7-53.4c21.5-32.3,18.5-75.2,39.5-106.7c40.2-60.2,82.7-101.9,146.3-144.3c16.6-11.1,46.8-33.6,69.2-33.6 c2.4,0,17.3-11.4,17.8-9.9c7.8,23.5-75.5,134.8-92.9,152.2c-22.9,22.9-56,32.3-79.1,55.3c-26,26-47.7,57.7-67.2,87 c-19.1,28.6-33.2,72.7-55.3,94.9C199.6,673.5,179.4,717.3,179.4,711.5L179.4,711.5z" fill-rule="evenodd"/></g></svg>