<?xml version="1.0" encoding="UTF-8" standalone="no"?><svg xmlns="http://www.w3.org/2000/svg" xmlns:xlink="http://www.w3.org/1999/xlink" contentScriptType="text/ecmascript" fill="#000000" width="240.3" zoomAndPan="magnify" contentStyleType="text/css" viewBox="93.1 84.0 240.3 256.2" height="256.2" preserveAspectRatio="xMidYMid meet" version="1"><g><g><path fill="#b2cc17" d="M237.88,124.02c-8.13,3.75-10.17,16.55-11.38,22.55c-3.48-5.04-13.82-15.05-22.78-15.28 c-11.93-0.31-0.41,4.82-0.41,4.82s17.98,11.49,20.26,26.88l3.02,19.45c0.09,0.42,0.49,0.69,0.91,0.6l3.65-0.75l5.17-1.06 l3.65-0.75c0.42-0.09,0.69-0.49,0.6-0.91l-4.76-19.09c-5.1-16.9,4.92-30.3,4.92-30.3S248.72,119.02,237.88,124.02z"/></g><g><path fill="#68a52c" d="M253.87,109.39c0.61-1.88,0.76-3.94,0.34-6.02c-1.31-6.39-7.56-10.5-13.94-9.19 c-0.48,0.1-0.95,0.23-1.4,0.38c-0.01-0.03-0.01-0.06-0.02-0.09c-1.31-6.39-7.56-10.5-13.95-9.19c-2.42,0.5-4.51,1.7-6.1,3.35 c-2.61-1.96-6.02-2.83-9.46-2.12c-5.6,1.15-9.45,6.1-9.43,11.6c-1.49-0.29-3.06-0.3-4.65,0.02c-6.39,1.31-10.5,7.56-9.19,13.95 c0.05,0.24,0.11,0.48,0.17,0.72c-5.86,3.28-9.2,10.08-7.77,17c1.76,8.56,10.13,14.08,18.69,12.32 c6.65-1.37,11.46-6.72,12.45-13.05c1.31,0.18,2.66,0.15,4.03-0.13c1.7-0.35,3.23-1.05,4.55-2.01c3.35,5.63,10.01,8.8,16.79,7.41 c3.48-0.72,6.46-2.52,8.65-4.99c2.71,2.74,6.71,4.1,10.77,3.26c6.39-1.31,10.5-7.56,9.19-13.95 C262.57,113.72,258.59,110.14,253.87,109.39z"/></g><g><ellipse rx="60.65" ry="21.97" fill="#ffd91d" cx="258.14" transform="rotate(-74.58 258.144 178.404)" cy="178.4"/></g><g><path fill="#f8aa27" d="M273.69,122.01c-1.62,7.04-3.4,14.03-5.21,21.01c-1.8,6.99-3.73,13.94-5.59,20.91 c-1.97,6.94-3.89,13.9-5.92,20.82c-2.03,6.92-4.09,13.84-6.3,20.71c1.62-7.04,3.4-14.03,5.21-21.02 c1.8-6.99,3.73-13.94,5.59-20.91c1.98-6.94,3.89-13.9,5.92-20.82C269.42,135.8,271.48,128.88,273.69,122.01z"/></g><g><path fill="#f8aa27" d="M263.3,125.78c-1.62,7.04-3.4,14.03-5.21,21.01c-1.8,6.99-3.73,13.94-5.59,20.91 c-1.97,6.94-3.89,13.9-5.92,20.82c-2.03,6.92-4.09,13.84-6.3,20.71c1.62-7.04,3.4-14.03,5.21-21.02 c1.8-6.99,3.73-13.94,5.59-20.91c1.98-6.94,3.88-13.9,5.92-20.82C259.03,139.57,261.09,132.65,263.3,125.78z"/></g><g><path fill="#f8aa27" d="M281.05,133.56c-1.62,7.04-3.4,14.03-5.21,21.01c-1.8,6.99-3.73,13.94-5.59,20.91 c-1.97,6.94-3.89,13.9-5.92,20.82c-2.03,6.92-4.09,13.84-6.3,20.71c1.62-7.04,3.4-14.03,5.21-21.02 c1.8-6.99,3.73-13.94,5.59-20.91c1.98-6.94,3.89-13.9,5.92-20.82C276.78,147.35,278.84,140.44,281.05,133.56z"/></g><g><path fill="#f8aa27" d="M253.6,139.09c2.25,0.94,4.51,1.77,6.77,2.58c2.27,0.79,4.55,1.53,6.85,2.16c2.3,0.67,4.63,1.22,6.97,1.69 c2.35,0.5,4.72,0.84,7.13,1.21c-2.42,0.2-4.89,0.24-7.31-0.07c-2.44-0.25-4.84-0.75-7.2-1.41 C262.13,143.91,257.56,141.96,253.6,139.09z"/></g><g><path fill="#f8aa27" d="M249.18,149.83c4.87,2.79,9.84,5.06,15.06,6.52c2.59,0.78,5.26,1.31,7.96,1.63 c2.71,0.4,5.44,0.38,8.27,0.49c-2.68,0.82-5.53,1.33-8.38,1.25c-1.43,0.07-2.85-0.18-4.27-0.3c-1.4-0.27-2.82-0.51-4.19-0.93 c-2.74-0.8-5.4-1.89-7.85-3.36C253.34,153.69,251.05,151.96,249.18,149.83z"/></g><g><path fill="#f8aa27" d="M247.1,162.67c4.87,2.79,9.84,5.06,15.06,6.52c2.6,0.78,5.26,1.31,7.96,1.63c2.71,0.4,5.44,0.38,8.27,0.49 c-2.68,0.82-5.53,1.33-8.38,1.25c-1.44,0.07-2.85-0.18-4.28-0.3c-1.4-0.27-2.82-0.51-4.19-0.93c-2.74-0.8-5.4-1.89-7.85-3.36 C251.26,166.53,248.96,164.8,247.1,162.67z"/></g><g><path fill="#f8aa27" d="M243.05,176.73c4.87,2.79,9.84,5.06,15.06,6.52c2.59,0.78,5.26,1.31,7.96,1.63 c2.71,0.4,5.44,0.38,8.27,0.49c-2.68,0.82-5.53,1.33-8.38,1.25c-1.44,0.07-2.85-0.18-4.28-0.3c-1.4-0.27-2.82-0.51-4.19-0.93 c-2.74-0.8-5.4-1.89-7.85-3.36C247.21,180.59,244.92,178.86,243.05,176.73z"/></g><g><path fill="#95c127" d="M247.91,246.32l-15.8-4.36c-2.31-0.64-3.68-3.05-3.04-5.36v0c0.64-2.31,3.05-3.68,5.36-3.04l15.8,4.36 c2.31,0.64,3.68,3.05,3.04,5.36v0C252.64,245.58,250.22,246.95,247.91,246.32z"/></g><g><g><path fill="#95c127" d="M294.46,119.22c7.95,8.05,7.88,21.01,7.88,21.01s-12.97-0.08-20.92-8.12c-7.95-8.05-9.88-19.04-7.88-21.01 C275.53,109.12,286.5,111.17,294.46,119.22z"/></g><g><path fill="#68a52c" d="M298.12,135.06c-6.49-6.56-12.98-13.13-19.47-19.69c-0.57-0.58-1.47,0.31-0.9,0.9 c6.49,6.56,12.98,13.13,19.47,19.69C297.8,136.53,298.69,135.64,298.12,135.06L298.12,135.06z"/></g><g><path fill="#68a52c" d="M294.57,131.14c-1.3-2.39-1.54-4.86-0.47-7.39c0.31-0.74-0.78-1.39-1.09-0.64 c-1.26,2.96-1.07,5.85,0.47,8.66C293.87,132.49,294.97,131.86,294.57,131.14L294.57,131.14z"/></g><g><path fill="#68a52c" d="M287.24,123.95c-1.15-1.91-1.46-4.04-0.88-6.19c0.21-0.79-1.01-1.12-1.22-0.34 c-0.67,2.47-0.32,4.98,1,7.17C286.57,125.28,287.66,124.65,287.24,123.95L287.24,123.95z"/></g><g><path fill="#68a52c" d="M292.86,129.51c-2.72-1.53-5.6-1.82-8.51-0.62c-0.74,0.31-0.42,1.53,0.34,1.22 c2.6-1.07,5.08-0.88,7.53,0.5C292.93,131,293.57,129.91,292.86,129.51L292.86,129.51z"/></g><g><path fill="#68a52c" d="M285.75,122.09c-2.17-1.35-4.68-1.72-7.16-1.08c-0.79,0.2-0.45,1.42,0.34,1.22 c2.16-0.56,4.29-0.22,6.18,0.95C285.8,123.62,286.44,122.52,285.75,122.09L285.75,122.09z"/></g><g><path fill="#95c127" d="M323.28,132.2c-8.05,7.95-21.01,7.88-21.01,7.88s0.08-12.97,8.12-20.92s19.04-9.88,21.01-7.88 C333.37,113.27,331.32,124.24,323.28,132.2z"/></g><g><path fill="#68a52c" d="M307.43,135.86c6.56-6.49,13.13-12.98,19.69-19.47c0.58-0.57-0.31-1.47-0.9-0.9 c-6.56,6.49-13.13,12.98-19.69,19.47C305.96,135.54,306.85,136.43,307.43,135.86L307.43,135.86z"/></g><g><path fill="#68a52c" d="M311.35,132.31c2.39-1.3,4.86-1.54,7.39-0.47c0.74,0.31,1.39-0.78,0.64-1.09 c-2.96-1.26-5.85-1.07-8.66,0.47C310,131.61,310.64,132.7,311.35,132.31L311.35,132.31z"/></g><g><path fill="#68a52c" d="M318.55,124.98c1.91-1.15,4.04-1.46,6.19-0.88c0.79,0.21,1.12-1.01,0.34-1.22 c-2.47-0.67-4.98-0.32-7.17,1C317.21,124.3,317.85,125.4,318.55,124.98L318.55,124.98z"/></g><g fill="#68a52c"><path fill="inherit" d="M312.98,130.59c1.53-2.72,1.82-5.6,0.62-8.51c-0.31-0.74-1.53-0.42-1.22,0.34 c1.07,2.6,0.88,5.08-0.5,7.53C311.49,130.67,312.58,131.3,312.98,130.59L312.98,130.59z"/><path fill="inherit" d="M320.4,123.48c1.35-2.17,1.72-4.68,1.08-7.16c-0.2-0.79-1.42-0.45-1.22,0.34 c0.56,2.16,0.22,4.29-0.95,6.18C318.88,123.54,319.97,124.18,320.4,123.48L320.4,123.48z"/></g><g><g><path fill="#b2cc17" d="M311.51,115.87c-0.06,11.31-9.28,20.43-9.28,20.43s-9.11-9.22-9.05-20.54 c0.06-11.31,6.48-20.45,9.28-20.43C305.27,95.35,311.57,104.56,311.51,115.87z"/></g><g><path fill="#73b731" d="M302.9,129.66c0.05-9.23,0.11-18.46,0.16-27.69c0-0.81-1.26-0.82-1.27,0 c-0.05,9.23-0.11,18.46-0.16,27.69C301.63,130.48,302.89,130.48,302.9,129.66L302.9,129.66z"/></g><g><path fill="#73b731" d="M303.16,124.39c0.73-2.59,2.37-4.58,4.9-5.56c0.75-0.29,0.42-1.52-0.34-1.22 c-2.96,1.15-4.93,3.4-5.79,6.45C301.72,124.84,302.94,125.17,303.16,124.39L303.16,124.39z"/></g><g><path fill="#73b731" d="M303.06,114.12c0.51-2.16,1.84-3.92,3.77-5.01c0.71-0.4,0.07-1.49-0.64-1.09 c-2.2,1.24-3.76,3.31-4.35,5.77C301.65,114.57,302.87,114.91,303.06,114.12L303.06,114.12z"/></g><g fill="#73b731"><path fill="inherit" d="M303.09,122.01c-0.82-3.06-2.77-5.32-5.72-6.51c-0.76-0.3-1.08,0.92-0.34,1.22 c2.52,1.02,4.13,3.03,4.83,5.63C302.08,123.13,303.31,122.8,303.09,122.01L303.09,122.01z"/><path fill="inherit" d="M303.31,111.73c-0.56-2.47-2.1-4.55-4.29-5.81c-0.71-0.41-1.34,0.68-0.64,1.09 c1.92,1.11,3.22,2.9,3.71,5.06C302.27,112.87,303.49,112.53,303.31,111.73L303.31,111.73z"/></g></g><g><path fill="#fab725" d="M321.03,161.01c0,19.52-10.28,66.27-18.82,66.27c-8.43,0-18.71-46.74-18.71-66.27s8.34-29.75,18.71-29.75 C312.57,131.27,321.03,141.49,321.03,161.01z"/></g><g><path fill="#f39128" d="M295.69,157.2c-5.9,0-9.71-1.05-9.93-1.11c-0.57-0.16-0.9-0.75-0.74-1.32c0.16-0.57,0.76-0.91,1.32-0.74 c0.07,0.02,7.26,1.98,17.05,0.41c0.59-0.1,1.14,0.31,1.23,0.89c0.09,0.59-0.31,1.14-0.89,1.23 C300.78,157.04,298.07,157.2,295.69,157.2z"/></g><g><path fill="#f39128" d="M310.44,191.41c-4.93,0-7.98-0.83-8.14-0.88c-0.57-0.16-0.9-0.75-0.74-1.32c0.16-0.57,0.75-0.9,1.32-0.75 c0.05,0.01,4.77,1.29,11.92,0.58c0.57-0.06,1.12,0.37,1.17,0.96c0.06,0.59-0.37,1.12-0.96,1.17 C313.35,191.34,311.82,191.41,310.44,191.41z"/></g><g><path fill="#f39128" d="M298.93,204.81c-3.89,0-5.9-0.49-6.02-0.51c-0.58-0.14-0.92-0.72-0.78-1.3c0.14-0.58,0.71-0.93,1.3-0.79 c0.04,0.01,3.73,0.88,10.86,0.17c0.58-0.06,1.12,0.37,1.17,0.96c0.06,0.59-0.37,1.12-0.96,1.17 C302.35,204.73,300.49,204.81,298.93,204.81z"/></g><g><path fill="#f39128" d="M313.24,164.21c-3.89,0-5.89-0.49-6.01-0.51c-0.58-0.14-0.92-0.72-0.78-1.3c0.14-0.58,0.71-0.93,1.3-0.79 c0.04,0.01,3.72,0.88,10.86,0.17c0.56-0.05,1.12,0.37,1.17,0.96c0.06,0.59-0.37,1.12-0.96,1.17 C316.66,164.14,314.8,164.21,313.24,164.21z"/></g><g><path fill="#f39128" d="M292.89,177.6c-3.89,0-5.9-0.48-6.01-0.51c-0.58-0.14-0.92-0.72-0.78-1.3c0.14-0.58,0.72-0.93,1.3-0.79 c0.04,0.01,3.73,0.88,10.86,0.17c0.57-0.05,1.12,0.37,1.17,0.96c0.06,0.59-0.37,1.12-0.96,1.17 C296.31,177.53,294.45,177.6,292.89,177.6z"/></g></g><g><g><path fill="#b2cc17" d="M173.42,146.6c-13.35-9.59-11.65-32.17,3.05-39.86c8.46-4.42,19.75-0.07,22.11,9.49 c1.85,7.5-3.6,14.06-11.31,13.93c-13.05-0.22-5.61-16.74,0.04-13.51c1.7,0.97,3.23-1.65,1.53-2.62 c-9.32-5.33-16.63,12.03-8.17,17.5c4.62,2.98,11.65,1.89,15.9-1.22c4.73-3.46,6.31-9.33,4.93-14.88 c-2.49-10.02-13.69-15.79-23.38-12.66c-8.2,2.64-13.86,10.48-15.98,18.56c-2.8,10.69,0.72,21.42,9.74,27.9 C173.48,150.37,175,147.73,173.42,146.6L173.42,146.6z"/></g><g><ellipse rx="39.18" ry="25.92" fill="#68a52c" cx="165.54" cy="164.47"/></g><g><ellipse rx="40.08" ry="48" fill="#f6a227" cx="133.18" cy="194.84"/></g><g><ellipse rx="40.08" ry="48" fill="#f6a227" cx="200.78" cy="195.92"/></g><g><ellipse rx="40.08" ry="48" fill="#fab725" cx="164.63" cy="194.84"/></g></g><g><g><path fill="#95c127" d="M280.51,153.18c-6.77-4.32-8.76-13.32-8.76-13.32s8.99-1.98,15.77,2.34s9.83,11.64,8.76,13.32 C295.21,157.2,287.29,157.51,280.51,153.18z"/></g><g><path fill="#68a52c" d="M275.5,142.79c5.52,3.53,11.05,7.05,16.57,10.58c0.49,0.31,0.94-0.47,0.45-0.78 c-5.52-3.53-11.05-7.05-16.57-10.58C275.47,141.71,275.02,142.48,275.5,142.79L275.5,142.79z"/></g><g><path fill="#68a52c" d="M278.57,144.95c1.28,1.44,1.82,3.14,1.47,5.05c-0.1,0.57,0.76,0.81,0.87,0.24 c0.41-2.24-0.19-4.23-1.7-5.92C278.82,143.89,278.19,144.52,278.57,144.95L278.57,144.95z"/></g><g><path fill="#68a52c" d="M284.78,148.78c1.1,1.14,1.64,2.58,1.57,4.16c-0.03,0.58,0.87,0.58,0.9,0c0.08-1.81-0.57-3.5-1.83-4.8 C285.02,147.73,284.38,148.37,284.78,148.78L284.78,148.78z"/></g><g fill="#68a52c"><path fill="inherit" d="M280.02,145.81c2.11,0.63,4.18,0.37,5.99-0.92c0.47-0.33,0.02-1.11-0.45-0.78 c-1.63,1.16-3.38,1.4-5.3,0.83C279.71,144.77,279.47,145.64,280.02,145.81L280.02,145.81z"/><path fill="inherit" d="M286.11,149.83c1.72,0.59,3.51,0.44,5.13-0.39c0.51-0.27,0.06-1.04-0.45-0.78 c-1.41,0.73-2.94,0.81-4.43,0.3C285.8,148.77,285.57,149.64,286.11,149.83L286.11,149.83z"/></g><g><path fill="#9b522a" d="M269.88,156.51c-0.1,0.39-0.59,1.06-1.25,1.27c-0.31,0.11-0.6,0.13-0.82,0.11 c-0.14-0.01-0.25-0.03-0.38-0.07c-0.25-0.07-0.52-0.2-0.73-0.37c-0.21-0.16-0.41-0.42-0.37-0.38c-0.09-0.12-0.17-0.27-0.23-0.39 c-0.05-0.11-0.11-0.26-0.13-0.34c-0.06-0.18-0.09-0.32-0.12-0.45c-0.06-0.27-0.09-0.51-0.12-0.74 c-0.05-0.47-0.07-0.91-0.07-1.35c0-0.88,0.08-1.72,0.21-2.55c0.26-1.66,0.72-3.23,1.29-4.74c1.17-3.01,2.8-5.75,4.67-8.24 c0.3-0.4,0.86-0.48,1.26-0.18c0.37,0.28,0.46,0.78,0.24,1.17c-1.5,2.59-2.7,5.33-3.4,8.13c-0.35,1.4-0.57,2.81-0.62,4.2 c-0.02,0.69,0,1.37,0.08,2.02c0.04,0.32,0.09,0.64,0.16,0.92c0.03,0.14,0.07,0.27,0.11,0.38c0.02,0.05,0.04,0.09,0.04,0.09 c0.01,0.02-0.01-0.05-0.02-0.07c-0.04-0.08-0.1-0.19-0.16-0.27c0.04,0.05-0.14-0.2-0.35-0.36c-0.2-0.16-0.46-0.29-0.7-0.35 c-0.13-0.03-0.23-0.05-0.37-0.06c-0.21-0.02-0.5,0-0.81,0.1c-0.66,0.2-1.13,0.86-1.23,1.25c0.35-1.05,1.49-1.62,2.54-1.27 C269.66,154.32,270.23,155.46,269.88,156.51z"/></g><g><path fill="#b2cc17" d="M288.4,185.03c-1.09-1.7-2.33-3.39-2.7-5.37c-1.31-6.99-0.08-14.64-5.43-20.26 c-3.02-3.17-7.23-5.05-11.57-5.42v-0.04c-0.44-0.03-0.89-0.03-1.34-0.02c-0.45-0.01-0.89,0-1.34,0.02v0.04 c-4.34,0.37-8.55,2.25-11.57,5.42c-5.35,5.62-4.12,13.27-5.43,20.26c-0.37,1.98-1.61,3.67-2.7,5.37 c-5.35,8.32-9.13,16.53-7.51,26.51c1,6.18,4.11,9.91,7.28,12.49c2.93,2.38,6.81,3.37,10.53,3.33c1.84-0.02,3.77-0.24,5.52-0.82 c1.52-0.5,3.31-1.46,5.2-1.75c1.9,0.28,3.68,1.24,5.2,1.75c1.76,0.58,3.68,0.81,5.52,0.82c3.73,0.03,7.6-0.95,10.53-3.33 c3.17-2.58,6.28-6.32,7.28-12.49C297.53,201.55,293.75,193.34,288.4,185.03z"/></g></g><g><g><path fill="#c17538" d="M311,238.9H108.64c-8.58,0-15.54-6.96-15.54-15.54v-17.26c0-8.58,6.96-15.54,15.54-15.54H311 c8.58,0,15.54,6.96,15.54,15.54v17.26C326.53,231.94,319.58,238.9,311,238.9z"/></g><g><path fill="#9b522a" d="M98.75,235.34c2.69,2.22,6.13,3.56,9.89,3.56H311c3.76,0,7.2-1.34,9.89-3.56H98.75z"/></g><g><path fill="#c17538" d="M311,287.23H108.64c-8.58,0-15.54-6.96-15.54-15.54v-17.26c0-8.58,6.96-15.54,15.54-15.54H311 c8.58,0,15.54,6.96,15.54,15.54v17.26C326.53,280.27,319.58,287.23,311,287.23z"/></g><g><path fill="#9b522a" d="M98.7,283.63c2.69,2.25,6.16,3.6,9.94,3.6H311c3.78,0,7.25-1.35,9.94-3.6H98.7z"/></g><g><path fill="#c17538" d="M311,335.55H108.64c-8.58,0-15.54-6.96-15.54-15.54v-17.26c0-8.58,6.96-15.54,15.54-15.54H311 c8.58,0,15.54,6.96,15.54,15.54v17.26C326.53,328.6,319.58,335.55,311,335.55z"/></g><g><path fill="#9b522a" d="M152.45,340.16h-8.5c-7.34,0-13.34-6-13.34-13.34V200.2c0-7.34,6-13.34,13.34-13.34h8.5 c7.34,0,13.34,6,13.34,13.34v126.62C165.79,334.16,159.79,340.16,152.45,340.16z"/></g><g><circle fill="#414343" r="5.33" cx="147.76" cy="209.41"/></g><g><circle fill="#414343" r="5.33" cx="148.2" cy="311.39"/></g><g><g><path fill="#9b522a" d="M277.5,339.71h-8.5c-7.34,0-13.34-6-13.34-13.34V199.75c0-7.34,6-13.34,13.34-13.34h8.5 c7.34,0,13.34,6,13.34,13.34v126.62C290.84,333.71,284.84,339.71,277.5,339.71z"/></g><g><circle fill="#414343" r="5.33" cx="272.81" cy="208.96"/></g><g><circle fill="#414343" r="5.33" cx="273.26" cy="310.94"/></g></g></g></g></svg>