<?xml version="1.0" encoding="UTF-8" standalone="no"?><svg xmlns="http://www.w3.org/2000/svg" xmlns:xlink="http://www.w3.org/1999/xlink" contentScriptType="text/ecmascript" fill="#000000" width="522.9" zoomAndPan="magnify" contentStyleType="text/css" viewBox="-1.6 -20.0 522.9 673.0" height="673" preserveAspectRatio="xMidYMid meet" version="1"><g id="change1_1"><path fill="#a9d5ff" clip-rule="evenodd" d="M165,653c-2.5-33.9-86.4-195-100.5-230.2 C44.8,373.5,0.8,295,0.1,241.7c-0.2-16.9-1.7-70,31-59.6c73.7,23.5,110.4,186.7,127.4,251c6.9,26,10.2,53.8,16.9,79.2 c1,3.7,10,41,10.6,40.3c9.4-9.7,0.1-105.4-0.1-116.9c-1.4-106.5-14.3-210.7-15.7-317.4c-0.4-28.5-9.3-96,17.3-114.3 C222.4-20,230,71.3,233.3,87.1c21.3,99.5,12.9,214.8,14.2,317.4c0.4,30.4-3.5,60.7-3.1,91c0.1,10.5-1.2,20-1,30.3 c0.1,4.8,1.7,19.3,1.6,14.4c-0.7-52,69.5-216.4,94.7-268.3c7.1-14.5,40.7-74.2,64.1-62.9c13.5,6.6-2.2,64.6-4.8,73.7 c-21.2,74.1-37.3,158.2-75,226.2c-27.8,50.2-38.4,72.3-36.6,74.1c0.6,0.6,3.8-1.2,4.3-1.5c13.6-7,31.5-40.5,41.2-52.5 c33.4-41.1,69.5-76.9,115.6-104c8.4-4.9,38.9-33.1,47.4-16.5c25.4,49.2-75.4,163.7-107.2,196.3c-7.1,7.3-54.3,44.4-54.3,47.9 L165,653L165,653z" fill-rule="evenodd"/></g></svg>