<?xml version="1.0" encoding="UTF-8" standalone="no"?><svg xmlns="http://www.w3.org/2000/svg" xmlns:xlink="http://www.w3.org/1999/xlink" contentScriptType="text/ecmascript" fill="#000000" width="508.4" zoomAndPan="magnify" contentStyleType="text/css" viewBox="-9.3 0.0 508.4 384.5" height="384.5" preserveAspectRatio="xMidYMid meet" version="1"><defs><clipPath id="a"><path d="M 117 66 L 499.089844 66 L 499.089844 370 L 117 370 Z M 117 66"/></clipPath><clipPath id="b"><path d="M 102 106 L 400 106 L 400 384.488281 L 102 384.488281 Z M 102 106"/></clipPath></defs><g><g id="change1_1" clip-path="url(#a)"><path fill="#a74e1e" d="M 497.910156 260.601562 C 494.980469 258.980469 483.503906 255.992188 479.769531 254.996094 C 475.203125 253.777344 489.375 255.652344 492.558594 255.355469 C 499.089844 254.746094 497.054688 252.394531 492.023438 251.871094 C 484.539062 251.09375 476.542969 250.113281 471.621094 247.96875 C 471.269531 247.816406 470.480469 247.707031 469.492188 247.703125 C 467.691406 247.695312 461.496094 244.21875 459.84375 245.234375 C 458.550781 246.027344 461.484375 251.042969 461.878906 252.835938 C 462.121094 253.941406 462.816406 255.269531 464.136719 256.855469 C 485.238281 282.273438 491.910156 277.472656 490.382812 275.558594 C 486.015625 270.097656 477.777344 261.742188 477.777344 261.742188 C 494.140625 273.296875 501.074219 270.992188 496.742188 268.4375 C 491.457031 265.320312 480.785156 259.269531 480.785156 259.269531 C 496.585938 265.019531 501.667969 262.679688 497.910156 260.601562 Z M 412.230469 133.882812 C 419.132812 142.074219 423.828125 150.835938 427.007812 159.304688 C 432.734375 174.546875 438.761719 197.375 438.761719 205.761719 C 438.761719 210.542969 433.335938 207.195312 432.910156 212.679688 C 428.859375 264.984375 407.125 344.96875 399.210938 369.429688 L 375.4375 369.429688 C 377.738281 353.921875 384.785156 309.109375 387.902344 281.644531 C 383 286.070312 373.511719 290.464844 358.230469 293.542969 C 353.117188 294.574219 345.96875 308.394531 339.519531 309.085938 C 334.621094 309.605469 330.71875 297.078125 325 297.355469 C 308.847656 298.136719 289.347656 297.855469 266.054688 296.035156 C 262.976562 321.976562 259.003906 350.339844 254.589844 369.429688 L 230.816406 369.429688 C 232.421875 341.964844 232.03125 314.613281 231.328125 291.632812 C 231.328125 291.632812 215.316406 289.84375 196.140625 280.394531 C 189.167969 276.957031 179.726562 284.257812 172.53125 278.515625 C 163.804688 271.550781 157.421875 250.929688 150.378906 239.648438 C 143.097656 227.976562 137.308594 213.726562 134.234375 196.339844 C 133.953125 194.75 133.699219 193.136719 133.46875 191.503906 C 122.988281 188.007812 117.667969 177.972656 117.101562 172.097656 C 116.753906 168.539062 117.511719 165.703125 119.347656 163.664062 C 122.144531 160.558594 126.625 160.011719 131.578125 159.886719 C 131.863281 114.199219 142.769531 66.757812 142.769531 66.757812 C 142.769531 66.757812 239.148438 77.621094 271.054688 81.148438 C 321.300781 86.703125 381.820312 97.773438 412.230469 133.882812"/></g><g id="change2_1"><path fill="#d36e24" d="M 469.492188 247.703125 C 442.304688 220.703125 439.175781 188.605469 427.003906 159.304688 C 427 159.296875 426.996094 159.289062 426.992188 159.28125 C 432.726562 174.53125 433.566406 188.847656 433.566406 197.238281 C 433.566406 202.015625 433.335938 207.195312 432.910156 212.679688 C 441.171875 229.089844 453.117188 244.9375 461.886719 252.835938 C 461 248.757812 466.285156 247.691406 469.492188 247.703125 Z M 235.570312 172.589844 C 235.351562 171.582031 234.984375 170.78125 234.589844 170.023438 C 234.183594 169.277344 233.726562 168.59375 233.21875 167.953125 C 232.714844 167.3125 232.152344 166.71875 231.507812 166.164062 C 230.855469 165.617188 230.148438 165.097656 229.195312 164.6875 L 229.15625 164.671875 C 229.011719 164.609375 228.855469 164.570312 228.691406 164.566406 C 227.964844 164.535156 227.351562 165.101562 227.320312 165.832031 C 227.277344 166.910156 227.53125 167.851562 227.890625 168.726562 C 228.253906 169.601562 228.75 170.398438 229.347656 171.109375 C 229.941406 171.820312 230.632812 172.457031 231.417969 172.984375 C 232.214844 173.503906 233.085938 173.9375 234.140625 174.121094 C 234.296875 174.148438 234.460938 174.148438 234.621094 174.109375 C 235.296875 173.964844 235.726562 173.296875 235.578125 172.621094 Z M 194.699219 199.675781 C 195.230469 200.457031 195.839844 201.207031 196.710938 201.863281 C 196.847656 201.96875 197.015625 202.046875 197.195312 202.085938 C 197.867188 202.230469 198.527344 201.804688 198.671875 201.132812 C 198.902344 200.066406 198.871094 199.101562 198.765625 198.160156 C 198.644531 197.226562 198.421875 196.332031 198.109375 195.46875 C 197.804688 194.601562 197.402344 193.773438 196.886719 192.984375 C 196.367188 192.199219 195.761719 191.445312 194.878906 190.796875 C 194.738281 190.695312 194.570312 190.613281 194.390625 190.570312 C 193.683594 190.414062 192.980469 190.855469 192.820312 191.5625 C 192.578125 192.632812 192.613281 193.597656 192.734375 194.53125 C 192.859375 195.464844 193.097656 196.355469 193.429688 197.210938 C 193.761719 198.066406 194.179688 198.890625 194.699219 199.675781 Z M 190.671875 250.402344 C 190.179688 251.332031 189.976562 252.226562 189.867188 253.109375 C 189.761719 253.988281 189.777344 254.859375 189.894531 255.714844 C 190.007812 256.570312 190.210938 257.414062 190.527344 258.246094 C 190.855469 259.078125 191.261719 259.898438 191.945312 260.6875 C 192.046875 260.804688 192.175781 260.90625 192.320312 260.980469 C 192.941406 261.304688 193.703125 261.058594 194.027344 260.441406 C 194.507812 259.511719 194.710938 258.617188 194.835938 257.734375 C 194.945312 256.851562 194.945312 255.980469 194.855469 255.125 C 194.765625 254.265625 194.574219 253.417969 194.269531 252.585938 C 193.953125 251.753906 193.546875 250.929688 192.851562 250.144531 C 192.75 250.027344 192.621094 249.925781 192.476562 249.851562 C 191.824219 249.503906 191.015625 249.753906 190.671875 250.402344 Z M 304.351562 278.738281 C 304.089844 277.964844 303.730469 277.226562 303.257812 276.527344 C 302.78125 275.832031 302.21875 275.167969 301.378906 274.601562 C 301.265625 274.527344 301.136719 274.464844 301.003906 274.425781 C 300.28125 274.210938 299.523438 274.625 299.3125 275.34375 C 299.023438 276.316406 299.011719 277.1875 299.085938 278.027344 C 299.167969 278.867188 299.363281 279.664062 299.652344 280.429688 C 299.9375 281.195312 300.3125 281.925781 300.789062 282.621094 C 301.28125 283.316406 301.847656 283.980469 302.675781 284.550781 C 302.785156 284.625 302.914062 284.6875 303.054688 284.726562 C 303.738281 284.921875 304.449219 284.523438 304.644531 283.839844 C 304.921875 282.871094 304.933594 282 304.871094 281.15625 C 304.796875 280.316406 304.617188 279.511719 304.351562 278.738281 Z M 404.910156 255.191406 C 404.421875 254.605469 403.855469 254.085938 403.195312 253.644531 C 402.535156 253.207031 401.800781 252.832031 400.847656 252.648438 C 400.742188 252.628906 400.628906 252.621094 400.515625 252.625 C 399.746094 252.664062 399.152344 253.320312 399.191406 254.089844 C 399.242188 255.058594 399.511719 255.835938 399.851562 256.554688 C 400.195312 257.265625 400.632812 257.898438 401.144531 258.46875 C 401.652344 259.035156 402.234375 259.542969 402.894531 259.980469 C 403.566406 260.40625 404.304688 260.78125 405.246094 260.972656 C 405.355469 260.996094 405.472656 261.003906 405.589844 260.996094 C 406.316406 260.953125 406.871094 260.328125 406.824219 259.597656 C 406.769531 258.636719 406.5 257.859375 406.167969 257.132812 C 405.828125 256.417969 405.40625 255.773438 404.910156 255.191406 Z M 406.496094 201.550781 C 405.9375 200.8125 405.308594 200.15625 404.617188 199.574219 C 403.933594 198.988281 403.179688 198.480469 402.351562 198.0625 C 401.519531 197.652344 400.628906 197.316406 399.550781 197.199219 C 399.382812 197.183594 399.203125 197.199219 399.03125 197.25 C 398.335938 197.460938 397.941406 198.199219 398.152344 198.894531 C 398.46875 199.929688 398.96875 200.742188 399.527344 201.480469 C 400.09375 202.214844 400.730469 202.859375 401.4375 203.421875 C 402.140625 203.988281 402.902344 204.484375 403.734375 204.894531 C 404.574219 205.296875 405.46875 205.632812 406.539062 205.757812 C 406.703125 205.773438 406.886719 205.761719 407.054688 205.707031 C 407.714844 205.5 408.078125 204.800781 407.871094 204.140625 C 407.550781 203.113281 407.050781 202.300781 406.496094 201.550781 Z M 347.339844 256.074219 C 346.65625 256.152344 346.160156 256.769531 346.234375 257.453125 C 346.371094 258.703125 346.75 259.78125 347.203125 260.808594 C 347.660156 261.835938 348.21875 262.789062 348.859375 263.6875 C 349.496094 264.585938 350.210938 265.433594 351.015625 266.21875 C 351.832031 266.992188 352.714844 267.722656 353.824219 268.296875 C 354.027344 268.402344 354.261719 268.449219 354.507812 268.417969 C 355.15625 268.339844 355.621094 267.753906 355.546875 267.101562 C 355.398438 265.859375 355.019531 264.777344 354.578125 263.742188 C 354.125 262.714844 353.582031 261.75 352.960938 260.839844 C 352.34375 259.925781 351.644531 259.070312 350.84375 258.28125 C 350.039062 257.496094 349.160156 256.765625 348.039062 256.203125 C 347.828125 256.097656 347.589844 256.050781 347.339844 256.074219 Z M 391.679688 153.328125 C 390.925781 152.59375 390.113281 151.949219 389.246094 151.386719 C 388.386719 150.816406 387.46875 150.335938 386.488281 149.957031 C 385.503906 149.582031 384.46875 149.28125 383.277344 149.234375 C 383.0625 149.226562 382.84375 149.269531 382.640625 149.375 C 382.019531 149.695312 381.773438 150.460938 382.09375 151.085938 C 382.644531 152.144531 383.347656 152.957031 384.101562 153.691406 C 384.859375 154.421875 385.683594 155.050781 386.5625 155.59375 C 387.4375 156.140625 388.363281 156.609375 389.347656 156.984375 C 390.339844 157.347656 391.375 157.644531 392.558594 157.703125 C 392.769531 157.714844 392.988281 157.671875 393.183594 157.566406 C 393.773438 157.253906 393.996094 156.527344 393.6875 155.9375 C 393.132812 154.890625 392.429688 154.074219 391.679688 153.328125 Z M 346.320312 214.941406 C 345.53125 214.070312 344.679688 213.289062 343.769531 212.582031 C 342.859375 211.871094 341.890625 211.242188 340.847656 210.710938 C 339.804688 210.183594 338.699219 209.726562 337.421875 209.503906 C 337.179688 209.460938 336.921875 209.492188 336.683594 209.605469 C 336.0625 209.894531 335.796875 210.632812 336.089844 211.25 C 336.644531 212.425781 337.375 213.367188 338.160156 214.234375 C 338.953125 215.097656 339.816406 215.867188 340.742188 216.554688 C 341.664062 217.246094 342.644531 217.859375 343.691406 218.390625 C 344.746094 218.90625 345.847656 219.363281 347.121094 219.59375 C 347.355469 219.636719 347.609375 219.609375 347.84375 219.496094 C 348.425781 219.214844 348.671875 218.511719 348.390625 217.929688 C 347.828125 216.761719 347.097656 215.820312 346.320312 214.941406 Z M 356.882812 114.238281 C 355.820312 113.628906 354.726562 113.117188 353.597656 112.695312 C 352.472656 112.273438 351.308594 111.945312 350.105469 111.726562 C 348.902344 111.515625 347.664062 111.394531 346.328125 111.546875 C 346.074219 111.574219 345.824219 111.683594 345.621094 111.875 C 345.132812 112.34375 345.113281 113.117188 345.578125 113.609375 C 346.507812 114.585938 347.535156 115.28125 348.59375 115.894531 C 349.652344 116.5 350.757812 116.992188 351.894531 117.390625 C 353.027344 117.792969 354.195312 118.105469 355.398438 118.316406 C 356.609375 118.511719 357.847656 118.632812 359.179688 118.492188 C 359.429688 118.46875 359.671875 118.359375 359.867188 118.171875 C 360.328125 117.726562 360.339844 116.988281 359.894531 116.527344 C 358.960938 115.5625 357.9375 114.863281 356.882812 114.238281 Z M 335.753906 168.832031 C 336.589844 169.496094 337.476562 170.054688 338.410156 170.523438 C 339.347656 170.992188 340.324219 171.382812 341.351562 171.675781 C 342.386719 171.953125 343.457031 172.160156 344.65625 172.117188 C 344.867188 172.109375 345.085938 172.046875 345.277344 171.921875 C 345.828125 171.558594 345.980469 170.8125 345.617188 170.257812 C 344.957031 169.257812 344.171875 168.503906 343.34375 167.820312 C 342.511719 167.148438 341.632812 166.578125 340.707031 166.085938 C 339.78125 165.59375 338.8125 165.191406 337.789062 164.894531 C 336.761719 164.601562 335.691406 164.394531 334.488281 164.445312 C 334.269531 164.453125 334.050781 164.519531 333.855469 164.648438 C 333.269531 165.027344 333.101562 165.808594 333.480469 166.394531 C 334.132812 167.410156 334.921875 168.160156 335.753906 168.832031 Z M 256.363281 267.359375 C 255.890625 266.25 255.328125 265.183594 254.652344 264.164062 C 253.976562 263.148438 253.210938 262.167969 252.179688 261.308594 C 251.980469 261.144531 251.730469 261.039062 251.453125 261.023438 C 250.777344 260.992188 250.199219 261.515625 250.167969 262.191406 C 250.105469 263.53125 250.308594 264.757812 250.597656 265.945312 C 250.890625 267.132812 251.292969 268.269531 251.789062 269.363281 C 252.28125 270.464844 252.859375 271.523438 253.539062 272.539062 C 254.230469 273.550781 254.996094 274.527344 256.019531 275.394531 C 256.210938 275.558594 256.457031 275.660156 256.726562 275.671875 C 257.367188 275.695312 257.910156 275.195312 257.9375 274.550781 C 257.988281 273.214844 257.789062 271.988281 257.511719 270.796875 C 257.226562 269.609375 256.835938 268.464844 256.363281 267.359375 Z M 291.121094 228.109375 C 290.398438 227.070312 289.589844 226.089844 288.6875 225.179688 C 287.777344 224.273438 286.792969 223.421875 285.570312 222.738281 C 285.335938 222.609375 285.050781 222.554688 284.765625 222.605469 C 284.105469 222.722656 283.664062 223.355469 283.785156 224.015625 C 284.03125 225.394531 284.519531 226.601562 285.078125 227.757812 C 285.644531 228.90625 286.3125 229.988281 287.058594 231.007812 C 287.800781 232.03125 288.621094 233.003906 289.53125 233.910156 C 290.449219 234.808594 291.4375 235.65625 292.648438 236.347656 C 292.878906 236.476562 293.152344 236.53125 293.433594 236.476562 C 294.058594 236.359375 294.472656 235.757812 294.355469 235.132812 C 294.097656 233.761719 293.609375 232.550781 293.0625 231.386719 C 292.5 230.234375 291.847656 229.144531 291.121094 228.109375 Z M 311.597656 128.441406 C 310.484375 127.867188 309.335938 127.402344 308.160156 127.023438 C 306.984375 126.644531 305.78125 126.359375 304.539062 126.1875 C 303.296875 126.023438 302.027344 125.949219 300.671875 126.152344 C 300.410156 126.191406 300.15625 126.316406 299.964844 126.523438 C 299.5 127.015625 299.523438 127.789062 300.015625 128.25 C 301.015625 129.191406 302.105469 129.847656 303.21875 130.421875 C 304.335938 130.984375 305.488281 131.4375 306.671875 131.792969 C 307.855469 132.148438 309.0625 132.417969 310.308594 132.582031 C 311.554688 132.730469 312.824219 132.804688 314.175781 132.613281 C 314.433594 132.578125 314.679688 132.457031 314.867188 132.253906 C 315.300781 131.78125 315.269531 131.050781 314.800781 130.613281 C 313.796875 129.6875 312.710938 129.023438 311.597656 128.441406 Z M 281.65625 178.726562 C 280.9375 177.738281 280.097656 176.855469 279.171875 176.078125 C 278.25 175.296875 277.234375 174.625 276.136719 174.097656 C 275.035156 173.570312 273.863281 173.164062 272.550781 173.058594 C 272.304688 173.039062 272.054688 173.09375 271.828125 173.222656 C 271.238281 173.570312 271.042969 174.324219 271.386719 174.910156 L 271.398438 174.929688 C 272.042969 176.027344 272.789062 176.890625 273.558594 177.703125 C 274.332031 178.511719 275.140625 179.242188 275.992188 179.925781 C 276.839844 180.613281 277.71875 181.257812 278.65625 181.859375 C 279.605469 182.453125 280.589844 183.027344 281.773438 183.46875 L 281.796875 183.476562 C 282.019531 183.5625 282.269531 183.578125 282.519531 183.511719 C 283.140625 183.339844 283.507812 182.695312 283.335938 182.070312 C 282.984375 180.804688 282.367188 179.722656 281.65625 178.726562 Z M 229.566406 222.636719 C 229.269531 221.679688 228.878906 220.75 228.375 219.859375 C 227.863281 218.96875 227.265625 218.105469 226.386719 217.335938 C 226.234375 217.199219 226.042969 217.097656 225.828125 217.050781 C 225.140625 216.890625 224.453125 217.320312 224.296875 218.007812 C 224.035156 219.148438 224.050781 220.195312 224.15625 221.21875 C 224.265625 222.234375 224.488281 223.21875 224.8125 224.167969 C 225.128906 225.121094 225.535156 226.046875 226.046875 226.933594 C 226.570312 227.820312 227.171875 228.683594 228.039062 229.457031 C 228.1875 229.589844 228.375 229.691406 228.585938 229.738281 C 229.238281 229.882812 229.886719 229.46875 230.03125 228.816406 C 230.28125 227.679688 230.269531 226.628906 230.175781 225.605469 C 230.070312 224.585938 229.863281 223.597656 229.566406 222.636719 Z M 265.746094 136.214844 C 264.832031 135.542969 263.871094 134.972656 262.871094 134.484375 C 261.871094 133.996094 260.828125 133.597656 259.734375 133.308594 C 258.640625 133.027344 257.503906 132.824219 256.242188 132.890625 C 256.007812 132.902344 255.769531 132.980469 255.566406 133.128906 C 255.011719 133.539062 254.894531 134.316406 255.300781 134.871094 C 256.050781 135.890625 256.921875 136.644531 257.835938 137.3125 C 258.753906 137.976562 259.71875 138.535156 260.730469 138.996094 C 261.738281 139.464844 262.789062 139.847656 263.886719 140.132812 C 264.988281 140.402344 266.125 140.601562 267.382812 140.550781 C 267.613281 140.539062 267.84375 140.464844 268.039062 140.3125 C 268.5625 139.921875 268.671875 139.179688 268.277344 138.65625 C 267.523438 137.652344 266.652344 136.894531 265.746094 136.214844 Z M 274.949219 103.070312 C 275.207031 103.019531 275.449219 102.878906 275.625 102.65625 C 276.023438 102.15625 275.941406 101.429688 275.441406 101.035156 C 274.355469 100.171875 273.207031 99.574219 272.035156 99.0625 C 270.863281 98.558594 269.664062 98.164062 268.445312 97.859375 C 267.226562 97.550781 265.984375 97.34375 264.714844 97.25 C 263.441406 97.164062 262.144531 97.167969 260.785156 97.453125 C 260.519531 97.511719 260.273438 97.652344 260.089844 97.878906 C 259.667969 98.402344 259.75 99.167969 260.269531 99.589844 C 261.351562 100.464844 262.503906 101.058594 263.675781 101.558594 C 264.851562 102.054688 266.050781 102.433594 267.277344 102.714844 C 268.503906 103 269.75 103.191406 271.019531 103.277344 C 272.296875 103.351562 273.59375 103.347656 274.949219 103.070312 Z M 177.855469 156.339844 C 175.648438 148.066406 167.949219 149.851562 148.925781 160.5625 C 138.789062 166.265625 118.695312 157.441406 120.085938 171.808594 C 120.710938 178.277344 128.082031 189.914062 141.632812 189.75 C 153.304688 189.605469 161.546875 187.066406 168.09375 182.964844 C 175.492188 178.328125 181.355469 169.464844 177.855469 156.339844 Z M 231.941406 122.15625 C 222.785156 125.492188 207.175781 128.585938 197.027344 112.3125 C 195.890625 118.148438 193.621094 124.34375 189.9375 130.816406 C 186.105469 137.542969 184.15625 144.039062 187.292969 161.679688 C 189.230469 172.570312 185.757812 187.515625 159.710938 196.273438 L 157.070312 197.03125 C 130.335938 203.386719 119.480469 192.542969 115.359375 182.277344 C 108.683594 165.648438 103.589844 161.171875 96.777344 157.488281 C 87.398438 152.421875 80.976562 146.148438 76.832031 139.382812 C 71.910156 153.890625 58.261719 156.402344 49.445312 156.730469 C 28.765625 157.503906 29.703125 171.269531 26.726562 165.914062 C 5.652344 128.003906 53.945312 114.441406 70.890625 110.9375 C 72.101562 100.71875 76.402344 91.519531 81.550781 85.707031 C 96.089844 69.292969 146.738281 58.976562 168.167969 63.613281 C 178.566406 65.863281 189.828125 74.664062 195.011719 87.796875 C 212.21875 84.644531 261.640625 79.210938 256.441406 122.09375 C 255.707031 128.175781 251.382812 115.074219 231.941406 122.15625 Z M 150.382812 239.648438 C 165.082031 289.890625 171.722656 339.160156 176.007812 369.429688 L 199.78125 369.429688 C 199.78125 369.429688 200.398438 313.242188 196.140625 280.390625 C 180.707031 272.785156 163.226562 260.226562 150.382812 239.648438 Z M 325 297.355469 C 338.246094 296.710938 349.238281 295.355469 358.230469 293.539062 C 352.625 318.589844 344.785156 352.183594 340.910156 369.429688 L 317.136719 369.429688 C 319.179688 347.5625 322.503906 318.386719 325 297.355469"/></g><g id="change3_1"><path fill="#fabd73" d="M 105.726562 46.207031 C 89.59375 45.703125 79.859375 75.554688 55.679688 80.746094 C 31.503906 85.9375 12.203125 83.304688 0.800781 46.136719 C 0.800781 46.136719 -9.296875 102.175781 42.171875 107.671875 C 93.640625 113.167969 113.722656 96.410156 120.394531 81.359375 C 127.070312 66.308594 121.859375 46.714844 105.726562 46.207031 Z M 221.300781 72.59375 C 175.703125 97.097656 150.785156 89.152344 138.925781 77.730469 C 127.070312 66.308594 124.507812 46.195312 139.257812 39.640625 C 154.007812 33.089844 174.277344 57.0625 198.632812 52.753906 C 222.984375 48.441406 239.863281 38.722656 236.402344 0.00390625 C 236.402344 0.00390625 266.894531 48.089844 221.300781 72.59375"/></g><g id="change4_1" clip-path="url(#b)"><path fill="#5f3329" d="M 168.484375 159.65625 C 167.207031 159.566406 166.195312 159.925781 165.25 160.496094 C 164.328125 161.074219 163.550781 161.878906 162.984375 162.796875 C 162.4375 163.722656 162.058594 164.746094 161.96875 165.792969 C 161.859375 166.835938 161.996094 167.890625 162.476562 168.875 C 162.535156 168.992188 162.613281 169.109375 162.707031 169.210938 C 163.210938 169.734375 164.042969 169.753906 164.566406 169.25 L 164.730469 169.097656 C 165.109375 168.734375 165.328125 168.378906 165.585938 168.046875 C 165.855469 167.726562 166.023438 167.390625 166.246094 167.09375 C 166.625 166.46875 166.992188 165.921875 167.285156 165.335938 C 167.605469 164.769531 167.902344 164.199219 168.222656 163.570312 C 168.519531 162.941406 168.90625 162.242188 169.203125 161.425781 L 169.359375 160.996094 C 169.390625 160.910156 169.410156 160.820312 169.414062 160.726562 C 169.453125 160.175781 169.035156 159.695312 168.484375 159.65625 Z M 138.15625 169.855469 C 137.191406 169.371094 136.109375 169.097656 135.019531 169.089844 C 133.914062 169.101562 132.863281 169.332031 131.828125 170.074219 C 131.753906 170.128906 131.683594 170.195312 131.625 170.269531 C 131.28125 170.707031 131.355469 171.339844 131.792969 171.679688 L 132.144531 171.960938 C 132.828125 172.496094 133.523438 172.886719 134.109375 173.265625 C 134.710938 173.636719 135.265625 173.960938 135.835938 174.277344 C 136.390625 174.621094 136.992188 174.894531 137.640625 175.226562 C 137.988281 175.359375 138.308594 175.558594 138.703125 175.691406 C 139.097656 175.835938 139.472656 176.023438 139.984375 176.132812 L 140.210938 176.179688 C 140.339844 176.203125 140.472656 176.214844 140.609375 176.199219 C 141.332031 176.125 141.859375 175.480469 141.785156 174.757812 C 141.675781 173.667969 141.238281 172.699219 140.597656 171.867188 C 139.96875 171.027344 139.109375 170.351562 138.15625 169.855469 Z M 167.476562 108.199219 C 165.441406 107.046875 163 106.496094 160.570312 106.761719 C 158.144531 107.015625 155.878906 108.0625 154.128906 109.601562 C 152.386719 111.144531 151.105469 113.214844 150.773438 115.445312 C 150.722656 115.789062 150.839844 116.15625 151.113281 116.40625 C 151.558594 116.808594 152.242188 116.777344 152.644531 116.335938 L 152.691406 116.285156 C 153.9375 114.917969 155.253906 113.875 156.679688 113.109375 C 158.097656 112.34375 159.597656 111.867188 161.078125 111.730469 C 162.558594 111.59375 164.109375 111.769531 165.644531 112.234375 C 167.183594 112.707031 168.671875 113.457031 170.171875 114.53125 L 170.238281 114.578125 C 170.53125 114.78125 170.917969 114.847656 171.277344 114.71875 C 171.871094 114.503906 172.175781 113.851562 171.964844 113.261719 C 171.191406 111.128906 169.507812 109.347656 167.476562 108.199219 Z M 117.859375 115.851562 C 115.636719 115.121094 113.136719 115.0625 110.808594 115.800781 C 108.476562 116.53125 106.464844 118.003906 105.050781 119.859375 C 103.648438 121.714844 102.800781 124 102.914062 126.25 C 102.9375 126.597656 103.121094 126.933594 103.441406 127.125 C 103.957031 127.433594 104.621094 127.265625 104.929688 126.753906 L 104.960938 126.695312 C 105.914062 125.109375 107 123.824219 108.246094 122.792969 C 109.484375 121.761719 110.863281 121.003906 112.285156 120.570312 C 113.707031 120.148438 115.265625 120.011719 116.859375 120.167969 C 118.460938 120.328125 120.070312 120.765625 121.753906 121.523438 L 121.824219 121.554688 C 122.152344 121.699219 122.546875 121.6875 122.875 121.488281 C 123.414062 121.160156 123.585938 120.460938 123.257812 119.925781 C 122.082031 117.984375 120.078125 116.574219 117.859375 115.851562 Z M 317.652344 383.972656 C 321.074219 386.25 328.394531 372.148438 328.394531 372.148438 C 328.394531 372.148438 334.679688 386.554688 337.507812 384.238281 C 339.171875 382.875 340.15625 373.054688 340.910156 369.429688 L 317.136719 369.429688 C 316.335938 377.007812 316.722656 383.351562 317.652344 383.972656 Z M 231.332031 383.972656 C 234.75 386.25 242.070312 372.148438 242.070312 372.148438 C 242.070312 372.148438 248.355469 386.554688 251.183594 384.238281 C 252.847656 382.875 253.835938 373.054688 254.589844 369.429688 L 230.816406 369.429688 C 230.015625 377.007812 230.402344 383.351562 231.332031 383.972656 Z M 375.4375 369.429688 C 374.636719 377.007812 373.253906 383.351562 374.183594 383.972656 C 377.601562 386.25 386.691406 372.148438 386.691406 372.148438 C 386.691406 372.148438 391.207031 386.554688 394.035156 384.238281 C 395.699219 382.875 398.457031 373.054688 399.210938 369.429688 Z M 199.78125 369.429688 C 200.582031 377.007812 200.195312 383.351562 199.265625 383.972656 C 195.84375 386.25 188.523438 372.148438 188.523438 372.148438 C 188.523438 372.148438 182.238281 386.554688 179.410156 384.238281 C 177.746094 382.875 176.761719 373.054688 176.007812 369.429688 L 199.78125 369.429688"/></g><g id="change5_1"><path fill="#f7983d" d="M 235.09375 105.386719 C 225.761719 99.046875 197.671875 95.277344 198.011719 100.144531 C 198.699219 110.085938 209.425781 112.632812 219.832031 111.707031 C 233.738281 110.472656 247.03125 113.492188 235.09375 105.386719 Z M 40.144531 143.410156 C 32.148438 155.421875 43.316406 147.609375 56.664062 143.507812 C 66.652344 140.441406 75.625 134.035156 72.511719 124.570312 C 70.988281 119.9375 46.398438 134.019531 40.144531 143.410156 Z M 165.617188 121.710938 C 160.488281 128.175781 174.808594 130.320312 177.472656 124.34375 C 180.878906 116.699219 169.074219 117.351562 165.617188 121.710938 Z M 102.335938 139.054688 C 96.296875 133.265625 107.476562 129.414062 112.320312 132.148438 C 119.511719 136.199219 107.058594 143.589844 102.335938 139.054688"/></g></g></svg>